<svg width="25" height="25" viewBox="0 0 25 25" fill="none" xmlns="http://www.w3.org/2000/svg">
<g clip-path="url(#clip0_1123_13953)">
<path d="M23.9999 6.00805C23.864 5.52328 23.5993 5.0844 23.2339 4.73805C22.8582 4.38106 22.3977 4.12569 21.8959 3.99605C20.0179 3.50105 12.4939 3.50105 12.4939 3.50105C9.35721 3.46537 6.22131 3.62233 3.10388 3.97105C2.60208 4.11027 2.14245 4.37134 1.76588 4.73105C1.39588 5.08705 1.12788 5.52605 0.987885 6.00705C0.651578 7.8188 0.488177 9.6584 0.499885 11.5011C0.487885 13.3421 0.650885 15.1811 0.987885 16.9951C1.12488 17.4741 1.39188 17.9111 1.76288 18.2641C2.13388 18.6171 2.59588 18.8721 3.10388 19.0071C5.00689 19.5011 12.4939 19.5011 12.4939 19.5011C15.6345 19.5368 18.7744 19.3798 21.8959 19.0311C22.3977 18.9014 22.8582 18.646 23.2339 18.2891C23.5991 17.9428 23.8636 17.5038 23.9989 17.0191C24.344 15.208 24.5118 13.3676 24.4999 11.5241C24.5258 9.67266 24.3583 7.82362 23.9999 6.00705V6.00805ZM10.1019 14.9251V8.07805L16.3619 11.5021L10.1019 14.9251Z" fill="white"/>
</g>
<defs>
<clipPath id="clip0_1123_13953">
<rect width="24" height="24" fill="white" transform="translate(0.5 0.5)"/>
</clipPath>
</defs>
</svg>
