<svg width="24" height="25" viewBox="0 0 24 25" fill="none" xmlns="http://www.w3.org/2000/svg">
<path fill-rule="evenodd" clip-rule="evenodd" d="M9.429 8.469H13.143V10.319C13.678 9.255 15.05 8.299 17.111 8.299C21.062 8.299 22 10.417 22 14.303V21.5H18V15.188C18 12.975 17.465 11.727 16.103 11.727C14.214 11.727 13.429 13.072 13.429 15.187V21.5H9.429V8.469ZM2.57 21.33H6.57V8.299H2.57V21.33ZM7.143 4.05C7.14315 4.38528 7.07666 4.71724 6.94739 5.02659C6.81812 5.33594 6.62865 5.61651 6.39 5.852C5.9064 6.33262 5.25181 6.60165 4.57 6.6C3.88939 6.59954 3.23631 6.3312 2.752 5.853C2.51421 5.61671 2.32539 5.33582 2.19634 5.02643C2.0673 4.71704 2.00058 4.38522 2 4.05C2 3.373 2.27 2.725 2.753 2.247C3.23689 1.76816 3.89024 1.4997 4.571 1.5C5.253 1.5 5.907 1.769 6.39 2.247C6.872 2.725 7.143 3.373 7.143 4.05Z" fill="white"/>
</svg>
