<svg width="25" height="25" viewBox="0 0 25 25" fill="none" xmlns="http://www.w3.org/2000/svg">
<g clip-path="url(#clip0_1123_13959)">
<path fill-rule="evenodd" clip-rule="evenodd" d="M7.965 0.566C9.138 0.512 9.512 0.5 12.5 0.5C15.488 0.5 15.862 0.513 17.034 0.566C18.206 0.619 19.006 0.806 19.706 1.077C20.439 1.354 21.104 1.787 21.654 2.347C22.214 2.896 22.646 3.56 22.922 4.294C23.194 4.994 23.38 5.794 23.434 6.964C23.488 8.139 23.5 8.513 23.5 11.5C23.5 14.488 23.487 14.862 23.434 16.035C23.381 17.205 23.194 18.005 22.922 18.705C22.646 19.4391 22.2133 20.1042 21.654 20.654C21.104 21.214 20.439 21.646 19.706 21.922C19.006 22.194 18.206 22.38 17.036 22.434C15.862 22.488 15.488 22.5 12.5 22.5C9.512 22.5 9.138 22.487 7.965 22.434C6.795 22.381 5.995 22.194 5.295 21.922C4.56092 21.646 3.89582 21.2133 3.346 20.654C2.78638 20.1047 2.35331 19.4399 2.077 18.706C1.806 18.006 1.62 17.206 1.566 16.036C1.512 14.861 1.5 14.487 1.5 11.5C1.5 8.512 1.513 8.138 1.566 6.966C1.619 5.794 1.806 4.994 2.077 4.294C2.35372 3.56008 2.78712 2.89531 3.347 2.346C3.89604 1.7865 4.56047 1.35344 5.294 1.077C5.994 0.806 6.794 0.62 7.964 0.566H7.965ZM16.945 2.546C15.785 2.493 15.437 2.482 12.5 2.482C9.563 2.482 9.215 2.493 8.055 2.546C6.982 2.595 6.4 2.774 6.012 2.925C5.499 3.125 5.132 3.362 4.747 3.747C4.38205 4.10205 4.10118 4.53428 3.925 5.012C3.774 5.4 3.595 5.982 3.546 7.055C3.493 8.215 3.482 8.563 3.482 11.5C3.482 14.437 3.493 14.785 3.546 15.945C3.595 17.018 3.774 17.6 3.925 17.988C4.101 18.465 4.382 18.898 4.747 19.253C5.102 19.618 5.535 19.899 6.012 20.075C6.4 20.226 6.982 20.405 8.055 20.454C9.215 20.507 9.562 20.518 12.5 20.518C15.438 20.518 15.785 20.507 16.945 20.454C18.018 20.405 18.6 20.226 18.988 20.075C19.501 19.875 19.868 19.638 20.253 19.253C20.618 18.898 20.899 18.465 21.075 17.988C21.226 17.6 21.405 17.018 21.454 15.945C21.507 14.785 21.518 14.437 21.518 11.5C21.518 8.563 21.507 8.215 21.454 7.055C21.405 5.982 21.226 5.4 21.075 5.012C20.875 4.499 20.638 4.132 20.253 3.747C19.8979 3.38207 19.4657 3.10121 18.988 2.925C18.6 2.774 18.018 2.595 16.945 2.546ZM11.095 14.891C11.8797 15.2176 12.7534 15.2617 13.5669 15.0157C14.3805 14.7697 15.0834 14.2489 15.5556 13.5422C16.0278 12.8356 16.2401 11.9869 16.156 11.1411C16.072 10.2953 15.697 9.50497 15.095 8.905C14.7112 8.52148 14.2472 8.22781 13.7363 8.04515C13.2255 7.86248 12.6804 7.79536 12.1405 7.84862C11.6006 7.90187 11.0792 8.07418 10.6138 8.35313C10.1485 8.63208 9.75074 9.01074 9.4493 9.46185C9.14786 9.91296 8.95019 10.4253 8.87052 10.962C8.79084 11.4986 8.83115 12.0463 8.98854 12.5655C9.14593 13.0847 9.41648 13.5626 9.78072 13.9647C10.145 14.3668 10.5938 14.6832 11.095 14.891ZM8.502 7.502C9.02702 6.97697 9.65032 6.5605 10.3363 6.27636C11.0223 5.99222 11.7575 5.84597 12.5 5.84597C13.2425 5.84597 13.9777 5.99222 14.6637 6.27636C15.3497 6.5605 15.973 6.97697 16.498 7.502C17.023 8.02702 17.4395 8.65032 17.7236 9.3363C18.0078 10.0223 18.154 10.7575 18.154 11.5C18.154 12.2425 18.0078 12.9777 17.7236 13.6637C17.4395 14.3497 17.023 14.973 16.498 15.498C15.4377 16.5583 13.9995 17.154 12.5 17.154C11.0005 17.154 9.56234 16.5583 8.502 15.498C7.44166 14.4377 6.84597 12.9995 6.84597 11.5C6.84597 10.0005 7.44166 8.56234 8.502 7.502ZM19.408 6.688C19.5381 6.56527 19.6423 6.41768 19.7143 6.25397C19.7863 6.09027 19.8248 5.91377 19.8274 5.73493C19.83 5.55609 19.7967 5.37855 19.7295 5.21281C19.6622 5.04707 19.5624 4.89651 19.436 4.77004C19.3095 4.64357 19.1589 4.54376 18.9932 4.47652C18.8275 4.40928 18.6499 4.37598 18.4711 4.37858C18.2922 4.38119 18.1157 4.41965 17.952 4.4917C17.7883 4.56374 17.6407 4.6679 17.518 4.798C17.2793 5.05103 17.1486 5.38712 17.1537 5.73493C17.1588 6.08274 17.2992 6.41488 17.5452 6.66084C17.7911 6.90681 18.1233 7.04723 18.4711 7.0523C18.8189 7.05737 19.155 6.92669 19.408 6.688Z" fill="white"/>
</g>
<defs>
<clipPath id="clip0_1123_13959">
<rect width="24" height="24" fill="white" transform="translate(0.5 0.5)"/>
</clipPath>
</defs>
</svg>
