<svg width="85" height="85" viewBox="0 0 85 85" fill="none" xmlns="http://www.w3.org/2000/svg">
<g clip-path="url(#clip0_1423_5562)">
<path d="M75.5276 38.3677C66.2742 24.4169 50.1434 16.4177 33.4836 18.0777C25.1378 18.9077 18.4337 22.0089 15.8251 29.5704C10.6123 44.6932 18.867 59.734 8.96141 67.4915C-0.948721 75.2445 29.1283 95.3111 44.1462 70.0637C59.1642 44.8164 88.2835 57.9052 76.6996 40.1509C76.2983 39.5398 75.9106 38.9423 75.5276 38.3677Z" fill="#DDE7FE"/>
<path d="M37.1142 18.6801C42.2631 18.6801 46.4543 14.4889 46.4543 9.34006C46.4543 4.19117 42.2677 0 37.1142 0C31.9608 0 27.7742 4.19117 27.7742 9.34006C27.7742 14.4889 31.9653 18.6801 37.1142 18.6801ZM37.1142 2.76371C40.7399 2.76371 43.6906 5.7144 43.6906 9.34006C43.6906 12.9657 40.7399 15.9164 37.1142 15.9164C33.4886 15.9164 30.5379 12.9657 30.5379 9.34006C30.5379 5.7144 33.4886 2.76371 37.1142 2.76371Z" fill="#2363C1"/>
<path d="M26.4421 37.1274C25.9861 37.2688 25.79 37.4603 25.4935 37.6701C25.1789 37.8936 24.9508 38.2539 24.9417 38.6826C24.5039 38.4591 23.8928 38.491 23.4869 38.7738C16.6916 43.5305 12.6236 51.3154 12.6236 59.5974C12.6236 73.6029 24.0114 84.9998 38.0169 84.9998C44.8167 84.9998 51.2836 82.3683 56.2273 77.598C60.4275 73.539 63.1092 68.2305 63.8024 62.6119C66.3745 66.3242 68.8372 69.8131 68.9421 69.9636C70.137 71.7194 72.0889 72.8139 74.0409 72.8139C75.0487 72.8139 76.0065 72.5266 76.8091 71.9839C79.2627 70.3193 79.7233 66.7027 77.8398 63.9254L65.394 45.5918L65.3119 45.4733C65.2253 45.3456 65.1341 45.2133 65.0428 45.0719C64.4363 44.1188 63.8115 43.1155 62.799 42.6275C61.6315 41.7473 60.1448 41.6378 58.7128 41.6378H42.4042V40.7257H54.5718C56.811 40.7257 58.5623 38.7783 58.5623 36.6303C58.5623 34.3455 56.5739 32.5167 54.1339 32.5167H42.4042V26.5241C42.4042 22.6978 39.6724 20.2031 35.9874 20.2031H33.397C29.4384 20.2031 26.4421 22.9395 26.4421 26.5241V37.1365V37.1274ZM39.6678 26.515V33.6203C39.6678 34.3637 40.3838 35.2439 41.1774 35.2439H54.1339C54.1932 35.2439 54.248 35.2302 54.3027 35.2348C55.1282 35.3078 55.7986 35.9006 55.7986 36.603C55.7986 37.3509 55.0369 37.9802 54.1339 37.9802H41.1774C40.3565 37.9802 39.6678 38.3861 39.6678 39.1432V43.0106C39.6678 43.7539 40.3838 44.8211 41.1774 44.8211H59.1232C59.9852 44.8211 60.7878 44.739 61.18 45.0765C61.2758 45.1586 61.3807 45.1267 61.4674 45.1449C61.5038 45.154 61.5403 45.1312 61.5768 45.1449C61.9006 45.268 62.4068 46.057 62.7078 46.5313C62.8401 46.7411 62.9723 46.9372 63.1046 47.1333L75.5504 65.4714C76.5811 66.9901 76.4488 68.8827 75.254 69.6945C74.9028 69.9316 74.4741 70.0593 74.0226 70.0593C72.9828 70.0593 71.9065 69.4209 71.2087 68.3947C71.1631 68.3309 66.3563 61.5174 63.2049 56.8701C62.9495 56.4916 62.5209 56.2636 62.0602 56.2636C61.782 56.2636 61.5175 56.3457 61.2849 56.5007C60.6556 56.9294 60.4868 57.7868 60.9155 58.4207L61.3533 59.0638C61.2621 59.2462 61.2165 59.4514 61.2165 59.6567C61.1892 71.8972 50.5585 82.2406 38.0078 82.2406C25.4571 82.2406 15.3691 72.0842 15.3691 59.6019C15.3691 52.2184 18.9856 45.2817 25.042 41.045C25.343 40.8352 25.5437 40.5159 25.6121 40.1511C25.6212 40.1055 25.6258 40.0599 25.6304 40.0143C26.0773 40.2423 26.6838 40.2104 27.0897 39.9231C27.2129 39.8318 27.3771 39.7406 27.5321 39.6631C27.5914 39.6859 27.7419 39.6996 27.8514 39.6996C28.5719 39.6996 29.1739 39.1295 29.1739 38.3177V26.5195C29.1739 24.4946 30.9982 22.9349 33.3925 22.9349H35.9829C38.14 22.9349 39.6632 24.2164 39.6632 26.5195L39.6678 26.515ZM54.3301 38.5184C54.2662 38.523 54.1978 38.5275 54.1339 38.5275C54.2024 38.5275 54.2662 38.5275 54.3301 38.5184Z" fill="#2363C1"/>
<path d="M29.9171 49.6782C29.9171 49.6782 29.8259 49.5414 29.7255 49.4821C29.7164 49.4775 29.7985 49.4866 29.7894 49.4821C29.3196 48.6703 29.1828 48.0044 29.1828 47.4709V44.1143C29.1828 43.3025 28.5808 42.7324 27.8602 42.7324C27.6368 42.7324 27.4863 42.7871 27.3403 42.8647H27.313C27.0667 42.851 26.8204 42.9057 26.5924 43.0289C19.0766 47.0923 18.2557 55.5796 18.2557 59.041C18.2557 61.335 18.6388 63.5971 19.3958 65.7633C19.5919 66.3152 20.1118 66.6891 20.7001 66.6891C20.8506 66.6891 20.9966 66.6618 21.1471 66.6116C21.4891 66.493 21.7673 66.2422 21.9269 65.9093C22.082 65.59 22.0957 65.2161 21.968 64.8558C21.2337 62.7625 20.9738 60.806 20.9738 59.0456C20.9738 54.9913 21.8813 49.5277 26.4419 46.3307V47.4709C26.4419 47.6077 26.337 47.7491 26.3507 47.8859C26.4556 49.1035 26.9299 50.1707 27.3814 50.9415C28.444 53.0165 30.738 54.3938 33.0411 54.3938H56.0948C56.1723 54.3938 56.2453 54.4622 56.3182 54.4485C56.3274 54.4485 56.3365 54.485 56.3456 54.485C56.9886 54.3665 57.4766 53.7599 57.4766 53.0849C57.4766 52.3233 56.8564 51.6575 56.0948 51.6575H33.0411C31.7869 51.6575 30.5282 50.9004 29.9125 49.6782H29.9171Z" fill="#2363C1"/>
<path d="M57.1212 54.7534C56.3687 54.8674 55.8488 55.5743 55.9674 56.3268C56.1042 57.2161 56.1772 58.1282 56.1772 59.0358C56.1772 68.727 48.2919 76.6122 38.6007 76.6122C34.4688 76.6122 30.4601 75.1528 27.3042 72.4986C27.0579 72.2888 26.7386 72.1748 26.4148 72.1748C26.0044 72.1748 25.6213 72.3527 25.3568 72.6673C25.1196 72.9501 25.0056 73.3058 25.0376 73.6752C25.0695 74.0446 25.2428 74.3775 25.5255 74.6147C29.1786 77.684 33.8212 79.3759 38.6007 79.3759C49.8152 79.3759 58.9409 70.2502 58.9409 59.0358C58.9409 57.9868 58.8588 56.9334 58.6992 55.9027C58.5851 55.1684 57.8783 54.6303 57.1212 54.7488V54.7534Z" fill="#2363C1"/>
<path d="M24.5407 70.0628C24.5407 70.8016 23.9433 71.3991 23.2045 71.3991C22.4657 71.3991 21.8682 70.8016 21.8682 70.0628C21.8682 69.324 22.4657 68.7266 23.2045 68.7266C23.9433 68.7266 24.5407 69.324 24.5407 70.0628Z" fill="#2363C1"/>
</g>
<defs>
<clipPath id="clip0_1423_5562">
<rect width="72.3626" height="85" fill="white" transform="translate(7)"/>
</clipPath>
</defs>
</svg>
