<svg width="85" height="85" viewBox="0 0 85 85" fill="none" xmlns="http://www.w3.org/2000/svg">
<g clip-path="url(#clip0_1423_5520)">
<path d="M51.1911 15.682C50.0036 0.752101 30.6837 18.6139 18.9757 30.7396C7.2677 42.8653 33.7354 55.2502 34.6715 62.9008C35.6075 70.5514 73.4042 90.8035 83.4064 57.3814C93.4087 23.9554 53.0941 39.6318 51.1911 15.6859V15.682Z" fill="#DDE7FE"/>
<path d="M60.6519 28.7982H49.4196V27.3787C49.4196 23.8938 46.7662 21.0625 43.3819 21.0625H31.5462C28.5718 21.0625 25.9997 23.1898 25.3229 25.9515C25.2262 26.3112 25.1604 26.6786 25.1372 27.0577C25.1372 27.0615 25.0985 27.0654 25.0985 27.0693C25.0908 27.1698 25.0482 27.2743 25.0482 27.3748V28.7943H14.1718C11.2825 28.7943 8.76843 30.6393 7.99486 33.165C7.81307 33.7027 7.64288 34.2712 7.64288 34.8707V62.1237C7.64288 62.9591 7.9059 63.7791 8.24627 64.5333C8.51702 65.1522 8.92701 65.7904 9.37568 66.2932C10.5747 67.6624 12.3462 68.6371 14.1718 68.6371H60.648C61.7116 68.6371 62.7057 68.2503 63.5837 67.7011C65.5215 66.6374 66.8211 64.5024 66.8211 62.1275V34.8707C66.8211 31.4593 64.1291 28.7943 60.648 28.7943L60.6519 28.7982ZM53.5814 32.6235C53.1598 32.6235 52.7498 32.8517 52.5448 33.1882C52.4559 33.312 52.2857 33.4512 52.2547 33.606C52.2431 33.6678 52.1232 33.7297 52.1232 33.7955V66.3164H22.7275V33.7955C22.7275 33.1495 22.1241 32.6235 21.4782 32.6235C21.0566 32.6235 20.6466 32.8517 20.4416 33.1882C20.3527 33.312 20.1786 33.4512 20.1515 33.606C20.1399 33.6678 20.02 33.7297 20.02 33.7955V66.3164H16.9257V33.7955C16.9257 33.1495 16.4113 32.6235 15.7654 32.6235C15.3438 32.6235 14.9802 32.8517 14.7752 33.1882C14.6862 33.312 14.6398 33.4512 14.6128 33.606C14.6012 33.6678 14.6089 33.7297 14.6089 33.7955V66.3164H14.1757C12.0329 66.3164 9.96746 64.2123 9.96746 62.1237V34.8707C9.96746 33.6098 10.7372 32.4301 11.766 31.7533C12.4661 31.3819 13.3712 31.1151 14.1757 31.1151H60.6519C62.9145 31.1151 64.5042 32.7357 64.5042 34.8707V62.1237C64.5042 62.5298 64.4424 63.0597 64.3418 63.4349C63.8467 65.0245 62.3808 66.3125 60.6519 66.3125H60.6364V33.7955C60.6364 33.1495 60.0601 32.6235 59.4141 32.6235C58.9925 32.6235 58.598 32.8517 58.393 33.1882C58.3079 33.312 58.3041 33.4512 58.277 33.606C58.2654 33.6678 58.3195 33.7297 58.3195 33.7955V66.3164H54.8385V33.7955C54.8385 33.1495 54.2351 32.6235 53.5891 32.6235H53.5814ZM29.2255 24.0524C29.9179 23.6656 30.7727 23.3832 31.5462 23.3832H43.3819C44.7472 23.3832 45.8805 24.0833 46.538 25.1044C46.5458 25.116 46.5226 25.1624 46.5303 25.174C46.9094 25.7813 47.0989 26.551 47.0989 27.3748V28.7943H27.3728V27.3748C27.3728 26.0636 28.1619 24.7834 29.2294 24.0524H29.2255ZM13.8547 29.3823C13.8353 29.3823 13.8121 29.3823 13.7889 29.3861C13.8121 29.3861 13.8315 29.3861 13.8547 29.3823ZM13.5336 29.4016C13.5336 29.4016 13.5259 29.4016 13.522 29.4016C13.522 29.4016 13.5298 29.4016 13.5336 29.4016Z" fill="#2363C1"/>
<path d="M34.5051 51.5519L31.9793 51.7762L30.3626 49.823C30.0841 49.4903 29.6122 49.3317 29.1906 49.4284C28.7536 49.5329 28.4209 49.8694 28.3204 50.3064L27.7518 52.778L25.3963 53.7102C24.9785 53.8765 24.6962 54.2555 24.6614 54.7042C24.6265 55.1529 24.8431 55.5745 25.2261 55.8027L27.3998 57.1061L27.5584 59.6357C27.5855 60.0844 27.8601 60.4712 28.2778 60.6452C28.4209 60.7032 28.5756 60.7342 28.7303 60.7342C29.0127 60.7342 29.2873 60.6336 29.5 60.4441L31.4108 58.7809L33.8669 59.4114C34.2962 59.5197 34.7603 59.3727 35.0466 59.0401C35.3405 58.6997 35.4101 58.2317 35.2361 57.8178L34.242 55.4855L35.5997 53.3466C35.8356 52.9753 35.8395 52.4879 35.6113 52.1089C35.3831 51.7337 34.9499 51.5132 34.5089 51.5519H34.5051ZM31.844 55.8375L32.1495 56.553L31.3992 56.3596C31.0317 56.2668 30.6217 56.3596 30.3394 56.611L29.7553 57.1216L29.705 56.348C29.6818 55.9651 29.4691 55.617 29.1365 55.4159L28.4712 55.0175L29.1945 54.7313C29.5542 54.5882 29.8172 54.2787 29.9062 53.9035L30.0802 53.1454L30.5753 53.745C30.8229 54.0428 31.2019 54.2014 31.581 54.1666L32.3545 54.0969L31.9407 54.7545C31.7318 55.0794 31.7009 55.4855 31.8517 55.8413L31.844 55.8375Z" fill="#2363C1"/>
<path d="M50.2126 47.1062L42.2603 45.8066C41.947 45.7601 41.6375 45.8336 41.39 46.0116C41.1386 46.1933 40.9684 46.468 40.9181 46.7735L38.6051 60.9376C38.5007 61.5758 38.9339 62.1792 39.5721 62.2836L47.5244 63.5832C47.5863 63.5948 47.6521 63.5987 47.7139 63.5987C47.9615 63.5987 48.1974 63.5213 48.3985 63.3782C48.6538 63.1964 48.8201 62.9257 48.8704 62.6163L51.1834 48.4522C51.2337 48.1427 51.1602 47.8333 50.9784 47.578C50.7966 47.3228 50.5259 47.1564 50.2164 47.1062H50.2126ZM48.6809 49.2296L46.747 61.0807L41.1076 60.1602L43.0416 48.3091L48.6809 49.2296Z" fill="#2363C1"/>
<path d="M26.3401 40.8232C26.3788 41.0708 26.4987 41.3028 26.6766 41.4769L32.7414 47.5533C32.8265 47.6384 32.9193 47.7312 33.0199 47.8047C33.1746 47.9672 33.3564 48.1373 33.5614 48.1373H33.5691C33.778 48.1373 33.9559 47.9672 34.1106 47.8047C34.2151 47.7273 34.3118 47.6345 34.3968 47.5417L39.3284 42.4477C39.5372 42.235 39.6649 41.9024 39.661 41.5852C39.661 41.2719 39.5256 40.9586 39.3052 40.7459L33.4299 35.033C33.2481 34.8551 33.016 34.743 32.7723 34.7081L29.6858 34.2865C29.6162 34.2788 29.535 34.2749 29.4808 34.2749C29.1752 34.2595 28.8813 34.3639 28.6569 34.5612L26.2434 36.6614C25.9378 36.9283 25.7909 37.3267 25.8566 37.7251L26.3401 40.831V40.8232ZM28.5951 40.0806L28.2702 37.9997L29.8096 36.6614L32.0761 36.9708L36.8297 41.5891L33.5421 44.9464L28.5912 40.0845L28.5951 40.0806Z" fill="#2363C1"/>
<path d="M29.9179 37.2881C29.8908 37.2998 29.8598 37.3152 29.8366 37.3268L29.7825 37.3539C29.2062 37.644 28.9741 38.3518 29.2681 38.9281C29.5775 39.5392 30.0803 39.6282 30.3549 39.6282C30.4748 39.6282 30.5638 39.6127 30.6102 39.6011C30.7727 39.5663 30.9351 39.489 31.0511 39.4C31.1478 39.342 31.2368 39.2685 31.3103 39.1834C31.5192 38.9513 31.6275 38.6535 31.612 38.3402C31.5965 38.0269 31.4611 37.7407 31.2291 37.528C30.8694 37.1992 30.3472 37.1064 29.9217 37.2843L29.9179 37.2881Z" fill="#2363C1"/>
<path d="M52.9238 26.527C52.9238 27.0995 53.3377 27.5946 53.8831 27.6951C53.8908 27.6951 53.8985 27.6565 53.9063 27.6565C53.9681 27.6681 54.03 27.6371 54.0958 27.6371H60.0329C60.0987 27.6371 60.1606 27.6797 60.2225 27.6681C60.2302 27.6681 60.2379 27.6913 60.2457 27.6913C60.791 27.5907 61.2049 27.0879 61.2049 26.5154C61.2049 25.8695 60.6789 25.3164 60.0329 25.3164H54.0958C53.4499 25.3164 52.9238 25.8811 52.9238 26.527Z" fill="#2363C1"/>
<path d="M15.6417 25.3164C14.9958 25.3164 14.4697 25.8811 14.4697 26.527C14.4697 27.0995 14.8836 27.5946 15.429 27.6951C15.4367 27.6951 15.4444 27.6565 15.4522 27.6565C15.514 27.6681 15.5759 27.6371 15.6417 27.6371H21.5788C21.6446 27.6371 21.7065 27.6797 21.7684 27.6681C21.7761 27.6681 21.7838 27.6913 21.7916 27.6913C22.3369 27.5907 22.7508 27.0879 22.7508 26.5154C22.7508 25.8695 22.2248 25.3164 21.5788 25.3164H15.6417Z" fill="#2363C1"/>
<path d="M74.8624 69.8555C73.8915 69.8555 73.1025 70.6445 73.1025 71.6115C73.1025 72.5784 73.8915 73.3675 74.8624 73.3675C75.8332 73.3675 76.6184 72.5784 76.6184 71.6115C76.6184 70.6445 75.8293 69.8555 74.8624 69.8555Z" fill="#2363C1"/>
<path d="M38.3111 69.8555C37.3403 69.8555 36.5551 70.6445 36.5551 71.6115C36.5551 72.5784 37.3442 73.3675 38.3111 73.3675C39.2781 73.3675 40.0671 72.5784 40.0671 71.6115C40.0671 70.6445 39.2781 69.8555 38.3111 69.8555Z" fill="#2363C1"/>
<path d="M44.403 69.8555C43.4322 69.8555 42.647 70.6445 42.647 71.6115C42.647 72.5784 43.436 73.3675 44.403 73.3675C45.37 73.3675 46.159 72.5784 46.159 71.6115C46.159 70.6445 45.37 69.8555 44.403 69.8555Z" fill="#2363C1"/>
<path d="M7.85175 69.8555C6.88478 69.8555 6.09574 70.6445 6.09574 71.6115C6.09574 72.5784 6.88478 73.3675 7.85175 73.3675C8.81871 73.3675 9.60775 72.5784 9.60775 71.6115C9.60775 70.6445 8.81871 69.8555 7.85175 69.8555Z" fill="#2363C1"/>
<path d="M32.2192 69.8555C31.2523 69.8555 30.4632 70.6445 30.4632 71.6115C30.4632 72.5784 31.2523 73.3675 32.2192 73.3675C33.1862 73.3675 33.9752 72.5784 33.9752 71.6115C33.9752 70.6445 33.1862 69.8555 32.2192 69.8555Z" fill="#2363C1"/>
<path d="M1.75601 69.8555C0.789043 69.8555 0 70.6445 0 71.6115C0 72.5784 0.789043 73.3675 1.75601 73.3675C2.72297 73.3675 3.51201 72.5784 3.51201 71.6115C3.51201 70.6445 2.72297 69.8555 1.75601 69.8555Z" fill="#2363C1"/>
<path d="M68.7705 69.8555C67.7996 69.8555 67.0145 70.6445 67.0145 71.6115C67.0145 72.5784 67.8035 73.3675 68.7705 73.3675C69.7374 73.3675 70.5265 72.5784 70.5265 71.6115C70.5265 70.6445 69.7374 69.8555 68.7705 69.8555Z" fill="#2363C1"/>
<path d="M56.5867 69.8555C55.6198 69.8555 54.8307 70.6445 54.8307 71.6115C54.8307 72.5784 55.6198 73.3675 56.5867 73.3675C57.5537 73.3675 58.3427 72.5784 58.3427 71.6115C58.3427 70.6445 57.5537 69.8555 56.5867 69.8555Z" fill="#2363C1"/>
<path d="M62.6786 69.8555C61.7117 69.8555 60.9226 70.6445 60.9226 71.6115C60.9226 72.5784 61.7117 73.3675 62.6786 73.3675C63.6456 73.3675 64.4346 72.5784 64.4346 71.6115C64.4346 70.6445 63.6456 69.8555 62.6786 69.8555Z" fill="#2363C1"/>
<path d="M20.0355 69.8555C19.0647 69.8555 18.2795 70.6445 18.2795 71.6115C18.2795 72.5784 19.0685 73.3675 20.0355 73.3675C21.0025 73.3675 21.7915 72.5784 21.7915 71.6115C21.7915 70.6445 21.0025 69.8555 20.0355 69.8555Z" fill="#2363C1"/>
<path d="M50.4949 69.8555C49.5279 69.8555 48.7389 70.6445 48.7389 71.6115C48.7389 72.5784 49.5279 73.3675 50.4949 73.3675C51.4618 73.3675 52.2547 72.5784 52.2547 71.6115C52.2547 70.6445 51.4657 69.8555 50.4949 69.8555Z" fill="#2363C1"/>
<path d="M26.1274 69.8555C25.1604 69.8555 24.3714 70.6445 24.3714 71.6115C24.3714 72.5784 25.1604 73.3675 26.1274 73.3675C27.0943 73.3675 27.8872 72.5784 27.8872 71.6115C27.8872 70.6445 27.0982 69.8555 26.1274 69.8555Z" fill="#2363C1"/>
<path d="M13.9436 69.8555C12.9728 69.8555 12.1876 70.6445 12.1876 71.6115C12.1876 72.5784 12.9767 73.3675 13.9436 73.3675C14.9106 73.3675 15.6996 72.5784 15.6996 71.6115C15.6996 70.6445 14.9106 69.8555 13.9436 69.8555Z" fill="#2363C1"/>
</g>
<defs>
<clipPath id="clip0_1423_5520">
<rect width="85" height="65.9972" fill="white" transform="translate(0 10)"/>
</clipPath>
</defs>
</svg>
