<svg width="85" height="72" viewBox="0 0 85 72" fill="none" xmlns="http://www.w3.org/2000/svg">
<g clip-path="url(#clip0_1615_17279)">
<path d="M74.9991 20.2228C57.9829 8.76384 49.0279 -7.06226 30.4447 4.92982C11.867 16.9219 17.8549 48.3426 7.02599 48.8757C-3.80296 49.4088 20.6389 87.9374 54.4289 62.3701C74.3098 47.3302 89.0966 29.7163 74.9937 20.2174L74.9991 20.2228Z" fill="#DDE7FE"/>
<path d="M77.4122 12.4844H7.58675C4.13992 12.4844 1.3457 15.2786 1.3457 18.7254V58.7242C1.3457 62.171 4.13992 64.9652 7.58675 64.9652H77.4122C80.8591 64.9652 83.6533 62.171 83.6533 58.7242V18.7254C83.6533 15.2786 80.8591 12.4844 77.4122 12.4844Z" stroke="#2363C1" stroke-width="4.25" stroke-miterlimit="10"/>
<path d="M21.0755 43.5822H21.3555L21.754 42.2413L26.4927 38.4989L29.0721 35.9303L20.1924 37.3357L19.8855 31.4878L15.3407 17.3633L14.1345 22.8935L11.0597 18.5049L14.226 34.6541L10.6343 33.9002L9.52501 35.8226L9.09961 37.1903L10.6881 36.8888L13.8437 41.6705" fill="#2363C1"/>
<path d="M73.4171 54.5782H53.7516C52.9664 54.5782 52.33 55.2147 52.33 55.9998V56.3875C52.33 57.1726 52.9664 57.8091 53.7516 57.8091H73.4171C74.2022 57.8091 74.8387 57.1726 74.8387 56.3875V55.9998C74.8387 55.2147 74.2022 54.5782 73.4171 54.5782Z" fill="#2363C1"/>
<path d="M62.7874 56.1712H62.7767C62.7013 55.7027 62.0874 54.9165 61.3443 54.9219C57.0095 54.9434 53.9024 54.965 53.8809 54.965C53.0624 54.965 52.3516 55.6381 52.3516 56.392C52.3516 56.435 52.3516 56.4727 52.3569 56.5104C52.3569 56.5374 52.3569 56.5589 52.3677 56.5858C52.3677 56.602 52.3731 56.6181 52.3785 56.6343C52.4539 56.9358 52.6531 57.1943 52.8308 57.372C53.1001 57.6413 53.5416 57.8136 53.9562 57.8082C53.9562 57.8082 57.0148 57.7974 61.3658 57.7759C62.152 57.7759 62.7982 57.1135 62.7982 56.3327V56.1712H62.7874Z" fill="#2363C1"/>
<path d="M47.1222 57.7445C46.2499 57.7445 45.5391 57.0337 45.5391 56.1613C45.5391 55.289 46.2445 54.5782 47.1222 54.5782C47.9999 54.5782 48.7054 55.289 48.7054 56.1613C48.7054 57.0337 47.9999 57.7445 47.1222 57.7445Z" fill="#2363C1"/>
</g>
<defs>
<clipPath id="clip0_1615_17279">
<rect width="85" height="70.477" fill="white" transform="translate(0 0.648438)"/>
</clipPath>
</defs>
</svg>
