<svg width="19" height="18" viewBox="0 0 19 18" fill="none" xmlns="http://www.w3.org/2000/svg">
<path d="M17.25 2.8125C17.25 1.23761 13.7629 0 9.375 0C4.98708 0 1.5 1.23761 1.5 2.8125V14.625C1.5 15.2463 2.00428 15.75 2.625 15.75V16.875C2.625 17.4963 3.12928 18 3.75 18H4.875C5.49572 18 6 17.4963 6 16.875V15.75H12.75V16.875C12.75 17.4963 13.2543 18 13.875 18H15C15.6207 18 16.125 17.4963 16.125 16.875V15.75H16.3502C16.9127 15.75 17.25 15.3001 17.25 14.8502V2.8125ZM4.3125 14.0625C3.69178 14.0625 3.1875 13.5588 3.1875 12.9375C3.1875 12.3162 3.69178 11.8125 4.3125 11.8125C4.93322 11.8125 5.4375 12.3162 5.4375 12.9375C5.4375 13.5588 4.93322 14.0625 4.3125 14.0625ZM4.875 10.125C4.25428 10.125 3.75 9.62128 3.75 9V4.5C3.75 3.87872 4.25428 3.375 4.875 3.375H13.875C14.4957 3.375 15 3.87872 15 4.5V9C15 9.62128 14.4957 10.125 13.875 10.125H4.875ZM14.4375 14.0625C13.8168 14.0625 13.3125 13.5588 13.3125 12.9375C13.3125 12.3162 13.8168 11.8125 14.4375 11.8125C15.0582 11.8125 15.5625 12.3162 15.5625 12.9375C15.5625 13.5588 15.0582 14.0625 14.4375 14.0625Z" fill="#01112C"/>
</svg>
