<svg width="20" height="20" viewBox="0 0 20 20" fill="none" xmlns="http://www.w3.org/2000/svg">
<g clip-path="url(#clip0_773_22958)">
<path d="M20 10C20 4.47715 15.5228 0 10 0C4.47715 0 0 4.47715 0 10C0 15.5228 4.47715 20 10 20C15.5228 20 20 15.5228 20 10Z" fill="#0C99C1"/>
<path d="M12.3595 10.2557C12.3971 10.2244 12.4273 10.1853 12.4481 10.141C12.4689 10.0967 12.4796 10.0484 12.4796 9.99946C12.4796 9.95055 12.4689 9.90224 12.4481 9.85795C12.4273 9.81367 12.3971 9.7745 12.3595 9.74321L9.21366 7.12238C9.165 7.08185 9.10581 7.05602 9.04301 7.04792C8.9802 7.03981 8.91639 7.04976 8.85904 7.0766C8.80168 7.10344 8.75316 7.14606 8.71915 7.19948C8.68514 7.25289 8.66705 7.31489 8.66699 7.37821V12.6215C8.66705 12.6849 8.68514 12.7469 8.71915 12.8003C8.75316 12.8537 8.80168 12.8963 8.85904 12.9232C8.91639 12.95 8.9802 12.96 9.04301 12.9518C9.10581 12.9437 9.165 12.9179 9.21366 12.8774L12.3595 10.2557Z" fill="white"/>
</g>
<defs>
<clipPath id="clip0_773_22958">
<rect width="20" height="20" fill="white"/>
</clipPath>
</defs>
</svg>
