<svg width="29" height="27" viewBox="0 0 29 27" fill="none" xmlns="http://www.w3.org/2000/svg">
<g clip-path="url(#clip0_1552_42998)">
<path d="M28.6468 8.02312C28.4249 7.87421 28.1457 7.84442 27.8963 7.94162L21.9776 10.2887C21.6688 11.0661 20.9648 12.4184 20.9744 12.4146L27.3889 9.87096V22.8041L20.9444 25.2014V16.7118C20.9444 16.2685 20.5838 15.9093 20.1389 15.9093C19.694 15.9093 19.3333 16.2685 19.3333 16.7118V25.2636L9.66667 22.5073V16.7118C9.66667 16.2685 9.30598 15.9093 8.86111 15.9093C8.41624 15.9093 8.05556 16.2685 8.05556 16.7118V22.4819L1.61111 25.1408V12.225L6.99313 10.2231C6.78172 9.68173 6.64045 9.16684 6.55083 8.67352L0.524115 10.9162C0.208941 11.0334 0 11.3334 0 11.6686V26.3414C0 26.6094 0.134528 26.8602 0.357918 27.009C0.581309 27.1579 0.866123 27.1846 1.11393 27.0827L8.77537 23.9215L19.9619 27.1125C20.0343 27.1329 20.109 27.1439 20.1837 27.1439C20.2797 27.1439 20.3749 27.1266 20.4653 27.0937L28.4759 24.1127C28.7911 23.9955 29 23.6955 29 23.3604V8.68767C29 8.4212 28.8678 8.17359 28.6468 8.02312ZM14.5 17.5142C14.9809 17.5142 15.4367 17.3003 15.7427 16.9308C17.3067 15.0427 20.9444 10.3721 20.9444 7.78574C20.9444 4.30042 18.0535 1.46484 14.5 1.46484C10.9465 1.46484 8.05556 4.30042 8.05556 7.78574C8.05556 10.3721 11.6933 15.0427 13.2573 16.9308C13.5634 17.3003 14.0191 17.5142 14.5 17.5142ZM14.5 3.06978C17.1621 3.06978 19.3333 5.18163 19.3333 7.78574C19.3333 9.1851 17.4138 12.3917 14.5 15.9093C11.5862 12.3917 9.66667 9.1851 9.66667 7.78574C9.66667 5.18163 11.8379 3.06978 14.5 3.06978Z" fill="#0C99C1"/>
</g>
<defs>
<clipPath id="clip0_1552_42998">
<rect width="29" height="26" fill="white" transform="translate(0 0.5)"/>
</clipPath>
</defs>
</svg>
