<svg width="19" height="18" viewBox="0 0 19 18" fill="none" xmlns="http://www.w3.org/2000/svg">
<g clip-path="url(#clip0_1174_37258)">
<path d="M17.0512 8.02867L15.8943 4.55776C15.4348 3.17957 14.1452 2.25 12.6924 2.25H12.875V1.125C12.875 0.503648 12.3714 0 11.75 0H7.25C6.62865 0 6.125 0.503648 6.125 1.125V2.25H6.30764C4.85484 2.25 3.5652 3.17957 3.10568 4.55776L1.94882 8.02867C1.10314 8.35228 0.5 9.16555 0.5 10.125V16.875C0.5 17.4963 1.00372 18 1.625 18H2.75C3.37128 18 3.875 17.4963 3.875 16.875V15.1875H15.125V16.875C15.125 17.4963 15.6287 18 16.25 18H17.375C17.9963 18 18.5 17.4963 18.5 16.875V10.125C18.5 9.16555 17.8969 8.35228 17.0512 8.02867ZM5.24033 5.26925C5.39357 4.80913 5.82259 4.5 6.30764 4.5H12.6924C13.1774 4.5 13.6064 4.80913 13.7597 5.26925L14.6283 7.875H4.37172L5.24033 5.26925ZM3.875 12.375C3.25372 12.375 2.75 11.8713 2.75 11.25C2.75 10.6286 3.25372 10.125 3.875 10.125C4.49628 10.125 5 10.6286 5 11.25C5 11.8713 4.49628 12.375 3.875 12.375ZM15.125 12.375C14.5037 12.375 14 11.8713 14 11.25C14 10.6286 14.5037 10.125 15.125 10.125C15.7463 10.125 16.25 10.6286 16.25 11.25C16.25 11.8713 15.7463 12.375 15.125 12.375Z" fill="#01112C"/>
</g>
<defs>
<clipPath id="clip0_1174_37258">
<rect width="18" height="18" fill="white" transform="translate(0.5)"/>
</clipPath>
</defs>
</svg>
