<svg width="16" height="16" viewBox="0 0 16 16" fill="none" xmlns="http://www.w3.org/2000/svg">
<path d="M6.82148 4.76419L7.59433 5.37437C7.72685 5.35159 7.86107 5.33334 8 5.33334C9.26937 5.33334 10.3011 6.32689 10.3841 7.57684L11.1546 8.18514C11.1757 8.03672 11.2 7.88902 11.2 7.73472V7.73334C11.2 5.96704 9.76665 4.53334 8 4.53334C7.5829 4.53334 7.18695 4.61889 6.82148 4.76419ZM8 12.5333C5.3371 12.5333 2.89212 10.7338 1.62437 7.84959C1.6145 7.82259 1.60127 7.75682 1.5999 7.73857C1.60127 7.70992 1.61455 7.64399 1.61915 7.62949C1.94017 6.89887 2.33652 6.23914 2.79135 5.65942L2.16502 5.16499C1.66347 5.80307 1.23165 6.52264 0.886725 7.30767C0.83905 7.41839 0.8 7.60937 0.8 7.73334C0.8 7.85777 0.83905 8.04824 0.886725 8.15897C2.24297 11.2452 4.92655 13.3333 8 13.3333C9.20327 13.3333 10.3451 13.0093 11.3728 12.4344L10.6793 11.8869C9.8393 12.3001 8.935 12.5333 8 12.5333ZM8 2.93334C10.6629 2.93334 13.1079 4.73282 14.3756 7.61704C14.3855 7.64404 14.3987 7.70987 14.4001 7.72812C14.3987 7.75674 14.3855 7.82269 14.3809 7.83714C14.0599 8.56767 13.6637 9.22734 13.2089 9.80702L13.8351 10.3015C14.3366 9.66342 14.7684 8.94389 15.1133 8.15897C15.1609 8.04824 15.2 7.85727 15.2 7.73334C15.2 7.60892 15.1609 7.41839 15.1133 7.30767C13.757 4.22147 11.0734 2.13334 8 2.13334C6.79688 2.13334 5.65508 2.45731 4.62752 3.03206L5.32115 3.57969C6.16097 3.16654 7.06512 2.93334 8 2.93334ZM8.00143 10.9333C8.4183 10.9333 8.81395 10.8478 9.17925 10.7026L8.4062 10.0923C8.27353 10.1151 8.1391 10.1333 8 10.1333C6.73003 10.1333 5.69785 9.13887 5.61578 7.88924L4.8456 7.28124C4.82433 7.43022 4.8 7.57852 4.8 7.73334C4.8 9.49964 6.23335 10.9333 8 10.9333H8.00143ZM15.8477 13.4193L0.6476 1.41884C0.47495 1.28251 0.223375 1.31259 0.0858749 1.48486C-0.0508251 1.65829 -0.0211501 1.90989 0.1523 2.04701L15.3524 14.0474C15.4258 14.1052 15.5133 14.1333 15.6001 14.1333C15.718 14.1333 15.8352 14.081 15.9141 13.9814C16.0508 13.8079 16.0212 13.5564 15.8477 13.4193Z" fill="#0C99C1"/>
</svg>
