<svg width="17" height="16" viewBox="0 0 17 16" fill="none" xmlns="http://www.w3.org/2000/svg">
<g clip-path="url(#clip0_2408_4686)">
<path d="M12.5593 5.98964C12.5033 6.05229 12.4265 6.08362 12.3495 6.08362C12.28 6.08362 12.2106 6.05799 12.1556 6.00615L8.63524 2.68901L5.11486 6.00615C4.99879 6.11553 4.81772 6.10869 4.71113 5.98964C4.60399 5.87115 4.61124 5.68714 4.72704 5.57777L8.44133 2.07777C8.55125 1.97408 8.71922 1.97408 8.82915 2.07777L12.5434 5.57777C12.6592 5.68714 12.6665 5.87115 12.5593 5.98964Z" fill="#01112C"/>
</g>
<g clip-path="url(#clip1_2408_4686)">
<path d="M4.71116 10.0941C4.76725 10.0315 4.84399 10.0001 4.92099 10.0001C4.99047 10.0001 5.05993 10.0258 5.1149 10.0776L8.63527 13.3948L12.1556 10.0776C12.2717 9.96824 12.4528 9.97508 12.5594 10.0941C12.6665 10.2126 12.6593 10.3966 12.5435 10.506L8.82918 14.006C8.71925 14.1097 8.55129 14.1097 8.44136 14.006L4.72708 10.506C4.61127 10.3966 4.60402 10.2126 4.71116 10.0941Z" fill="#01112C"/>
</g>
<defs>
<clipPath id="clip0_2408_4686">
<rect width="8" height="8" fill="white" transform="translate(4.63525)"/>
</clipPath>
<clipPath id="clip1_2408_4686">
<rect width="8" height="8" fill="white" transform="translate(12.6353 16) rotate(-180)"/>
</clipPath>
</defs>
</svg>
