<svg width="45" height="40" viewBox="0 0 45 40" fill="none" xmlns="http://www.w3.org/2000/svg">
<path d="M42.5 20C42.5 17.2266 40.9863 14.668 38.623 13.3203C39.3359 10.6934 38.6035 7.82227 36.6406 5.85938C34.6777 3.89648 31.8066 3.16406 29.1797 3.87695C27.832 1.51367 25.2734 0 22.5 0C19.7266 0 17.168 1.51367 15.8203 3.87695C13.1934 3.16406 10.3223 3.89648 8.35938 5.85938C6.39648 7.82227 5.66406 10.6934 6.37695 13.3203C4.01367 14.668 2.5 17.2266 2.5 20C2.5 22.7734 4.01367 25.332 6.37695 26.6797C5.66406 29.3066 6.39648 32.1777 8.35938 34.1406C10.4297 36.2109 13.3105 36.8066 15.8203 36.123C17.1777 38.4863 19.7266 40 22.5 40C25.2734 40 27.8223 38.4863 29.1797 36.123C31.7383 36.8164 34.5996 36.1816 36.6406 34.1406C38.6035 32.1777 39.3359 29.3066 38.623 26.6797C40.9863 25.332 42.5 22.7734 42.5 20ZM35.3809 25.332C35.8008 26.2598 37.6855 29.5605 34.873 32.373C32.6172 34.6289 30.3809 34.043 27.832 32.8809C27.4805 33.8281 26.4844 37.5 22.5 37.5C18.4277 37.5 17.4414 33.6328 17.168 32.8809C14.6191 34.043 12.373 34.6191 10.127 32.373C7.24609 29.5117 9.27734 26.084 9.61914 25.332C8.67188 24.9805 5 23.9844 5 20C5 15.9277 8.86719 14.9414 9.61914 14.668C9.19922 13.7402 7.31445 10.4395 10.127 7.62695C12.998 4.74609 16.4355 6.78711 17.168 7.11914C17.5195 6.17188 18.5156 2.5 22.5 2.5C26.5723 2.5 27.5586 6.36719 27.832 7.11914C28.7598 6.69922 32.0605 4.81445 34.873 7.62695C37.7539 10.4883 35.7227 13.916 35.3809 14.668C36.3281 15.0195 40 16.0156 40 20C40 24.0723 36.1328 25.0586 35.3809 25.332ZM27.8662 12.8663L15.3663 25.3662C14.878 25.8545 14.878 26.6455 15.3663 27.1338C15.6103 27.378 15.9302 27.5 16.25 27.5C16.5698 27.5 16.8897 27.378 17.1337 27.1338L29.6338 14.6337C30.122 14.1455 30.122 13.3545 29.6338 12.8663C29.1455 12.378 28.3545 12.378 27.8662 12.8663ZM17.5 16.875C18.5356 16.875 19.375 16.0355 19.375 15C19.375 13.9645 18.5356 13.125 17.5 13.125C16.4645 13.125 15.625 13.9645 15.625 15C15.625 16.0355 16.4645 16.875 17.5 16.875ZM27.5 23.125C26.4645 23.125 25.625 23.9645 25.625 25C25.625 26.0355 26.4645 26.875 27.5 26.875C28.5356 26.875 29.375 26.0355 29.375 25C29.375 23.9645 28.5356 23.125 27.5 23.125Z" fill="#01112C"/>
</svg>
