<svg width="20" height="20" viewBox="0 0 20 20" fill="none" xmlns="http://www.w3.org/2000/svg">
<path d="M16.6667 3.66667C16.6667 2.74625 15.9205 2 15 2H5C4.07951 2 3.33333 2.74625 3.33333 3.66667V14.2222H16.6667V3.66667ZM13.1554 6.68097L10.0998 10.5699C9.95986 10.7489 9.7526 10.8628 9.52583 10.8845C9.49868 10.8878 9.47156 10.8889 9.44444 10.8889C9.24587 10.8889 9.05382 10.8184 8.90191 10.6882L6.95747 9.02149C6.60806 8.72201 6.56792 8.19576 6.8674 7.84635C7.16799 7.49698 7.69424 7.45792 8.04253 7.75629L9.32618 8.85656L11.8446 5.65236C12.1289 5.29101 12.6541 5.22809 13.0143 5.51128C13.3767 5.79556 13.4397 6.31965 13.1554 6.68097ZM18.3333 10.8889H17.7778V14.7778C17.7778 15.0846 17.529 15.3333 17.2222 15.3333H2.77778C2.47097 15.3333 2.22222 15.0846 2.22222 14.7778V10.8889H1.66667C0.74625 10.8889 0 11.6351 0 12.5556V15.8889C0 16.8093 0.74625 17.5556 1.66667 17.5556H18.3333C19.2538 17.5556 20 16.8093 20 15.8889V12.5556C20 11.6351 19.2538 10.8889 18.3333 10.8889Z" fill="#01112C"/>
</svg>
