<svg width="20" height="20" viewBox="0 0 20 20" fill="none" xmlns="http://www.w3.org/2000/svg">
<g clip-path="url(#clip0_1273_40165)">
<path d="M19.9354 16.4795C19.7169 15.8252 19.0162 15.47 18.3546 15.6897L17.5978 15.9412L15.9688 12.0361C15.7789 11.5613 15.3191 11.25 14.8077 11.25H10.9882L10.5817 9.375H13.1251C13.816 9.375 14.3751 8.81594 14.3751 8.125C14.3751 7.43406 13.816 6.875 13.1251 6.875H10.0398L9.9825 6.61055C9.8348 5.58516 8.87531 4.87352 7.8609 5.01875C6.83551 5.16523 6.12262 6.11496 6.2691 7.14035L7.19394 12.6261C7.25863 13.2643 7.79598 13.75 8.43754 13.75H13.962L15.7142 17.9639C15.9095 18.4509 16.377 18.75 16.8751 18.75C17.0057 18.75 17.14 18.7293 17.2706 18.6853L19.1456 18.0603C19.7999 17.843 20.1539 17.135 19.9354 16.4795ZM6.25004 18.125C3.83762 18.125 1.875 16.1624 1.875 13.75C1.875 11.631 3.38984 9.86145 5.39309 9.46168L5.08234 7.61781C2.18996 8.16559 0 10.6982 0 13.75C0 17.2018 2.79824 20 6.25004 20C9.27367 20 11.7949 17.8528 12.3741 15H10.4211C9.8793 16.801 8.22523 18.125 6.25004 18.125ZM7.50004 3.75C8.53559 3.75 9.37504 2.91047 9.37504 1.875C9.37504 0.839531 8.53559 0 7.50004 0C6.46449 0 5.62504 0.839531 5.62504 1.875C5.62504 2.91047 6.46449 3.75 7.50004 3.75Z" fill="#01112C"/>
</g>
<defs>
<clipPath id="clip0_1273_40165">
<rect width="20" height="20" fill="white"/>
</clipPath>
</defs>
</svg>
