<svg width="24" height="24" viewBox="0 0 24 24" fill="none" xmlns="http://www.w3.org/2000/svg">
<g clip-path="url(#clip0_2038_4658)">
<path d="M0 22V20.2427H24V22H0ZM3.78 17.148L3.64667 17.096L3.56 17.0427L3.492 16.9893L0.12 13.924L0.06 13.8533C0.0347416 13.8162 0.0145629 13.7758 0 13.7333L0 13.512L0.133333 13.4333L0.913333 13.0027L1.04667 12.9493L1.236 12.9067H1.98933L3.80667 13.5213H4.36533L4.46667 13.468L9.608 10.6467L9.65067 10.584V10.5147C9.65311 10.497 9.65311 10.479 9.65067 10.4613C9.65189 10.4436 9.65189 10.4258 9.65067 10.408C9.65186 10.3845 9.65186 10.3609 9.65067 10.3373C9.65304 10.3112 9.65304 10.2848 9.65067 10.2587V10.1027L2.77733 3.616V3.27467L2.828 3.2H2.888L4.628 2.06133L4.76533 2H5.35733L5.504 2.05333L5.7 2.13333L14.2453 7.58133H14.324L14.4867 7.64267H15.0013L15.1133 7.6L19.9653 4.94533C20.1094 4.8634 20.2581 4.78994 20.4107 4.72533C20.5733 4.65467 20.7533 4.58533 20.944 4.51467L21.3213 4.4L21.6813 4.312L22.0933 4.24133H23.096C23.2044 4.26077 23.3107 4.29069 23.4133 4.33067C23.5119 4.36791 23.6066 4.4148 23.696 4.47067C23.7522 4.50473 23.8038 4.54596 23.8493 4.59333C23.8844 4.63001 23.9136 4.67182 23.936 4.71733C23.9651 4.77577 23.9854 4.83824 23.996 4.90267C24.0069 4.97828 24.0069 5.05506 23.996 5.13067C23.9878 5.20504 23.9736 5.27863 23.9533 5.35067C23.9328 5.4314 23.907 5.51068 23.876 5.588C23.876 5.684 23.7987 5.76267 23.756 5.85467L23.6 6.13333C23.536 6.23644 23.4676 6.336 23.3947 6.432L23.1467 6.69867C23.0495 6.80926 22.9467 6.91473 22.8387 7.01467C22.7053 7.148 22.58 7.252 22.4267 7.376C22.2729 7.50115 22.1126 7.6182 21.9467 7.72667C21.8182 7.81367 21.6846 7.89292 21.5467 7.964L4.34533 17.0533L4.22533 17.1067L4.092 17.1493L3.78 17.148Z" fill="#0C99C1"/>
</g>
<defs>
<clipPath id="clip0_2038_4658">
<rect width="24" height="24" fill="white"/>
</clipPath>
</defs>
</svg>
