<svg width="21" height="21" viewBox="0 0 21 21" fill="none" xmlns="http://www.w3.org/2000/svg">
<g clip-path="url(#clip0_773_22962)">
<path fill-rule="evenodd" clip-rule="evenodd" d="M16.0557 2.1853C14.4112 1.08649 12.4778 0.5 10.5 0.5C7.84873 0.502912 5.30688 1.55742 3.43215 3.43215C1.55742 5.30688 0.502912 7.84873 0.5 10.5C0.5 12.4778 1.08649 14.4112 2.1853 16.0557C3.28412 17.7002 4.8459 18.9819 6.67317 19.7388C8.50043 20.4957 10.5111 20.6937 12.4509 20.3079C14.3907 19.922 16.1725 18.9696 17.5711 17.5711C18.9696 16.1725 19.922 14.3907 20.3079 12.4509C20.6937 10.5111 20.4957 8.50043 19.7388 6.67317C18.9819 4.8459 17.7002 3.28412 16.0557 2.1853ZM5.77564 3.43051C7.17346 2.49652 8.81685 1.998 10.498 1.998C12.7514 2.00117 14.9115 2.89773 16.5049 4.4911C18.0983 6.08447 18.9948 8.24463 18.998 10.498C18.998 12.1791 18.4995 13.8225 17.5655 15.2203C16.6315 16.6182 15.304 17.7076 13.7508 18.351C12.1976 18.9943 10.4886 19.1627 8.83972 18.8347C7.19088 18.5067 5.67633 17.6972 4.48758 16.5084C3.29884 15.3197 2.48929 13.8051 2.16131 12.1563C1.83334 10.5074 2.00167 8.79836 2.64501 7.24519C3.28836 5.69202 4.37782 4.3645 5.77564 3.43051Z" fill="#F62F03"/>
<path d="M11.145 4.5C11.3124 4.50052 11.4748 4.55701 11.6063 4.66048C11.7379 4.76396 11.8311 4.90846 11.871 5.071L11.888 5.158L11.894 5.249V11.092C11.8935 11.2594 11.837 11.4218 11.7335 11.5533C11.6301 11.6849 11.4856 11.7781 11.323 11.818L11.236 11.835L11.145 11.841H7.25002C7.06681 11.8415 6.88979 11.7747 6.75253 11.6534C6.61528 11.532 6.52734 11.3645 6.50539 11.1826C6.48344 11.0007 6.52901 10.8171 6.63345 10.6666C6.73789 10.5161 6.89395 10.4091 7.07202 10.366L7.15902 10.349L7.25002 10.343H10.395V5.249C10.3952 5.08017 10.4524 4.91635 10.5573 4.78405C10.6622 4.65175 10.8087 4.55872 10.973 4.52L11.058 4.505L11.145 4.5Z" fill="#F62F03"/>
</g>
<defs>
<clipPath id="clip0_773_22962">
<rect width="20" height="20" fill="white" transform="translate(0.5 0.5)"/>
</clipPath>
</defs>
</svg>
