<svg width="20" height="20" viewBox="0 0 20 20" fill="none" xmlns="http://www.w3.org/2000/svg">
<path d="M15.3472 5H13.4722V1.875C13.4722 0.839844 12.6323 0 11.5972 0H7.84717C6.81201 0 5.97217 0.839844 5.97217 1.875V5H4.09717C3.06201 5 2.22217 5.83984 2.22217 6.875V16.875C2.22217 17.9102 3.06201 18.75 4.09717 18.75H4.72217V19.375C4.72217 19.7217 5.00049 20 5.34717 20H6.59717C6.94385 20 7.22217 19.7217 7.22217 19.375V18.75H12.2222V19.375C12.2222 19.7217 12.5005 20 12.8472 20H14.0972C14.4438 20 14.7222 19.7217 14.7222 19.375V18.75H15.3472C16.3823 18.75 17.2222 17.9102 17.2222 16.875V6.875C17.2222 5.83984 16.3823 5 15.3472 5ZM7.84717 1.875H11.5972V5H7.84717V1.875ZM14.0972 15H5.34717C5.00338 15 4.72217 14.7187 4.72217 14.375C4.72217 14.0312 5.00338 13.75 5.34717 13.75H14.0972C14.441 13.75 14.7222 14.0312 14.7222 14.375C14.7222 14.7187 14.441 15 14.0972 15ZM14.0972 10H5.34717C5.00338 10 4.72217 9.71871 4.72217 9.375C4.72217 9.03121 5.00338 8.75 5.34717 8.75H14.0972C14.441 8.75 14.7222 9.03121 14.7222 9.375C14.7222 9.71871 14.441 10 14.0972 10Z" fill="#01112C"/>
</svg>
