<svg width="24" height="24" viewBox="0 0 24 24" fill="none" xmlns="http://www.w3.org/2000/svg">
<path d="M0 20.6962V19.2303H24V20.6962H0ZM21.0172 18.3076C20.8416 18.2778 20.6644 18.2558 20.4863 18.2419C20.2926 18.2107 20.101 18.1718 19.9115 18.125C19.7634 18.09 19.6175 18.0481 19.4745 17.9992L1.47386 11.8495L1.34864 11.8049L1.22342 11.7537L1.08818 11.6591C1.05814 11.6354 1.032 11.6081 1.01054 11.5779L0.960451 11.4666C0.949464 11.4382 0.940678 11.4092 0.934154 11.3797C0.931871 11.3549 0.931871 11.33 0.934154 11.3052L1.07941 7.36373C1.07603 7.3371 1.07603 7.31022 1.07941 7.28359C1.0923 7.25802 1.10825 7.23377 1.127 7.21124L1.16957 7.15225H1.34989L2.20766 7.41605L2.33288 7.46836L2.49692 7.56409L2.63341 7.66649L2.71105 7.74775L2.77992 7.82789L2.85631 7.9392L2.99405 8.144L3.73161 9.65334L3.78295 9.72681L3.82552 9.82253L3.92821 9.92605L4.0071 10.0106L4.10978 10.0474L9.85746 11.5422H10.2431L10.3032 11.4977V11.4098C10.3066 11.3929 10.3066 11.3755 10.3032 11.3586V11.3586V11.3219L8.76552 4.03673L8.81937 4H9.05979L11.0057 4.59439L11.1447 4.64559L11.27 4.71794L11.3814 4.82034L11.4515 4.9016L11.5129 5.00177L11.5893 5.1487L11.6581 5.31678V5.35351L15.8418 13.056C15.8384 13.0804 15.8384 13.1051 15.8418 13.1295C15.864 13.1464 15.8811 13.168 15.8916 13.1923C15.9021 13.2166 15.9056 13.2428 15.9019 13.2686L15.9445 13.3566L15.9946 13.4445L16.0459 13.518L16.0973 13.5758L16.1824 13.6348L16.2851 13.6794L20.6616 15.3156C20.8256 15.3679 20.9358 15.4113 21.1161 15.4848C21.2873 15.5513 21.4545 15.6256 21.617 15.7074L21.9426 15.8833L22.2419 16.0669L22.5687 16.2895L22.8192 16.4943C22.8977 16.5651 22.9721 16.6394 23.0421 16.717C23.1069 16.788 23.1671 16.8624 23.2224 16.9396C23.2801 17.0205 23.3287 17.1062 23.3676 17.1956C23.4025 17.2785 23.4281 17.3642 23.444 17.4516C23.453 17.5073 23.453 17.5639 23.444 17.6197C23.452 17.6613 23.452 17.7038 23.444 17.7455C23.4211 17.7959 23.3894 17.8429 23.3501 17.8846C23.3023 17.9324 23.2475 17.9743 23.1873 18.0093L22.9995 18.0972L22.7766 18.1773L22.5023 18.243L22.193 18.2953H21.4643C21.3916 18.2953 21.319 18.2953 21.2464 18.2953C21.1737 18.2953 21.0974 18.2994 21.0172 18.3076Z" fill="#0C99C1"/>
</svg>
