<svg width="21" height="24" viewBox="0 0 21 24" fill="none" xmlns="http://www.w3.org/2000/svg">
<g clip-path="url(#clip0_1777_3547)">
<path d="M20.25 3H15.75L14.1738 0.902344C13.752 0.333984 13.084 0 12.375 0H8.625C7.91602 0 7.24805 0.333984 6.82617 0.902344L5.25 3H0.75C0.337547 3 0 3.33745 0 3.75C0 4.16245 0.337547 4.5 0.75 4.5H20.25C20.6625 4.5 21 4.16245 21 3.75C21 3.33745 20.6625 3 20.25 3ZM7.125 3L8.02734 1.79883C8.16797 1.61133 8.39062 1.5 8.625 1.5H12.375C12.6094 1.5 12.832 1.61133 12.9727 1.79883L13.875 3H7.125ZM18.75 6C18.3354 6 18 6.33544 18 6.75V20.25C18 21.4907 16.9907 22.5 15.75 22.5H5.25C4.00927 22.5 3 21.4907 3 20.25V6.75C3 6.33544 2.66456 6 2.25 6C1.83544 6 1.5 6.33544 1.5 6.75V20.25C1.5 22.3176 3.18239 24 5.25 24H15.75C17.8176 24 19.5 22.3176 19.5 20.25V6.75C19.5 6.33544 19.1646 6 18.75 6ZM6.75 19.5V9C6.75 8.58544 6.41456 8.25 6 8.25C5.58544 8.25 5.25 8.58544 5.25 9V19.5C5.25 19.9146 5.58544 20.25 6 20.25C6.41456 20.25 6.75 19.9146 6.75 19.5ZM11.25 19.5V9C11.25 8.58544 10.9146 8.25 10.5 8.25C10.0854 8.25 9.75 8.58544 9.75 9V19.5C9.75 19.9146 10.0854 20.25 10.5 20.25C10.9146 20.25 11.25 19.9146 11.25 19.5ZM15.75 19.5V9C15.75 8.58544 15.4146 8.25 15 8.25C14.5854 8.25 14.25 8.58544 14.25 9V19.5C14.25 19.9146 14.5854 20.25 15 20.25C15.4146 20.25 15.75 19.9146 15.75 19.5Z" fill="#01112C"/>
</g>
<defs>
<clipPath id="clip0_1777_3547">
<rect width="21" height="24" fill="white"/>
</clipPath>
</defs>
</svg>
