<svg width="21" height="20" viewBox="0 0 21 20" fill="none" xmlns="http://www.w3.org/2000/svg">
<g clip-path="url(#clip0_1174_37268)">
<path d="M16.75 8.33337L13.3532 4.08531C12.9732 3.61006 12.3977 3.33337 11.7891 3.33337H5.35547C4.53516 3.33337 3.80078 3.82947 3.49609 4.59119L2 8.40369C1.14062 8.62634 0.5 9.40369 0.5 10.3334V13.8334C0.5 14.3857 0.94775 14.8334 1.5 14.8334H2.55041C2.78972 16.2506 4.015 17.3334 5.5 17.3334C6.985 17.3334 8.21028 16.2506 8.44959 14.8334H12.5504C12.7897 16.2506 14.015 17.3334 15.5 17.3334C16.985 17.3334 18.2103 16.2506 18.4496 14.8334H19.5C20.0523 14.8334 20.5 14.3857 20.5 13.8334V12.0834C20.5 10.0123 18.8211 8.33337 16.75 8.33337ZM5.5 15.8334C4.67191 15.8334 4 15.1615 4 14.3334C4 13.5053 4.67191 12.8334 5.5 12.8334C6.32819 12.8334 7 13.5053 7 14.3334C7 15.1615 6.32819 15.8334 5.5 15.8334ZM7.5 8.33337H4.15234L5.35547 5.33337H7.5V8.33337ZM9 8.33337V5.33337H11.7891L14.1875 8.33337H9ZM15.5 15.8334C14.6719 15.8334 14 15.1615 14 14.3334C14 13.5053 14.6719 12.8334 15.5 12.8334C16.3282 12.8334 17 13.5053 17 14.3334C17 15.1615 16.3282 15.8334 15.5 15.8334Z" fill="#01112C"/>
</g>
<defs>
<clipPath id="clip0_1174_37268">
<rect width="20" height="20" fill="white" transform="translate(0.5)"/>
</clipPath>
</defs>
</svg>
