<svg width="24" height="25" viewBox="0 0 24 25" fill="none" xmlns="http://www.w3.org/2000/svg">
<path d="M23.643 4.43561C22.808 4.80561 21.911 5.05561 20.968 5.16861C21.941 4.5864 22.669 3.67008 23.016 2.59061C22.1019 3.1336 21.1014 3.51581 20.058 3.72061C19.3564 2.97148 18.4271 2.47494 17.4143 2.30809C16.4016 2.14123 15.3621 2.3134 14.4572 2.79786C13.5524 3.28233 12.8328 4.05197 12.4102 4.98732C11.9875 5.92266 11.8855 6.97136 12.12 7.97061C10.2677 7.87761 8.45564 7.39616 6.80144 6.55752C5.14723 5.71887 3.68785 4.54177 2.51801 3.10261C2.11801 3.79261 1.88801 4.59261 1.88801 5.44461C1.88757 6.21161 2.07644 6.96685 2.43789 7.64334C2.79934 8.31983 3.32217 8.89665 3.96001 9.32261C3.22029 9.29907 2.49688 9.0992 1.85001 8.73961V8.79961C1.84994 9.87535 2.22204 10.918 2.90319 11.7506C3.58434 12.5832 4.53258 13.1545 5.58701 13.3676C4.9008 13.5533 4.18135 13.5807 3.48301 13.4476C3.78051 14.3732 4.36001 15.1826 5.14038 15.7625C5.92075 16.3424 6.86293 16.6638 7.83501 16.6816C6.18484 17.977 4.1469 18.6797 2.04901 18.6766C1.67739 18.6767 1.30609 18.655 0.937012 18.6116C3.06649 19.9808 5.54535 20.7074 8.07701 20.7046C16.647 20.7046 21.332 13.6066 21.332 7.45061C21.332 7.25061 21.327 7.04861 21.318 6.84861C22.2293 6.18959 23.0159 5.37351 23.641 4.43861L23.643 4.43561Z" fill="white"/>
</svg>
