<svg width="45" height="40" viewBox="0 0 45 40" fill="none" xmlns="http://www.w3.org/2000/svg">
<path d="M13.75 27.5H8.75C8.05969 27.5 7.5 28.0595 7.5 28.75C7.5 29.4403 8.05969 30 8.75 30H13.75C14.4403 30 15 29.4403 15 28.75C15 28.0595 14.4403 27.5 13.75 27.5ZM40 2.5H5C2.23859 2.5 0 4.73844 0 7.5V32.5C0 35.2614 2.23859 37.5 5 37.5H40C42.7616 37.5 45 35.2614 45 32.5V7.5C45 4.73844 42.7616 2.5 40 2.5ZM42.5 32.5C42.5 33.8785 41.3785 35 40 35H5C3.62148 35 2.5 33.8785 2.5 32.5V7.5C2.5 6.12148 3.62148 5 5 5H40C41.3785 5 42.5 6.12148 42.5 7.5V32.5ZM28.75 27.5H18.75C18.0597 27.5 17.5 28.0595 17.5 28.75C17.5 29.4403 18.0597 30 18.75 30H28.75C29.4403 30 30 29.4403 30 28.75C30 28.0595 29.4403 27.5 28.75 27.5Z" fill="black"/>
</svg>
