<svg width="20" height="21" viewBox="0 0 20 21" fill="none" xmlns="http://www.w3.org/2000/svg">
<path d="M9.55813 15.9419C9.68016 16.064 9.84008 16.125 10 16.125C10.1599 16.125 10.3198 16.064 10.4419 15.9419L16.0669 10.3169C16.311 10.0727 16.311 9.67723 16.0669 9.43313C15.8227 9.18902 15.4272 9.18898 15.1831 9.43313L10.625 13.9912V2.375C10.625 2.02953 10.3455 1.75 10 1.75C9.65453 1.75 9.375 2.02953 9.375 2.375V13.9912L4.81687 9.43313C4.57273 9.18898 4.17723 9.18898 3.93313 9.43313C3.68902 9.67727 3.68898 10.0728 3.93313 10.3169L9.55813 15.9419ZM16.875 18H3.125C2.77953 18 2.5 18.2795 2.5 18.625C2.5 18.9705 2.77953 19.25 3.125 19.25H16.875C17.2205 19.25 17.5 18.9705 17.5 18.625C17.5 18.2795 17.2205 18 16.875 18Z" fill="white"/>
</svg>
