<svg width="59" height="63" viewBox="0 0 59 63" fill="none" xmlns="http://www.w3.org/2000/svg">
<path d="M10.444 57.8155C10.028 57.4394 9.81997 56.9249 9.81997 56.4084C9.81997 55.9425 9.99024 55.4766 10.3343 55.108L32.3548 31.5L10.3343 7.89207C9.6082 7.11369 9.65358 5.8994 10.444 5.18461C11.2306 4.4661 12.452 4.51472 13.1781 5.29131L36.4124 30.1997C37.1007 30.9369 37.1007 32.0632 36.4124 32.8004L13.1781 57.7088C12.452 58.4854 11.2306 58.534 10.444 57.8155Z" fill="#0C99C1"/>
<path d="M30.444 57.8155C30.028 57.4394 29.82 56.9249 29.82 56.4084C29.82 55.9425 29.9902 55.4766 30.3343 55.108L52.3548 31.5L30.3343 7.89207C29.6082 7.11369 29.6536 5.8994 30.444 5.18461C31.2306 4.4661 32.452 4.51472 33.1781 5.29131L56.4124 30.1997C57.1007 30.9369 57.1007 32.0632 56.4124 32.8004L33.1781 57.7088C32.452 58.4854 31.2306 58.534 30.444 57.8155Z" fill="#0C99C1"/>
</svg>
