<svg width="14" height="14" viewBox="0 0 14 14" fill="none" xmlns="http://www.w3.org/2000/svg">
<path d="M13.6926 12.2077C14.1025 12.6176 14.1025 13.2827 13.6926 13.6926C13.2827 14.1025 12.6176 14.1025 12.2077 13.6926L7 8.48492L1.79234 13.6926C1.38245 14.1025 0.717315 14.1025 0.307421 13.6926C-0.102474 13.2827 -0.102474 12.6176 0.307421 12.2077L5.51508 7L0.307421 1.79234C-0.102474 1.38245 -0.102474 0.717315 0.307421 0.307421C0.717315 -0.102474 1.38245 -0.102474 1.79234 0.307421L7 5.51508L12.2077 0.307421C12.6176 -0.102474 13.2827 -0.102474 13.6926 0.307421C14.1025 0.717315 14.1025 1.38245 13.6926 1.79234L8.48492 7L13.6926 12.2077Z" fill="#01112C" fill-opacity="0.5"/>
</svg>
