<svg width="45" height="39" viewBox="0 0 45 39" fill="none" xmlns="http://www.w3.org/2000/svg">
<g clip-path="url(#clip0_1604_15148)">
<path d="M39.1884 0H4.89855C2.19317 0 0 2.18248 0 4.875V26.8125C0 29.505 2.19317 31.6875 4.89855 31.6875H16.356L14.8865 36.5625H11.0217C10.3454 36.5625 9.7971 37.1082 9.7971 37.7812C9.7971 38.4543 10.3454 39 11.0217 39H33.0652C33.7415 39 34.2899 38.4543 34.2899 37.7812C34.2899 37.1082 33.7415 36.5625 33.0652 36.5625H29.2004L27.7309 31.6875H39.1884C41.8938 31.6875 44.087 29.505 44.087 26.8125V4.875C44.087 2.18248 41.8938 0 39.1884 0ZM17.4439 36.5625L18.9134 31.6875H25.1736L26.6431 36.5625H17.4439ZM41.6377 26.8125C41.6377 28.1566 40.5389 29.25 39.1884 29.25H4.89855C3.548 29.25 2.44928 28.1566 2.44928 26.8125V21.9375H41.6377V26.8125ZM41.6377 19.5H2.44928V4.875C2.44928 3.53095 3.548 2.4375 4.89855 2.4375H39.1884C40.5389 2.4375 41.6377 3.53095 41.6377 4.875V19.5Z" fill="#01112C"/>
</g>
<defs>
<clipPath id="clip0_1604_15148">
<rect width="44.087" height="39" fill="white"/>
</clipPath>
</defs>
</svg>
