<svg width="20" height="21" viewBox="0 0 20 21" fill="none" xmlns="http://www.w3.org/2000/svg">
<g clip-path="url(#clip0_2242_11433)">
<path d="M11.05 18.915C11.05 19.4947 10.5797 19.965 10 19.965C9.42032 19.965 8.95 19.4947 8.95 18.915L8.95 11.5503L1.58528 11.5503C1.0056 11.5503 0.535279 11.08 0.535279 10.5003C0.535279 9.92063 1.0056 9.45031 1.58527 9.45031L8.95 9.45031L8.95 2.08558C8.95 1.50591 9.42032 1.03559 10 1.03559C10.5797 1.03559 11.05 1.50591 11.05 2.08558L11.05 9.45031L18.4147 9.45031C18.9944 9.45031 19.4647 9.92063 19.4647 10.5003C19.4647 11.08 18.9944 11.5503 18.4147 11.5503L11.05 11.5503L11.05 18.915Z" fill="#01112C"/>
</g>
<defs>
<clipPath id="clip0_2242_11433">
<rect width="14" height="14" fill="white" transform="translate(10 0.600464) rotate(45)"/>
</clipPath>
</defs>
</svg>
