<svg width="20" height="20" viewBox="0 0 20 20" fill="none" xmlns="http://www.w3.org/2000/svg">
<path d="M11.1505 18.415C11.1505 18.9947 10.6801 19.465 10.1005 19.465C9.52079 19.465 9.05047 18.9947 9.05047 18.415L9.05047 11.0503L1.68574 11.0503C1.10606 11.0503 0.635743 10.58 0.635743 10.0003C0.635743 9.42063 1.10606 8.95031 1.68574 8.95031L9.05047 8.95031L9.05047 1.58558C9.05047 1.00591 9.52079 0.535588 10.1005 0.535588C10.6801 0.535588 11.1505 1.00591 11.1505 1.58558L11.1505 8.95031L18.5152 8.95031C19.0949 8.95031 19.5652 9.42063 19.5652 10.0003C19.5652 10.58 19.0949 11.0503 18.5152 11.0503L11.1505 11.0503L11.1505 18.415Z" fill="#01112C" fill-opacity="0.5"/>
</svg>
