<svg width="24" height="32" viewBox="0 0 24 32" fill="none" xmlns="http://www.w3.org/2000/svg">
<g clip-path="url(#clip0_1280_40416)">
<path d="M22.8285 7.82837L16.1716 1.17163C15.4215 0.421375 14.4041 0 13.3431 0H4C1.79087 0 0 1.79087 0 4V28C0 30.2091 1.79087 32 4 32H20C22.2092 32 24 30.2091 24 28V10.6569C24 9.59594 23.5786 8.57862 22.8285 7.82837ZM14 2.12975C14.2798 2.22769 14.5416 2.37013 14.7574 2.58594L21.4142 9.24244C21.63 9.45825 21.7723 9.72019 21.8703 10H15C14.4493 10 14 9.55175 14 9V2.12975ZM22 28C22 29.1028 21.1028 30 20 30H4C2.89719 30 2 29.1028 2 28V4C2 2.89719 2.89719 2 4 2H12V9C12 10.6543 13.3457 12 15 12H22V28ZM13 15C13 14.4473 12.5527 14 12 14C11.4473 14 11 14.4473 11 15V22.5859L7.707 19.293C7.51175 19.0976 7.25588 19 7 19C6.74412 19 6.48825 19.0976 6.293 19.293C5.90238 19.6836 5.90238 20.3164 6.293 20.707L11.293 25.707C11.6836 26.0976 12.3164 26.0976 12.707 25.707L17.707 20.707C18.0976 20.3164 18.0976 19.6836 17.707 19.293C17.3164 18.9024 16.6836 18.9024 16.293 19.293L13 22.5859V15Z" fill="#0C99C1"/>
</g>
<defs>
<clipPath id="clip0_1280_40416">
<rect width="24" height="32" fill="white"/>
</clipPath>
</defs>
</svg>
