<svg width="37" height="37" viewBox="0 0 37 37" fill="none" xmlns="http://www.w3.org/2000/svg">
<g clip-path="url(#clip0_1560_2691)">
<path d="M18.5 0C8.28268 0 0 8.28284 0 18.5C0 28.7172 8.28268 37 18.5 37C28.7173 37 37 28.7172 37 18.5C37 8.28284 28.7173 0 18.5 0ZM26.3805 12.8464V12.8489L19.9055 27.9572C19.6357 28.581 19.0239 28.9833 18.3458 28.9833C18.2351 28.9833 18.1206 28.9737 18.0086 28.952C17.2197 28.7906 16.65 28.0896 16.65 27.2876V20.35H9.71127C8.90914 20.35 8.21177 19.7791 8.05043 18.9938C7.88902 18.2109 8.30696 17.4112 9.04403 17.0956L24.1536 10.6206C24.8052 10.3508 25.5375 10.493 26.0216 10.982C26.513 11.4709 26.6552 12.2032 26.3805 12.8464Z" fill="#01112C"/>
</g>
<defs>
<clipPath id="clip0_1560_2691">
<rect width="37" height="37" fill="white"/>
</clipPath>
</defs>
</svg>
