<svg width="20" height="20" viewBox="0 0 20 20" fill="none" xmlns="http://www.w3.org/2000/svg">
<path d="M4.06816 3.99983V5.09534C5.65402 5.81663 7.61644 6.24952 9.75 6.24952C11.8835 6.24952 13.846 5.81663 15.4318 5.09534V3.99983L16.2897 3.12858C16.468 2.94753 16.5682 2.70179 16.5682 2.44573C16.5682 2.00245 16.2712 1.6162 15.8478 1.50878L10.0532 0.0374512C9.85414 -0.0131348 9.64585 -0.0131348 9.44679 0.0374512L3.65215 1.50878C3.22879 1.6162 2.93183 2.00245 2.93183 2.44573C2.93183 2.70179 3.03203 2.94753 3.21031 3.12858L4.06816 3.99983ZM7.31593 2.84499C7.47093 2.53737 7.8457 2.41163 8.15453 2.56546L9.75 3.36378L11.3455 2.56542C11.6555 2.41042 12.0291 2.53612 12.1841 2.84499C12.3379 3.15382 12.2134 3.52858 11.9045 3.68358L10.0295 4.62108C9.94164 4.66507 9.84523 4.68702 9.75 4.68702C9.65476 4.68702 9.55835 4.66507 9.47046 4.62108L7.59546 3.68358C7.28664 3.52858 7.16211 3.15382 7.31593 2.84499ZM13.4881 13.7694L9.75 16.2495L6.01191 13.7694C3.22863 13.8749 1 16.1487 1 18.9578C1 19.5331 1.46645 19.9995 2.04156 19.9995H17.4584C18.0335 19.9995 18.5 19.5331 18.5 18.9578C18.5 16.1487 16.2716 13.8749 13.4881 13.7694ZM15.375 17.4995H14.125C13.7798 17.4995 13.5 17.2197 13.5 16.8745C13.5 16.5293 13.7798 16.2495 14.125 16.2495H15.375C15.7201 16.2495 16 16.5293 16 16.8745C16 17.2197 15.7201 17.4995 15.375 17.4995ZM4.82707 6.73499C4.78824 6.986 4.75 7.2376 4.75 7.49952C4.75 10.2609 6.98855 12.4995 9.75 12.4995C12.5114 12.4995 14.75 10.2609 14.75 7.49952C14.75 7.2376 14.7118 6.986 14.6729 6.73499C13.1572 7.2328 11.4835 7.49952 9.75 7.49952C8.0166 7.49952 6.34285 7.2328 4.82707 6.73499Z" fill="#01112C"/>
</svg>
