<svg width="39" height="44" viewBox="0 0 39 44" fill="none" xmlns="http://www.w3.org/2000/svg">
<path d="M33.4286 2.75H5.57143C2.49443 2.75 0 5.21245 0 8.25V35.75C0 38.7876 2.49443 41.25 5.57143 41.25H33.4286C36.5056 41.25 39 38.7876 39 35.75V8.25C39 5.21245 36.5056 2.75 33.4286 2.75ZM36.2143 35.75C36.2143 37.2664 34.9646 38.5 33.4286 38.5H5.57143C4.03537 38.5 2.78571 37.2664 2.78571 35.75V8.25C2.78571 6.73363 4.03537 5.5 5.57143 5.5H33.4286C34.9646 5.5 36.2143 6.73363 36.2143 8.25V35.75ZM20.8929 11H13.9286C12.3916 11 11.1429 12.2327 11.1429 13.75V31.625C11.1429 32.385 11.7658 33 12.5357 33C13.3056 33 13.9286 32.385 13.9286 31.625V27.5H20.8929C25.5013 27.5 29.25 23.7994 29.25 19.25C29.25 14.7006 25.5013 11 20.8929 11ZM20.8929 24.75H13.9286V13.75H20.8929C23.9642 13.75 26.4643 16.218 26.4643 19.25C26.4643 22.282 23.9642 24.75 20.8929 24.75Z" fill="#01112C"/>
</svg>
