<svg width="19" height="18" viewBox="0 0 19 18" fill="none" xmlns="http://www.w3.org/2000/svg">
<g clip-path="url(#clip0_1174_37278)">
<path d="M16.6713 6.16987L4.85141 0.970809C4.38659 0.787246 3.85925 0.970809 3.61319 1.4044L0.632812 6.61909C0.484375 6.8769 0.460937 7.18156 0.562469 7.4589C0.664062 7.73625 0.882813 7.955 1.16013 8.05656L6.05059 10.0838L4.80453 13.4001H2.49994C2.49994 12.5717 1.82837 11.9002 1 11.9002H0.999969C0.723844 11.9002 0.5 12.124 0.5 12.4002V16.4C0.5 16.6762 0.723844 16.9 0.999969 16.9H1C1.82837 16.9 2.49994 16.2285 2.49994 15.4001V15.4001H5.50159C5.91816 15.4001 6.29103 15.1417 6.43728 14.7517L7.90209 10.8455L10.0427 11.7322C10.3317 11.8377 10.652 11.8064 10.9137 11.6424L16.8276 7.94328C17.5229 7.50968 17.4291 6.47065 16.6713 6.16987ZM18.183 9.45493L17.0776 8.97059L12.7535 11.6736L16.4878 13.3142C16.7533 13.4314 17.0658 13.3103 17.183 13.0447L18.4564 10.1502C18.5111 10.0213 18.515 9.87681 18.4643 9.7479C18.4135 9.61509 18.3119 9.51353 18.183 9.45493Z" fill="#01112C"/>
</g>
<defs>
<clipPath id="clip0_1174_37278">
<rect width="18" height="18" fill="white" transform="translate(0.5)"/>
</clipPath>
</defs>
</svg>
