<svg width="45" height="40" viewBox="0 0 45 40" fill="none" xmlns="http://www.w3.org/2000/svg">
<g clip-path="url(#clip0_1604_15859)">
<path d="M44.4385 7.89953C43.8598 7.52235 43.0833 7.6786 42.7072 8.25477L37.6452 15.9231C35.5231 19.0615 32.6173 20.0356 29.2034 18.7307L28.4245 18.4329L10.6425 37.1228C10.43 37.3438 10.1492 37.4805 9.87571 37.4988C9.66813 37.511 9.48992 37.4475 9.35805 37.3157L7.68047 35.6385C7.54367 35.5018 7.48024 35.3235 7.49485 35.1038C7.51196 34.8341 7.64383 34.5533 7.84891 34.358L26.5588 16.575L26.2707 15.801C24.9789 12.3306 25.902 9.50109 29.0008 7.40274L36.7441 2.29414C37.3204 1.91328 37.4791 1.13813 37.0981 0.561955C36.7172 -0.015389 35.9431 -0.172889 35.3668 0.20672L27.6113 5.32391C23.7775 7.92149 22.393 11.647 23.6603 15.8791L6.12008 32.5513C5.46078 33.1849 5.05047 34.0626 4.99922 34.95C4.94063 35.8851 5.26297 36.7578 5.9125 37.406L7.5925 39.0845C8.18836 39.679 8.97219 40 9.82446 40C9.89281 40 9.96117 39.9976 10.032 39.9939C10.9233 39.9366 11.8024 39.5227 12.4495 38.8526L29.1106 21.3405C33.2741 22.6027 37.1128 21.1709 39.7232 17.3123L44.7926 9.63172C45.1735 9.05555 45.0148 8.28039 44.4385 7.89953ZM11.2432 23.7783C11.7535 23.7783 12.2346 23.4634 12.4177 22.9555C12.6546 22.3061 12.3201 21.5895 11.6705 21.354C5.49735 19.1116 3.51696 14.0177 2.88696 11.182C1.94438 6.93274 2.87719 3.39156 3.66594 2.60297C3.7636 2.50531 3.90766 2.50039 4.02 2.50289C4.24227 2.52117 4.47422 2.63711 4.6818 2.84219L18.3711 15.9048C18.8717 16.3821 19.6629 16.3638 20.1366 15.8633C20.6152 15.3641 20.5957 14.573 20.0976 14.0958L6.42774 1.05391C5.82219 0.447189 5.03828 0.0773454 4.22274 0.010236C3.34852 -0.0581234 2.49383 0.238517 1.89797 0.835392C0.122737 2.61149 -0.514607 7.39414 0.447503 11.724C1.18742 15.0601 3.52188 21.0537 10.8159 23.7026C10.9575 23.7538 11.1016 23.7783 11.2432 23.7783ZM30.5758 24.0956C30.0777 23.6208 29.2865 23.6379 28.8103 24.1371C28.3317 24.6364 28.3513 25.4274 28.8518 25.9047L36.9492 33.6305C37.545 34.2286 37.6793 35.105 37.2398 35.5457L35.5427 37.2413C35.3229 37.4622 35.0396 37.5086 34.8272 37.5C34.3827 37.4915 33.9139 37.2632 33.5232 36.8409L25.8678 29.4056C25.3721 28.9259 24.5834 28.9357 24.0998 29.4301C23.6188 29.9256 23.6286 30.7166 24.1243 31.1976L31.7309 38.584C32.5391 39.4605 33.6502 39.9768 34.7759 39.9988C34.8027 40 34.8272 40 34.8541 40C35.8015 40 36.6708 39.6497 37.3106 39.0088L39.0077 37.3133C40.4289 35.8899 40.2995 33.4461 38.6952 31.8421L30.5758 24.0956ZM29.3402 12.2122C29.5893 12.4881 29.9312 12.6285 30.273 12.6285C30.5709 12.6285 30.8688 12.5235 31.1057 12.3098L39.5034 4.79656C40.0187 4.33633 40.0627 3.54656 39.6035 3.03141C39.1371 2.51266 38.3435 2.47477 37.8381 2.93375L29.4403 10.4471C28.9251 10.9073 28.8811 11.6971 29.3402 12.2122ZM32.9762 15.845C33.2131 16.0586 33.511 16.1636 33.8089 16.1636C34.1508 16.1636 34.4927 16.0232 34.7417 15.7473L42.2555 7.35141C42.7145 6.83633 42.6706 6.04656 42.1553 5.58633C41.6474 5.12977 40.8563 5.16883 40.3898 5.68399L32.8761 14.0798C32.417 14.595 32.4609 15.3848 32.9762 15.845Z" fill="#01112C"/>
</g>
<defs>
<clipPath id="clip0_1604_15859">
<rect width="45" height="40" fill="white"/>
</clipPath>
</defs>
</svg>
