<svg width="43" height="43" viewBox="0 0 43 43" fill="none" xmlns="http://www.w3.org/2000/svg">
<g clip-path="url(#clip0_1206_44194)">
<path d="M42.4095 39.5592L31.1548 28.3047C33.5168 25.3252 34.9375 21.5659 34.9375 17.4688C34.9375 7.82104 27.1165 0 17.4688 0C7.82104 0 0 7.82104 0 17.4688C0 27.1165 7.82104 34.9375 17.4688 34.9375C21.5659 34.9375 25.3254 33.517 28.3045 31.1549L39.5592 42.4095C39.953 42.8031 40.4686 43 40.9844 43C41.5001 43 42.0158 42.8031 42.4095 42.4095C43.1969 41.6222 43.1969 40.3466 42.4095 39.5592ZM17.4688 30.9062C10.0592 30.9062 4.03125 24.8781 4.03125 17.4688C4.03125 10.0594 10.0592 4.03125 17.4688 4.03125C24.8783 4.03125 30.9062 10.0594 30.9062 17.4688C30.9062 24.8781 24.8783 30.9062 17.4688 30.9062ZM24.1877 15.4531H19.4842V10.75C19.4842 9.6362 18.5822 8.73438 17.4688 8.73438C16.3553 8.73438 15.4533 9.6362 15.4533 10.75V15.4531H10.7498C9.6362 15.4531 8.73438 16.3553 8.73438 17.4688C8.73438 18.5822 9.63553 19.4844 10.7498 19.4844H15.4533V24.1875C15.4533 25.301 16.3546 26.2031 17.4688 26.2031C18.5822 26.2031 19.4842 25.3013 19.4842 24.1875V19.4844H24.1877C25.3013 19.4844 26.2031 18.5822 26.2031 17.4688C26.2031 16.3553 25.3013 15.4531 24.1877 15.4531Z" fill="white"/>
</g>
<defs>
<clipPath id="clip0_1206_44194">
<rect width="43" height="43" fill="white"/>
</clipPath>
</defs>
</svg>
