<svg width="24" height="24" viewBox="0 0 24 24" fill="none" xmlns="http://www.w3.org/2000/svg">
<path d="M24 4.55887C23.1013 4.95701 22.148 5.21834 21.1719 5.33419C22.1887 4.72481 22.9693 3.75984 23.3369 2.61009C22.3704 3.18364 21.3129 3.58774 20.2103 3.80494C19.312 2.84803 18.0324 2.25 16.6162 2.25C13.8968 2.25 11.6921 4.45462 11.6921 7.17375C11.6921 7.55972 11.7357 7.93547 11.8196 8.29594C7.72744 8.09053 4.09931 6.13031 1.67072 3.15131C1.24697 3.87853 1.00416 4.72444 1.00416 5.62669C1.00416 7.335 1.8735 8.84203 3.19462 9.72506C2.4127 9.70057 1.64798 9.48938 0.964313 9.10912C0.964031 9.12975 0.964031 9.15037 0.964031 9.17109C0.964031 11.5567 2.66128 13.5469 4.91372 13.9992C4.18864 14.1964 3.42809 14.2253 2.69016 14.0836C3.31669 16.0398 5.13516 17.4633 7.28972 17.5031C5.60456 18.8237 3.48141 19.6109 1.17459 19.6109C0.777094 19.6109 0.385219 19.5876 0 19.5421C2.17903 20.9392 4.76719 21.7543 7.54781 21.7543C16.6047 21.7543 21.5573 14.2514 21.5573 7.74478C21.5573 7.53122 21.5526 7.31887 21.543 7.10775C22.507 6.41089 23.339 5.54776 24 4.55887Z" fill="#55ACEE"/>
</svg>
