<svg width="83" height="85" viewBox="0 0 83 85" fill="none" xmlns="http://www.w3.org/2000/svg">
<g clip-path="url(#clip0_1615_17313)">
<path d="M3.19765 52.7663C10.0918 68.6106 25.0542 79.6412 42.2822 80.947C50.9157 81.5998 58.2873 79.6558 62.2971 72.4401C70.3167 58.0088 64.6261 41.2339 76.0903 35.129C87.5545 29.0291 60.5919 3.22601 40.7865 26.1886C20.986 49.1511 -6.25924 30.6125 2.32553 50.7443C2.62273 51.4411 2.91019 52.1134 3.19765 52.7663Z" fill="#DDE7FE"/>
<path d="M15.2217 85.0011C14.9732 85.0011 14.7247 84.9232 14.5054 84.7673C13.9598 84.3726 13.8428 83.6077 14.2375 83.0669C15.514 81.308 17.6188 77.9852 17.8331 76.5382C17.9501 75.7537 17.8039 74.9352 17.6383 73.9803C17.3898 72.5771 17.0877 70.8328 17.5311 68.577C17.9501 66.4381 18.3398 65.1032 18.7101 63.812C19.0414 62.6573 19.3581 61.566 19.6748 59.9679C19.9964 58.3308 20.0354 56.2943 20.0743 54.1408C20.1279 51.3149 20.1864 48.1188 20.9026 45.0054C20.927 44.9031 20.9659 44.8008 21.0147 44.7082C21.6286 43.5535 23.1438 42.9396 24.9757 43.1102C26.9733 43.2953 29.6336 44.5474 30.5349 47.461C31.2706 49.8289 31.2219 51.7339 31.1829 53.2638C31.1585 54.3503 31.1342 55.2857 31.3924 56.1237C31.7383 57.2346 32.3425 58.4088 33.1854 59.6171C33.3754 59.6902 33.96 59.773 34.9004 59.6415C37.3462 59.2907 43.451 58.2334 44.5619 58.0385L55.0858 52.8107L62.9836 44.1772C63.0518 44.0992 63.1346 44.031 63.2223 43.9774C65.5025 42.5011 68.5525 43.1589 70.0288 45.4342C71.3735 47.5097 71.0665 50.1602 69.2346 52.3527L63.008 60.5184C63.008 60.5184 62.9836 60.5477 62.9739 60.5623L55.6461 69.3127C55.573 69.3955 55.4951 69.4735 55.4025 69.532C51.4365 72.2604 40.8249 79.6466 39.4218 81.0547C38.0624 82.414 37.9845 83.7636 37.9845 83.8221C37.9552 84.4895 37.3852 85.0206 36.7274 84.9914C36.0599 84.9719 35.5338 84.4262 35.5484 83.7636C35.5484 83.5249 35.6458 81.386 37.7019 79.3348C39.4753 77.5613 51.8848 69.0009 53.8921 67.6221L61.0981 59.0227L67.3247 50.8569C67.3247 50.8569 67.3491 50.8277 67.3588 50.8131C67.9094 50.1553 69.0787 48.4452 67.9922 46.7594C67.2711 45.6486 65.8095 45.3026 64.6742 45.9506L56.7375 54.6231C56.6352 54.7352 56.5134 54.8229 56.3818 54.8911L45.4974 60.2992C45.3902 60.3528 45.283 60.3869 45.166 60.4064C44.8737 60.4551 37.9796 61.6634 35.256 62.0532C33.8821 62.2481 32.0745 62.2432 31.2657 61.108C30.2426 59.6658 29.5069 58.2334 29.0781 56.8497C28.6981 55.6316 28.7273 54.4526 28.7614 53.2102C28.8004 51.7193 28.8345 50.1797 28.2206 48.1918C27.6749 46.4281 26.0135 45.6632 24.7614 45.5462C23.8941 45.4634 23.3972 45.6729 23.2315 45.7996C22.6225 48.5865 22.5689 51.4367 22.5202 54.1944C22.4763 56.4599 22.4373 58.5988 22.0719 60.4454C21.7358 62.1506 21.4044 63.2907 21.0585 64.4941C20.698 65.7365 20.3277 67.0228 19.9282 69.0545C19.5725 70.8621 19.8112 72.236 20.0451 73.5661C20.24 74.677 20.4251 75.7294 20.2497 76.8987C19.8795 79.4079 16.5859 83.9926 16.2156 84.5042C15.9768 84.8306 15.6066 85.006 15.2314 85.006L15.2217 85.0011Z" fill="#2363C1"/>
<path d="M44.942 60.4153C44.6984 60.4153 44.4499 60.3422 44.2356 60.1863C43.6899 59.7965 43.5632 59.0364 43.953 58.4859L47.7289 53.1996C48.0992 52.1423 49.7411 47.5722 50.852 45.9839C52.9275 43.0703 56.4355 43.0703 57.5902 43.0703C58.2626 43.0703 58.8082 43.616 58.8082 44.2884C58.8082 44.9607 58.2626 45.5064 57.5902 45.5064C56.1285 45.5064 54.0432 45.7013 52.8447 47.3871C52.0116 48.5856 50.4866 52.688 49.975 54.1691C49.936 54.2812 49.8824 54.3835 49.8142 54.4761L45.9408 59.9037C45.7021 60.235 45.3269 60.4153 44.9469 60.4153H44.942Z" fill="#2363C1"/>
<path d="M81.6297 45.5103H6.24734C5.57498 45.5103 5.0293 44.9646 5.0293 44.2923C5.0293 43.6199 5.57498 43.0742 6.24734 43.0742H81.6297C82.302 43.0742 82.8477 43.6199 82.8477 44.2923C82.8477 44.9646 82.302 45.5103 81.6297 45.5103Z" fill="#2363C1"/>
<path d="M76.2469 45.5091C75.5745 45.5091 75.0289 44.9634 75.0289 44.2911C75.0289 27.1459 61.0847 13.2017 43.9395 13.2017C26.7943 13.2017 12.8502 27.1508 12.8502 44.2911C12.8502 44.9634 12.3045 45.5091 11.6321 45.5091C10.9597 45.5091 10.4141 44.9634 10.4141 44.2911C10.4141 25.806 25.4545 10.7656 43.9395 10.7656C62.4245 10.7656 77.465 25.806 77.465 44.2911C77.465 44.9634 76.9193 45.5091 76.2469 45.5091Z" fill="#2363C1"/>
<path d="M30.8805 24.7937C30.5151 24.7937 30.1497 24.628 29.9109 24.3162C29.5017 23.7802 29.604 23.0153 30.1399 22.6109C34.1303 19.5609 38.905 17.9531 43.9379 17.9531C44.6103 17.9531 45.156 18.4988 45.156 19.1712C45.156 19.8435 44.6103 20.3892 43.9379 20.3892C39.4409 20.3892 35.1826 21.8265 31.6162 24.5501C31.397 24.7206 31.1339 24.7985 30.8756 24.7985L30.8805 24.7937Z" fill="#2363C1"/>
<path d="M23.6553 34.6624C23.5189 34.6624 23.3824 34.638 23.246 34.5893C22.6126 34.3603 22.2813 33.6636 22.5103 33.0302C23.2314 31.0131 24.2399 29.1032 25.5018 27.3638C25.8965 26.8182 26.6565 26.6964 27.2022 27.091C27.7479 27.4856 27.8697 28.2457 27.4751 28.7914C26.3496 30.3456 25.4482 32.046 24.8051 33.8487C24.6248 34.3457 24.1571 34.6575 23.6601 34.6575L23.6553 34.6624Z" fill="#2363C1"/>
<path d="M43.9377 13.2036C40.2982 13.2036 37.3359 10.2413 37.3359 6.6018C37.3359 2.96228 40.2982 0 43.9377 0C47.5773 0 50.5395 2.96228 50.5395 6.6018C50.5395 10.2413 47.5773 13.2036 43.9377 13.2036ZM43.9377 2.43609C41.6381 2.43609 39.772 4.307 39.772 6.6018C39.772 8.8966 41.6429 10.7675 43.9377 10.7675C46.2325 10.7675 48.1035 8.8966 48.1035 6.6018C48.1035 4.307 46.2325 2.43609 43.9377 2.43609Z" fill="#2363C1"/>
</g>
<defs>
<clipPath id="clip0_1615_17313">
<rect width="82.1498" height="85" fill="white" transform="translate(0.699219)"/>
</clipPath>
</defs>
</svg>
