<svg width="85" height="85" viewBox="0 0 85 85" fill="none" xmlns="http://www.w3.org/2000/svg">
<g clip-path="url(#clip0_1615_17329)">
<path d="M84.4133 67.9834C83.5421 49.5277 72.7789 32.8144 56.0532 24.9675C47.6749 21.0316 39.5623 20.179 32.8152 25.8696C19.3148 37.2445 18.629 56.1759 4.84435 57.9183C-8.93409 59.6607 8.2179 95.6947 36.7325 80.2666C65.2532 64.8384 85.439 93.7175 84.506 70.3375C84.4751 69.528 84.438 68.7495 84.4009 67.9834H84.4133Z" fill="#DDE7FE"/>
<path d="M71.6848 59.1376H13.5683C13.3149 59.1376 13.074 59.0944 12.8515 59.0079C12.7094 58.9584 12.5797 58.8905 12.4499 58.8102C11.9865 58.5136 11.6405 58.0502 11.5355 57.5065L4.13342 19.9154C3.97278 19.0875 4.33732 18.241 5.06022 17.8023C5.77695 17.3636 6.69757 17.4192 7.36487 17.9444L30.1024 35.9552L40.6679 6.74866C40.9583 5.95161 41.7183 5.41406 42.5648 5.41406C43.4112 5.41406 44.1712 5.94543 44.4616 6.74866L55.0271 35.9552L77.7647 17.9444C78.4258 17.4192 79.3464 17.3636 80.0693 17.8023C80.7922 18.241 81.1629 19.0875 81.0023 19.9154L73.6991 57.1234C73.6991 58.2355 72.797 59.1438 71.6787 59.1438L71.6848 59.1376ZM15.1809 55.1029H69.9734L75.9852 24.5062L55.3361 40.8611C54.8294 41.2627 54.156 41.3987 53.5319 41.2195C52.9079 41.0403 52.4074 40.5769 52.185 39.9652L42.5586 13.366L32.9322 39.9652C32.7098 40.5769 32.2093 41.0403 31.5853 41.2195C30.955 41.3925 30.2877 41.2627 29.7811 40.8611L9.1505 24.5062L15.1809 55.1029Z" fill="#2363C1"/>
<path d="M71.8195 71.7269H13.3136C12.2015 71.7269 11.2932 70.8248 11.2932 69.7065V63.0829C11.2932 61.9646 12.1953 61.0625 13.3136 61.0625H19.5232C20.6354 61.0625 21.5436 61.9646 21.5436 63.0829C21.5436 64.2013 20.6415 65.1034 19.5232 65.1034H15.3341V67.6922H69.8052V65.1034H29.44C28.3278 65.1034 27.4195 64.2013 27.4195 63.0829C27.4195 61.9646 28.3216 61.0625 29.44 61.0625H71.8195C72.9316 61.0625 73.8399 61.9646 73.8399 63.0829V69.7065C73.8399 70.8248 72.9378 71.7269 71.8195 71.7269Z" fill="#2363C1"/>
<path d="M6.10889 23.4751C8.29282 23.4751 10.0632 21.7047 10.0632 19.5208C10.0632 17.3368 8.29282 15.5664 6.10889 15.5664C3.92496 15.5664 2.15454 17.3368 2.15454 19.5208C2.15454 21.7047 3.92496 23.4751 6.10889 23.4751Z" fill="#2363C1"/>
<path d="M6.10979 25.4964C2.81655 25.4964 0.13501 22.8149 0.13501 19.5217C0.13501 16.2284 2.81655 13.5469 6.10979 13.5469C9.40302 13.5469 12.0846 16.2284 12.0846 19.5217C12.0846 22.8149 9.40302 25.4964 6.10979 25.4964ZM6.10979 17.5815C5.04088 17.5815 4.16968 18.4527 4.16968 19.5217C4.16968 20.5906 5.04088 21.4618 6.10979 21.4618C7.1787 21.4618 8.04989 20.5906 8.04989 19.5217C8.04989 18.4527 7.1787 17.5815 6.10979 17.5815Z" fill="#2363C1"/>
<path d="M79.0249 23.4751C81.2088 23.4751 82.9793 21.7047 82.9793 19.5208C82.9793 17.3368 81.2088 15.5664 79.0249 15.5664C76.841 15.5664 75.0706 17.3368 75.0706 19.5208C75.0706 21.7047 76.841 23.4751 79.0249 23.4751Z" fill="#2363C1"/>
<path d="M79.0258 25.4964C75.7326 25.4964 73.051 22.8149 73.051 19.5217C73.051 16.2284 75.7326 13.5469 79.0258 13.5469C82.319 13.5469 85.0006 16.2284 85.0006 19.5217C85.0006 22.8149 82.319 25.4964 79.0258 25.4964ZM79.0258 17.5815C77.9569 17.5815 77.0857 18.4527 77.0857 19.5217C77.0857 20.5906 77.9569 21.4618 79.0258 21.4618C80.0947 21.4618 80.9659 20.5906 80.9659 19.5217C80.9659 18.4527 80.0947 17.5815 79.0258 17.5815Z" fill="#2363C1"/>
<path d="M42.5697 10.7837C44.7536 10.7837 46.5241 9.01328 46.5241 6.82935C46.5241 4.64542 44.7536 2.875 42.5697 2.875C40.3858 2.875 38.6154 4.64542 38.6154 6.82935C38.6154 9.01328 40.3858 10.7837 42.5697 10.7837Z" fill="#2363C1"/>
<path d="M42.5706 12.8011C39.2774 12.8011 36.5958 10.1196 36.5958 6.82634C36.5958 3.53311 39.2712 0.851562 42.5706 0.851562C45.87 0.851562 48.5454 3.53311 48.5454 6.82634C48.5454 10.1196 45.8638 12.8011 42.5706 12.8011ZM42.5706 4.88624C41.5017 4.88624 40.6305 5.75743 40.6305 6.82634C40.6305 7.89525 41.5017 8.76644 42.5706 8.76644C43.6395 8.76644 44.5107 7.89525 44.5107 6.82634C44.5107 5.75743 43.6395 4.88624 42.5706 4.88624Z" fill="#2363C1"/>
<path d="M6.11113 22.3041C7.71495 22.3041 9.0151 21.0039 9.0151 19.4001C9.0151 17.7963 7.71495 16.4961 6.11113 16.4961C4.50731 16.4961 3.20715 17.7963 3.20715 19.4001C3.20715 21.0039 4.50731 22.3041 6.11113 22.3041Z" fill="white"/>
<path d="M79.0252 22.3041C80.629 22.3041 81.9292 21.0039 81.9292 19.4001C81.9292 17.7963 80.629 16.4961 79.0252 16.4961C77.4214 16.4961 76.1212 17.7963 76.1212 19.4001C76.1212 21.0039 77.4214 22.3041 79.0252 22.3041Z" fill="white"/>
<path d="M42.5719 9.51108C44.1758 9.51108 45.4759 8.21092 45.4759 6.6071C45.4759 5.00328 44.1758 3.70312 42.5719 3.70312C40.9681 3.70312 39.668 5.00328 39.668 6.6071C39.668 8.21092 40.9681 9.51108 42.5719 9.51108Z" fill="white"/>
</g>
<defs>
<clipPath id="clip0_1615_17329">
<rect width="85" height="83.2452" fill="white" transform="translate(0 0.851562)"/>
</clipPath>
</defs>
</svg>
