<svg width="85" height="85" viewBox="0 0 85 85" fill="none" xmlns="http://www.w3.org/2000/svg">
<path d="M37.9702 6.98008C22.9086 19.4824 6.01031 23.4314 12.0043 43.6727C17.9983 63.9139 48.3785 66.865 45.9601 76.9244C43.5417 86.9838 85.3895 74.9468 71.0504 37.1338C62.6135 14.8904 50.4541 -3.38545 37.9702 6.98008Z" fill="#DDE7FE"/>
<path d="M57.4948 58.7572C56.3438 58.7572 55.2234 58.396 54.2744 57.698C50.809 55.1572 46.6946 53.8163 42.3782 53.8163C38.0618 53.8163 33.978 55.151 30.5188 57.6674C28.0759 59.443 24.6472 58.9042 22.8717 56.4674C22.1859 55.5245 21.8247 54.4102 21.8247 53.2469C21.8247 51.502 22.6635 49.8489 24.0717 48.8203C29.4167 44.9263 35.7474 42.8691 42.3721 42.8691C48.9967 42.8691 55.3703 44.9386 60.7276 48.8631C62.1296 49.8856 62.9684 51.5387 62.9684 53.2775C62.9684 54.4469 62.6011 55.5674 61.9092 56.5102C61.0459 57.6919 59.7724 58.4633 58.3336 58.6838C58.052 58.7266 57.7642 58.7511 57.4826 58.7511L57.4948 58.7572ZM42.3843 50.5101C47.4048 50.5101 52.1927 52.0714 56.2336 55.0286C56.6989 55.3714 57.2683 55.5061 57.8377 55.4204C58.4071 55.3347 58.9092 55.0286 59.252 54.5633C59.5275 54.1898 59.6684 53.749 59.6684 53.2898C59.6684 52.604 59.3377 51.9489 58.7867 51.5448C53.9988 48.0427 48.3293 46.1876 42.3843 46.1876C36.4393 46.1876 30.8065 48.0244 26.0309 51.502C25.4738 51.9061 25.1431 52.5612 25.1431 53.253C25.1431 53.7122 25.284 54.1531 25.5595 54.5265C26.2636 55.4878 27.6167 55.7021 28.584 55.0041C32.6127 52.0714 37.3883 50.5162 42.3904 50.5162L42.3843 50.5101Z" fill="#2363C1"/>
<path d="M18.7265 45.9256C18.4633 45.9256 18.1939 45.9072 17.9306 45.8705C16.4795 45.6562 15.2061 44.897 14.3305 43.7215C13.6203 42.7725 13.2468 41.6398 13.2468 40.4581C13.2468 38.7132 14.0489 37.1152 15.451 36.0683C23.5511 30.0375 33.1758 26.8477 43.2903 26.8477C52.5354 26.8477 61.4744 29.5477 69.1337 34.6601C70.6582 35.6825 71.5705 37.3846 71.5705 39.2153C71.5705 40.299 71.2521 41.3459 70.6521 42.2459C69.8439 43.4582 68.6072 44.2848 67.1745 44.5725C65.7418 44.8603 64.2785 44.5725 63.0662 43.7582C57.2069 39.852 50.3741 37.7887 43.2964 37.7887C35.5514 37.7887 28.1859 40.2255 21.996 44.8419C21.0409 45.5521 19.9082 45.9256 18.7388 45.9256H18.7265ZM43.2903 30.1538C33.8922 30.1538 24.9471 33.1172 17.4285 38.7193C16.8653 39.1357 16.5591 39.7541 16.5591 40.4581C16.5591 40.9235 16.7061 41.3704 16.9877 41.7439C17.3306 42.2092 17.8388 42.5092 18.4082 42.5949C18.9776 42.6745 19.547 42.5337 20.0123 42.1908C26.7777 37.152 34.8289 34.4825 43.2903 34.4825C51.0231 34.4825 58.4927 36.7417 64.8969 41.0092C65.3745 41.3276 65.95 41.4439 66.5194 41.3276C67.0888 41.2112 67.5786 40.8867 67.897 40.4092C68.1357 40.0541 68.2582 39.6377 68.2582 39.2153C68.2582 38.4867 67.897 37.8132 67.2908 37.4091C60.1764 32.6641 51.8742 30.1538 43.2842 30.1538H43.2903Z" fill="#2363C1"/>
<path d="M7.47971 32.4981C7.25317 32.4981 7.02664 32.4858 6.8001 32.4552C5.34905 32.2715 4.05106 31.5368 3.15717 30.3858C2.40409 29.4123 2 28.249 2 27.0245C2 25.3285 2.77144 23.7489 4.10617 22.7081C15.384 13.9283 28.9087 9.28125 43.2294 9.28125C56.7358 9.28125 69.6361 13.4568 80.5465 21.3489C81.9609 22.3774 82.8119 24.0367 82.8119 25.7877C82.8119 26.9449 82.4507 28.0531 81.7772 28.9898C80.92 30.1715 79.6588 30.9552 78.2139 31.1878C76.7689 31.4144 75.324 31.0715 74.1362 30.2205C65.1054 23.6816 54.4215 20.2284 43.2356 20.2284C31.3761 20.2284 20.1718 24.0734 10.8349 31.3409C9.86139 32.094 8.69198 32.4981 7.47971 32.4981ZM43.2356 12.5936C29.6557 12.5936 16.835 16.9957 6.14499 25.3163C5.61844 25.7265 5.31231 26.351 5.31231 27.0245C5.31231 27.5143 5.46538 27.9612 5.77151 28.3531C6.12662 28.8062 6.63479 29.0939 7.21031 29.1674C7.77971 29.2347 8.34911 29.0817 8.80831 28.7266C18.7269 20.9999 30.6353 16.9161 43.2417 16.9161C55.1317 16.9161 66.483 20.5897 76.0832 27.5388C76.5485 27.8755 77.124 28.0163 77.6934 27.9245C78.2628 27.8327 78.7649 27.5265 79.1016 27.0612C79.371 26.6877 79.5118 26.253 79.5118 25.7938C79.5118 25.102 79.1751 24.4469 78.6179 24.0367C68.2769 16.5549 56.044 12.5997 43.2417 12.5997L43.2356 12.5936Z" fill="#2363C1"/>
<path d="M42.4089 81.3486C35.7169 81.3486 30.2678 75.9056 30.2678 69.2075C30.2678 62.5094 35.7108 57.0664 42.4089 57.0664C49.107 57.0664 54.55 62.5094 54.55 69.2075C54.55 75.9056 49.107 81.3486 42.4089 81.3486ZM42.4089 60.3787C37.5414 60.3787 33.5801 64.34 33.5801 69.2075C33.5801 74.0749 37.5414 78.0362 42.4089 78.0362C47.2763 78.0362 51.2377 74.0749 51.2377 69.2075C51.2377 64.34 47.2763 60.3787 42.4089 60.3787Z" fill="#2363C1"/>
</svg>
