<svg width="21" height="20" viewBox="0 0 21 20" fill="none" xmlns="http://www.w3.org/2000/svg">
<g clip-path="url(#clip0_1202_12840)">
<path opacity="0.5" fill-rule="evenodd" clip-rule="evenodd" d="M15.9849 1.6853C14.3404 0.58649 12.407 0 10.4292 0C7.77793 0.0029116 5.23608 1.05742 3.36135 2.93215C1.48661 4.80688 0.432111 7.34873 0.429199 10C0.429199 11.9778 1.01569 13.9112 2.1145 15.5557C3.21332 17.2002 4.7751 18.4819 6.60237 19.2388C8.42963 19.9957 10.4403 20.1937 12.3801 19.8079C14.3199 19.422 16.1017 18.4696 17.5003 17.0711C18.8988 15.6725 19.8512 13.8907 20.2371 11.9509C20.6229 10.0111 20.4249 8.00043 19.668 6.17317C18.9111 4.3459 17.6294 2.78412 15.9849 1.6853ZM5.70484 2.93051C7.10266 1.99652 8.74605 1.498 10.4272 1.498C12.6806 1.50117 14.8407 2.39773 16.4341 3.9911C18.0275 5.58447 18.924 7.74463 18.9272 9.998C18.9272 11.6791 18.4287 13.3225 17.4947 14.7203C16.5607 16.1182 15.2332 17.2076 13.68 17.851C12.1268 18.4943 10.4178 18.6627 8.76892 18.3347C7.12008 18.0067 5.60553 17.1972 4.41678 16.0084C3.22803 14.8197 2.41849 13.3051 2.09051 11.6563C1.76254 10.0074 1.93087 8.29836 2.57421 6.74519C3.21756 5.19202 4.30702 3.8645 5.70484 2.93051Z" fill="white"/>
<path opacity="0.5" d="M11.0742 4C11.2416 4.00052 11.404 4.05701 11.5355 4.16048C11.6671 4.26396 11.7603 4.40846 11.8002 4.571L11.8172 4.658L11.8232 4.749V10.592C11.8227 10.7594 11.7662 10.9218 11.6627 11.0533C11.5593 11.1849 11.4148 11.2781 11.2522 11.318L11.1652 11.335L11.0742 11.341H7.17922C6.99601 11.3415 6.81899 11.2747 6.68173 11.1534C6.54448 11.032 6.45654 10.8645 6.43459 10.6826C6.41264 10.5007 6.45821 10.3171 6.56265 10.1666C6.66709 10.0161 6.82315 9.9091 7.00122 9.866L7.08822 9.849L7.17922 9.843H10.3242V4.749C10.3244 4.58017 10.3816 4.41635 10.4865 4.28405C10.5914 4.15175 10.7379 4.05872 10.9022 4.02L10.9872 4.005L11.0742 4Z" fill="white"/>
</g>
<defs>
<clipPath id="clip0_1202_12840">
<rect width="20" height="20" fill="white" transform="translate(0.429199)"/>
</clipPath>
</defs>
</svg>
