<svg width="54" height="81" viewBox="0 0 54 81" fill="none" xmlns="http://www.w3.org/2000/svg">
<g clip-path="url(#clip0_1423_5507)">
<path d="M32.637 13.6082C33.5558 8.00396 29.8734 2.66976 24.3218 1.47035C13.4921 -0.868841 -0.890272 -1.50011 0.803626 12.3036C3.48651 34.1629 27.6535 46.5182 24.8654 56.8745C22.0773 67.2308 39.7913 99.3026 47.2859 78.0289C53.9036 59.2488 28.9791 35.9235 32.637 13.6082Z" fill="#DDE7FE"/>
<path d="M8.35082 23.6549C8.12286 23.6549 7.94751 23.7285 7.77566 23.8513C7.49861 23.981 7.30221 24.237 7.2461 24.5456C7.23558 24.6018 7.23909 24.6579 7.23909 24.7175V51.6656C7.23909 54.1801 9.64842 56.7157 12.184 56.7157H25.893C26.0648 56.7157 26.2192 56.5438 26.3524 56.4281C26.5348 58.4692 27.1661 60.37 28.2357 62.1621C29.856 64.8836 31.897 66.2829 32.125 66.4372C32.2968 66.5529 32.5003 66.602 32.7177 66.602C33.0719 66.602 33.3981 66.4196 33.598 66.1251C33.9241 65.6411 33.7979 64.9747 33.3139 64.6486C33.0158 64.4452 26.0087 59.5634 29.2843 50.3644C29.4176 49.9962 29.3334 49.5824 29.0704 49.2913C25.6756 45.5528 22.7717 42.6419 21.0393 40.9025C20.5623 40.4255 20.18 40.0397 19.91 39.7627C19.177 39.0087 17.5498 36.3503 19.6329 34.1269C20.7833 32.8994 22.0142 32.6399 22.8419 32.6399C23.7783 32.6399 24.7287 32.9625 25.388 33.5026C26.9241 34.7687 43.0389 50.3329 43.2002 50.4907C43.4001 50.6836 43.6631 50.7888 43.9367 50.7888C44.2278 50.7888 44.4978 50.6731 44.7012 50.4661C44.8976 50.2627 44.9993 49.9892 44.9853 49.7051C44.9713 49.4245 44.852 49.1615 44.6486 48.9651C44.6065 48.9266 44.4628 48.8284 44.3084 48.6846C43.6526 48.0673 41.9552 46.6259 40.2017 44.7847V31.1108C42.6566 33.9866 46.5109 38.5107 48.808 41.6389C50.0951 43.41 50.6176 44.3113 50.7403 44.7497C51.1437 46.1525 51.3716 49.6876 51.4067 52.3775C51.4523 55.8214 51.4909 59.4231 51.5154 62.7934C51.5154 63.0739 51.6346 63.3299 51.81 63.5263C51.9818 63.7753 52.2414 64.0103 52.5395 64.0314C52.5535 64.0314 52.571 64.0769 52.5886 64.0769H52.5956C52.6341 64.0769 52.6727 64.0278 52.7078 64.0208C52.8831 63.9928 53.0515 63.8841 53.1953 63.7403C53.2338 63.7017 53.2724 63.6456 53.304 63.6C53.311 63.593 53.318 63.586 53.325 63.5789C53.5354 63.3685 53.6547 63.0774 53.6512 62.7829C53.6231 58.7848 53.5916 55.1831 53.553 52.3705C53.5144 49.4666 53.2689 45.8053 52.799 44.1745C52.2589 42.2948 48.1206 36.9115 40.5805 28.1789L40.1947 27.7791V12.0361C40.1947 9.50046 38.3219 7.61719 35.7302 7.61719H12.184C10.434 7.61719 8.89441 8.46589 8.0457 9.75297C7.54771 10.3807 7.23909 11.1383 7.23909 12.0361V17.0686C7.23909 17.1283 7.25311 17.1844 7.26364 17.2405C7.31975 17.5491 7.53017 17.8086 7.80723 17.9349C7.97907 18.0576 8.12286 18.1313 8.35082 18.1313C8.93649 18.1313 9.34331 17.6543 9.34331 17.0686V12.0361C9.34331 11.2435 9.87988 10.493 10.5848 10.0721C11.0547 9.87572 11.6544 9.72141 12.184 9.72141H22.67V30.455C22.67 30.4901 22.6174 30.5216 22.6315 30.5532C21.397 30.5988 19.654 31.0266 18.1039 32.682C15.2351 35.7401 16.7537 39.5628 18.395 41.2497C18.5984 41.4566 18.8544 41.7231 19.1735 42.0422L19.5347 42.407C20.2923 43.168 21.3023 44.2026 22.7086 45.6545C22.7016 45.6615 22.7542 45.6685 22.7507 45.679C22.6876 45.7597 22.6735 45.8544 22.6735 45.9666V54.2537C22.6735 54.2537 22.6174 54.2362 22.6209 54.2537C22.6244 54.2678 22.5718 54.2678 22.5789 54.2678H12.184C10.7461 54.2678 9.34331 53.0894 9.34331 51.6726V24.7175C9.34331 24.1318 8.93649 23.6549 8.35082 23.6549ZM32.4897 37.2481V9.72141H35.7408C37.2348 9.72141 38.101 10.6052 38.101 12.0361V42.6665C36.3475 41.1024 34.6676 39.4014 33.121 37.8794L32.4897 37.2481ZM26.7136 31.8683C26.1806 31.43 25.4722 31.0617 24.7111 30.8303C24.7532 30.7145 24.7708 30.5848 24.7708 30.4515V9.72141H30.0313V35.1474C28.9792 34.1584 28.1445 33.3097 27.5413 32.7276C27.1135 32.3137 26.8855 32.0121 26.7101 31.8683H26.7136ZM24.7743 47.9025C24.7743 48.1129 25.1951 48.3233 25.416 48.5443C25.5914 48.7196 25.7703 48.8985 25.9456 49.0774C26.3103 49.4631 26.6786 49.8559 27.0503 50.2662C26.619 51.62 26.37 52.9772 26.3033 54.3625C26.1841 54.3204 26.0473 54.2643 25.8965 54.2643H24.7918C24.7918 54.2643 24.7778 54.2713 24.7778 54.2502V47.9025H24.7743ZM24.5884 54.7517V54.8569C24.5884 54.8569 24.5709 54.8184 24.5393 54.7658L24.5884 54.7517Z" fill="#2363C1"/>
<path d="M52.4799 65.7258V65.7328C52.1291 65.7889 51.54 66.2518 51.5435 66.8094C51.561 70.0605 51.5785 72.3891 51.5785 72.4032C51.5785 73.0169 52.0836 73.55 52.6482 73.55C52.6762 73.55 52.7078 73.55 52.7359 73.5465C52.7534 73.5465 52.7744 73.5429 52.792 73.5394C52.8025 73.5394 52.8165 73.5359 52.827 73.5324C53.055 73.4763 53.2479 73.3255 53.3777 73.1922C53.5776 72.9923 53.7073 72.6592 53.7073 72.347C53.7073 72.347 53.7003 70.057 53.6828 66.7919C53.6828 66.1992 53.1848 65.7188 52.6026 65.7188H52.4834L52.4799 65.7258Z" fill="#2363C1"/>
<path d="M21.3058 59.6896C21.2952 59.1145 20.8253 58.6445 20.2536 58.6445H20.2256C19.9415 58.648 19.6785 58.7638 19.4786 58.9672C19.2822 59.1706 19.1735 59.4406 19.1805 59.7212C19.1875 60.0964 19.3979 68.9377 25.9245 72.9357C26.0929 73.0374 26.2822 73.0935 26.4786 73.0935C26.8504 73.0935 27.1906 72.9041 27.387 72.585C27.6921 72.087 27.5343 71.4312 27.0363 71.1226C21.5372 67.7558 21.3093 59.7668 21.3093 59.6861L21.3058 59.6896Z" fill="#2363C1"/>
<path d="M9.67984 20.7459C9.67984 21.4017 9.15027 21.9313 8.49446 21.9313C7.83864 21.9313 7.30908 21.4017 7.30908 20.7459C7.30908 20.0901 7.84215 19.5605 8.49446 19.5605C9.14677 19.5605 9.67984 20.0901 9.67984 20.7459Z" fill="#2363C1"/>
<path d="M53.6547 77.4686C53.6547 78.1244 53.1251 78.654 52.4693 78.654C51.8135 78.654 51.2839 78.1244 51.2839 77.4686C51.2839 76.8128 51.8135 76.2832 52.4693 76.2832C53.1251 76.2832 53.6547 76.8128 53.6547 77.4686Z" fill="#2363C1"/>
</g>
<defs>
<clipPath id="clip0_1423_5507">
<rect width="53.0404" height="85" fill="white" transform="translate(0.666992 0.166016)"/>
</clipPath>
</defs>
</svg>
