<svg width="24" height="24" viewBox="0 0 24 24" fill="none" xmlns="http://www.w3.org/2000/svg">
<g clip-path="url(#clip0_1123_6093)">
<path opacity="0.09" d="M24 12C24 5.37258 18.6274 0 12 0C5.37258 0 0 5.37258 0 12C0 18.6274 5.37258 24 12 24C18.6274 24 24 18.6274 24 12Z" fill="white"/>
<path d="M14.8309 12.3072C14.876 12.2697 14.9123 12.2227 14.9372 12.1696C14.9622 12.1164 14.9751 12.0584 14.9751 11.9997C14.9751 11.9411 14.9622 11.8831 14.9372 11.8299C14.9123 11.7768 14.876 11.7298 14.8309 11.6922L11.0559 8.54725C10.9975 8.49862 10.9265 8.46762 10.8511 8.45789C10.7758 8.44816 10.6992 8.4601 10.6304 8.49231C10.5615 8.52452 10.5033 8.57566 10.4625 8.63976C10.4217 8.70386 10.4 8.77826 10.3999 8.85425V15.1462C10.4 15.2222 10.4217 15.2966 10.4625 15.3607C10.5033 15.4248 10.5615 15.476 10.6304 15.5082C10.6992 15.5404 10.7758 15.5523 10.8511 15.5426C10.9265 15.5329 10.9975 15.5019 11.0559 15.4532L14.8309 12.3072Z" fill="white"/>
</g>
<defs>
<clipPath id="clip0_1123_6093">
<rect width="24" height="24" fill="white"/>
</clipPath>
</defs>
</svg>
