<svg width="37" height="37" viewBox="0 0 37 37" fill="none" xmlns="http://www.w3.org/2000/svg">
<path d="M28.8103 3.12119C25.6069 0.935639 21.7109 0.00107926 17.8327 8.88102e-08C16.8423 -0.000308245 16.0321 0.802285 16.0321 1.79273V7.26982C16.0321 8.49899 16.8723 9.63806 18.0855 9.83524C19.6318 10.0867 20.968 8.90044 20.968 7.40179V5.17539C24.6783 5.85441 27.9869 8.02447 30.1215 11.4657C32.8624 15.8841 32.7712 21.5421 29.9063 25.8812C25.0011 33.3104 14.8543 34.0539 8.90175 28.1017C4.11818 23.3184 3.65907 15.8215 7.52458 10.5172C8.2396 9.536 8.19227 8.19829 7.33364 7.33997H7.33356C6.17623 6.1831 4.45997 6.33418 3.50028 7.65963C-1.73485 14.8903 -1.0976 25.0807 5.41195 31.5906C9.01976 35.1976 13.7606 37.0025 18.5 37C23.2396 37 27.9802 35.1976 31.5882 31.5906C39.6344 23.5438 38.7085 9.87355 28.8103 3.12119ZM17.192 19.808C17.5533 20.1694 18.0267 20.35 18.5 20.35C18.9733 20.35 19.4467 20.1694 19.808 19.808C20.5306 19.0853 20.5306 17.9147 19.808 17.192L13.6413 11.0253C12.9186 10.3027 11.748 10.3027 11.0253 11.0253C10.3027 11.748 10.3027 12.9187 11.0253 13.6413L17.192 19.808Z" fill="#01112C"/>
</svg>
