<svg width="37" height="37" viewBox="0 0 37 37" fill="none" xmlns="http://www.w3.org/2000/svg">
<g clip-path="url(#clip0_1560_2697)">
<path d="M15.8478 1.84961C16.1771 1.84961 16.5765 2.08144 16.7412 2.36748L23.4921 14.1829H30.8332C33.1037 14.1829 37 16.0237 37 18.2941C37 20.5644 33.1037 22.4052 30.8332 22.4052H23.4921L16.7391 34.2206C16.5565 34.5408 16.2152 34.7385 15.8478 34.7385H11.6403C10.9578 34.7385 10.464 34.0841 10.6527 33.4277L13.8023 22.4052H7.19389L4.4196 26.1048C4.2249 26.3637 3.91978 26.5163 3.59661 26.5163H1.0271C0.358592 26.5163 -0.131209 25.888 0.0313729 25.2396L2.05487 18.2941L0.0313729 11.3485C-0.131209 10.7001 0.358592 10.0718 1.0271 10.0718H3.59661C3.91978 10.0718 4.2249 10.2244 4.4196 10.4833L7.19389 14.1829H13.8023L10.6527 3.15945C10.464 2.50302 10.9578 1.84961 11.6403 1.84961H15.8478Z" fill="#01112C"/>
</g>
<defs>
<clipPath id="clip0_1560_2697">
<rect width="37" height="37" fill="white"/>
</clipPath>
</defs>
</svg>
