<svg width="24" height="24" viewBox="0 0 24 24" fill="none" xmlns="http://www.w3.org/2000/svg">
<g clip-path="url(#clip0_1123_12834)">
<path d="M14.6999 15.9466L12.7399 14.0006C7.55994 19.147 8.33833 15.1626 8.33833 20.0906C8.34009 20.5512 8.24245 21.0068 8.05206 21.4262C7.86167 21.8456 7.58302 22.219 7.23514 22.5209L5.41516 18.4484L1.32159 16.6508C2.66698 15.3152 3.40197 15.5574 6.58555 15.5574C7.44681 13.9322 8.6278 12.4978 10.0575 11.3406L8.10593 9.40165L0 7.50327C2.28758 5.23109 0.884793 5.65108 15.7863 5.65108C17.5139 3.9347 19.3702 1.96071 19.7286 1.60092C20.7618 0.574726 23.4652 -0.314267 23.8894 0.10713C24.3136 0.528526 23.4428 3.2375 22.4096 4.2623C22.0526 4.61789 20.2676 6.58488 18.5484 8.29146C18.5484 22.6805 19.023 21.6012 16.6081 23.9993L14.6999 15.9466ZM19.5116 10.9962L20.591 9.92525C22.439 11.7718 21.851 11.7998 19.5116 14.1392V10.9962ZM9.88392 4.67949C12.4865 2.09231 12.3479 1.71712 14.1721 3.5371L13.0339 4.67949H9.88392Z" fill="#0C99C1"/>
</g>
<defs>
<clipPath id="clip0_1123_12834">
<rect width="24" height="24" fill="white"/>
</clipPath>
</defs>
</svg>
