<svg width="24" height="24" viewBox="0 0 24 24" fill="none" xmlns="http://www.w3.org/2000/svg">
<g clip-path="url(#clip0_1123_12840)">
<g opacity="0.5">
<path d="M20.6616 24H3.3384C2.45329 23.999 1.60471 23.647 0.978847 23.0211C0.352982 22.3953 0.000952923 21.5467 0 20.6616L0 3.3384C0.000952923 2.45329 0.352982 1.60471 0.978847 0.978845C1.60471 0.35298 2.45329 0.00095049 3.3384 -2.43309e-06H20.6868C21.1275 -0.00181905 21.564 0.0845116 21.9708 0.253911C22.3776 0.42331 22.7465 0.672356 23.0556 0.986398C23.3618 1.29574 23.603 1.66316 23.7652 2.06706C23.9274 2.47097 24.0072 2.90321 24 3.3384V20.6616C23.999 21.5467 23.647 22.3953 23.0212 23.0211C22.3953 23.647 21.5467 23.999 20.6616 24ZM7.536 4.2996V19.7256H10.2168V14.04H12.5436C13.1893 14.0501 13.8305 13.9317 14.43 13.6916C15.0295 13.4516 15.5752 13.0946 16.0354 12.6416C16.4956 12.1886 16.861 11.6485 17.1105 11.0529C17.36 10.4573 17.4884 9.81796 17.4884 9.1722C17.4884 8.52644 17.36 7.88713 17.1105 7.2915C16.861 6.69587 16.4956 6.15582 16.0354 5.7028C15.5752 5.24978 15.0295 4.89284 14.43 4.65276C13.8305 4.41268 13.1893 4.29426 12.5436 4.3044L7.536 4.2996ZM12.6348 11.4288H10.2864V6.8568H12.6348C13.2283 6.87603 13.791 7.1253 14.204 7.55191C14.617 7.97852 14.8479 8.54902 14.8479 9.1428C14.8479 9.73657 14.617 10.3071 14.204 10.7337C13.791 11.1603 13.2283 11.4096 12.6348 11.4288Z" fill="white"/>
</g>
</g>
<defs>
<clipPath id="clip0_1123_12840">
<rect width="24" height="24" fill="white"/>
</clipPath>
</defs>
</svg>
