<svg width="85" height="85" viewBox="0 0 85 85" fill="none" xmlns="http://www.w3.org/2000/svg">
<g clip-path="url(#clip0_1423_5577)">
<path d="M33.1241 0.209122C23.6392 -2.53799 10.9826 22.6323 22.4476 40.2978C33.9127 57.9634 29.935 59.4842 31.8978 70.646C33.8607 81.8077 80.5398 91.2233 83.2869 79.8449C86.034 68.4665 88.6902 9.98865 62.09 10.2876C35.4855 10.5866 33.1241 0.209122 33.1241 0.209122Z" fill="#DDE7FE"/>
<path d="M10.0983 14.4051C9.48733 15.367 9.16669 16.3636 9.16669 17.5552V77.9135C9.16669 81.6486 12.4857 84.985 16.1991 84.985H61.3271C61.4484 84.985 61.5654 85.0109 61.6824 85.0023C62.5793 84.9416 63.4979 84.66 64.4295 84.1314C64.6115 84.036 64.7934 83.945 64.9711 83.8367C65.1704 84.309 65.6427 84.6296 66.1757 84.6296C66.206 84.6296 66.2407 84.6296 66.2667 84.6167C70.0753 84.4303 73.2904 81.3236 73.2904 77.8182V18.0838C73.2904 14.3314 70.2313 11.281 66.4746 11.281C66.44 11.281 66.414 11.281 66.3923 11.281L66.258 11.2984C65.8594 11.333 65.5084 11.6753 65.2874 12.009C64.1218 11.19 62.7569 10.8867 61.3271 10.8867H16.1991C13.5517 10.8867 11.2768 12.2343 10.0983 14.4008V14.4051ZM61.3661 82.3852H16.1688C13.7943 82.3852 11.7665 80.3617 11.7665 77.9872V17.5682C11.7665 15.8783 12.7977 14.4658 14.2189 13.7595C14.7259 13.5558 15.3282 13.4908 15.9088 13.4908H60.9718C63.4935 13.4908 65.4954 15.4407 65.4954 17.9625V78.2515C65.4954 78.8321 65.4044 79.4301 65.2007 79.937C64.4988 81.3583 63.0559 82.3852 61.3661 82.3852ZM70.591 17.6722C70.604 17.8065 70.695 17.9451 70.695 18.0838V77.8182C70.695 77.9482 70.604 78.0782 70.5866 78.2038C70.5736 78.3165 70.513 78.4335 70.487 78.5418C70.487 78.5505 70.4653 78.5592 70.461 78.5678C70.2053 79.6684 69.3951 80.6693 68.3162 81.3236C67.8569 81.5792 67.3802 81.7699 66.8473 81.8782C67.6359 80.7386 68.0952 79.3391 68.0952 77.9092V17.5552C68.0952 16.2596 67.7269 15.0247 67.0899 13.9631C67.5839 14.0455 68.0778 14.2101 68.4981 14.4398C69.6334 15.1374 70.4523 16.3203 70.591 17.6635V17.6722ZM67.3802 17.5595C67.3802 17.3819 67.3716 17.2042 67.3586 17.0309C67.3716 17.2042 67.3802 17.3819 67.3802 17.5595ZM67.3542 78.5028C67.3716 78.3078 67.3802 78.1129 67.3802 77.9179C67.3802 78.1129 67.3716 78.3122 67.3542 78.5028ZM11.3332 78.2515C11.3332 80.8426 13.3133 82.8185 15.9088 82.8185H15.7788C13.257 82.8185 11.3375 80.9076 11.3375 78.3815V78.2515H11.3332Z" fill="#2363C1"/>
<path d="M55.9322 68.0864H20.9477C20.2241 68.0864 19.6348 68.758 19.6348 69.4816C19.6348 70.1229 20.0985 70.6992 20.7094 70.8118C20.7181 70.8118 20.7267 70.7381 20.7354 70.7381C20.8047 70.7511 20.8741 70.6862 20.9477 70.6862H55.9322C56.0058 70.6862 56.0752 70.7728 56.1445 70.7598C56.1532 70.7598 56.1618 70.8075 56.1705 70.8031C56.7814 70.6905 57.2451 70.0969 57.2451 69.4556C57.2451 68.732 56.6558 68.082 55.9322 68.082V68.0864Z" fill="#2363C1"/>
<path d="M42.0799 38.1798C40.0737 38.1798 38.4402 36.5463 38.4402 34.5401C38.4402 32.5339 40.0737 30.9004 42.0799 30.9004C44.0861 30.9004 45.7196 32.5339 45.7196 34.5401C45.7196 36.5463 44.0861 38.1798 42.0799 38.1798Z" fill="#2363C1"/>
<path d="M36.98 60.0257C35.4201 60.0257 34.2069 59.5447 33.3749 58.5915C31.9667 56.984 32.179 54.6051 32.218 54.2715C32.2354 51.2644 34.8395 44.674 35.6497 42.6981C34.8351 42.7545 33.1929 43.0491 31.7934 43.3697C31.5551 43.4217 31.3168 43.3047 31.2084 43.0881C31.1044 42.8714 31.1608 42.6071 31.3514 42.4555C31.5161 42.3212 35.3984 39.2188 37.9202 39.2188C40.0997 39.2188 42.6432 39.899 42.6432 41.8229C42.6432 42.7588 41.9629 44.2277 41.105 46.0822C39.9307 48.617 38.4705 51.7714 38.4705 54.3062C38.4705 54.9475 38.5962 55.4111 38.8345 55.6407C39.0381 55.84 39.3068 55.8444 39.5407 55.84C39.5624 55.84 39.5841 55.84 39.6014 55.84C39.8787 55.7967 41.5166 55.3114 42.9638 54.8521C43.1458 54.7958 43.3451 54.8435 43.4838 54.9778C43.6224 55.1121 43.6744 55.3114 43.6181 55.4934C43.6051 55.5367 42.2445 60.03 36.98 60.03V60.0257Z" fill="#2363C1"/>
</g>
<defs>
<clipPath id="clip0_1423_5577">
<rect width="75.7794" height="85" fill="white" transform="translate(9.16669)"/>
</clipPath>
</defs>
</svg>
