<svg width="32" height="21" viewBox="0 0 32 21" fill="none" xmlns="http://www.w3.org/2000/svg">
<path opacity="0.5" d="M4.56223 20.5C3.46812 20.5067 2.41569 20.0808 1.63423 19.315C1.10546 18.7978 0.730214 18.1443 0.550069 17.4269C0.369924 16.7095 0.391916 15.9562 0.613607 15.2506C0.835298 14.5449 1.24803 13.9144 1.80607 13.4289C2.36412 12.9434 3.04567 12.6219 3.77523 12.5C4.38857 10.7245 5.54833 9.18878 7.08823 8.113C8.41504 7.17178 9.96989 6.60343 11.5909 6.46713C13.2119 6.33083 14.8399 6.63156 16.3052 7.338C16.8493 6.66424 17.539 6.12267 18.3227 5.75407C19.1063 5.38547 19.9633 5.19945 20.8292 5.21C22.3296 5.19934 23.773 5.78415 24.8429 6.83619C25.9127 7.88823 26.5217 9.32162 26.5362 10.822C26.5291 11.7082 26.3112 12.5799 25.9005 13.3652C25.4898 14.1505 24.898 14.8267 24.1742 15.338V15.35C24.2449 15.7078 24.2881 16.0706 24.3032 16.435C24.3051 16.9711 24.1994 17.5021 23.9924 17.9966C23.7854 18.4911 23.4814 18.9391 23.0982 19.314C22.3184 20.0787 21.2684 20.5049 20.1762 20.5H4.56223ZM5.21823 13.4C5.18717 13.5852 5.09019 13.7529 4.94518 13.8722C4.80017 13.9914 4.61692 14.0542 4.42923 14.049C3.80474 14.0676 3.21135 14.3258 2.772 14.77C2.33266 15.2142 2.08102 15.8103 2.06923 16.435C2.07557 17.0905 2.34156 17.7167 2.80889 18.1763C3.27622 18.636 3.90675 18.8915 4.56223 18.887H20.1762C20.4958 18.8987 20.8145 18.847 21.114 18.7349C21.4134 18.6227 21.6877 18.4523 21.9209 18.2336C22.1541 18.0148 22.3416 17.7519 22.4727 17.4603C22.6037 17.1686 22.6756 16.8538 22.6843 16.5341C22.6929 16.2145 22.6381 15.8963 22.5231 15.5979C22.408 15.2996 22.235 15.027 22.014 14.7959C21.7929 14.5648 21.5283 14.3798 21.2353 14.2516C20.9424 14.1234 20.6269 14.0546 20.3072 14.049C20.1322 14.0455 19.9625 13.9879 19.8216 13.884C19.6807 13.7801 19.5754 13.6352 19.5202 13.469C19.0806 11.9156 18.1424 10.5498 16.8502 9.58202C15.5581 8.61421 13.9836 8.09803 12.3692 8.113C10.7635 8.09246 9.19514 8.59818 7.90384 9.55288C6.61255 10.5076 5.66931 11.8588 5.21823 13.4ZM17.7482 8.174C19.2408 9.24956 20.3638 10.7607 20.9632 12.5C21.9107 12.6815 22.7674 13.1823 23.3902 13.919C24.0242 13.3917 24.4803 12.682 24.6967 11.8863C24.9131 11.0907 24.8792 10.2477 24.5996 9.47196C24.32 8.69625 23.8083 8.02546 23.1341 7.55079C22.4598 7.07612 21.6558 6.82061 20.8312 6.819C20.2509 6.81693 19.6766 6.93673 19.1455 7.17066C18.6145 7.4046 18.1384 7.74744 17.7482 8.177V8.174ZM27.0642 18.11L25.6202 16.691C25.5425 16.6156 25.4808 16.5254 25.4386 16.4256C25.3964 16.3259 25.3747 16.2188 25.3747 16.1105C25.3747 16.0022 25.3964 15.8951 25.4386 15.7954C25.4808 15.6956 25.5425 15.6054 25.6202 15.53C25.7776 15.3745 25.99 15.2873 26.2112 15.2873C26.4325 15.2873 26.6448 15.3745 26.8022 15.53L28.2452 16.949C28.3232 17.0243 28.3851 17.1145 28.4275 17.2142C28.4698 17.3139 28.4916 17.4212 28.4916 17.5295C28.4916 17.6378 28.4698 17.7451 28.4275 17.8448C28.3851 17.9445 28.3232 18.0347 28.2452 18.11C28.0877 18.2649 27.8757 18.3518 27.6547 18.3518C27.4338 18.3518 27.2217 18.2649 27.0642 18.11ZM28.4422 11.659C28.2197 11.659 28.0063 11.5706 27.849 11.4133C27.6916 11.2559 27.6032 11.0425 27.6032 10.82C27.6032 10.5975 27.6916 10.3841 27.849 10.2267C28.0063 10.0694 28.2197 9.981 28.4422 9.981H30.4762C30.6887 9.99568 30.8878 10.0905 31.0331 10.2462C31.1784 10.4019 31.2593 10.607 31.2593 10.82C31.2593 11.033 31.1784 11.2381 31.0331 11.3938C30.8878 11.5495 30.6887 11.6443 30.4762 11.659H28.4422ZM25.6202 6.113C25.5425 6.03759 25.4808 5.94736 25.4386 5.84764C25.3964 5.74793 25.3747 5.64077 25.3747 5.5325C25.3747 5.42423 25.3964 5.31707 25.4386 5.21736C25.4808 5.11764 25.5425 5.02741 25.6202 4.952L27.0642 3.533C27.2215 3.37758 27.4336 3.29042 27.6547 3.29042C27.8758 3.29042 28.088 3.37758 28.2452 3.533C28.3232 3.60826 28.3851 3.69845 28.4275 3.79818C28.4698 3.89792 28.4916 4.00515 28.4916 4.1135C28.4916 4.22185 28.4698 4.32908 28.4275 4.42882C28.3851 4.52855 28.3232 4.61874 28.2452 4.694L26.8012 6.113C26.6437 6.26794 26.4317 6.35477 26.2107 6.35477C25.9898 6.35477 25.7777 6.26794 25.6202 6.113ZM14.7962 6.113L13.3522 4.694C13.2193 4.5259 13.1526 4.31492 13.1648 4.10097C13.177 3.88702 13.2671 3.68495 13.4182 3.533C13.4896 3.45661 13.5759 3.3957 13.6718 3.35406C13.7677 3.31241 13.8712 3.29092 13.9757 3.29092C14.0803 3.29092 14.1837 3.31241 14.2796 3.35406C14.3755 3.3957 14.4618 3.45661 14.5332 3.533L15.9772 4.952C16.0549 5.02741 16.1167 5.11764 16.1588 5.21736C16.201 5.31707 16.2228 5.42423 16.2228 5.5325C16.2228 5.64077 16.201 5.74793 16.1588 5.84764C16.1167 5.94736 16.0549 6.03759 15.9772 6.113C15.8197 6.26794 15.6077 6.35477 15.3867 6.35477C15.1658 6.35477 14.9537 6.26794 14.7962 6.113ZM19.9792 3.339V1.339C19.9849 1.11637 20.0766 0.904605 20.2351 0.748162C20.3936 0.591719 20.6065 0.502773 20.8292 0.5C20.9364 0.502168 21.0421 0.525729 21.1401 0.5693C21.238 0.612871 21.3263 0.675574 21.3997 0.753728C21.4731 0.831882 21.5302 0.923913 21.5675 1.02442C21.6049 1.12492 21.6218 1.23188 21.6172 1.339V3.339C21.6218 3.44612 21.6049 3.55308 21.5675 3.65358C21.5302 3.75409 21.4731 3.84612 21.3997 3.92427C21.3263 4.00243 21.238 4.06513 21.1401 4.1087C21.0421 4.15227 20.9364 4.17583 20.8292 4.178C20.6065 4.17523 20.3936 4.08628 20.2351 3.92984C20.0766 3.77339 19.9849 3.56163 19.9792 3.339Z" fill="white"/>
</svg>
