<svg width="59" height="59" viewBox="0 0 59 59" fill="none" xmlns="http://www.w3.org/2000/svg">
<circle cx="29" cy="29" r="27" fill="#0C99C1"/>
<path d="M29.5 22.3704C32.4532 22.3704 34.8472 19.9764 34.8472 17.0232C34.8472 14.0699 32.4532 11.6759 29.5 11.6759C26.5468 11.6759 24.1528 14.0699 24.1528 17.0232C24.1528 19.9764 26.5468 22.3704 29.5 22.3704ZM29.5 15.2407C30.4828 15.2407 31.2824 16.0404 31.2824 17.0232C31.2824 18.0059 30.4828 18.8056 29.5 18.8056C28.5172 18.8056 27.7176 18.0059 27.7176 17.0232C27.7176 16.0404 28.5172 15.2407 29.5 15.2407ZM41.4129 22.6854L35.0143 24.8177C31.4564 26.0048 27.5436 26.0048 23.9857 24.8177L17.587 22.6854C16.6489 22.3669 15.6446 22.8769 15.333 23.8117C15.0214 24.7464 15.5261 25.7559 16.4592 26.0658L22.8577 28.198C23.2814 28.3394 23.7224 28.4036 24.1528 28.5175V36.4569L22.4051 45.1918C22.2119 46.1578 22.8386 47.096 23.8029 47.2893C24.7759 47.493 25.7089 46.8559 25.9003 45.8916L27.3955 38.412H31.6045L33.0997 45.8916C33.2684 46.7392 34.0135 47.3241 34.8454 47.3241C34.9604 47.3241 35.0787 47.3136 35.1971 47.2893C36.1614 47.096 36.788 46.1578 36.5948 45.1918L34.8472 36.4569V28.5175C35.2776 28.4036 35.7186 28.3394 36.1422 28.198L42.5408 26.0658C43.4738 25.7559 43.9786 24.7463 43.667 23.8117C43.3554 22.877 42.3528 22.3669 41.4129 22.6854ZM31.2824 34.8472H27.7176V29.1336C28.3118 29.1843 28.9005 29.2772 29.5 29.2772C30.0994 29.2772 30.6882 29.1843 31.2824 29.1336V34.8472Z" fill="white"/>
</svg>
