<svg width="12" height="17" viewBox="0 0 12 17" fill="none" xmlns="http://www.w3.org/2000/svg">
<path d="M4.34198 16.2854L0.841978 12.8544C0.78271 12.8052 0.738374 12.7404 0.713978 12.6674C0.683309 12.597 0.66748 12.5211 0.66748 12.4444C0.66748 12.3676 0.683309 12.2917 0.713978 12.2214C0.740478 12.1515 0.782942 12.0889 0.837978 12.0384L4.36698 8.61237C4.48227 8.50424 4.63441 8.44406 4.79248 8.44406C4.95055 8.44406 5.10268 8.50424 5.21798 8.61237C5.32741 8.72317 5.38878 8.87263 5.38878 9.02837C5.38878 9.1841 5.32741 9.33357 5.21798 9.44437L2.72398 11.8804H10.724C10.8752 11.8772 11.0219 11.9323 11.1336 12.0343C11.2453 12.1364 11.3135 12.2775 11.324 12.4284C11.3211 12.5856 11.2566 12.7354 11.1444 12.8455C11.0322 12.9557 10.8812 13.0174 10.724 13.0174H2.72398L5.21298 15.4524C5.32217 15.5633 5.38338 15.7127 5.38338 15.8684C5.38338 16.024 5.32217 16.1734 5.21298 16.2844C5.15612 16.3421 5.08833 16.388 5.01356 16.4194C4.9388 16.4507 4.85854 16.4668 4.77748 16.4668C4.69641 16.4668 4.61616 16.4507 4.54139 16.4194C4.46662 16.388 4.39884 16.3421 4.34198 16.2844V16.2854ZM6.78798 8.32837C6.67878 8.21744 6.61758 8.06803 6.61758 7.91237C6.61758 7.75671 6.67878 7.6073 6.78798 7.49637L9.27598 5.06037H1.27598C1.19903 5.06317 1.12229 5.0506 1.05026 5.02339C0.978231 4.99617 0.912352 4.95486 0.85648 4.90188C0.800608 4.84889 0.755866 4.7853 0.724873 4.71481C0.693879 4.64432 0.677257 4.56836 0.675978 4.49137C0.678861 4.33415 0.743345 4.18435 0.855556 4.0742C0.967767 3.96405 1.11874 3.90234 1.27598 3.90237H9.27598L6.78798 1.46737C6.67848 1.3564 6.61709 1.20677 6.61709 1.05087C6.61709 0.894971 6.67848 0.745342 6.78798 0.63437C6.9035 0.52668 7.05555 0.466797 7.21348 0.466797C7.37141 0.466797 7.52346 0.52668 7.63898 0.63437L11.167 4.08537C11.2242 4.13397 11.267 4.19724 11.291 4.26837C11.3216 4.33872 11.3375 4.41463 11.3375 4.49137C11.3375 4.56811 11.3216 4.64402 11.291 4.71437C11.2647 4.78433 11.2222 4.84704 11.167 4.89737L7.66698 8.32837C7.55028 8.4427 7.39432 8.50816 7.23098 8.51137C7.14852 8.51295 7.06663 8.49751 6.99041 8.46603C6.91419 8.43454 6.84528 8.38768 6.78798 8.32837Z" fill="white"/>
</svg>
