<svg width="18" height="18" viewBox="0 0 18 18" fill="none" xmlns="http://www.w3.org/2000/svg">
<g clip-path="url(#clip0_23_1637)">
<path opacity="0.25" d="M12 18H6C3.175 18 1.757 18 0.878 17.122C-0.000999987 16.244 5.15337e-09 14.824 5.15337e-09 12V7C5.15337e-09 4.175 0 2.758 0.878 1.878C1.547 1.21 2.556 1.056 4.073 1.015C4.238 0.115 4.655 0 5 0C5.509 0 5.793 0.308 5.923 1H12.075C12.205 0.309 12.49 0 12.998 0C13.343 0 13.761 0.115 13.925 1.015C15.442 1.056 16.452 1.215 17.12 1.878C18 2.758 18 4.175 18 7V12C18 14.825 18 16.243 17.122 17.122C16.244 18.001 14.824 18 12 18ZM2 8V12C1.97266 13.0096 2.00337 14.0199 2.092 15.026C2.167 15.581 2.272 15.69 2.292 15.706C2.312 15.722 2.438 15.836 2.974 15.906C3.98003 15.9953 4.99037 16.0267 6 16H12C13.0096 16.0273 14.0199 15.9966 15.026 15.908C15.56 15.836 15.682 15.737 15.706 15.708C15.73 15.679 15.838 15.543 15.906 15.025C15.9953 14.0193 16.0266 13.0093 16 12V8H2ZM4 3.019C3.65729 3.02608 3.31517 3.05078 2.975 3.093C2.42 3.167 2.311 3.272 2.295 3.293C2.279 3.314 2.165 3.439 2.095 3.975C2.02323 4.64752 1.99151 5.32371 2 6H16C16.0103 5.32348 15.9802 4.64694 15.91 3.974C15.838 3.44 15.739 3.318 15.71 3.294C15.681 3.27 15.562 3.164 15.027 3.094C14.6862 3.05138 14.3434 3.02635 14 3.019C14 4.765 13.492 5 13 5C12.508 5 12 4.762 12 3H6C6 4.763 5.494 5 5 5C4.506 5 4 4.765 4 3.019Z" fill="#01112C"/>
</g>
<defs>
<clipPath id="clip0_23_1637">
<rect width="18" height="18" fill="white"/>
</clipPath>
</defs>
</svg>
