<svg width="23" height="18" viewBox="0 0 23 18" fill="none" xmlns="http://www.w3.org/2000/svg">
<g clip-path="url(#clip0_1123_12819)">
<g clip-path="url(#clip1_1123_12819)">
<path opacity="0.25" d="M0 18V16.42H23V18H0ZM20.141 15.424C19.9726 15.3918 19.8028 15.3681 19.632 15.353C19.4466 15.3202 19.263 15.2778 19.082 15.226C18.94 15.1891 18.8001 15.1444 18.663 15.092L1.413 8.463L1.3 8.415L1.183 8.36L1.043 8.26C1.01434 8.23352 0.989438 8.20324 0.969 8.17L0.92 8.051C0.911472 8.02009 0.904793 7.9887 0.9 7.957C0.897312 7.93074 0.897312 7.90426 0.9 7.878L1.039 3.627C1.03542 3.59811 1.03542 3.56889 1.039 3.54C1.0498 3.51228 1.06355 3.48579 1.08 3.461L1.117 3.4H1.29L2.112 3.684L2.226 3.74L2.383 3.84L2.514 3.951L2.588 4.037L2.654 4.124L2.728 4.243L2.859 4.463L3.566 6.091L3.615 6.17L3.656 6.27L3.756 6.381L3.846 6.476L3.946 6.516L9.446 8.128H9.816L9.874 8.081V7.981C9.8758 7.96271 9.8758 7.94429 9.874 7.926V7.886L8.4 0.04L8.453 0H8.683L10.548 0.64L10.679 0.7L10.8 0.774L10.907 0.885L10.973 0.972L11.031 1.083L11.105 1.241L11.171 1.423V1.463L15.18 9.767C15.1773 9.79293 15.1773 9.81907 15.18 9.845C15.2013 9.86327 15.2177 9.88653 15.2279 9.91271C15.238 9.93888 15.2415 9.96715 15.238 9.995L15.278 10.095L15.327 10.189L15.377 10.268L15.426 10.331L15.509 10.394L15.609 10.442L19.8 12.2C19.9483 12.2533 20.0938 12.314 20.236 12.382C20.3989 12.4552 20.5578 12.537 20.712 12.627L21.024 12.817L21.311 13.017L21.623 13.262L21.862 13.483C21.937 13.5583 22.0081 13.6374 22.075 13.72C22.1379 13.7982 22.1957 13.8803 22.248 13.966C22.3035 14.0531 22.3501 14.1455 22.387 14.242C22.421 14.3313 22.4458 14.4237 22.461 14.518C22.4691 14.5784 22.4691 14.6396 22.461 14.7C22.4682 14.7444 22.4682 14.7896 22.461 14.834C22.4393 14.8885 22.4089 14.9392 22.371 14.984C22.3251 15.0357 22.2723 15.0808 22.214 15.118L22.034 15.218L21.82 15.304L21.557 15.375L21.257 15.431H20.557C20.4903 15.4343 20.4203 15.436 20.347 15.436C20.2737 15.436 20.205 15.432 20.141 15.424Z" fill="#01112C"/>
</g>
</g>
<defs>
<clipPath id="clip0_1123_12819">
<rect width="23" height="18" fill="white"/>
</clipPath>
<clipPath id="clip1_1123_12819">
<rect width="23" height="18" fill="white"/>
</clipPath>
</defs>
</svg>
