<svg width="18" height="19" viewBox="0 0 18 19" fill="none" xmlns="http://www.w3.org/2000/svg">
<path d="M15.1833 18.2683H2.50777C1.86013 18.2676 1.23921 18.01 0.781263 17.5521C0.323313 17.0941 0.0657302 16.4732 0.065033 15.8256L0.065033 3.15006C0.0657302 2.50242 0.323313 1.88151 0.781263 1.42356C1.23921 0.965606 1.86013 0.708024 2.50777 0.707326H15.2017C15.5242 0.705997 15.8436 0.769166 16.1413 0.893116C16.4389 1.01707 16.7088 1.1993 16.935 1.42908C17.159 1.65543 17.3356 1.92428 17.4542 2.21981C17.5729 2.51535 17.6313 2.83163 17.626 3.15006V15.8256C17.6253 16.4732 17.3677 17.0941 16.9098 17.5521C16.4518 18.01 15.8309 18.2676 15.1833 18.2683ZM5.57918 3.85338V15.1407H7.54074V10.9805H9.24328C9.71573 10.9879 10.1849 10.9013 10.6236 10.7256C11.0622 10.5499 11.4615 10.2888 11.7982 9.95728C12.135 9.6258 12.4024 9.23064 12.5849 8.79481C12.7674 8.35899 12.8614 7.8912 12.8614 7.41869C12.8614 6.94619 12.7674 6.4784 12.5849 6.04257C12.4024 5.60675 12.135 5.21159 11.7982 4.88011C11.4615 4.54863 11.0622 4.28745 10.6236 4.11178C10.1849 3.93612 9.71573 3.84947 9.24328 3.85689L5.57918 3.85338ZM9.31001 9.06986H7.59167V5.7245H9.31001C9.74425 5.73857 10.156 5.92096 10.4582 6.23312C10.7604 6.54527 10.9294 6.96271 10.9294 7.39718C10.9294 7.83165 10.7604 8.24909 10.4582 8.56125C10.156 8.8734 9.74425 9.05579 9.31001 9.06986Z" fill="#01112C"/>
</svg>
