<svg width="22" height="19" viewBox="0 0 22 19" fill="none" xmlns="http://www.w3.org/2000/svg">
<g clip-path="url(#clip0_1123_12815)">
<path opacity="0.25" d="M0 18.5V16.919H22V18.5H0ZM3.465 14.134L3.347 14.087L3.269 14.039L3.206 13.991L0.106 11.231L0.051 11.168C0.0291582 11.1338 0.0120053 11.0968 0 11.058V10.858L0.126 10.787L0.841 10.4L0.959 10.352L1.132 10.312H1.823L3.489 10.866H4L4.094 10.818L8.808 8.282L8.847 8.226V8.164C8.84974 8.14812 8.84974 8.13188 8.847 8.116C8.84791 8.10001 8.84791 8.08399 8.847 8.068C8.8488 8.04704 8.8488 8.02596 8.847 8.005C8.84969 7.98141 8.84969 7.95759 8.847 7.934V7.792L2.547 1.956V1.647L2.594 1.576H2.649L4.243 0.556L4.369 0.5H4.91L5.044 0.548L5.225 0.619L13.059 5.519H13.129L13.278 5.574H13.75L13.85 5.535L18.3 3.15C18.4322 3.07522 18.5688 3.00843 18.709 2.95C18.858 2.887 19.023 2.823 19.196 2.76L19.542 2.66L19.872 2.581L20.249 2.518H21.168C21.2673 2.53489 21.3648 2.56134 21.459 2.597C21.5493 2.6304 21.636 2.67261 21.718 2.723C21.7692 2.75436 21.8165 2.79161 21.859 2.834C21.891 2.86664 21.9176 2.9041 21.938 2.945C21.9649 2.99746 21.9835 3.05381 21.993 3.112C22.002 3.18004 22.002 3.24896 21.993 3.317C21.9857 3.38473 21.9723 3.45167 21.953 3.517C21.9348 3.58969 21.911 3.6609 21.882 3.73C21.882 3.817 21.812 3.888 21.772 3.976L21.631 4.229C21.5729 4.32175 21.5101 4.41153 21.443 4.498L21.214 4.735C21.1254 4.83552 21.0309 4.93069 20.931 5.02C20.805 5.138 20.695 5.233 20.554 5.344C20.4131 5.45716 20.2662 5.56264 20.114 5.66C19.995 5.73808 19.8719 5.80953 19.745 5.874L3.983 14.048L3.873 14.095L3.755 14.135L3.465 14.134Z" fill="#01112C"/>
</g>
<defs>
<clipPath id="clip0_1123_12815">
<rect width="22" height="18" fill="white" transform="translate(0 0.5)"/>
</clipPath>
</defs>
</svg>
