<?xml version="1.0" standalone="no"?>
<!DOCTYPE svg PUBLIC "-//W3C//DTD SVG 1.1//EN" "http://www.w3.org/Graphics/SVG/1.1/DTD/svg11.dtd" >
<svg xmlns="http://www.w3.org/2000/svg" xmlns:xlink="http://www.w3.org/1999/xlink" version="1.1">
<metadata>
Created by FontForge 20170731 at Sun Jun 24 11:28:36 2018
 By Aleksey,,,
Copyright (c) 2018 by Rajesh Rajput. All rights reserved.
</metadata>
<defs>
<font id="Morganite-SemiBold" horiz-adv-x="206" >
  <font-face 
    font-family="Morganite"
    font-weight="600"
    font-style="italic"
    font-stretch="normal"
    units-per-em="1000"
    panose-1="0 0 0 0 0 0 0 0 0 0"
    ascent="750"
    descent="-250"
    x-height="495"
    cap-height="699"
    bbox="-39 -183 593 855"
    underline-thickness="52"
    underline-position="-152"
    slope="-15"
    unicode-range="U+000D-FB02"
  />
<missing-glyph horiz-adv-x="114" 
 />
    <glyph glyph-name=".notdef" horiz-adv-x="114" 
 />
    <glyph glyph-name=".null" horiz-adv-x="0" 
 />
    <glyph glyph-name="nonmarkingreturn" unicode="&#xd;" horiz-adv-x="114" 
 />
    <glyph glyph-name="NULL" horiz-adv-x="0" 
 />
    <glyph glyph-name="NULL" horiz-adv-x="0" 
 />
    <glyph glyph-name="space" unicode=" " horiz-adv-x="114" 
 />
    <glyph glyph-name="exclam" unicode="!" horiz-adv-x="125" 
d="M87 124h-50l-9 307v268h68v-268zM97 0h-69v92h69v-92z" />
    <glyph glyph-name="quotedbl" unicode="&#x22;" horiz-adv-x="244" 
d="M103 607l-24 -61h-29l15 61h-31v92h69v-92zM216 607l-24 -61h-29l15 61h-31v92h69v-92z" />
    <glyph glyph-name="numbersign" unicode="#" horiz-adv-x="338" 
d="M293 212h-46l-18 -212h-61l18 212h-56l-18 -212h-61l18 212h-51l5 56h51l14 162h-50l5 55h50l19 214h61l-19 -214h55l19 214h61l-19 -214h50l-7 -55h-47l-14 -162h48zM135 268h56l14 162h-56z" />
    <glyph glyph-name="dollar" unicode="$" horiz-adv-x="228" 
d="M91 -4q-29 5 -52 27.5t-23 68.5v190h62v-180q0 -28 9 -39.5t22 -11.5h5q13 0 21.5 11.5t8.5 39.5v89q0 48 -20 83.5t-44 68.5t-44 69t-20 85v110q0 45 23 68t52 28v53h45v-53q28 -6 49 -28.5t21 -67.5v-189h-62v180q0 27 -8 38.5t-19 11.5h-6q-11 0 -19 -11t-8 -40v-89
q0 -48 20 -84t44 -69t44 -68.5t20 -84.5v-110q0 -47 -23 -70t-53 -27v-52h-45v53z" />
    <glyph glyph-name="percent" unicode="%" horiz-adv-x="436" 
d="M313 699l-242 -699h49l242 699h-49zM87 303q-29 0 -49 21t-20 59v242q0 38 20 59t49 21h14q29 0 49.5 -21t20.5 -59v-242q0 -38 -20.5 -59t-49.5 -21h-14zM92 663q-9 0 -16 -9.5t-7 -30.5v-239q0 -20 7 -29t16 -9h6q9 0 15.5 9t6.5 29v239q0 21 -6.5 30.5t-15.5 9.5h-6z
M334 -6q-29 0 -49 21t-20 59v245q0 38 20 59t49 21h14q29 0 49.5 -21t20.5 -59v-245q0 -38 -20.5 -59t-49.5 -21h-14zM339 356q-10 0 -17 -9.5t-7 -29.5v-242q0 -20 7 -29.5t17 -9.5h5q9 0 16 9.5t7 29.5v242q0 20 -7 29.5t-16 9.5h-5z" />
    <glyph glyph-name="ampersand" unicode="&#x26;" horiz-adv-x="228" 
d="M140 384v-49h-23q-16 0 -24.5 -15t-8.5 -42v-177q0 -28 8 -39.5t19 -11.5h6q11 0 19 11.5t8 39.5v181h68v-191q0 -47 -23.5 -69.5t-52.5 -26.5v-52h-45v53q-29 4 -52 26.5t-23 68.5v185q0 42 19 60.5t45 23.5q-26 6 -45 26.5t-19 62.5v158q0 46 23 68.5t52 27.5v53h45
v-52q29 -5 52.5 -27.5t23.5 -69.5v-191h-68v182q0 27 -8 38.5t-19 11.5h-6q-11 0 -19 -11t-8 -40v-156q0 -57 33 -57h23z" />
    <glyph glyph-name="quotesingle" unicode="'" horiz-adv-x="131" 
d="M103 607l-24 -61h-29l15 61h-31v92h69v-92z" />
    <glyph glyph-name="parenleft" unicode="(" horiz-adv-x="212" 
d="M118 -36q-21 0 -39.5 6t-32.5 20t-22 37.5t-8 58.5v527q0 35 8 58.5t22 37.5t32.5 20t39.5 6h50v-57h-27q-34 0 -45.5 -24t-11.5 -75v-459q0 -51 11.5 -75t45.5 -24h27v-57h-50z" />
    <glyph glyph-name="parenright" unicode=")" horiz-adv-x="212" 
d="M44 -36v57h27q34 0 45.5 24t11.5 75v459q0 51 -11.5 75t-45.5 24h-27v57h50q21 0 39.5 -6t32.5 -20t22 -37.5t8 -58.5v-527q0 -35 -8 -58.5t-22 -37.5t-32.5 -20t-39.5 -6h-50z" />
    <glyph glyph-name="asterisk" unicode="*" horiz-adv-x="196" 
d="M67 538l-29 20l34 49l-56 17l12 34l54 -20l-2 61h36l-2 -61l54 20l12 -34l-56 -17l34 -49l-28 -20l-32 52z" />
    <glyph glyph-name="plus" unicode="+" horiz-adv-x="290" 
d="M119 373v125h52v-125h101v-46h-101v-125h-52v125h-101v46h101z" />
    <glyph glyph-name="comma" unicode="," horiz-adv-x="112" 
d="M90 0l-24 -60h-29l15 60h-31v92h69v-92z" />
    <glyph glyph-name="hyphen" unicode="-" horiz-adv-x="244" 
d="M226 373v-46h-208v46h208z" />
    <glyph glyph-name="period" unicode="." horiz-adv-x="125" 
d="M97 0h-69v92h69v-92z" />
    <glyph glyph-name="slash" unicode="/" horiz-adv-x="218" 
d="M159 699h56l-155 -699h-57z" />
    <glyph glyph-name="zero" unicode="0" horiz-adv-x="228" 
d="M106 -6q-17 0 -33 5.5t-28.5 17.5t-20.5 30.5t-8 44.5v515q0 26 8 44.5t20.5 30.5t28.5 17.5t33 5.5h16q16 0 32.5 -5.5t29 -17.5t20.5 -30.5t8 -44.5v-515q0 -26 -8 -44.5t-20.5 -30.5t-29 -17.5t-32.5 -5.5h-16zM111 648q-11 0 -19 -12t-8 -39v-495q0 -28 8 -39.5
t19 -11.5h6q11 0 19 11.5t8 39.5v495q0 27 -8 39t-19 12h-6z" />
    <glyph glyph-name="one" unicode="1" horiz-adv-x="166" 
d="M72 0v597q-12 -3 -30 -7t-32 -4v53q12 0 24.5 4.5t23 13t17.5 19.5t9 23h56v-699h-68z" />
    <glyph glyph-name="two" unicode="2" horiz-adv-x="228" 
d="M16 418v189q0 26 8 44.5t20.5 30.5t28.5 17.5t32 5.5h11q16 0 32.5 -5.5t29 -17.5t20.5 -30.5t8 -44.5v-110q0 -33 -9 -61t-22.5 -56.5t-29.5 -59.5t-29.5 -69t-22.5 -85.5t-9 -108.5h128v-57h-196v57q0 67 9 118t22.5 90.5t29.5 70t29.5 58t22.5 55t9 59.5v89
q0 29 -8 40t-19 11h-6q-11 0 -19 -11.5t-8 -38.5v-180h-62z" />
    <glyph glyph-name="three" unicode="3" horiz-adv-x="228" 
d="M111 384q33 0 33 57v156q0 29 -8 40t-19 11h-6q-11 0 -19 -11.5t-8 -38.5v-182h-68v191q0 26 8 44.5t20.5 30.5t28.5 17.5t33 5.5h16q16 0 32.5 -5.5t29 -17.5t20.5 -30.5t8 -44.5v-158q0 -42 -19 -62.5t-45 -26.5q25 -5 44.5 -24t19.5 -60v-185q0 -26 -8 -44.5
t-20.5 -30t-29 -17t-32.5 -5.5h-16q-17 0 -33 5.5t-28.5 17t-20.5 30t-8 44.5v191h68v-181q0 -28 8 -39.5t19 -11.5h6q11 0 19 11.5t8 39.5v177q0 27 -8.5 42t-24.5 15h-23v49h23z" />
    <glyph glyph-name="four" unicode="4" horiz-adv-x="256" 
d="M238 160v-57h-35v-103h-58v103h-135v57l114 539h79v-539h35zM145 507h-2l-68 -346v-1h70v347z" />
    <glyph glyph-name="five" unicode="5" horiz-adv-x="228" 
d="M106 -6q-17 0 -33 5.5t-28.5 17.5t-20.5 30.5t-8 44.5v196h68v-186q0 -28 8 -39.5t19 -11.5h6q11 0 19 11.5t8 39.5v232q0 29 -8 40t-19 11h-6q-11 0 -19 -11.5t-8 -38.5v-7h-14v1h-54v370h194l-6 -57h-120v-236q10 19 25 27.5t30 8.5h7q24 0 45 -23t21 -75v-252
q0 -26 -8 -44.5t-20.5 -30.5t-29 -17.5t-32.5 -5.5h-16z" />
    <glyph glyph-name="six" unicode="6" horiz-adv-x="228" 
d="M106 -6q-17 0 -33 5.5t-28.5 17.5t-20.5 30.5t-8 44.5v515q0 26 8 44.5t20.5 30.5t28.5 17.5t33 5.5h12q16 0 32.5 -5.5t29 -17.5t20.5 -30.5t8 -44.5v-131h-64v122q0 27 -8 38.5t-19 11.5h-6q-11 0 -19 -11t-8 -40v-191q10 19 25 27.5t30 8.5h7q24 0 45 -23t21 -75v-252
q0 -26 -8 -44.5t-20.5 -30.5t-29 -17.5t-32.5 -5.5h-16zM84 102q0 -28 8 -39.5t19 -11.5h6q11 0 19 11.5t8 39.5v232q0 29 -8 40t-19 11h-6q-11 0 -18.5 -10t-8.5 -33v-240z" />
    <glyph glyph-name="seven" unicode="7" horiz-adv-x="197" 
d="M10 0l101 648h-103v51h171v-51l-100 -648h-69z" />
    <glyph glyph-name="eight" unicode="8" horiz-adv-x="228" 
d="M106 -6q-17 0 -33 5.5t-28.5 17.5t-20.5 30.5t-8 44.5v181q0 33 12.5 54t31.5 32q-19 11 -31.5 32t-12.5 55v161q0 26 8 44.5t20.5 30.5t28.5 17.5t33 5.5h16q16 0 32.5 -5.5t29 -17.5t20.5 -30.5t8 -44.5v-161q0 -34 -12.5 -55t-31.5 -32q19 -11 31.5 -32t12.5 -54v-181
q0 -26 -8 -44.5t-20.5 -30.5t-29 -17.5t-32.5 -5.5h-16zM111 338q-11 0 -19 -12t-8 -39v-185q0 -28 8 -39.5t19 -11.5h6q11 0 19 11.5t8 39.5v185q0 27 -8 39t-19 12h-6zM111 648q-11 0 -19 -12t-8 -39v-165q0 -28 8 -39.5t19 -11.5h6q11 0 19 11.5t8 39.5v165q0 27 -8 39
t-19 12h-6z" />
    <glyph glyph-name="nine" unicode="9" horiz-adv-x="228" 
d="M122 705q16 0 32.5 -5.5t29 -17.5t20.5 -30.5t8 -44.5v-515q0 -26 -8 -44.5t-20.5 -30.5t-29 -17.5t-32.5 -5.5h-12q-17 0 -33 5.5t-28.5 17.5t-20.5 30.5t-8 44.5v190h64v-181q0 -27 8 -38.5t20 -11.5h5q11 0 19 11t8 40v249q-11 -18 -26 -26.5t-29 -8.5h-7
q-24 0 -45 23t-21 75v193q0 26 8 44.5t20.5 30.5t28.5 17.5t33 5.5h16zM144 597q0 28 -8 39.5t-19 11.5h-6q-11 0 -19 -11.5t-8 -39.5v-173q0 -29 8 -40t19 -11h6q11 0 19 11.5t8 38.5v174z" />
    <glyph glyph-name="colon" unicode=":" horiz-adv-x="125" 
d="M97 323h-69v92h69v-92zM97 0h-69v92h69v-92z" />
    <glyph glyph-name="semicolon" unicode=";" horiz-adv-x="132" 
d="M103 323h-69v92h69v-92zM104 0l-24 -60h-29l15 60h-31v92h69v-92z" />
    <glyph glyph-name="less" unicode="&#x3c;" horiz-adv-x="241" 
d="M223 5l-3 -1l-202 226v32l202 228l2 -2v-69l-1 -3l-145 -167v-4l145 -165l1 -3z" />
    <glyph glyph-name="equal" unicode="=" horiz-adv-x="300" 
d="M282 429v-46h-264v46h264zM282 320v-46h-264v46h264z" />
    <glyph glyph-name="greater" unicode="&#x3e;" horiz-adv-x="241" 
d="M19 77l1 2l144 166v3l-144 168l-1 2v70l2 2l202 -228v-33l-203 -225l-2 1z" />
    <glyph glyph-name="question" unicode="?" horiz-adv-x="222" 
d="M16 418v189q0 26 8 44.5t20.5 30.5t28.5 17.5t32 5.5h11q16 0 32.5 -5.5t29 -17.5t20.5 -30.5t8 -44.5v-110q0 -34 -8 -61t-19 -52t-23 -50t-21 -55t-12 -68t5 -87h-67q-8 55 -5 96t11.5 72.5t20.5 56.5t23 49.5t19 50.5t8 59v89q0 29 -8 40t-19 11h-6q-11 0 -19 -11.5
t-8 -38.5v-180h-62zM130 0h-69v92h69v-92z" />
    <glyph glyph-name="at" unicode="@" horiz-adv-x="397" 
d="M182 -6q-45 0 -76.5 13.5t-51.5 35.5t-29 48.5t-9 52.5v301q0 26 9 52.5t29 48.5t51.5 35.5t76.5 13.5h33q45 0 76.5 -13.5t51.5 -35.5t29 -48.5t9 -52.5v-291q0 -25 -19.5 -38.5t-45 -16.5t-49.5 5t-34 28q-13 -15 -27.5 -24.5t-29.5 -9.5h-2q-35 0 -48 24.5t-13 67.5
v207q0 43 14 67.5t48 24.5h4q13 0 26 -7.5t24 -20.5l11 28h44v-308q0 -14 5.5 -20t12 -6t12 6.5t5.5 19.5v261q0 13 -3.5 31t-14 33.5t-31 26.5t-54.5 11h-35q-34 0 -54.5 -11t-31 -26.5t-14 -33.5t-3.5 -32v-293q0 -14 3.5 -32t14 -33.5t31 -26.5t54.5 -11h35
q36 0 55.5 11.5t27.5 22.5l46 -34q-16 -18 -46 -34.5t-84 -16.5h-33zM201 151q10 0 18.5 12t8.5 33v201q-2 19 -10 29t-17 10h-2q-10 0 -16.5 -9.5t-6.5 -31.5v-203q0 -21 6.5 -31t16.5 -10h2z" />
    <glyph glyph-name="A" unicode="A" horiz-adv-x="223" 
d="M139 189h-61l-17 -189h-58l64 699h86l68 -699h-65zM82 240h52l-24 271h-3z" />
    <glyph glyph-name="B" unicode="B" horiz-adv-x="228" 
d="M214 427q0 -32 -10 -47.5t-25 -20.5q15 -4 25 -19.5t10 -47.5v-199q0 -24 -8 -42t-20.5 -29t-29 -16.5t-32.5 -5.5h-106v699h106q16 0 32.5 -5.5t29 -17.5t20.5 -30.5t8 -44.5v-174zM146 287q0 47 -24 47h-36v-277h32q12 0 20 11t8 35v184zM123 384q23 0 23 47v160
q0 27 -8 39t-19 12h-33v-258h37z" />
    <glyph glyph-name="C" unicode="C" horiz-adv-x="228" 
d="M106 -6q-17 0 -33 5.5t-28.5 17.5t-20.5 30.5t-8 44.5v515q0 26 8 44.5t20.5 30.5t28.5 17.5t33 5.5h16q16 0 32.5 -5.5t29 -17.5t20.5 -30.5t8 -44.5v-190h-68v181q0 27 -8 38.5t-19 11.5h-6q-11 0 -19 -11t-8 -40v-495q0 -28 8 -39.5t19 -11.5h6q11 0 19 11.5t8 39.5
v181h68v-191q0 -26 -8 -44.5t-20.5 -30.5t-29 -17.5t-32.5 -5.5h-16z" />
    <glyph glyph-name="D" unicode="D" horiz-adv-x="230" 
d="M18 0v699h106q16 0 32.5 -5t29 -16.5t20.5 -29.5t8 -44v-509q0 -26 -8 -44t-20.5 -29.5t-29 -16.5t-32.5 -5h-106zM86 642v-585h33q11 0 19 10.5t8 37.5v489q0 27 -8 37.5t-19 10.5h-33z" />
    <glyph glyph-name="E" unicode="E" horiz-adv-x="189" 
d="M86 642v-267h69v-51h-69v-267h94v-57h-162v699h157v-57h-89z" />
    <glyph glyph-name="F" unicode="F" horiz-adv-x="184" 
d="M86 642v-267h69v-51h-69v-324h-68v699h157v-57h-89z" />
    <glyph glyph-name="G" unicode="G" horiz-adv-x="228" 
d="M106 -6q-17 0 -33 5.5t-28.5 17.5t-20.5 30.5t-8 44.5v515q0 26 8 44.5t20.5 30.5t28.5 17.5t33 5.5h16q16 0 32.5 -5.5t29 -17.5t20.5 -30.5t8 -44.5v-190h-68v181q0 27 -8 38.5t-19 11.5h-6q-11 0 -19 -11t-8 -40v-495q0 -28 8 -39.5t19 -11.5h6q11 0 19 11.5t8 39.5
v124h-30v57h98v-283h-33l-8 23q-14 -14 -30 -21.5t-29 -7.5h-6z" />
    <glyph glyph-name="H" unicode="H" horiz-adv-x="228" 
d="M210 699v-699h-67v324h-57v-324h-68v699h68v-325h57v325h67z" />
    <glyph glyph-name="I" unicode="I" horiz-adv-x="104" 
d="M86 699v-699h-68v699h68z" />
    <glyph glyph-name="J" unicode="J" horiz-adv-x="228" 
d="M106 -6q-16 0 -32 5.5t-29 17.5t-21 30.5t-8 44.5v189h68v-179q0 -28 8 -39.5t19 -11.5h6q11 0 19 11.5t8 39.5v597h68v-607q0 -26 -7.5 -44.5t-20.5 -30.5t-29 -17.5t-33 -5.5h-16z" />
    <glyph glyph-name="K" unicode="K" horiz-adv-x="227" 
d="M134 362l89 -362h-62l-74 272h-1v-272h-68v699h68v-273h1l76 273h62z" />
    <glyph glyph-name="L" unicode="L" horiz-adv-x="173" 
d="M86 699v-648h84v-51h-152v699h68z" />
    <glyph glyph-name="M" unicode="M" horiz-adv-x="309" 
d="M291 699v-699h-56v492h-1l-55 -492h-50l-55 492h-1v-492h-57v699h88l49 -442h1l50 442h87z" />
    <glyph glyph-name="N" unicode="N" horiz-adv-x="257" 
d="M165 0l-91 491h-1v-491h-57v699h77l86 -484v484h62v-699h-76z" />
    <glyph glyph-name="O" unicode="O" horiz-adv-x="228" 
d="M106 -6q-17 0 -33 5.5t-28.5 17.5t-20.5 30.5t-8 44.5v515q0 26 8 44.5t20.5 30.5t28.5 17.5t33 5.5h16q16 0 32.5 -5.5t29 -17.5t20.5 -30.5t8 -44.5v-515q0 -26 -8 -44.5t-20.5 -30.5t-29 -17.5t-32.5 -5.5h-16zM111 648q-11 0 -19 -12t-8 -39v-495q0 -28 8 -39.5
t19 -11.5h6q11 0 19 11.5t8 39.5v495q0 27 -8 39t-19 12h-6z" />
    <glyph glyph-name="P" unicode="P" horiz-adv-x="230" 
d="M125 699q36 0 62.5 -24.5t26.5 -72.5v-229q0 -45 -24.5 -63.5t-60.5 -18.5h-43v-291h-68v699h107zM146 592q0 26 -8 38t-20 12h-32v-295h36q24 0 24 47v198z" />
    <glyph glyph-name="Q" unicode="Q" horiz-adv-x="230" 
d="M106 -6q-17 0 -33 5.5t-28.5 17.5t-20.5 30.5t-8 44.5v515q0 26 8 44.5t20.5 30.5t28.5 17.5t33 5.5h16q16 0 32.5 -5.5t29 -17.5t20.5 -30.5t8 -44.5v-515q0 -27 -8.5 -46t-22.5 -31l29 -28l-34 -34l-42 42q-3 0 -6 -0.5t-6 -0.5h-16zM111 648q-11 0 -19 -12t-8 -39
v-495q0 -28 8 -39.5t19 -11.5h6q11 0 19 11.5t8 39.5v495q0 27 -8 39t-19 12h-6z" />
    <glyph glyph-name="R" unicode="R" horiz-adv-x="236" 
d="M214 417q0 -32 -10 -47.5t-25 -20.5q15 -4 25 -19.5t10 -47.5v-163q0 -63 4 -88.5t7 -30.5h-68q-7 12 -9 40t-2 79v157q0 48 -24 48h-36v-324h-68v699h107q36 0 62.5 -24.5t26.5 -72.5v-185zM122 374q24 0 24 47v171q0 26 -8 38t-20 12h-32v-268h36z" />
    <glyph glyph-name="S" unicode="S" horiz-adv-x="228" 
d="M144 418v180q0 27 -8 38.5t-19 11.5h-6q-11 0 -19 -11t-8 -40v-89q0 -48 20 -84t44 -69t44 -68.5t20 -84.5v-110q0 -26 -7.5 -44.5t-20.5 -30.5t-29 -17.5t-33 -5.5h-14q-17 0 -33 5.5t-29.5 17.5t-21.5 30.5t-8 44.5v190h62v-180q0 -28 9 -39.5t22 -11.5h5
q13 0 21.5 11.5t8.5 39.5v89q0 48 -20 83.5t-44 68.5t-44 69t-20 85v110q0 26 8 44.5t21 30.5t29 17.5t33 5.5h10q16 0 32 -5.5t29 -17.5t20.5 -30.5t7.5 -44.5v-189h-62z" />
    <glyph glyph-name="T" unicode="T" horiz-adv-x="207" 
d="M204 642h-67v-642h-67v642h-67v57h201v-57z" />
    <glyph glyph-name="U" unicode="U" horiz-adv-x="230" 
d="M108 -6q-17 0 -33 5.5t-28.5 17.5t-20.5 30.5t-8 44.5v607h68v-597q0 -28 8 -39.5t19 -11.5h6q11 0 19 11.5t8 39.5v597h68v-607q0 -26 -8 -44.5t-20.5 -30.5t-29 -17.5t-32.5 -5.5h-16z" />
    <glyph glyph-name="V" unicode="V" horiz-adv-x="223" 
d="M162 699h59l-65 -699h-86l-67 699h65l46 -511h2z" />
    <glyph glyph-name="W" unicode="W" horiz-adv-x="343" 
d="M55 0l-52 699h65l32 -466h2l43 466h54l47 -466h2l33 466h59l-52 -699h-67l-48 433h-1l-42 -433h-75z" />
    <glyph glyph-name="X" unicode="X" horiz-adv-x="224" 
d="M147 355l74 -355h-69l-44 218l-40 -218h-65l73 375l-73 324h67l42 -186l39 186h68z" />
    <glyph glyph-name="Y" unicode="Y" horiz-adv-x="224" 
d="M146 262v-262h-68v262l-75 437h67l41 -283h2l41 283h67z" />
    <glyph glyph-name="Z" unicode="Z" horiz-adv-x="218" 
d="M209 0h-200v49l122 599h-104v51h172v-49l-122 -599h132v-51z" />
    <glyph glyph-name="bracketleft" unicode="[" horiz-adv-x="189" 
d="M16 -56v811h129v-57h-61v-697h61v-57h-129z" />
    <glyph glyph-name="backslash" unicode="\" horiz-adv-x="218" 
d="M215 0h-56l-156 699h57z" />
    <glyph glyph-name="bracketright" unicode="]" horiz-adv-x="189" 
d="M44 -56v57h60v697h-60v57h128v-811h-128z" />
    <glyph glyph-name="asciicircum" unicode="^" horiz-adv-x="264" 
d="M185 414l-2 1l-49 180h-4l-48 -180l-3 -1h-59l-2 2l77 283h74l77 -283l-1 -2h-60z" />
    <glyph glyph-name="underscore" unicode="_" horiz-adv-x="321" 
d="M303 0h-285v46h285v-46z" />
    <glyph glyph-name="grave" unicode="`" horiz-adv-x="156" 
d="M86 589l-58 86h60l40 -86h-42z" />
    <glyph glyph-name="a" unicode="a" 
d="M72 -3q-35 0 -46 24.5t-11 67.5v96q0 43 13.5 67.5t47.5 24.5h3q12 0 25 -6t26 -15v148q0 21 -7 31t-17 10h-5q-10 0 -16.5 -10t-6.5 -31v-113h-63v115q0 44 23.5 68t57.5 24h16q35 0 58 -24t23 -69v-405h-63v19q-14 -10 -28 -16t-27 -6h-3zM101 230q-10 0 -16.5 -10
t-6.5 -31v-104q0 -22 6.5 -31.5t16.5 -9.5h2q11 0 19 9.5t8 31.5v122q0 13 -7.5 18t-14.5 5h-7z" />
    <glyph glyph-name="b" unicode="b" horiz-adv-x="207" 
d="M128 -3q-14 0 -28.5 8.5t-26.5 22.5l-6 -28h-51v699h63v-229q11 13 24.5 20.5t26.5 7.5h3q34 0 47.5 -24.5t13.5 -67.5v-317q0 -43 -14.5 -67.5t-48.5 -24.5h-3zM105 445q-10 0 -17.5 -10.5t-8.5 -28.5v-318q1 -19 9 -28.5t17 -9.5h3q9 0 16 9.5t7 31.5v313q0 21 -7 31
t-17 10h-2z" />
    <glyph glyph-name="c" unicode="c" 
d="M130 291v113q0 21 -6.5 31t-16.5 10h-5q-10 0 -17 -10t-7 -31v-313q0 -22 7 -31.5t15 -9.5h7q10 0 16.5 9.5t6.5 31.5v115h63v-116q0 -45 -23.5 -69t-57.5 -24h-18q-32 0 -55.5 24.5t-23.5 68.5v315q0 45 23 69t58 24h16q34 0 57.5 -24t23.5 -68v-115h-63z" />
    <glyph glyph-name="d" unicode="d" horiz-adv-x="209" 
d="M78 -3q-35 0 -49 24.5t-14 67.5v317q0 43 13.5 67.5t47.5 24.5h3q13 0 26 -7.5t25 -20.5v229h63v-699h-51l-7 28q-12 -14 -26 -22.5t-28 -8.5h-3zM102 445q-10 0 -17 -10t-7 -31v-313q0 -22 6.5 -31.5t16.5 -9.5h2q10 0 17.5 9.5t9.5 28.5v318q-2 18 -9.5 28.5
t-16.5 10.5h-2z" />
    <glyph glyph-name="e" unicode="e" 
d="M100 50h7q10 0 16.5 9.5t6.5 31.5v115h63v-116q0 -45 -23.5 -69t-57.5 -24h-18q-32 0 -55.5 24.5t-23.5 68.5v315q0 45 23 69t58 24h16q34 0 57.5 -24t23.5 -68v-173h-115v-142q0 -22 7 -31.5t15 -9.5zM130 277v127q0 21 -6.5 31t-16.5 10h-5q-10 0 -17 -10t-7 -31v-127
h52z" />
    <glyph glyph-name="f" unicode="f" horiz-adv-x="166" 
d="M40 0v442h-25v53h25v119q0 21 7.5 40t23 32t38.5 17.5t55 -2.5v-50q-9 1 -20 0t-20.5 -6t-15.5 -14t-6 -22v-114h62v-53h-62v-442h-62z" />
    <glyph glyph-name="g" unicode="g" horiz-adv-x="208" 
d="M193 495v-567q0 -44 -23.5 -68.5t-55.5 -24.5h-18q-34 0 -57.5 24t-23.5 69v43h63v-42q0 -22 6.5 -31.5t16.5 -9.5h7q8 0 15 9.5t7 31.5v94q-13 -12 -26 -19t-25 -7h-3q-34 0 -47.5 24.5t-13.5 67.5v317q0 43 14 67.5t49 24.5h3q25 0 51 -26l10 23h51zM103 50
q10 0 17.5 10t9.5 29v311q0 22 -8 33.5t-19 11.5h-2q-10 0 -16.5 -9.5t-6.5 -31.5v-313q0 -21 6.5 -31t16.5 -10h2z" />
    <glyph glyph-name="h" unicode="h" horiz-adv-x="211" 
d="M109 445q-11 0 -19.5 -12.5t-8.5 -33.5v-399h-63v699h63v-230q12 13 25 21t27 8h3q34 0 47.5 -24.5t13.5 -67.5v-406h-63v404q0 22 -6.5 31.5t-16.5 9.5h-2z" />
    <glyph glyph-name="i" unicode="i" horiz-adv-x="96" 
d="M81 495v-495h-63v495h63zM81 620v-86h-63v86h63z" />
    <glyph glyph-name="j" unicode="j" horiz-adv-x="135" 
d="M119 621v-88h-62v88h62zM119 495v-568q0 -43 -23.5 -67.5t-79.5 -24.5v53q19 0 30 9.5t11 29.5v568h62z" />
    <glyph glyph-name="k" unicode="k" horiz-adv-x="208" 
d="M119 258l87 -258h-64l-62 186v-186h-62v699h62v-377l65 173h60z" />
    <glyph glyph-name="l" unicode="l" horiz-adv-x="95" 
d="M18 699h63v-699h-63v699z" />
    <glyph glyph-name="m" unicode="m" horiz-adv-x="325" 
d="M107 445q-10 0 -19 -12.5t-9 -33.5v-399h-63v495h63v-26q12 13 25.5 21t27.5 8h2q40 0 53 -37q14 17 29.5 27t31.5 10h2q35 0 48 -24.5t13 -67.5v-406h-63v404q0 22 -6.5 31.5t-16.5 9.5h-2q-9 0 -17.5 -10.5t-10.5 -28.5v-406h-63v404q0 22 -6.5 31.5t-16.5 9.5h-2z" />
    <glyph glyph-name="n" unicode="n" horiz-adv-x="209" 
d="M107 445q-10 0 -19 -12.5t-9 -33.5v-399h-63v495h63v-26q12 13 25.5 21t27.5 8h2q35 0 48 -24.5t13 -67.5v-406h-63v404q0 22 -6.5 31.5t-16.5 9.5h-2z" />
    <glyph glyph-name="o" unicode="o" 
d="M96 -3q-35 0 -58 24.5t-23 67.5v317q1 43 23.5 67.5t57.5 24.5h16q34 0 57.5 -24.5t23.5 -67.5v-317q0 -43 -23.5 -67.5t-57.5 -24.5h-16zM102 445q-10 0 -17 -10t-7 -31v-313q0 -22 7 -31.5t17 -9.5h5q10 0 16.5 9.5t6.5 31.5v313q0 21 -6.5 31t-16.5 10h-5z" />
    <glyph glyph-name="p" unicode="p" horiz-adv-x="209" 
d="M133 498q34 0 48.5 -24.5t14.5 -67.5v-317q0 -43 -13.5 -67.5t-47.5 -24.5h-3q-13 0 -26.5 7.5t-24.5 19.5v-189h-63v660h51l6 -29q12 14 26.5 23t28.5 9h3zM110 50q9 0 16 10t7 31v313q0 22 -7 31.5t-16 9.5h-3q-9 0 -17 -10t-9 -29v-311q0 -21 8 -33t18 -12h3z" />
    <glyph glyph-name="q" unicode="q" horiz-adv-x="209" 
d="M81 498q14 0 28 -9t26 -23l7 29h51v-660h-63v190q-12 -13 -25 -20.5t-26 -7.5h-3q-34 0 -47.5 24.5t-13.5 67.5v317q0 43 14 67.5t49 24.5h3zM103 50q10 0 17.5 10t9.5 29v317q-2 19 -9.5 29t-17.5 10h-2q-10 0 -16.5 -9.5t-6.5 -31.5v-313q0 -21 6.5 -31t16.5 -10h2z
" />
    <glyph glyph-name="r" unicode="r" horiz-adv-x="208" 
d="M107 445q-10 0 -19 -12.5t-9 -33.5v-399h-63v495h63v-26q12 13 25.5 21t27.5 8h2q37 0 51 -31q10 -21 10 -61v-115h-63v113q0 22 -6.5 31.5t-16.5 9.5h-2z" />
    <glyph glyph-name="s" unicode="s" 
d="M130 300v104q0 20 -7 30.5t-17 10.5h-4q-10 0 -17 -10.5t-7 -30.5v-51q0 -32 18 -54.5t39 -44t39 -46.5t18 -62v-57q0 -43 -23 -67.5t-57 -24.5h-15q-35 0 -58.5 24.5t-23.5 67.5v106h57v-104q0 -20 7.5 -30.5t19.5 -10.5h5q11 0 18.5 10.5t7.5 30.5v51q0 31 -18 53
t-39.5 43.5t-39.5 47t-18 63.5v57q0 43 23 67.5t58 24.5h9q35 0 58 -24.5t23 -67.5v-106h-56z" />
    <glyph glyph-name="t" unicode="t" horiz-adv-x="145" 
d="M95 657v-162h41v-53h-41v-353q0 -22 11 -33t30 -7v-50q-28 -4 -47.5 1.5t-32 18t-18.5 31t-6 39.5v353h-24v53h24v156z" />
    <glyph glyph-name="u" unicode="u" horiz-adv-x="208" 
d="M102 50q10 0 18 10.5t10 29.5v405h63v-495h-63v25q-12 -13 -25.5 -20.5t-26.5 -7.5h-3q-35 0 -48 24.5t-13 67.5v406h63v-404q0 -22 6.5 -31.5t16.5 -9.5h2z" />
    <glyph glyph-name="v" unicode="v" horiz-adv-x="187" 
d="M132 495h53l-52 -495h-77l-54 495h58l35 -362h2z" />
    <glyph glyph-name="w" unicode="w" horiz-adv-x="321" 
d="M52 0l-50 495h59l31 -330h1l42 330h55l43 -330h1l32 330h53l-51 -495h-69l-41 358h-2l-35 -358h-69z" />
    <glyph glyph-name="x" unicode="x" horiz-adv-x="209" 
d="M132 257l75 -257h-63l-42 160l-43 -160h-57l70 250l-69 245h62l39 -146l39 146h57z" />
    <glyph glyph-name="y" unicode="y" horiz-adv-x="187" 
d="M134 495h51l-67 -660h-62l19 165l-73 495h57l37 -320h3z" />
    <glyph glyph-name="z" unicode="z" horiz-adv-x="181" 
d="M177 0h-175v51l113 393h-102v51h163v-50l-112 -394h113v-51z" />
    <glyph glyph-name="braceleft" unicode="{" horiz-adv-x="224" 
d="M21 384q25 0 35 17.5t10 45.5v210q0 28 7.5 48.5t20 34t28.5 19.5t34 6h28v-57h-5q-27 0 -36 -18.5t-9 -44.5v-196q0 -25 -7 -42t-19 -28t-27 -16t-31 -6q16 -1 31 -6t27 -16t19 -28.5t7 -41.5v-196q0 -26 9 -44.5t36 -18.5h5v-57h-28q-18 0 -34 6t-28.5 19.5t-20 33.5
t-7.5 49v210q0 28 -10 45.5t-35 17.5h-11v54h11z" />
    <glyph glyph-name="bar" unicode="|" horiz-adv-x="111" 
d="M24 729h63v-759h-63v759z" />
    <glyph glyph-name="braceright" unicode="}" horiz-adv-x="224" 
d="M214 384v-54h-11q-25 0 -35 -17.5t-10 -45.5v-210q0 -29 -7.5 -49t-20 -33.5t-28.5 -19.5t-34 -6h-28v57h5q28 0 36.5 18.5t8.5 44.5v196q0 24 7 41.5t18.5 28.5t26.5 16t31 6q-16 1 -31 6t-26.5 16t-18.5 28t-7 42v196q0 26 -8.5 44.5t-36.5 18.5h-5v57h28q18 0 34 -6
t28.5 -19.5t20 -34t7.5 -48.5v-210q0 -28 10 -45.5t35 -17.5h11z" />
    <glyph glyph-name="asciitilde" unicode="~" horiz-adv-x="295" 
d="M18 234q17 29 33.5 42t37.5 13q13 0 25.5 -5.5t24.5 -11.5t24 -11.5t26 -5.5q13 0 22.5 7t23.5 25l42 -32q-16 -32 -33 -44t-42 -12q-14 0 -27 5.5t-25 11.5t-24 11.5t-22 5.5q-14 0 -24 -6.5t-24 -24.5z" />
    <glyph glyph-name="uni00A0" unicode="&#xa0;" horiz-adv-x="0" 
 />
    <glyph glyph-name="exclamdown" unicode="&#xa1;" horiz-adv-x="125" 
d="M97 607h-69v92h69v-92zM96 268v-268h-68v268l9 307h50z" />
    <glyph glyph-name="cent" unicode="&#xa2;" 
d="M130 291v113q0 21 -6.5 31t-16.5 10h-5q-10 0 -17 -10t-7 -31v-313q0 -22 7 -31.5t15 -9.5h7q10 0 16.5 9.5t6.5 31.5v115h63v-116q0 -39 -18.5 -62.5t-46.5 -28.5v-59h-45v58q-29 4 -48.5 28t-19.5 64v315q0 40 19 63.5t49 28.5v58h45v-59q28 -5 46.5 -28.5t18.5 -61.5
v-115h-63z" />
    <glyph glyph-name="sterling" unicode="&#xa3;" horiz-adv-x="277" 
d="M16 307h49v300q0 26 8 44.5t20.5 30.5t28.5 17.5t33 5.5h16q16 0 32.5 -5.5t29 -17.5t20.5 -30.5t8 -44.5v-190h-68v181q0 27 -8 38.5t-19 11.5h-6q-11 0 -19 -11t-8 -40v-290h128v-58h-128v-81q0 -47 -5 -73t-12 -37h145v-58h-214v58h2q8 11 12 35t4 74v82h-49v58z" />
    <glyph glyph-name="currency" unicode="&#xa4;" horiz-adv-x="351" 
d="M260 233q-38 -27 -84 -27q-47 0 -86 28l-40 -40l-34 35l40 39q-27 38 -27 86q0 47 28 84l-40 40l34 34l40 -40q18 13 40 20.5t45 7.5t44.5 -7.5t39.5 -20.5l40 41l35 -34l-41 -41q13 -18 20.5 -39.5t7.5 -44.5q0 -24 -7.5 -46t-20.5 -40l41 -40l-34 -34zM80 354
q0 -42 27.5 -69.5t68.5 -27.5t68 27.5t27 69.5q0 40 -27 67t-68 27t-68.5 -27t-27.5 -67z" />
    <glyph glyph-name="yen" unicode="&#xa5;" horiz-adv-x="226" 
d="M79 192v45h-70v46h66l-71 416h68l40 -283h2l41 283h67l-71 -416h62v-46h-65l-1 -45h66v-46h-66v-146h-68v146h-70v46h70z" />
    <glyph glyph-name="brokenbar" unicode="&#xa6;" horiz-adv-x="111" 
d="M24 293h63v-323h-63v323zM24 729h63v-321h-63v321z" />
    <glyph glyph-name="section" unicode="&#xa7;" 
d="M130 465v146q0 20 -7 30.5t-17 10.5h-4q-10 0 -17 -10.5t-7 -30.5v-93q0 -21 8.5 -38t21 -32t27.5 -29t27.5 -30t21 -35t8.5 -43v-69q0 -39 -19 -62.5t-48 -28.5q12 -12 23.5 -24t21.5 -26t16 -30.5t6 -37.5v-112q0 -43 -23 -67.5t-57 -24.5h-15q-35 0 -58.5 24.5
t-23.5 67.5v161h57v-159q0 -20 7.5 -30.5t19.5 -10.5h5q11 0 18.5 10.5t7.5 30.5v106q0 31 -18 53t-39.5 43.5t-39.5 47t-18 63.5v74q0 36 17 59t43 30q-23 23 -41.5 48.5t-18.5 65.5v100q0 43 23 67.5t58 24.5h9q35 0 58 -24.5t23 -67.5v-148h-56zM127 329q-6 20 -21 20h-4
q-10 0 -17 -10.5t-7 -30.5v-68q0 -18 6 -33q5 -5 15 -5h5q11 0 18.5 10.5t7.5 30.5v64v1v5z" />
    <glyph glyph-name="dieresis" unicode="&#xa8;" horiz-adv-x="179" 
d="M73 600h-45v68h45v-68zM151 600h-45v68h45v-68z" />
    <glyph glyph-name="copyright" unicode="&#xa9;" horiz-adv-x="494" 
d="M15 348q0 72 10 136t36.5 111.5t73 75t118.5 27.5t117 -27.5t69.5 -75t33 -111.5t8.5 -136t-8.5 -136t-33 -111.5t-69.5 -75t-117 -27.5t-118.5 27.5t-73 75t-36.5 111.5t-10 136zM56 348q0 -63 7 -118.5t28 -97.5t60 -66t102 -24t100 24t56.5 66t25 97.5t5.5 118.5
t-5.5 118.5t-25 97.5t-56.5 66t-100 24t-102 -24t-60 -66t-28 -97.5t-7 -118.5zM279 394v73q0 21 -6.5 31t-16.5 10h-5q-10 0 -17 -10t-7 -31v-233q0 -22 7 -31.5t15 -9.5h7q10 0 16.5 9.5t6.5 31.5v75h63v-76q0 -45 -23.5 -69t-57.5 -24h-18q-32 0 -55.5 24.5t-23.5 68.5
v235q0 45 23 69t58 24h16q34 0 57.5 -24t23.5 -68v-75h-63z" />
    <glyph glyph-name="ordfeminine" unicode="&#xaa;" horiz-adv-x="142" 
d="M51 392q-22 0 -29 15t-7 42v60q0 27 8.5 42.5t30.5 15.5h1q14 0 32 -13v92q0 13 -5 19.5t-11 6.5h-2q-5 0 -9.5 -6.5t-4.5 -19.5v-71h-40v72q0 28 14.5 43t36.5 15h10q21 0 36.5 -15.5t15.5 -43.5v-252h-41v11q-18 -13 -34 -13h-2zM69 538q-14 0 -14 -27v-63
q0 -13 4.5 -19.5t10.5 -6.5q5 0 10 5t7 16v79q0 9 -5 12.5t-10 3.5h-3z" />
    <glyph glyph-name="guillemotleft" unicode="&#xab;" horiz-adv-x="240" 
d="M66 43l-48 201l46 201h59l-46 -202l49 -200h-60zM162 43l-48 201l46 201h59l-46 -202l49 -200h-60z" />
    <glyph glyph-name="logicalnot" unicode="&#xac;" horiz-adv-x="314" 
d="M296 227h-50v100h-228v46h278v-146z" />
    <glyph glyph-name="registered" unicode="&#xae;" horiz-adv-x="315" 
d="M18 526q0 37 8.5 69.5t26 57t44 38.5t63.5 14t63 -14t42.5 -38.5t24 -57t7.5 -69.5t-7.5 -69.5t-24 -57t-42.5 -38.5t-63 -14t-63.5 14t-44 38.5t-26 57t-8.5 69.5zM47 526q0 -32 6 -60t19 -49t34.5 -33t53.5 -12t53 12t33 33t17 49t5 60q0 31 -5 59t-17 49t-33 33.5
t-53 12.5t-53.5 -12.5t-34.5 -33.5t-19 -49t-6 -59zM207 554q0 -27 -16 -34q16 -6 16 -33v-55h-30v46q0 25 -14 25h-15v-71h-31v197h53q19 0 28 -14.5t9 -40.5v-20zM163 534q14 0 14 26v12q0 14 -4.5 20t-10.5 6h-14v-64h15z" />
    <glyph glyph-name="macron" unicode="&#xaf;" horiz-adv-x="197" 
d="M163 610h-133v47h133v-47z" />
    <glyph glyph-name="degree" unicode="&#xb0;" horiz-adv-x="122" 
d="M61 607q-19 0 -32.5 13.5t-13.5 32.5t13.5 32.5t32.5 13.5t32.5 -13.5t13.5 -32.5t-13.5 -32.5t-32.5 -13.5zM61 684q-13 0 -21.5 -9t-8.5 -22t8.5 -21.5t21.5 -8.5t22 8.5t9 21.5t-9 22t-22 9z" />
    <glyph glyph-name="plusminus" unicode="&#xb1;" horiz-adv-x="290" 
d="M119 451v125h52v-125h101v-46h-101v-125h-52v125h-101v46h101zM241 65h-192v46h192v-46z" />
    <glyph glyph-name="twosuperior" unicode="&#xb2;" horiz-adv-x="119" 
d="M15 576v86q0 23 12.5 33t26.5 10h7q14 0 26.5 -10t12.5 -33v-51q0 -22 -8.5 -39.5t-18 -38t-18 -48t-8.5 -67.5h55v-26h-87v25q0 45 8.5 73.5t18.5 49.5t18.5 38t8.5 38v41q0 13 -3.5 17.5t-8.5 4.5h-2q-5 0 -8.5 -4.5t-3.5 -17.5v-81h-28z" />
    <glyph glyph-name="threesuperior" unicode="&#xb3;" horiz-adv-x="118" 
d="M57 564q14 0 14 25v68q0 13 -3.5 17.5t-8.5 4.5h-2q-5 0 -8 -4.5t-3 -16.5v-80h-31v84q0 23 12.5 33t26.5 10h8q14 0 27 -10t13 -33v-70q0 -18 -8.5 -27.5t-19.5 -11.5q11 -2 19.5 -10.5t8.5 -26.5v-81q0 -23 -13 -33t-27 -10h-8q-14 0 -26.5 10t-12.5 33v84h31v-80
q0 -12 3.5 -16.5t8.5 -4.5h1q5 0 8.5 4.5t3.5 17.5v77q0 25 -14 25h-10v22h10z" />
    <glyph glyph-name="acute" unicode="&#xb4;" horiz-adv-x="156" 
d="M28 589l40 86h60l-58 -86h-42z" />
    <glyph glyph-name="mu" unicode="&#xb5;" horiz-adv-x="208" 
d="M193 0h-63v25q-12 -13 -25.5 -20.5t-26.5 -7.5h-1v-161h-63v659h63v-404q0 -22 6.5 -31.5t16.5 -9.5h2q11 0 19.5 12.5t8.5 33.5v399h63v-495z" />
    <glyph glyph-name="paragraph" unicode="&#xb6;" horiz-adv-x="310" 
d="M241 648h-62v-813h-51v561q-27 0 -48 13.5t-35.5 35t-21.5 48.5t-7 54t7 54.5t21.5 49t35.5 35t48 13.5h164v-864h-51v813z" />
    <glyph glyph-name="periodcentered" unicode="&#xb7;" horiz-adv-x="125" 
d="M97 201h-69v92h69v-92z" />
    <glyph glyph-name="cedilla" unicode="&#xb8;" horiz-adv-x="180" 
d="M28 -95l7 30q9 -6 22 -9t24 -1.5t18.5 7.5t6.5 17q-2 12 -15 15.5t-24 -4.5l-14 6l18 34h37l-8 -21q18 8 35 -0.5t17 -28.5q0 -26 -15.5 -39.5t-36 -18t-41 -0.5t-31.5 13z" />
    <glyph glyph-name="onesuperior" unicode="&#xb9;" horiz-adv-x="90" 
d="M41 392v261q-5 -2 -13 -3.5t-14 -1.5v24q11 0 20.5 8t11.5 19h26v-307h-31z" />
    <glyph glyph-name="ordmasculine" unicode="&#xba;" horiz-adv-x="119" 
d="M56 392q-15 0 -27.5 10t-12.5 33v227q0 23 12.5 33t27.5 10h7q15 0 27.5 -10t12.5 -33v-227q0 -23 -12.5 -33t-27.5 -10h-7zM59 679q-12 0 -12 -22v-217q0 -22 12 -22h2q11 0 11 22v217q0 22 -11 22h-2z" />
    <glyph glyph-name="guillemotright" unicode="&#xbb;" horiz-adv-x="240" 
d="M18 43l48 200l-45 202h59l46 -201l-48 -201h-60zM114 43l48 200l-45 202h59l46 -201l-48 -201h-60z" />
    <glyph glyph-name="onequarter" unicode="&#xbc;" horiz-adv-x="275" 
d="M221 699h33l-198 -699h-33zM239 70v-26h-14l1 -44h-27l-1 44h-58l-1 26l48 235h37l1 -235h14zM58 392v261q-5 -2 -13.5 -3.5t-14.5 -1.5v24q11 0 21 8t12 19h26v-307h-31zM198 222h-1l-29 -151v-1h30v152z" />
    <glyph glyph-name="onehalf" unicode="&#xbd;" horiz-adv-x="282" 
d="M221 699h33l-198 -699h-33zM58 392v261q-5 -2 -13.5 -3.5t-14.5 -1.5v24q11 0 21 8t12 19h26v-307h-31zM172 184v86q0 23 12.5 33t26.5 10h6q14 0 27 -10t13 -33v-51q0 -22 -8.5 -39.5t-18.5 -38t-18.5 -48t-8.5 -67.5h56v-26h-87v25q0 45 8.5 73.5t18.5 49.5t18.5 38
t8.5 38v41q0 13 -4 17.5t-9 4.5h-1q-5 0 -8.5 -4.5t-3.5 -17.5v-81h-28z" />
    <glyph glyph-name="threequarters" unicode="&#xbe;" horiz-adv-x="281" 
d="M221 699h33l-198 -699h-33zM212 168q14 0 14 25v70q0 13 -3.5 17t-8.5 4h-2q-5 0 -8.5 -4t-3.5 -16v-82h-30v86q0 23 12.5 33t26.5 10h7q15 0 28 -10t13 -33v-72q0 -19 -9 -28t-20 -11q11 -2 20 -10.5t9 -26.5v-83q0 -23 -13 -33t-28 -10h-7q-14 0 -26.5 10t-12.5 33v86
h30v-82q0 -12 3.5 -16.5t8.5 -4.5h2q5 0 8.5 4.5t3.5 17.5v79q0 25 -14 25h-11v22h11zM58 392v261q-5 -2 -13.5 -3.5t-14.5 -1.5v24q11 0 21 8t12 19h26v-307h-31z" />
    <glyph glyph-name="questiondown" unicode="&#xbf;" horiz-adv-x="222" 
d="M206 116v-189q0 -26 -7.5 -44.5t-20.5 -30.5t-29 -17.5t-32 -5.5h-10q-17 0 -33 5.5t-29 17.5t-21 30.5t-8 44.5v110q0 34 8 61t19 52t23 50t21 55t11.5 67.5t-4.5 87.5h68q7 -56 4.5 -96.5t-11.5 -72t-21 -56.5t-23 -49.5t-19 -50.5t-8 -59v-89q0 -29 8 -40t19 -11h6
q11 0 19 11.5t8 38.5v180h62zM93 534h69v-92h-69v92z" />
    <glyph glyph-name="Agrave" unicode="&#xc0;" horiz-adv-x="223" 
d="M156 0h65l-68 699h-86l-64 -699h58l17 189h61zM107 511h3l24 -271h-52zM91 738l-58 86h60l40 -86h-42z" />
    <glyph glyph-name="Aacute" unicode="&#xc1;" horiz-adv-x="223" 
d="M139 189h-61l-17 -189h-58l64 699h86l68 -699h-65zM82 240h52l-24 271h-3zM89 738l40 86h60l-58 -86h-42z" />
    <glyph glyph-name="Acircumflex" unicode="&#xc2;" horiz-adv-x="223" 
d="M139 189h-61l-17 -189h-58l64 699h86l68 -699h-65zM142 824l58 -86h-60l-29 54l-29 -54h-59l58 86h61zM82 240h52l-24 271h-3z" />
    <glyph glyph-name="Atilde" unicode="&#xc3;" horiz-adv-x="223" 
d="M156 0h65l-68 699h-86l-64 -699h58l17 189h61zM107 511h3l24 -271h-52zM28 778q9 18 21 26t24 8q17 0 33 -10t33 -10q12 0 26 14l30 -20q-11 -19 -22.5 -25.5t-24.5 -6.5q-18 0 -33.5 9.5t-29.5 9.5q-8 0 -14.5 -3t-14.5 -11z" />
    <glyph glyph-name="Adieresis" unicode="&#xc4;" horiz-adv-x="223" 
d="M156 0h65l-68 699h-86l-64 -699h58l17 189h61zM107 511h3l24 -271h-52zM94 749h-45v68h45v-68zM172 749h-44v68h44v-68z" />
    <glyph glyph-name="Aring" unicode="&#xc5;" horiz-adv-x="223" 
d="M156 0h65l-68 699h-86l-64 -699h58l17 189h61zM111 729q-23 0 -42.5 18.5t-19.5 42.5q0 26 18.5 45.5t42.5 19.5q26 0 45 -19t19 -46q0 -23 -18 -42t-45 -19zM107 511h3l24 -271h-52zM111 819q-11 0 -19.5 -8.5t-8.5 -19.5t8.5 -19t19.5 -8t19.5 8t8.5 19t-8.5 19.5
t-19.5 8.5z" />
    <glyph glyph-name="AE" unicode="&#xc6;" horiz-adv-x="314" 
d="M211 642v-267h69v-51h-69v-267h94v-57h-162v189h-68l-14 -189h-58l64 699h233v-57h-89zM79 240h64v402h-32z" />
    <glyph glyph-name="Ccedilla" unicode="&#xc7;" horiz-adv-x="228" 
d="M53 -101l7 30q9 -6 22 -9t24 -1.5t18.5 7.5t6.5 17q-1 12 -14.5 15.5t-24.5 -4.5l-14 6l18 34h3q-16 1 -31 7t-26.5 18t-18.5 30t-7 43v515q0 26 8 44.5t20.5 30.5t28.5 17.5t33 5.5h16q16 0 32.5 -5.5t29 -17.5t20.5 -30.5t8 -44.5v-190h-68v181q0 27 -8 38.5t-19 11.5
h-6q-11 0 -19 -11t-8 -40v-495q0 -28 8 -39.5t19 -11.5h6q11 0 19 11.5t8 39.5v181h68v-191q0 -25 -7 -43t-19 -30t-27 -18t-31 -7h5l-8 -21q18 8 35 -0.5t17 -28.5q0 -26 -15.5 -39.5t-36 -18t-41 -0.5t-31.5 13z" />
    <glyph glyph-name="Egrave" unicode="&#xc8;" horiz-adv-x="189" 
d="M175 642v57h-157v-699h162v57h-94v267h69v51h-69v267h89zM79 738l-58 86h60l40 -86h-42z" />
    <glyph glyph-name="Eacute" unicode="&#xc9;" horiz-adv-x="189" 
d="M86 642v-267h69v-51h-69v-267h94v-57h-162v699h157v-57h-89zM77 738l40 86h60l-58 -86h-42z" />
    <glyph glyph-name="Ecircumflex" unicode="&#xca;" horiz-adv-x="189" 
d="M86 642v-267h69v-51h-69v-267h94v-57h-162v699h157v-57h-89zM130 824l58 -86h-60l-29 54l-29 -54h-59l58 86h61z" />
    <glyph glyph-name="Edieresis" unicode="&#xcb;" horiz-adv-x="189" 
d="M175 642v57h-157v-699h162v57h-94v267h69v51h-69v267h89zM82 749h-45v68h45v-68zM160 749h-44v68h44v-68z" />
    <glyph glyph-name="Igrave" unicode="&#xcc;" horiz-adv-x="104" 
d="M18 699v-699h68v699h-68zM32 743l-58 86h60l40 -86h-42z" />
    <glyph glyph-name="Iacute" unicode="&#xcd;" horiz-adv-x="104" 
d="M86 699v-699h-68v699h68zM30 743l40 86h60l-58 -86h-42z" />
    <glyph glyph-name="Icircumflex" unicode="&#xce;" horiz-adv-x="104" 
d="M86 699v-699h-68v699h68zM83 829l58 -86h-60l-29 54l-29 -54h-59l58 86h61z" />
    <glyph glyph-name="Idieresis" unicode="&#xcf;" horiz-adv-x="104" 
d="M18 699v-699h68v699h-68zM35 754h-45v68h45v-68zM113 754h-44v68h44v-68z" />
    <glyph glyph-name="Eth" unicode="&#xd0;" horiz-adv-x="230" 
d="M18 0v326h-24v48h24v325h106q16 0 32.5 -5t29 -16.5t20.5 -29.5t8 -44v-509q0 -26 -8 -44t-20.5 -29.5t-29 -16.5t-32.5 -5h-106zM86 642v-268h22v-48h-22v-269h33q11 0 19 10.5t8 37.5v489q0 27 -8 37.5t-19 10.5h-33z" />
    <glyph glyph-name="Ntilde" unicode="&#xd1;" horiz-adv-x="255" 
d="M164 0l-91 491h-1v-491h-57v699h77l86 -484v484h62v-699h-76zM45 778q9 18 21 26t24 8q17 0 33 -10t33 -10q12 0 26 14l30 -20q-11 -19 -22.5 -25.5t-24.5 -6.5q-18 0 -33.5 9.5t-29.5 9.5q-8 0 -14.5 -3t-14.5 -11z" />
    <glyph glyph-name="Ograve" unicode="&#xd2;" horiz-adv-x="228" 
d="M106 -6q-17 0 -33 5.5t-28.5 17.5t-20.5 30.5t-8 44.5v515q0 26 8 44.5t20.5 30.5t28.5 17.5t33 5.5h16q16 0 32.5 -5.5t29 -17.5t20.5 -30.5t8 -44.5v-515q0 -26 -8 -44.5t-20.5 -30.5t-29 -17.5t-32.5 -5.5h-16zM111 648q-11 0 -19 -12t-8 -39v-495q0 -28 8 -39.5
t19 -11.5h6q11 0 19 11.5t8 39.5v495q0 27 -8 39t-19 12h-6zM94 738l-58 86h60l40 -86h-42z" />
    <glyph glyph-name="Oacute" unicode="&#xd3;" horiz-adv-x="228" 
d="M106 -6q-17 0 -33 5.5t-28.5 17.5t-20.5 30.5t-8 44.5v515q0 26 8 44.5t20.5 30.5t28.5 17.5t33 5.5h16q16 0 32.5 -5.5t29 -17.5t20.5 -30.5t8 -44.5v-515q0 -26 -8 -44.5t-20.5 -30.5t-29 -17.5t-32.5 -5.5h-16zM111 648q-11 0 -19 -12t-8 -39v-495q0 -28 8 -39.5
t19 -11.5h6q11 0 19 11.5t8 39.5v495q0 27 -8 39t-19 12h-6zM92 738l40 86h60l-58 -86h-42z" />
    <glyph glyph-name="Ocircumflex" unicode="&#xd4;" horiz-adv-x="228" 
d="M106 -6q-17 0 -33 5.5t-28.5 17.5t-20.5 30.5t-8 44.5v515q0 26 8 44.5t20.5 30.5t28.5 17.5t33 5.5h16q16 0 32.5 -5.5t29 -17.5t20.5 -30.5t8 -44.5v-515q0 -26 -8 -44.5t-20.5 -30.5t-29 -17.5t-32.5 -5.5h-16zM111 648q-11 0 -19 -12t-8 -39v-495q0 -28 8 -39.5
t19 -11.5h6q11 0 19 11.5t8 39.5v495q0 27 -8 39t-19 12h-6zM145 824l58 -86h-59l-30 55l-29 -55h-59l58 86h61z" />
    <glyph glyph-name="Otilde" unicode="&#xd5;" horiz-adv-x="228" 
d="M106 -6q-17 0 -33 5.5t-28.5 17.5t-20.5 30.5t-8 44.5v515q0 26 8 44.5t20.5 30.5t28.5 17.5t33 5.5h16q16 0 32.5 -5.5t29 -17.5t20.5 -30.5t8 -44.5v-515q0 -26 -8 -44.5t-20.5 -30.5t-29 -17.5t-32.5 -5.5h-16zM111 648q-11 0 -19 -12t-8 -39v-495q0 -28 8 -39.5
t19 -11.5h6q11 0 19 11.5t8 39.5v495q0 27 -8 39t-19 12h-6zM31 778q18 34 46 34q17 0 32.5 -10t32.5 -10q13 0 26 14l31 -20q-11 -19 -23 -25.5t-25 -6.5q-18 0 -33 9.5t-29 9.5q-8 0 -15 -3t-15 -11z" />
    <glyph glyph-name="Odieresis" unicode="&#xd6;" horiz-adv-x="228" 
d="M106 -6q-17 0 -33 5.5t-28.5 17.5t-20.5 30.5t-8 44.5v515q0 26 8 44.5t20.5 30.5t28.5 17.5t33 5.5h16q16 0 32.5 -5.5t29 -17.5t20.5 -30.5t8 -44.5v-515q0 -26 -8 -44.5t-20.5 -30.5t-29 -17.5t-32.5 -5.5h-16zM111 648q-11 0 -19 -12t-8 -39v-495q0 -28 8 -39.5
t19 -11.5h6q11 0 19 11.5t8 39.5v495q0 27 -8 39t-19 12h-6zM97 749h-44v68h44v-68zM176 749h-45v68h45v-68z" />
    <glyph glyph-name="multiply" unicode="&#xd7;" horiz-adv-x="251" 
d="M89 350l-86 86l36 37l86 -87l87 87l36 -37l-86 -86l86 -86l-36 -37l-87 86l-86 -86l-36 37z" />
    <glyph glyph-name="Oslash" unicode="&#xd8;" horiz-adv-x="299" 
d="M141 -6q-20 0 -39.5 8t-32.5 27l-12 -39h-39l33 105v512q0 26 8 44.5t20.5 30.5t28.5 17.5t33 5.5h16q20 0 39.5 -9t33.5 -28l13 41h38l-34 -109v-508q0 -26 -8 -44.5t-20.5 -30.5t-29 -17.5t-32.5 -5.5h-16zM146 648q-11 0 -19 -12t-8 -39v-284l60 191v93q0 27 -8 39
t-19 12h-6zM146 51h6q11 0 19 11.5t8 39.5v280l-60 -193v-87q0 -28 8 -39.5t19 -11.5z" />
    <glyph glyph-name="Ugrave" unicode="&#xd9;" horiz-adv-x="230" 
d="M108 -6q-17 0 -33 5.5t-28.5 17.5t-20.5 30.5t-8 44.5v607h68v-597q0 -28 8 -39.5t19 -11.5h6q11 0 19 11.5t8 39.5v597h68v-607q0 -26 -8 -44.5t-20.5 -30.5t-29 -17.5t-32.5 -5.5h-16zM96 738l-58 86h59l40 -86h-41z" />
    <glyph glyph-name="Uacute" unicode="&#xda;" horiz-adv-x="230" 
d="M108 -6q-17 0 -33 5.5t-28.5 17.5t-20.5 30.5t-8 44.5v607h68v-597q0 -28 8 -39.5t19 -11.5h6q11 0 19 11.5t8 39.5v597h68v-607q0 -26 -8 -44.5t-20.5 -30.5t-29 -17.5t-32.5 -5.5h-16zM94 738l40 86h60l-58 -86h-42z" />
    <glyph glyph-name="Ucircumflex" unicode="&#xdb;" horiz-adv-x="230" 
d="M108 -6q-17 0 -33 5.5t-28.5 17.5t-20.5 30.5t-8 44.5v607h68v-597q0 -28 8 -39.5t19 -11.5h6q11 0 19 11.5t8 39.5v597h68v-607q0 -26 -8 -44.5t-20.5 -30.5t-29 -17.5t-32.5 -5.5h-16zM147 824l58 -86h-60l-29 54l-29 -54h-60l58 86h62z" />
    <glyph glyph-name="Udieresis" unicode="&#xdc;" horiz-adv-x="230" 
d="M108 -6q-17 0 -33 5.5t-28.5 17.5t-20.5 30.5t-8 44.5v607h68v-597q0 -28 8 -39.5t19 -11.5h6q11 0 19 11.5t8 39.5v597h68v-607q0 -26 -8 -44.5t-20.5 -30.5t-29 -17.5t-32.5 -5.5h-16zM99 749h-45v68h45v-68zM177 749h-45v68h45v-68z" />
    <glyph glyph-name="Yacute" unicode="&#xdd;" horiz-adv-x="224" 
d="M146 262v-262h-68v262l-75 437h67l41 -283h2l41 283h67zM90 738l40 86h60l-58 -86h-42z" />
    <glyph glyph-name="Thorn" unicode="&#xde;" horiz-adv-x="219" 
d="M86 699v-101h36q34 0 57.5 -24t23.5 -68v-316q0 -44 -23.5 -68.5t-57.5 -24.5h-36v-97h-68v699h68zM86 546v-396h30q9 0 16 10t7 31v314q0 21 -7 31t-16 10h-30z" />
    <glyph glyph-name="germandbls" unicode="&#xdf;" horiz-adv-x="248" 
d="M232 449q0 -42 -19 -62.5t-45 -26.5q25 -5 44.5 -24t19.5 -60v-178q0 -26 -8 -44.5t-20.5 -30.5t-29 -17.5t-32.5 -5.5h-34v57h23q11 0 22 11t11 40v170q0 27 -8.5 42t-24.5 15h-23v49h23q33 0 33 57v156q0 29 -11 40t-22 11h-12q-11 0 -22 -11.5t-11 -38.5v-598h-68v607
q0 26 9 44.5t22.5 30.5t30.5 17.5t34 5.5h22q16 0 33.5 -5.5t31 -17.5t22.5 -30.5t9 -44.5v-158v0z" />
    <glyph glyph-name="agrave" unicode="&#xe0;" 
d="M72 -3q-35 0 -46 24.5t-11 67.5v96q0 43 13.5 67.5t47.5 24.5h3q12 0 25 -6t26 -15v148q0 21 -7 31t-17 10h-5q-10 0 -16.5 -10t-6.5 -31v-113h-63v115q0 44 23.5 68t57.5 24h16q35 0 58 -24t23 -69v-405h-63v19q-14 -10 -28 -16t-27 -6h-3zM101 230q-10 0 -16.5 -10
t-6.5 -31v-104q0 -22 6.5 -31.5t16.5 -9.5h2q11 0 19 9.5t8 31.5v124q-2 11 -9 16t-13 5h-7zM85 535l-58 86h59l40 -86h-41z" />
    <glyph glyph-name="aacute" unicode="&#xe1;" 
d="M72 -3q-35 0 -46 24.5t-11 67.5v96q0 43 13.5 67.5t47.5 24.5h3q12 0 25 -6t26 -15v148q0 21 -7 31t-17 10h-5q-10 0 -16.5 -10t-6.5 -31v-113h-63v115q0 44 23.5 68t57.5 24h16q35 0 58 -24t23 -69v-405h-63v19q-14 -10 -28 -16t-27 -6h-3zM101 230q-10 0 -16.5 -10
t-6.5 -31v-104q0 -22 6.5 -31.5t16.5 -9.5h2q11 0 19 9.5t8 31.5v124q-2 11 -9 16t-13 5h-7zM83 535l40 86h59l-58 -86h-41z" />
    <glyph glyph-name="acircumflex" unicode="&#xe2;" 
d="M72 -3q-35 0 -46 24.5t-11 67.5v96q0 43 13.5 67.5t47.5 24.5h3q12 0 25 -6t26 -15v148q0 21 -7 31t-17 10h-5q-10 0 -16.5 -10t-6.5 -31v-113h-63v115q0 44 23.5 68t57.5 24h16q35 0 58 -24t23 -69v-405h-63v19q-14 -10 -28 -16t-27 -6h-3zM101 230q-10 0 -16.5 -10
t-6.5 -31v-104q0 -22 6.5 -31.5t16.5 -9.5h2q11 0 19 9.5t8 31.5v124q-2 11 -9 16t-13 5h-7zM136 621l58 -86h-60l-29 54l-29 -54h-60l58 86h62z" />
    <glyph glyph-name="atilde" unicode="&#xe3;" 
d="M72 -3q-35 0 -46 24.5t-11 67.5v96q0 43 13.5 67.5t47.5 24.5h3q12 0 25 -6t26 -15v148q0 21 -7 31t-17 10h-5q-10 0 -16.5 -10t-6.5 -31v-113h-63v115q0 44 23.5 68t57.5 24h16q35 0 58 -24t23 -69v-405h-63v19q-14 -10 -28 -16t-27 -6h-3zM101 230q-10 0 -16.5 -10
t-6.5 -31v-104q0 -22 6.5 -31.5t16.5 -9.5h2q10 0 17.5 8t9.5 27v130q-2 11 -9 16t-13 5h-7zM22 575q9 18 21 26t24 8q17 0 32.5 -10t32.5 -10q13 0 26 14l31 -20q-11 -18 -23 -25t-25 -7q-18 0 -33 9.5t-29 9.5q-8 0 -15 -3t-15 -11z" />
    <glyph glyph-name="adieresis" unicode="&#xe4;" 
d="M72 -3q-35 0 -46 24.5t-11 67.5v96q0 43 13.5 67.5t47.5 24.5h3q12 0 25 -6t26 -15v148q0 21 -7 31t-17 10h-5q-10 0 -16.5 -10t-6.5 -31v-113h-63v115q0 44 23.5 68t57.5 24h16q35 0 58 -24t23 -69v-405h-63v19q-14 -10 -28 -16t-27 -6h-3zM101 230q-10 0 -16.5 -10
t-6.5 -31v-104q0 -22 6.5 -31.5t16.5 -9.5h2q11 0 19 9.5t8 31.5v124q-2 11 -9 16t-13 5h-7zM88 546h-45v68h45v-68zM166 546h-45v68h45v-68z" />
    <glyph glyph-name="aring" unicode="&#xe5;" 
d="M72 -3q-35 0 -46 24.5t-11 67.5v96q0 43 13.5 67.5t47.5 24.5h3q12 0 25 -6t26 -15v148q0 21 -7 31t-17 10h-5q-10 0 -16.5 -10t-6.5 -31v-113h-63v115q0 44 23.5 68t57.5 24h16q35 0 58 -24t23 -69v-405h-63v19q-14 -10 -28 -16t-27 -6h-3zM104 527q-23 0 -42 18t-19 43
q0 26 18 45t43 19q26 0 45 -19t19 -45q0 -24 -18.5 -42.5t-45.5 -18.5zM101 230q-10 0 -16.5 -10t-6.5 -31v-104q0 -22 6.5 -31.5t16.5 -9.5h2q11 0 19 9.5t8 31.5v124q-2 11 -9 16t-13 5h-7zM104 616q-10 0 -18.5 -8.5t-8.5 -19.5q0 -10 8.5 -18.5t18.5 -8.5q11 0 20 8.5
t9 18.5q0 11 -9 19.5t-20 8.5z" />
    <glyph glyph-name="ae" unicode="&#xe6;" horiz-adv-x="321" 
d="M72 -3q-35 0 -46 24.5t-11 67.5v96q0 43 13.5 67.5t47.5 24.5h3q12 0 25 -6t26 -15v149v4v1q-2 18 -8.5 26.5t-15.5 8.5h-5q-10 0 -16.5 -10t-6.5 -31v-113h-63v115q0 44 23.5 68t57.5 24h16q29 0 49 -17q22 17 49 17h16q35 0 58.5 -24t23.5 -68v-173h-115v-142
q0 -22 7 -31.5t15 -9.5h7q9 0 16 9.5t7 31.5v115h63v-116q0 -45 -23.5 -69t-58.5 -24h-18q-20 0 -36 9t-27 26q-16 -16 -34.5 -25.5t-35.5 -9.5h-3zM101 230q-10 0 -16.5 -10t-6.5 -31v-104q0 -22 6.5 -31.5t16.5 -9.5h2q11 0 19 9.5t8 31.5v122q0 13 -7.5 18t-14.5 5h-7z
M193 405v-128h52v127q0 21 -7 31t-16 10h-5q-9 0 -16 -9t-8 -27v-4z" />
    <glyph glyph-name="ccedilla" unicode="&#xe7;" 
d="M42 -98l7 30q9 -6 22 -9t24 -1.5t18.5 7.5t6.5 17q-2 12 -15 15.5t-24 -4.5l-14 6l17 35q-29 3 -49 27t-20 65v315q0 45 23 69t58 24h16q34 0 57.5 -24t23.5 -68v-115h-63v113q0 21 -6.5 31t-16.5 10h-5q-10 0 -17 -10t-7 -31v-313q0 -22 7 -31.5t15 -9.5h7
q10 0 16.5 9.5t6.5 31.5v115h63v-116q0 -42 -20.5 -65.5t-50.5 -26.5l-8 -22q18 8 35 -0.5t17 -28.5q0 -26 -15.5 -39.5t-36 -18t-41 -0.5t-31.5 13z" />
    <glyph glyph-name="egrave" unicode="&#xe8;" 
d="M100 50h7q10 0 16.5 9.5t6.5 31.5v115h63v-116q0 -45 -23.5 -69t-57.5 -24h-18q-32 0 -55.5 24.5t-23.5 68.5v315q0 45 23 69t58 24h16q34 0 57.5 -24t23.5 -68v-173h-115v-142q0 -22 7 -31.5t15 -9.5zM130 277v127q0 21 -6.5 31t-16.5 10h-5q-10 0 -17 -10t-7 -31v-127
h52zM83 535l-58 86h60l40 -86h-42z" />
    <glyph glyph-name="eacute" unicode="&#xe9;" 
d="M100 50h7q10 0 16.5 9.5t6.5 31.5v115h63v-116q0 -45 -23.5 -69t-57.5 -24h-18q-32 0 -55.5 24.5t-23.5 68.5v315q0 45 23 69t58 24h16q34 0 57.5 -24t23.5 -68v-173h-115v-142q0 -22 7 -31.5t15 -9.5zM130 277v127q0 21 -6.5 31t-16.5 10h-5q-10 0 -17 -10t-7 -31v-127
h52zM82 535l40 86h59l-58 -86h-41z" />
    <glyph glyph-name="ecircumflex" unicode="&#xea;" 
d="M100 50h7q10 0 16.5 9.5t6.5 31.5v115h63v-116q0 -45 -23.5 -69t-57.5 -24h-18q-32 0 -55.5 24.5t-23.5 68.5v315q0 45 23 69t58 24h16q34 0 57.5 -24t23.5 -68v-173h-115v-142q0 -22 7 -31.5t15 -9.5zM134 621l58 -86h-59l-29 54l-29 -54h-60l58 86h61zM130 277v127
q0 21 -6.5 31t-16.5 10h-5q-10 0 -17 -10t-7 -31v-127h52z" />
    <glyph glyph-name="edieresis" unicode="&#xeb;" 
d="M100 50h7q10 0 16.5 9.5t6.5 31.5v115h63v-116q0 -45 -23.5 -69t-57.5 -24h-18q-32 0 -55.5 24.5t-23.5 68.5v315q0 45 23 69t58 24h16q34 0 57.5 -24t23.5 -68v-173h-115v-142q0 -22 7 -31.5t15 -9.5zM130 277v127q0 21 -6.5 31t-16.5 10h-5q-10 0 -17 -10t-7 -31v-127
h52zM87 546h-45v68h45v-68zM165 546h-45v68h45v-68z" />
    <glyph glyph-name="igrave" unicode="&#xec;" horiz-adv-x="96" 
d="M18 495v-495h63v495h-63zM30 534l-58 86h59l40 -86h-41z" />
    <glyph glyph-name="iacute" unicode="&#xed;" horiz-adv-x="96" 
d="M81 495v-495h-63v495h63zM28 534l40 86h59l-58 -86h-41z" />
    <glyph glyph-name="icircumflex" unicode="&#xee;" horiz-adv-x="96" 
d="M81 495v-495h-63v495h63zM81 620l58 -86h-60l-29 54l-29 -54h-60l58 86h62z" />
    <glyph glyph-name="idieresis" unicode="&#xef;" horiz-adv-x="96" 
d="M18 495v-495h63v495h-63zM33 545h-45v68h45v-68zM111 545h-45v68h45v-68z" />
    <glyph glyph-name="eth" unicode="&#xf0;" horiz-adv-x="235" 
d="M193 0h-51l-7 28q-12 -14 -26 -22.5t-28 -8.5h-3q-35 0 -49 24.5t-14 67.5v317q0 43 13.5 67.5t47.5 24.5h3q13 0 26 -7.5t25 -20.5v122h-36v46h36v61h63v-61h40v-46h-40v-592zM102 445q-10 0 -17 -10t-7 -31v-313q0 -22 6.5 -31.5t16.5 -9.5h2q10 0 17.5 9.5t9.5 28.5
v318q-2 18 -9.5 28.5t-16.5 10.5h-2z" />
    <glyph glyph-name="ntilde" unicode="&#xf1;" horiz-adv-x="209" 
d="M109 445q10 0 16.5 -9.5t6.5 -31.5v-404h63v406q0 43 -13 67.5t-48 24.5h-2q-14 0 -27.5 -8t-25.5 -21v26h-63v-495h63v405q2 18 10.5 29t17.5 11h2zM50 575q18 34 46 34q17 0 32.5 -10t32.5 -10q13 0 26 14l31 -20q-11 -18 -23 -25t-25 -7q-18 0 -33 9.5t-29 9.5
q-8 0 -15 -3t-15 -11z" />
    <glyph glyph-name="ograve" unicode="&#xf2;" 
d="M96 -3q-35 0 -58 24.5t-23 67.5v317q1 43 23.5 67.5t57.5 24.5h16q34 0 57.5 -24.5t23.5 -67.5v-317q0 -43 -23.5 -67.5t-57.5 -24.5h-16zM102 445q-10 0 -17 -10t-7 -31v-313q0 -22 7 -31.5t17 -9.5h5q10 0 16.5 9.5t6.5 31.5v313q0 21 -6.5 31t-16.5 10h-5zM84 535
l-58 86h60l40 -86h-42z" />
    <glyph glyph-name="oacute" unicode="&#xf3;" 
d="M96 -3q-35 0 -58 24.5t-23 67.5v317q1 43 23.5 67.5t57.5 24.5h16q34 0 57.5 -24.5t23.5 -67.5v-317q0 -43 -23.5 -67.5t-57.5 -24.5h-16zM102 445q-10 0 -17 -10t-7 -31v-313q0 -22 7 -31.5t17 -9.5h5q10 0 16.5 9.5t6.5 31.5v313q0 21 -6.5 31t-16.5 10h-5zM82 535
l40 86h60l-58 -86h-42z" />
    <glyph glyph-name="ocircumflex" unicode="&#xf4;" 
d="M96 -3q-35 0 -58 24.5t-23 67.5v317q1 43 23.5 67.5t57.5 24.5h16q34 0 57.5 -24.5t23.5 -67.5v-317q0 -43 -23.5 -67.5t-57.5 -24.5h-16zM102 445q-10 0 -17 -10t-7 -31v-313q0 -22 7 -31.5t17 -9.5h5q10 0 16.5 9.5t6.5 31.5v313q0 21 -6.5 31t-16.5 10h-5zM135 621
l58 -86h-59l-30 55l-29 -55h-59l58 86h61z" />
    <glyph glyph-name="otilde" unicode="&#xf5;" 
d="M96 -3q-35 0 -58 24.5t-23 67.5v317q1 43 23.5 67.5t57.5 24.5h16q34 0 57.5 -24.5t23.5 -67.5v-317q0 -43 -23.5 -67.5t-57.5 -24.5h-16zM102 445q-10 0 -17 -10t-7 -31v-313q0 -22 7 -31.5t17 -9.5h5q10 0 16.5 9.5t6.5 31.5v313q0 21 -6.5 31t-16.5 10h-5zM21 575
q18 34 46 34q17 0 32.5 -10t32.5 -10q13 0 26 14l31 -20q-11 -18 -23 -25t-25 -7q-18 0 -33 9.5t-29 9.5q-8 0 -15 -3t-15 -11z" />
    <glyph glyph-name="odieresis" unicode="&#xf6;" 
d="M96 -3q-35 0 -58 24.5t-23 67.5v317q1 43 23.5 67.5t57.5 24.5h16q34 0 57.5 -24.5t23.5 -67.5v-317q0 -43 -23.5 -67.5t-57.5 -24.5h-16zM102 445q-10 0 -17 -10t-7 -31v-313q0 -22 7 -31.5t17 -9.5h5q10 0 16.5 9.5t6.5 31.5v313q0 21 -6.5 31t-16.5 10h-5zM87 547h-44
v68h44v-68zM166 547h-45v68h45v-68z" />
    <glyph glyph-name="divide" unicode="&#xf7;" horiz-adv-x="349" 
d="M333 326h-317v47h317v-47zM209 405h-69v92h69v-92zM209 201h-69v92h69v-92z" />
    <glyph glyph-name="oslash" unicode="&#xf8;" horiz-adv-x="241" 
d="M115 -3q-31 0 -52 18l-9 -28h-39l23 70q-4 12 -4 32v317q1 43 23.5 67.5t57.5 24.5h16q26 0 47 -16l9 26h39l-21 -63q4 -8 5.5 -18t1.5 -21v-317q0 -43 -23.5 -67.5t-57.5 -24.5h-16zM121 50h5q10 0 16.5 9.5t6.5 31.5v183l-52 -157v-26q0 -22 7 -31.5t17 -9.5zM121 445
q-10 0 -17 -10t-7 -31v-169l52 158v11q0 21 -6.5 31t-16.5 10h-5z" />
    <glyph glyph-name="ugrave" unicode="&#xf9;" horiz-adv-x="208" 
d="M100 50q-10 0 -16.5 9.5t-6.5 31.5v404h-63v-406q0 -43 13 -67.5t48 -24.5h3q13 0 26.5 7.5t25.5 20.5v-25h63v495h-63v-399q0 -21 -8.5 -33.5t-19.5 -12.5h-2zM84 534l-58 86h59l40 -86h-41z" />
    <glyph glyph-name="uacute" unicode="&#xfa;" horiz-adv-x="208" 
d="M102 50q11 0 19.5 12.5t8.5 33.5v399h63v-495h-63v25q-12 -13 -25.5 -20.5t-26.5 -7.5h-3q-35 0 -48 24.5t-13 67.5v406h63v-404q0 -22 6.5 -31.5t16.5 -9.5h2zM82 534l40 86h60l-58 -86h-42z" />
    <glyph glyph-name="ucircumflex" unicode="&#xfb;" horiz-adv-x="208" 
d="M102 50q11 0 19.5 12.5t8.5 33.5v399h63v-495h-63v25q-12 -13 -25.5 -20.5t-26.5 -7.5h-3q-35 0 -48 24.5t-13 67.5v406h63v-404q0 -22 6.5 -31.5t16.5 -9.5h2zM135 620l58 -86h-60l-29 54l-29 -54h-60l58 86h62z" />
    <glyph glyph-name="udieresis" unicode="&#xfc;" horiz-adv-x="208" 
d="M100 50q-10 0 -16.5 9.5t-6.5 31.5v404h-63v-406q0 -43 13 -67.5t48 -24.5h3q13 0 26.5 7.5t25.5 20.5v-25h63v495h-63v-399q0 -21 -8.5 -33.5t-19.5 -12.5h-2zM165 545h-45v68h45v-68zM87 545h-45v68h45v-68z" />
    <glyph glyph-name="yacute" unicode="&#xfd;" horiz-adv-x="187" 
d="M134 495h51l-67 -660h-62l19 165l-73 495h57l37 -320h3zM73 535l40 86h59l-58 -86h-41z" />
    <glyph glyph-name="thorn" unicode="&#xfe;" horiz-adv-x="216" 
d="M86 699v-201h36q34 0 57.5 -24.5t23.5 -67.5v-317q0 -43 -23.5 -67.5t-57.5 -24.5h-36v-162h-68v864h68zM86 445v-395h30q9 0 16 9.5t7 31.5v313q0 21 -7 31t-16 10h-30z" />
    <glyph glyph-name="ydieresis" unicode="&#xff;" horiz-adv-x="187" 
d="M99 175h-3l-37 320h-57l73 -495l-19 -165h62l67 660h-51zM77 548h-45v68h45v-68zM155 548h-45v68h45v-68z" />
    <glyph glyph-name="Amacron" unicode="&#x100;" horiz-adv-x="223" 
d="M139 189h-61l-17 -189h-58l64 699h86l68 -699h-65zM82 240h52l-24 271h-3zM177 759h-133v47h133v-47z" />
    <glyph glyph-name="amacron" unicode="&#x101;" 
d="M72 -3q-35 0 -46 24.5t-11 67.5v96q0 43 13.5 67.5t47.5 24.5h3q12 0 25 -6t26 -15v148q0 21 -7 31t-17 10h-5q-10 0 -16.5 -10t-6.5 -31v-113h-63v115q0 44 23.5 68t57.5 24h16q35 0 58 -24t23 -69v-405h-63v19q-14 -10 -28 -16t-27 -6h-3zM101 230q-10 0 -16.5 -10
t-6.5 -31v-104q0 -22 6.5 -31.5t16.5 -9.5h2q11 0 19 9.5t8 31.5v122q0 13 -7.5 18t-14.5 5h-7zM170 557h-132v46h132v-46z" />
    <glyph glyph-name="Abreve" unicode="&#x102;" horiz-adv-x="223" 
d="M156 0h65l-68 699h-86l-64 -699h58l17 189h61zM107 511h3l24 -271h-52zM84 816q0 -11 8 -19.5t19 -8.5t20 8.5t9 19.5h40q0 -26 -20 -46.5t-49 -20.5q-26 0 -46 20t-20 47h39z" />
    <glyph glyph-name="abreve" unicode="&#x103;" 
d="M72 -3q-35 0 -46 24.5t-11 67.5v96q0 43 13.5 67.5t47.5 24.5h3q12 0 25 -6t26 -15v148q0 21 -7 31t-17 10h-5q-10 0 -16.5 -10t-6.5 -31v-113h-63v115q0 44 23.5 68t57.5 24h16q35 0 58 -24t23 -69v-405h-63v19q-14 -10 -28 -16t-27 -6h-3zM101 230q-10 0 -16.5 -10
t-6.5 -31v-104q0 -22 6.5 -31.5t16.5 -9.5h2q10 0 17.5 8t9.5 27v128q0 13 -7.5 18t-14.5 5h-7zM78 613q0 -11 8 -19.5t19 -8.5t19.5 8.5t8.5 19.5h40q0 -26 -20 -46.5t-49 -20.5q-26 0 -45.5 20t-19.5 47h39z" />
    <glyph glyph-name="Aogonek" unicode="&#x104;" horiz-adv-x="223" 
d="M241 -65q-9 -18 -25.5 -25.5t-33 -5.5t-29 13.5t-12.5 31.5q0 29 27 51h-12l-17 189h-61l-17 -189h-58l64 699h86l68 -699h-3q-18 -5 -29 -18.5t-11 -24.5q1 -18 15.5 -20t24.5 13zM82 240h52l-24 271h-3z" />
    <glyph glyph-name="aogonek" unicode="&#x105;" 
d="M72 -3q-35 0 -46 24.5t-11 67.5v96q0 43 13.5 67.5t47.5 24.5h3q12 0 25 -6t26 -15v148q0 21 -7 31t-17 10h-5q-10 0 -16.5 -10t-6.5 -31v-113h-63v115q0 44 23.5 68t57.5 24h16q35 0 58 -24t23 -69v-405h-63v19q-14 -10 -28 -16t-27 -6h-3zM101 230q-10 0 -16.5 -10
t-6.5 -31v-104q0 -22 6.5 -31.5t16.5 -9.5h2q11 0 19 9.5t8 31.5v122q0 13 -7.5 18t-14.5 5h-7zM193 -50q-10 -15 -25 -13t-15 20q-1 11 10.5 24.5t28.5 18.5h-49q-28 -22 -28 -51q0 -20 12.5 -31.5t29.5 -13.5t33.5 5.5t25.5 25.5z" />
    <glyph glyph-name="Cacute" unicode="&#x106;" horiz-adv-x="228" 
d="M106 -6q-17 0 -33 5.5t-28.5 17.5t-20.5 30.5t-8 44.5v515q0 26 8 44.5t20.5 30.5t28.5 17.5t33 5.5h16q16 0 32.5 -5.5t29 -17.5t20.5 -30.5t8 -44.5v-190h-68v181q0 27 -8 38.5t-19 11.5h-6q-11 0 -19 -11t-8 -40v-495q0 -28 8 -39.5t19 -11.5h6q11 0 19 11.5t8 39.5
v181h68v-191q0 -26 -8 -44.5t-20.5 -30.5t-29 -17.5t-32.5 -5.5h-16zM92 740l40 86h60l-58 -86h-42z" />
    <glyph glyph-name="cacute" unicode="&#x107;" 
d="M130 291v113q0 21 -6.5 31t-16.5 10h-5q-10 0 -17 -10t-7 -31v-313q0 -22 7 -31.5t15 -9.5h7q10 0 16.5 9.5t6.5 31.5v115h63v-116q0 -45 -23.5 -69t-57.5 -24h-18q-32 0 -55.5 24.5t-23.5 68.5v315q0 45 23 69t58 24h16q34 0 57.5 -24t23.5 -68v-115h-63zM82 535l40 86
h60l-58 -86h-42z" />
    <glyph glyph-name="Ccircumflex" unicode="&#x108;" horiz-adv-x="228" 
d="M106 -6q-17 0 -33 5.5t-28.5 17.5t-20.5 30.5t-8 44.5v515q0 26 8 44.5t20.5 30.5t28.5 17.5t33 5.5h16q16 0 32.5 -5.5t29 -17.5t20.5 -30.5t8 -44.5v-190h-68v181q0 27 -8 38.5t-19 11.5h-6q-11 0 -19 -11t-8 -40v-495q0 -28 8 -39.5t19 -11.5h6q11 0 19 11.5t8 39.5
v181h68v-191q0 -26 -8 -44.5t-20.5 -30.5t-29 -17.5t-32.5 -5.5h-16zM145 826l58 -86h-59l-30 55l-29 -55h-59l58 86h61z" />
    <glyph glyph-name="ccircumflex" unicode="&#x109;" 
d="M130 291v113q0 21 -6.5 31t-16.5 10h-5q-10 0 -17 -10t-7 -31v-313q0 -22 7 -31.5t15 -9.5h7q10 0 16.5 9.5t6.5 31.5v115h63v-116q0 -45 -23.5 -69t-57.5 -24h-18q-32 0 -55.5 24.5t-23.5 68.5v315q0 45 23 69t58 24h16q34 0 57.5 -24t23.5 -68v-115h-63zM135 621
l58 -86h-60l-29 54l-29 -54h-60l58 86h62z" />
    <glyph glyph-name="Cdotaccent" unicode="&#x10a;" horiz-adv-x="228" 
d="M106 -6q-17 0 -33 5.5t-28.5 17.5t-20.5 30.5t-8 44.5v515q0 26 8 44.5t20.5 30.5t28.5 17.5t33 5.5h16q16 0 32.5 -5.5t29 -17.5t20.5 -30.5t8 -44.5v-190h-68v181q0 27 -8 38.5t-19 11.5h-6q-11 0 -19 -11t-8 -40v-495q0 -28 8 -39.5t19 -11.5h6q11 0 19 11.5t8 39.5
v181h68v-191q0 -26 -8 -44.5t-20.5 -30.5t-29 -17.5t-32.5 -5.5h-16zM135 752h-45v68h45v-68z" />
    <glyph glyph-name="cdotaccent" unicode="&#x10b;" 
d="M130 291v113q0 21 -6.5 31t-16.5 10h-5q-10 0 -17 -10t-7 -31v-313q0 -22 7 -31.5t15 -9.5h7q10 0 16.5 9.5t6.5 31.5v115h63v-116q0 -45 -23.5 -69t-57.5 -24h-18q-32 0 -55.5 24.5t-23.5 68.5v315q0 45 23 69t58 24h16q34 0 57.5 -24t23.5 -68v-115h-63zM125 546h-45
v69h45v-69z" />
    <glyph glyph-name="Ccaron" unicode="&#x10c;" horiz-adv-x="228" 
d="M106 -6q-17 0 -33 5.5t-28.5 17.5t-20.5 30.5t-8 44.5v515q0 26 8 44.5t20.5 30.5t28.5 17.5t33 5.5h16q16 0 32.5 -5.5t29 -17.5t20.5 -30.5t8 -44.5v-190h-68v181q0 27 -8 38.5t-19 11.5h-6q-11 0 -19 -11t-8 -40v-495q0 -28 8 -39.5t19 -11.5h6q11 0 19 11.5t8 39.5
v181h68v-191q0 -26 -8 -44.5t-20.5 -30.5t-29 -17.5t-32.5 -5.5h-16zM83 742l-58 86h59l29 -55l30 55h59l-58 -86h-61z" />
    <glyph glyph-name="ccaron" unicode="&#x10d;" 
d="M130 291v113q0 21 -6.5 31t-16.5 10h-5q-10 0 -17 -10t-7 -31v-313q0 -22 7 -31.5t15 -9.5h7q10 0 16.5 9.5t6.5 31.5v115h63v-116q0 -45 -23.5 -69t-57.5 -24h-18q-32 0 -55.5 24.5t-23.5 68.5v315q0 45 23 69t58 24h16q34 0 57.5 -24t23.5 -68v-115h-63zM72 537l-58 86
h60l29 -54l29 54h60l-58 -86h-62z" />
    <glyph glyph-name="Dcaron" unicode="&#x10e;" horiz-adv-x="230" 
d="M18 0v699h106q16 0 32.5 -5t29 -16.5t20.5 -29.5t8 -44v-509q0 -26 -8 -44t-20.5 -29.5t-29 -16.5t-32.5 -5h-106zM86 642v-585h33q11 0 19 10.5t8 37.5v489q0 27 -8 37.5t-19 10.5h-33zM84 739l-58 86h60l29 -54l29 54h60l-58 -86h-62z" />
    <glyph glyph-name="dcaron" unicode="&#x10f;" horiz-adv-x="296" 
d="M78 -3q-35 0 -49 24.5t-14 67.5v317q0 43 13.5 67.5t47.5 24.5h3q13 0 26 -7.5t25 -20.5v229h63v-699h-51l-7 28q-12 -14 -26 -22.5t-28 -8.5h-3zM102 445q-10 0 -17 -10t-7 -31v-313q0 -22 6.5 -31.5t16.5 -9.5h2q10 0 17.5 9.5t9.5 28.5v312q0 21 -8 33t-18 12h-2z
M297 607l-24 -61h-28l15 61h-31v92h68v-92z" />
    <glyph glyph-name="Dcroat" unicode="&#x110;" horiz-adv-x="253" 
d="M41 0v326h-23v48h23v325h106q16 0 32 -5t29 -16.5t20.5 -29.5t7.5 -44v-509q0 -26 -7.5 -44t-20.5 -29.5t-29 -16.5t-32 -5h-106zM108 642v-268h23v-48h-23v-269h33q12 0 20 10.5t8 37.5v489q0 27 -8 37.5t-20 10.5h-33z" />
    <glyph glyph-name="dcroat" unicode="&#x111;" horiz-adv-x="241" 
d="M193 0h-51l-7 28q-12 -14 -26 -22.5t-28 -8.5h-3q-35 0 -49 24.5t-14 67.5v317q0 43 13.5 67.5t47.5 24.5h3q13 0 26 -7.5t25 -20.5v122h-36v46h36v61h63v-61h40v-46h-40v-592zM102 445q-10 0 -17 -10t-7 -31v-313q0 -22 6.5 -31.5t16.5 -9.5h2q10 0 17.5 9.5t9.5 28.5
v318q-2 18 -9.5 28.5t-16.5 10.5h-2z" />
    <glyph glyph-name="Emacron" unicode="&#x112;" horiz-adv-x="189" 
d="M86 642v-267h69v-51h-69v-267h94v-57h-162v699h157v-57h-89zM165 759h-133v47h133v-47z" />
    <glyph glyph-name="emacron" unicode="&#x113;" 
d="M100 50h7q10 0 16.5 9.5t6.5 31.5v115h63v-116q0 -45 -23.5 -69t-57.5 -24h-18q-32 0 -55.5 24.5t-23.5 68.5v315q0 45 23 69t58 24h16q34 0 57.5 -24t23.5 -68v-173h-115v-142q0 -22 7 -31.5t15 -9.5zM130 277v127q0 21 -6.5 31t-16.5 10h-5q-10 0 -17 -10t-7 -31v-127
h52zM169 557h-133v46h133v-46z" />
    <glyph glyph-name="Ebreve" unicode="&#x114;" horiz-adv-x="189" 
d="M175 642v57h-157v-699h162v57h-94v267h69v51h-69v267h89zM72 816q0 -11 8 -19.5t19 -8.5t20 8.5t9 19.5h40q0 -26 -20 -46.5t-49 -20.5q-26 0 -46 20t-20 47h39z" />
    <glyph glyph-name="ebreve" unicode="&#x115;" 
d="M100 50h7q10 0 16.5 9.5t6.5 31.5v115h63v-116q0 -45 -23.5 -69t-57.5 -24h-18q-32 0 -55.5 24.5t-23.5 68.5v315q0 45 23 69t58 24h16q34 0 57.5 -24t23.5 -68v-173h-115v-142q0 -22 7 -31.5t15 -9.5zM130 277v127q0 21 -6.5 31t-16.5 10h-5q-10 0 -17 -10t-7 -31v-127
h52zM76 613q0 -11 8.5 -19.5t19.5 -8.5t19.5 8.5t8.5 19.5h40q0 -26 -20 -46.5t-49 -20.5q-26 0 -46 20t-20 47h39z" />
    <glyph glyph-name="Edotaccent" unicode="&#x116;" horiz-adv-x="189" 
d="M175 642v57h-157v-699h162v57h-94v267h69v51h-69v267h89zM120 749h-45v68h45v-68z" />
    <glyph glyph-name="edotaccent" unicode="&#x117;" 
d="M100 50h7q10 0 16.5 9.5t6.5 31.5v115h63v-116q0 -45 -23.5 -69t-57.5 -24h-18q-32 0 -55.5 24.5t-23.5 68.5v315q0 45 23 69t58 24h16q34 0 57.5 -24t23.5 -68v-173h-115v-142q0 -22 7 -31.5t15 -9.5zM130 277v127q0 21 -6.5 31t-16.5 10h-5q-10 0 -17 -10t-7 -31v-127
h52zM124 546h-44v69h44v-69z" />
    <glyph glyph-name="Eogonek" unicode="&#x118;" horiz-adv-x="189" 
d="M153 -65q-9 -18 -25.5 -25.5t-33.5 -5.5t-29.5 13.5t-12.5 31.5q0 16 7.5 28t20.5 23h-62v699h157v-57h-89v-267h69v-51h-69v-267h94v-57h-50q-18 -5 -29.5 -18.5t-10.5 -24.5q1 -18 15.5 -20t24.5 13z" />
    <glyph glyph-name="eogonek" unicode="&#x119;" 
d="M157 -68q-9 -18 -25.5 -25.5t-33.5 -5.5t-29.5 13.5t-12.5 31.5q0 15 7.5 28t20.5 24q-29 3 -49 27t-20 65v315q0 45 23 69t58 24h16q34 0 57.5 -24t23.5 -68v-173h-115v-142q0 -22 7 -31.5t15 -9.5h7q10 0 16.5 9.5t6.5 31.5v115h63v-116q0 -38 -18 -61.5t-45 -29.5
q-16 -10 -26.5 -22t-9.5 -23q1 -18 15.5 -20t24.5 13zM130 277v127q0 21 -6.5 31t-16.5 10h-5q-10 0 -17 -10t-7 -31v-127h52z" />
    <glyph glyph-name="Ecaron" unicode="&#x11a;" horiz-adv-x="189" 
d="M175 642v57h-157v-699h162v57h-94v267h69v51h-69v267h89zM68 739l-58 86h59l29 -54l29 54h60l-58 -86h-61z" />
    <glyph glyph-name="ecaron" unicode="&#x11b;" 
d="M100 50h7q10 0 16.5 9.5t6.5 31.5v115h63v-116q0 -45 -23.5 -69t-57.5 -24h-18q-32 0 -55.5 24.5t-23.5 68.5v315q0 45 23 69t58 24h16q34 0 57.5 -24t23.5 -68v-173h-115v-142q0 -22 7 -31.5t15 -9.5zM72 537l-58 86h60l29 -54l29 54h59l-58 -86h-61zM130 277v127
q0 21 -6.5 31t-16.5 10h-5q-10 0 -17 -10t-7 -31v-127h52z" />
    <glyph glyph-name="Gcircumflex" unicode="&#x11c;" horiz-adv-x="228" 
d="M106 -6q-17 0 -33 5.5t-28.5 17.5t-20.5 30.5t-8 44.5v515q0 26 8 44.5t20.5 30.5t28.5 17.5t33 5.5h16q16 0 32.5 -5.5t29 -17.5t20.5 -30.5t8 -44.5v-190h-68v181q0 27 -8 38.5t-19 11.5h-6q-11 0 -19 -11t-8 -40v-495q0 -28 8 -39.5t19 -11.5h6q11 0 19 11.5t8 39.5
v124h-30v57h98v-283h-33l-8 23q-14 -14 -30 -21.5t-29 -7.5h-6zM145 824l58 -86h-59l-30 55l-29 -55h-59l58 86h61z" />
    <glyph glyph-name="gcircumflex" unicode="&#x11d;" horiz-adv-x="208" 
d="M193 495v-567q0 -44 -23.5 -68.5t-55.5 -24.5h-18q-34 0 -57.5 24t-23.5 69v43h63v-42q0 -22 6.5 -31.5t16.5 -9.5h7q8 0 15 9.5t7 31.5v94q-13 -12 -26 -19t-25 -7h-3q-34 0 -47.5 24.5t-13.5 67.5v317q0 43 14 67.5t49 24.5h3q25 0 51 -26l10 23h51zM103 50q11 0 19 12
t8 33v311q-2 19 -9.5 29t-17.5 10h-2q-10 0 -16.5 -9.5t-6.5 -31.5v-313q0 -21 6.5 -31t16.5 -10h2zM134 621l58 -86h-60l-29 54l-29 -54h-60l58 86h62z" />
    <glyph glyph-name="Gbreve" unicode="&#x11e;" horiz-adv-x="228" 
d="M114 283h98v-283h-33l-8 23q-14 -14 -30 -21.5t-29 -7.5h-6q-17 0 -33 5.5t-28.5 17.5t-20.5 30.5t-8 44.5v515q0 26 8 44.5t20.5 30.5t28.5 17.5t33 5.5h16q16 0 32.5 -5.5t29 -17.5t20.5 -30.5t8 -44.5v-190h-68v181q0 27 -8 38.5t-19 11.5h-6q-11 0 -19 -11t-8 -40
v-495q0 -28 8 -39.5t19 -11.5h6q11 0 19 11.5t8 39.5v124h-30v57zM87 816q0 -11 8.5 -19.5t19.5 -8.5t19.5 8.5t8.5 19.5h40q0 -26 -20 -46.5t-49 -20.5q-26 0 -46 20t-20 47h39z" />
    <glyph glyph-name="gbreve" unicode="&#x11f;" horiz-adv-x="208" 
d="M142 495l-10 -23q-26 26 -51 26h-3q-35 0 -49 -24.5t-14 -67.5v-317q0 -43 13.5 -67.5t47.5 -24.5h3q12 0 25 7t26 19v-94q0 -22 -7 -31.5t-15 -9.5h-7q-10 0 -16.5 9.5t-6.5 31.5v42h-63v-43q0 -45 23.5 -69t57.5 -24h18q32 0 55.5 24.5t23.5 68.5v567h-51zM101 50
q-10 0 -16.5 10t-6.5 31v313q0 22 6.5 31.5t16.5 9.5h2q10 0 17.5 -10t9.5 -29v-317q-2 -19 -9.5 -29t-17.5 -10h-2zM76 613q0 -11 8 -19.5t19 -8.5t19.5 8.5t8.5 19.5h41q0 -26 -20 -46.5t-49 -20.5q-26 0 -46 20t-20 47h39z" />
    <glyph glyph-name="Gdotaccent" unicode="&#x120;" horiz-adv-x="228" 
d="M106 -6q-17 0 -33 5.5t-28.5 17.5t-20.5 30.5t-8 44.5v515q0 26 8 44.5t20.5 30.5t28.5 17.5t33 5.5h16q16 0 32.5 -5.5t29 -17.5t20.5 -30.5t8 -44.5v-190h-68v181q0 27 -8 38.5t-19 11.5h-6q-11 0 -19 -11t-8 -40v-495q0 -28 8 -39.5t19 -11.5h6q11 0 19 11.5t8 39.5
v124h-30v57h98v-168v-5v-110h-33l-8 23q-14 -14 -30 -21.5t-29 -7.5h-6zM135 749h-45v68h45v-68z" />
    <glyph glyph-name="gdotaccent" unicode="&#x121;" horiz-adv-x="208" 
d="M142 495l-10 -23q-26 26 -51 26h-3q-35 0 -49 -24.5t-14 -67.5v-317q0 -43 13.5 -67.5t47.5 -24.5h3q12 0 25 7t26 19v-94q0 -22 -7 -31.5t-15 -9.5h-7q-10 0 -16.5 9.5t-6.5 31.5v42h-63v-43q0 -45 23.5 -69t57.5 -24h18q32 0 55.5 24.5t23.5 68.5v567h-51zM101 50
q-10 0 -16.5 10t-6.5 31v313q0 22 6.5 31.5t16.5 9.5h2q11 0 19 -11.5t8 -33.5v-311q-2 -19 -9.5 -29t-17.5 -10h-2zM124 546h-45v69h45v-69z" />
    <glyph glyph-name="uni0122" unicode="&#x122;" horiz-adv-x="228" 
d="M114 283h98v-168v-5v-110h-33l-8 23q-14 -14 -30 -21.5t-29 -7.5h-6q-17 0 -33 5.5t-28.5 17.5t-20.5 30.5t-8 44.5v515q0 26 8 44.5t20.5 30.5t28.5 17.5t33 5.5h16q16 0 32.5 -5.5t29 -17.5t20.5 -30.5t8 -44.5v-190h-68v181q0 27 -8 38.5t-19 11.5h-6q-11 0 -19 -11
t-8 -40v-495q0 -28 8 -39.5t19 -11.5h6q11 0 19 11.5t8 39.5v124h-30v57zM144 -122l-24 -61h-29l15 61h-31v92h69v-92z" />
    <glyph glyph-name="uni0123" unicode="&#x123;" horiz-adv-x="208" 
d="M142 495l-10 -23q-26 26 -51 26h-3q-35 0 -49 -24.5t-14 -67.5v-317q0 -43 13.5 -67.5t47.5 -24.5h3q12 0 25 7t26 19v-94q0 -22 -7 -31.5t-15 -9.5h-7q-10 0 -16.5 9.5t-6.5 31.5v42h-63v-43q0 -45 23.5 -69t57.5 -24h18q32 0 55.5 24.5t23.5 68.5v567h-51zM101 50
q-10 0 -16.5 10t-6.5 31v313q0 22 6.5 31.5t16.5 9.5h2q11 0 19 -11.5t8 -33.5v-305q0 -21 -8 -33t-19 -12h-2zM77 603l17 46h27l-12 -46h17v-68h-49v68z" />
    <glyph glyph-name="Hcircumflex" unicode="&#x124;" horiz-adv-x="228" 
d="M210 699v-699h-67v324h-57v-324h-68v699h68v-325h57v325h67zM145 824l58 -86h-59l-30 55l-29 -55h-59l58 86h61z" />
    <glyph glyph-name="hcircumflex" unicode="&#x125;" horiz-adv-x="211" 
d="M109 445q-10 0 -18 -11t-10 -29v-405h-63v699h63v-230q12 13 25 21t27 8h3q34 0 47.5 -24.5t13.5 -67.5v-406h-63v404q0 22 -6.5 31.5t-16.5 9.5h-2zM80 824l58 -86h-60l-29 54l-29 -54h-59l58 86h61z" />
    <glyph glyph-name="LATIN CAPITAL LETTER H WITH STROKE" unicode="&#x126;" horiz-adv-x="228" 
d="M18 519v180h68v-180h57v180h67v-180h18v-46h-18v-473h-67v324h-57v-324h-68v473h-18v46h18zM143 374v99h-57v-99h57z" />
    <glyph glyph-name="LATIN SMALL LETTER H WITH STROKE" unicode="&#x127;" horiz-adv-x="211" 
d="M109 445q-10 0 -18 -11t-10 -29v-405h-63v592h-28v46h28v61h63v-61h48v-46h-48v-123q12 13 25 21t27 8h3q34 0 47.5 -24.5t13.5 -67.5v-406h-63v404q0 22 -6.5 31.5t-16.5 9.5h-2z" />
    <glyph glyph-name="Itilde" unicode="&#x128;" horiz-adv-x="104" 
d="M18 699v-699h68v699h-68zM-31 783q9 18 21 26t24 8q17 0 33 -10t33 -10q12 0 26 14l30 -20q-11 -18 -22.5 -25t-24.5 -7q-18 0 -33.5 9.5t-29.5 9.5q-8 0 -14.5 -3t-14.5 -11z" />
    <glyph glyph-name="itilde" unicode="&#x129;" horiz-adv-x="96" 
d="M18 495v-495h63v495h-63zM-33 574q9 18 21 26t24 8q17 0 32.5 -10t32.5 -10q13 0 26 14l31 -20q-11 -19 -23 -25.5t-25 -6.5q-18 0 -33 9.5t-29 9.5q-8 0 -15 -3t-15 -11z" />
    <glyph glyph-name="Imacron" unicode="&#x12a;" horiz-adv-x="104" 
d="M86 699v-699h-68v699h68zM118 765h-133v46h133v-46z" />
    <glyph glyph-name="imacron" unicode="&#x12b;" horiz-adv-x="96" 
d="M81 495v-495h-63v495h63zM115 555h-132v47h132v-47z" />
    <glyph glyph-name="Ibreve" unicode="&#x12c;" horiz-adv-x="104" 
d="M18 699v-699h68v699h-68zM25 821q0 -11 8 -19.5t19 -8.5t20 8.5t9 19.5h40q0 -26 -20 -46.5t-49 -20.5q-26 0 -46 20t-20 47h39z" />
    <glyph glyph-name="ibreve" unicode="&#x12d;" horiz-adv-x="96" 
d="M18 495v-495h63v495h-63zM23 612q0 -11 8 -19.5t19 -8.5t19.5 8.5t8.5 19.5h40q0 -26 -20 -46.5t-49 -20.5q-26 0 -45.5 20t-19.5 47h39z" />
    <glyph glyph-name="Iogonek" unicode="&#x12e;" horiz-adv-x="104" 
d="M106 -65q-9 -18 -25.5 -25.5t-33.5 -5.5t-29.5 13.5t-12.5 31.5q0 16 7.5 28t20.5 23h-15v699h68v-699h-3q-18 -5 -29.5 -18.5t-10.5 -24.5q1 -18 15.5 -20t24.5 13z" />
    <glyph glyph-name="iogonek" unicode="&#x12f;" horiz-adv-x="96" 
d="M102 -65q-9 -18 -25.5 -25.5t-33.5 -5.5t-29.5 13.5t-12.5 31.5q0 29 28 51h-11v495h63v-495h-2q-18 -5 -29.5 -18.5t-10.5 -24.5q0 -18 15 -20t25 13zM81 620v-86h-63v86h63z" />
    <glyph glyph-name="Idotaccent" unicode="&#x130;" horiz-adv-x="104" 
d="M18 699v-699h68v699h-68zM73 754h-45v69h45v-69z" />
    <glyph glyph-name="dotlessi" unicode="&#x131;" horiz-adv-x="96" 
d="M81 495v-495h-63v495h63z" />
    <glyph glyph-name="IJ" unicode="&#x132;" horiz-adv-x="334" 
d="M86 699v-699h-68v699h68zM210 -6q-16 0 -32 5.5t-29 17.5t-21 30.5t-8 44.5v189h68v-179q0 -28 8 -39.5t19 -11.5h6q11 0 19 11.5t8 39.5v597h68v-607q0 -26 -7.5 -44.5t-20.5 -30.5t-29 -17.5t-33 -5.5h-16z" />
    <glyph glyph-name="ij" unicode="&#x133;" horiz-adv-x="210" 
d="M81 495v-495h-63v495h63zM81 620v-86h-63v86h63zM192 621v-88h-63v88h63zM192 495v-568q0 -43 -24 -67.5t-80 -24.5v53q19 0 30 9.5t11 29.5v568h63z" />
    <glyph glyph-name="Jcircumflex" unicode="&#x134;" horiz-adv-x="228" 
d="M106 -6q-16 0 -32 5.5t-29 17.5t-21 30.5t-8 44.5v189h68v-179q0 -28 8 -39.5t19 -11.5h6q11 0 19 11.5t8 39.5v597h68v-607q0 -26 -7.5 -44.5t-20.5 -30.5t-29 -17.5t-33 -5.5h-16zM209 824l58 -86h-59l-29 54l-29 -54h-60l58 86h61z" />
    <glyph glyph-name="jcircumflex" unicode="&#x135;" horiz-adv-x="135" 
d="M119 495v-568q0 -43 -23.5 -67.5t-79.5 -24.5v53q19 0 30 9.5t11 29.5v568h62zM120 622l58 -86h-60l-29 54l-29 -54h-60l58 86h62z" />
    <glyph glyph-name="uni0136" unicode="&#x136;" horiz-adv-x="227" 
d="M134 362l89 -362h-62l-74 272h-1v-272h-68v699h68v-273h1l76 273h62zM155 -110l-24 -61h-28l15 61h-31v92h68v-92z" />
    <glyph glyph-name="uni0137" unicode="&#x137;" horiz-adv-x="208" 
d="M119 258l87 -258h-64l-62 186v-186h-62v699h62v-377l65 173h60zM144 -111l-24 -61h-29l15 61h-31v92h69v-92z" />
    <glyph glyph-name=".001" unicode="&#x138;" horiz-adv-x="208" 
d="M119 258l87 -258h-64l-62 186v-186h-62v495h62v-173l65 173h60z" />
    <glyph glyph-name="Lacute" unicode="&#x139;" horiz-adv-x="173" 
d="M86 699v-648h84v-51h-152v699h68zM31 738l40 86h59l-58 -86h-41z" />
    <glyph glyph-name="lacute" unicode="&#x13a;" horiz-adv-x="95" 
d="M18 699h63v-699h-63v699zM29 738l40 86h60l-58 -86h-42z" />
    <glyph glyph-name="uni013B" unicode="&#x13b;" horiz-adv-x="173" 
d="M86 699v-648h84v-51h-152v699h68zM125 -122l-24 -61h-29l15 61h-31v92h69v-92z" />
    <glyph glyph-name="lquotesinglbase" unicode="&#x13c;" horiz-adv-x="95" 
d="M18 699h63v-699h-63v699zM83 -113l-24 -61h-28l15 61h-32v92h69v-92z" />
    <glyph glyph-name="Lcaron" unicode="&#x13d;" horiz-adv-x="217" 
d="M18 699v-699h152v51h-84v648h-68zM194 608l-24 -61h-28l15 61h-32v92h69v-92z" />
    <glyph glyph-name="LATIN SMALL LETTER L WITH CARON" unicode="&#x13e;" horiz-adv-x="182" 
d="M18 699h63v-699h-63v699zM170 607l-24 -61h-28l15 61h-31v92h68v-92z" />
    <glyph glyph-name="Ldot" unicode="&#x13f;" horiz-adv-x="214" 
d="M86 699v-648h84v-51h-152v699h68zM203 245h-69v92h69v-92z" />
    <glyph glyph-name="lperiodcentered" unicode="&#x140;" horiz-adv-x="191" 
d="M18 699h63v-699h-63v699zM177 285h-69v92h69v-92z" />
    <glyph glyph-name="Lslash" unicode="&#x141;" horiz-adv-x="231" 
d="M136 699v-278l61 44l24 -41l-85 -61v-312h85v-51h-152v315l-42 -30l-24 41l66 47v326h67z" />
    <glyph glyph-name="lslash" unicode="&#x142;" horiz-adv-x="194" 
d="M55 285l-28 -20l-24 41l52 37v356h62v-311l50 36l24 -40l-74 -54v-330h-62v285z" />
    <glyph glyph-name="Nacute" unicode="&#x143;" horiz-adv-x="255" 
d="M164 0l-91 491h-1v-491h-57v699h77l86 -484v484h62v-699h-76zM106 738l40 86h60l-58 -86h-42z" />
    <glyph glyph-name="nacute" unicode="&#x144;" horiz-adv-x="209" 
d="M107 445q-9 0 -17.5 -11t-10.5 -29v-405h-63v495h63v-26q12 13 25.5 21t27.5 8h2q35 0 48 -24.5t13 -67.5v-406h-63v404q0 22 -6.5 31.5t-16.5 9.5h-2zM71 535l40 86h60l-58 -86h-42z" />
    <glyph glyph-name="uni0145" unicode="&#x145;" horiz-adv-x="255" 
d="M164 0l-91 491h-1v-491h-57v699h77l86 -484v484h62v-699h-76zM150 -110l-24 -61h-28l15 61h-32v92h69v-92z" />
    <glyph glyph-name="uni0146" unicode="&#x146;" horiz-adv-x="209" 
d="M107 445q-9 0 -17.5 -11t-10.5 -29v-405h-63v495h63v-26q12 13 25.5 21t27.5 8h2q35 0 48 -24.5t13 -67.5v-406h-63v404q0 22 -6.5 31.5t-16.5 9.5h-2zM141 -111l-24 -61h-29l15 61h-31v92h69v-92z" />
    <glyph glyph-name="Ncaron" unicode="&#x147;" horiz-adv-x="255" 
d="M164 0l-91 491h-1v-491h-57v699h77l86 -484v484h62v-699h-76zM97 739l-58 86h59l29 -54l29 54h60l-58 -86h-61z" />
    <glyph glyph-name="ncaron" unicode="&#x148;" horiz-adv-x="209" 
d="M109 445q10 0 16.5 -9.5t6.5 -31.5v-404h63v406q0 43 -13 67.5t-48 24.5h-2q-14 0 -27.5 -8t-25.5 -21v26h-63v-495h63v405q2 18 10.5 29t17.5 11h2zM76 537l-58 86h60l29 -54l29 54h59l-58 -86h-61z" />
    <glyph glyph-name="napostrophe" unicode="&#x149;" horiz-adv-x="282" 
d="M182 445q10 0 17 -9.5t7 -31.5v-404h62v406q0 43 -13 67.5t-47 24.5h-3q-14 0 -27.5 -8t-25.5 -21v26h-63v-495h63v405q2 18 10.5 29t17.5 11h2zM81 589l-24 -61h-28l15 61h-31v92h68v-92z" />
    <glyph glyph-name="Eng" unicode="&#x14a;" horiz-adv-x="253" 
d="M162 0l-91 495h-1v-495h-54v699h76l86 -488v488h59v-772q0 -43 -30 -67.5t-86 -24.5v53q19 0 30 9.5t11 29.5v73z" />
    <glyph glyph-name="eng" unicode="&#x14b;" horiz-adv-x="209" 
d="M107 445q-9 0 -17.5 -11t-10.5 -29v-405h-63v495h63v-26q12 13 25.5 21t27.5 8h2q35 0 48 -24.5t13 -67.5v-479q0 -43 -24 -67.5t-79 -24.5v53q40 0 40 39v477q0 22 -6.5 31.5t-16.5 9.5h-2z" />
    <glyph glyph-name="Omacron" unicode="&#x14c;" horiz-adv-x="228" 
d="M106 -6q-17 0 -33 5.5t-28.5 17.5t-20.5 30.5t-8 44.5v515q0 26 8 44.5t20.5 30.5t28.5 17.5t33 5.5h16q16 0 32.5 -5.5t29 -17.5t20.5 -30.5t8 -44.5v-515q0 -26 -8 -44.5t-20.5 -30.5t-29 -17.5t-32.5 -5.5h-16zM111 648q-11 0 -19 -12t-8 -39v-495q0 -28 8 -39.5
t19 -11.5h6q11 0 19 11.5t8 39.5v495q0 27 -8 39t-19 12h-6zM180 759h-133v47h133v-47z" />
    <glyph glyph-name="omacron" unicode="&#x14d;" 
d="M96 -3q-35 0 -58 24.5t-23 67.5v317q1 43 23.5 67.5t57.5 24.5h16q34 0 57.5 -24.5t23.5 -67.5v-317q0 -43 -23.5 -67.5t-57.5 -24.5h-16zM102 445q-10 0 -17 -10t-7 -31v-313q0 -22 7 -31.5t17 -9.5h5q10 0 16.5 9.5t6.5 31.5v313q0 21 -6.5 31t-16.5 10h-5zM170 557
h-133v46h133v-46z" />
    <glyph glyph-name="Obreve" unicode="&#x14e;" horiz-adv-x="228" 
d="M106 -6q-17 0 -33 5.5t-28.5 17.5t-20.5 30.5t-8 44.5v515q0 26 8 44.5t20.5 30.5t28.5 17.5t33 5.5h16q16 0 32.5 -5.5t29 -17.5t20.5 -30.5t8 -44.5v-515q0 -26 -8 -44.5t-20.5 -30.5t-29 -17.5t-32.5 -5.5h-16zM111 648q-11 0 -19 -12t-8 -39v-495q0 -28 8 -39.5
t19 -11.5h6q11 0 19 11.5t8 39.5v495q0 27 -8 39t-19 12h-6zM87 816q0 -11 8.5 -19.5t19.5 -8.5t19.5 8.5t8.5 19.5h40q0 -26 -20 -46.5t-49 -20.5q-26 0 -46 20t-20 47h39z" />
    <glyph glyph-name="obreve" unicode="&#x14f;" 
d="M96 -3q-35 0 -58 24.5t-23 67.5v317q1 43 23.5 67.5t57.5 24.5h16q34 0 57.5 -24.5t23.5 -67.5v-317q0 -43 -23.5 -67.5t-57.5 -24.5h-16zM102 445q-10 0 -17 -10t-7 -31v-313q0 -22 7 -31.5t17 -9.5h5q10 0 16.5 9.5t6.5 31.5v313q0 21 -6.5 31t-16.5 10h-5zM77 613
q0 -11 8.5 -19.5t19.5 -8.5t19.5 8.5t8.5 19.5h40q0 -26 -20 -46.5t-49 -20.5q-26 0 -46 20t-20 47h39z" />
    <glyph glyph-name="Ohungarumlaut" unicode="&#x150;" horiz-adv-x="228" 
d="M106 -6q-17 0 -33 5.5t-28.5 17.5t-20.5 30.5t-8 44.5v515q0 26 8 44.5t20.5 30.5t28.5 17.5t33 5.5h16q16 0 32.5 -5.5t29 -17.5t20.5 -30.5t8 -44.5v-515q0 -26 -8 -44.5t-20.5 -30.5t-29 -17.5t-32.5 -5.5h-16zM111 648q-11 0 -19 -12t-8 -39v-495q0 -28 8 -39.5
t19 -11.5h6q11 0 19 11.5t8 39.5v495q0 27 -8 39t-19 12h-6zM130 736l40 86h60l-58 -86h-42zM52 736l40 86h60l-58 -86h-42z" />
    <glyph glyph-name="ohungarumlaut" unicode="&#x151;" 
d="M96 -3q-35 0 -58 24.5t-23 67.5v317q1 43 23.5 67.5t57.5 24.5h16q34 0 57.5 -24.5t23.5 -67.5v-317q0 -43 -23.5 -67.5t-57.5 -24.5h-16zM102 445q-10 0 -17 -10t-7 -31v-313q0 -22 7 -31.5t17 -9.5h5q10 0 16.5 9.5t6.5 31.5v313q0 21 -6.5 31t-16.5 10h-5zM120 533
l40 86h60l-58 -86h-42zM42 533l40 86h60l-58 -86h-42z" />
    <glyph glyph-name="OE" unicode="&#x152;" horiz-adv-x="332" 
d="M106 -6q-17 0 -33 5.5t-28.5 17.5t-20.5 30.5t-8 44.5v515q0 26 8 44.5t20.5 30.5t28.5 17.5t33 5.5h16h6h180v-60h-102q6 -17 6 -38v-232h77v-51h-77v-232q0 -22 -6 -38h108v-60h-186h-6h-16zM111 648q-11 0 -19 -12t-8 -39v-495q0 -28 8 -39.5t19 -11.5h6q11 0 19 11.5
t8 39.5v495q0 27 -8 39t-19 12h-6z" />
    <glyph glyph-name="oe" unicode="&#x153;" horiz-adv-x="321" 
d="M96 -3q-35 0 -58 24.5t-23 67.5v317q1 43 23.5 67.5t57.5 24.5h16q27 0 49 -17q20 17 49 17h16q35 0 58.5 -24t23.5 -68v-173h-115v-142q0 -22 7 -31.5t15 -9.5h7q9 0 16 9.5t7 31.5v115h63v-116q0 -45 -23.5 -69t-58.5 -24h-18q-27 0 -47 17q-22 -17 -49 -17h-16z
M102 445q-10 0 -17 -10t-7 -31v-313q0 -22 7 -31.5t17 -9.5h5q10 0 16.5 9.5t6.5 30.5v314q0 21 -6.5 31t-16.5 10h-5zM193 277h52v127q0 21 -7 31t-16 10h-5q-10 0 -17 -9.5t-7 -29.5v-129z" />
    <glyph glyph-name="Racute" unicode="&#x154;" horiz-adv-x="236" 
d="M214 417q0 -32 -10 -47.5t-25 -20.5q15 -4 25 -19.5t10 -47.5v-163q0 -63 4 -88.5t7 -30.5h-68q-7 12 -9 40t-2 79v157q0 48 -24 48h-36v-324h-68v699h107q36 0 62.5 -24.5t26.5 -72.5v-185zM122 374q24 0 24 47v171q0 26 -8 38t-20 12h-32v-268h36zM84 738l40 86h60
l-58 -86h-42z" />
    <glyph glyph-name="racute" unicode="&#x155;" horiz-adv-x="208" 
d="M107 445q-10 0 -19 -12.5t-9 -33.5v-399h-63v495h63v-26q12 13 25.5 21t27.5 8h2q37 0 51 -31q10 -21 10 -61v-115h-63v113q0 22 -6.5 31.5t-16.5 9.5h-2zM78 535l40 86h59l-58 -86h-41z" />
    <glyph glyph-name="uni0156" unicode="&#x156;" horiz-adv-x="236" 
d="M214 417q0 -32 -10 -47.5t-25 -20.5q15 -4 25 -19.5t10 -47.5v-163q0 -63 4 -88.5t7 -30.5h-68q-7 12 -9 40t-2 79v157q0 48 -24 48h-36v-324h-68v699h107q36 0 62.5 -24.5t26.5 -72.5v-185zM122 374q24 0 24 47v171q0 26 -8 38t-20 12h-32v-268h36zM151 -122l-24 -61
h-28l15 61h-32v92h69v-92z" />
    <glyph glyph-name="uni0157" unicode="&#x157;" horiz-adv-x="208" 
d="M107 445q-9 0 -17.5 -11t-10.5 -29v-405h-63v495h63v-26q12 13 25.5 21t27.5 8h2q37 0 51 -31q10 -21 10 -61v-115h-63v113q0 22 -6.5 31.5t-16.5 9.5h-2zM147 -122l-24 -61h-28l15 61h-31v92h68v-92z" />
    <glyph glyph-name="Rcaron" unicode="&#x158;" horiz-adv-x="236" 
d="M214 602q0 48 -26.5 72.5t-62.5 24.5h-107v-699h68v324h36q24 0 24 -48v-157q0 -51 2 -79t9 -40h68q-3 5 -7 30.5t-4 88.5v163q0 32 -10 47.5t-25 19.5q15 5 25 20.5t10 47.5v185zM86 374v268h32q12 0 20 -12t8 -38v-171q0 -47 -24 -47h-36zM74 739l-58 86h60l29 -54
l29 54h60l-58 -86h-62z" />
    <glyph glyph-name="rcaron" unicode="&#x159;" horiz-adv-x="208" 
d="M109 445q10 0 16.5 -9.5t6.5 -31.5v-113h63v115q0 40 -10 61q-14 31 -51 31h-2q-14 0 -27.5 -8t-25.5 -21v26h-63v-495h63v405q2 18 10.5 29t17.5 11h2zM68 537l-58 86h60l29 -54l29 54h59l-58 -86h-61z" />
    <glyph glyph-name="Sacute" unicode="&#x15a;" horiz-adv-x="228" 
d="M144 418v180q0 27 -8 38.5t-19 11.5h-6q-11 0 -19 -11t-8 -40v-89q0 -48 20 -84t44 -69t44 -68.5t20 -84.5v-110q0 -26 -7.5 -44.5t-20.5 -30.5t-29 -17.5t-33 -5.5h-14q-17 0 -33 5.5t-29.5 17.5t-21.5 30.5t-8 44.5v190h62v-180q0 -28 9 -39.5t22 -11.5h5
q13 0 21.5 11.5t8.5 39.5v89q0 48 -20 83.5t-44 68.5t-44 69t-20 85v110q0 26 8 44.5t21 30.5t29 17.5t33 5.5h10q16 0 32 -5.5t29 -17.5t20.5 -30.5t7.5 -44.5v-189h-62zM92 738l40 86h60l-58 -86h-42z" />
    <glyph glyph-name="sacute" unicode="&#x15b;" 
d="M130 300v104q0 20 -7 30.5t-17 10.5h-4q-10 0 -17 -10.5t-7 -30.5v-51q0 -32 18 -54.5t39 -44t39 -46.5t18 -62v-57q0 -43 -23 -67.5t-57 -24.5h-15q-35 0 -58.5 24.5t-23.5 67.5v106h57v-104q0 -20 7.5 -30.5t19.5 -10.5h5q11 0 18.5 10.5t7.5 30.5v51q0 31 -18 53
t-39.5 43.5t-39.5 47t-18 63.5v57q0 43 23 67.5t58 24.5h9q35 0 58 -24.5t23 -67.5v-106h-56zM79 535l40 86h60l-58 -86h-42z" />
    <glyph glyph-name="Scircumflex" unicode="&#x15c;" horiz-adv-x="228" 
d="M144 418v180q0 27 -8 38.5t-19 11.5h-6q-11 0 -19 -11t-8 -40v-89q0 -48 20 -84t44 -69t44 -68.5t20 -84.5v-110q0 -26 -7.5 -44.5t-20.5 -30.5t-29 -17.5t-33 -5.5h-14q-17 0 -33 5.5t-29.5 17.5t-21.5 30.5t-8 44.5v190h62v-180q0 -28 9 -39.5t22 -11.5h5
q13 0 21.5 11.5t8.5 39.5v89q0 48 -20 83.5t-44 68.5t-44 69t-20 85v110q0 26 8 44.5t21 30.5t29 17.5t33 5.5h10q16 0 32 -5.5t29 -17.5t20.5 -30.5t7.5 -44.5v-189h-62zM145 824l58 -86h-60l-29 54l-29 -54h-59l58 86h61z" />
    <glyph glyph-name="scircumflex" unicode="&#x15d;" 
d="M130 300v104q0 20 -7 30.5t-17 10.5h-4q-10 0 -17 -10.5t-7 -30.5v-51q0 -32 18 -54.5t39 -44t39 -46.5t18 -62v-57q0 -43 -23 -67.5t-57 -24.5h-15q-35 0 -58.5 24.5t-23.5 67.5v106h57v-104q0 -20 7.5 -30.5t19.5 -10.5h5q11 0 18.5 10.5t7.5 30.5v51q0 31 -18 53
t-39.5 43.5t-39.5 47t-18 63.5v57q0 43 23 67.5t58 24.5h9q35 0 58 -24.5t23 -67.5v-106h-56zM132 621l58 -86h-60l-29 54l-29 -54h-59l58 86h61z" />
    <glyph glyph-name="Scedilla" unicode="&#x15e;" horiz-adv-x="228" 
d="M61 -69q9 -7 22 -10t24 -1.5t18.5 7.5t6.5 17q-2 12 -15 15.5t-24 -3.5l-14 5l17 34q-31 4 -55.5 26.5t-24.5 70.5v190h62v-180q0 -28 9 -39.5t22 -11.5h5q13 0 21.5 11.5t8.5 39.5v89q0 48 -20 83.5t-44 68.5t-44 69t-20 85v110q0 26 8 44.5t21 30.5t29 17.5t33 5.5h10
q16 0 32 -5.5t29 -17.5t20.5 -30.5t7.5 -44.5v-189h-62v180q0 27 -8 38.5t-19 11.5h-6q-11 0 -19 -11t-8 -40v-89q0 -48 20 -84t44 -69t44 -68.5t20 -84.5v-110q0 -48 -24 -70.5t-54 -26.5l-8 -21q18 8 34.5 -0.5t16.5 -28.5q0 -26 -15 -39.5t-35.5 -18t-41 -0.5t-31.5 13z
" />
    <glyph glyph-name="scedilla" unicode="&#x15f;" 
d="M50 -68q9 -6 22 -9t24 -1.5t18.5 7.5t6.5 17q-1 12 -14.5 15.5t-24.5 -4.5l-14 6l18 35q-32 3 -51.5 27t-19.5 64v106h57v-104q0 -20 7.5 -30.5t19.5 -10.5h5q11 0 18.5 10.5t7.5 30.5v51q0 31 -18 53t-39.5 43.5t-39.5 47t-18 63.5v57q0 43 23 67.5t58 24.5h9
q35 0 58 -24.5t23 -67.5v-106h-56v104q0 20 -7 30.5t-17 10.5h-4q-10 0 -17 -10.5t-7 -30.5v-51q0 -32 18 -54.5t39 -44t39 -46.5t18 -62v-57q0 -39 -19.5 -63t-48.5 -28l-9 -22q18 8 35 -0.5t17 -28.5q0 -26 -15.5 -39.5t-36 -18t-41 -0.5t-31.5 13z" />
    <glyph glyph-name="Scaron" unicode="&#x160;" horiz-adv-x="228" 
d="M206 418v189q0 26 -7.5 44.5t-20.5 30.5t-29 17.5t-32 5.5h-10q-17 0 -33 -5.5t-29 -17.5t-21 -30.5t-8 -44.5v-110q0 -49 20 -85t44 -69t44 -68.5t20 -83.5v-89q0 -28 -8.5 -39.5t-21.5 -11.5h-5q-13 0 -22 11.5t-9 39.5v180h-62v-190q0 -26 8 -44.5t21.5 -30.5
t29.5 -17.5t33 -5.5h14q17 0 33 5.5t29 17.5t20.5 30.5t7.5 44.5v110q0 49 -20 84.5t-44 68.5t-44 69t-20 84v89q0 29 8 40t19 11h6q11 0 19 -11.5t8 -38.5v-180h62zM83 740l-58 86h59l29 -54l29 54h60l-58 -86h-61z" />
    <glyph glyph-name="scaron" unicode="&#x161;" 
d="M186 300v106q0 43 -23 67.5t-58 24.5h-9q-35 0 -58 -24.5t-23 -67.5v-57q0 -38 18 -63.5t39.5 -47t39.5 -43.5t18 -53v-51q0 -20 -7.5 -30.5t-18.5 -10.5h-5q-12 0 -19.5 10.5t-7.5 30.5v104h-57v-106q0 -43 23.5 -67.5t58.5 -24.5h15q34 0 57 24.5t23 67.5v57
q0 37 -18 62t-39 46.5t-39 44t-18 54.5v51q0 20 7 30.5t17 10.5h4q10 0 17 -10.5t7 -30.5v-104h56zM70 537l-58 86h59l29 -54l29 54h60l-58 -86h-61z" />
    <glyph glyph-name="Tcedilla" unicode="&#x162;" horiz-adv-x="207" 
d="M204 642h-67v-642h-67v642h-67v57h201v-57zM42 -95l6 30q9 -6 22 -9t24.5 -1.5t19 7.5t6.5 17q-2 12 -15 15.5t-24 -4.5l-14 6l17 34h38l-8 -21q18 8 34.5 -0.5t16.5 -28.5q0 -26 -15.5 -39.5t-35.5 -18t-41 -0.5t-31 13z" />
    <glyph glyph-name="tcedilla" unicode="&#x163;" horiz-adv-x="145" 
d="M95 657v-162h41v-53h-41v-353q0 -22 11 -33t30 -7v-50q-2 0 -4.5 -0.5t-4.5 -0.5l-7 -18q18 8 35 -0.5t17 -28.5q0 -26 -15.5 -39.5t-36 -18t-41 -1t-31.5 13.5l7 30q9 -6 22 -9t24 -1.5t18.5 7.5t6.5 17q-2 12 -15 15.5t-24 -4.5l-14 5l17 34q-31 8 -44.5 32t-13.5 57
v353h-24v53h24v156z" />
    <glyph glyph-name="Tcaron" unicode="&#x164;" horiz-adv-x="207" 
d="M204 699h-201v-57h67v-642h67v642h67v57zM72 739l-58 86h60l29 -54l29 54h60l-58 -86h-62z" />
    <glyph glyph-name="tcaron" unicode="&#x165;" horiz-adv-x="229" 
d="M95 657v-162h41v-53h-41v-353q0 -22 11 -33t30 -7v-50q-28 -4 -47.5 1.5t-32 18t-18.5 31t-6 39.5v353h-24v53h24v156zM211 564l-24 -60h-29l15 60h-31v93h69v-93z" />
    <glyph glyph-name="_0144" unicode="&#x166;" horiz-adv-x="207" 
d="M179 323h-42v-323h-67v323h-43v46h43v273h-67v57h201v-57h-67v-273h42v-46z" />
    <glyph glyph-name="tbar" unicode="&#x167;" horiz-adv-x="145" 
d="M95 657v-162h41v-53h-41v-77h41v-53h-41v-223q0 -22 11 -33t30 -7v-50q-28 -4 -47.5 1.5t-32 18t-18.5 31t-6 39.5v223h-24v53h24v77h-24v53h24v156z" />
    <glyph glyph-name="Utilde" unicode="&#x168;" horiz-adv-x="230" 
d="M108 -6q-17 0 -33 5.5t-28.5 17.5t-20.5 30.5t-8 44.5v607h68v-597q0 -28 8 -39.5t19 -11.5h6q11 0 19 11.5t8 39.5v597h68v-607q0 -26 -8 -44.5t-20.5 -30.5t-29 -17.5t-32.5 -5.5h-16zM24 778q18 34 46 34q17 0 32.5 -10t32.5 -10q13 0 26 14l31 -20q-11 -19 -23 -25.5
t-25 -6.5q-18 0 -33 9.5t-29 9.5q-8 0 -15 -3t-15 -11z" />
    <glyph glyph-name="utilde" unicode="&#x169;" horiz-adv-x="208" 
d="M100 50q-10 0 -16.5 9.5t-6.5 31.5v404h-63v-406q0 -43 13 -67.5t48 -24.5h3q13 0 26.5 7.5t25.5 20.5v-25h63v495h-63v-399q0 -21 -8.5 -33.5t-19.5 -12.5h-2zM21 574q9 18 21 26t24 8q17 0 32.5 -10t32.5 -10q13 0 27 14l30 -20q-11 -19 -22.5 -25.5t-25.5 -6.5
q-18 0 -33 9.5t-29 9.5q-8 0 -14.5 -3t-14.5 -11z" />
    <glyph glyph-name="Umacron" unicode="&#x16a;" horiz-adv-x="230" 
d="M108 -6q-17 0 -33 5.5t-28.5 17.5t-20.5 30.5t-8 44.5v607h68v-597q0 -28 8 -39.5t19 -11.5h6q11 0 19 11.5t8 39.5v597h68v-607q0 -26 -8 -44.5t-20.5 -30.5t-29 -17.5t-32.5 -5.5h-16zM173 759h-133v47h133v-47z" />
    <glyph glyph-name="umacron" unicode="&#x16b;" horiz-adv-x="208" 
d="M102 50q10 0 18 10.5t10 29.5v405h63v-495h-63v25q-12 -13 -25.5 -20.5t-26.5 -7.5h-3q-35 0 -48 24.5t-13 67.5v406h63v-404q0 -22 6.5 -31.5t16.5 -9.5h2zM169 555h-132v47h132v-47z" />
    <glyph glyph-name="Ubreve" unicode="&#x16c;" horiz-adv-x="230" 
d="M108 -6q-17 0 -33 5.5t-28.5 17.5t-20.5 30.5t-8 44.5v607h68v-597q0 -28 8 -39.5t19 -11.5h6q11 0 19 11.5t8 39.5v597h68v-607q0 -26 -8 -44.5t-20.5 -30.5t-29 -17.5t-32.5 -5.5h-16zM80 816q0 -11 8.5 -19.5t19.5 -8.5t19.5 8.5t8.5 19.5h40q0 -26 -20 -46.5
t-49 -20.5q-26 0 -46 20t-20 47h39z" />
    <glyph glyph-name="ubreve" unicode="&#x16d;" horiz-adv-x="208" 
d="M100 50q-10 0 -16.5 9.5t-6.5 31.5v404h-63v-406q0 -43 13 -67.5t48 -24.5h3q13 0 26.5 7.5t25.5 20.5v-25h63v495h-63v-405q-2 -19 -10 -29.5t-18 -10.5h-2zM77 612q0 -11 8 -19.5t19 -8.5t19.5 8.5t8.5 19.5h41q0 -26 -20 -46.5t-49 -20.5q-26 0 -46 20t-20 47h39z" />
    <glyph glyph-name="Uring" unicode="&#x16e;" horiz-adv-x="230" 
d="M108 -6q-17 0 -33 5.5t-28.5 17.5t-20.5 30.5t-8 44.5v607h68v-597q0 -28 8 -39.5t19 -11.5h6q11 0 19 11.5t8 39.5v597h68v-607q0 -26 -8 -44.5t-20.5 -30.5t-29 -17.5t-32.5 -5.5h-16zM107 729q-23 0 -42 18.5t-19 42.5q0 26 18 45.5t43 19.5q26 0 45 -19t19 -46
q0 -23 -18.5 -42t-45.5 -19zM107 819q-10 0 -18.5 -8.5t-8.5 -19.5t8.5 -19t18.5 -8q11 0 19.5 8t8.5 19t-8.5 19.5t-19.5 8.5z" />
    <glyph glyph-name="uring" unicode="&#x16f;" horiz-adv-x="208" 
d="M100 50q-10 0 -16.5 9.5t-6.5 31.5v404h-63v-406q0 -43 13 -67.5t48 -24.5h3q13 0 26.5 7.5t25.5 20.5v-25h63v495h-63v-399q0 -21 -8.5 -33.5t-19.5 -12.5h-2zM104 525q-24 0 -43 18.5t-19 42.5q0 26 18 45.5t43 19.5q26 0 45 -19t19 -46q0 -23 -18.5 -42t-44.5 -19z
M104 615q-11 0 -19.5 -8.5t-8.5 -19.5t8.5 -19t19.5 -8t19.5 8t8.5 19t-8.5 19.5t-19.5 8.5z" />
    <glyph glyph-name="Uhungarumlaut" unicode="&#x170;" horiz-adv-x="230" 
d="M108 -6q-17 0 -33 5.5t-28.5 17.5t-20.5 30.5t-8 44.5v607h68v-597q0 -28 8 -39.5t19 -11.5h6q11 0 19 11.5t8 39.5v597h68v-607q0 -26 -8 -44.5t-20.5 -30.5t-29 -17.5t-32.5 -5.5h-16zM37 736l40 86h60l-58 -86h-42zM115 736l40 86h60l-58 -86h-42z" />
    <glyph glyph-name="uhungarumlaut" unicode="&#x171;" horiz-adv-x="208" 
d="M102 50q11 0 19.5 12.5t8.5 33.5v399h63v-495h-63v25q-12 -13 -25.5 -20.5t-26.5 -7.5h-3q-35 0 -48 24.5t-13 67.5v406h63v-404q0 -22 6.5 -31.5t16.5 -9.5h2zM42 532l40 86h60l-58 -86h-42zM120 532l40 86h60l-58 -86h-42z" />
    <glyph glyph-name="Uogonek" unicode="&#x172;" horiz-adv-x="230" 
d="M170 -71q-9 -18 -25.5 -25.5t-33.5 -5.5t-29.5 13.5t-12.5 31.5q0 16 7.5 28.5t20.5 23.5q-30 3 -54.5 25.5t-24.5 71.5v607h68v-597q0 -28 8 -39.5t19 -11.5h6q11 0 19 11.5t8 39.5v597h68v-607q0 -45 -21 -67.5t-49 -28.5q-17 -8 -27.5 -21t-9.5 -24q0 -18 15 -20
t25 13z" />
    <glyph glyph-name="uogonek" unicode="&#x173;" horiz-adv-x="208" 
d="M102 50q11 0 19.5 12.5t8.5 33.5v399h63v-495h2q-18 -5 -29 -18.5t-11 -24.5q1 -18 15.5 -20t25.5 13l22 -15q-8 -18 -25 -25.5t-33.5 -5.5t-29 13.5t-12.5 31.5q0 29 28 51h-16v25q-12 -13 -25.5 -20.5t-26.5 -7.5h-3q-35 0 -48 24.5t-13 67.5v406h63v-404
q0 -22 6.5 -31.5t16.5 -9.5h2z" />
    <glyph glyph-name="Wcircumflex" unicode="&#x174;" horiz-adv-x="339" 
d="M53 0l-52 699h65l32 -466h2l43 466h54l47 -466h2l33 466h59l-52 -699h-67l-48 433h-1l-42 -433h-75zM199 824l58 -86h-59l-29 54l-29 -54h-60l58 86h61z" />
    <glyph glyph-name="wcircumflex" unicode="&#x175;" horiz-adv-x="321" 
d="M52 0l-50 495h59l31 -330h1l42 330h55l43 -330h1l32 330h53l-51 -495h-69l-41 358h-2l-35 -358h-69zM193 620l58 -86h-59l-30 55l-29 -55h-59l58 86h61z" />
    <glyph glyph-name="Ycircumflex" unicode="&#x176;" horiz-adv-x="224" 
d="M146 262v-262h-68v262l-75 437h67l41 -283h2l41 283h67zM143 824l58 -86h-59l-30 55l-29 -55h-59l58 86h61z" />
    <glyph glyph-name="ycircumflex" unicode="&#x177;" horiz-adv-x="187" 
d="M134 495h51l-67 -660h-62l19 165l-73 495h57l37 -320h3zM128 620l58 -86h-60l-29 54l-29 -54h-59l58 86h61z" />
    <glyph glyph-name="Ydieresis" unicode="&#x178;" horiz-adv-x="224" 
d="M221 699h-67l-41 -283h-2l-41 283h-67l75 -437v-262h68v262zM95 749h-44v68h44v-68zM174 749h-45v68h45v-68z" />
    <glyph glyph-name="Zacute" unicode="&#x179;" horiz-adv-x="218" 
d="M209 0h-200v49l122 599h-104v51h172v-49l-122 -599h132v-51zM87 738l40 86h60l-58 -86h-42z" />
    <glyph glyph-name="zacute" unicode="&#x17a;" horiz-adv-x="181" 
d="M177 0h-175v51l113 393h-102v51h163v-50l-112 -394h113v-51zM72 535l40 86h60l-58 -86h-42z" />
    <glyph glyph-name="Zdotaccent" unicode="&#x17b;" horiz-adv-x="218" 
d="M209 0h-200v49l122 599h-104v51h172v-49l-122 -599h132v-51zM130 750h-45v68h45v-68z" />
    <glyph glyph-name="zdotaccent" unicode="&#x17c;" horiz-adv-x="181" 
d="M177 0h-175v51l113 393h-102v51h163v-50l-112 -394h113v-51zM115 546h-45v69h45v-69z" />
    <glyph glyph-name="Zcaron" unicode="&#x17d;" horiz-adv-x="218" 
d="M209 0h-200v49l122 599h-104v51h172v-49l-122 -599h132v-51zM78 740l-58 86h59l29 -54l29 54h60l-58 -86h-61z" />
    <glyph glyph-name="zcaron" unicode="&#x17e;" horiz-adv-x="181" 
d="M177 0h-175v51l113 393h-102v51h163v-50l-112 -394h113v-51zM63 537l-58 86h59l29 -54l29 54h60l-58 -86h-61z" />
    <glyph glyph-name="longs" unicode="&#x17f;" horiz-adv-x="166" 
d="M15 495h25v119q0 21 7.5 40t23 32t38.5 17.5t55 -2.5v-50q-9 1 -20 0t-20.5 -6t-15.5 -14t-6 -22v-609h-62v442h-25v53z" />
    <glyph glyph-name="florin" unicode="&#x192;" horiz-adv-x="223" 
d="M143 442v-521q0 -22 -7.5 -41t-23.5 -32t-39.5 -17.5t-54.5 2.5v50q9 -2 20 -0.5t20.5 6.5t15.5 14t6 23v516h-60v53h60v119q0 21 7.5 40t23.5 32t39 17.5t55 -2.5v-50q-9 1 -20 0t-20.5 -6t-15.5 -14t-6 -22v-114h60v-53h-60z" />
    <glyph glyph-name="circumflex" unicode="&#x2c6;" horiz-adv-x="213" 
d="M137 675l58 -86h-59l-29 54l-29 -54h-60l58 86h61z" />
    <glyph glyph-name="caron" unicode="&#x2c7;" horiz-adv-x="233" 
d="M86 590l-58 86h60l29 -54l29 54h59l-58 -86h-61z" />
    <glyph glyph-name="breve" unicode="&#x2d8;" horiz-adv-x="191" 
d="M67 667q0 -11 8 -19.5t19 -8.5t20 8.5t9 19.5h40q0 -26 -20 -46.5t-49 -20.5q-26 0 -46 20t-20 47h39z" />
    <glyph glyph-name="dotaccent" unicode="&#x2d9;" horiz-adv-x="101" 
d="M73 600h-45v68h45v-68z" />
    <glyph glyph-name="ring" unicode="&#x2da;" horiz-adv-x="181" 
d="M90 568q-24 0 -43 18.5t-19 42.5q0 26 18 45.5t43 19.5q26 0 45 -19t19 -46q0 -23 -18.5 -42t-44.5 -19zM90 658q-11 0 -19.5 -8.5t-8.5 -19.5t8.5 -19t19.5 -8t19.5 8t8.5 19t-8.5 19.5t-19.5 8.5z" />
    <glyph glyph-name="ogonek" unicode="&#x2db;" horiz-adv-x="157" 
d="M129 -65q-9 -18 -25.5 -25.5t-33.5 -5.5t-29.5 13.5t-12.5 31.5q0 29 28 51h49q-17 -5 -28.5 -18.5t-10.5 -24.5q0 -18 15 -20t25 13z" />
    <glyph glyph-name="tilde" unicode="&#x2dc;" horiz-adv-x="223" 
d="M28 629q9 18 21 26t24 8q17 0 33 -10t33 -10q12 0 26 14l30 -19q-11 -19 -22.5 -26t-24.5 -7q-18 0 -33.5 9.5t-29.5 9.5q-8 0 -14.5 -3t-14.5 -11z" />
    <glyph glyph-name="hungarumlaut" unicode="&#x2dd;" horiz-adv-x="234" 
d="M106 587l40 86h60l-58 -86h-42zM28 587l40 86h60l-58 -86h-42z" />
    <glyph glyph-name="endash" unicode="&#x2013;" horiz-adv-x="326" 
d="M308 327h-290v46h290v-46z" />
    <glyph glyph-name="emdash" unicode="&#x2014;" horiz-adv-x="465" 
d="M448 327h-430v46h430v-46z" />
    <glyph glyph-name="quoteleft" unicode="&#x2018;" horiz-adv-x="131" 
d="M28 625l24 60h29l-15 -60h31v-93h-69v93z" />
    <glyph glyph-name="quoteright" unicode="&#x2019;" horiz-adv-x="131" 
d="M103 589l-24 -61h-29l15 61h-31v92h69v-92z" />
    <glyph glyph-name="quotesinglbase" unicode="&#x201a;" horiz-adv-x="131" 
d="M103 0l-24 -60h-29l15 60h-31v92h69v-92z" />
    <glyph glyph-name="quotedblleft" unicode="&#x201c;" horiz-adv-x="244" 
d="M28 625l24 60h29l-15 -60h31v-93h-69v93zM141 625l24 60h28l-15 -60h32v-93h-69v93z" />
    <glyph glyph-name="quotedblright" unicode="&#x201d;" horiz-adv-x="244" 
d="M103 607l-24 -61h-29l15 61h-31v92h69v-92zM216 607l-24 -61h-29l15 61h-31v92h69v-92z" />
    <glyph glyph-name="quotedblbase" unicode="&#x201e;" horiz-adv-x="244" 
d="M103 0l-24 -60h-29l15 60h-31v93h69v-93zM216 0l-24 -60h-29l15 60h-31v93h69v-93z" />
    <glyph glyph-name="dagger" unicode="&#x2020;" horiz-adv-x="200" 
d="M131 699v-264h51v-53h-51v-547h-63v547h-50v53h50v264h63z" />
    <glyph glyph-name="daggerdbl" unicode="&#x2021;" horiz-adv-x="200" 
d="M131 699v-264h51v-53h-51v-230h51v-53h-51v-264h-63v264h-50v53h50v230h-50v53h50v264h63z" />
    <glyph glyph-name="bullet" unicode="&#x2022;" horiz-adv-x="138" 
d="M69 196q-23 0 -38 16t-15 36q0 25 16.5 39t36.5 14q24 0 38 -17t14 -36q0 -25 -16.5 -38.5t-35.5 -13.5z" />
    <glyph glyph-name="ellipsis" unicode="&#x2026;" horiz-adv-x="350" 
d="M97 0h-69v92h69v-92zM210 0h-69v92h69v-92zM322 0h-68v92h68v-92z" />
    <glyph glyph-name="perthousand" unicode="&#x2030;" horiz-adv-x="609" 
d="M311 699l-242 -699h49l242 699h-49zM85 303q-29 0 -49 21t-20 59v242q1 38 20.5 59t48.5 21h15q29 0 49 -21t20 -59v-242q0 -38 -20 -59t-49 -21h-15zM91 663q-10 0 -17 -9.5t-7 -30.5v-239q0 -20 7 -29t17 -9h5q9 0 16 9t7 29v239q0 21 -7 30.5t-16 9.5h-5zM332 -6
q-29 0 -49 21t-20 59v245q0 38 20 59t49 21h14q29 0 49.5 -21t20.5 -59v-245q0 -38 -20.5 -59t-49.5 -21h-14zM337 356q-9 0 -16 -9.5t-7 -29.5v-242q0 -20 7 -29.5t16 -9.5h6q9 0 15.5 9.5t6.5 29.5v242q0 20 -6.5 29.5t-15.5 9.5h-6zM509 -6q-29 0 -49 21t-20 59v245
q0 38 20 59t49 21h14q29 0 49.5 -21t20.5 -59v-245q0 -38 -20.5 -59t-49.5 -21h-14zM514 356q-10 0 -17 -9.5t-7 -29.5v-242q0 -20 7 -29.5t17 -9.5h5q9 0 16 9.5t7 29.5v242q0 20 -7 29.5t-16 9.5h-5z" />
    <glyph glyph-name="guilsinglleft" unicode="&#x2039;" horiz-adv-x="144" 
d="M66 43l-48 201l46 201h59l-46 -202l49 -200h-60z" />
    <glyph glyph-name="guilsinglright" unicode="&#x203a;" horiz-adv-x="144" 
d="M18 43l48 200l-45 202h59l46 -201l-48 -201h-60z" />
    <glyph glyph-name="fraction" unicode="&#x2044;" horiz-adv-x="218" 
d="M159 699h56l-155 -699h-57z" />
    <glyph glyph-name="franc" unicode="&#x20a3;" horiz-adv-x="224" 
d="M117 642v-267h69v-51h-69v-119h31v-46h-31v-159h-68v159h-31v46h31v494h157v-57h-89z" />
    <glyph glyph-name="uni20A6" unicode="&#x20a6;" horiz-adv-x="340" 
d="M322 429v-46h-36v-63h36v-46h-36v-274h-75l-51 274h-41v-274h-57v274h-44v46h44v63h-44v46h44v270h76l48 -270h39v270h61v-270h36zM119 320h32l-11 63h-21v-63zM205 320h20v63h-31zM119 491v-62h12l-11 62h-1zM224 215h1v59h-12z" />
    <glyph glyph-name="peseta" unicode="&#x20a7;" horiz-adv-x="300" 
d="M165 699q36 0 62.5 -24.5t26.5 -72.5v-83h28v-46h-28v-100q0 -45 -24.5 -63.5t-60.5 -18.5h-43v-291h-68v473h-40v46h40v180h107zM186 473h-60v-126h36q24 0 24 47v79zM126 519h60v73q0 26 -8 38t-20 12h-32v-123z" />
    <glyph glyph-name="uni20A9" unicode="&#x20a9;" horiz-adv-x="425" 
d="M73 314l-5 75h-50v46h46l-19 264h65l18 -264h34l25 264h55l26 -264h36l19 264h59l-20 -264h45v-46h-48l-6 -75h54v-46h-57l-20 -268h-67l-30 268h-35l-26 -268h-75l-20 268h-59v46h55zM280 314h16l5 75h-29zM137 314h14l7 75h-26zM202 314h26l-8 75h-11zM290 233l2 35h-8
l4 -35h2zM144 233l3 35h-7l3 -35h1z" />
    <glyph glyph-name="Euro" unicode="&#x20ac;" horiz-adv-x="260" 
d="M170 301h-54v-199q0 -28 8 -39.5t19 -11.5h6q11 0 19 11.5t8 39.5v181h68v-191q0 -26 -8 -44.5t-20.5 -30.5t-29 -17.5t-32.5 -5.5h-16q-17 0 -33 5.5t-28.5 17.5t-20.5 30.5t-8 44.5v209h-30v29h30v41h-30v28h30v208q0 26 8 44.5t20.5 30.5t28.5 17.5t33 5.5h16
q16 0 32.5 -5.5t29 -17.5t20.5 -30.5t8 -44.5v-190h-68v181q0 27 -8 38.5t-19 11.5h-6q-11 0 -19 -11t-8 -40v-198h54v-28h-54v-41h54v-29z" />
    <glyph glyph-name="uni20B9" unicode="&#x20b9;" horiz-adv-x="310" 
d="M18 562h160v31q0 30 -11.5 41.5t-30.5 11.5h-118v53h274v-53h-57q6 -18 6 -40v-44h51v-53h-51v-87q0 -22 -7 -39t-19 -29t-27 -18.5t-31 -6.5h-54l142 -329h-75l-143 338v38h105q46 0 46 53v80h-160v53z" />
    <glyph glyph-name="trademark" unicode="&#x2122;" horiz-adv-x="271" 
d="M252 699v-307h-28v209h-1l-23 -209h-24l-23 209v-209h-30v307h47l19 -212h1l19 212h43zM107 667h-25v-275h-37v275h-25v32h87v-32z" />
    <glyph glyph-name="minus" unicode="&#x2212;" horiz-adv-x="244" 
d="M226 373v-46h-208v46h208z" />
    <glyph glyph-name="fi" unicode="&#xfb01;" horiz-adv-x="224" 
d="M41 0v442h-25v53h25v119q0 21 7.5 40t23 32t39 17.5t55.5 -2.5v-50q-9 1 -20 0t-20.5 -6t-15.5 -14t-6 -22v-114h105v-495h-63v442h-42v-442h-63z" />
    <glyph glyph-name="fl" unicode="&#xfb02;" horiz-adv-x="261" 
d="M40 0v442h-25v53h25v119q0 21 7.5 40t23 32t38.5 17.5t55 -2.5v-50q-9 1 -20 0t-20.5 -6t-15.5 -14t-6 -22v-114h62v-53h-62v-442h-62zM186 0h62v699h-62v-699z" />
    <glyph glyph-name="_0007" horiz-adv-x="0" 
 />
    <glyph glyph-name="_0024" horiz-adv-x="0" 
 />
    <glyph glyph-name="quoteaccent" horiz-adv-x="0" 
d="M1 645l18 46h26l-11 -46h16v-68h-49v68z" />
    <glyph glyph-name="accent margin" horiz-adv-x="0" 
d="M81 699h12v-131h-12v131z" />
    <glyph glyph-name="ucircumflex.001" horiz-adv-x="208" 
d="M102 50q11 0 19.5 12.5t8.5 33.5v399h63v-495h-63v25q-12 -13 -25.5 -20.5t-26.5 -7.5h-3q-35 0 -48 24.5t-13 67.5v406h63v-404q0 -22 6.5 -31.5t16.5 -9.5h2zM135 620l58 -86h-60l-29 54l-29 -54h-60l58 86h62z" />
    <glyph glyph-name="uacute.001" horiz-adv-x="208" 
d="M102 50q11 0 19.5 12.5t8.5 33.5v399h63v-495h-63v25q-12 -13 -25.5 -20.5t-26.5 -7.5h-3q-35 0 -48 24.5t-13 67.5v406h63v-404q0 -22 6.5 -31.5t16.5 -9.5h2zM82 534l40 86h60l-58 -86h-42z" />
    <glyph glyph-name="ugrave.001" horiz-adv-x="208" 
d="M100 50q-10 0 -16.5 9.5t-6.5 31.5v404h-63v-406q0 -43 13 -67.5t48 -24.5h3q13 0 26.5 7.5t25.5 20.5v-25h63v495h-63v-399q0 -21 -8.5 -33.5t-19.5 -12.5h-2zM84 534l-58 86h59l40 -86h-41z" />
    <glyph glyph-name="udieresis.001" horiz-adv-x="208" 
d="M100 50q-10 0 -16.5 9.5t-6.5 31.5v404h-63v-406q0 -43 13 -67.5t48 -24.5h3q13 0 26.5 7.5t25.5 20.5v-25h63v495h-63v-399q0 -21 -8.5 -33.5t-19.5 -12.5h-2zM165 545h-45v68h45v-68zM87 545h-45v68h45v-68z" />
    <glyph glyph-name="iacute.001" horiz-adv-x="96" 
d="M81 495v-495h-63v495h63zM28 534l40 86h59l-58 -86h-41z" />
    <glyph glyph-name="_0158" horiz-adv-x="0" 
 />
    </font>
</defs>
</svg>
