<?xml version="1.0" standalone="no"?>
<!DOCTYPE svg PUBLIC "-//W3C//DTD SVG 1.1//EN" "http://www.w3.org/Graphics/SVG/1.1/DTD/svg11.dtd" >
<svg xmlns="http://www.w3.org/2000/svg" xmlns:xlink="http://www.w3.org/1999/xlink" version="1.1">
<metadata>
Created by FontForge 20170731 at Sun Jun 24 11:27:32 2018
 By Aleksey,,,
Copyright (c) 2018 by Rajesh Rajput. All rights reserved.
</metadata>
<defs>
<font id="Morganite-Book" horiz-adv-x="213" >
  <font-face 
    font-family="Morganite"
    font-weight="400"
    font-style="italic"
    font-stretch="normal"
    units-per-em="1000"
    panose-1="0 0 0 0 0 0 0 0 0 0"
    ascent="750"
    descent="-250"
    x-height="495"
    cap-height="699"
    bbox="-34 -171 559 847"
    underline-thickness="52"
    underline-position="-152"
    slope="-15"
    unicode-range="U+000D-FB02"
  />
<missing-glyph horiz-adv-x="126" 
 />
    <glyph glyph-name=".notdef" horiz-adv-x="126" 
 />
    <glyph glyph-name=".null" horiz-adv-x="0" 
 />
    <glyph glyph-name="nonmarkingreturn" unicode="&#xd;" horiz-adv-x="126" 
 />
    <glyph glyph-name="NULL" horiz-adv-x="0" 
 />
    <glyph glyph-name="NULL" horiz-adv-x="0" 
 />
    <glyph glyph-name="space" unicode=" " horiz-adv-x="126" 
 />
    <glyph glyph-name="exclam" unicode="!" horiz-adv-x="111" 
d="M72 114h-34l-6 317v268h46v-268zM79 0h-47v81h47v-81z" />
    <glyph glyph-name="quotedbl" unicode="&#x22;" 
d="M88 618l-21 -57h-20l15 57h-21v81h47v-81zM181 618l-21 -57h-20l15 57h-21v81h47v-81z" />
    <glyph glyph-name="numbersign" unicode="#" horiz-adv-x="307" 
d="M261 220h-43l-19 -220h-42l19 220h-62l-19 -220h-42l19 220h-50l4 38h49l16 180h-49l4 39h48l19 222h42l-19 -222h62l20 222h42l-20 -222h45l-4 -39h-44l-16 -180h44zM117 258h62l16 180h-62z" />
    <glyph glyph-name="dollar" unicode="$" 
d="M90 -5q-26 3 -48 24t-22 66v197h42v-190q0 -32 12.5 -45.5t26.5 -13.5h7q14 0 26.5 13.5t12.5 45.5v100q0 31 -9.5 57t-23.5 49.5t-30.5 46t-30.5 46.5t-23.5 51t-9.5 59v113q0 45 22 66t48 24v51h31v-51q13 -2 25 -7.5t21.5 -16.5t15.5 -27.5t6 -38.5v-197h-42v190
q0 32 -11.5 45.5t-25.5 13.5h-7q-14 0 -25.5 -13.5t-11.5 -45.5v-99q0 -47 20 -83.5t43.5 -71t43.5 -71t20 -84.5v-113q0 -46 -22.5 -67.5t-49.5 -23.5v-51h-31v52z" />
    <glyph glyph-name="percent" unicode="%" horiz-adv-x="417" 
d="M317 699l-254 -699h34l255 699h-35zM86 305q-26 0 -45 19t-19 56v249q1 37 19.5 56.5t44.5 19.5h13q26 0 45 -19.5t19 -56.5v-249q0 -37 -19 -56t-45 -19h-13zM90 675q-13 0 -23 -11.5t-10 -35.5v-246q0 -25 10 -36.5t23 -11.5h6q12 0 22 11.5t10 36.5v246q0 24 -10 35.5
t-22 11.5h-6zM318 -6q-25 0 -44.5 19.5t-19.5 56.5v253q1 37 20 56t44 19h13q26 0 45 -19t19 -56v-253q0 -37 -19 -56.5t-45 -19.5h-13zM322 369q-12 0 -22 -11.5t-10 -36.5v-250q0 -24 10 -35.5t22 -11.5h7q12 0 21.5 11.5t9.5 35.5v250q0 25 -9.5 36.5t-21.5 11.5h-7z" />
    <glyph glyph-name="ampersand" unicode="&#x26;" 
d="M126 376v-34h-19q-17 0 -29 -15.5t-12 -47.5v-187q0 -33 11.5 -46t25.5 -13h7q14 0 25.5 13t11.5 45v191h46v-197q0 -46 -22.5 -67.5t-49.5 -23.5v-51h-31v51q-26 3 -48 24.5t-22 66.5v193q0 40 18 58t41 23q-23 5 -41 24.5t-18 60.5v170q0 45 22 66t48 24v51h31v-50
q27 -2 49.5 -23.5t22.5 -67.5v-198h-46v191q0 32 -11.5 45.5t-25.5 13.5h-7q-14 0 -25.5 -13.5t-11.5 -45.5v-168q0 -32 12 -47.5t29 -15.5h19z" />
    <glyph glyph-name="quotesingle" unicode="'" horiz-adv-x="120" 
d="M88 618l-21 -57h-20l15 57h-21v81h47v-81z" />
    <glyph glyph-name="parenleft" unicode="(" horiz-adv-x="204" 
d="M107 -36q-17 0 -33 5.5t-28 18t-19 33t-7 50.5v557q0 30 7 50.5t19 33t28 18t33 5.5h51v-39h-35q-29 0 -43 -21.5t-14 -69.5v-511q0 -91 57 -91h35v-39h-51z" />
    <glyph glyph-name="parenright" unicode=")" horiz-adv-x="204" 
d="M46 -36v39h35q57 0 57 91v511q0 48 -14 69.5t-43 21.5h-35v39h51q17 0 33 -5.5t28 -18t19 -33t7 -50.5v-557q0 -30 -7 -50.5t-19 -33t-28 -18t-33 -5.5h-51z" />
    <glyph glyph-name="asterisk" unicode="*" horiz-adv-x="201" 
d="M66 538l-19 14l35 57l-62 19l7 23l62 -22l-1 70h25l-2 -70l63 22l7 -24l-63 -18l38 -57l-21 -13l-35 58z" />
    <glyph glyph-name="plus" unicode="+" horiz-adv-x="282" 
d="M123 366v132h36v-132h101v-32h-101v-132h-36v132h-101v32h101z" />
    <glyph glyph-name="comma" unicode="," horiz-adv-x="89" 
d="M68 0l-21 -58h-20l15 58h-21v81h47v-81z" />
    <glyph glyph-name="hyphen" unicode="-" horiz-adv-x="238" 
d="M216 366v-32h-194v32h194z" />
    <glyph glyph-name="period" unicode="." horiz-adv-x="111" 
d="M79 0h-47v81h47v-81z" />
    <glyph glyph-name="slash" unicode="/" horiz-adv-x="202" 
d="M159 699h40l-157 -699h-39z" />
    <glyph glyph-name="zero" unicode="0" 
d="M99 -6q-14 0 -28.5 5t-25.5 16t-18 28.5t-7 41.5v529q0 24 7 41.5t18 28.5t25.5 16t28.5 5h15q14 0 28 -5t25.5 -16t18.5 -28.5t7 -41.5v-529q0 -24 -7 -41.5t-18.5 -28.5t-25.5 -16t-28 -5h-15zM103 666q-14 0 -25.5 -13.5t-11.5 -45.5v-515q0 -32 11.5 -45.5
t25.5 -13.5h7q14 0 25.5 13.5t11.5 45.5v515q0 32 -11.5 45.5t-25.5 13.5h-7z" />
    <glyph glyph-name="one" unicode="1" horiz-adv-x="149" 
d="M69 0v630q-11 -6 -29 -12t-30 -6v36q20 0 40 15.5t26 35.5h39v-699h-46z" />
    <glyph glyph-name="two" unicode="2" 
d="M20 417v197q0 24 7 41.5t18 28.5t25 16t29 5h10q14 0 28.5 -5t26 -16t18.5 -28.5t7 -41.5v-113q0 -32 -9 -60.5t-23 -57.5t-29.5 -61.5t-29.5 -73.5t-23 -92t-9 -117h127v-39h-173v39q0 71 9 124.5t23 95t29.5 74t29.5 61t23 56t9 58.5v99q0 32 -11.5 45.5t-25.5 13.5h-7
q-14 0 -25.5 -13.5t-11.5 -45.5v-190h-42z" />
    <glyph glyph-name="three" unicode="3" 
d="M106 376q17 0 29 15.5t12 47.5v168q0 32 -11.5 45.5t-25.5 13.5h-7q-14 0 -25.5 -13.5t-11.5 -45.5v-191h-46v198q0 24 7 41.5t18 28.5t25.5 16t28.5 5h15q14 0 28 -5t25.5 -16t18.5 -28.5t7 -41.5v-170q0 -41 -18 -60.5t-41 -24.5q23 -5 41 -23t18 -58v-193
q0 -24 -7 -41.5t-18.5 -29t-25.5 -16.5t-28 -5h-15q-14 0 -28.5 5t-25.5 16.5t-18 29t-7 41.5v197h46v-191q0 -32 11.5 -45t25.5 -13h7q14 0 25.5 13t11.5 46v187q0 32 -12 47.5t-29 15.5h-19v34h19z" />
    <glyph glyph-name="four" unicode="4" horiz-adv-x="237" 
d="M215 151v-39h-32v-112h-40v112h-133v39l118 548h55v-548h32zM143 564h-2l-86 -412v-1h88v413z" />
    <glyph glyph-name="five" unicode="5" 
d="M99 -6q-14 0 -28.5 5t-25.5 16t-18 28.5t-7 41.5v201h46v-194q0 -32 11.5 -45.5t25.5 -13.5h7q14 0 25.5 13.5t11.5 45.5v252q0 32 -11.5 45.5t-25.5 13.5h-7q-14 0 -25.5 -13.5t-11.5 -45.5v-5h-10v1h-36v359h171l-4 -39h-121v-257q9 20 24.5 29.5t30.5 9.5h9
q23 0 43 -21t20 -70v-266q0 -24 -7 -41.5t-18.5 -28.5t-25.5 -16t-28 -5h-15z" />
    <glyph glyph-name="six" unicode="6" 
d="M99 -6q-14 0 -28.5 5t-25.5 16t-18 28.5t-7 41.5v529q0 24 7 41.5t18 28.5t25.5 16t28.5 5h12q14 0 28 -5t25.5 -16t18.5 -28.5t7 -41.5v-138h-44v131q0 32 -11.5 45.5t-25.5 13.5h-6q-14 0 -25.5 -13.5t-11.5 -45.5v-204q9 20 24.5 29.5t30.5 9.5h9q23 0 43 -21t20 -70
v-266q0 -24 -7 -41.5t-18.5 -28.5t-25.5 -16t-28 -5h-15zM66 92q0 -32 11.5 -45.5t25.5 -13.5h7q14 0 25.5 13.5t11.5 45.5v252q0 32 -11.5 45.5t-25.5 13.5h-7q-14 0 -25 -12t-12 -41v-258z" />
    <glyph glyph-name="seven" unicode="7" horiz-adv-x="183" 
d="M10 0l104 664h-108v35h155v-35l-104 -664h-47z" />
    <glyph glyph-name="eight" unicode="8" 
d="M99 -6q-14 0 -28.5 5t-25.5 16t-18 28.5t-7 41.5v191q0 33 12.5 53.5t30.5 29.5q-18 9 -30.5 29t-12.5 54v172q0 24 7 41.5t18 28.5t25.5 16t28.5 5h15q14 0 28 -5t25.5 -16t18.5 -28.5t7 -41.5v-172q0 -34 -12.5 -54t-31.5 -29q19 -9 31.5 -29.5t12.5 -53.5v-191
q0 -24 -7 -41.5t-18.5 -28.5t-25.5 -16t-28 -5h-15zM103 345q-14 0 -25.5 -13.5t-11.5 -45.5v-194q0 -32 11.5 -45.5t25.5 -13.5h7q14 0 25.5 13.5t11.5 45.5v194q0 32 -11.5 45.5t-25.5 13.5h-7zM103 666q-14 0 -25.5 -13.5t-11.5 -45.5v-174q0 -32 11.5 -45.5t25.5 -13.5
h7q14 0 25.5 13.5t11.5 45.5v174q0 32 -11.5 45.5t-25.5 13.5h-7z" />
    <glyph glyph-name="nine" unicode="9" 
d="M114 705q14 0 28 -5t25.5 -16t18.5 -28.5t7 -41.5v-529q0 -24 -7 -41.5t-18.5 -28.5t-25.5 -16t-28 -5h-12q-14 0 -28.5 5t-25.5 16t-18 28.5t-7 41.5v197h44v-190q0 -32 11 -45.5t25 -13.5h7q14 0 25.5 13.5t11.5 45.5v262q-10 -20 -25 -29t-30 -9h-9q-23 0 -43 21
t-20 70v207q0 24 7 41.5t18 28.5t25.5 16t28.5 5h15zM147 607q0 32 -11.5 45.5t-25.5 13.5h-7q-14 0 -25.5 -13.5t-11.5 -45.5v-193q0 -32 11.5 -45.5t25.5 -13.5h7q14 0 25.5 13.5t11.5 45.5v193z" />
    <glyph glyph-name="colon" unicode=":" horiz-adv-x="111" 
d="M79 334h-47v81h47v-81zM79 0h-47v81h47v-81z" />
    <glyph glyph-name="semicolon" unicode=";" horiz-adv-x="121" 
d="M88 334h-47v81h47v-81zM89 0l-21 -58h-20l15 58h-21v81h47v-81z" />
    <glyph glyph-name="less" unicode="&#x3c;" horiz-adv-x="241" 
d="M219 8l-1 -1l-196 227v25l195 230l2 -1v-50l-1 -1l-155 -188v-3l155 -186l1 -1v-51z" />
    <glyph glyph-name="equal" unicode="=" horiz-adv-x="292" 
d="M270 415v-32h-248v32h248zM270 320v-32h-248v32h248z" />
    <glyph glyph-name="greater" unicode="&#x3e;" horiz-adv-x="241" 
d="M22 58l1 2l156 185v4l-156 187l-1 2v49l2 1l195 -230v-24l-195 -228l-2 1v51z" />
    <glyph glyph-name="question" unicode="?" horiz-adv-x="209" 
d="M20 417v197q0 24 7 41.5t18 28.5t25 16t29 5h10q14 0 28.5 -5t26 -16t18.5 -28.5t7 -41.5v-113q0 -34 -7.5 -60.5t-18.5 -52t-23 -51.5t-20.5 -58t-11.5 -72t5 -93h-47q-8 58 -5 100.5t11.5 75.5t20.5 58.5t23 50t19 50.5t8 59v99q0 32 -11.5 45.5t-25.5 13.5h-7
q-14 0 -25.5 -13.5t-11.5 -45.5v-190h-42zM113 0h-47v81h47v-81z" />
    <glyph glyph-name="at" unicode="@" horiz-adv-x="352" 
d="M163 -6q-38 0 -65.5 12.5t-44.5 32.5t-25 45t-8 49v323q0 24 8 49t25 45t44.5 32.5t65.5 12.5h26q38 0 65 -12.5t44.5 -32.5t25.5 -45t8 -49v-319q0 -23 -16 -35t-36.5 -13.5t-39.5 7t-25 27.5q-12 -16 -26 -25.5t-28 -9.5h-4q-58 0 -58 85v241q0 85 60 85h3
q13 0 26.5 -8.5t24.5 -22.5v10l8 20h32v-343q0 -14 6 -21t12.5 -7t12.5 7t6 21v298q0 16 -4 35t-15.5 35t-31 26.5t-50.5 10.5h-26q-31 0 -50.5 -10.5t-31 -26.5t-15.5 -35t-4 -35v-317q0 -16 4 -34.5t15.5 -34.5t31 -27t50.5 -11h26q34 0 52.5 11.5t26.5 22.5l32 -23
q-14 -17 -40 -31t-71 -15h-26zM177 124q12 0 23 13.5t13 36.5v239q-2 23 -13 36.5t-23 13.5h-3q-12 0 -22 -12t-10 -37v-241q0 -25 10 -37t22 -12h3z" />
    <glyph glyph-name="A" unicode="A" horiz-adv-x="204" 
d="M136 199h-73l-19 -199h-41l68 699h60l69 -699h-45zM67 234h65l-32 332h-1z" />
    <glyph glyph-name="B" unicode="B" horiz-adv-x="211" 
d="M195 426q0 -32 -10 -47.5t-25 -20.5q15 -4 25 -19.5t10 -47.5v-206q0 -22 -7 -38t-18 -26.5t-25 -15.5t-29 -5h-94v699h94q15 0 29 -5t25 -16t18 -28.5t7 -41.5v-182zM149 288q0 53 -31 53h-50v-302h44q14 0 25.5 13t11.5 40v196zM118 376q31 0 31 53v172
q0 32 -11.5 45.5t-25.5 13.5h-44v-284h50z" />
    <glyph glyph-name="C" unicode="C" 
d="M99 -6q-14 0 -28.5 5t-25.5 16t-18 28.5t-7 41.5v529q0 24 7 41.5t18 28.5t25.5 16t28.5 5h15q14 0 28 -5t25.5 -16t18.5 -28.5t7 -41.5v-197h-46v190q0 32 -11.5 45.5t-25.5 13.5h-7q-14 0 -25.5 -13.5t-11.5 -45.5v-515q0 -32 11.5 -45.5t25.5 -13.5h7q14 0 25.5 13.5
t11.5 45.5v191h46v-198q0 -24 -7 -41.5t-18.5 -28.5t-25.5 -16t-28 -5h-15z" />
    <glyph glyph-name="D" unicode="D" horiz-adv-x="215" 
d="M22 0v699h94q14 0 28 -4.5t25.5 -15t18.5 -27.5t7 -41v-523q0 -24 -7 -41t-18.5 -27.5t-25.5 -15t-28 -4.5h-94zM68 660v-621h44q14 0 25.5 12t11.5 44v509q0 32 -11.5 44t-25.5 12h-44z" />
    <glyph glyph-name="E" unicode="E" horiz-adv-x="176" 
d="M68 660v-293h72v-35h-72v-293h97v-39h-143v699h139v-39h-93z" />
    <glyph glyph-name="F" unicode="F" horiz-adv-x="172" 
d="M68 660v-293h72v-35h-72v-332h-46v699h139v-39h-93z" />
    <glyph glyph-name="G" unicode="G" 
d="M108 283h85v-182v-5v-96h-24l-6 23q-13 -14 -28 -21.5t-28 -7.5h-8q-14 0 -28.5 5t-25.5 16t-18 28.5t-7 41.5v529q0 24 7 41.5t18 28.5t25.5 16t28.5 5h15q14 0 28 -5t25.5 -16t18.5 -28.5t7 -41.5v-197h-46v190q0 32 -11.5 45.5t-25.5 13.5h-7q-14 0 -25.5 -13.5
t-11.5 -45.5v-515q0 -32 11.5 -45.5t25.5 -13.5h7q14 0 25.5 13.5t11.5 45.5v152h-39v39z" />
    <glyph glyph-name="H" unicode="H" 
d="M191 699v-699h-47v332h-76v-332h-46v699h46v-332h76v332h47z" />
    <glyph glyph-name="I" unicode="I" horiz-adv-x="90" 
d="M68 699v-699h-46v699h46z" />
    <glyph glyph-name="J" unicode="J" 
d="M99 -6q-14 0 -28.5 5t-25.5 16t-18 28.5t-7 41.5v196h46v-189q0 -32 11.5 -45.5t25.5 -13.5h7q14 0 25.5 13.5t11.5 45.5v607h46v-614q0 -24 -7 -41.5t-18.5 -28.5t-25.5 -16t-28 -5h-15z" />
    <glyph glyph-name="K" unicode="K" horiz-adv-x="210" 
d="M101 364l103 -364h-43l-92 302h-1v-302h-46v699h46v-292h1l95 292h42z" />
    <glyph glyph-name="L" unicode="L" horiz-adv-x="158" 
d="M68 699v-664h87v-35h-133v699h46z" />
    <glyph glyph-name="M" unicode="M" horiz-adv-x="288" 
d="M266 699v-699h-39v561h-1l-66 -561h-36l-64 561h-1v-561h-39v699h61l61 -528h1l62 528h61z" />
    <glyph glyph-name="N" unicode="N" horiz-adv-x="238" 
d="M165 0l-105 561h-1v-561h-39v699h53l102 -555h1v555h42v-699h-53z" />
    <glyph glyph-name="O" unicode="O" 
d="M99 -6q-14 0 -28.5 5t-25.5 16t-18 28.5t-7 41.5v529q0 24 7 41.5t18 28.5t25.5 16t28.5 5h15q14 0 28 -5t25.5 -16t18.5 -28.5t7 -41.5v-529q0 -24 -7 -41.5t-18.5 -28.5t-25.5 -16t-28 -5h-15zM103 666q-14 0 -25.5 -13.5t-11.5 -45.5v-515q0 -32 11.5 -45.5
t25.5 -13.5h7q14 0 25.5 13.5t11.5 45.5v515q0 32 -11.5 45.5t-25.5 13.5h-7z" />
    <glyph glyph-name="P" unicode="P" horiz-adv-x="215" 
d="M116 699q32 0 55.5 -23t23.5 -68v-231q0 -42 -20.5 -60t-52.5 -18h-54v-299h-46v699h94zM149 601q0 32 -11.5 45.5t-25.5 13.5h-44v-322h50q31 0 31 53v210z" />
    <glyph glyph-name="Q" unicode="Q" 
d="M99 -6q-14 0 -28.5 5t-25.5 16t-18 28.5t-7 41.5v529q0 24 7 41.5t18 28.5t25.5 16t28.5 5h15q14 0 28 -5t25.5 -16t18.5 -28.5t7 -41.5v-529q0 -27 -8.5 -45t-21.5 -29l25 -26l-23 -23l-34 34q-10 -2 -17 -2h-15zM103 666q-14 0 -25.5 -13.5t-11.5 -45.5v-515
q0 -32 11.5 -45.5t25.5 -13.5h7q14 0 25.5 13.5t11.5 45.5v515q0 32 -11.5 45.5t-25.5 13.5h-7z" />
    <glyph glyph-name="R" unicode="R" horiz-adv-x="221" 
d="M195 416q0 -32 -10 -47.5t-25 -20.5q15 -4 25 -19.5t10 -47.5v-173q0 -54 3.5 -77t5.5 -31h-46q-5 13 -7 37t-2 71v169q0 54 -31 54h-50v-331h-46v699h94q32 0 55.5 -22.5t23.5 -68.5v-192zM118 366q31 0 31 53v182q0 32 -11.5 45.5t-25.5 13.5h-44v-294h50z" />
    <glyph glyph-name="S" unicode="S" 
d="M147 417v190q0 32 -11.5 45.5t-25.5 13.5h-7q-14 0 -25.5 -13.5t-11.5 -45.5v-99q0 -47 20 -83.5t43.5 -71t43.5 -71t20 -84.5v-113q0 -24 -7 -41.5t-18 -28.5t-25 -16t-29 -5h-14q-14 0 -28.5 5t-26 16t-18.5 28.5t-7 41.5v197h42v-190q0 -32 12.5 -45.5t26.5 -13.5h7
q14 0 26.5 13.5t12.5 45.5v100q0 31 -9.5 57t-23.5 49.5t-30.5 46t-30.5 46.5t-23.5 51t-9.5 59v113q0 24 7 41.5t18 28.5t25.5 16t28.5 5h11q14 0 28 -5t25.5 -16t18.5 -28.5t7 -41.5v-197h-42z" />
    <glyph glyph-name="T" unicode="T" horiz-adv-x="182" 
d="M179 660h-64v-660h-47v660h-65v39h176v-39z" />
    <glyph glyph-name="U" unicode="U" horiz-adv-x="215" 
d="M101 -6q-14 0 -28 5t-25.5 16t-18.5 28.5t-7 41.5v614h46v-607q0 -32 11.5 -45.5t25.5 -13.5h7q14 0 25.5 13.5t11.5 45.5v607h46v-614q0 -24 -7 -41.5t-18 -28.5t-25 -16t-29 -5h-15z" />
    <glyph glyph-name="V" unicode="V" horiz-adv-x="204" 
d="M160 699h40l-67 -699h-60l-70 699h45l55 -566h2z" />
    <glyph glyph-name="W" unicode="W" horiz-adv-x="318" 
d="M55 0l-52 699h44l40 -544h1l50 544h40l56 -544h1l39 544h41l-52 -699h-47l-58 521l-51 -521h-52z" />
    <glyph glyph-name="X" unicode="X" horiz-adv-x="202" 
d="M126 364l73 -364h-48l-52 269l-51 -269h-45l73 377l-73 322h46l53 -226l49 226h47z" />
    <glyph glyph-name="Y" unicode="Y" horiz-adv-x="202" 
d="M125 270l-1 -270h-46v270l-75 429h47l50 -322h2l50 322h47z" />
    <glyph glyph-name="Z" unicode="Z" horiz-adv-x="202" 
d="M191 0h-180v33l125 631h-107v35h154v-33l-125 -631h133v-35z" />
    <glyph glyph-name="bracketleft" unicode="[" horiz-adv-x="168" 
d="M20 -56v811h102v-39h-55v-733h55v-39h-102z" />
    <glyph glyph-name="backslash" unicode="\" horiz-adv-x="202" 
d="M199 0h-40l-156 699h39z" />
    <glyph glyph-name="bracketright" unicode="]" horiz-adv-x="168" 
d="M46 -56v39h56v733h-56v39h103v-811h-103z" />
    <glyph glyph-name="asciicircum" unicode="^" horiz-adv-x="251" 
d="M187 414l-2 1l-58 212h-3l-58 -212l-1 -1h-42l-1 2l77 283h53l77 -283l-1 -2h-41z" />
    <glyph glyph-name="underscore" unicode="_" horiz-adv-x="312" 
d="M290 0h-268v32h268v-32z" />
    <glyph glyph-name="grave" unicode="`" horiz-adv-x="149" 
d="M88 594l-56 86h41l44 -86h-29z" />
    <glyph glyph-name="a" unicode="a" horiz-adv-x="193" 
d="M74 -3q-55 0 -55 85v110q0 85 58 85h3q27 0 53 -23v159q0 25 -10 37t-23 12h-6q-12 0 -22 -12t-10 -37v-122h-43v122q0 42 21.5 63.5t50.5 21.5h14q29 0 50 -22t21 -63v-413h-43v22q-13 -11 -27.5 -18t-27.5 -7h-4zM94 245q-12 0 -22 -12t-10 -37v-118q0 -25 10 -37
t22 -12h3q11 0 22.5 10.5t13.5 33.5v137q0 20 -11.5 27.5t-22.5 7.5h-5z" />
    <glyph glyph-name="b" unicode="b" horiz-adv-x="194" 
d="M114 -3q-14 0 -28.5 9.5t-25.5 25.5l-5 -32h-35v699h43v-234q11 14 25 23.5t28 9.5h3q58 0 58 -85v-331q0 -85 -59 -85h-4zM99 462q-11 0 -22.5 -13.5t-13.5 -36.5v-324q0 -25 12 -40t25 -15h2q13 0 22.5 12t9.5 37v331q0 25 -10 37t-22 12h-3z" />
    <glyph glyph-name="c" unicode="c" horiz-adv-x="193" 
d="M133 291v122q0 25 -10 37t-22 12h-6q-13 0 -23 -12t-10 -37v-331q0 -25 9.5 -37t20.5 -12h9q12 0 22 12t10 37v124h43v-124q0 -42 -21.5 -63.5t-50.5 -21.5h-17q-26 0 -47 21.5t-21 63.5v331q0 41 21 63t50 22h14q29 0 50.5 -21.5t21.5 -63.5v-122h-43z" />
    <glyph glyph-name="d" unicode="d" horiz-adv-x="196" 
d="M78 -3q-59 0 -59 85v331q0 85 58 85h3q14 0 27.5 -9.5t25.5 -23.5v234h43v-699h-35l-5 32q-12 -16 -26 -25.5t-28 -9.5h-4zM94 462q-12 0 -22 -12t-10 -37v-331q0 -25 10 -37t22 -12h3q12 0 24 15t12 40v319q0 25 -11.5 40t-24.5 15h-3z" />
    <glyph glyph-name="e" unicode="e" horiz-adv-x="193" 
d="M92 33h9q12 0 22 12t10 37v124h43v-124q0 -42 -21.5 -63.5t-50.5 -21.5h-17q-26 0 -47 21.5t-21 63.5v331q0 41 21 63t50 22h14q29 0 50.5 -21.5t21.5 -63.5v-173h-114v-158q0 -25 9.5 -37t20.5 -12zM133 270v143q0 25 -10 37t-22 12h-6q-13 0 -23 -12t-10 -37v-143h71z
" />
    <glyph glyph-name="f" unicode="f" horiz-adv-x="152" 
d="M44 0v459h-25v36h25v126q0 21 6.5 38.5t20 29t33.5 15.5t46 -2v-35q-23 5 -42.5 -7.5t-19.5 -41.5v-123h62v-36h-62v-459h-44z" />
    <glyph glyph-name="g" unicode="g" horiz-adv-x="195" 
d="M176 495v-575q0 -42 -21 -63.5t-47 -21.5h-17q-29 0 -50.5 21.5t-21.5 63.5v51h43v-51q0 -25 10 -37t22 -12h9q11 0 20.5 12t9.5 37v107q-12 -14 -26 -22t-27 -8h-3q-58 0 -58 85v331q0 85 59 85h4q12 0 25.5 -8t25.5 -22v8l8 19h35zM97 33q12 0 24 15t12 40v319
q0 25 -12 40t-24 15h-3q-12 0 -22 -12t-10 -37v-331q0 -25 10 -37t22 -12h3z" />
    <glyph glyph-name="h" unicode="h" horiz-adv-x="198" 
d="M102 462q-11 0 -23 -14.5t-14 -37.5v-410h-43v699h43v-235q11 15 25.5 24.5t28.5 9.5h3q58 0 58 -85v-413h-43v413q0 25 -10 37t-22 12h-3z" />
    <glyph glyph-name="i" unicode="i" horiz-adv-x="84" 
d="M65 495v-495h-43v495h43zM65 615v-77h-43v77h43z" />
    <glyph glyph-name="j" unicode="j" horiz-adv-x="127" 
d="M107 617v-79h-44v79h44zM107 495v-575q0 -85 -87 -85v36q20 0 31.5 12t11.5 37v575h44z" />
    <glyph glyph-name="k" unicode="k" horiz-adv-x="185" 
d="M91 259l91 -259h-43l-74 209v-209h-43v699h43v-397l76 193h42z" />
    <glyph glyph-name="l" unicode="l" horiz-adv-x="83" 
d="M22 699h43v-699h-43v699z" />
    <glyph glyph-name="m" unicode="m" horiz-adv-x="312" 
d="M101 462q-12 0 -24 -14.5t-14 -37.5v-410h-43v495h43v-31q12 15 26 24.5t28 9.5h4q38 0 52 -41q12 18 28 29.5t31 11.5h4q58 0 58 -85v-413h-43v413q0 25 -10 37t-22 12h-3q-12 0 -23.5 -14t-13.5 -37v-411h-43v413q0 25 -10 37t-22 12h-3z" />
    <glyph glyph-name="n" unicode="n" horiz-adv-x="197" 
d="M101 462q-12 0 -24 -14.5t-14 -37.5v-410h-43v495h43v-31q12 15 26 24.5t28 9.5h4q58 0 58 -85v-413h-43v413q0 25 -10 37t-22 12h-3z" />
    <glyph glyph-name="o" unicode="o" horiz-adv-x="193" 
d="M90 -3q-29 0 -50 21.5t-21 63.5v331q0 42 21 63.5t50 21.5h14q29 0 50.5 -21.5t21.5 -63.5v-331q0 -42 -21.5 -63.5t-50.5 -21.5h-14zM95 462q-13 0 -23 -12t-10 -37v-331q0 -25 10 -37t23 -12h6q12 0 22 12t10 37v331q0 25 -10 37t-22 12h-6z" />
    <glyph glyph-name="p" unicode="p" horiz-adv-x="196" 
d="M120 498q59 0 59 -85v-331q0 -85 -58 -85h-3q-14 0 -28 9t-25 24v-195h-43v660h35l5 -33q11 16 25.5 26t28.5 10h4zM104 33q13 0 22.5 12t9.5 37v331q0 25 -9.5 37t-22.5 12h-2q-12 0 -23.5 -13.5t-13.5 -36.5v-324q0 -25 12 -40t25 -15h2z" />
    <glyph glyph-name="q" unicode="q" horiz-adv-x="196" 
d="M82 498q14 0 28 -9.5t26 -25.5l5 32h35v-660h-43v195q-12 -15 -25.5 -24t-27.5 -9h-3q-58 0 -58 85v331q0 85 59 85h4zM97 33q11 0 22.5 13.5t13.5 36.5v324q0 25 -12 40t-24 15h-3q-12 0 -22 -12t-10 -37v-331q0 -25 10 -37t22 -12h3z" />
    <glyph glyph-name="r" unicode="r" horiz-adv-x="196" 
d="M101 462q-12 0 -24 -14.5t-14 -37.5v-410h-43v495h43v-31q12 15 26 24.5t28 9.5h4q33 0 47 -27q11 -22 11 -58v-122h-43v122q0 25 -10 37t-22 12h-3z" />
    <glyph glyph-name="s" unicode="s" horiz-adv-x="192" 
d="M132 300v112q0 24 -9.5 37t-22.5 13h-6q-12 0 -22 -13t-10 -37v-59q0 -33 18 -56.5t39 -45.5t39 -46.5t18 -59.5v-63q0 -42 -21.5 -63.5t-48.5 -21.5h-15q-29 0 -50.5 21.5t-21.5 63.5v113h39v-113q0 -24 10 -36.5t24 -12.5h9q12 0 21.5 12.5t9.5 36.5v60
q0 31 -17.5 53.5t-39 44.5t-39 47.5t-17.5 62.5v63q0 41 21.5 63t50.5 22h9q29 0 50.5 -21.5t21.5 -63.5v-113h-40z" />
    <glyph glyph-name="t" unicode="t" horiz-adv-x="131" 
d="M77 657v-162h43v-36h-43v-377q0 -26 11.5 -39t31.5 -10v-35q-45 -5 -65.5 18.5t-20.5 65.5v377h-26v36h26v158z" />
    <glyph glyph-name="u" unicode="u" horiz-adv-x="196" 
d="M96 33q11 0 23.5 14.5t14.5 37.5v410h43v-495h-43v31q-12 -16 -26.5 -25t-28.5 -9h-3q-58 0 -58 85v413h43v-413q0 -25 10 -37t22 -12h3z" />
    <glyph glyph-name="v" unicode="v" horiz-adv-x="170" 
d="M132 495h36l-56 -495h-53l-57 495h40l44 -401h2z" />
    <glyph glyph-name="w" unicode="w" horiz-adv-x="296" 
d="M52 0l-50 495h40l37 -385h2l50 385h39l49 -385h2l36 385h37l-49 -495h-49l-49 403h-1l-46 -403h-48z" />
    <glyph glyph-name="x" unicode="x" horiz-adv-x="182" 
d="M111 254l69 -254h-42l-49 188l-48 -188h-39l67 250l-66 245h42l45 -178l47 178h39z" />
    <glyph glyph-name="y" unicode="y" horiz-adv-x="171" 
d="M132 495h37l-74 -660h-43l21 165l-71 495h40l46 -371h1z" />
    <glyph glyph-name="z" unicode="z" horiz-adv-x="160" 
d="M158 0h-156v36l110 424h-99v35h142v-35l-111 -424h114v-36z" />
    <glyph glyph-name="braceleft" unicode="{" horiz-adv-x="212" 
d="M10 376h11q23 0 36 17.5t13 49.5v224q0 51 23.5 74.5t55.5 23.5h23v-39h-7q-27 0 -38 -19.5t-11 -47.5v-215q0 -23 -6.5 -39.5t-17 -26.5t-23.5 -15t-27 -6q28 -2 51 -21.5t23 -65.5v-215q0 -28 11 -47.5t38 -19.5h7v-39h-23q-32 0 -55.5 23.5t-23.5 74.5v224
q0 32 -13 49.5t-36 17.5h-11v19v19z" />
    <glyph glyph-name="bar" unicode="|" horiz-adv-x="95" 
d="M26 729h43v-759h-43v759z" />
    <glyph glyph-name="braceright" unicode="}" horiz-adv-x="212" 
d="M202 376v-38h-11q-23 0 -36 -17.5t-13 -49.5v-224q0 -51 -23.5 -74.5t-55.5 -23.5h-23v39h7q26 0 37.5 19.5t11.5 47.5v215q0 23 6.5 39t16.5 26.5t23 15.5t27 6q-14 1 -27 6t-23 15t-16.5 26.5t-6.5 39.5v215q0 28 -11.5 47.5t-37.5 19.5h-7v39h23q32 0 55.5 -23.5
t23.5 -74.5v-224q0 -32 13 -49.5t36 -17.5h11z" />
    <glyph glyph-name="asciitilde" unicode="~" horiz-adv-x="283" 
d="M22 234q14 24 28.5 36t36.5 12q12 0 24 -6t24 -12.5t24 -12.5t25 -6q14 0 24.5 7t22.5 24l30 -23q-14 -26 -29.5 -36.5t-38.5 -10.5q-13 0 -26 6t-25.5 12.5t-24 12.5t-21.5 6q-14 0 -24.5 -7.5t-22.5 -24.5z" />
    <glyph glyph-name="uni00A0" unicode="&#xa0;" horiz-adv-x="0" 
 />
    <glyph glyph-name="exclamdown" unicode="&#xa1;" horiz-adv-x="111" 
d="M79 618h-47v81h47v-81zM78 268v-268h-46v268l6 317h34z" />
    <glyph glyph-name="cent" unicode="&#xa2;" horiz-adv-x="193" 
d="M133 291v122q0 25 -10 37t-22 12h-6q-13 0 -23 -12t-10 -37v-331q0 -25 9.5 -37t20.5 -12h9q12 0 22 12t10 37v124h43v-124q0 -38 -18 -59.5t-44 -24.5v-56h-31v55q-26 2 -45 23.5t-19 61.5v331q0 38 19 60.5t46 24.5v55h31v-56q26 -4 43.5 -25t17.5 -59v-122h-43z" />
    <glyph glyph-name="sterling" unicode="&#xa3;" horiz-adv-x="256" 
d="M20 297h43v317q0 24 7 41t18 28.5t25.5 16.5t28.5 5h15q14 0 28 -5t25.5 -16t18.5 -28.5t7 -41.5v-197h-46v190q0 32 -11.5 45.5t-25.5 13.5h-7q-14 0 -25.5 -13.5t-11.5 -45.5v-310h127v-40h-127v-121q0 -39 -4.5 -62.5t-10.5 -33.5h142v-40h-189v40h1q8 11 11.5 33
t3.5 63v121h-43v40z" />
    <glyph glyph-name="currency" unicode="&#xa4;" horiz-adv-x="344" 
d="M260 245q-39 -30 -88 -30q-51 0 -88 31l-40 -40l-24 24l40 40q-30 38 -30 88q0 48 30 86l-40 41l24 24l40 -41q19 15 41 23.5t47 8.5q24 0 46 -8.5t41 -22.5l41 41l24 -24l-41 -41q15 -18 23.5 -40.5t8.5 -46.5q0 -26 -8.5 -48.5t-22.5 -40.5l40 -40l-24 -24zM66 358
q0 -47 30.5 -77t75.5 -30t75.5 30t30.5 77q0 22 -8.5 41t-22.5 33.5t-33.5 23t-41.5 8.5t-41.5 -8.5t-33.5 -23t-22.5 -33.5t-8.5 -41z" />
    <glyph glyph-name="yen" unicode="&#xa5;" horiz-adv-x="206" 
d="M80 189v51h-72v32h71l-74 427h46l51 -322h2l50 322h47l-75 -427h70v-32h-70v-51h70v-32h-70v-157h-46v157h-72v32h72z" />
    <glyph glyph-name="brokenbar" unicode="&#xa6;" horiz-adv-x="95" 
d="M26 293h43v-323h-43v323zM26 729h43v-321h-43v321z" />
    <glyph glyph-name="section" unicode="&#xa7;" horiz-adv-x="192" 
d="M132 473v146q0 24 -9.5 37t-22.5 13h-6q-12 0 -22 -13t-10 -37v-93q0 -32 18 -55.5t39 -45.5t39 -47t18 -60v-81q0 -41 -21.5 -63t-48.5 -22h-8q13 -14 26.5 -28t25 -29t19 -32t7.5 -39v-110q0 -42 -21.5 -63.5t-48.5 -21.5h-15q-29 0 -50.5 21.5t-21.5 63.5v160h39v-160
q0 -24 10 -36.5t24 -12.5h9q12 0 21.5 12.5t9.5 36.5v107q0 31 -17.5 53.5t-39 44.5t-39 47.5t-17.5 62.5v8v80q0 39 19.5 61t48.5 24q-12 12 -24 25t-22 27.5t-16 31.5t-6 38v96q0 41 21.5 63t50.5 22h9q29 0 50.5 -21.5t21.5 -63.5v-147h-40zM132 321q-1 8 -3 14.5
t-4 13.5q-9 17 -25 17h-6q-12 0 -22 -13t-10 -37v-84q0 -17 4 -29q10 -14 26 -14h9q12 0 21.5 12t9.5 37v77v1v5z" />
    <glyph glyph-name="dieresis" unicode="&#xa8;" horiz-adv-x="159" 
d="M63 607h-31v65h31v-65zM127 607h-31v65h31v-65z" />
    <glyph glyph-name="copyright" unicode="&#xa9;" horiz-adv-x="490" 
d="M19 348q0 72 9 136t34.5 111.5t71 75t117.5 27.5t116 -27.5t67.5 -75t31 -111.5t7.5 -136t-7.5 -136t-31 -111.5t-67.5 -75t-116 -27.5t-117.5 27.5t-71 75t-34.5 111.5t-9 136zM48 348q0 -66 7 -124.5t28.5 -102t61 -68.5t105.5 -25t104.5 25t58.5 68.5t25.5 102
t5.5 124.5t-5.5 124t-25.5 101.5t-58.5 69t-104.5 25.5t-105.5 -25.5t-61 -69t-28.5 -101.5t-7 -124zM286 394v82q0 25 -10 37t-22 12h-6q-13 0 -23 -12t-10 -37v-251q0 -25 9.5 -37t20.5 -12h9q12 0 22 12t10 37v84h43v-84q0 -42 -21.5 -63.5t-50.5 -21.5h-17
q-26 0 -47 21.5t-21 63.5v251q0 41 21 63t50 22h14q29 0 50.5 -21.5t21.5 -63.5v-82h-43z" />
    <glyph glyph-name="ordfeminine" unicode="&#xaa;" horiz-adv-x="137" 
d="M53 392q-34 0 -34 53v69q0 53 36 53h3q8 0 16 -4t16 -10v98q0 16 -7 23.5t-14 7.5h-3q-7 0 -13 -7.5t-6 -23.5v-76h-28v77q0 26 13.5 39.5t31.5 13.5h8q19 0 33 -14t14 -40v-257h-29v13q-18 -15 -34 -15h-3zM65 546q-7 0 -12.5 -8t-5.5 -24v-70q0 -15 6.5 -23t13.5 -8
q8 0 15.5 8t7.5 23v80q0 12 -7 17t-14 5h-4z" />
    <glyph glyph-name="guillemotleft" unicode="&#xab;" horiz-adv-x="207" 
d="M69 46l-47 199l46 201h41l-45 -202l47 -198h-42zM143 46l-47 199l46 201h41l-45 -202l47 -198h-42z" />
    <glyph glyph-name="logicalnot" unicode="&#xac;" horiz-adv-x="298" 
d="M276 234h-34v100h-220v32h254v-132z" />
    <glyph glyph-name="registered" unicode="&#xae;" horiz-adv-x="317" 
d="M22 526q0 37 8 69.5t24.5 57t42.5 38.5t63 14t63 -14t42 -38.5t23 -57t7 -69.5t-7 -69.5t-23 -57t-42 -38.5t-63 -14t-63 14t-42.5 38.5t-24.5 57t-8 69.5zM44 526q0 -33 6 -62.5t19.5 -51t35.5 -34.5t55 -13t55 13t35 34.5t18 51t5 62.5t-5 62.5t-18 51t-35 34.5t-55 13
t-55 -13t-35.5 -34.5t-19.5 -51t-6 -62.5zM203 556q0 -26 -17 -35q17 -5 17 -33v-57h-22v51q0 27 -17 27h-19v-78h-23v195h47q15 0 24.5 -12.5t9.5 -37.5v-20zM165 532q16 0 16 28v13q0 17 -5.5 24t-13.5 7h-17v-72h20z" />
    <glyph glyph-name="macron" unicode="&#xaf;" horiz-adv-x="184" 
d="M150 624h-120v32h120v-32z" />
    <glyph glyph-name="degree" unicode="&#xb0;" horiz-adv-x="127" 
d="M63 610q-18 0 -31 13t-13 31q0 19 13 32t31 13q19 0 32 -13t13 -32q0 -18 -13 -31t-32 -13zM63 687q-14 0 -23.5 -9.5t-9.5 -23.5t9.5 -23.5t23.5 -9.5t23.5 9.5t9.5 23.5t-9.5 23.5t-23.5 9.5z" />
    <glyph glyph-name="plusminus" unicode="&#xb1;" horiz-adv-x="282" 
d="M123 438v132h36v-132h101v-32h-101v-132h-36v132h-101v32h101zM230 82h-180v32h180v-32z" />
    <glyph glyph-name="twosuperior" unicode="&#xb2;" horiz-adv-x="116" 
d="M19 575v89q0 22 10.5 31.5t23.5 9.5h7q13 0 24.5 -9.5t11.5 -31.5v-52q0 -21 -8.5 -39t-19 -39.5t-19 -50.5t-8.5 -72h54v-19h-76v18q0 46 8.5 76t18.5 52t18.5 39t8.5 38v47q0 14 -5 19.5t-12 5.5h-1q-6 0 -11 -5.5t-5 -19.5v-87h-20z" />
    <glyph glyph-name="threesuperior" unicode="&#xb3;" horiz-adv-x="115" 
d="M57 561q8 0 13 6.5t5 20.5v74q0 14 -5.5 19t-11.5 5h-2q-6 0 -11 -5t-5 -19v-84h-21v87q0 21 11 30.5t24 9.5h6q13 0 25 -9.5t12 -30.5v-74q0 -18 -8 -27t-18 -11q10 -2 18 -10.5t8 -25.5v-85q0 -21 -12 -30.5t-25 -9.5h-6q-13 0 -24 9.5t-11 30.5v87h21v-84q0 -14 5 -19
t11 -5h3q6 0 11 5t5 19v83q0 14 -5 20.5t-13 6.5h-9v16h9z" />
    <glyph glyph-name="acute" unicode="&#xb4;" horiz-adv-x="149" 
d="M32 594l44 86h41l-56 -86h-29z" />
    <glyph glyph-name="mu" unicode="&#xb5;" horiz-adv-x="196" 
d="M177 0h-43v31q-12 -16 -26.5 -25t-28.5 -9h-3q-7 0 -15 2v-164h-43v660h43v-418q1 -23 11 -33.5t21 -10.5h3q11 0 23.5 14.5t14.5 37.5v410h43v-495z" />
    <glyph glyph-name="paragraph" unicode="&#xb6;" horiz-adv-x="290" 
d="M233 664h-70v-828h-35v566q-27 0 -47 13t-33.5 34.5t-20.5 48t-7 53.5t7 53.5t20.5 47.5t33.5 34t47 13h140v-863h-35v828z" />
    <glyph glyph-name="periodcentered" unicode="&#xb7;" horiz-adv-x="111" 
d="M79 207h-47v81h47v-81z" />
    <glyph glyph-name="cedilla" unicode="&#xb8;" horiz-adv-x="178" 
d="M32 -87l5 22q9 -7 23 -10t26.5 -2t21 7.5t7.5 19.5q-1 14 -16 18.5t-26 -2.5l-10 3l14 31h27l-8 -20q17 7 33.5 -1.5t16.5 -27.5q0 -23 -14 -35t-33 -16t-38 0t-29 13z" />
    <glyph glyph-name="onesuperior" unicode="&#xb9;" horiz-adv-x="88" 
d="M44 392v275q-5 -2 -13 -5t-13 -3v17q9 0 18 7t11 16h19v-307h-22z" />
    <glyph glyph-name="ordmasculine" unicode="&#xba;" horiz-adv-x="116" 
d="M55 392q-13 0 -24 9.5t-11 31.5v231q0 22 11 31.5t24 9.5h6q13 0 24 -9.5t11 -31.5v-231q0 -22 -11 -31.5t-24 -9.5h-6zM56 686q-14 0 -14 -24v-227q0 -24 14 -24h3q15 0 15 24v227q0 24 -15 24h-3z" />
    <glyph glyph-name="guillemotright" unicode="&#xbb;" horiz-adv-x="207" 
d="M22 46l48 198l-46 202h41l46 -201l-47 -199h-42zM96 46l48 198l-46 202h41l46 -201l-47 -199h-42z" />
    <glyph glyph-name="onequarter" unicode="&#xbc;" horiz-adv-x="267" 
d="M220 699h23l-194 -699h-23zM219 67v-19h-13v-47h-19l-1 47h-57l-2 19l51 239h27l1 -239h13zM66 392v275l-12.5 -5t-12.5 -3v17q8 0 17 7t11 16h19v-307h-22zM186 246h-1l-36 -179h37v179z" />
    <glyph glyph-name="onehalf" unicode="&#xbd;" horiz-adv-x="272" 
d="M220 699h23l-194 -699h-23zM66 392v275l-12.5 -5t-12.5 -3v17q8 0 17 7t11 16h19v-307h-22zM165 183v89q0 22 10.5 31.5t23.5 9.5h8q12 0 23.5 -9.5t11.5 -31.5v-52q0 -21 -8.5 -39t-18.5 -39.5t-18.5 -50.5t-8.5 -72h53v-19h-76v18q0 46 8.5 76t18.5 52t18.5 39t8.5 38
v47q0 14 -5 19.5t-11 5.5h-2q-6 0 -11 -5.5t-5 -19.5v-87h-20z" />
    <glyph glyph-name="threequarters" unicode="&#xbe;" horiz-adv-x="271" 
d="M220 699h23l-194 -699h-23zM200 164q8 0 13 6.5t5 20.5v75q0 14 -5 19.5t-12 5.5h-2q-6 0 -10.5 -5.5t-4.5 -19.5v-85h-22v88q0 21 11 30.5t24 9.5h7q12 0 24 -9.5t12 -30.5v-75q0 -18 -7.5 -27t-18.5 -11q11 -2 18.5 -10.5t7.5 -25.5v-86q0 -21 -12 -30.5t-24 -9.5h-7
q-13 0 -24 9.5t-11 30.5v88h22v-85q0 -14 5 -19t11 -5h2q6 0 11 5t5 19v84q0 14 -5 20.5t-13 6.5h-8v16h8zM66 392v275l-12.5 -5t-12.5 -3v17q8 0 17 7t11 16h19v-307h-22z" />
    <glyph glyph-name="questiondown" unicode="&#xbf;" horiz-adv-x="209" 
d="M189 117v-197q0 -24 -7 -41.5t-18.5 -28.5t-25.5 -16t-28 -5h-11q-14 0 -28.5 5t-25.5 16t-18 28.5t-7 41.5v113q0 33 7.5 60t18.5 52.5t23 51.5t20.5 58t11 72t-4.5 93h46q7 -58 4.5 -100.5t-11 -75.5t-20.5 -58.5t-23 -50t-18.5 -50.5t-7.5 -59v-99q0 -32 11.5 -45.5
t25.5 -13.5h7q14 0 25.5 13.5t11.5 45.5v190h42zM95 534h47v-81h-47v81z" />
    <glyph glyph-name="Agrave" unicode="&#xc0;" horiz-adv-x="204" 
d="M155 0h45l-69 699h-60l-68 -699h41l19 199h73zM99 566h1l32 -332h-65zM87 738l-56 86h41l44 -86h-29z" />
    <glyph glyph-name="Aacute" unicode="&#xc1;" horiz-adv-x="204" 
d="M136 199h-73l-19 -199h-41l68 699h60l69 -699h-45zM67 234h65l-32 332h-1zM86 738l44 86h41l-56 -86h-29z" />
    <glyph glyph-name="Acircumflex" unicode="&#xc2;" horiz-adv-x="204" 
d="M136 199h-73l-19 -199h-41l68 699h60l69 -699h-45zM67 234h65l-32 332h-1zM123 824l56 -86h-41l-36 64l-36 -64h-42l56 86h43z" />
    <glyph glyph-name="Atilde" unicode="&#xc3;" horiz-adv-x="204" 
d="M155 0h45l-69 699h-60l-68 -699h41l19 199h73zM99 566h1l32 -332h-65zM26 780q16 27 41 27q16 0 31 -10.5t32 -10.5q16 0 27 14l22 -14q-17 -27 -43 -27q-17 0 -32 10.5t-29 10.5q-17 0 -30 -14z" />
    <glyph glyph-name="Adieresis" unicode="&#xc4;" horiz-adv-x="204" 
d="M155 0h45l-69 699h-60l-68 -699h41l19 199h73zM99 566h1l32 -332h-65zM149 751h-32v65h32v-65zM85 751h-31v65h31v-65z" />
    <glyph glyph-name="Aring" unicode="&#xc5;" horiz-adv-x="204" 
d="M155 0h45l-69 699h-60l-68 -699h41l19 199h73zM99 566h1l32 -332h-65zM101 733q-22 0 -39 16.5t-17 39.5t16.5 40.5t39.5 17.5t41 -17t18 -41q0 -23 -17 -39.5t-42 -16.5zM101 823q-12 0 -22 -10t-10 -24q0 -12 10 -22.5t22 -10.5q14 0 24 10.5t10 22.5q0 14 -10 24
t-24 10z" />
    <glyph glyph-name="AE" unicode="&#xc6;" horiz-adv-x="288" 
d="M180 660v-293h72v-35h-72v-293h97v-39h-143v199h-73l-17 -199h-41l68 699h202v-39h-93zM64 234h70v426h-32z" />
    <glyph glyph-name="Ccedilla" unicode="&#xc7;" 
d="M48 -93l5 22q9 -7 23 -10t26.5 -2t21 7.5t7.5 19.5q-2 14 -16.5 18.5t-25.5 -2.5l-10 3l14 31q-14 1 -27 6.5t-23 16.5t-16.5 28t-6.5 40v529q0 24 7 41.5t18 28.5t25.5 16t28.5 5h15q14 0 28 -5t25.5 -16t18.5 -28.5t7 -41.5v-197h-46v190q0 32 -11.5 45.5t-25.5 13.5
h-7q-14 0 -25.5 -13.5t-11.5 -45.5v-515q0 -32 11.5 -45.5t25.5 -13.5h7q14 0 25.5 13.5t11.5 45.5v191h46v-198q0 -23 -6.5 -40t-17 -28t-23.5 -16.5t-27 -6.5h1l-8 -20q17 7 33.5 -1.5t16.5 -27.5q0 -23 -14 -35t-33 -16t-38 0t-29 13z" />
    <glyph glyph-name="Egrave" unicode="&#xc8;" horiz-adv-x="176" 
d="M161 660v39h-139v-699h143v39h-97v293h72v35h-72v293h93zM79 738l-56 86h41l44 -86h-29z" />
    <glyph glyph-name="Eacute" unicode="&#xc9;" horiz-adv-x="176" 
d="M68 660v-293h72v-35h-72v-293h97v-39h-143v699h139v-39h-93zM78 738l44 86h41l-56 -86h-29z" />
    <glyph glyph-name="Ecircumflex" unicode="&#xca;" horiz-adv-x="176" 
d="M68 660v-293h72v-35h-72v-293h97v-39h-143v699h139v-39h-93zM115 824l56 -86h-41l-36 64l-36 -64h-42l56 86h43z" />
    <glyph glyph-name="Edieresis" unicode="&#xcb;" horiz-adv-x="176" 
d="M161 660v39h-139v-699h143v39h-97v293h72v35h-72v293h93zM77 751h-31v65h31v-65zM141 751h-32v65h32v-65z" />
    <glyph glyph-name="Igrave" unicode="&#xcc;" horiz-adv-x="90" 
d="M22 699v-699h46v699h-46zM31 746l-56 86h41l44 -86h-29z" />
    <glyph glyph-name="Iacute" unicode="&#xcd;" horiz-adv-x="90" 
d="M68 699v-699h-46v699h46zM30 746l44 86h41l-56 -86h-29z" />
    <glyph glyph-name="Icircumflex" unicode="&#xce;" horiz-adv-x="90" 
d="M68 699v-699h-46v699h46zM67 832l56 -86h-41l-36 64l-36 -64h-42l56 86h43z" />
    <glyph glyph-name="Idieresis" unicode="&#xcf;" horiz-adv-x="90" 
d="M22 699v-699h46v699h-46zM29 759h-31v65h31v-65zM93 759h-32v65h32v-65z" />
    <glyph glyph-name="Eth" unicode="&#xd0;" horiz-adv-x="215" 
d="M22 0v334h-28v32h28v333h94q14 0 28 -4.5t25.5 -15t18.5 -27.5t7 -41v-523q0 -24 -7 -41t-18.5 -27.5t-25.5 -15t-28 -4.5h-94zM68 660v-294h28v-32h-28v-295h44q14 0 25.5 12t11.5 44v509q0 32 -11.5 44t-25.5 12h-44z" />
    <glyph glyph-name="Ntilde" unicode="&#xd1;" horiz-adv-x="234" 
d="M163 0l-105 561h-1v-561h-39v699h53l102 -555h1v555h42v-699h-53zM42 780q16 27 41 27q16 0 31 -10.5t32 -10.5q16 0 27 14l22 -14q-17 -27 -43 -27q-17 0 -32 10.5t-29 10.5q-17 0 -30 -14z" />
    <glyph glyph-name="Ograve" unicode="&#xd2;" 
d="M99 -6q-14 0 -28.5 5t-25.5 16t-18 28.5t-7 41.5v529q0 24 7 41.5t18 28.5t25.5 16t28.5 5h15q14 0 28 -5t25.5 -16t18.5 -28.5t7 -41.5v-529q0 -24 -7 -41.5t-18.5 -28.5t-25.5 -16t-28 -5h-15zM103 666q-14 0 -25.5 -13.5t-11.5 -45.5v-515q0 -32 11.5 -45.5
t25.5 -13.5h7q14 0 25.5 13.5t11.5 45.5v515q0 32 -11.5 45.5t-25.5 13.5h-7zM92 738l-56 86h41l44 -86h-29z" />
    <glyph glyph-name="Oacute" unicode="&#xd3;" 
d="M99 -6q-14 0 -28.5 5t-25.5 16t-18 28.5t-7 41.5v529q0 24 7 41.5t18 28.5t25.5 16t28.5 5h15q14 0 28 -5t25.5 -16t18.5 -28.5t7 -41.5v-529q0 -24 -7 -41.5t-18.5 -28.5t-25.5 -16t-28 -5h-15zM103 666q-14 0 -25.5 -13.5t-11.5 -45.5v-515q0 -32 11.5 -45.5
t25.5 -13.5h7q14 0 25.5 13.5t11.5 45.5v515q0 32 -11.5 45.5t-25.5 13.5h-7zM91 738l44 86h41l-56 -86h-29z" />
    <glyph glyph-name="Ocircumflex" unicode="&#xd4;" 
d="M99 -6q-14 0 -28.5 5t-25.5 16t-18 28.5t-7 41.5v529q0 24 7 41.5t18 28.5t25.5 16t28.5 5h15q14 0 28 -5t25.5 -16t18.5 -28.5t7 -41.5v-529q0 -24 -7 -41.5t-18.5 -28.5t-25.5 -16t-28 -5h-15zM103 666q-14 0 -25.5 -13.5t-11.5 -45.5v-515q0 -32 11.5 -45.5
t25.5 -13.5h7q14 0 25.5 13.5t11.5 45.5v515q0 32 -11.5 45.5t-25.5 13.5h-7zM128 824l56 -86h-42l-36 63l-35 -63h-42l56 86h43z" />
    <glyph glyph-name="Otilde" unicode="&#xd5;" 
d="M99 -6q-14 0 -28.5 5t-25.5 16t-18 28.5t-7 41.5v529q0 24 7 41.5t18 28.5t25.5 16t28.5 5h15q14 0 28 -5t25.5 -16t18.5 -28.5t7 -41.5v-529q0 -24 -7 -41.5t-18.5 -28.5t-25.5 -16t-28 -5h-15zM103 666q-14 0 -25.5 -13.5t-11.5 -45.5v-515q0 -32 11.5 -45.5
t25.5 -13.5h7q14 0 25.5 13.5t11.5 45.5v515q0 32 -11.5 45.5t-25.5 13.5h-7zM31 780q14 27 40 27q17 0 32 -10.5t32 -10.5q14 0 27 14l21 -14q-16 -27 -42 -27q-17 0 -32.5 10.5t-29.5 10.5q-16 0 -29 -14z" />
    <glyph glyph-name="Odieresis" unicode="&#xd6;" 
d="M99 -6q-14 0 -28.5 5t-25.5 16t-18 28.5t-7 41.5v529q0 24 7 41.5t18 28.5t25.5 16t28.5 5h15q14 0 28 -5t25.5 -16t18.5 -28.5t7 -41.5v-529q0 -24 -7 -41.5t-18.5 -28.5t-25.5 -16t-28 -5h-15zM103 666q-14 0 -25.5 -13.5t-11.5 -45.5v-515q0 -32 11.5 -45.5
t25.5 -13.5h7q14 0 25.5 13.5t11.5 45.5v515q0 32 -11.5 45.5t-25.5 13.5h-7zM90 751h-32v65h32v-65zM153 751h-31v65h31v-65z" />
    <glyph glyph-name="multiply" unicode="&#xd7;" horiz-adv-x="241" 
d="M95 350l-92 92l26 25l91 -92l92 92l26 -25l-92 -92l92 -92l-26 -25l-92 91l-91 -91l-26 25z" />
    <glyph glyph-name="Oslash" unicode="&#xd8;" horiz-adv-x="276" 
d="M130 -6q-20 0 -38.5 9.5t-29.5 31.5l-13 -45h-27l29 102v522q0 24 7 41.5t18 28.5t25.5 16t28.5 5h15q20 0 38.5 -9.5t29.5 -31.5l13 45h28l-30 -105v-519q0 -24 -7 -41.5t-18.5 -28.5t-25.5 -16t-28 -5h-15zM134 666q-14 0 -25.5 -13.5t-11.5 -45.5v-353l81 285v68
q0 32 -11.5 45.5t-25.5 13.5h-7zM134 33h7q14 0 25.5 13.5t11.5 45.5v350l-81 -284v-66q0 -32 11.5 -45.5t25.5 -13.5z" />
    <glyph glyph-name="Ugrave" unicode="&#xd9;" horiz-adv-x="215" 
d="M101 -6q-14 0 -28 5t-25.5 16t-18.5 28.5t-7 41.5v614h46v-607q0 -32 11.5 -45.5t25.5 -13.5h7q14 0 25.5 13.5t11.5 45.5v607h46v-614q0 -24 -7 -41.5t-18 -28.5t-25 -16t-29 -5h-15zM94 738l-56 86h42l44 -86h-30z" />
    <glyph glyph-name="Uacute" unicode="&#xda;" horiz-adv-x="215" 
d="M101 -6q-14 0 -28 5t-25.5 16t-18.5 28.5t-7 41.5v614h46v-607q0 -32 11.5 -45.5t25.5 -13.5h7q14 0 25.5 13.5t11.5 45.5v607h46v-614q0 -24 -7 -41.5t-18 -28.5t-25 -16t-29 -5h-15zM93 738l44 86h41l-56 -86h-29z" />
    <glyph glyph-name="Ucircumflex" unicode="&#xdb;" horiz-adv-x="215" 
d="M101 -6q-14 0 -28 5t-25.5 16t-18.5 28.5t-7 41.5v614h46v-607q0 -32 11.5 -45.5t25.5 -13.5h7q14 0 25.5 13.5t11.5 45.5v607h46v-614q0 -24 -7 -41.5t-18 -28.5t-25 -16t-29 -5h-15zM130 824l56 -86h-41l-36 64l-36 -64h-41l56 86h42z" />
    <glyph glyph-name="Udieresis" unicode="&#xdc;" horiz-adv-x="215" 
d="M101 -6q-14 0 -28 5t-25.5 16t-18.5 28.5t-7 41.5v614h46v-607q0 -32 11.5 -45.5t25.5 -13.5h7q14 0 25.5 13.5t11.5 45.5v607h46v-614q0 -24 -7 -41.5t-18 -28.5t-25 -16t-29 -5h-15zM92 751h-31v65h31v-65zM156 751h-31v65h31v-65z" />
    <glyph glyph-name="Yacute" unicode="&#xdd;" horiz-adv-x="202" 
d="M125 270l-1 -270h-46v270l-75 429h47l50 -322h2l50 322h47zM86 738l44 86h41l-56 -86h-29z" />
    <glyph glyph-name="Thorn" unicode="&#xde;" horiz-adv-x="204" 
d="M68 699v-100h44q29 0 50.5 -22t21.5 -63v-332q0 -41 -21.5 -62.5t-50.5 -21.5h-44v-98h-46v699h46zM68 562v-428h40q13 0 22.5 11.5t9.5 37.5v330q0 25 -9.5 37t-22.5 12h-40z" />
    <glyph glyph-name="germandbls" unicode="&#xdf;" horiz-adv-x="227" 
d="M120 376q17 0 29 15.5t12 47.5v168q0 32 -13.5 45.5t-27.5 13.5h-11q-14 0 -27.5 -13.5t-13.5 -45.5v-607h-46v614q0 24 7.5 41.5t19.5 28.5t27 16t29 5h19q14 0 29 -5t27 -16t19.5 -28.5t7.5 -41.5v-170q0 -41 -18 -60.5t-41 -24.5q23 -5 41 -23t18 -58v-187
q0 -24 -7 -41.5t-18.5 -28.5t-25.5 -16t-28 -5h-34v39h26q14 0 27.5 13.5t13.5 45.5v181q0 32 -12 47.5t-29 15.5h-26v34h26z" />
    <glyph glyph-name="agrave" unicode="&#xe0;" horiz-adv-x="193" 
d="M74 -3q-55 0 -55 85v110q0 85 58 85h3q27 0 53 -23v159q0 25 -10 37t-23 12h-6q-12 0 -22 -12t-10 -37v-122h-43v122q0 42 21.5 63.5t50.5 21.5h14q29 0 50 -22t21 -63v-413h-43v22q-13 -11 -27.5 -18t-27.5 -7h-4zM94 245q-12 0 -22 -12t-10 -37v-118q0 -25 10 -37
t22 -12h3q12 0 24 12t12 37v132q0 20 -11.5 27.5t-22.5 7.5h-5zM83 535l-56 86h42l44 -86h-30z" />
    <glyph glyph-name="aacute" unicode="&#xe1;" horiz-adv-x="193" 
d="M74 -3q-55 0 -55 85v110q0 85 58 85h3q27 0 53 -23v159q0 25 -10 37t-23 12h-6q-12 0 -22 -12t-10 -37v-122h-43v122q0 42 21.5 63.5t50.5 21.5h14q29 0 50 -22t21 -63v-413h-43v22q-13 -11 -27.5 -18t-27.5 -7h-4zM94 245q-12 0 -22 -12t-10 -37v-118q0 -25 10 -37
t22 -12h3q11 0 22.5 10.5t13.5 33.5v137q0 20 -11.5 27.5t-22.5 7.5h-5zM82 535l44 86h42l-56 -86h-30z" />
    <glyph glyph-name="acircumflex" unicode="&#xe2;" horiz-adv-x="193" 
d="M74 -3q-55 0 -55 85v110q0 85 58 85h3q27 0 53 -23v159q0 25 -10 37t-23 12h-6q-12 0 -22 -12t-10 -37v-122h-43v122q0 42 21.5 63.5t50.5 21.5h14q29 0 50 -22t21 -63v-413h-43v22q-13 -11 -27.5 -18t-27.5 -7h-4zM94 245q-12 0 -22 -12t-10 -37v-118q0 -25 10 -37
t22 -12h3q12 0 24 12t12 37v132q0 20 -11.5 27.5t-22.5 7.5h-5zM119 621l56 -86h-41l-36 64l-36 -64h-41l56 86h42z" />
    <glyph glyph-name="atilde" unicode="&#xe3;" horiz-adv-x="193" 
d="M74 -3q-55 0 -55 85v110q0 85 58 85h3q27 0 53 -23v159q0 25 -10 37t-23 12h-6q-12 0 -22 -12t-10 -37v-122h-43v122q0 42 21.5 63.5t50.5 21.5h14q29 0 50 -22t21 -63v-413h-43v22q-13 -11 -27.5 -18t-27.5 -7h-4zM94 245q-12 0 -22 -12t-10 -37v-118q0 -25 10 -37
t22 -12h3q12 0 24 12t12 37v136q-2 18 -13 24.5t-21 6.5h-5zM22 577q16 27 41 27q16 0 31.5 -10.5t32.5 -10.5q14 0 27 14l21 -14q-9 -15 -19 -21t-23 -6q-17 0 -32.5 10.5t-29.5 10.5q-16 0 -29 -14z" />
    <glyph glyph-name="adieresis" unicode="&#xe4;" horiz-adv-x="193" 
d="M74 -3q-55 0 -55 85v110q0 85 58 85h3q27 0 53 -23v159q0 25 -10 37t-23 12h-6q-12 0 -22 -12t-10 -37v-122h-43v122q0 42 21.5 63.5t50.5 21.5h14q29 0 50 -22t21 -63v-413h-43v22q-13 -11 -27.5 -18t-27.5 -7h-4zM94 245q-12 0 -22 -12t-10 -37v-118q0 -25 10 -37
t22 -12h3q11 0 22.5 10.5t13.5 33.5v141q-2 18 -13 24.5t-21 6.5h-5zM145 548h-31v65h31v-65zM81 548h-31v65h31v-65z" />
    <glyph glyph-name="aring" unicode="&#xe5;" horiz-adv-x="193" 
d="M74 -3q-55 0 -55 85v110q0 85 58 85h3q27 0 53 -23v159q0 25 -10 37t-23 12h-6q-12 0 -22 -12t-10 -37v-122h-43v122q0 42 21.5 63.5t50.5 21.5h14q29 0 50 -22t21 -63v-413h-43v22q-13 -11 -27.5 -18t-27.5 -7h-4zM94 245q-12 0 -22 -12t-10 -37v-118q0 -25 10 -37
t22 -12h3q11 0 22.5 10.5t13.5 33.5v137q0 20 -11.5 27.5t-22.5 7.5h-5zM98 529q-22 0 -39.5 16.5t-17.5 39.5q0 24 16.5 41.5t39.5 17.5q24 0 41.5 -17t17.5 -42q0 -22 -16.5 -39t-41.5 -17zM98 620q-13 0 -23 -10t-10 -24q0 -13 10 -23t23 -10q14 0 23.5 10t9.5 23
q0 14 -9.5 24t-23.5 10z" />
    <glyph glyph-name="ae" unicode="&#xe6;" horiz-adv-x="307" 
d="M74 -3q-55 0 -55 85v110q0 85 58 85h3q27 0 53 -23v159q0 25 -10 37t-23 12h-6q-12 0 -22 -12t-10 -37v-122h-43v122q0 42 21.5 63.5t50.5 21.5h14q29 0 49 -22q20 22 51 22h14q29 0 50 -21.5t21 -63.5v-173h-114v-158q0 -25 9.5 -37t20.5 -12h9q13 0 22.5 12t9.5 37v124
h43v-124q0 -42 -21 -63.5t-50 -21.5h-17q-17 0 -32.5 9t-25.5 27q-14 -16 -32 -26t-34 -10h-4zM94 245q-12 0 -22 -12t-10 -37v-118q0 -25 10 -37t22 -12h3q12 0 24 12t12 37v4v132q-2 18 -13 24.5t-21 6.5h-5zM176 270h71v143q0 25 -9.5 37t-22.5 12h-6q-12 0 -22 -11
t-11 -33v-5v-143z" />
    <glyph glyph-name="ccedilla" unicode="&#xe7;" horiz-adv-x="193" 
d="M38 -90l5 22q9 -7 23 -10t26.5 -2t21 7.5t7.5 19.5q-1 14 -16 18.5t-26 -2.5l-10 3l15 31q-26 2 -45.5 23t-19.5 62v331q0 41 21 63t50 22h14q29 0 50.5 -21.5t21.5 -63.5v-122h-43v122q0 25 -10 37t-22 12h-6q-13 0 -23 -12t-10 -37v-331q0 -25 9.5 -37t20.5 -12h9
q12 0 22 12t10 37v124h43v-124q0 -40 -19.5 -61.5t-47.5 -23.5l-7 -20q17 7 33.5 -1.5t16.5 -27.5q0 -23 -14 -35t-33 -16t-38 0t-29 13z" />
    <glyph glyph-name="egrave" unicode="&#xe8;" horiz-adv-x="193" 
d="M92 33h9q12 0 22 12t10 37v124h43v-124q0 -42 -21.5 -63.5t-50.5 -21.5h-17q-26 0 -47 21.5t-21 63.5v331q0 41 21 63t50 22h14q29 0 50.5 -21.5t21.5 -63.5v-173h-114v-158q0 -25 9.5 -37t20.5 -12zM133 270v143q0 25 -10 37t-22 12h-6q-13 0 -23 -12t-10 -37v-143h71z
M83 535l-56 86h41l44 -86h-29z" />
    <glyph glyph-name="eacute" unicode="&#xe9;" horiz-adv-x="193" 
d="M92 33h9q12 0 22 12t10 37v124h43v-124q0 -42 -21.5 -63.5t-50.5 -21.5h-17q-26 0 -47 21.5t-21 63.5v331q0 41 21 63t50 22h14q29 0 50.5 -21.5t21.5 -63.5v-173h-114v-158q0 -25 9.5 -37t20.5 -12zM133 270v143q0 25 -10 37t-22 12h-6q-13 0 -23 -12t-10 -37v-143h71z
M81 535l44 86h42l-56 -86h-30z" />
    <glyph glyph-name="ecircumflex" unicode="&#xea;" horiz-adv-x="193" 
d="M92 33h9q12 0 22 12t10 37v124h43v-124q0 -42 -21.5 -63.5t-50.5 -21.5h-17q-26 0 -47 21.5t-21 63.5v331q0 41 21 63t50 22h14q29 0 50.5 -21.5t21.5 -63.5v-173h-114v-158q0 -25 9.5 -37t20.5 -12zM133 270v143q0 25 -10 37t-22 12h-6q-13 0 -23 -12t-10 -37v-143h71z
M119 621l56 -86h-42l-36 64l-36 -64h-41l56 86h43z" />
    <glyph glyph-name="edieresis" unicode="&#xeb;" horiz-adv-x="193" 
d="M92 33h9q12 0 22 12t10 37v124h43v-124q0 -42 -21.5 -63.5t-50.5 -21.5h-17q-26 0 -47 21.5t-21 63.5v331q0 41 21 63t50 22h14q29 0 50.5 -21.5t21.5 -63.5v-173h-114v-158q0 -25 9.5 -37t20.5 -12zM133 270v143q0 25 -10 37t-22 12h-6q-13 0 -23 -12t-10 -37v-143h71z
M80 548h-31v65h31v-65zM144 548h-31v65h31v-65z" />
    <glyph glyph-name="igrave" unicode="&#xec;" horiz-adv-x="84" 
d="M22 495v-495h43v495h-43zM29 534l-56 86h42l44 -86h-30z" />
    <glyph glyph-name="iacute" unicode="&#xed;" horiz-adv-x="84" 
d="M65 495v-495h-43v495h43zM28 534l44 86h42l-56 -86h-30z" />
    <glyph glyph-name="icircumflex" unicode="&#xee;" horiz-adv-x="84" 
d="M65 495v-495h-43v495h43zM65 620l56 -86h-41l-36 64l-36 -64h-41l56 86h42z" />
    <glyph glyph-name="idieresis" unicode="&#xef;" horiz-adv-x="84" 
d="M22 495v-495h43v495h-43zM27 547h-31v65h31v-65zM91 547h-31v65h31v-65z" />
    <glyph glyph-name="eth" unicode="&#xf0;" horiz-adv-x="217" 
d="M176 0h-35l-5 32q-12 -16 -26 -25.5t-28 -9.5h-4q-59 0 -59 85v331q0 85 58 85h3q14 0 27.5 -9.5t25.5 -23.5v134h-35v32h35v68h43v-68h43v-32h-43v-599zM94 462q-12 0 -22 -12t-10 -37v-331q0 -25 10 -37t22 -12h3q12 0 24 15t12 40v319q0 25 -11.5 40t-24.5 15h-3z" />
    <glyph glyph-name="ntilde" unicode="&#xf1;" horiz-adv-x="197" 
d="M104 462q12 0 22 -12t10 -37v-413h43v413q0 85 -58 85h-4q-14 0 -28 -9.5t-26 -24.5v31h-43v-495h43v410q2 23 14 37.5t24 14.5h3zM44 577q14 27 40 27q17 0 32 -10.5t32 -10.5q14 0 27 14l21 -14q-8 -15 -18.5 -21t-23.5 -6q-17 0 -32.5 10.5t-29.5 10.5q-16 0 -29 -14z
" />
    <glyph glyph-name="ograve" unicode="&#xf2;" horiz-adv-x="193" 
d="M90 -3q-29 0 -50 21.5t-21 63.5v331q0 42 21 63.5t50 21.5h14q29 0 50.5 -21.5t21.5 -63.5v-331q0 -42 -21.5 -63.5t-50.5 -21.5h-14zM95 462q-13 0 -23 -12t-10 -37v-331q0 -25 10 -37t23 -12h6q12 0 22 12t10 37v331q0 25 -10 37t-22 12h-6zM84 535l-56 86h41l44 -86
h-29z" />
    <glyph glyph-name="oacute" unicode="&#xf3;" horiz-adv-x="193" 
d="M90 -3q-29 0 -50 21.5t-21 63.5v331q0 42 21 63.5t50 21.5h14q29 0 50.5 -21.5t21.5 -63.5v-331q0 -42 -21.5 -63.5t-50.5 -21.5h-14zM95 462q-13 0 -23 -12t-10 -37v-331q0 -25 10 -37t23 -12h6q12 0 22 12t10 37v331q0 25 -10 37t-22 12h-6zM83 535l44 86h41l-56 -86
h-29z" />
    <glyph glyph-name="ocircumflex" unicode="&#xf4;" horiz-adv-x="193" 
d="M90 -3q-29 0 -50 21.5t-21 63.5v331q0 42 21 63.5t50 21.5h14q29 0 50.5 -21.5t21.5 -63.5v-331q0 -42 -21.5 -63.5t-50.5 -21.5h-14zM95 462q-13 0 -23 -12t-10 -37v-331q0 -25 10 -37t23 -12h6q12 0 22 12t10 37v331q0 25 -10 37t-22 12h-6zM120 621l56 -86h-42l-36 63
l-35 -63h-42l56 86h43z" />
    <glyph glyph-name="otilde" unicode="&#xf5;" horiz-adv-x="193" 
d="M90 -3q-29 0 -50 21.5t-21 63.5v331q0 42 21 63.5t50 21.5h14q29 0 50.5 -21.5t21.5 -63.5v-331q0 -42 -21.5 -63.5t-50.5 -21.5h-14zM95 462q-13 0 -23 -12t-10 -37v-331q0 -25 10 -37t23 -12h6q12 0 22 12t10 37v331q0 25 -10 37t-22 12h-6zM23 577q14 27 40 27
q17 0 32 -10.5t32 -10.5q14 0 27 14l21 -14q-8 -15 -18.5 -21t-23.5 -6q-17 0 -32.5 10.5t-29.5 10.5q-16 0 -29 -14z" />
    <glyph glyph-name="odieresis" unicode="&#xf6;" horiz-adv-x="193" 
d="M90 -3q-29 0 -50 21.5t-21 63.5v331q0 42 21 63.5t50 21.5h14q29 0 50.5 -21.5t21.5 -63.5v-331q0 -42 -21.5 -63.5t-50.5 -21.5h-14zM95 462q-13 0 -23 -12t-10 -37v-331q0 -25 10 -37t23 -12h6q12 0 22 12t10 37v331q0 25 -10 37t-22 12h-6zM82 549h-32v65h32v-65z
M145 549h-31v65h31v-65z" />
    <glyph glyph-name="divide" unicode="&#xf7;" horiz-adv-x="343" 
d="M323 334h-303v32h303v-32zM195 399h-47v81h47v-81zM195 218h-47v81h47v-81z" />
    <glyph glyph-name="oslash" unicode="&#xf8;" horiz-adv-x="219" 
d="M104 -3q-30 0 -49 21l-9 -31h-27l18 61v1q-2 7 -3 15.5t-1 17.5v331q0 42 21 63.5t50 21.5h14q26 0 46 -18l9 28h27l-17 -56q7 -15 7 -39v-331q0 -42 -21.5 -63.5t-50.5 -21.5h-14zM109 33h6q12 0 22 12t10 37v247l-71 -240v-7q0 -25 10 -37t23 -12zM109 462
q-13 0 -23 -12t-10 -37v-234l71 240q-2 22 -11.5 32.5t-20.5 10.5h-6z" />
    <glyph glyph-name="ugrave" unicode="&#xf9;" horiz-adv-x="196" 
d="M93 33q-12 0 -22 12t-10 37v413h-43v-413q0 -85 58 -85h3q14 0 28.5 9t26.5 25v-31h43v495h-43v-410q-2 -23 -14.5 -37.5t-23.5 -14.5h-3zM83 534l-56 86h42l44 -86h-30z" />
    <glyph glyph-name="uacute" unicode="&#xfa;" horiz-adv-x="196" 
d="M96 33q12 0 25 16t13 41v405h43v-495h-43v31q-12 -16 -26.5 -25t-28.5 -9h-3q-58 0 -58 85v413h43v-413q0 -25 10 -37t22 -12h3zM82 534l44 86h41l-56 -86h-29z" />
    <glyph glyph-name="ucircumflex" unicode="&#xfb;" horiz-adv-x="196" 
d="M96 33q11 0 23.5 14.5t14.5 37.5v410h43v-495h-43v31q-12 -16 -26.5 -25t-28.5 -9h-3q-58 0 -58 85v413h43v-413q0 -25 10 -37t22 -12h3zM119 620l56 -86h-41l-36 64l-36 -64h-41l56 86h42z" />
    <glyph glyph-name="udieresis" unicode="&#xfc;" horiz-adv-x="196" 
d="M93 33q-12 0 -22 12t-10 37v413h-43v-413q0 -85 58 -85h3q14 0 28.5 9t26.5 25v-31h43v495h-43v-410q-2 -23 -14.5 -37.5t-23.5 -14.5h-3zM145 547h-31v65h31v-65zM81 547h-31v65h31v-65z" />
    <glyph glyph-name="yacute" unicode="&#xfd;" horiz-adv-x="171" 
d="M132 495h37l-74 -660h-43l21 165l-71 495h40l46 -371h1zM70 535l44 86h42l-56 -86h-30z" />
    <glyph glyph-name="thorn" unicode="&#xfe;" horiz-adv-x="201" 
d="M68 699v-201h44q29 0 50.5 -21.5t21.5 -63.5v-331q0 -42 -21.5 -63.5t-50.5 -21.5h-44v-162h-46v864h46zM68 462v-429h40q13 0 22.5 12t9.5 37v331q0 25 -9.5 37t-22.5 12h-40z" />
    <glyph glyph-name="ydieresis" unicode="&#xff;" horiz-adv-x="171" 
d="M89 124h-1l-46 371h-40l71 -495l-21 -165h43l74 660h-37zM68 549h-31v65h31v-65zM132 549h-31v65h31v-65z" />
    <glyph glyph-name="Amacron" unicode="&#x100;" horiz-adv-x="204" 
d="M136 199h-73l-19 -199h-41l68 699h60l69 -699h-45zM67 234h65l-32 332h-1zM160 768h-120v32h120v-32z" />
    <glyph glyph-name="amacron" unicode="&#x101;" horiz-adv-x="193" 
d="M74 -3q-55 0 -55 85v110q0 85 58 85h3q27 0 53 -23v159q0 25 -10 37t-23 12h-6q-12 0 -22 -12t-10 -37v-122h-43v122q0 42 21.5 63.5t50.5 21.5h14q29 0 50 -22t21 -63v-413h-43v22q-13 -11 -27.5 -18t-27.5 -7h-4zM94 245q-12 0 -22 -12t-10 -37v-118q0 -25 10 -37
t22 -12h3q11 0 22.5 10.5t13.5 33.5v137q0 20 -11.5 27.5t-22.5 7.5h-5zM157 564h-121v33h121v-33z" />
    <glyph glyph-name="Abreve" unicode="&#x102;" horiz-adv-x="204" 
d="M155 0h45l-69 699h-60l-68 -699h41l19 199h73zM99 566h1l32 -332h-65zM69 814q0 -13 9.5 -23t23.5 -10t23.5 10t9.5 23h28q0 -24 -18 -42t-44 -18q-23 0 -41 17.5t-18 42.5h27z" />
    <glyph glyph-name="abreve" unicode="&#x103;" horiz-adv-x="193" 
d="M74 -3q-55 0 -55 85v110q0 85 58 85h3q27 0 53 -23v159q0 25 -10 37t-23 12h-6q-12 0 -22 -12t-10 -37v-122h-43v122q0 42 21.5 63.5t50.5 21.5h14q29 0 50 -22t21 -63v-413h-43v22q-13 -11 -27.5 -18t-27.5 -7h-4zM94 245q-12 0 -22 -12t-10 -37v-118q0 -25 10 -37
t22 -12h3q11 0 22.5 10.5t13.5 33.5v141q-2 18 -13 24.5t-21 6.5h-5zM65 611q0 -13 10 -23t23 -10q14 0 24 10t10 23h28q0 -24 -18 -42t-44 -18q-23 0 -41.5 17.5t-18.5 42.5h27z" />
    <glyph glyph-name="Aogonek" unicode="&#x104;" horiz-adv-x="204" 
d="M228 -62q-8 -17 -23 -24t-31 -5.5t-27.5 12t-11.5 30.5q0 28 29 49h-9l-19 199h-73l-19 -199h-41l68 699h60l69 -699h-1q-17 -7 -27.5 -20t-9.5 -25q0 -11 5.5 -17t13.5 -6.5t16.5 3.5t14.5 13zM67 234h65l-32 332h-1z" />
    <glyph glyph-name="aogonek" unicode="&#x105;" horiz-adv-x="193" 
d="M74 -3q-55 0 -55 85v110q0 85 58 85h3q27 0 53 -23v159q0 25 -10 37t-23 12h-6q-12 0 -22 -12t-10 -37v-122h-43v122q0 42 21.5 63.5t50.5 21.5h14q29 0 50 -22t21 -63v-413h-43v22q-13 -11 -27.5 -18t-27.5 -7h-4zM94 245q-12 0 -22 -12t-10 -37v-118q0 -25 10 -37
t22 -12h3q11 0 22.5 10.5t13.5 33.5v141q-2 18 -13 24.5t-21 6.5h-5zM189 -52q-6 -9 -14 -13t-16 -3.5t-14 6.5t-6 17q0 12 10.5 25t27.5 20h-36q-13 -10 -20.5 -22.5t-7.5 -26.5q0 -20 11.5 -30.5t27 -12t30.5 5.5t23 24z" />
    <glyph glyph-name="Cacute" unicode="&#x106;" 
d="M99 -6q-14 0 -28.5 5t-25.5 16t-18 28.5t-7 41.5v529q0 24 7 41.5t18 28.5t25.5 16t28.5 5h15q14 0 28 -5t25.5 -16t18.5 -28.5t7 -41.5v-197h-46v190q0 32 -11.5 45.5t-25.5 13.5h-7q-14 0 -25.5 -13.5t-11.5 -45.5v-515q0 -32 11.5 -45.5t25.5 -13.5h7q14 0 25.5 13.5
t11.5 45.5v191h46v-198q0 -24 -7 -41.5t-18.5 -28.5t-25.5 -16t-28 -5h-15zM91 742l44 86h41l-56 -86h-29z" />
    <glyph glyph-name="cacute" unicode="&#x107;" horiz-adv-x="193" 
d="M133 291v122q0 25 -10 37t-22 12h-6q-13 0 -23 -12t-10 -37v-331q0 -25 9.5 -37t20.5 -12h9q12 0 22 12t10 37v124h43v-124q0 -42 -21.5 -63.5t-50.5 -21.5h-17q-26 0 -47 21.5t-21 63.5v331q0 41 21 63t50 22h14q29 0 50.5 -21.5t21.5 -63.5v-122h-43zM82 535l44 86h41
l-56 -86h-29z" />
    <glyph glyph-name="Ccircumflex" unicode="&#x108;" 
d="M99 -6q-14 0 -28.5 5t-25.5 16t-18 28.5t-7 41.5v529q0 24 7 41.5t18 28.5t25.5 16t28.5 5h15q14 0 28 -5t25.5 -16t18.5 -28.5t7 -41.5v-197h-46v190q0 32 -11.5 45.5t-25.5 13.5h-7q-14 0 -25.5 -13.5t-11.5 -45.5v-515q0 -32 11.5 -45.5t25.5 -13.5h7q14 0 25.5 13.5
t11.5 45.5v191h46v-198q0 -24 -7 -41.5t-18.5 -28.5t-25.5 -16t-28 -5h-15zM128 828l56 -86h-42l-36 63l-35 -63h-42l56 86h43z" />
    <glyph glyph-name="ccircumflex" unicode="&#x109;" horiz-adv-x="193" 
d="M133 291v122q0 25 -10 37t-22 12h-6q-13 0 -23 -12t-10 -37v-331q0 -25 9.5 -37t20.5 -12h9q12 0 22 12t10 37v124h43v-124q0 -42 -21.5 -63.5t-50.5 -21.5h-17q-26 0 -47 21.5t-21 63.5v331q0 41 21 63t50 22h14q29 0 50.5 -21.5t21.5 -63.5v-122h-43zM119 621l56 -86
h-41l-36 64l-36 -64h-41l56 86h42z" />
    <glyph glyph-name="Cdotaccent" unicode="&#x10a;" 
d="M99 -6q-14 0 -28.5 5t-25.5 16t-18 28.5t-7 41.5v529q0 24 7 41.5t18 28.5t25.5 16t28.5 5h15q14 0 28 -5t25.5 -16t18.5 -28.5t7 -41.5v-197h-46v190q0 32 -11.5 45.5t-25.5 13.5h-7q-14 0 -25.5 -13.5t-11.5 -45.5v-515q0 -32 11.5 -45.5t25.5 -13.5h7q14 0 25.5 13.5
t11.5 45.5v191h46v-198q0 -24 -7 -41.5t-18.5 -28.5t-25.5 -16t-28 -5h-15zM121 755h-31v65h31v-65z" />
    <glyph glyph-name="cdotaccent" unicode="&#x10b;" horiz-adv-x="193" 
d="M133 291v122q0 25 -10 37t-22 12h-6q-13 0 -23 -12t-10 -37v-331q0 -25 9.5 -37t20.5 -12h9q12 0 22 12t10 37v124h43v-124q0 -42 -21.5 -63.5t-50.5 -21.5h-17q-26 0 -47 21.5t-21 63.5v331q0 41 21 63t50 22h14q29 0 50.5 -21.5t21.5 -63.5v-122h-43zM112 549h-31v64
h31v-64z" />
    <glyph glyph-name="Ccaron" unicode="&#x10c;" 
d="M99 -6q-14 0 -28.5 5t-25.5 16t-18 28.5t-7 41.5v529q0 24 7 41.5t18 28.5t25.5 16t28.5 5h15q14 0 28 -5t25.5 -16t18.5 -28.5t7 -41.5v-197h-46v190q0 32 -11.5 45.5t-25.5 13.5h-7q-14 0 -25.5 -13.5t-11.5 -45.5v-515q0 -32 11.5 -45.5t25.5 -13.5h7q14 0 25.5 13.5
t11.5 45.5v191h46v-198q0 -24 -7 -41.5t-18.5 -28.5t-25.5 -16t-28 -5h-15zM84 744l-56 86h42l35 -64l36 64h42l-56 -86h-43z" />
    <glyph glyph-name="ccaron" unicode="&#x10d;" horiz-adv-x="193" 
d="M133 291v122q0 25 -10 37t-22 12h-6q-13 0 -23 -12t-10 -37v-331q0 -25 9.5 -37t20.5 -12h9q12 0 22 12t10 37v124h43v-124q0 -42 -21.5 -63.5t-50.5 -21.5h-17q-26 0 -47 21.5t-21 63.5v331q0 41 21 63t50 22h14q29 0 50.5 -21.5t21.5 -63.5v-122h-43zM76 537l-56 86h41
l36 -65l36 65h41l-56 -86h-42z" />
    <glyph glyph-name="Dcaron" unicode="&#x10e;" horiz-adv-x="215" 
d="M22 0v699h94q14 0 28 -4.5t25.5 -15t18.5 -27.5t7 -41v-523q0 -24 -7 -41t-18.5 -27.5t-25.5 -15t-28 -4.5h-94zM68 660v-621h44q14 0 25.5 12t11.5 44v509q0 32 -11.5 44t-25.5 12h-44zM87 741l-56 86h41l36 -65l36 65h41l-56 -86h-42z" />
    <glyph glyph-name="dcaron" unicode="&#x10f;" horiz-adv-x="254" 
d="M78 -3q-59 0 -59 85v331q0 85 58 85h3q14 0 27.5 -9.5t25.5 -23.5v234h43v-699h-35l-5 32q-12 -16 -26 -25.5t-28 -9.5h-4zM94 462q-12 0 -22 -12t-10 -37v-331q0 -25 10 -37t22 -12h3q12 0 24 15t12 40v319q0 25 -11.5 40t-24.5 15h-3zM262 618l-21 -57h-21l15 57h-21
v81h48v-81z" />
    <glyph glyph-name="Dcroat" unicode="&#x110;" horiz-adv-x="243" 
d="M50 0v334h-28v32h28v333h94q14 0 28.5 -4.5t26 -15t18.5 -27.5t7 -41v-523q0 -24 -7 -41t-18.5 -27.5t-26 -15t-28.5 -4.5h-94zM97 660v-294h28v-32h-28v-295h44q14 0 25 12t11 44v509q0 32 -11 44t-25 12h-44z" />
    <glyph glyph-name="dcroat" unicode="&#x111;" horiz-adv-x="227" 
d="M176 0h-35l-5 32q-12 -16 -26 -25.5t-28 -9.5h-4q-59 0 -59 85v331q0 85 58 85h3q14 0 27.5 -9.5t25.5 -23.5v134h-35v32h35v68h43v-68h43v-32h-43v-599zM94 462q-12 0 -22 -12t-10 -37v-331q0 -25 10 -37t22 -12h3q12 0 24 15t12 40v319q0 25 -11.5 40t-24.5 15h-3z" />
    <glyph glyph-name="Emacron" unicode="&#x112;" horiz-adv-x="176" 
d="M68 660v-293h72v-35h-72v-293h97v-39h-143v699h139v-39h-93zM152 768h-120v32h120v-32z" />
    <glyph glyph-name="emacron" unicode="&#x113;" horiz-adv-x="193" 
d="M92 33h9q12 0 22 12t10 37v124h43v-124q0 -42 -21.5 -63.5t-50.5 -21.5h-17q-26 0 -47 21.5t-21 63.5v331q0 41 21 63t50 22h14q29 0 50.5 -21.5t21.5 -63.5v-173h-114v-158q0 -25 9.5 -37t20.5 -12zM133 270v143q0 25 -10 37t-22 12h-6q-13 0 -23 -12t-10 -37v-143h71z
M156 564h-120v33h120v-33z" />
    <glyph glyph-name="Ebreve" unicode="&#x114;" horiz-adv-x="176" 
d="M161 660v39h-139v-699h143v39h-97v293h72v35h-72v293h93zM61 814q0 -13 9.5 -23t23.5 -10t23.5 10t9.5 23h28q0 -24 -18 -42t-44 -18q-23 0 -41 17.5t-18 42.5h27z" />
    <glyph glyph-name="ebreve" unicode="&#x115;" horiz-adv-x="193" 
d="M92 33h9q12 0 22 12t10 37v124h43v-124q0 -42 -21.5 -63.5t-50.5 -21.5h-17q-26 0 -47 21.5t-21 63.5v331q0 41 21 63t50 22h14q29 0 50.5 -21.5t21.5 -63.5v-173h-114v-158q0 -25 9.5 -37t20.5 -12zM133 270v143q0 25 -10 37t-22 12h-6q-13 0 -23 -12t-10 -37v-143h71z
M65 611q0 -13 9.5 -23t22.5 -10q14 0 24 10t10 23h28q0 -24 -18 -42t-44 -18q-23 0 -41 17.5t-18 42.5h27z" />
    <glyph glyph-name="Edotaccent" unicode="&#x116;" horiz-adv-x="176" 
d="M161 660v39h-139v-699h143v39h-97v293h72v35h-72v293h93zM108 752h-31v65h31v-65z" />
    <glyph glyph-name="edotaccent" unicode="&#x117;" horiz-adv-x="193" 
d="M92 33h9q12 0 22 12t10 37v124h43v-124q0 -42 -21.5 -63.5t-50.5 -21.5h-17q-26 0 -47 21.5t-21 63.5v331q0 41 21 63t50 22h14q29 0 50.5 -21.5t21.5 -63.5v-173h-114v-158q0 -25 9.5 -37t20.5 -12zM133 270v143q0 25 -10 37t-22 12h-6q-13 0 -23 -12t-10 -37v-143h71z
M112 549h-32v64h32v-64z" />
    <glyph glyph-name="Eogonek" unicode="&#x118;" horiz-adv-x="176" 
d="M144 -62q-8 -17 -23 -24t-30.5 -5.5t-27 12t-11.5 30.5q0 29 28 49h-58v699h139v-39h-93v-293h72v-35h-72v-293h97v-39h-50q-17 -7 -27 -20t-10 -25q0 -11 5.5 -17t13.5 -6.5t16.5 3.5t14.5 13z" />
    <glyph glyph-name="eogonek" unicode="&#x119;" horiz-adv-x="193" 
d="M147 -65q-8 -17 -23 -24t-30.5 -5.5t-27 12t-11.5 30.5q0 14 7.5 26.5t19.5 22.5q-25 2 -44 23.5t-19 61.5v331q0 41 21 63t50 22h14q29 0 50.5 -21.5t21.5 -63.5v-173h-114v-158q0 -25 9.5 -37t20.5 -12h9q12 0 22 12t10 37v124h43v-124q0 -38 -17.5 -59t-42.5 -25
q-16 -9 -25.5 -22t-9.5 -24t5.5 -17t13.5 -6.5t16.5 3.5t14.5 13zM133 270v143q0 25 -10 37t-22 12h-6q-13 0 -23 -12t-10 -37v-143h71z" />
    <glyph glyph-name="Ecaron" unicode="&#x11a;" horiz-adv-x="176" 
d="M161 660v39h-139v-699h143v39h-97v293h72v35h-72v293h93zM71 741l-56 86h42l36 -65l36 65h41l-56 -86h-43z" />
    <glyph glyph-name="ecaron" unicode="&#x11b;" horiz-adv-x="193" 
d="M92 33h9q12 0 22 12t10 37v124h43v-124q0 -42 -21.5 -63.5t-50.5 -21.5h-17q-26 0 -47 21.5t-21 63.5v331q0 41 21 63t50 22h14q29 0 50.5 -21.5t21.5 -63.5v-173h-114v-158q0 -25 9.5 -37t20.5 -12zM133 270v143q0 25 -10 37t-22 12h-6q-13 0 -23 -12t-10 -37v-143h71z
M75 537l-56 86h41l36 -65l36 65h42l-56 -86h-43z" />
    <glyph glyph-name="Gcircumflex" unicode="&#x11c;" 
d="M108 283h85v-182v-5v-96h-24l-6 23q-13 -14 -28 -21.5t-28 -7.5h-8q-14 0 -28.5 5t-25.5 16t-18 28.5t-7 41.5v529q0 24 7 41.5t18 28.5t25.5 16t28.5 5h15q14 0 28 -5t25.5 -16t18.5 -28.5t7 -41.5v-197h-46v190q0 32 -11.5 45.5t-25.5 13.5h-7q-14 0 -25.5 -13.5
t-11.5 -45.5v-515q0 -32 11.5 -45.5t25.5 -13.5h7q14 0 25.5 13.5t11.5 45.5v152h-39v39zM128 824l56 -86h-42l-36 63l-35 -63h-42l56 86h43z" />
    <glyph glyph-name="gcircumflex" unicode="&#x11d;" horiz-adv-x="195" 
d="M176 495v-575q0 -42 -21 -63.5t-47 -21.5h-17q-29 0 -50.5 21.5t-21.5 63.5v51h43v-51q0 -25 10 -37t22 -12h9q11 0 20.5 12t9.5 37v107q-12 -14 -26 -22t-27 -8h-3q-58 0 -58 85v331q0 85 59 85h4q12 0 25.5 -8t25.5 -22v8l8 19h35zM97 33q11 0 22.5 13.5t13.5 36.5v324
q0 25 -12 40t-24 15h-3q-12 0 -22 -12t-10 -37v-331q0 -25 10 -37t22 -12h3zM117 621l56 -86h-41l-36 64l-36 -64h-41l56 86h42z" />
    <glyph glyph-name="Gbreve" unicode="&#x11e;" 
d="M108 283h85v-182v-5v-96h-24l-6 23q-13 -14 -28 -21.5t-28 -7.5h-8q-14 0 -28.5 5t-25.5 16t-18 28.5t-7 41.5v529q0 24 7 41.5t18 28.5t25.5 16t28.5 5h15q14 0 28 -5t25.5 -16t18.5 -28.5t7 -41.5v-197h-46v190q0 32 -11.5 45.5t-25.5 13.5h-7q-14 0 -25.5 -13.5
t-11.5 -45.5v-515q0 -32 11.5 -45.5t25.5 -13.5h7q14 0 25.5 13.5t11.5 45.5v152h-39v39zM74 814q0 -13 9.5 -23t22.5 -10q14 0 24 10t10 23h28q0 -24 -18 -42t-44 -18q-23 0 -41 17.5t-18 42.5h27z" />
    <glyph glyph-name="gbreve" unicode="&#x11f;" horiz-adv-x="195" 
d="M141 495l-8 -19v-8q-12 14 -25.5 22t-25.5 8h-4q-59 0 -59 -85v-331q0 -85 58 -85h3q13 0 27 8t26 22v-107q0 -25 -9.5 -37t-20.5 -12h-9q-12 0 -22 12t-10 37v51h-43v-51q0 -42 21.5 -63.5t50.5 -21.5h17q26 0 47 21.5t21 63.5v575h-35zM94 33q-12 0 -22 12t-10 37v331
q0 25 10 37t22 12h3q12 0 24 -15t12 -40v-319q0 -25 -12 -40t-24 -15h-3zM63 611q0 -13 10 -23t23 -10q14 0 24 10t10 23h27q0 -24 -18 -42t-44 -18q-23 0 -41 17.5t-18 42.5h27z" />
    <glyph glyph-name="Gdotaccent" unicode="&#x120;" 
d="M99 -6q-14 0 -28.5 5t-25.5 16t-18 28.5t-7 41.5v529q0 24 7 41.5t18 28.5t25.5 16t28.5 5h15q14 0 28 -5t25.5 -16t18.5 -28.5t7 -41.5v-197h-46v190q0 32 -11.5 45.5t-25.5 13.5h-7q-14 0 -25.5 -13.5t-11.5 -45.5v-515q0 -32 11.5 -45.5t25.5 -13.5h7q14 0 25.5 13.5
t11.5 45.5v152h-39v39h85v-283h-24l-6 23q-13 -14 -28 -21.5t-28 -7.5h-8zM121 752h-31v65h31v-65z" />
    <glyph glyph-name="gdotaccent" unicode="&#x121;" horiz-adv-x="195" 
d="M141 495l-8 -19v-8q-12 14 -25.5 22t-25.5 8h-4q-59 0 -59 -85v-331q0 -85 58 -85h3q13 0 27 8t26 22v-107q0 -25 -9.5 -37t-20.5 -12h-9q-12 0 -22 12t-10 37v51h-43v-51q0 -42 21.5 -63.5t50.5 -21.5h17q26 0 47 21.5t21 63.5v575h-35zM94 33q-12 0 -22 12t-10 37v331
q0 25 10 37t22 12h3q11 0 22.5 -13.5t13.5 -36.5v-324q0 -25 -12 -40t-24 -15h-3zM110 549h-31v64h31v-64z" />
    <glyph glyph-name="uni0122" unicode="&#x122;" 
d="M99 -6q-14 0 -28.5 5t-25.5 16t-18 28.5t-7 41.5v529q0 24 7 41.5t18 28.5t25.5 16t28.5 5h15q14 0 28 -5t25.5 -16t18.5 -28.5t7 -41.5v-197h-46v190q0 32 -11.5 45.5t-25.5 13.5h-7q-14 0 -25.5 -13.5t-11.5 -45.5v-515q0 -32 11.5 -45.5t25.5 -13.5h7q14 0 25.5 13.5
t11.5 45.5v152h-39v39h85v-283h-24l-6 23q-13 -14 -28 -21.5t-28 -7.5h-8zM126 -111l-21 -57h-20l15 57h-21v81h47v-81z" />
    <glyph glyph-name="uni0123" unicode="&#x123;" horiz-adv-x="195" 
d="M141 495l-8 -19v-8q-12 14 -25.5 22t-25.5 8h-4q-59 0 -59 -85v-331q0 -85 58 -85h3q13 0 27 8t26 22v-107q0 -25 -9.5 -37t-20.5 -12h-9q-12 0 -22 12t-10 37v51h-43v-51q0 -42 21.5 -63.5t50.5 -21.5h17q26 0 47 21.5t21 63.5v575h-35zM94 33q-12 0 -22 12t-10 37v331
q0 25 10 37t22 12h3q11 0 22.5 -13.5t13.5 -36.5v-324q0 -25 -12 -40t-24 -15h-3zM77 597l17 45h18l-11 -45h10v-62h-34v62z" />
    <glyph glyph-name="Hcircumflex" unicode="&#x124;" 
d="M191 699v-699h-47v332h-76v-332h-46v699h46v-332h76v332h47zM128 824l56 -86h-42l-36 63l-35 -63h-42l56 86h43z" />
    <glyph glyph-name="hcircumflex" unicode="&#x125;" horiz-adv-x="198" 
d="M102 462q-11 0 -23 -14.5t-14 -37.5v-410h-43v699h43v-235q11 15 25.5 24.5t28.5 9.5h3q58 0 58 -85v-413h-43v413q0 25 -10 37t-22 12h-3zM65 824l56 -86h-41l-36 64l-36 -64h-42l56 86h43z" />
    <glyph glyph-name="LATIN CAPITAL LETTER H WITH STROKE" unicode="&#x126;" 
d="M22 511v188h46v-188h76v188h47v-188h17v-32h-17v-479h-47v332h-76v-332h-46v479h-18v32h18zM144 367v112h-76v-112h76z" />
    <glyph glyph-name="LATIN SMALL LETTER H WITH STROKE" unicode="&#x127;" horiz-adv-x="198" 
d="M102 462q-11 0 -23 -14.5t-14 -37.5v-410h-43v599h-30v32h30v68h43v-68h48v-32h-48v-135q11 15 25.5 24.5t28.5 9.5h3q58 0 58 -85v-413h-43v413q0 25 -10 37t-22 12h-3z" />
    <glyph glyph-name="Itilde" unicode="&#x128;" horiz-adv-x="90" 
d="M22 699v-699h46v699h-46zM-30 788q16 27 41 27q16 0 31 -10.5t32 -10.5q16 0 27 14l22 -14q-9 -15 -19.5 -21t-23.5 -6q-17 0 -32 10.5t-29 10.5q-17 0 -30 -14z" />
    <glyph glyph-name="itilde" unicode="&#x129;" horiz-adv-x="84" 
d="M22 495v-495h43v495h-43zM-32 576q16 27 41 27q16 0 31.5 -10.5t32.5 -10.5q14 0 27 14l21 -14q-17 -27 -42 -27q-17 0 -32.5 10.5t-29.5 10.5q-16 0 -29 -14z" />
    <glyph glyph-name="Imacron" unicode="&#x12a;" horiz-adv-x="90" 
d="M68 699v-699h-46v699h46zM104 775h-120v33h120v-33z" />
    <glyph glyph-name="imacron" unicode="&#x12b;" horiz-adv-x="84" 
d="M65 495v-495h-43v495h43zM103 564h-121v32h121v-32z" />
    <glyph glyph-name="Ibreve" unicode="&#x12c;" horiz-adv-x="90" 
d="M22 699v-699h46v699h-46zM13 822q0 -13 9.5 -23t23.5 -10t23.5 10t9.5 23h28q0 -24 -18 -42t-44 -18q-23 0 -41 17.5t-18 42.5h27z" />
    <glyph glyph-name="ibreve" unicode="&#x12d;" horiz-adv-x="84" 
d="M22 495v-495h43v495h-43zM11 610q0 -13 10 -23t23 -10q14 0 24 10t10 23h28q0 -24 -18 -42t-44 -18q-23 0 -41.5 17.5t-18.5 42.5h27z" />
    <glyph glyph-name="Iogonek" unicode="&#x12e;" horiz-adv-x="90" 
d="M96 -62q-8 -17 -23 -24t-30.5 -5.5t-27 12t-11.5 30.5q0 29 28 49h-10v699h46v-699h-1q-17 -7 -27 -20t-10 -25q0 -11 5.5 -17t13.5 -6.5t16.5 3.5t14.5 13z" />
    <glyph glyph-name="iogonek" unicode="&#x12f;" horiz-adv-x="84" 
d="M93 -62q-8 -17 -23 -24t-30.5 -5.5t-27 12t-11.5 30.5q0 14 7.5 26.5t20.5 22.5h-7v495h43v-495h-1q-17 -7 -27 -20t-10 -25q0 -11 6 -17t14 -6.5t16 3.5t14 13zM65 615v-77h-43v77h43z" />
    <glyph glyph-name="Idotaccent" unicode="&#x130;" horiz-adv-x="90" 
d="M22 699v-699h46v699h-46zM60 760h-31v64h31v-64z" />
    <glyph glyph-name="dotlessi" unicode="&#x131;" horiz-adv-x="84" 
d="M65 495v-495h-43v495h43z" />
    <glyph glyph-name="IJ" unicode="&#x132;" horiz-adv-x="303" 
d="M68 699v-699h-46v699h46zM188 -6q-14 0 -28.5 5t-25.5 16t-18 28.5t-7 41.5v196h46v-189q0 -32 11.5 -45.5t25.5 -13.5h7q14 0 25.5 13.5t11.5 45.5v607h46v-614q0 -24 -7 -41.5t-18.5 -28.5t-25.5 -16t-28 -5h-15z" />
    <glyph glyph-name="ij" unicode="&#x133;" horiz-adv-x="176" 
d="M65 495v-495h-43v495h43zM65 615v-77h-43v77h43zM155 617v-79h-43v79h43zM155 495v-575q0 -85 -86 -85v36q20 0 31.5 12t11.5 37v575h43z" />
    <glyph glyph-name="Jcircumflex" unicode="&#x134;" 
d="M99 -6q-14 0 -28.5 5t-25.5 16t-18 28.5t-7 41.5v196h46v-189q0 -32 11.5 -45.5t25.5 -13.5h7q14 0 25.5 13.5t11.5 45.5v607h46v-614q0 -24 -7 -41.5t-18.5 -28.5t-25.5 -16t-28 -5h-15zM192 824l56 -86h-42l-36 64l-36 -64h-41l56 86h43z" />
    <glyph glyph-name="jcircumflex" unicode="&#x135;" horiz-adv-x="127" 
d="M107 495v-575q0 -85 -87 -85v36q20 0 31.5 12t11.5 37v575h44zM106 627l56 -86h-41l-36 64l-36 -64h-41l56 86h42z" />
    <glyph glyph-name="uni0136" unicode="&#x136;" horiz-adv-x="210" 
d="M101 364l103 -364h-43l-92 302h-1v-302h-46v699h46v-292h1l95 292h42zM138 -93l-21 -57h-21l15 57h-21v81h48v-81z" />
    <glyph glyph-name="uni0137" unicode="&#x137;" horiz-adv-x="185" 
d="M91 259l91 -259h-43l-74 209v-209h-43v699h43v-397l76 193h42zM123 -100l-21 -57h-20l15 57h-21v81h47v-81z" />
    <glyph glyph-name=".001" unicode="&#x138;" horiz-adv-x="185" 
d="M91 259l91 -259h-43l-74 209v-209h-43v495h43v-193l76 193h42z" />
    <glyph glyph-name="Lacute" unicode="&#x139;" horiz-adv-x="158" 
d="M68 699v-664h87v-35h-133v699h46zM30 738l44 86h42l-56 -86h-30z" />
    <glyph glyph-name="lacute" unicode="&#x13a;" horiz-adv-x="83" 
d="M22 699h43v-699h-43v699zM29 738l44 86h41l-56 -86h-29z" />
    <glyph glyph-name="uni013B" unicode="&#x13b;" horiz-adv-x="158" 
d="M68 699v-664h87v-35h-133v699h46zM110 -111l-21 -57h-20l15 57h-21v81h47v-81z" />
    <glyph glyph-name="lquotesinglbase" unicode="&#x13c;" horiz-adv-x="83" 
d="M22 699h43v-699h-43v699zM67 -103l-21 -57h-21l15 57h-20v81h47v-81z" />
    <glyph glyph-name="Lcaron" unicode="&#x13d;" horiz-adv-x="188" 
d="M22 699v-699h133v35h-87v664h-46zM159 619l-21 -57h-21l15 57h-20v81h47v-81z" />
    <glyph glyph-name="LATIN SMALL LETTER L WITH CARON" unicode="&#x13e;" horiz-adv-x="149" 
d="M22 699h43v-699h-43v699zM136 618l-21 -57h-21l15 57h-21v81h48v-81z" />
    <glyph glyph-name="Ldot" unicode="&#x13f;" horiz-adv-x="191" 
d="M68 699v-664h87v-35h-133v699h46zM179 253h-47v81h47v-81z" />
    <glyph glyph-name="lperiodcentered" unicode="&#x140;" horiz-adv-x="162" 
d="M22 699h43v-699h-43v699zM144 294h-47v81h47v-81z" />
    <glyph glyph-name="Lslash" unicode="&#x141;" horiz-adv-x="205" 
d="M111 699v-301l65 46l16 -28l-81 -58v-323h86v-35h-133v324l-44 -31l-17 28l61 43v335h47z" />
    <glyph glyph-name="lslash" unicode="&#x142;" horiz-adv-x="154" 
d="M45 301l-25 -18l-17 28l42 30v358h44v-326l46 33l16 -29l-62 -45v-332h-44v301z" />
    <glyph glyph-name="Nacute" unicode="&#x143;" horiz-adv-x="234" 
d="M163 0l-105 561h-1v-561h-39v699h53l102 -555h1v555h42v-699h-53zM102 738l44 86h41l-56 -86h-29z" />
    <glyph glyph-name="nacute" unicode="&#x144;" horiz-adv-x="197" 
d="M101 462q-12 0 -24 -14.5t-14 -37.5v-410h-43v495h43v-31q12 15 26 24.5t28 9.5h4q58 0 58 -85v-413h-43v413q0 25 -10 37t-22 12h-3zM74 535l44 86h41l-56 -86h-29z" />
    <glyph glyph-name="uni0145" unicode="&#x145;" horiz-adv-x="234" 
d="M163 0l-105 561h-1v-561h-39v699h53l102 -555h1v555h42v-699h-53zM133 -93l-21 -57h-21l15 57h-20v81h47v-81z" />
    <glyph glyph-name="uni0146" unicode="&#x146;" horiz-adv-x="197" 
d="M101 462q-12 0 -24 -14.5t-14 -37.5v-410h-43v495h43v-31q12 15 26 24.5t28 9.5h4q58 0 58 -85v-413h-43v413q0 25 -10 37t-22 12h-3zM123 -100l-21 -57h-20l15 57h-21v81h47v-81z" />
    <glyph glyph-name="Ncaron" unicode="&#x147;" horiz-adv-x="234" 
d="M163 0l-105 561h-1v-561h-39v699h53l102 -555h1v555h42v-699h-53zM95 741l-56 86h42l36 -65l36 65h41l-56 -86h-43z" />
    <glyph glyph-name="ncaron" unicode="&#x148;" horiz-adv-x="197" 
d="M104 462q12 0 22 -12t10 -37v-413h43v413q0 85 -58 85h-4q-14 0 -28 -9.5t-26 -24.5v31h-43v-495h43v410q2 23 14 37.5t24 14.5h3zM80 537l-56 86h41l36 -65l36 65h42l-56 -86h-43z" />
    <glyph glyph-name="napostrophe" unicode="&#x149;" horiz-adv-x="246" 
d="M153 462q12 0 21.5 -12t9.5 -37v-413h44v413q0 85 -59 85h-3q-14 0 -28 -9.5t-26 -24.5v31h-43v-495h43v405q0 25 12.5 41t25.5 16h3zM61 601l-21 -57h-21l15 57h-21v81h48v-81z" />
    <glyph glyph-name="Eng" unicode="&#x14a;" horiz-adv-x="232" 
d="M212 699v-779q0 -42 -25 -63.5t-70 -21.5v36q20 0 31.5 12t11.5 37v80h-1l-101 562h-1v-562h-37v699h53l98 -556h1v556h40z" />
    <glyph glyph-name="eng" unicode="&#x14b;" horiz-adv-x="197" 
d="M101 462q-12 0 -24 -14.5t-14 -37.5v-410h-43v495h43v-31q12 15 26 24.5t28 9.5h4q58 0 58 -85v-493q0 -42 -21 -63.5t-66 -21.5v36q20 0 32 12t12 37v493q0 25 -10 37t-22 12h-3z" />
    <glyph glyph-name="Omacron" unicode="&#x14c;" 
d="M99 -6q-14 0 -28.5 5t-25.5 16t-18 28.5t-7 41.5v529q0 24 7 41.5t18 28.5t25.5 16t28.5 5h15q14 0 28 -5t25.5 -16t18.5 -28.5t7 -41.5v-529q0 -24 -7 -41.5t-18.5 -28.5t-25.5 -16t-28 -5h-15zM103 666q-14 0 -25.5 -13.5t-11.5 -45.5v-515q0 -32 11.5 -45.5
t25.5 -13.5h7q14 0 25.5 13.5t11.5 45.5v515q0 32 -11.5 45.5t-25.5 13.5h-7zM165 768h-120v32h120v-32z" />
    <glyph glyph-name="omacron" unicode="&#x14d;" horiz-adv-x="193" 
d="M90 -3q-29 0 -50 21.5t-21 63.5v331q0 42 21 63.5t50 21.5h14q29 0 50.5 -21.5t21.5 -63.5v-331q0 -42 -21.5 -63.5t-50.5 -21.5h-14zM95 462q-13 0 -23 -12t-10 -37v-331q0 -25 10 -37t23 -12h6q12 0 22 12t10 37v331q0 25 -10 37t-22 12h-6zM157 564h-120v33h120v-33z
" />
    <glyph glyph-name="Obreve" unicode="&#x14e;" 
d="M99 -6q-14 0 -28.5 5t-25.5 16t-18 28.5t-7 41.5v529q0 24 7 41.5t18 28.5t25.5 16t28.5 5h15q14 0 28 -5t25.5 -16t18.5 -28.5t7 -41.5v-529q0 -24 -7 -41.5t-18.5 -28.5t-25.5 -16t-28 -5h-15zM103 666q-14 0 -25.5 -13.5t-11.5 -45.5v-515q0 -32 11.5 -45.5
t25.5 -13.5h7q14 0 25.5 13.5t11.5 45.5v515q0 32 -11.5 45.5t-25.5 13.5h-7zM74 814q0 -13 9.5 -23t22.5 -10q14 0 24 10t10 23h28q0 -24 -18 -42t-44 -18q-23 0 -41 17.5t-18 42.5h27z" />
    <glyph glyph-name="obreve" unicode="&#x14f;" horiz-adv-x="193" 
d="M90 -3q-29 0 -50 21.5t-21 63.5v331q0 42 21 63.5t50 21.5h14q29 0 50.5 -21.5t21.5 -63.5v-331q0 -42 -21.5 -63.5t-50.5 -21.5h-14zM95 462q-13 0 -23 -12t-10 -37v-331q0 -25 10 -37t23 -12h6q12 0 22 12t10 37v331q0 25 -10 37t-22 12h-6zM66 611q0 -13 9.5 -23
t22.5 -10q14 0 24 10t10 23h28q0 -24 -18 -42t-44 -18q-23 0 -41 17.5t-18 42.5h27z" />
    <glyph glyph-name="Ohungarumlaut" unicode="&#x150;" 
d="M99 -6q-14 0 -28.5 5t-25.5 16t-18 28.5t-7 41.5v529q0 24 7 41.5t18 28.5t25.5 16t28.5 5h15q14 0 28 -5t25.5 -16t18.5 -28.5t7 -41.5v-529q0 -24 -7 -41.5t-18.5 -28.5t-25.5 -16t-28 -5h-15zM103 666q-14 0 -25.5 -13.5t-11.5 -45.5v-515q0 -32 11.5 -45.5
t25.5 -13.5h7q14 0 25.5 13.5t11.5 45.5v515q0 32 -11.5 45.5t-25.5 13.5h-7zM121 735l44 86h41l-56 -86h-29zM59 735l44 86h41l-56 -86h-29z" />
    <glyph glyph-name="ohungarumlaut" unicode="&#x151;" horiz-adv-x="193" 
d="M90 -3q-29 0 -50 21.5t-21 63.5v331q0 42 21 63.5t50 21.5h14q29 0 50.5 -21.5t21.5 -63.5v-331q0 -42 -21.5 -63.5t-50.5 -21.5h-14zM95 462q-13 0 -23 -12t-10 -37v-331q0 -25 10 -37t23 -12h6q12 0 22 12t10 37v331q0 25 -10 37t-22 12h-6zM113 532l44 86h41l-56 -86
h-29zM51 532l44 86h41l-56 -86h-29z" />
    <glyph glyph-name="OE" unicode="&#x152;" horiz-adv-x="317" 
d="M99 -6q-14 0 -28.5 5t-25.5 16t-18 28.5t-7 41.5v529q0 24 7 41.5t18 28.5t25.5 16t28.5 5h15h5h173v-42h-110q11 -20 11 -49v-247h77v-35h-77v-247q0 -29 -11 -49h113v-42h-196zM103 666q-14 0 -25.5 -13.5t-11.5 -45.5v-515q0 -32 11.5 -45.5t25.5 -13.5h7
q14 0 25.5 13.5t11.5 45.5v515q0 23 -7 37t-17 19h-4l-1 2q-2 1 -8 1h-7z" />
    <glyph glyph-name="oe" unicode="&#x153;" horiz-adv-x="307" 
d="M90 -3q-29 0 -50 21.5t-21 63.5v331q0 42 21 63.5t50 21.5h14q30 0 50 -22q20 22 51 22h14q29 0 50 -21.5t21 -63.5v-173h-114v-158v-5q1 -23 10 -33.5t20 -10.5h9q13 0 22.5 12t9.5 37v124h43v-124q0 -42 -21 -63.5t-50 -21.5h-17q-29 0 -48 22q-19 -22 -50 -22h-14z
M95 462q-13 0 -23 -12t-10 -37v-331q0 -25 10 -37t23 -12h6q11 0 21 11t11 34v4v331v5q-2 22 -11.5 33t-20.5 11h-6zM176 270h71v143q0 25 -9.5 37t-22.5 12h-6q-13 0 -23 -12t-10 -37v-143z" />
    <glyph glyph-name="Racute" unicode="&#x154;" horiz-adv-x="221" 
d="M195 416q0 -32 -10 -47.5t-25 -20.5q15 -4 25 -19.5t10 -47.5v-173q0 -54 3.5 -77t5.5 -31h-46q-5 13 -7 37t-2 71v169q0 54 -31 54h-50v-331h-46v699h94q32 0 55.5 -22.5t23.5 -68.5v-192zM118 366q31 0 31 53v182q0 32 -11.5 45.5t-25.5 13.5h-44v-294h50zM83 738
l44 86h41l-56 -86h-29z" />
    <glyph glyph-name="racute" unicode="&#x155;" horiz-adv-x="196" 
d="M101 462q-12 0 -24 -14.5t-14 -37.5v-410h-43v495h43v-31q12 15 26 24.5t28 9.5h4q33 0 47 -27q11 -22 11 -58v-122h-43v122q0 25 -10 37t-22 12h-3zM78 536l44 86h42l-56 -86h-30z" />
    <glyph glyph-name="uni0156" unicode="&#x156;" horiz-adv-x="221" 
d="M195 416q0 -32 -10 -47.5t-25 -20.5q15 -4 25 -19.5t10 -47.5v-173q0 -54 3.5 -77t5.5 -31h-46q-5 13 -7 37t-2 71v169q0 54 -31 54h-50v-331h-46v699h94q32 0 55.5 -22.5t23.5 -68.5v-192zM118 366q31 0 31 53v182q0 32 -11.5 45.5t-25.5 13.5h-44v-294h50zM132 -111
l-21 -57h-21l15 57h-20v81h47v-81z" />
    <glyph glyph-name="uni0157" unicode="&#x157;" horiz-adv-x="196" 
d="M101 462q-12 0 -24 -14.5t-14 -37.5v-410h-43v495h43v-31q12 15 26 24.5t28 9.5h4q33 0 47 -27q11 -22 11 -58v-122h-43v122q0 25 -10 37t-22 12h-3zM130 -111l-21 -57h-21l15 57h-21v81h48v-81z" />
    <glyph glyph-name="Rcaron" unicode="&#x158;" horiz-adv-x="221" 
d="M195 608q0 46 -23.5 68.5t-55.5 22.5h-94v-699h46v331h50q31 0 31 -54v-169q0 -47 2 -71t7 -37h46q-2 8 -5.5 31t-3.5 77v173q0 32 -10 47.5t-25 19.5q15 5 25 20.5t10 47.5v192zM68 366v294h44q14 0 25.5 -13.5t11.5 -45.5v-182q0 -53 -31 -53h-50zM77 741l-56 86h41
l36 -65l36 65h41l-56 -86h-42z" />
    <glyph glyph-name="rcaron" unicode="&#x159;" horiz-adv-x="196" 
d="M104 462q12 0 22 -12t10 -37v-122h43v122q0 36 -11 58q-14 27 -47 27h-4q-14 0 -28 -9.5t-26 -24.5v31h-43v-495h43v410q2 23 14 37.5t24 14.5h3zM72 538l-56 86h41l36 -65l36 65h42l-56 -86h-43z" />
    <glyph glyph-name="Sacute" unicode="&#x15a;" 
d="M147 417v190q0 32 -11.5 45.5t-25.5 13.5h-7q-14 0 -25.5 -13.5t-11.5 -45.5v-99q0 -47 20 -83.5t43.5 -71t43.5 -71t20 -84.5v-113q0 -24 -7 -41.5t-18 -28.5t-25 -16t-29 -5h-14q-14 0 -28.5 5t-26 16t-18.5 28.5t-7 41.5v197h42v-190q0 -32 12.5 -45.5t26.5 -13.5h7
q14 0 26.5 13.5t12.5 45.5v100q0 31 -9.5 57t-23.5 49.5t-30.5 46t-30.5 46.5t-23.5 51t-9.5 59v113q0 24 7 41.5t18 28.5t25.5 16t28.5 5h11q14 0 28 -5t25.5 -16t18.5 -28.5t7 -41.5v-197h-42zM91 739l44 86h41l-56 -86h-29z" />
    <glyph glyph-name="sacute" unicode="&#x15b;" horiz-adv-x="192" 
d="M132 300v112q0 24 -9.5 37t-22.5 13h-6q-12 0 -22 -13t-10 -37v-59q0 -33 18 -56.5t39 -45.5t39 -46.5t18 -59.5v-63q0 -42 -21.5 -63.5t-48.5 -21.5h-15q-29 0 -50.5 21.5t-21.5 63.5v113h39v-113q0 -24 10 -36.5t24 -12.5h9q12 0 21.5 12.5t9.5 36.5v60
q0 31 -17.5 53.5t-39 44.5t-39 47.5t-17.5 62.5v63q0 41 21.5 63t50.5 22h9q29 0 50.5 -21.5t21.5 -63.5v-113h-40zM80 535l44 86h41l-56 -86h-29z" />
    <glyph glyph-name="Scircumflex" unicode="&#x15c;" 
d="M147 417v190q0 32 -11.5 45.5t-25.5 13.5h-7q-14 0 -25.5 -13.5t-11.5 -45.5v-99q0 -47 20 -83.5t43.5 -71t43.5 -71t20 -84.5v-113q0 -24 -7 -41.5t-18 -28.5t-25 -16t-29 -5h-14q-14 0 -28.5 5t-26 16t-18.5 28.5t-7 41.5v197h42v-190q0 -32 12.5 -45.5t26.5 -13.5h7
q14 0 26.5 13.5t12.5 45.5v100q0 31 -9.5 57t-23.5 49.5t-30.5 46t-30.5 46.5t-23.5 51t-9.5 59v113q0 24 7 41.5t18 28.5t25.5 16t28.5 5h11q14 0 28 -5t25.5 -16t18.5 -28.5t7 -41.5v-197h-42zM128 825l56 -86h-41l-36 64l-36 -64h-42l56 86h43z" />
    <glyph glyph-name="scircumflex" unicode="&#x15d;" horiz-adv-x="192" 
d="M132 300v112q0 24 -9.5 37t-22.5 13h-6q-12 0 -22 -13t-10 -37v-59q0 -33 18 -56.5t39 -45.5t39 -46.5t18 -59.5v-63q0 -42 -21.5 -63.5t-48.5 -21.5h-15q-29 0 -50.5 21.5t-21.5 63.5v113h39v-113q0 -24 10 -36.5t24 -12.5h9q12 0 21.5 12.5t9.5 36.5v60
q0 31 -17.5 53.5t-39 44.5t-39 47.5t-17.5 62.5v63q0 41 21.5 63t50.5 22h9q29 0 50.5 -21.5t21.5 -63.5v-113h-40zM117 621l56 -86h-41l-36 64l-36 -64h-42l56 86h43z" />
    <glyph glyph-name="Scedilla" unicode="&#x15e;" 
d="M53 -71q9 -6 23 -9.5t26.5 -2t21 8t7.5 19.5q-1 14 -15.5 18.5t-26.5 -3.5l-10 4l14 30q-27 2 -50 23.5t-23 67.5v197h42v-190q0 -32 12.5 -45.5t26.5 -13.5h7q14 0 26.5 13.5t12.5 45.5v100q0 31 -9.5 57t-23.5 49.5t-30.5 46t-30.5 46.5t-23.5 51t-9.5 59v113
q0 24 7 41.5t18 28.5t25.5 16t28.5 5h11q14 0 28 -5t25.5 -16t18.5 -28.5t7 -41.5v-197h-42v190q0 32 -11.5 45.5t-25.5 13.5h-7q-14 0 -25.5 -13.5t-11.5 -45.5v-99q0 -47 20 -83.5t43.5 -71t43.5 -71t20 -84.5v-113q0 -23 -6.5 -40t-17 -28t-23.5 -16.5t-27 -6.5l-7 -19
q17 7 34 -1.5t17 -27.5q0 -23 -14 -35t-33 -16t-38.5 0t-29.5 13z" />
    <glyph glyph-name="scedilla" unicode="&#x15f;" horiz-adv-x="192" 
d="M45 -68q9 -7 23 -10t26.5 -2t21 7.5t7.5 19.5q-2 14 -16.5 18.5t-25.5 -2.5l-10 3l14 31q-27 2 -46.5 23.5t-19.5 61.5v113h39v-113q0 -24 10 -36.5t24 -12.5h9q12 0 21.5 12.5t9.5 36.5v60q0 31 -17.5 53.5t-39 44.5t-39 47.5t-17.5 62.5v63q0 41 21.5 63t50.5 22h9
q29 0 50.5 -21.5t21.5 -63.5v-113h-40v112q0 24 -9.5 37t-22.5 13h-6q-12 0 -22 -13t-10 -37v-59q0 -33 18 -56.5t39 -45.5t39 -46.5t18 -59.5v-63q0 -40 -19.5 -61.5t-45.5 -23.5l-7 -20q17 7 33.5 -1.5t16.5 -27.5q0 -23 -14 -35t-33 -16t-38 0t-29 13z" />
    <glyph glyph-name="Scaron" unicode="&#x160;" 
d="M189 417v197q0 24 -7 41.5t-18.5 28.5t-25.5 16t-28 5h-11q-14 0 -28.5 -5t-25.5 -16t-18 -28.5t-7 -41.5v-113q0 -32 9.5 -59t23.5 -51t30.5 -46.5t30.5 -46t23.5 -49.5t9.5 -57v-100q0 -32 -12.5 -45.5t-26.5 -13.5h-7q-14 0 -26.5 13.5t-12.5 45.5v190h-42v-197
q0 -24 7 -41.5t18.5 -28.5t26 -16t28.5 -5h14q15 0 29 5t25 16t18 28.5t7 41.5v113q0 48 -20 84.5t-43.5 71t-43.5 71t-20 83.5v99q0 32 11.5 45.5t25.5 13.5h7q14 0 25.5 -13.5t11.5 -45.5v-190h42zM84 741l-56 86h42l36 -65l36 65h41l-56 -86h-43z" />
    <glyph glyph-name="scaron" unicode="&#x161;" horiz-adv-x="192" 
d="M172 300v113q0 42 -21.5 63.5t-50.5 21.5h-9q-29 0 -50.5 -22t-21.5 -63v-63q0 -37 17.5 -62.5t39 -47.5t39 -44.5t17.5 -53.5v-60q0 -24 -9.5 -36.5t-21.5 -12.5h-9q-14 0 -24 12.5t-10 36.5v113h-39v-113q0 -42 21.5 -63.5t50.5 -21.5h15q27 0 48.5 21.5t21.5 63.5v63
q0 35 -18 59.5t-39 46.5t-39 45.5t-18 56.5v59q0 24 10 37t22 13h6q13 0 22.5 -13t9.5 -37v-112h40zM73 537l-56 86h42l36 -65l36 65h41l-56 -86h-43z" />
    <glyph glyph-name="Tcedilla" unicode="&#x162;" horiz-adv-x="182" 
d="M179 660h-64v-660h-47v660h-65v39h176v-39zM32 -87l6 22q9 -7 22.5 -10t26 -2t21 7.5t7.5 19.5q-1 14 -15.5 19t-26.5 -3l-10 3l15 31h26l-8 -20q17 7 34 -1.5t17 -27.5q0 -23 -14 -35t-33 -16t-38.5 0t-29.5 13z" />
    <glyph glyph-name="tcedilla" unicode="&#x163;" horiz-adv-x="131" 
d="M77 657v-162h43v-36h-43v-377q0 -26 11.5 -39t31.5 -10v-35h-9l-7 -18q17 8 33.5 -0.5t16.5 -28.5q0 -23 -14 -35t-33 -15.5t-38 0t-29 12.5l5 22q9 -7 23 -10t26.5 -1.5t21 8t7.5 18.5q-1 14 -16 18.5t-26 -2.5l-10 4l14 30q-27 6 -39 28t-12 54v377h-26v36h26v158z" />
    <glyph glyph-name="Tcaron" unicode="&#x164;" horiz-adv-x="182" 
d="M179 699h-176v-39h65v-660h47v660h64v39zM70 741l-56 86h41l36 -65l36 65h41l-56 -86h-42z" />
    <glyph glyph-name="tcaron" unicode="&#x165;" horiz-adv-x="187" 
d="M77 657v-162h43v-36h-43v-377q0 -26 11.5 -39t31.5 -10v-35q-45 -5 -65.5 18.5t-20.5 65.5v377h-26v36h26v158zM175 576l-21 -58h-20l15 58h-21v80h47v-80z" />
    <glyph glyph-name="_0144" unicode="&#x166;" horiz-adv-x="182" 
d="M163 331h-48v-331h-47v331h-49v32h49v297h-65v39h176v-39h-64v-297h48v-32z" />
    <glyph glyph-name="tbar" unicode="&#x167;" horiz-adv-x="131" 
d="M77 657v-162h43v-36h-43v-94h43v-36h-43v-247q0 -26 11.5 -39t31.5 -10v-35q-45 -5 -65.5 18.5t-20.5 65.5v247h-26v36h26v94h-26v36h26v158z" />
    <glyph glyph-name="Utilde" unicode="&#x168;" horiz-adv-x="215" 
d="M101 -6q-14 0 -28 5t-25.5 16t-18.5 28.5t-7 41.5v614h46v-607q0 -32 11.5 -45.5t25.5 -13.5h7q14 0 25.5 13.5t11.5 45.5v607h46v-614q0 -24 -7 -41.5t-18 -28.5t-25 -16t-29 -5h-15zM26 780q14 27 40 27q17 0 32 -10.5t32 -10.5q14 0 27 14l21 -14q-17 -27 -42 -27
q-17 0 -32.5 10.5t-29.5 10.5q-16 0 -29 -14z" />
    <glyph glyph-name="utilde" unicode="&#x169;" horiz-adv-x="196" 
d="M93 33q-12 0 -22 12t-10 37v413h-43v-413q0 -85 58 -85h3q14 0 28.5 9t26.5 25v-31h43v495h-43v-405q0 -25 -13 -41t-25 -16h-3zM22 576q16 27 41 27q16 0 31.5 -10.5t32.5 -10.5q15 0 26 14l22 -14q-17 -27 -42 -27q-17 0 -32.5 10.5t-29.5 10.5q-17 0 -30 -14z" />
    <glyph glyph-name="Umacron" unicode="&#x16a;" horiz-adv-x="215" 
d="M101 -6q-14 0 -28 5t-25.5 16t-18.5 28.5t-7 41.5v614h46v-607q0 -32 11.5 -45.5t25.5 -13.5h7q14 0 25.5 13.5t11.5 45.5v607h46v-614q0 -24 -7 -41.5t-18 -28.5t-25 -16t-29 -5h-15zM160 768h-120v32h120v-32z" />
    <glyph glyph-name="umacron" unicode="&#x16b;" horiz-adv-x="196" 
d="M96 33q11 0 23.5 14.5t14.5 37.5v410h43v-495h-43v31q-12 -16 -26.5 -25t-28.5 -9h-3q-58 0 -58 85v413h43v-413q0 -25 10 -37t22 -12h3zM157 564h-121v32h121v-32z" />
    <glyph glyph-name="Ubreve" unicode="&#x16c;" horiz-adv-x="215" 
d="M101 -6q-14 0 -28 5t-25.5 16t-18.5 28.5t-7 41.5v614h46v-607q0 -32 11.5 -45.5t25.5 -13.5h7q14 0 25.5 13.5t11.5 45.5v607h46v-614q0 -24 -7 -41.5t-18 -28.5t-25 -16t-29 -5h-15zM69 814q0 -13 9.5 -23t22.5 -10q14 0 24 10t10 23h28q0 -24 -18 -42t-44 -18
q-23 0 -41 17.5t-18 42.5h27z" />
    <glyph glyph-name="ubreve" unicode="&#x16d;" horiz-adv-x="196" 
d="M93 33q-12 0 -22 12t-10 37v413h-43v-413q0 -85 58 -85h3q14 0 28.5 9t26.5 25v-31h43v495h-43v-405q0 -25 -13 -41t-25 -16h-3zM65 610q0 -13 10 -23t23 -10q14 0 24 10t10 23h27q0 -24 -18 -42t-44 -18q-23 0 -41 17.5t-18 42.5h27z" />
    <glyph glyph-name="Uring" unicode="&#x16e;" horiz-adv-x="215" 
d="M101 -6q-14 0 -28 5t-25.5 16t-18.5 28.5t-7 41.5v614h46v-607q0 -32 11.5 -45.5t25.5 -13.5h7q14 0 25.5 13.5t11.5 45.5v607h46v-614q0 -24 -7 -41.5t-18 -28.5t-25 -16t-29 -5h-15zM101 733q-22 0 -39.5 16.5t-17.5 39.5t16.5 40.5t39.5 17.5q24 0 41.5 -17t17.5 -41
q0 -23 -16.5 -39.5t-41.5 -16.5zM101 823q-13 0 -23 -10t-10 -24q0 -12 10 -22.5t23 -10.5q14 0 24 10.5t10 22.5q0 14 -10 24t-24 10z" />
    <glyph glyph-name="uring" unicode="&#x16f;" horiz-adv-x="196" 
d="M93 33q-12 0 -22 12t-10 37v413h-43v-413q0 -85 58 -85h3q14 0 28.5 9t26.5 25v-31h43v495h-43v-405q0 -25 -13 -41t-25 -16h-3zM97 529q-21 0 -38.5 16.5t-17.5 39.5t16.5 40.5t39.5 17.5q24 0 41.5 -17t17.5 -41q0 -23 -16.5 -39.5t-42.5 -16.5zM97 619q-12 0 -22 -10
t-10 -24q0 -12 10 -22.5t22 -10.5q14 0 24 10.5t10 22.5q0 14 -10 24t-24 10z" />
    <glyph glyph-name="Uhungarumlaut" unicode="&#x170;" horiz-adv-x="215" 
d="M101 -6q-14 0 -28 5t-25.5 16t-18.5 28.5t-7 41.5v614h46v-607q0 -32 11.5 -45.5t25.5 -13.5h7q14 0 25.5 13.5t11.5 45.5v607h46v-614q0 -24 -7 -41.5t-18 -28.5t-25 -16t-29 -5h-15zM45 735l44 86h41l-56 -86h-29zM107 735l44 86h41l-56 -86h-29z" />
    <glyph glyph-name="uhungarumlaut" unicode="&#x171;" horiz-adv-x="196" 
d="M96 33q12 0 25 16t13 41v405h43v-495h-43v31q-12 -16 -26.5 -25t-28.5 -9h-3q-58 0 -58 85v413h43v-413q0 -25 10 -37t22 -12h3zM50 531l44 86h41l-56 -86h-29zM112 531l44 86h41l-56 -86h-29z" />
    <glyph glyph-name="Uogonek" unicode="&#x172;" horiz-adv-x="215" 
d="M159 -68q-8 -17 -23 -24t-30.5 -5.5t-27 12t-11.5 30.5q0 14 7.5 26.5t20.5 22.5q-14 1 -27 6.5t-23 16.5t-16.5 28t-6.5 40v614h46v-607q0 -32 11.5 -45.5t25.5 -13.5h7q14 0 25.5 13.5t11.5 45.5v607h46v-614q0 -45 -21 -66t-47 -24q-16 -9 -25 -22t-9 -24t6 -17
t14 -6.5t16 3.5t14 13z" />
    <glyph glyph-name="uogonek" unicode="&#x173;" horiz-adv-x="196" 
d="M96 33q12 0 25 16t13 41v405h43v-495h2q-17 -7 -27.5 -20t-9.5 -25q0 -11 5.5 -17t13.5 -6.5t16.5 3.5t13.5 13l17 -10q-8 -17 -23.5 -24t-31 -5.5t-27 12t-11.5 30.5q0 14 7.5 26.5t20.5 22.5h-9v31q-12 -16 -26.5 -25t-28.5 -9h-3q-58 0 -58 85v413h43v-413
q0 -25 10 -37t22 -12h3z" />
    <glyph glyph-name="Wcircumflex" unicode="&#x174;" horiz-adv-x="312" 
d="M52 0l-52 699h44l40 -544h1l50 544h40l56 -544h1l39 544h41l-52 -699h-47l-58 521l-51 -521h-52zM176 824l56 -86h-42l-36 64l-36 -64h-41l56 86h43z" />
    <glyph glyph-name="wcircumflex" unicode="&#x175;" horiz-adv-x="296" 
d="M52 0l-50 495h40l37 -385h2l50 385h39l49 -385h2l36 385h37l-49 -495h-49l-49 403h-1l-46 -403h-48zM171 620l56 -86h-42l-36 63l-35 -63h-42l56 86h43z" />
    <glyph glyph-name="Ycircumflex" unicode="&#x176;" horiz-adv-x="202" 
d="M125 270l-1 -270h-46v270l-75 429h47l50 -322h2l50 322h47zM123 824l56 -86h-42l-36 63l-35 -63h-42l56 86h43z" />
    <glyph glyph-name="ycircumflex" unicode="&#x177;" horiz-adv-x="171" 
d="M132 495h37l-74 -660h-43l21 165l-71 495h40l46 -371h1zM109 620l56 -86h-41l-36 64l-36 -64h-42l56 86h43z" />
    <glyph glyph-name="Ydieresis" unicode="&#x178;" horiz-adv-x="202" 
d="M199 699h-47l-50 -322h-2l-50 322h-47l75 -429v-270h46l1 270zM85 751h-32v65h32v-65zM148 751h-31v65h31v-65z" />
    <glyph glyph-name="Zacute" unicode="&#x179;" horiz-adv-x="202" 
d="M191 0h-180v33l125 631h-107v35h154v-33l-125 -631h133v-35zM86 739l44 86h41l-56 -86h-29z" />
    <glyph glyph-name="zacute" unicode="&#x17a;" horiz-adv-x="160" 
d="M158 0h-156v36l110 424h-99v35h142v-35l-111 -424h114v-36zM68 535l44 86h41l-56 -86h-29z" />
    <glyph glyph-name="Zdotaccent" unicode="&#x17b;" horiz-adv-x="202" 
d="M191 0h-180v33l125 631h-107v35h154v-33l-125 -631h133v-35zM116 752h-31v65h31v-65z" />
    <glyph glyph-name="zdotaccent" unicode="&#x17c;" horiz-adv-x="160" 
d="M158 0h-156v36l110 424h-99v35h142v-35l-111 -424h114v-36zM98 549h-31v64h31v-64z" />
    <glyph glyph-name="Zcaron" unicode="&#x17d;" horiz-adv-x="202" 
d="M191 0h-180v33l125 631h-107v35h154v-33l-125 -631h133v-35zM79 741l-56 86h42l36 -65l36 65h41l-56 -86h-43z" />
    <glyph glyph-name="zcaron" unicode="&#x17e;" horiz-adv-x="160" 
d="M158 0h-156v36l110 424h-99v35h142v-35l-111 -424h114v-36zM61 537l-56 86h42l36 -65l36 65h41l-56 -86h-43z" />
    <glyph glyph-name="longs" unicode="&#x17f;" horiz-adv-x="152" 
d="M19 495h25v126q0 21 6.5 38.5t20 29t33.5 15.5t46 -2v-35q-23 5 -42.5 -7.5t-19.5 -41.5v-618h-44v459h-25v36z" />
    <glyph glyph-name="florin" unicode="&#x192;" horiz-adv-x="211" 
d="M127 459v-546q0 -20 -6.5 -37.5t-19.5 -29t-33 -15.5t-46 2v35q23 -5 42.5 7t19.5 41v543h-60v36h60v126q0 21 6.5 38.5t19.5 29t33 15.5t46 -2v-35q-23 5 -42.5 -7.5t-19.5 -41.5v-123h60v-36h-60z" />
    <glyph glyph-name="circumflex" unicode="&#x2c6;" horiz-adv-x="199" 
d="M121 680l56 -86h-42l-36 64l-36 -64h-41l56 86h43z" />
    <glyph glyph-name="caron" unicode="&#x2c7;" horiz-adv-x="219" 
d="M88 597l-56 86h41l36 -65l36 65h42l-56 -86h-43z" />
    <glyph glyph-name="breve" unicode="&#x2d8;" horiz-adv-x="185" 
d="M59 670q0 -13 9.5 -23t23.5 -10t23.5 10t9.5 23h28q0 -24 -18 -42t-44 -18q-23 0 -41 17.5t-18 42.5h27z" />
    <glyph glyph-name="dotaccent" unicode="&#x2d9;" horiz-adv-x="95" 
d="M63 608h-31v65h31v-65z" />
    <glyph glyph-name="ring" unicode="&#x2da;" horiz-adv-x="179" 
d="M88 581q-21 0 -38.5 16.5t-17.5 39.5t16.5 40.5t39.5 17.5q24 0 41.5 -17t17.5 -41q0 -23 -16.5 -39.5t-42.5 -16.5zM88 671q-12 0 -22 -10t-10 -24q0 -12 10 -22.5t22 -10.5q14 0 24 10.5t10 22.5q0 14 -10 24t-24 10z" />
    <glyph glyph-name="ogonek" unicode="&#x2db;" horiz-adv-x="156" 
d="M124 -62q-8 -17 -23 -24t-30.5 -5.5t-27 12t-11.5 30.5q0 14 7.5 26.5t20.5 22.5h36q-17 -7 -27.5 -20t-10.5 -25q0 -11 6 -17t14 -6.5t16 3.5t14 13z" />
    <glyph glyph-name="tilde" unicode="&#x2dc;" horiz-adv-x="217" 
d="M32 637q16 27 41 27q16 0 31 -10.5t32 -10.5q16 0 27 14l22 -15q-9 -14 -19.5 -20t-23.5 -6q-17 0 -32 10.5t-29 10.5q-17 0 -30 -14z" />
    <glyph glyph-name="hungarumlaut" unicode="&#x2dd;" horiz-adv-x="211" 
d="M94 591l44 86h41l-56 -86h-29zM32 591l44 86h41l-56 -86h-29z" />
    <glyph glyph-name="endash" unicode="&#x2013;" horiz-adv-x="326" 
d="M304 334h-282v32h282v-32z" />
    <glyph glyph-name="emdash" unicode="&#x2014;" horiz-adv-x="465" 
d="M444 334h-422v32h422v-32z" />
    <glyph glyph-name="quoteleft" unicode="&#x2018;" horiz-adv-x="120" 
d="M32 627l21 58h20l-15 -58h21v-80h-47v80z" />
    <glyph glyph-name="quoteright" unicode="&#x2019;" horiz-adv-x="120" 
d="M88 601l-21 -57h-20l15 57h-21v81h47v-81z" />
    <glyph glyph-name="quotesinglbase" unicode="&#x201a;" horiz-adv-x="120" 
d="M88 0l-21 -58h-20l15 58h-21v81h47v-81z" />
    <glyph glyph-name="quotedblleft" unicode="&#x201c;" 
d="M32 627l21 58h20l-15 -58h21v-80h-47v80zM125 627l21 58h21l-15 -58h20v-80h-47v80z" />
    <glyph glyph-name="quotedblright" unicode="&#x201d;" 
d="M88 618l-21 -57h-20l15 57h-21v81h47v-81zM181 618l-21 -57h-20l15 57h-21v81h47v-81z" />
    <glyph glyph-name="quotedblbase" unicode="&#x201e;" 
d="M88 1l-21 -58h-20l15 58h-21v80h47v-80zM181 1l-21 -58h-20l15 58h-21v80h47v-80z" />
    <glyph glyph-name="dagger" unicode="&#x2020;" horiz-adv-x="188" 
d="M115 699v-264h51v-36h-51v-564h-43v564h-50v36h50v264h43z" />
    <glyph glyph-name="daggerdbl" unicode="&#x2021;" horiz-adv-x="188" 
d="M115 699v-264h51v-36h-51v-264h51v-36h-51v-264h-43v264h-50v36h50v264h-50v36h50v264h43z" />
    <glyph glyph-name="bullet" unicode="&#x2022;" horiz-adv-x="137" 
d="M68 199q-20 0 -34 15t-14 34q0 22 14.5 35.5t33.5 13.5q23 0 36.5 -15t13.5 -34q0 -22 -15.5 -35.5t-34.5 -13.5z" />
    <glyph glyph-name="ellipsis" unicode="&#x2026;" horiz-adv-x="298" 
d="M79 0h-47v81h47v-81zM172 0h-47v81h47v-81zM266 0h-48v81h48v-81z" />
    <glyph glyph-name="perthousand" unicode="&#x2030;" horiz-adv-x="579" 
d="M315 699l-254 -699h34l255 699h-35zM84 305q-26 0 -45 19t-19 56v249q0 37 19 56.5t45 19.5h12q26 0 45.5 -19.5t19.5 -56.5v-249q0 -37 -19.5 -56t-45.5 -19h-12zM87 675q-12 0 -22 -11.5t-10 -35.5v-246q0 -25 10 -36.5t22 -11.5h7q12 0 21.5 11.5t9.5 36.5v246
q0 24 -9.5 35.5t-21.5 11.5h-7zM316 -6q-26 0 -45 19.5t-19 56.5v253q1 37 19.5 56t44.5 19h13q26 0 45 -19t19 -56v-253q0 -37 -19 -56.5t-45 -19.5h-13zM320 369q-13 0 -23 -11.5t-10 -36.5v-250q0 -24 10 -35.5t23 -11.5h6q12 0 22 11.5t10 35.5v250q0 25 -10 36.5
t-22 11.5h-6zM482 -6q-25 0 -44.5 19.5t-19.5 56.5v253q1 37 20 56t44 19h13q26 0 45 -19t19 -56v-253q0 -37 -19 -56.5t-45 -19.5h-13zM486 369q-12 0 -22 -11.5t-10 -36.5v-250q0 -24 10 -35.5t22 -11.5h7q12 0 21.5 11.5t9.5 35.5v250q0 25 -9.5 36.5t-21.5 11.5h-7z" />
    <glyph glyph-name="guilsinglleft" unicode="&#x2039;" horiz-adv-x="133" 
d="M69 46l-47 199l46 201h41l-45 -202l47 -198h-42z" />
    <glyph glyph-name="guilsinglright" unicode="&#x203a;" horiz-adv-x="133" 
d="M22 46l48 198l-46 202h41l46 -201l-47 -199h-42z" />
    <glyph glyph-name="fraction" unicode="&#x2044;" horiz-adv-x="202" 
d="M159 699h40l-157 -699h-39z" />
    <glyph glyph-name="franc" unicode="&#x20a3;" 
d="M98 660v-293h72v-35h-72v-135h30v-32h-30v-165h-46v165h-30v32h30v502h139v-39h-93z" />
    <glyph glyph-name="uni20A6" unicode="&#x20a6;" horiz-adv-x="319" 
d="M297 415v-32h-35v-63h35v-32h-35v-288h-54l-54 288h-52v-288h-39v288h-41v32h41v63h-41v32h41v284h54l52 -284h50v284h43v-284h35zM102 320h46l-12 63h-34v-63zM186 320h33v63h-44zM102 561v-146h28l-27 146h-1zM219 144v144h-27z" />
    <glyph glyph-name="peseta" unicode="&#x20a7;" horiz-adv-x="292" 
d="M161 699q32 0 55.5 -23t23.5 -68v-97h30v-32h-30v-102q0 -42 -20.5 -60t-52.5 -18h-54v-299h-46v479h-45v32h45v188h94zM113 511h81v90q0 32 -11.5 45.5t-25.5 13.5h-44v-149zM194 479h-81v-141h50q31 0 31 53v88z" />
    <glyph glyph-name="uni20A9" unicode="&#x20a9;" horiz-adv-x="402" 
d="M75 316l-5 71h-48v32h46l-21 280h44l20 -280h45l26 280h39l29 -280h48l20 280h41l-21 -280h42v-32h-44l-6 -71h50v-32h-52l-21 -284h-47l-32 284h-49l-28 -284h-52l-21 284h-56v32h53zM182 316h43l-8 71h-28zM261 316h29l5 71h-41zM118 316h29l6 71h-40zM132 155l12 129
h-23l9 -129h2zM279 155l9 129h-23l13 -129h1zM192 419h21l-11 102z" />
    <glyph glyph-name="Euro" unicode="&#x20ac;" horiz-adv-x="246" 
d="M155 305h-56v-213q0 -32 11.5 -45.5t25.5 -13.5h7q14 0 25.5 13.5t11.5 45.5v191h46v-198q0 -24 -7 -41.5t-18.5 -28.5t-25.5 -16t-28 -5h-15q-14 0 -28.5 5t-25.5 16t-18 28.5t-7 41.5v220h-31v20h31v49h-31v21h31v219q0 24 7 41.5t18 28.5t25.5 16t28.5 5h15
q14 0 28 -5t25.5 -16t18.5 -28.5t7 -41.5v-197h-46v190q0 32 -11.5 45.5t-25.5 13.5h-7q-14 0 -25.5 -13.5t-11.5 -45.5v-212h56v-21h-56v-49h56v-20z" />
    <glyph glyph-name="uni20B9" unicode="&#x20b9;" horiz-adv-x="291" 
d="M22 571h153v35q0 31 -13 44t-32 13h-108v36h124h6h117v-36h-63q12 -20 12 -49v-43h51v-36h-51v-114q0 -21 -6.5 -36.5t-17 -26.5t-23.5 -16.5t-26 -5.5h-62l132 -336h-51l-132 341v27h97q20 0 33 14t13 43v110h-153v36z" />
    <glyph glyph-name="trademark" unicode="&#x2122;" horiz-adv-x="244" 
d="M226 699v-307h-21v236l-28 -236h-18l-26 236h-1v-236h-21v307h34l24 -242l26 242h31zM95 676h-25v-284h-27v284h-25v23h77v-23z" />
    <glyph glyph-name="minus" unicode="&#x2212;" horiz-adv-x="238" 
d="M216 366v-32h-194v32h194z" />
    <glyph glyph-name="fi" unicode="&#xfb01;" horiz-adv-x="198" 
d="M45 0v459h-25v36h25v126q0 21 6.5 38.5t20 29t33 15.5t45.5 -2v-35q-23 5 -42.5 -7.5t-19.5 -41.5v-123h91v-495h-43v459h-48v-459h-43z" />
    <glyph glyph-name="fl" unicode="&#xfb02;" horiz-adv-x="235" 
d="M44 0v459h-25v36h25v126q0 21 6.5 38.5t20 29t33.5 15.5t46 -2v-35q-23 5 -42.5 -7.5t-19.5 -41.5v-123h62v-36h-62v-459h-44zM174 0h44v699h-44v-699z" />
    <glyph glyph-name="_0007" horiz-adv-x="0" 
 />
    <glyph glyph-name="_0024" horiz-adv-x="0" 
 />
    <glyph glyph-name="quoteaccent" horiz-adv-x="0" 
d="M1 648l16 45h19l-12 -45h11v-62h-34v62z" />
    <glyph glyph-name="accent margin" horiz-adv-x="0" 
d="M81 699h12v-118h-12v118z" />
    <glyph glyph-name="ucircumflex.001" horiz-adv-x="196" 
d="M96 33q11 0 23.5 14.5t14.5 37.5v410h43v-495h-43v31q-12 -16 -26.5 -25t-28.5 -9h-3q-58 0 -58 85v413h43v-413q0 -25 10 -37t22 -12h3zM119 620l56 -86h-41l-36 64l-36 -64h-41l56 86h42z" />
    <glyph glyph-name="uacute.001" horiz-adv-x="196" 
d="M96 33q12 0 25 16t13 41v405h43v-495h-43v31q-12 -16 -26.5 -25t-28.5 -9h-3q-58 0 -58 85v413h43v-413q0 -25 10 -37t22 -12h3zM82 534l44 86h41l-56 -86h-29z" />
    <glyph glyph-name="ugrave.001" horiz-adv-x="196" 
d="M93 33q-12 0 -22 12t-10 37v413h-43v-413q0 -85 58 -85h3q14 0 28.5 9t26.5 25v-31h43v495h-43v-410q-2 -23 -14.5 -37.5t-23.5 -14.5h-3zM83 534l-56 86h42l44 -86h-30z" />
    <glyph glyph-name="udieresis.001" horiz-adv-x="196" 
d="M93 33q-12 0 -22 12t-10 37v413h-43v-413q0 -85 58 -85h3q14 0 28.5 9t26.5 25v-31h43v495h-43v-410q-2 -23 -14.5 -37.5t-23.5 -14.5h-3zM145 547h-31v65h31v-65zM81 547h-31v65h31v-65z" />
    <glyph glyph-name="iacute.001" horiz-adv-x="84" 
d="M65 495v-495h-43v495h43zM28 534l44 86h42l-56 -86h-30z" />
    <glyph glyph-name="_0158" horiz-adv-x="0" 
 />
    </font>
</defs>
</svg>
