<?xml version="1.0" standalone="no"?>
<!DOCTYPE svg PUBLIC "-//W3C//DTD SVG 1.1//EN" "http://www.w3.org/Graphics/SVG/1.1/DTD/svg11.dtd" >
<svg xmlns="http://www.w3.org/2000/svg" xmlns:xlink="http://www.w3.org/1999/xlink" version="1.1">
<metadata>
Created by FontForge 20170731 at Mon Jun 25 01:12:51 2018
 By Aleksey,,,
Copyright (c) 2018 by Rajesh Rajput. All rights reserved.
</metadata>
<defs>
<font id="Morganite-MediumItalic" horiz-adv-x="220" >
  <font-face 
    font-family="Morganite"
    font-weight="500"
    font-style="italic"
    font-stretch="normal"
    units-per-em="1000"
    panose-1="0 0 0 0 0 0 0 0 0 0"
    ascent="750"
    descent="-250"
    x-height="495"
    cap-height="699"
    bbox="-47 -176 588.163 851"
    underline-thickness="52"
    underline-position="-152"
    slope="-15"
    unicode-range="U+000D-FB02"
  />
<missing-glyph horiz-adv-x="120" 
 />
    <glyph glyph-name=".notdef" horiz-adv-x="120" 
 />
    <glyph glyph-name=".null" horiz-adv-x="0" 
 />
    <glyph glyph-name="nonmarkingreturn" unicode="&#xd;" horiz-adv-x="120" 
 />
    <glyph glyph-name="NULL" horiz-adv-x="0" 
 />
    <glyph glyph-name="NULL" horiz-adv-x="0" 
 />
    <glyph glyph-name="space" unicode=" " horiz-adv-x="120" 
 />
    <glyph glyph-name="exclam" unicode="!" horiz-adv-x="118" 
d="M64 119h-41l36 312l38 268h57l-38 -268zM56 0h-58l13 86h57z" />
    <glyph glyph-name="quotedbl" unicode="&#x22;" horiz-adv-x="228" 
d="M143 612l-31 -59h-25l24 59h-26l12 87h58zM246 612l-31 -59h-25l24 59h-26l12 87h58z" />
    <glyph glyph-name="numbersign" unicode="#" horiz-adv-x="322" 
d="M276 216h-45l-49 -216h-52l49 216h-59l-49 -216h-51l49 216h-50l10 47h51l39 171h-50l12 47h49l50 218h51l-50 -218h59l50 218h52l-50 -218h47l-13 -47h-45l-39 -171h45zM131 263h59l39 171h-59z" />
    <glyph glyph-name="dollar" unicode="$" 
d="M55 -5q-27 4 -46 26t-12 67l27 194h52l-26 -185q-5 -30 4 -42.5t23 -12.5h6q14 0 25.5 12.5t16.5 42.5l13 94q7 47 -8 83t-34 69.5t-33.5 70t-7.5 85.5l15 111q7 45 32 67.5t54 26.5l8 51h38l-8 -52q26 -5 44.5 -26.5t11.5 -66.5l-28 -193h-52l27 185q5 30 -3.5 42.5
t-21.5 12.5h-6q-13 0 -24 -12.5t-16 -42.5l-13 -94q-4 -32 1.5 -58t16.5 -49.5t24 -46t24 -46t16.5 -50t1.5 -58.5l-16 -112q-7 -46 -33 -67.5t-55 -25.5l-7 -52h-38z" />
    <glyph glyph-name="percent" unicode="%" horiz-adv-x="426" 
d="M381 699l-347 -699h41l348 699h-42zM96 304q-27 0 -44 20t-11 57l35 246q5 38 28 58t50 20h13q28 0 44.5 -20t11.5 -58l-35 -246q-6 -37 -28.5 -57t-49.5 -20h-14zM153 669q-11 0 -21 -10.5t-13 -33.5l-35 -242q-3 -23 4 -33t18 -10h6q11 0 20.5 10t12.5 33l35 242
q3 23 -3.5 33.5t-17.5 10.5h-6zM291 -6q-27 0 -43.5 20t-11.5 58l36 249q5 37 27.5 57t49.5 20h13q28 0 45 -20t12 -57l-36 -249q-5 -38 -28 -58t-50 -20h-14zM349 362q-11 0 -21 -10t-14 -33l-35 -246q-3 -23 4 -33t18 -10h6q11 0 20.5 10t12.5 33l35 246q4 23 -2.5 33
t-17.5 10h-6z" />
    <glyph glyph-name="ampersand" unicode="&#x26;" 
d="M164 755h38l-8 -51q14 -2 26.5 -8.5t21.5 -17.5t12.5 -28t0.5 -40l-28 -194h-57l27 186q5 30 -3.5 42.5t-21.5 12.5h-6q-13 0 -24 -12.5t-16 -42.5l-23 -162q-4 -30 3.5 -45t24.5 -15h21l-2 -23h-1l-2 -19h-21q-17 0 -29 -15t-17 -45l-25 -182q-5 -30 3 -42.5t21 -12.5h6
q13 0 24 12.5t16 42.5l26 186h57l-27 -194q-7 -46 -33 -68t-55 -26l-7 -51h-38l7 51q-27 4 -46 26t-12 68l26 189q5 41 26 59t47 23q-24 6 -39.5 25.5t-9.5 61.5l23 164q7 45 32 67.5t54 26.5z" />
    <glyph glyph-name="quotesingle" unicode="'" horiz-adv-x="125" 
d="M143 612l-31 -59h-25l24 59h-26l12 87h58z" />
    <glyph glyph-name="parenleft" unicode="(" horiz-adv-x="208" 
d="M74 -36q-19 0 -35 5.5t-27 19t-15.5 35t0.5 54.5l76 542q4 33 15 55t26 35.5t33 19t37 5.5h51l-7 -48h-31q-32 0 -47.5 -23t-23.5 -72l-69 -485q-7 -49 2.5 -72t40.5 -23h31l-7 -48h-50z" />
    <glyph glyph-name="parenright" unicode=")" horiz-adv-x="208" 
d="M2 -36l7 48h31q32 0 47.5 23t22.5 72l69 485q8 49 -1.5 72t-41.5 23h-31l7 48h51q19 0 35.5 -5.5t27 -19t15 -35.5t-0.5 -55l-77 -542q-5 -33 -15.5 -54.5t-25.5 -35t-33 -19t-37 -5.5h-50z" />
    <glyph glyph-name="asterisk" unicode="*" horiz-adv-x="198" 
d="M110 538l-22 17l42 53l-57 18l14 28l56 -21l7 66h30l-11 -66l62 21l5 -29l-62 -17l28 -53l-26 -17l-26 56z" />
    <glyph glyph-name="plus" unicode="+" horiz-adv-x="286" 
d="M139 369l19 129h44l-19 -129h101l-5 -39h-101l-18 -128h-44l18 128h-101l5 39h101z" />
    <glyph glyph-name="comma" unicode="," horiz-adv-x="100" 
d="M45 0l-31 -59h-24l23 59h-26l12 86h58z" />
    <glyph glyph-name="hyphen" unicode="-" horiz-adv-x="241" 
d="M241 369l-5 -39h-201l5 39h201z" />
    <glyph glyph-name="period" unicode="." horiz-adv-x="118" 
d="M55 0h-58l12 86h58z" />
    <glyph glyph-name="slash" unicode="/" horiz-adv-x="210" 
d="M224 699h48l-255 -699h-48z" />
    <glyph glyph-name="zero" unicode="0" 
d="M66 -6q-15 0 -29.5 5.5t-24.5 16.5t-14.5 29t-0.5 43l73 522q8 51 37.5 73t60.5 22h16q15 0 29.5 -5.5t24.5 -17t15 -29.5t1 -43l-74 -522q-7 -50 -37 -72t-61 -22h-16zM165 657q-13 0 -24 -13t-15 -42l-72 -505q-5 -30 3 -42.5t21 -12.5h7q13 0 23.5 12.5t15.5 42.5
l72 505q5 29 -3 42t-21 13h-7z" />
    <glyph glyph-name="one" unicode="1" horiz-adv-x="157" 
d="M37 0l87 613q-11 -5 -30 -9.5t-32 -4.5l6 44q22 0 46 16.5t32 39.5h48l-100 -699h-57z" />
    <glyph glyph-name="two" unicode="2" 
d="M43 417l28 193q7 50 36.5 72.5t60.5 22.5h10q15 0 30 -5.5t25.5 -17t15.5 -29.5t1 -43l-16 -111q-5 -33 -18 -61t-30.5 -57t-38 -60.5t-39.5 -71t-35 -88.5t-25 -113h127l-7 -48h-183l6 48q10 69 26.5 121t35.5 92.5t39.5 72.5t38 60t30 55t17.5 59l14 94q4 30 -3.5 42.5
t-20.5 12.5h-7q-13 0 -24 -12.5t-16 -42.5l-26 -185h-52z" />
    <glyph glyph-name="three" unicode="3" 
d="M107 380h21q17 0 29 15t16 45l24 162q5 30 -3.5 42.5t-21.5 12.5h-6q-13 0 -24 -12.5t-16 -42.5l-26 -186h-57l27 194q4 25 14 43t24 29.5t30 17t31 5.5h15q15 0 29.5 -5.5t25 -17t15.5 -29.5t1 -43l-23 -164q-6 -42 -27 -62t-47 -25q24 -5 39.5 -23t9.5 -59l-26 -189
q-8 -50 -38 -72.5t-61 -22.5h-15q-15 0 -29.5 5.5t-24.5 17t-15 29.5t-1 43l27 194h57l-26 -186q-5 -30 3 -42.5t21 -12.5h6q13 0 24 12.5t16 42.5l26 182q4 30 -4 45t-25 15h-21l3 23z" />
    <glyph glyph-name="four" unicode="4" horiz-adv-x="246" 
d="M214 155l-6 -48h-35l-15 -107h-49l15 107h-132l6 48l193 544h67l-78 -544h34zM185 535h-2l-130 -379v-1h78z" />
    <glyph glyph-name="five" unicode="5" 
d="M68 -6q-15 0 -29.5 5.5t-25 16.5t-15 29t-1.5 43l28 199h57l-27 -190q-4 -30 3.5 -42.5t20.5 -12.5h6q13 0 24.5 12.5t15.5 42.5l35 242q5 30 -3 42.5t-21 12.5h-7q-13 0 -24 -12.5t-16 -42.5l-1 -5v-1h-12v1h-45l52 365h183l-12 -48h-120l-36 -248q13 20 29.5 29.5
t31.5 9.5h8q23 0 40.5 -22.5t10.5 -72.5l-37 -259q-8 -50 -37.5 -72t-60.5 -22h-15z" />
    <glyph glyph-name="six" unicode="6" 
d="M67 -6q-15 0 -29.5 5.5t-24.5 16.5t-15 29t-1 43l16 118v2l11 79l46 323q4 25 14 43t24 29.5t30 17t31 5.5h12q15 0 29.5 -5.5t24.5 -17t15 -29.5t1 -43l-18 -134h-54l17 126q5 30 -3 42.5t-21 12.5h-6q-13 0 -24 -12.5t-16 -42.5l-28 -198q12 20 28.5 29t31.5 9h8
q23 0 41 -22.5t11 -72.5l-37 -259q-4 -25 -14 -43t-24 -29t-30 -16.5t-31 -5.5h-15zM79 42h6q13 0 24 12.5t16 42.5l34 242q5 30 -2.5 42.5t-20.5 12.5h-7q-13 0 -24.5 -12.5t-15.5 -42.5l-1 -6l-18 -127l-15 -109q-5 -30 3 -42.5t21 -12.5z" />
    <glyph glyph-name="seven" unicode="7" horiz-adv-x="190" 
d="M-24 0l195 656h-105l6 43h163l-6 -43l-195 -656h-58z" />
    <glyph glyph-name="eight" unicode="8" 
d="M67 -6q-15 0 -29.5 5.5t-24.5 16.5t-15 29t-1 43l26 186q5 34 20.5 54.5t35.5 30.5q-17 10 -27 30.5t-5 54.5l23 166q4 25 14 43t24 29.5t30 17t31 5.5h15q15 0 29.5 -5.5t25 -17t15.5 -29.5t1 -43l-24 -166q-5 -34 -21 -54.5t-36 -30.5q18 -10 28 -30.5t5 -54.5
l-26 -186q-4 -25 -14 -43t-24 -29t-30 -16.5t-31 -5.5h-15zM121 341q-13 0 -24 -13t-16 -42l-26 -189q-5 -30 3 -42.5t21 -12.5h6q13 0 24 12.5t16 42.5l27 189q4 29 -3.5 42t-20.5 13h-7zM166 657q-13 0 -24 -13t-16 -42l-24 -170q-4 -29 3.5 -42t20.5 -13h7q13 0 24 13
t15 42l25 170q4 29 -4 42t-21 13h-6z" />
    <glyph glyph-name="nine" unicode="9" 
d="M184 705q15 0 29.5 -5.5t25 -17t15.5 -29.5t1 -43l-17 -118l-7 -51l-50 -353q-4 -25 -14 -43t-24 -29t-30 -16.5t-31 -5.5h-12q-15 0 -29.5 5.5t-24.5 16.5t-14.5 29t-0.5 43l26 194h54l-26 -186q-5 -29 3 -41.5t21 -12.5h6q13 0 24 12t16 43l36 256q-13 -20 -29 -28.5
t-31 -8.5h-8q-12 0 -22.5 5.5t-18 16.5t-11 29t0.5 43l28 200q4 25 14 43t24 29.5t30 17t31 5.5h15zM181 492l16 110q5 29 -3.5 42t-21.5 13h-6q-13 0 -24 -13t-16 -42l-26 -183q-5 -31 3.5 -43t21.5 -12h6q12 0 23 11t16 37l4 29z" />
    <glyph glyph-name="colon" unicode=":" horiz-adv-x="118" 
d="M103 328h-58l12 87h58zM57 0h-58l12 86h58z" />
    <glyph glyph-name="semicolon" unicode=";" horiz-adv-x="126" 
d="M112 328h-58l13 87h58zM67 0l-31 -59h-25l24 59h-26l12 86h58z" />
    <glyph glyph-name="less" unicode="&#x3c;" horiz-adv-x="241" 
d="M221 6l-2 -1l-199 227v28l198 229l2 -1v-60l-1 -2l-150 -177v-4l150 -175l1 -2z" />
    <glyph glyph-name="equal" unicode="=" horiz-adv-x="296" 
d="M303 422l-5 -39h-256l5 39h256zM289 320l-5 -39h-256l5 39h256z" />
    <glyph glyph-name="greater" unicode="&#x3e;" horiz-adv-x="241" 
d="M55 67l1 2l150 176v3l-150 178l-1 2v59l2 2l199 -229v-29l-199 -226l-2 1v61z" />
    <glyph glyph-name="question" unicode="?" horiz-adv-x="215" 
d="M44 417l27 193q8 51 37 73t60 22h11q15 0 29.5 -5.5t25 -17t15.5 -29.5t2 -43l-17 -111q-5 -34 -16.5 -61t-26 -52t-30 -50.5t-28.5 -56.5t-21.5 -70t-8.5 -90h-57q1 56 9.5 98t22 74t29 57.5t30 50t26 50.5t16.5 59l13 94q5 30 -3 42.5t-21 12.5h-6q-13 0 -24.5 -12.5
t-15.5 -42.5l-26 -185h-52zM88 0h-58l12 86h58z" />
    <glyph glyph-name="at" unicode="@" horiz-adv-x="374" 
d="M140 -6q-42 0 -69 13t-42.5 34t-20.5 46.5t-1 50.5l43 312q3 25 15.5 51t34 47t52.5 34t73 13h30q42 0 69 -13t42.5 -34t20.5 -47t1 -51l-43 -305q-3 -23 -22.5 -36t-42.5 -15t-43.5 6t-26.5 26q-14 -15 -30 -24t-30 -9h-3q-32 0 -42.5 23t-4.5 65l32 224q6 42 23.5 65.5
t49.5 23.5h4q13 0 24.5 -7.5t20.5 -20.5l1 2l14 25h38l-47 -325q-2 -14 2.5 -20.5t11.5 -6.5t13.5 6.5t8.5 20.5l40 279q2 15 1 33.5t-9.5 34t-27 26.5t-51.5 11h-31q-33 0 -54.5 -11t-34.5 -26.5t-19.5 -34t-8.5 -33.5l-43 -305q-2 -15 -1 -33.5t10 -34t27 -26.5t51 -11h31
q35 0 55.5 11.5t29.5 22.5l35 -29q-17 -17 -47.5 -32.5t-79.5 -15.5h-29zM176 137q11 0 22 11.5t16 31.5l32 228q0 19 -7.5 30t-17.5 11h-3q-11 0 -20.5 -11t-12.5 -34l-32 -222q-3 -23 3.5 -34t17.5 -11h2z" />
    <glyph glyph-name="A" unicode="A" horiz-adv-x="208" 
d="M115 0l9 194h-66l-46 -194h-49l165 699h73l-31 -699h-55zM68 237h58l15 301h-2z" />
    <glyph glyph-name="B" unicode="B" horiz-adv-x="219" 
d="M231 426q-5 -32 -17 -47.5t-28 -20.5q14 -4 22 -19.5t3 -47.5l-29 -202q-3 -23 -12.5 -40t-23 -28t-29.5 -16t-32 -5h-99l99 699h100q16 0 30.5 -5.5t24.5 -17t15 -29.5t1 -43zM154 287q7 50 -20 50h-43l-41 -289h38q13 0 24 11.5t15 37.5zM140 380q27 0 34 50l24 166
q5 29 -3 42t-21 13h-39l-39 -271h44z" />
    <glyph glyph-name="C" unicode="C" horiz-adv-x="218" 
d="M65 -6q-15 0 -29.5 5.5t-24.5 16.5t-15 29t-1 43l73 522q8 51 37.5 73t60.5 22h16q15 0 29.5 -5.5t24.5 -17t15 -29.5t1 -43l-27 -193h-57l27 185q4 30 -4 42.5t-21 12.5h-6q-13 0 -24 -12.5t-16 -42.5l-72 -505q-4 -30 3.5 -42.5t20.5 -12.5h7q13 0 24 12.5t16 42.5
l26 186h57l-27 -195q-4 -25 -14 -43t-24 -29t-30 -16.5t-31 -5.5h-15z" />
    <glyph glyph-name="D" unicode="D" horiz-adv-x="222" 
d="M-14 0l99 699h100q15 0 29.5 -5t25 -16t15.5 -28.5t1 -42.5l-73 -516q-4 -25 -14 -42.5t-23.5 -28t-29.5 -15.5t-31 -5h-99zM135 651l-85 -603h38q13 0 23.5 11t15.5 41l71 499q5 29 -3 40.5t-21 11.5h-39z" />
    <glyph glyph-name="E" unicode="E" horiz-adv-x="182" 
d="M135 651l-40 -280h71l-6 -43h-71l-39 -280h95l-7 -48h-152l99 699h148l-7 -48h-91z" />
    <glyph glyph-name="F" unicode="F" horiz-adv-x="178" 
d="M135 651l-40 -280h71l-6 -43h-71l-46 -328h-57l99 699h148l-7 -48h-91z" />
    <glyph glyph-name="G" unicode="G" horiz-adv-x="218" 
d="M65 -6q-15 0 -29.5 5.5t-24.5 16.5t-15 29t-1 43l73 522q8 51 37.5 73t60.5 22h16q15 0 29.5 -5.5t24.5 -17t15 -29.5t1 -43l-27 -193h-57l27 185q4 30 -4 42.5t-21 12.5h-6q-13 0 -24 -12.5t-16 -42.5l-72 -505q-4 -30 3.5 -42.5t20.5 -12.5h7q13 0 24 12.5t16 42.5
l19 138h-35l8 48h91l-7 -48l-18 -127q0 -2 -0.5 -2.5t-0.5 -2.5l-14 -103h-29l-4 23q-16 -14 -32 -21.5t-29 -7.5h-7z" />
    <glyph glyph-name="H" unicode="H" 
d="M266 699l-100 -699h-57l47 328h-67l-46 -328h-57l99 699h57l-47 -329h67l47 329h57z" />
    <glyph glyph-name="I" unicode="I" horiz-adv-x="99" 
d="M142 699l-99 -699h-57l99 699h57z" />
    <glyph glyph-name="J" unicode="J" horiz-adv-x="222" 
d="M65 -6q-15 0 -29 5.5t-24.5 16.5t-15.5 29t-1 43l27 193h56l-26 -184q-4 -30 3.5 -42.5t20.5 -12.5h6q13 0 24.5 12.5t16.5 42.5l85 602h57l-87 -611q-7 -50 -36.5 -72t-60.5 -22h-16z" />
    <glyph glyph-name="K" unicode="K" horiz-adv-x="217" 
d="M132 363l45 -363h-53l-42 287h-1l-40 -287h-57l99 699h57l-41 -283h1l126 283h52z" />
    <glyph glyph-name="L" unicode="L" horiz-adv-x="138" 
d="M142 699l-93 -656h85l-6 -43h-142l99 699h57z" />
    <glyph glyph-name="M" unicode="M" horiz-adv-x="298" 
d="M343 699l-100 -699h-47l75 526h-1l-136 -526h-43l16 526h-1l-75 -526h-47l99 699h74l-14 -485h1l125 485h74z" />
    <glyph glyph-name="N" unicode="N" horiz-adv-x="247" 
d="M130 0l-23 526h-1l-75 -526h-47l99 699h65l20 -520l74 520h52l-100 -699h-64z" />
    <glyph glyph-name="O" unicode="O" horiz-adv-x="218" 
d="M65 -6q-15 0 -29.5 5.5t-24.5 16.5t-15 29t-1 43l73 522q8 51 37.5 73t60.5 22h16q15 0 29.5 -5.5t24.5 -17t15 -29.5t1 -43l-73 -522q-4 -25 -14 -43t-24 -29t-30 -16.5t-31 -5.5h-15zM164 657q-13 0 -24.5 -13t-15.5 -42l-72 -505q-4 -30 3.5 -42.5t20.5 -12.5h7
q13 0 24 12.5t16 42.5l72 505q4 29 -4 42t-21 13h-6z" />
    <glyph glyph-name="P" unicode="P" horiz-adv-x="222" 
d="M186 699q34 0 55.5 -24t14.5 -70l-33 -230q-6 -43 -31 -61.5t-59 -18.5h-49l-41 -295h-57l99 699h101zM198 596q5 29 -3 42t-22 13h-38l-44 -309h43q28 0 35 50z" />
    <glyph glyph-name="Q" unicode="Q" horiz-adv-x="217" 
d="M65 -6q-15 0 -29.5 5.5t-24.5 16.5t-15 29t-1 43l73 522q7 50 37 72.5t61 22.5h15q15 0 29.5 -5.5t25 -17t15.5 -29.5t1 -43l-74 -522q-4 -27 -15 -45.5t-26 -29.5l23 -27l-32 -29l-33 39q-10 -2 -15 -2h-15zM164 657q-13 0 -24.5 -13t-15.5 -42l-72 -505
q-4 -30 3.5 -42.5t20.5 -12.5h6q13 0 24.5 12.5t16.5 42.5l71 505q5 29 -3 42t-21 13h-6z" />
    <glyph glyph-name="R" unicode="R" horiz-adv-x="222" 
d="M229 416q-5 -32 -17 -47.5t-28 -20.5q15 -4 23 -19.5t3 -47.5l-24 -167q-8 -59 -8 -83.5t2 -30.5h-57q-4 12 -2.5 38t8.5 76l23 162q7 51 -20 51h-43l-46 -327h-57l99 699h101q34 0 55.5 -23.5t14.5 -70.5zM138 370q28 0 35 50l25 176q5 29 -3 42t-22 13h-38l-40 -281h43
z" />
    <glyph glyph-name="S" unicode="S" 
d="M170 417l27 185q5 30 -3.5 42.5t-21.5 12.5h-6q-13 0 -24 -12.5t-16 -42.5l-13 -94q-4 -32 1.5 -58t16.5 -49.5t24 -46t24 -46t16.5 -50t1.5 -58.5l-16 -112q-4 -25 -14 -43t-23.5 -29t-29.5 -16.5t-32 -5.5h-14q-15 0 -29.5 5.5t-25 16.5t-15.5 29t-1 43l27 194h52
l-26 -185q-5 -30 4 -42.5t23 -12.5h6q14 0 25.5 12.5t16.5 42.5l13 94q4 31 -1.5 57.5t-16.5 49.5t-24 45.5t-24 46t-17 50t-1 59.5l16 111q4 25 14 43t24 29.5t30 17t31 5.5h11q15 0 29.5 -5.5t24.5 -17t15 -29.5t1 -43l-28 -193h-52z" />
    <glyph glyph-name="T" unicode="T" horiz-adv-x="167" 
d="M218 651h-65l-93 -651h-57l93 651h-66l7 48h189z" />
    <glyph glyph-name="U" unicode="U" horiz-adv-x="229" 
d="M68 -6q-15 0 -29.5 5.5t-25 16.5t-15 29t-1.5 43l86 611h57l-85 -602q-4 -30 3 -42.5t20 -12.5h7q13 0 24.5 12.5t15.5 42.5l85 602h57l-86 -611q-8 -51 -37 -72.5t-61 -21.5h-15z" />
    <glyph glyph-name="V" unicode="V" horiz-adv-x="202" 
d="M215 699h49l-166 -699h-73l32 699h55l-27 -539h2z" />
    <glyph glyph-name="W" unicode="W" horiz-adv-x="334" 
d="M19 0l47 699h54l-36 -505h2l118 505h47l-20 -505h1l108 505h50l-151 -699h-57l15 477h-1l-114 -477h-63z" />
    <glyph glyph-name="X" unicode="X" horiz-adv-x="214" 
d="M154 359l22 -359h-59l-13 243l-80 -243h-54l126 376l-27 323h56l18 -206l74 206h57z" />
    <glyph glyph-name="Y" unicode="Y" horiz-adv-x="205" 
d="M130 266l-38 -266h-57l38 266l-13 433h57l2 -303h2l89 303h57z" />
    <glyph glyph-name="Z" unicode="Z" horiz-adv-x="207" 
d="M161 0h-189l6 41l210 615h-106l7 43h163l-6 -41l-211 -615h132z" />
    <glyph glyph-name="bracketleft" unicode="[" horiz-adv-x="178" 
d="M-24 -56l115 811h116l-7 -48h-58l-102 -715h58l-7 -48h-115z" />
    <glyph glyph-name="backslash" unicode="\" horiz-adv-x="210" 
d="M171 0h-48l-56 699h48z" />
    <glyph glyph-name="bracketright" unicode="]" horiz-adv-x="178" 
d="M-4 -56l8 48h57l101 715h-58l8 48h115l-116 -811h-115z" />
    <glyph glyph-name="asciicircum" unicode="^" horiz-adv-x="257" 
d="M209 414l-2 1l-26 196h-3l-81 -196l-2 -1h-50l-1 2l116 283h64l37 -283l-2 -2h-50z" />
    <glyph glyph-name="underscore" unicode="_" horiz-adv-x="316" 
d="M263 0h-276l5 39h277z" />
    <glyph glyph-name="grave" unicode="`" horiz-adv-x="152" 
d="M87 591l-57 86h50l42 -86h-35z" />
    <glyph glyph-name="a" unicode="a" horiz-adv-x="199" 
d="M39 -3q-32 0 -40.5 23t-2.5 65l14 103q6 42 23 65.5t49 23.5h3q13 0 25.5 -6t23.5 -16l22 153q3 23 -4 34t-18 11h-5q-11 0 -21.5 -11t-13.5 -34l-17 -117h-53l17 118q7 43 32 66t57 23h15q32 0 51 -23.5t13 -65.5l-59 -409h-53l3 20q-14 -11 -29.5 -17t-28.5 -6h-3z
M97 237q-11 0 -20.5 -11t-13.5 -34l-15 -111q-3 -23 3.5 -34t17.5 -11h2q10 0 20.5 8.5t15.5 27.5l13 86l7 50q3 17 -6 23t-18 6h-6z" />
    <glyph glyph-name="b" unicode="b" horiz-adv-x="201" 
d="M86 -3q-14 0 -27 9t-23 25l-10 -31h-42l99 699h53l-33 -231q14 14 28 22t28 8h3q32 0 42.5 -23.5t4.5 -65.5l-46 -324q-6 -42 -24 -65t-50 -23h-3zM132 453q-11 0 -23 -13.5t-15 -36.5l-46 -319q-1 -20 7 -31.5t19 -11.5h2q11 0 20.5 11t13.5 34l46 322q3 23 -3.5 34
t-17.5 11h-3z" />
    <glyph glyph-name="c" unicode="c" horiz-adv-x="199" 
d="M138 291l17 117q3 23 -3 34t-17 11h-6q-11 0 -21.5 -11t-13.5 -34l-46 -322q-3 -23 3.5 -34t15.5 -11h8q11 0 21 11t13 34l18 120h53l-18 -120q-6 -43 -31.5 -66t-57.5 -23h-17q-29 0 -47.5 23t-12.5 66l45 323q6 42 31 65.5t57 23.5h15q32 0 51.5 -23t12.5 -66l-17 -118
h-53z" />
    <glyph glyph-name="d" unicode="d" horiz-adv-x="202" 
d="M43 -3q-31 0 -42 23t-5 65l45 324q6 42 23 65.5t49 23.5h3q14 0 26 -8.5t22 -22.5l33 232h53l-100 -699h-43l-1 30q-14 -15 -29.5 -24t-29.5 -9h-4zM129 453q-11 0 -21.5 -11t-13.5 -34l-46 -322q-3 -23 3.5 -34t17.5 -11h3q11 0 22.5 13.5t15.5 36.5l32 227l13 91
q2 20 -5.5 32t-18.5 12h-2z" />
    <glyph glyph-name="e" unicode="e" horiz-adv-x="199" 
d="M67 41h8q11 0 21 11t13 34l18 120h53l-18 -120q-6 -43 -31.5 -66t-57.5 -23h-17q-29 0 -47.5 23t-12.5 66l45 323q6 42 31 65.5t57 23.5h15q32 0 51.5 -23t12.5 -66l-24 -173h-115l-21 -150q-3 -23 3.5 -34t15.5 -11zM136 273l19 135q3 23 -3 34t-17 11h-6
q-11 0 -21.5 -11t-13.5 -34l-19 -135h61z" />
    <glyph glyph-name="f" unicode="f" horiz-adv-x="158" 
d="M8 0l63 450h-25l7 45h25l17 122q3 21 12.5 39.5t25.5 30.5t38.5 16.5t50.5 -2.5l-6 -42q-10 2 -21.5 0.5t-21 -7t-16.5 -15.5t-9 -24l-17 -118h62l-7 -45h-62l-64 -450h-52z" />
    <glyph glyph-name="g" unicode="g" horiz-adv-x="203" 
d="M220 495l-81 -571q-7 -43 -32.5 -66t-54.5 -23h-17q-32 0 -50.5 23t-12.5 66l7 47h53l-7 -47q-4 -23 2.5 -34t17.5 -11h8q10 0 20 11t13 34l14 101q-14 -13 -28.5 -20.5t-27.5 -7.5h-3q-31 0 -42 23t-4 65l45 324q6 42 24 65.5t50 23.5h3q13 0 24.5 -7.5t22.5 -20.5v1
l13 24h43zM71 41q11 0 23 13.5t15 36.5l45 312q3 23 -5 36.5t-19 13.5h-3q-11 0 -21 -11t-13 -34l-46 -322q-3 -23 3.5 -34t17.5 -11h3z" />
    <glyph glyph-name="h" unicode="h" horiz-adv-x="203" 
d="M136 453q-11 0 -22.5 -12.5t-16.5 -32.5l-1 -6l-57 -402h-53l99 699h53l-33 -232q14 14 28.5 22.5t28.5 8.5h3q32 0 42.5 -23.5t4.5 -65.5l-58 -409h-53l58 408q3 23 -3.5 34t-17.5 11h-2z" />
    <glyph glyph-name="i" unicode="i" horiz-adv-x="90" 
d="M109 495l-70 -495h-52l69 495h53zM126 617l-11 -81h-53l11 81h53z" />
    <glyph glyph-name="j" unicode="j" horiz-adv-x="130" 
d="M168 619l-12 -84h-53l12 84h53zM149 495l-81 -572q-7 -42 -32 -65t-75 -23l6 44q41 0 48 44l81 572h53z" />
    <glyph glyph-name="k" unicode="k" horiz-adv-x="198" 
d="M107 258l52 -258h-53l-40 197l-28 -197h-52l99 699h53l-56 -387l97 183h51z" />
    <glyph glyph-name="l" unicode="l" horiz-adv-x="91" 
d="M85 699h53l-99 -699h-53z" />
    <glyph glyph-name="m" unicode="m" horiz-adv-x="319" 
d="M134 453q-11 0 -23 -13t-16 -33l-1 -5l-57 -402h-52l69 495h53l-4 -28q14 14 29 22.5t29 8.5h3q39 0 47 -39q16 17 33 28t33 11h3q32 0 42 -23.5t5 -65.5l-59 -409h-53l59 408q3 23 -4 34t-18 11h-2q-11 0 -23.5 -13.5t-16.5 -36.5l-57 -403h-53l58 408q3 23 -3.5 34
t-17.5 11h-3z" />
    <glyph glyph-name="n" unicode="n" horiz-adv-x="203" 
d="M135 453q-11 0 -24 -14t-16 -37l-1 -1l-56 -401h-53l69 495h53l-4 -29q14 14 29.5 23t29.5 9h3q32 0 42 -23.5t5 -65.5l-59 -409h-53l59 408q3 23 -4 34t-18 11h-2z" />
    <glyph glyph-name="o" unicode="o" horiz-adv-x="200" 
d="M58 -3q-32 0 -50 23t-12 65l45 324q6 42 31 65.5t57 23.5h15q32 0 51 -23.5t13 -65.5l-46 -324q-6 -42 -31.5 -65t-57.5 -23h-15zM129 453q-11 0 -21.5 -11t-13.5 -34l-46 -322q-3 -23 4 -34t18 -11h5q11 0 21 11t13 34l46 322q3 23 -3 34t-17 11h-6z" />
    <glyph glyph-name="p" unicode="p" horiz-adv-x="202" 
d="M163 498q32 0 43 -23.5t5 -65.5l-46 -324q-6 -42 -23 -65t-49 -23h-3q-14 0 -26 8t-22 22l-27 -192h-52l93 660h43l1 -30q14 15 29.5 24t29.5 9h4zM78 41q11 0 21 11t13 34l46 322q3 23 -3.5 34t-17.5 11h-2q-11 0 -22 -10.5t-16 -30.5l-47 -329q0 -19 7.5 -30.5
t18.5 -11.5h2z" />
    <glyph glyph-name="q" unicode="q" horiz-adv-x="206" 
d="M118 498q14 0 27 -9.5t23 -24.5l10 31h43l-94 -660h-53l27 192q-14 -14 -28.5 -22t-27.5 -8h-3q-31 0 -42 23t-4 65l45 324q6 42 24 65.5t50 23.5h3zM72 41q11 0 23 13.5t15 36.5l45 312q3 23 -5 36.5t-19 13.5h-3q-11 0 -21 -11t-13 -34l-46 -322q-3 -23 3.5 -34
t17.5 -11h3z" />
    <glyph glyph-name="r" unicode="r" horiz-adv-x="201" 
d="M135 453q-11 0 -24 -14t-16 -37l-1 -1l-56 -401h-53l69 495h53l-4 -29q14 14 29.5 23t29.5 9h3q34 0 45 -29q7 -20 2 -60l-17 -118h-53l17 117q3 23 -4 34t-18 11h-2z" />
    <glyph glyph-name="s" unicode="s" horiz-adv-x="203" 
d="M140 300l15 108q3 22 -3.5 33.5t-17.5 11.5h-5q-11 0 -21.5 -11.5t-13.5 -33.5l-8 -55q-3 -22 3 -39t16.5 -32t23 -29.5t23 -30t16 -34.5t2.5 -43l-8 -60q-6 -42 -31.5 -65t-56.5 -23h-15q-32 0 -50.5 23t-12.5 65l15 110h47l-15 -109q-3 -22 4 -33.5t20 -11.5h7
q11 0 21.5 11.5t13.5 33.5l8 56q4 31 -10.5 53t-33 44t-32.5 47.5t-9 62.5l9 60q6 42 31.5 65.5t57.5 23.5h9q32 0 51 -23.5t13 -65.5l-15 -109h-48z" />
    <glyph glyph-name="t" unicode="t" horiz-adv-x="137" 
d="M145 657l-23 -162h42l-7 -45h-42l-52 -365q-3 -24 6.5 -36t29.5 -8l-6 -43q-51 -6 -69.5 19.5t-12.5 67.5l51 365h-25l7 45h25l22 157z" />
    <glyph glyph-name="u" unicode="u" horiz-adv-x="206" 
d="M71 41q11 0 24 14.5t16 37.5l41 27q-4 -24 -17.5 -49t-32.5 -43l9 65l57 402h53l-70 -495h-53l4 28q-14 -14 -29 -22.5t-29 -8.5h-3q-32 0 -42 23t-4 65l57 410h53l-58 -409q-3 -23 4 -34t18 -11h2z" />
    <glyph glyph-name="v" unicode="v" horiz-adv-x="174" 
d="M168 495h44l-125 -495h-65l16 495h49l-15 -382h2z" />
    <glyph glyph-name="w" unicode="w" horiz-adv-x="302" 
d="M17 0l21 495h49l-17 -358h2l97 358h47l-5 -358h1l85 358h45l-121 -495h-59l10 380h-2l-95 -380h-58z" />
    <glyph glyph-name="x" unicode="x" horiz-adv-x="186" 
d="M124 255l35 -255h-52l-21 174l-70 -174h-47l103 250l-32 245h52l18 -162l67 162h48z" />
    <glyph glyph-name="y" unicode="y" horiz-adv-x="177" 
d="M170 495h44l-165 -660h-52l43 165l-1 495h48l-8 -346h2z" />
    <glyph glyph-name="z" unicode="z" horiz-adv-x="171" 
d="M133 0h-164l6 43l169 409h-100l6 43h152l-6 -43l-169 -409h113z" />
    <glyph glyph-name="braceleft" unicode="{" horiz-adv-x="218" 
d="M32 380h11q24 0 37.5 17.5t18.5 47.5l31 217q8 54 36.5 78.5t62.5 24.5h25l-6 -48h-6q-27 0 -39.5 -19.5t-16.5 -45.5l-30 -206q-3 -24 -12.5 -40.5t-22 -27t-27 -15.5t-29.5 -6q14 -1 27.5 -6t23 -16t14 -27.5t1.5 -40.5l-30 -205q-4 -27 3.5 -46t34.5 -19h6l-7 -48h-25
q-17 0 -31.5 6t-24 18.5t-14 32t-0.5 46.5l31 217q5 29 -4.5 47t-33.5 18h-11l4 23z" />
    <glyph glyph-name="bar" unicode="|" horiz-adv-x="103" 
d="M90 729h53l-108 -759h-53z" />
    <glyph glyph-name="braceright" unicode="}" horiz-adv-x="218" 
d="M222 357l-4 -23h-11q-24 0 -37.5 -18t-18.5 -47l-31 -217q-8 -54 -36.5 -78.5t-62.5 -24.5h-25l7 48h6q26 0 38.5 19t16.5 46l30 205q3 24 12 40.5t21.5 27.5t27.5 16t30 6q-15 1 -28 6t-23 15.5t-14 27t-1 40.5l30 206q4 26 -3.5 45.5t-34.5 19.5h-6l7 48h25
q34 0 55.5 -25t14.5 -78l-31 -217q-5 -30 4.5 -47.5t33.5 -17.5h11z" />
    <glyph glyph-name="asciitilde" unicode="~" horiz-adv-x="289" 
d="M20 234q15 26 30.5 38.5t37.5 12.5q13 0 25 -5.5t24 -12t24 -12t25 -5.5q14 0 24 7t23 24l36 -27q-15 -29 -31.5 -40.5t-40.5 -11.5q-13 0 -26 5.5t-25.5 12.5t-24 12.5t-21.5 5.5q-14 0 -24.5 -7t-23.5 -25z" />
    <glyph glyph-name="uni00A0" unicode="&#xa0;" horiz-adv-x="0" 
 />
    <glyph glyph-name="exclamdown" unicode="&#xa1;" horiz-adv-x="118" 
d="M142 612h-58l13 87h58zM92 268l-38 -268h-56l37 268l52 312h42z" />
    <glyph glyph-name="cent" unicode="&#xa2;" horiz-adv-x="199" 
d="M138 291l17 117q3 23 -3.5 34t-17.5 11h-5q-11 0 -22 -11t-14 -34l-46 -322q-3 -23 3.5 -34t16.5 -11h8q11 0 20.5 11t13.5 34l17 120h53l-17 -120q-6 -39 -27.5 -61.5t-49.5 -26.5l-7 -57h-38l7 57q-26 2 -41.5 24.5t-10.5 63.5l45 323q6 39 28.5 62t51.5 26l8 57h38
l-9 -58q26 -5 41 -27t10 -60l-17 -118h-53z" />
    <glyph glyph-name="sterling" unicode="&#xa3;" horiz-adv-x="266" 
d="M30 302h45l45 308q7 50 36.5 72.5t60.5 22.5h16q15 0 29.5 -5.5t25 -17t15.5 -29.5t1 -43l-27 -193h-57l26 185q4 30 -3.5 42.5t-20.5 12.5h-6q-13 0 -24.5 -12.5t-16.5 -42.5l-43 -300h128l-7 -49h-128l-14 -101q-6 -43 -13.5 -67.5t-15.5 -35.5h142l-7 -49h-200l6 48v1
h1q9 11 16.5 34t13.5 68l14 102h-45z" />
    <glyph glyph-name="currency" unicode="&#xa4;" horiz-adv-x="347" 
d="M264 239q-41 -29 -90 -29q-48 0 -83 30l-45 -40l-24 29l45 39q-23 39 -16 88q3 23 13.5 44.5t27.5 39.5l-34 41l33 29l34 -40q20 14 43.5 22t47.5 8q23 0 44 -7.5t37 -21.5l47 40l25 -29l-47 -40q11 -19 16 -41t2 -45q-7 -49 -42 -87l35 -41l-34 -29zM95 356
q-7 -45 18 -73.5t68 -28.5q21 0 40.5 7.5t35 21t26 32.5t13.5 41q5 41 -19.5 70.5t-66.5 29.5q-21 0 -41 -8t-35.5 -21.5t-25.5 -31.5t-13 -39z" />
    <glyph glyph-name="yen" unicode="&#xa5;" horiz-adv-x="216" 
d="M73 190l7 48h-70l5 39h68l-12 422h57l2 -303h2l89 303h57l-134 -422h66l-5 -39h-68l-7 -48h68l-6 -39h-68l-21 -151h-57l21 151h-70l6 39h70z" />
    <glyph glyph-name="brokenbar" unicode="&#xa6;" horiz-adv-x="103" 
d="M28 293h53l-46 -323h-53zM44 408l46 321h53l-62 -436l16 115h-53zM28 293l16 115z" />
    <glyph glyph-name="section" unicode="&#xa7;" horiz-adv-x="199" 
d="M163 469l21 146q4 22 -3.5 33.5t-18.5 11.5h-5q-11 0 -20.5 -11.5t-13.5 -33.5l-13 -93q-5 -32 9.5 -55t33 -45t32.5 -47t9 -61l-10 -75q-6 -42 -31 -64.5t-54 -23.5q10 -13 21 -26t19.5 -27.5t13 -31.5t1.5 -38l-16 -111q-6 -42 -31.5 -65t-56.5 -23h-15q-32 0 -50.5 23
t-12.5 65l22 161h48l-22 -160q-4 -22 3.5 -33.5t19.5 -11.5h7q12 0 22 11.5t13 33.5l15 107q3 20 -3 36.5t-16.5 31.5t-23 29t-23 30.5t-16.5 35.5t-2 44l11 81q5 38 26.5 60.5t49.5 27.5q-10 12 -19.5 24t-16.5 26t-10.5 30.5t-0.5 36.5l15 98q5 42 31 65.5t58 23.5h9
q32 0 50.5 -23.5t13.5 -65.5l-22 -147h-48zM131 240q4 30 6.5 47.5t3 27.5t0.5 14t-1 7q-5 21 -21 21h-5q-11 0 -21 -11.5t-13 -33.5l-11 -76q-2 -12 0.5 -26.5t19.5 -14.5h7q11 0 21 11.5t14 33.5z" />
    <glyph glyph-name="dieresis" unicode="&#xa8;" horiz-adv-x="169" 
d="M122 603h-38l9 67h38zM193 603h-38l9 67h38z" />
    <glyph glyph-name="copyright" unicode="&#xa9;" horiz-adv-x="492" 
d="M33 348q10 72 28.5 136t51 111.5t82.5 75t122 27.5t112.5 -27.5t58 -75t16.5 -111.5t-11 -136q-11 -72 -28 -136t-48 -111.5t-79.5 -75t-120.5 -27.5t-113.5 27.5t-60.5 75t-19.5 111.5t9.5 136zM68 348q-9 -65 -10.5 -121.5t13.5 -99.5t50.5 -67.5t100.5 -24.5
q64 0 105.5 24.5t67.5 67.5t40 99.5t23 121.5q9 64 11.5 121t-11.5 100t-48.5 67.5t-98.5 24.5q-65 0 -107.5 -24.5t-69.5 -67.5t-42 -100t-24 -121zM305 394l10 77q4 23 -2.5 34t-17.5 11h-6q-11 0 -21.5 -11t-13.5 -34l-35 -242q-3 -23 3.5 -34t16.5 -11h8q11 0 21 11
t13 34l11 80h53l-11 -80q-6 -43 -31.5 -66t-57.5 -23h-17q-29 0 -48.5 23t-13.5 66l35 243q6 42 31 65.5t57 23.5h15q32 0 51.5 -23t12.5 -66l-10 -78h-53z" />
    <glyph glyph-name="ordfeminine" unicode="&#xaa;" horiz-adv-x="139" 
d="M74 392q-20 0 -25.5 14.5t-1.5 40.5l8 64q4 26 15 41t31 15h2q8 0 15 -4t14 -10l14 95q2 14 -2.5 21.5t-11.5 7.5h-2q-6 0 -12.5 -7.5t-8.5 -21.5l-10 -73h-34l10 74q4 27 20 41.5t36 14.5h9q20 0 32.5 -15t8.5 -42l-36 -254h-35l1 11q-20 -13 -35 -13h-2zM110 542
q-7 0 -12.5 -8t-7.5 -22l-10 -66q-2 -14 2.5 -21.5t10.5 -7.5q8 0 15.5 7.5t9.5 21.5l11 77v6l3 24q11 -9 17.5 -22t4.5 -27l-7 -50q-2 -14 -12 -26.5t-24 -22.5l5 33l13 91q-3 13 -16 13h-3z" />
    <glyph glyph-name="guillemotleft" unicode="&#xab;" horiz-adv-x="223" 
d="M67 44l-47 200l46 201h50l-46 -202l48 -199h-51zM152 44l-47 200l46 201h50l-46 -202l48 -199h-51z" />
    <glyph glyph-name="logicalnot" unicode="&#xac;" horiz-adv-x="306" 
d="M286 230h-42l14 100h-224l6 39h266z" />
    <glyph glyph-name="registered" unicode="&#xae;" horiz-adv-x="316" 
d="M60 526q5 37 18 69.5t33.5 57t49 38.5t65.5 14t61 -14t36.5 -38.5t15 -57t-2.5 -69.5t-17 -69.5t-32 -57t-48 -38.5t-65 -14t-61 14t-37.5 38.5t-17 57t1.5 69.5zM86 526q-5 -32 -3.5 -61t12 -50.5t31 -34t52.5 -12.5q33 0 56 12.5t38.5 34t24.5 50.5t14 61
q4 32 3.5 60.5t-10 50t-29 34t-52.5 12.5q-32 0 -56 -12.5t-40.5 -34t-26.5 -50t-14 -60.5zM249 555q-4 -27 -21 -35q15 -5 12 -33l-8 -56h-26l6 49q4 26 -11 26h-17l-11 -75h-27l28 196h50q36 0 28 -52zM205 533q15 0 19 27l2 12q3 29 -13 29h-16l-9 -68h17z" />
    <glyph glyph-name="macron" unicode="&#xaf;" horiz-adv-x="190" 
d="M202 617h-127l6 39h126z" />
    <glyph glyph-name="degree" unicode="&#xb0;" horiz-adv-x="124" 
d="M113 608q-18 0 -29.5 13.5t-8.5 31.5q2 19 17 32.5t34 13.5t30.5 -13.5t8.5 -32.5q-3 -18 -18 -31.5t-34 -13.5zM125 685q-14 0 -24.5 -9t-12.5 -23q-2 -13 5.5 -22t21.5 -9q13 0 24 9t13 22q2 14 -6 23t-21 9z" />
    <glyph glyph-name="plusminus" unicode="&#xb1;" horiz-adv-x="286" 
d="M151 444l19 129h44l-19 -129h101l-5 -39h-101l-18 -128h-44l18 128h-101l5 39h101zM213 73h-186l5 39h186z" />
    <glyph glyph-name="twosuperior" unicode="&#xb2;" horiz-adv-x="117" 
d="M65 575l13 88q3 22 15.5 32t26.5 10h7q13 0 24 -10t8 -32l-8 -52q-3 -21 -14 -39t-24 -39t-25.5 -49t-18.5 -70h54l-2 -22h-82l3 21q6 45 19 74.5t26 51t24 38.5t14 38l6 44q2 14 -2 19t-9 5h-2q-5 0 -10 -5t-7 -19l-12 -84h-24z" />
    <glyph glyph-name="threesuperior" unicode="&#xb3;" horiz-adv-x="116" 
d="M94 562h9q15 0 20 26l10 71q2 14 -2 18.5t-9 4.5h-2q-6 0 -10.5 -4.5t-6.5 -17.5l-12 -82h-26l13 85q3 22 15.5 32t26.5 10h7q14 0 25 -10t8 -32l-10 -72q-2 -18 -12 -27t-21 -11q11 -2 17.5 -10.5t4.5 -26.5l-12 -83q-3 -22 -16.5 -31.5t-27.5 -9.5h-7q-14 0 -24 9.5
t-7 31.5l12 86h26l-12 -82q-2 -14 1.5 -18.5t9.5 -4.5h2q5 0 10 4.5t7 18.5l12 80q3 26 -12 26h-10l1 11z" />
    <glyph glyph-name="acute" unicode="&#xb4;" horiz-adv-x="152" 
d="M24 591l53 86h51l-69 -86h-35z" />
    <glyph glyph-name="mu" unicode="&#xb5;" horiz-adv-x="202" 
d="M153 0h-53l4 27q-14 -14 -28.5 -22t-28.5 -8h-3h-7l-23 -162h-52l33 233l2 17l51 359l7 51h53l-8 -51h1l-25 -170l-26 -188q-4 -23 3 -34t18 -11h2q10 0 22 12t17 32l59 410h53z" />
    <glyph glyph-name="paragraph" unicode="&#xb6;" horiz-adv-x="300" 
d="M295 656h-66l-117 -821h-43l123 864h152l-123 -864h-43zM60 549q4 27 15 54t28 48t39.5 34.5t49.5 13.5l-43 -300q-27 0 -45.5 13.5t-29.5 34.5t-14.5 48t0.5 54z" />
    <glyph glyph-name="periodcentered" unicode="&#xb7;" horiz-adv-x="118" 
d="M81 204h-58l13 86h58z" />
    <glyph glyph-name="cedilla" unicode="&#xb8;" horiz-adv-x="179" 
d="M30 -91l6 26q9 -7 22.5 -10t25 -1.5t19.5 7.5t7 18q-1 14 -15 18t-25 -4l-12 4l16 33h32l-8 -21q17 8 34 -0.5t17 -28.5q0 -24 -14.5 -37t-34.5 -17t-40 0t-30 13z" />
    <glyph glyph-name="onesuperior" unicode="&#xb9;" horiz-adv-x="89" 
d="M64 392l38 268q-5 -2 -13.5 -4.5t-13.5 -2.5l3 21q10 0 20.5 7.5t13.5 17.5h23l-44 -307h-27z" />
    <glyph glyph-name="ordmasculine" unicode="&#xba;" horiz-adv-x="117" 
d="M76 392q-14 0 -24.5 9.5t-6.5 32.5l32 229q3 22 16 32t27 10h7q14 0 24.5 -10t7.5 -32l-33 -229q-3 -23 -16 -32.5t-27 -9.5h-7zM120 682q-14 0 -17 -23l-32 -222q-3 -23 10 -23h2q14 0 17 23l31 222q4 23 -9 23h-2z" />
    <glyph glyph-name="guillemotright" unicode="&#xbb;" horiz-adv-x="223" 
d="M50 44l48 199l-45 202h50l46 -201l-48 -200h-51zM135 44l48 199l-45 202h50l46 -201l-48 -200h-51z" />
    <glyph glyph-name="onequarter" unicode="&#xbc;" horiz-adv-x="271" 
d="M287 699h28l-296 -699h-27zM205 68l-3 -22h-14l-6 -46h-23l6 46h-58l2 22l83 237h32l-33 -237h14zM84 392l38 268q-5 -2 -13.5 -4.5t-13.5 -2.5l3 21q10 0 20.5 7.5t13.5 17.5h23l-44 -307h-27zM192 234h-1l-56 -165l-1 -1h34z" />
    <glyph glyph-name="onehalf" unicode="&#xbd;" horiz-adv-x="277" 
d="M288 699h28l-296 -699h-27zM85 392l38 268q-5 -2 -13.5 -4.5t-13.5 -2.5l3 21q10 0 20.5 7.5t13.5 17.5h23l-45 -307h-26zM162 183l12 88q3 22 16 32t27 10h7q14 0 24 -10t7 -32l-7 -52q-3 -21 -14 -39t-24 -39t-25.5 -49t-18.5 -70h55l-4 -22h-81l3 21q6 45 18.5 74.5
t26 51t24.5 38.5t14 38l6 44q2 14 -2 19t-9 5h-2q-5 0 -10 -5t-7 -19l-12 -84h-24z" />
    <glyph glyph-name="threequarters" unicode="&#xbe;" horiz-adv-x="276" 
d="M286 699h28l-295 -699h-27zM242 195q-2 -19 -12 -28t-21 -11q11 -2 18 -10.5t4 -25.5l-12 -85q-3 -22 -16.5 -31.5t-27.5 -9.5h-7q-14 0 -24 9.5t-7 31.5l12 87h26l-12 -83q-2 -14 2 -18.5t9 -4.5h2q6 0 11 4.5t7 18.5l11 82q2 13 -1.5 19.5t-10.5 6.5h-10l1 8l2 11h9
q17 0 21 26l10 72q2 14 -2 18.5t-9 4.5h-2q-6 0 -10.5 -4.5t-6.5 -17.5l-12 -84h-26l12 87q4 22 16.5 32t26.5 10h7q14 0 25 -10t8 -32zM84 392l38 268q-5 -2 -13.5 -4.5t-14.5 -2.5l4 21q10 0 20 7.5t13 17.5h23l-43 -307h-27z" />
    <glyph glyph-name="questiondown" unicode="&#xbf;" horiz-adv-x="215" 
d="M182 116l-27 -193q-8 -51 -37 -72.5t-60 -21.5h-11q-15 0 -29.5 5.5t-25 16.5t-15 29t-1.5 43l16 112q7 50 28 87t44 76.5t40.5 89.5t17.5 127h57q-1 -57 -9.5 -98.5t-21.5 -74t-28.5 -58t-30 -49.5t-26 -50t-16.5 -59l-13 -94q-4 -31 3 -43t20 -12h7q13 0 24.5 12.5
t15.5 41.5l26 185h52zM138 534h58l-12 -87h-58z" />
    <glyph glyph-name="Agrave" unicode="&#xc0;" horiz-adv-x="213" 
d="M169 0l31 699h-73l-165 -699h50l46 194h65l-9 -194h55zM139 538h2l-16 -301h-57zM153 738l-45 86h51l29 -86h-35z" />
    <glyph glyph-name="Aacute" unicode="&#xc1;" horiz-adv-x="213" 
d="M114 0l9 194h-65l-46 -194h-50l165 699h73l-31 -699h-55zM68 237h57l16 301h-2zM151 738l55 86h50l-69 -86h-36z" />
    <glyph glyph-name="Acircumflex" unicode="&#xc2;" horiz-adv-x="213" 
d="M114 0l9 194h-65l-46 -194h-50l165 699h73l-31 -699h-55zM68 237h57l16 301h-2zM209 824l44 -86h-50l-24 59l-41 -59h-51l70 86h52z" />
    <glyph glyph-name="Atilde" unicode="&#xc3;" horiz-adv-x="213" 
d="M170 0l31 699h-73l-164 -699h49l45 194h66l-9 -194h55zM139 538h2l-15 -301h-58zM98 779q21 30 47 30q16 0 30.5 -10t31.5 -10q14 0 28 14l24 -17q-12 -17 -24.5 -23.5t-25.5 -6.5q-17 0 -31 10t-28 10q-8 0 -15.5 -3t-15.5 -11z" />
    <glyph glyph-name="Adieresis" unicode="&#xc4;" horiz-adv-x="213" 
d="M170 0l31 699h-73l-165 -699h49l46 194h66l-9 -194h55zM139 538h2l-15 -301h-58zM156 750h-38l9 66h38zM227 750h-38l9 66h38z" />
    <glyph glyph-name="Aring" unicode="&#xc5;" horiz-adv-x="213" 
d="M168 0l30 699h-73l-164 -699h49l46 194h66l-9 -194h55zM167 731q-23 0 -38.5 17.5t-12.5 40.5q4 25 24 43.5t43 18.5q25 0 41 -18t12 -44q-3 -23 -23 -40.5t-46 -17.5zM137 538h2l-15 -301h-58zM180 821q-11 0 -21.5 -9.5t-12.5 -21.5q-2 -11 6 -20.5t19 -9.5
q13 0 23.5 9.5t12.5 20.5q2 12 -6.5 21.5t-20.5 9.5z" />
    <glyph glyph-name="AE" unicode="&#xc6;" horiz-adv-x="301" 
d="M238 651l-40 -280h71l-7 -43h-70l-40 -280h96l-7 -48h-153l28 194h-70l-43 -194h-50l165 699h218l-7 -48h-91zM56 237h66l59 414h-32z" />
    <glyph glyph-name="Ccedilla" unicode="&#xc7;" 
d="M0 -97l9 26q9 -7 21.5 -10t24.5 -1.5t21 7.5t10 18q0 14 -13 18t-26 -4l-11 4l20 33h2q-29 2 -49.5 24t-14.5 70l73 522q8 51 37.5 73t60.5 22h16q15 0 29.5 -5.5t25 -17t15.5 -29.5t1 -43l-28 -193h-57l27 185q4 30 -3.5 42.5t-20.5 12.5h-7q-13 0 -24 -12.5t-15 -42.5
l-72 -505q-5 -30 2.5 -42.5t20.5 -12.5h7q13 0 24 12.5t16 42.5l26 186h57l-27 -195q-4 -24 -13 -41.5t-22 -28.5t-27.5 -17t-29.5 -7h2l-10 -21q18 8 33.5 -0.5t12.5 -28.5q-3 -24 -19.5 -37t-37 -17t-39.5 0t-28 13z" />
    <glyph glyph-name="Egrave" unicode="&#xc8;" horiz-adv-x="182" 
d="M225 651l7 48h-148l-99 -699h152l7 48h-95l39 280h71l6 43h-70l39 280h91zM149 738l-45 86h51l29 -86h-35z" />
    <glyph glyph-name="Eacute" unicode="&#xc9;" horiz-adv-x="182" 
d="M134 651l-39 -280h70l-6 -43h-71l-39 -280h95l-7 -48h-152l99 699h148l-7 -48h-91zM147 738l55 86h50l-69 -86h-36z" />
    <glyph glyph-name="Ecircumflex" unicode="&#xca;" horiz-adv-x="182" 
d="M134 651l-39 -280h70l-6 -43h-71l-39 -280h95l-7 -48h-152l99 699h148l-7 -48h-91zM205 824l44 -86h-50l-24 59l-41 -59h-51l70 86h52z" />
    <glyph glyph-name="Edieresis" unicode="&#xcb;" horiz-adv-x="182" 
d="M226 651l7 48h-148l-99 -699h152l7 48h-95l39 280h71l5 43h-70l40 280h91zM151 750h-37l9 66h38zM222 750h-38l10 66h38z" />
    <glyph glyph-name="Igrave" unicode="&#xcc;" horiz-adv-x="97" 
d="M84 699l-99 -699h57l99 699h-57zM102 744l-44 86h50l30 -86h-36z" />
    <glyph glyph-name="Iacute" unicode="&#xcd;" horiz-adv-x="97" 
d="M142 699l-100 -699h-56l99 699h57zM101 744l55 86h50l-69 -86h-36z" />
    <glyph glyph-name="Icircumflex" unicode="&#xce;" horiz-adv-x="97" 
d="M141 699l-99 -699h-57l99 699h57zM158 830l45 -86h-51l-24 59l-41 -59h-50l69 86h52z" />
    <glyph glyph-name="Idieresis" unicode="&#xcf;" horiz-adv-x="97" 
d="M85 699l-99 -699h57l99 699h-57zM105 756h-38l9 67h38zM176 756h-38l9 67h38z" />
    <glyph glyph-name="Eth" unicode="&#xd0;" horiz-adv-x="222" 
d="M-14 0l46 330h-24l5 40h25l47 329h100q15 0 29.5 -5t25 -16t15.5 -28.5t1 -42.5l-73 -516q-4 -25 -14 -42.5t-23.5 -28t-29.5 -15.5t-31 -5h-99zM135 651l-40 -281h25l-5 -40h-25l-40 -282h38q13 0 23.5 11t15.5 41l71 499q5 29 -3 40.5t-21 11.5h-39z" />
    <glyph glyph-name="Ntilde" unicode="&#xd1;" horiz-adv-x="244" 
d="M130 0l-24 526h-1l-74 -526h-47l98 699h65l20 -520l75 520h52l-100 -699h-64zM120 779q23 30 48 30q16 0 30.5 -10t31.5 -10q14 0 28 14l24 -17q-12 -17 -24.5 -23.5t-25.5 -6.5q-17 0 -31 10t-28 10q-8 0 -15.5 -3t-15.5 -11z" />
    <glyph glyph-name="Ograve" unicode="&#xd2;" 
d="M65 -6q-15 0 -29 5.5t-24.5 16.5t-15.5 29t-2 43l74 522q7 50 36.5 72.5t60.5 22.5h16q15 0 29.5 -5.5t25 -17t15.5 -29.5t1 -43l-74 -522q-8 -50 -37.5 -72t-60.5 -22h-15zM164 657q-13 0 -24.5 -13t-15.5 -42l-72 -505q-4 -30 3.5 -42.5t19.5 -12.5h7q13 0 24.5 12.5
t15.5 42.5l72 505q4 29 -3.5 42t-20.5 13h-6zM161 738l-45 86h51l30 -86h-36z" />
    <glyph glyph-name="Oacute" unicode="&#xd3;" 
d="M65 -6q-15 0 -29 5.5t-24.5 16.5t-15.5 29t-2 43l74 522q7 50 36.5 72.5t60.5 22.5h16q15 0 29.5 -5.5t25 -17t15.5 -29.5t1 -43l-74 -522q-8 -50 -37.5 -72t-60.5 -22h-15zM164 657q-13 0 -24.5 -13t-15.5 -42l-72 -505q-4 -30 3.5 -42.5t19.5 -12.5h7q13 0 24.5 12.5
t15.5 42.5l72 505q4 29 -3.5 42t-20.5 13h-6zM160 738l54 86h50l-69 -86h-35z" />
    <glyph glyph-name="Ocircumflex" unicode="&#xd4;" 
d="M64 -6q-15 0 -29 5.5t-24.5 16.5t-15.5 29t-1 43l73 522q8 51 37.5 73t60.5 22h16q15 0 29.5 -5.5t25 -17t15 -29.5t1.5 -43l-75 -522q-7 -50 -36.5 -72t-60.5 -22h-16zM163 657q-13 0 -24 -13t-16 -42l-71 -505q-5 -30 2.5 -42.5t20.5 -12.5h7q13 0 24 12.5t16 42.5
l72 505q4 29 -3.5 42t-20.5 13h-7zM216 824l45 -86h-50l-24 59l-41 -59h-51l69 86h52z" />
    <glyph glyph-name="Otilde" unicode="&#xd5;" 
d="M56 -6q-15 0 -29 5.5t-24.5 16.5t-15.5 29t-1 43l73 522q7 50 37 72.5t61 22.5h15q15 0 29.5 -5.5t25 -17t15.5 -29.5t1 -43l-74 -522q-8 -50 -37.5 -72t-60.5 -22h-15zM155 657q-13 0 -24.5 -13t-15.5 -42l-72 -505q-4 -30 3.5 -42.5t20.5 -12.5h6q13 0 24.5 12.5
t15.5 42.5l73 505q3 29 -4.5 42t-20.5 13h-6zM96 779q11 16 23 23t24 7q16 0 30.5 -10t31.5 -10q14 0 29 14l23 -17q-12 -17 -24 -23.5t-25 -6.5q-17 0 -31 10t-28 10q-8 0 -16 -3t-16 -11z" />
    <glyph glyph-name="Odieresis" unicode="&#xd6;" 
d="M64 -6q-15 0 -29 5.5t-24 16.5t-15 29t-1 43l73 522q8 51 37.5 73t60.5 22h15q15 0 29.5 -5.5t25 -17t15.5 -29.5t1 -43l-74 -522q-8 -50 -37.5 -72t-60.5 -22h-16zM163 657q-13 0 -24 -13t-15 -42l-72 -505q-5 -30 3 -42.5t21 -12.5h6q13 0 24 12.5t16 42.5l73 505
q4 29 -4 42t-21 13h-7zM163 750h-38l10 66h38zM234 750h-38l10 66h38z" />
    <glyph glyph-name="multiply" unicode="&#xd7;" horiz-adv-x="246" 
d="M106 349l-76 90l35 31l77 -89l101 89l27 -31l-102 -89l77 -89l-36 -31l-76 88l-101 -88l-26 31z" />
    <glyph glyph-name="Oslash" unicode="&#xd8;" horiz-adv-x="287" 
d="M68 -6q-20 0 -37.5 8.5t-26.5 28.5l-18 -41h-32l45 101l73 519q8 51 37.5 73t60.5 22h16q20 0 37.5 -9.5t26.5 -29.5l19 43h33l-47 -107l-73 -514q-8 -50 -37.5 -72t-60.5 -22h-16zM167 657q-13 0 -24 -13t-15 -42l-46 -319l104 237l12 82q5 29 -3 42t-21 13h-7zM80 42h7
q13 0 23.5 12.5t15.5 42.5l44 313l-103 -236l-11 -77q-5 -30 3 -42.5t21 -12.5z" />
    <glyph glyph-name="Ugrave" unicode="&#xd9;" horiz-adv-x="222" 
d="M68 -6q-15 0 -29 5.5t-24.5 16.5t-15.5 29t-2 43l86 611h57l-85 -602q-4 -30 3.5 -42.5t19.5 -12.5h7q13 0 24.5 12.5t15.5 42.5l86 602h57l-87 -611q-8 -51 -37 -72.5t-61 -21.5h-15zM164 738l-45 86h50l31 -86h-36z" />
    <glyph glyph-name="Uacute" unicode="&#xda;" horiz-adv-x="222" 
d="M67 -6q-15 0 -29 5.5t-24.5 16.5t-15.5 29t-1 43l86 611h57l-86 -602q-4 -30 3.5 -42.5t20.5 -12.5h6q13 0 24.5 12.5t16.5 42.5l85 602h57l-87 -611q-7 -50 -36.5 -72t-60.5 -22h-16zM162 738l54 86h51l-69 -86h-36z" />
    <glyph glyph-name="Ucircumflex" unicode="&#xdb;" horiz-adv-x="222" 
d="M67 -6q-15 0 -29 5.5t-24.5 16.5t-15.5 29t-1 43l86 611h57l-86 -602q-4 -30 3.5 -42.5t20.5 -12.5h6q13 0 24.5 12.5t16.5 42.5l85 602h57l-87 -611q-7 -50 -36.5 -72t-60.5 -22h-16zM219 824l45 -86h-50l-24 59l-41 -59h-51l69 86h52z" />
    <glyph glyph-name="Udieresis" unicode="&#xdc;" horiz-adv-x="222" 
d="M67 -6q-15 0 -29 5.5t-24.5 16.5t-15.5 29t-1 43l86 611h57l-86 -602q-4 -30 4 -42.5t20 -12.5h7q13 0 24 12.5t16 42.5l85 602h57l-86 -611q-4 -25 -14 -43t-23.5 -29t-29.5 -16.5t-32 -5.5h-15zM166 750h-38l10 66h38zM237 750h-38l10 66h38z" />
    <glyph glyph-name="Yacute" unicode="&#xdd;" horiz-adv-x="213" 
d="M131 266l-39 -266h-57l38 266l-13 433h57l2 -303h2l89 303h57zM151 738l54 86h51l-70 -86h-35z" />
    <glyph glyph-name="Thorn" unicode="&#xde;" horiz-adv-x="211" 
d="M142 699l-15 -101h40q32 0 51 -23t13 -65l-46 -324q-6 -42 -31.5 -65.5t-57.5 -23.5h-40l-14 -97h-56l99 699h57zM121 554l-20 -138l-38 -274h34q11 0 21 11t13 34l46 322q3 23 -3.5 34t-17.5 11h-35z" />
    <glyph glyph-name="germandbls" unicode="&#xdf;" horiz-adv-x="237" 
d="M249 446q-6 -42 -27.5 -61.5t-47.5 -25.5q24 -5 40 -23t10 -59l-26 -183q-7 -50 -36.5 -72t-60.5 -22h-34l6 48h25q13 0 26.5 12t18.5 43l24 175q5 30 -3 45t-25 15h-25l3 19l4 23h24q17 0 29 15t17 45l23 162q4 30 -6 42.5t-23 12.5h-12q-13 0 -26.5 -12.5t-18.5 -42.5
l-85 -602h-56l86 610q3 25 14 43t25 29.5t31 17t32 5.5h21q15 0 30.5 -5.5t26.5 -17t17 -29.5t2 -43l-23 -164v0z" />
    <glyph glyph-name="agrave" unicode="&#xe0;" horiz-adv-x="199" 
d="M38 -3q-32 0 -40 23t-3 65l15 103q6 42 22.5 65.5t48.5 23.5h3q26 0 49 -23l22 154q3 23 -4 34t-18 11h-5q-11 0 -21 -11t-13 -34l-17 -117h-53l17 118q6 43 31 66t57 23h15q32 0 51 -23.5t13 -65.5l-58 -409h-53l3 20q-15 -11 -30.5 -17t-28.5 -6h-3zM97 237
q-11 0 -21 -11t-13 -34l-16 -111q-3 -23 3.5 -34t17.5 -11h3q11 0 21.5 9.5t15.5 29.5l19 138q0 14 -8 19t-16 5h-6zM125 535l-44 86h50l30 -86h-36z" />
    <glyph glyph-name="aacute" unicode="&#xe1;" horiz-adv-x="209" 
d="M38 -3q-32 0 -40 23t-3 65l15 103q6 42 22.5 65.5t48.5 23.5h3q26 0 49 -23l22 154q3 23 -4 34t-18 11h-5q-11 0 -21 -11t-13 -34l-17 -117h-53l17 118q6 43 31 66t57 23h15q32 0 51 -23.5t13 -65.5l-58 -409h-53l3 20q-15 -11 -30.5 -17t-28.5 -6h-3zM97 237
q-11 0 -21 -11t-13 -34l-16 -111q-3 -23 3.5 -34t17.5 -11h3q11 0 21.5 9.5t15.5 29.5l19 138q0 14 -8 19t-16 5h-6zM124 535l54 86h51l-70 -86h-35z" />
    <glyph glyph-name="acircumflex" unicode="&#xe2;" horiz-adv-x="206" 
d="M38 -3q-32 0 -40 23t-3 65l15 103q6 42 22.5 65.5t48.5 23.5h3q26 0 49 -23l22 154q3 23 -4 34t-18 11h-5q-11 0 -21 -11t-13 -34l-17 -117h-53l17 118q6 43 31 66t57 23h15q32 0 51 -23.5t13 -65.5l-58 -409h-53l3 20q-15 -11 -30.5 -17t-28.5 -6h-3zM97 237
q-11 0 -21 -11t-13 -34l-16 -111q-3 -23 3.5 -34t17.5 -11h3q11 0 21.5 9.5t15.5 29.5l19 138q0 14 -8 19t-16 5h-6zM181 621l45 -86h-51l-24 59l-41 -59h-50l69 86h52z" />
    <glyph glyph-name="atilde" unicode="&#xe3;" horiz-adv-x="211" 
d="M38 -3q-32 0 -40 23t-3 65l15 103q6 42 22.5 65.5t48.5 23.5h3q26 0 49 -23l22 154q4 23 -3.5 34t-18.5 11h-5q-11 0 -21 -11t-13 -34l-17 -117h-53l17 118q6 43 31.5 66t57.5 23h15q32 0 50.5 -23.5t12.5 -65.5l-58 -409h-53l3 20q-15 -11 -30.5 -17t-28.5 -6h-3z
M97 237q-11 0 -20.5 -11t-13.5 -34l-16 -111q-3 -23 3.5 -34t17.5 -11h3q11 0 21.5 9.5t15.5 29.5l19 138q0 14 -8 19t-16 5h-6zM69 576q11 16 23.5 23t24.5 7q16 0 30.5 -10t31.5 -10q14 0 28 14l24 -17q-13 -17 -25 -23.5t-25 -6.5q-17 0 -31 10t-28 10q-8 0 -15.5 -3
t-15.5 -11z" />
    <glyph glyph-name="adieresis" unicode="&#xe4;" horiz-adv-x="203" 
d="M39 -3q-31 0 -39.5 23t-2.5 65l14 103q6 42 23 65.5t49 23.5h3q13 0 25 -6t23 -16l22 153q4 23 -3.5 34t-18.5 11h-5q-11 0 -21 -11t-13 -34l-17 -117h-53l17 118q6 43 31.5 66t57.5 23h15q32 0 51 -23.5t13 -65.5l-59 -409h-53l3 20q-15 -11 -30 -17t-28 -6h-4zM98 237
q-11 0 -20.5 -11t-13.5 -34l-15 -111q-4 -23 3 -34t18 -11h2q11 0 21.5 9.5t15.5 30.5l19 137q0 14 -8 19t-16 5h-6zM200 547h-38l10 66h38zM129 547h-38l10 66h38z" />
    <glyph glyph-name="aring" unicode="&#xe5;" horiz-adv-x="204" 
d="M38 -3q-32 0 -40 23t-2 65l14 103q6 42 23 65.5t49 23.5h3q13 0 25 -6t23 -16l22 153q4 23 -3.5 34t-18.5 11h-5q-11 0 -21 -11t-13 -34l-17 -117h-53l17 118q6 43 31.5 66t57.5 23h15q32 0 50.5 -23.5t13.5 -65.5l-59 -409h-53l3 20q-15 -11 -30.5 -17t-28.5 -6h-3z
M97 237q-11 0 -20.5 -11t-13.5 -34l-16 -111q-3 -23 3.5 -34t17.5 -11h3q11 0 21.5 9.5t15.5 29.5l19 138q0 14 -8 19t-16 5h-6zM142 528q-23 0 -38.5 17.5t-12.5 40.5q4 25 24 43.5t44 18.5q25 0 40.5 -18t11.5 -44q-3 -23 -23 -40.5t-46 -17.5zM155 618q-11 0 -22 -9.5
t-13 -21.5q-2 -11 6.5 -20.5t19.5 -9.5q12 0 22.5 9.5t12.5 20.5q2 12 -6 21.5t-20 9.5z" />
    <glyph glyph-name="ae" unicode="&#xe6;" horiz-adv-x="314" 
d="M39 -3q-32 0 -40.5 23t-2.5 65l14 103q6 42 23 65.5t49 23.5h3q13 0 25.5 -6t23.5 -16l22 154q0 3 1 5q2 20 -5 29.5t-18 9.5h-5q-11 0 -21.5 -11t-13.5 -34l-17 -117h-53l17 118q7 43 32 66t57 23h15q28 0 47 -19q24 19 52 19h15q32 0 51.5 -23t12.5 -66l-24 -173h-115
l-13 -95l-8 -55q-4 -23 3 -34t16 -11h8q11 0 21 11t13 34l17 120h53l-17 -120q-6 -43 -31.5 -66t-57.5 -23h-17q-40 0 -56 36q-17 -16 -36.5 -26t-36.5 -10h-3zM97 237q-11 0 -20.5 -11t-13.5 -34l-15 -111q-3 -23 3.5 -34t17.5 -11h2q11 0 23 11t15 34l18 127q3 17 -6 23
t-18 6h-6zM251 273l19 135q3 23 -3 34t-17 11h-6q-11 0 -21.5 -11t-13.5 -34l-19 -135h61z" />
    <glyph glyph-name="ccedilla" unicode="&#xe7;" horiz-adv-x="199" 
d="M-7 -94l10 26q8 -7 20.5 -10t24.5 -1.5t21 7.5t10 18q1 14 -13 18t-26 -4l-11 4l20 33q-27 2 -43 25t-11 64l46 323q6 42 31.5 65.5t57.5 23.5h15q32 0 51 -23t13 -66l-17 -118h-53l17 117q3 23 -3.5 34t-17.5 11h-6q-11 0 -21 -11t-14 -34l-46 -322q-4 -23 3 -34t17 -11
h8q11 0 20.5 11t12.5 34l18 120h53l-18 -120q-5 -40 -28 -63t-52 -25l-12 -22q19 8 34.5 -0.5t13.5 -28.5q-4 -24 -20.5 -37t-37 -17t-39.5 0t-28 13z" />
    <glyph glyph-name="egrave" unicode="&#xe8;" horiz-adv-x="199" 
d="M68 41h8q11 0 20.5 11t12.5 34l17 120h53l-17 -120q-6 -43 -31.5 -66t-57.5 -23h-18q-29 0 -47 23t-13 66l46 323q6 42 31 65.5t57 23.5h15q32 0 51 -23t13 -66l-24 -173h-115l-21 -150q-3 -23 3.5 -34t16.5 -11zM136 273l19 135q3 23 -3.5 34t-17.5 11h-5
q-11 0 -21.5 -11t-13.5 -34l-19 -135h61zM124 535l-44 86h50l30 -86h-36z" />
    <glyph glyph-name="eacute" unicode="&#xe9;" horiz-adv-x="198" 
d="M68 41h8q11 0 20.5 11t12.5 34l17 120h53l-17 -120q-6 -43 -31.5 -66t-57.5 -23h-18q-29 0 -47 23t-13 66l46 323q6 42 31 65.5t57 23.5h15q32 0 51 -23t13 -66l-24 -173h-115l-21 -150q-3 -23 3.5 -34t16.5 -11zM136 273l19 135q3 23 -3.5 34t-17.5 11h-5
q-11 0 -21.5 -11t-13.5 -34l-19 -135h61zM123 535l54 86h51l-70 -86h-35z" />
    <glyph glyph-name="ecircumflex" unicode="&#xea;" horiz-adv-x="199" 
d="M67 41h8q11 0 20.5 11t13.5 34l17 120h53l-17 -120q-6 -43 -32 -66t-58 -23h-17q-29 0 -47.5 23t-12.5 66l45 323q6 42 31.5 65.5t57.5 23.5h15q32 0 51 -23t13 -66l-25 -173h-114l-21 -150q-4 -23 3 -34t16 -11zM136 273l19 135q3 23 -3.5 34t-17.5 11h-6
q-11 0 -21.5 -11t-13.5 -34l-19 -135h62zM180 621l44 -86h-50l-24 59l-41 -59h-51l70 86h52z" />
    <glyph glyph-name="edieresis" unicode="&#xeb;" horiz-adv-x="199" 
d="M68 41h8q11 0 20.5 11t12.5 34l18 120h53l-18 -120q-6 -43 -31.5 -66t-57.5 -23h-18q-29 0 -47.5 23t-11.5 66l45 323q6 42 31 65.5t57 23.5h15q32 0 51 -23t13 -66l-24 -173h-115l-21 -150q-3 -23 3.5 -34t16.5 -11zM136 273l19 135q3 23 -3.5 34t-17.5 11h-5
q-11 0 -21.5 -11t-14.5 -34l-19 -135h62zM127 547h-38l10 66h38zM198 547h-38l10 66h38z" />
    <glyph glyph-name="igrave" unicode="&#xec;" horiz-adv-x="90" 
d="M56 495l-70 -495h52l71 495h-53zM71 534l-45 86h51l29 -86h-35z" />
    <glyph glyph-name="iacute" unicode="&#xed;" horiz-adv-x="90" 
d="M109 495l-71 -495h-52l70 495h53zM69 534l55 86h50l-69 -86h-36z" />
    <glyph glyph-name="icircumflex" unicode="&#xee;" horiz-adv-x="90" 
d="M109 495l-71 -495h-52l70 495h53zM127 620l44 -86h-50l-24 59l-41 -59h-50l69 86h52z" />
    <glyph glyph-name="idieresis" unicode="&#xef;" horiz-adv-x="90" 
d="M56 495l-70 -495h53l70 495h-53zM73 546h-38l10 66h38zM144 546h-38l10 66h38z" />
    <glyph glyph-name="eth" unicode="&#xf0;" horiz-adv-x="226" 
d="M150 0h-43l-1 30q-14 -15 -29.5 -24t-29.5 -9h-4q-31 0 -42 23t-5 65l45 324q6 42 23 65.5t49 23.5h3q13 0 25.5 -8t22.5 -22l18 127h-36l6 39h35l10 65h53l-10 -65h42l-6 -39h-41zM129 453q-11 0 -21.5 -11t-13.5 -34l-46 -322q-3 -23 3.5 -34t17.5 -11h3
q11 0 22.5 13.5t15.5 36.5l32 227l13 91q2 20 -5.5 32t-18.5 12h-2z" />
    <glyph glyph-name="ntilde" unicode="&#xf1;" horiz-adv-x="203" 
d="M138 453q11 0 17.5 -11t2.5 -34l-58 -408h53l58 409q7 42 -4 65.5t-43 23.5h-3q-14 0 -28.5 -8t-28.5 -22l4 27h-53l-70 -495h53l58 412v1q6 18 17.5 29t21.5 11h3zM95 576q21 30 48 30q17 0 30.5 -10t30.5 -10q14 0 29 14l23 -17q-12 -17 -24 -23.5t-25 -6.5
q-18 0 -31.5 10t-27.5 10q-8 0 -16 -3t-16 -11z" />
    <glyph glyph-name="ograve" unicode="&#xf2;" horiz-adv-x="199" 
d="M58 -3q-32 0 -50 23t-13 65l46 324q6 42 31 65.5t57 23.5h15q32 0 51 -23.5t13 -65.5l-46 -324q-6 -42 -31.5 -65t-57.5 -23h-15zM129 453q-11 0 -21.5 -11t-13.5 -34l-46 -322q-3 -23 4 -34t18 -11h6q11 0 20.5 11t12.5 34l46 322q3 23 -3.5 34t-17.5 11h-5zM125 535
l-44 86h50l30 -86h-36z" />
    <glyph glyph-name="oacute" unicode="&#xf3;" horiz-adv-x="198" 
d="M58 -3q-32 0 -50 23t-13 65l46 324q6 42 31 65.5t57 23.5h15q32 0 51 -23.5t13 -65.5l-46 -324q-6 -42 -31.5 -65t-57.5 -23h-15zM129 453q-11 0 -21.5 -11t-13.5 -34l-46 -322q-3 -23 4 -34t18 -11h6q11 0 20.5 11t12.5 34l46 322q3 23 -3.5 34t-17.5 11h-5zM124 535
l54 86h51l-70 -86h-35z" />
    <glyph glyph-name="ocircumflex" unicode="&#xf4;" horiz-adv-x="199" 
d="M58 -3q-31 0 -49.5 23t-12.5 65l45 324q7 42 31.5 65.5t56.5 23.5h15q32 0 51.5 -23.5t13.5 -65.5l-47 -324q-5 -42 -31 -65t-58 -23h-15zM129 453q-11 0 -21.5 -11t-13.5 -34l-45 -322q-4 -23 3.5 -34t18.5 -11h5q11 0 20.5 11t13.5 34l46 322q3 23 -3.5 34t-17.5 11h-6
zM182 621l44 -86h-50l-24 59l-41 -59h-51l70 86h52z" />
    <glyph glyph-name="otilde" unicode="&#xf5;" horiz-adv-x="199" 
d="M57 -3q-31 0 -49.5 23t-12.5 65l46 324q6 42 31 65.5t57 23.5h15q32 0 51 -23.5t13 -65.5l-46 -324q-6 -42 -32 -65t-58 -23h-15zM128 453q-11 0 -21 -11t-14 -34l-45 -322q-4 -23 3.5 -34t18.5 -11h5q11 0 20.5 11t13.5 34l46 322q3 23 -3.5 34t-17.5 11h-6zM69 576
q21 30 48 30q17 0 30.5 -10t30.5 -10q14 0 28 14l24 -17q-12 -17 -24 -23.5t-25 -6.5q-18 0 -31.5 10t-27.5 10q-8 0 -16 -3t-16 -11z" />
    <glyph glyph-name="odieresis" unicode="&#xf6;" horiz-adv-x="199" 
d="M58 -3q-31 0 -49.5 23t-12.5 65l45 324q7 42 32 65.5t57 23.5h15q32 0 51 -23.5t13 -65.5l-47 -324q-6 -42 -31.5 -65t-57.5 -23h-15zM129 453q-11 0 -21.5 -11t-13.5 -34l-45 -322q-4 -23 3.5 -34t18.5 -11h5q11 0 20.5 11t13.5 34l45 322q4 23 -2.5 34t-17.5 11h-6z
M129 548h-38l9 66h38zM200 548h-38l9 66h38z" />
    <glyph glyph-name="divide" unicode="&#xf7;" horiz-adv-x="346" 
d="M343 330h-310l6 39h310zM227 402h-58l12 86h58zM200 209h-58l12 87h58z" />
    <glyph glyph-name="oslash" unicode="&#xf8;" horiz-adv-x="230" 
d="M60 -3q-30 0 -48 19l-13 -29h-32l30 65q-2 15 0 33l45 324q7 42 32 65.5t57 23.5h15q26 0 45 -17l12 27h33l-27 -60q2 -8 2.5 -18t-1.5 -21l-46 -324q-6 -42 -31.5 -65t-57.5 -23h-15zM71 41h6q11 0 21 11t13 34l30 214l-89 -196l-2 -18q-3 -23 3.5 -34t17.5 -11z
M131 453q-11 0 -21.5 -11t-14.5 -34l-28 -201l89 198l1 3q3 23 -3.5 34t-17.5 11h-5z" />
    <glyph glyph-name="ugrave" unicode="&#xf9;" horiz-adv-x="202" 
d="M69 41q-11 0 -18 11t-3 34l57 409h-53l-57 -410q-6 -42 4 -65t42 -23h3q14 0 29 8.5t29 22.5l-4 -28h53l70 495h-53l-57 -402l-9 -65q19 18 32.5 43t17.5 49l-41 -27q-3 -23 -16 -37.5t-24 -14.5h-2zM125 534l-44 86h50l30 -86h-36z" />
    <glyph glyph-name="uacute" unicode="&#xfa;" horiz-adv-x="202" 
d="M71 41q11 0 24 14.5t16 37.5l41 27q-4 -24 -17.5 -49t-32.5 -43l9 65l57 402h53l-70 -495h-53l4 28q-14 -14 -29 -22.5t-29 -8.5h-3q-32 0 -42 23t-4 65l57 410h53l-57 -409q-4 -23 3 -34t18 -11h2zM124 534l54 86h51l-70 -86h-35z" />
    <glyph glyph-name="ucircumflex" unicode="&#xfb;" horiz-adv-x="202" 
d="M71 41q11 0 24 14.5t16 37.5l41 27q-4 -24 -17.5 -49t-32.5 -43l9 65l57 402h53l-70 -495h-53l4 28q-14 -14 -29 -22.5t-29 -8.5h-3q-32 0 -42 23t-4 65l57 410h53l-57 -409q-4 -23 3 -34t18 -11h2zM181 620l45 -86h-51l-24 59l-41 -59h-50l69 86h52z" />
    <glyph glyph-name="udieresis" unicode="&#xfc;" horiz-adv-x="202" 
d="M68 41q-11 0 -17.5 11t-3.5 34l58 409h-53l-57 -410q-7 -42 3.5 -65t42.5 -23h3q14 0 28.5 8t28.5 22l-4 -27h53l71 495h-53l-59 -408q-5 -21 -16 -33.5t-22 -12.5h-3zM198 546h-38l10 66h38zM127 546h-38l10 66h38z" />
    <glyph glyph-name="yacute" unicode="&#xfd;" horiz-adv-x="179" 
d="M170 495h44l-165 -660h-52l43 165l-1 495h48l-8 -346h2zM114 535l54 86h51l-70 -86h-35z" />
    <glyph glyph-name="thorn" unicode="&#xfe;" horiz-adv-x="208" 
d="M141 699l-29 -201h41q32 0 51 -23.5t12 -65.5l-45 -324q-7 -42 -32.5 -65t-57.5 -23h-40l-23 -162h-56l122 864h57zM106 453l-58 -412h34q11 0 21 11t14 34l45 322q3 23 -3.5 34t-17.5 11h-35z" />
    <glyph glyph-name="ydieresis" unicode="&#xff;" horiz-adv-x="179" 
d="M81 149h-2l8 346h-49l2 -495l-43 -165h52l164 660h-44zM117 548h-38l9 67h38zM188 548h-38l9 67h38z" />
    <glyph glyph-name="Amacron" unicode="&#x100;" horiz-adv-x="213" 
d="M115 0l9 194h-66l-46 -194h-49l164 699h73l-30 -699h-55zM68 237h58l15 301h-2zM236 763h-127l6 40h127z" />
    <glyph glyph-name="amacron" unicode="&#x101;" horiz-adv-x="199" 
d="M38 -3q-31 0 -39.5 23t-2.5 65l14 103q6 42 23 65.5t49 23.5h3q13 0 25 -6t23 -16l22 153q4 23 -3 34t-18 11h-6q-11 0 -21 -11t-13 -34l-16 -117h-53l16 118q6 43 31.5 66t57.5 23h15q32 0 51 -23.5t13 -65.5l-59 -409h-53l3 20q-15 -11 -30 -17t-28 -6h-4zM97 237
q-11 0 -20.5 -11t-13.5 -34l-15 -111q-4 -23 3 -34t18 -11h2q11 0 21.5 9.5t15.5 30.5l19 137q1 14 -7.5 19t-16.5 5h-6zM209 560h-126l6 40h126z" />
    <glyph glyph-name="Abreve" unicode="&#x102;" horiz-adv-x="213" 
d="M170 0l31 699h-73l-165 -699h49l46 194h66l-9 -194h55zM139 538h2l-15 -301h-58zM153 815q-2 -12 5.5 -21.5t19.5 -9.5q13 0 23.5 9.5t12.5 21.5h34q-4 -26 -26 -45t-49 -19q-12 0 -23 5t-18.5 14t-10.5 20.5t-1 24.5h33z" />
    <glyph glyph-name="abreve" unicode="&#x103;" horiz-adv-x="199" 
d="M38 -3q-31 0 -39.5 23t-2.5 65l14 103q6 42 23 65.5t49 23.5h3q13 0 25.5 -6t23.5 -16l22 153q3 23 -4 34t-18 11h-6q-11 0 -20.5 -11t-13.5 -34l-16 -117h-53l16 118q6 43 32 66t58 23h15q32 0 50.5 -23.5t12.5 -65.5l-58 -409h-53l3 20q-15 -11 -30.5 -17t-28.5 -6h-4z
M97 237q-11 0 -20.5 -11t-12.5 -34l-16 -111q-4 -23 3 -34t18 -11h2q11 0 22.5 11t15.5 34l18 127q2 17 -6.5 23t-17.5 6h-6zM125 612q-2 -12 6 -21.5t20 -9.5t22.5 9.5t12.5 21.5h34q-4 -26 -25.5 -45t-49.5 -19q-24 0 -40.5 19t-12.5 45h33z" />
    <glyph glyph-name="Aogonek" unicode="&#x104;" horiz-adv-x="213" 
d="M185 -64q-11 -17 -28 -24.5t-33 -6t-26.5 13t-7.5 31.5q2 15 11.5 27t23.5 23h-10l9 194h-66l-46 -194h-49l164 699h73l-30 -699h-2q-19 -6 -31.5 -19.5t-13.5 -24.5q-2 -20 14 -22t30 15zM68 237h58l15 301h-2z" />
    <glyph glyph-name="aogonek" unicode="&#x105;" horiz-adv-x="199" 
d="M39 -3q-32 0 -40.5 23t-2.5 65l14 103q6 42 23 65.5t49 23.5h3q13 0 25.5 -6t23.5 -16l22 153q3 23 -4 34t-18 11h-6q-11 0 -20.5 -11t-13.5 -34l-16 -117h-53l17 118q5 43 31 66t58 23h15q32 0 50.5 -23.5t12.5 -65.5l-58 -409h-53l3 20q-15 -11 -30.5 -17t-28.5 -6h-3z
M97 237q-11 0 -20.5 -11t-12.5 -34l-17 -111q-3 -23 4 -34t18 -11h2q11 0 23 11t15 34l18 127q3 17 -6 23t-18 6h-6zM150 -51q-14 -17 -30 -15t-14 22q2 11 14 24.5t31 19.5h-43q-14 -11 -23.5 -23t-11.5 -27q-3 -20 7.5 -31.5t26 -13t33 6t28.5 24.5z" />
    <glyph glyph-name="Cacute" unicode="&#x106;" 
d="M65 -6q-15 0 -29 5.5t-24.5 16.5t-15.5 29t-1 43l73 522q7 50 37 72.5t61 22.5h15q15 0 29.5 -5.5t25 -17t15.5 -29.5t1 -43l-27 -193h-57l27 185q4 30 -4 42.5t-21 12.5h-6q-13 0 -24 -12.5t-16 -42.5l-72 -505q-4 -30 3.5 -42.5t20.5 -12.5h6q13 0 24.5 12.5t16.5 42.5
l26 186h57l-28 -195q-7 -50 -37 -72t-61 -22h-15zM160 741l54 86h51l-69 -86h-36z" />
    <glyph glyph-name="cacute" unicode="&#x107;" horiz-adv-x="199" 
d="M138 291l17 117q3 23 -3.5 34t-17.5 11h-6q-11 0 -21.5 -11t-13.5 -34l-45 -322q-4 -23 3 -34t16 -11h8q11 0 20.5 11t13.5 34l17 120h53l-17 -120q-6 -43 -32 -66t-58 -23h-17q-29 0 -47.5 23t-12.5 66l45 323q6 42 31.5 65.5t57.5 23.5h15q32 0 51 -23t13 -66l-17 -118
h-53zM123 535l55 86h50l-70 -86h-35z" />
    <glyph glyph-name="Ccircumflex" unicode="&#x108;" 
d="M65 -6q-15 0 -29 5.5t-24.5 16.5t-15.5 29t-1 43l73 522q7 50 37 72.5t61 22.5h15q15 0 29.5 -5.5t25 -17t15.5 -29.5t1 -43l-27 -193h-57l27 185q4 30 -4 42.5t-21 12.5h-6q-13 0 -24 -12.5t-16 -42.5l-72 -505q-4 -30 3.5 -42.5t20.5 -12.5h6q13 0 24.5 12.5t16.5 42.5
l26 186h57l-28 -195q-7 -50 -37 -72t-61 -22h-15zM217 827l45 -86h-50l-24 59l-41 -59h-51l69 86h52z" />
    <glyph glyph-name="ccircumflex" unicode="&#x109;" horiz-adv-x="199" 
d="M139 291l16 117q3 23 -3.5 34t-17.5 11h-5q-11 0 -21.5 -11t-13.5 -34l-46 -322q-3 -23 3.5 -34t16.5 -11h8q11 0 20.5 11t12.5 34l17 120h53l-17 -120q-6 -43 -31.5 -66t-57.5 -23h-18q-29 0 -47 23t-13 66l46 323q6 42 31 65.5t57 23.5h15q32 0 51 -23t13 -66l-16 -118
h-53zM181 621l44 -86h-50l-24 59l-41 -59h-51l70 86h52z" />
    <glyph glyph-name="Cdotaccent" unicode="&#x10a;" 
d="M65 -6q-15 0 -29 5.5t-24.5 16.5t-15.5 29t-1 43l73 522q8 51 37.5 73t60.5 22h16q15 0 29.5 -5.5t24.5 -17t15 -29.5t1 -43l-27 -193h-57l27 185q4 30 -4 42.5t-21 12.5h-6q-13 0 -24 -12.5t-16 -42.5l-72 -505q-4 -30 4 -42.5t20 -12.5h7q13 0 24 12.5t16 42.5l26 186
h57l-27 -195q-4 -25 -14.5 -43t-24 -29t-29.5 -16.5t-31 -5.5h-15zM199 753h-38l9 67h38z" />
    <glyph glyph-name="cdotaccent" unicode="&#x10b;" horiz-adv-x="199" 
d="M139 291l16 117q4 23 -2.5 34t-17.5 11h-6q-11 0 -21.5 -11t-13.5 -34l-45 -322q-4 -23 3 -34t16 -11h8q11 0 20.5 11t13.5 34l17 120h53l-17 -120q-7 -43 -32.5 -66t-57.5 -23h-17q-29 0 -47.5 23t-12.5 66l45 323q6 42 31.5 65.5t57.5 23.5h15q32 0 51 -23t13 -66
l-17 -118h-53zM163 547h-38l9 67h38z" />
    <glyph glyph-name="Ccaron" unicode="&#x10c;" 
d="M65 -6q-15 0 -29 5.5t-24.5 16.5t-15.5 29t-2 43l74 522q7 50 37 72.5t61 22.5h15q15 0 29.5 -5.5t25 -17t15.5 -29.5t1 -43l-27 -193h-57l27 185q4 30 -4 42.5t-21 12.5h-6q-13 0 -24 -12.5t-16 -42.5l-72 -505q-4 -30 3.5 -42.5t20.5 -12.5h6q13 0 24.5 12.5t15.5 42.5
l27 186h57l-28 -195q-8 -50 -37.5 -72t-60.5 -22h-15zM152 743l-45 86h51l24 -60l41 60h50l-69 -86h-52z" />
    <glyph glyph-name="ccaron" unicode="&#x10d;" horiz-adv-x="199" 
d="M139 291l16 117q4 23 -3 34t-18 11h-5q-11 0 -21.5 -11t-13.5 -34l-45 -322q-4 -23 2.5 -34t16.5 -11h8q11 0 20.5 11t13.5 34l17 120h53l-18 -120q-6 -43 -31.5 -66t-57.5 -23h-17q-29 0 -47.5 23t-12.5 66l45 323q6 42 31 65.5t57 23.5h15q32 0 51.5 -23t12.5 -66
l-16 -118h-53zM116 537l-45 86h51l24 -60l41 60h50l-69 -86h-52z" />
    <glyph glyph-name="Dcaron" unicode="&#x10e;" horiz-adv-x="222" 
d="M-14 0l99 699h100q15 0 29.5 -5t25 -16t15.5 -28.5t2 -42.5l-74 -516q-4 -25 -14 -42.5t-23.5 -28t-29.5 -15.5t-31 -5h-99zM135 651l-85 -603h38q13 0 23.5 11t15.5 41l71 499q5 29 -3 40.5t-21 11.5h-39zM157 740l-45 86h50l24 -60l41 60h51l-69 -86h-52z" />
    <glyph glyph-name="dcaron" unicode="&#x10f;" horiz-adv-x="275" 
d="M43 -3q-31 0 -42 23t-5 65l45 324q6 42 23 65.5t49 23.5h3q14 0 26 -8.5t22 -22.5l33 232h53l-100 -699h-43l-1 30q-14 -15 -29.5 -24t-29.5 -9h-4zM129 453q-11 0 -21.5 -11t-13.5 -34l-46 -322q-3 -23 3.5 -34t17.5 -11h3q11 0 22.5 13.5t15.5 36.5l32 227l13 91
q2 20 -5.5 32t-18.5 12h-2zM333 612l-31 -59h-25l24 59h-26l12 87h58z" />
    <glyph glyph-name="Dcroat" unicode="&#x110;" horiz-adv-x="248" 
d="M-11 0l46 330h-25l6 40h25l47 329h100q15 0 29.5 -5t25 -16t15.5 -28.5t1 -42.5l-73 -516q-4 -25 -14 -42.5t-23.5 -28t-29.5 -15.5t-31 -5h-99zM138 651l-40 -281h26l-6 -40h-25l-40 -282h38q13 0 23.5 11t15.5 41l71 499q5 29 -3 40.5t-21 11.5h-39z" />
    <glyph glyph-name="dcroat" unicode="&#x111;" horiz-adv-x="234" 
d="M150 0h-43l-1 30q-14 -15 -29.5 -24t-29.5 -9h-4q-31 0 -42 23t-5 65l45 324q6 42 23 65.5t49 23.5h3q13 0 25.5 -8t22.5 -22l18 127h-36l6 39h35l10 65h53l-10 -65h42l-6 -39h-41zM129 453q-11 0 -21.5 -11t-13.5 -34l-46 -322q-3 -23 3.5 -34t17.5 -11h3
q11 0 22.5 13.5t15.5 36.5l32 227l13 91q2 20 -5.5 32t-18.5 12h-2z" />
    <glyph glyph-name="Emacron" unicode="&#x112;" horiz-adv-x="182" 
d="M135 651l-40 -280h70l-6 -43h-70l-40 -280h95l-7 -48h-151l98 699h148l-6 -48h-91zM232 763h-127l6 40h127z" />
    <glyph glyph-name="emacron" unicode="&#x113;" horiz-adv-x="199" 
d="M68 41h8q11 0 20.5 11t12.5 34l18 120h53l-18 -120q-6 -43 -31.5 -66t-57.5 -23h-18q-29 0 -47.5 23t-11.5 66l45 323q6 42 31 65.5t57 23.5h15q32 0 51 -23t13 -66l-24 -173h-115l-21 -150q-3 -23 3.5 -34t16.5 -11zM136 273l19 135q3 23 -3.5 34t-17.5 11h-5
q-11 0 -21.5 -11t-14.5 -34l-19 -135h62zM208 560h-127l6 40h127z" />
    <glyph glyph-name="Ebreve" unicode="&#x114;" horiz-adv-x="182" 
d="M226 651l6 48h-148l-99 -699h152l7 48h-95l40 280h70l6 43h-70l40 280h91zM148 815q-2 -12 5.5 -21.5t19.5 -9.5q13 0 23.5 9.5t12.5 21.5h34q-4 -26 -26 -45t-49 -19q-25 0 -41 19t-12 45h33z" />
    <glyph glyph-name="ebreve" unicode="&#x115;" horiz-adv-x="199" 
d="M68 41h8q11 0 20.5 11t12.5 34l17 120h53l-17 -120q-6 -43 -31.5 -66t-57.5 -23h-18q-29 0 -47 23t-12 66l45 323q6 42 31.5 65.5t57.5 23.5h15q32 0 50.5 -23t12.5 -66l-24 -173h-115l-21 -150q-3 -23 3.5 -34t16.5 -11zM136 273l19 135q4 23 -3 34t-18 11h-5
q-11 0 -21.5 -11t-13.5 -34l-19 -135h61zM124 612q-2 -12 5.5 -21.5t19.5 -9.5q13 0 23.5 9.5t12.5 21.5h34q-4 -26 -26 -45t-49 -19q-25 0 -41 19t-12 45h33z" />
    <glyph glyph-name="Edotaccent" unicode="&#x116;" horiz-adv-x="182" 
d="M226 651l6 48h-148l-98 -699h151l7 48h-95l39 280h71l6 43h-70l40 280h91zM186 750h-38l9 67h38z" />
    <glyph glyph-name="edotaccent" unicode="&#x117;" horiz-adv-x="199" 
d="M68 41h8q11 0 20.5 11t12.5 34l18 120h53l-18 -120q-6 -43 -31.5 -66t-57.5 -23h-18q-29 0 -47.5 23t-11.5 66l44 323q7 42 32 65.5t57 23.5h15q32 0 51 -23t13 -66l-24 -173h-115l-21 -150q-3 -23 3.5 -34t16.5 -11zM136 273l19 135q3 23 -3.5 34t-17.5 11h-5
q-11 0 -21.5 -11t-14.5 -34l-19 -135h62zM162 547h-38l9 67h38z" />
    <glyph glyph-name="Eogonek" unicode="&#x118;" horiz-adv-x="182" 
d="M105 -64q-11 -17 -27.5 -24.5t-32.5 -6t-26.5 13t-7.5 31.5q2 15 11 27t23 23h-59l99 699h148l-7 -48h-91l-40 -280h70l-5 -43h-71l-39 -280h95l-7 -48h-50q-19 -6 -31 -19.5t-14 -24.5q-2 -20 14.5 -22t29.5 15z" />
    <glyph glyph-name="eogonek" unicode="&#x119;" horiz-adv-x="199" 
d="M108 -67q-11 -17 -28 -24.5t-32.5 -6t-26.5 13t-8 31.5q2 15 11.5 27.5t23.5 22.5q-26 2 -42 25t-11 64l46 323q6 42 31 65.5t57 23.5h15q32 0 51 -23t13 -66l-24 -173h-115l-22 -150q-3 -23 4 -34t16 -11h8q11 0 20.5 11t13.5 34l18 120h53l-18 -120q-5 -38 -26.5 -60.5
t-49.5 -27.5q-17 -8 -27.5 -21t-12.5 -24q-2 -20 14.5 -22t29.5 15zM136 273l19 135q3 23 -3.5 34t-17.5 11h-5q-11 0 -21.5 -11t-13.5 -34l-20 -135h62z" />
    <glyph glyph-name="Ecaron" unicode="&#x11a;" horiz-adv-x="182" 
d="M226 651l7 48h-148l-99 -699h152l7 48h-95l39 280h71l6 43h-71l40 280h91zM141 740l-45 86h50l24 -60l41 60h51l-69 -86h-52z" />
    <glyph glyph-name="ecaron" unicode="&#x11b;" horiz-adv-x="199" 
d="M67 41h8q11 0 21 11t13 34l17 120h53l-17 -120q-6 -43 -31.5 -66t-57.5 -23h-18q-29 0 -47.5 23t-12.5 66l45 323q6 42 31.5 65.5t57.5 23.5h15q32 0 51 -23t13 -66l-24 -173h-115l-21 -150q-3 -23 3.5 -34t15.5 -11zM136 273l19 135q3 23 -3.5 34t-17.5 11h-6
q-11 0 -21 -11t-14 -34l-19 -135h62zM115 537l-45 86h51l24 -60l41 60h50l-69 -86h-52z" />
    <glyph glyph-name="Gcircumflex" unicode="&#x11c;" 
d="M65 -6q-15 0 -29 5.5t-24.5 16.5t-15.5 29t-2 43l74 522q7 50 36.5 72.5t60.5 22.5h16q15 0 29.5 -5.5t25 -17t15.5 -29.5t1 -43l-27 -193h-57l27 185q3 30 -4.5 42.5t-20.5 12.5h-6q-13 0 -24.5 -12.5t-15.5 -42.5l-72 -505q-4 -30 3.5 -42.5t19.5 -12.5h7
q13 0 24.5 12.5t15.5 42.5l20 138h-35l7 48h92l-7 -48l-19 -125h1l-15 -110h-29l-4 23q-15 -14 -31.5 -21.5t-29.5 -7.5h-7zM217 824l45 -86h-51l-24 59l-41 -59h-50l69 86h52z" />
    <glyph glyph-name="gcircumflex" unicode="&#x11d;" horiz-adv-x="201" 
d="M220 495l-81 -571q-6 -43 -32 -66t-55 -23h-17q-31 0 -50 23t-13 66l7 47h53l-7 -47q-4 -23 3 -34t18 -11h8q9 0 19 11t13 34l14 101q-14 -13 -28.5 -20.5t-27.5 -7.5h-3q-31 0 -41.5 23t-4.5 65l45 324q6 42 24 65.5t50 23.5h3q13 0 24.5 -7.5t22.5 -20.5v1l13 24h43z
M71 41q11 0 23 13.5t15 36.5l45 312q4 23 -4.5 36.5t-19.5 13.5h-2q-11 0 -21 -11t-14 -34l-46 -322q-2 -23 4.5 -34t17.5 -11h2zM179 621l45 -86h-51l-24 59l-41 -59h-50l69 86h52z" />
    <glyph glyph-name="Gbreve" unicode="&#x11e;" 
d="M65 -6q-15 0 -29 5.5t-24.5 16.5t-15.5 29t-2 43l74 522q7 50 37 72.5t61 22.5h16q15 0 29.5 -5.5t24.5 -17t15 -29.5t1 -43l-27 -193h-57l27 185q4 30 -4 42.5t-21 12.5h-6q-13 0 -24 -12.5t-16 -42.5l-72 -505q-4 -30 4 -42.5t20 -12.5h7q13 0 24 12.5t15 42.5l20 138
h-35l8 48h91l-7 -48l-18 -127q0 -2 -0.5 -2.5t-0.5 -2.5l-14 -103h-29l-4 23q-16 -14 -32 -21.5t-29 -7.5h-7zM160 815q-2 -12 5.5 -21.5t19.5 -9.5q13 0 23.5 9.5t12.5 21.5h34q-4 -26 -25.5 -45t-49.5 -19q-24 0 -40.5 19t-12.5 45h33z" />
    <glyph glyph-name="gbreve" unicode="&#x11f;" horiz-adv-x="201" 
d="M177 495l-13 -24v-1q-11 13 -22.5 20.5t-24.5 7.5h-3q-32 0 -50 -23.5t-24 -65.5l-46 -324q-5 -42 5 -65t42 -23h3q13 0 27.5 7.5t28.5 20.5l-14 -101q-4 -23 -13.5 -34t-19.5 -11h-8q-11 0 -17.5 11t-2.5 34l6 47h-52l-7 -47q-6 -43 13 -66t50 -23h17q29 0 54.5 23
t32.5 66l81 571h-43zM69 41q-11 0 -18 11t-4 34l46 322q4 23 13.5 34t20.5 11h3q11 0 19 -13.5t5 -36.5l-45 -312q-3 -23 -15 -36.5t-23 -13.5h-2zM122 612q-2 -12 6 -21.5t20 -9.5t22.5 9.5t12.5 21.5h34q-4 -26 -25.5 -45t-49.5 -19q-24 0 -40.5 19t-12.5 45h33z" />
    <glyph glyph-name="Gdotaccent" unicode="&#x120;" 
d="M114 283h92l-7 -48l-18 -127q-1 -2 -1 -6l-15 -102h-28l-4 23q-16 -14 -32.5 -21.5t-29.5 -7.5h-7q-15 0 -29 5.5t-24 16.5t-15 29t-1 43l73 522q8 51 37.5 73t60.5 22h15q15 0 29.5 -5.5t25 -17t15.5 -29.5t1 -43l-27 -193h-57l27 185q4 30 -4 42.5t-21 12.5h-7
q-13 0 -24 -12.5t-15 -42.5l-72 -505q-5 -30 3 -42.5t21 -12.5h6q13 0 24 12.5t16 42.5l20 138h-35zM198 750h-38l10 67h38z" />
    <glyph glyph-name="gdotaccent" unicode="&#x121;" horiz-adv-x="201" 
d="M177 495l-13 -24q-10 12 -22 19.5t-24 7.5h-4q-32 0 -49.5 -23.5t-24.5 -65.5l-45 -324q-6 -42 4.5 -65t41.5 -23h3q13 0 27.5 7.5t28.5 20.5l-14 -101q-3 -23 -13 -34t-19 -11h-8q-11 0 -18 11t-3 34l7 47h-53l-7 -47q-6 -43 13 -66t50 -23h18q29 0 54.5 23t31.5 66
l81 571h-43zM69 41q-11 0 -17.5 11t-3.5 34l45 322q4 23 13.5 34t20.5 11h3q11 0 19.5 -13.5t4.5 -36.5l-26 -182l-19 -132q-4 -22 -15.5 -35t-22.5 -13h-2zM161 547h-38l9 67h38z" />
    <glyph glyph-name="uni0122" unicode="&#x122;" 
d="M65 -6q-15 0 -29.5 5.5t-24.5 16.5t-14.5 29t-1.5 43l74 522q7 50 36.5 72.5t60.5 22.5h16q15 0 29.5 -5.5t25 -17t15.5 -29.5t1 -43l-27 -193h-57l26 185q4 30 -3.5 42.5t-20.5 12.5h-7q-13 0 -24 -12.5t-16 -42.5l-71 -505q-4 -30 3 -42.5t20 -12.5h7q13 0 24.5 12.5
t15.5 42.5l20 138h-35l7 48h92l-7 -48l-19 -125h1l-16 -110h-28l-4 24q-16 -14 -32.5 -22t-29.5 -8h-7zM82 -117l-31 -59h-24l23 59h-26l12 87h58z" />
    <glyph glyph-name="uni0123" unicode="&#x123;" horiz-adv-x="201" 
d="M177 495l-14 -24q-11 12 -22.5 19.5t-23.5 7.5h-3q-32 0 -50 -23.5t-24 -65.5l-45 -324q-6 -42 4 -65t42 -23h3q13 0 27.5 7.5t28.5 20.5l-14 -101q-3 -23 -13.5 -34t-19.5 -11h-8q-11 0 -17.5 11t-2.5 34l6 47h-53l-6 -47q-6 -43 13 -66t50 -23h17q29 0 54.5 23t32.5 66
l81 571h-43zM68 41q-11 0 -17.5 11t-3.5 34l46 322q3 23 13 34t21 11h2q10 0 18 -11t7 -31l-20 -145l-25 -175q-3 -23 -15 -36.5t-23 -13.5h-3zM127 600l24 45h22l-18 -45h14l-9 -65h-42z" />
    <glyph glyph-name="Hcircumflex" unicode="&#x124;" 
d="M266 699l-100 -699h-57l47 328h-67l-46 -328h-57l99 699h57l-47 -329h67l47 329h57zM220 824l44 -86h-50l-24 59l-41 -59h-51l70 86h52z" />
    <glyph glyph-name="hcircumflex" unicode="&#x125;" horiz-adv-x="204" 
d="M136 453q-11 0 -22.5 -12.5t-16.5 -32.5l-1 -6l-57 -402h-53l99 699h53l-33 -232q14 14 28.5 22.5t28.5 8.5h3q32 0 42.5 -23.5t4.5 -65.5l-58 -409h-53l58 408q4 23 -3 34t-18 11h-2zM156 824l44 -86h-50l-24 59l-41 -59h-51l70 86h52z" />
    <glyph glyph-name="LATIN CAPITAL LETTER H WITH STROKE" unicode="&#x126;" 
d="M59 515l26 184h57l-27 -184h67l27 184h57l-27 -184h18l-6 -39h-17l-68 -476h-57l47 328h-67l-46 -328h-57l67 476h-18l6 39h18zM162 370l15 106h-67l-15 -106h67z" />
    <glyph glyph-name="LATIN SMALL LETTER H WITH STROKE" unicode="&#x127;" horiz-adv-x="204" 
d="M136 453q-11 0 -22.5 -12.5t-16.5 -32.5l-1 -6l-57 -402h-53l84 595h-29l6 39h29l9 65h53l-9 -65h48l-6 -39h-48l-18 -128q14 14 28.5 22.5t28.5 8.5h3q32 0 42.5 -23.5t4.5 -65.5l-58 -409h-53l58 408q3 23 -3.5 34t-17.5 11h-2z" />
    <glyph glyph-name="Itilde" unicode="&#x128;" horiz-adv-x="97" 
d="M85 699l-98 -699h56l99 699h-57zM47 785q21 31 47 31q17 0 31 -10.5t31 -10.5q14 0 28 14l24 -17q-12 -17 -24 -23t-25 -6q-18 0 -32 10t-28 10q-16 0 -31 -14z" />
    <glyph glyph-name="itilde" unicode="&#x129;" horiz-adv-x="90" 
d="M56 495l-70 -495h53l70 495h-53zM15 575q11 16 23 23t24 7q17 0 31 -10t31 -10q14 0 28 14l24 -17q-13 -17 -24.5 -23.5t-24.5 -6.5q-18 0 -32 10t-28 10q-8 0 -15.5 -3t-15.5 -11z" />
    <glyph glyph-name="Imacron" unicode="&#x12a;" horiz-adv-x="97" 
d="M142 699l-99 -699h-57l99 699h57zM186 770h-127l6 39h127z" />
    <glyph glyph-name="imacron" unicode="&#x12b;" horiz-adv-x="90" 
d="M109 495l-70 -495h-53l70 495h53zM154 559h-127l6 40h127z" />
    <glyph glyph-name="Ibreve" unicode="&#x12c;" horiz-adv-x="97" 
d="M85 699l-99 -699h56l100 699h-57zM102 821q-2 -11 5.5 -20.5t19.5 -9.5q13 0 23.5 9.5t12.5 20.5h34q-4 -25 -26 -44t-49 -19q-25 0 -41.5 18.5t-11.5 44.5h33z" />
    <glyph glyph-name="ibreve" unicode="&#x12d;" horiz-adv-x="90" 
d="M56 495l-69 -495h52l70 495h-53zM69 611q-2 -12 6.5 -21.5t20.5 -9.5t22 9.5t12 21.5h34q-3 -26 -24.5 -45t-49.5 -19q-24 0 -40.5 19t-13.5 45h33z" />
    <glyph glyph-name="Iogonek" unicode="&#x12e;" horiz-adv-x="97" 
d="M57 -64q-10 -17 -27 -24.5t-32.5 -6t-26 13t-7.5 31.5q2 15 11 27t24 23h-13l99 699h57l-99 -699h-2q-19 -6 -31 -19.5t-14 -24.5q-2 -20 14 -22t30 15z" />
    <glyph glyph-name="iogonek" unicode="&#x12f;" horiz-adv-x="90" 
d="M53 -64q-10 -17 -27 -24.5t-32.5 -6t-26 13t-7.5 31.5q4 28 35 50h-9l70 495h53l-70 -495h-2q-18 -6 -30.5 -19.5t-14.5 -24.5q-2 -20 14.5 -22t29.5 15zM126 617l-11 -81h-53l11 81h53z" />
    <glyph glyph-name="Idotaccent" unicode="&#x130;" horiz-adv-x="97" 
d="M85 699l-98 -699h56l99 699h-57zM140 757h-38l9 66h38z" />
    <glyph glyph-name="dotlessi" unicode="&#x131;" horiz-adv-x="90" 
d="M108 495l-71 -495h-52l70 495h53z" />
    <glyph glyph-name="IJ" unicode="&#x132;" horiz-adv-x="318" 
d="M141 699l-98 -699h-57l98 699h57zM163 -6q-15 0 -29 5.5t-24.5 16.5t-15.5 29t-2 43l27 193h57l-26 -184q-4 -30 3.5 -42.5t20.5 -12.5h7q13 0 24 12.5t16 42.5l85 602h57l-87 -611q-7 -50 -36.5 -72t-60.5 -22h-16z" />
    <glyph glyph-name="ij" unicode="&#x133;" horiz-adv-x="193" 
d="M109 495l-70 -495h-53l70 495h53zM126 617l-11 -81h-53l11 81h53zM227 619l-12 -84h-53l12 84h53zM209 495l-81 -572q-6 -42 -31.5 -65t-75.5 -23l6 44q20 0 32.5 10.5t15.5 33.5l81 572h53z" />
    <glyph glyph-name="Jcircumflex" unicode="&#x134;" 
d="M65 -6q-15 0 -29 5.5t-24.5 16.5t-15.5 29t-1 43l27 193h56l-26 -184q-4 -30 3.5 -42.5t20.5 -12.5h6q13 0 24.5 12.5t16.5 42.5l85 602h57l-87 -611q-7 -50 -36.5 -72t-60.5 -22h-16zM281 824l45 -86h-50l-24 59l-41 -59h-51l69 86h52z" />
    <glyph glyph-name="jcircumflex" unicode="&#x135;" horiz-adv-x="131" 
d="M149 495l-81 -572q-7 -42 -32 -65t-75 -23l7 44q19 0 31.5 10.5t15.5 33.5l81 572h53zM167 624l45 -86h-51l-24 59l-41 -59h-50l69 86h52z" />
    <glyph glyph-name="uni0136" unicode="&#x136;" horiz-adv-x="218" 
d="M132 363l45 -363h-53l-42 287h-1l-40 -287h-57l99 699h57l-41 -283h1l126 283h52zM95 -102l-31 -59h-25l24 59h-26l12 87h58z" />
    <glyph glyph-name="uni0137" unicode="&#x137;" horiz-adv-x="196" 
d="M107 258l52 -258h-53l-40 197l-28 -197h-52l99 699h53l-56 -387l97 183h51zM84 -106l-31 -59h-24l23 59h-26l12 87h58z" />
    <glyph glyph-name=".001" unicode="&#x138;" horiz-adv-x="196" 
d="M105 258l52 -258h-53l-40 197l-28 -197h-52l70 495h53l-27 -183l97 183h51z" />
    <glyph glyph-name="Lacute" unicode="&#x139;" horiz-adv-x="165" 
d="M142 699l-93 -656h85l-6 -43h-142l99 699h57zM101 738l55 86h50l-69 -86h-36z" />
    <glyph glyph-name="lacute" unicode="&#x13a;" horiz-adv-x="89" 
d="M81 699h53l-100 -699h-52zM95 738l55 86h50l-69 -86h-36z" />
    <glyph glyph-name="uni013B" unicode="&#x13b;" horiz-adv-x="165" 
d="M142 699l-93 -656h85l-6 -43h-142l99 699h57zM66 -117l-30 -59h-25l23 59h-25l12 87h57z" />
    <glyph glyph-name="lquotesinglbase" unicode="&#x13c;" horiz-adv-x="89" 
d="M85 699h53l-99 -699h-53zM25 -108l-31 -59h-24l24 59h-26l12 86h58z" />
    <glyph glyph-name="Lcaron" unicode="&#x13d;" horiz-adv-x="202" 
d="M85 699l-99 -699h142l6 43h-85l93 656h-57zM230 613l-31 -59h-25l24 59h-26l12 87h58z" />
    <glyph glyph-name="LATIN SMALL LETTER L WITH CARON" unicode="&#x13e;" horiz-adv-x="165" 
d="M85 699h53l-99 -699h-53zM206 612l-31 -59h-25l24 59h-26l12 87h58z" />
    <glyph glyph-name="Ldot" unicode="&#x13f;" horiz-adv-x="202" 
d="M142 699l-93 -656h85l-6 -43h-142l99 699h57zM192 249h-58l12 86h58z" />
    <glyph glyph-name="lperiodcentered" unicode="&#x140;" horiz-adv-x="176" 
d="M85 699h53l-99 -699h-53zM167 289h-58l13 87h58z" />
    <glyph glyph-name="Lslash" unicode="&#x141;" horiz-adv-x="218" 
d="M191 699l-42 -290l70 45l15 -34l-92 -60l-45 -317h86l-6 -43h-143l45 319l-46 -30l-16 34l69 45l48 331h57z" />
    <glyph glyph-name="lslash" unicode="&#x142;" horiz-adv-x="174" 
d="M59 292l-28 -18l-15 34l50 33l51 358h53l-45 -319l53 35l15 -35l-75 -50l-47 -330h-53z" />
    <glyph glyph-name="Nacute" unicode="&#x143;" horiz-adv-x="244" 
d="M129 0l-23 526h-1l-74 -526h-48l99 699h65l20 -520l75 520h52l-100 -699h-65zM175 738l55 86h50l-69 -86h-36z" />
    <glyph glyph-name="nacute" unicode="&#x144;" horiz-adv-x="203" 
d="M135 453q-11 0 -23 -13t-16 -33l-1 -5l-57 -402h-53l70 495h53l-4 -28q14 14 29 22.5t29 8.5h3q32 0 42.5 -23.5t4.5 -65.5l-59 -409h-53l59 408q3 23 -3.5 34t-17.5 11h-3zM115 535l55 86h50l-69 -86h-36z" />
    <glyph glyph-name="uni0145" unicode="&#x145;" horiz-adv-x="244" 
d="M130 0l-23 526h-1l-75 -526h-47l99 699h65l19 -520h1l74 520h52l-100 -699h-64zM93 -102l-31 -59h-25l24 59h-26l12 87h58z" />
    <glyph glyph-name="uni0146" unicode="&#x146;" horiz-adv-x="203" 
d="M135 453q-11 0 -22.5 -12t-16.5 -31l-59 -410h-52l70 495h53l-4 -28q14 14 29 22.5t29 8.5h3q32 0 42.5 -23.5t4.5 -65.5l-59 -409h-53l58 408q4 23 -2.5 34t-17.5 11h-3zM83 -106l-31 -59h-24l23 59h-26l13 87h58z" />
    <glyph glyph-name="Ncaron" unicode="&#x147;" horiz-adv-x="244" 
d="M130 0l-23 526h-1l-75 -526h-47l99 699h65l19 -520h1l74 520h52l-100 -699h-64zM168 740l-45 86h51l23 -60l42 60h50l-69 -86h-52z" />
    <glyph glyph-name="ncaron" unicode="&#x148;" horiz-adv-x="203" 
d="M137 453q11 0 18 -11t3 -34l-58 -408h53l58 409q6 42 -4.5 65.5t-42.5 23.5h-3q-14 0 -29 -8.5t-29 -22.5l4 28h-53l-69 -495h52l57 402l1 5q5 20 17 33t23 13h2zM120 537l-44 86h50l24 -60l41 60h51l-70 -86h-52z" />
    <glyph glyph-name="napostrophe" unicode="&#x149;" horiz-adv-x="264" 
d="M198 453q11 0 17.5 -11t3.5 -34l-58 -408h53l58 409q6 42 -4.5 65.5t-42.5 23.5h-3q-14 0 -29 -8.5t-29 -22.5l4 28h-53l-70 -495h53l57 402l1 5q4 20 16 33t23 13h3zM122 595l-31 -59h-25l24 59h-26l12 86h58z" />
    <glyph glyph-name="Eng" unicode="&#x14a;" horiz-adv-x="242" 
d="M191 3l-12 -80q-6 -42 -37 -65t-81 -23l7 44q19 0 31.5 10.5t16.5 33.5l10 77l-21 528h-1l-75 -528h-45l99 699h65l17 -522h1l74 522h50l-100 -696h1z" />
    <glyph glyph-name="eng" unicode="&#x14b;" horiz-adv-x="203" 
d="M135 453q-10 0 -22 -11t-17 -29l-59 -413h-53l71 495h53l-4 -27q14 14 28.5 22t28.5 8h3q32 0 42.5 -23.5t4.5 -65.5l-58 -405h1l-12 -81q-6 -42 -31.5 -65t-76.5 -23l7 44q19 0 32 10.5t16 33.5l11 77l58 408q3 23 -3.5 34t-17.5 11h-2z" />
    <glyph glyph-name="Omacron" unicode="&#x14c;" 
d="M65 -6q-15 0 -29 5.5t-24.5 16.5t-15.5 29t-1 43l73 522q8 51 37.5 73t60.5 22h15q15 0 29.5 -5.5t25 -17t15.5 -29.5t1 -43l-74 -522q-8 -50 -37.5 -72t-60.5 -22h-15zM164 657q-13 0 -24.5 -13t-15.5 -42l-72 -505q-4 -30 3.5 -42.5t20.5 -12.5h6q13 0 24.5 12.5
t15.5 42.5l73 505q4 29 -4 42t-21 13h-6zM244 763h-126l5 40h127z" />
    <glyph glyph-name="omacron" unicode="&#x14d;" horiz-adv-x="199" 
d="M58 -3q-32 0 -50.5 23t-11.5 65l45 324q6 42 31 65.5t57 23.5h15q32 0 51 -23.5t13 -65.5l-46 -324q-6 -42 -31.5 -65t-57.5 -23h-15zM129 453q-11 0 -21.5 -11t-14.5 -34l-45 -322q-3 -23 4 -34t18 -11h6q11 0 20.5 11t12.5 34l46 322q3 23 -3.5 34t-17.5 11h-5z
M209 560h-127l6 40h127z" />
    <glyph glyph-name="Obreve" unicode="&#x14e;" 
d="M65 -6q-15 0 -29 5.5t-24.5 16.5t-15.5 29t-2 43l74 522q7 50 37 72.5t61 22.5h16q15 0 29.5 -5.5t24.5 -17t15 -29.5t1 -43l-74 -522q-8 -50 -37.5 -72t-60.5 -22h-15zM164 657q-13 0 -24.5 -13t-15.5 -42l-72 -505q-4 -30 4 -42.5t20 -12.5h7q13 0 24 12.5t15 42.5
l73 505q4 29 -4 42t-21 13h-6zM160 815q-2 -12 5.5 -21.5t19.5 -9.5q13 0 23.5 9.5t12.5 21.5h34q-4 -26 -25.5 -45t-49.5 -19q-24 0 -40.5 19t-12.5 45h33z" />
    <glyph glyph-name="obreve" unicode="&#x14f;" horiz-adv-x="199" 
d="M58 -3q-32 0 -50 23t-13 65l46 324q6 42 31.5 65.5t57.5 23.5h15q32 0 50.5 -23.5t12.5 -65.5l-46 -324q-6 -42 -31.5 -65t-57.5 -23h-15zM129 453q-11 0 -21.5 -11t-13.5 -34l-46 -322q-3 -23 4 -34t18 -11h6q11 0 20.5 11t12.5 34l46 322q4 23 -3 34t-18 11h-5z
M125 612q-2 -12 5.5 -21.5t19.5 -9.5q13 0 23.5 9.5t12.5 21.5h34q-4 -26 -26 -45t-49 -19q-25 0 -41 19t-12 45h33z" />
    <glyph glyph-name="Ohungarumlaut" unicode="&#x150;" 
d="M65 -6q-15 0 -29 5.5t-24.5 16.5t-15.5 29t-1 43l73 522q7 50 37 72.5t61 22.5h16q15 0 29.5 -5.5t24.5 -17t15 -29.5t1 -43l-74 -522q-8 -50 -37.5 -72t-60.5 -22h-15zM164 657q-13 0 -24.5 -13t-15.5 -42l-72 -505q-4 -30 4 -42.5t20 -12.5h7q13 0 24 12.5t16 42.5
l71 505q5 29 -3 42t-21 13h-6zM193 735l55 86h50l-70 -86h-35zM123 735l55 86h50l-70 -86h-35z" />
    <glyph glyph-name="ohungarumlaut" unicode="&#x151;" horiz-adv-x="199" 
d="M58 -3q-32 0 -50 23t-13 65l46 324q6 42 31.5 65.5t57.5 23.5h15q32 0 50.5 -23.5t12.5 -65.5l-46 -324q-6 -42 -31.5 -65t-57.5 -23h-15zM129 453q-11 0 -21.5 -11t-13.5 -34l-46 -322q-3 -23 4 -34t18 -11h6q11 0 20.5 11t12.5 34l46 322q4 23 -3 34t-18 11h-5z
M158 532l54 86h51l-70 -86h-35zM88 532l54 86h51l-70 -86h-35z" />
    <glyph glyph-name="OE" unicode="&#x152;" horiz-adv-x="324" 
d="M67 -6q-15 0 -29.5 5.5t-24.5 16.5t-15 29t-1 43l73 522q4 25 14 43t24 29.5t30 17t31 5.5h197l-8 -51h-105q5 -21 2 -44l-34 -239h77l-6 -43h-77l-34 -240q-4 -23 -14 -43h110l-8 -51h-181h-6h-15zM166 657q-13 0 -24 -13t-16 -42l-71 -505q-5 -30 3 -42.5t21 -12.5h6
q13 0 24 12.5t16 42.5l72 505q4 29 -4 42t-21 13h-6z" />
    <glyph glyph-name="oe" unicode="&#x153;" horiz-adv-x="314" 
d="M59 -3q-32 0 -50.5 23t-12.5 65l45 324q7 42 32 65.5t57 23.5h15q28 0 47 -19q24 19 52 19h15q32 0 51.5 -23t12.5 -66l-24 -173h-115l-6 -46l-15 -105q-1 -2 -1 -6q-2 -20 5 -29t15 -9h8q11 0 21 11t13 34l17 120h53l-17 -120q-6 -43 -31.5 -66t-57.5 -23h-17
q-28 0 -44 18q-23 -18 -53 -18h-15zM130 453q-11 0 -22 -11t-14 -34l-46 -322q-3 -23 4 -34t18 -11h6q11 0 20.5 11t13.5 34l46 323q0 3 1 5q2 20 -4.5 29.5t-17.5 9.5h-5zM251 273l19 135q3 23 -3 34t-17 11h-6q-11 0 -21.5 -11t-13.5 -34l-20 -135h62z" />
    <glyph glyph-name="Racute" unicode="&#x154;" horiz-adv-x="228" 
d="M229 416q-5 -32 -16.5 -47.5t-27.5 -20.5q14 -4 22 -19.5t3 -47.5l-24 -167q-8 -59 -8 -83.5t2 -30.5h-57q-4 12 -2.5 38t8.5 76l23 162q7 51 -20 51h-43l-46 -327h-57l99 699h101q34 0 55.5 -23.5t14.5 -70.5zM138 370q28 0 35 50l25 176q5 29 -3 42t-22 13h-38
l-40 -281h43zM154 738l55 86h50l-69 -86h-36z" />
    <glyph glyph-name="racute" unicode="&#x155;" horiz-adv-x="202" 
d="M135 453q-10 0 -22 -11t-17 -29l-59 -413h-52l70 495h53l-4 -27q14 14 28.5 22t28.5 8h3q36 0 45 -29q8 -24 2 -60l-17 -118h-53l17 117q4 23 -3 34t-18 11h-2zM120 535l55 86h50l-69 -86h-36z" />
    <glyph glyph-name="uni0156" unicode="&#x156;" horiz-adv-x="228" 
d="M229 416q-5 -32 -17 -47.5t-28 -20.5q15 -4 23 -19.5t3 -47.5l-24 -167q-8 -59 -8 -83.5t2 -30.5h-57q-5 12 -3 38t9 76l23 162q7 51 -20 51h-43l-46 -327h-57l99 699h101q34 0 55.5 -23.5t14.5 -70.5zM138 370q28 0 35 50l25 176q4 29 -3.5 42t-21.5 13h-38l-40 -281h43
zM90 -117l-31 -59h-24l23 59h-26l12 87h58z" />
    <glyph glyph-name="uni0157" unicode="&#x157;" horiz-adv-x="202" 
d="M135 453q-11 0 -22.5 -12t-16.5 -31l-59 -410h-52l70 495h53l-4 -28q14 14 29 22.5t29 8.5h3q34 0 45 -29q7 -20 2 -60l-17 -118h-53l16 117q4 23 -3 34t-18 11h-2zM88 -117l-31 -59h-24l23 59h-26l12 87h58z" />
    <glyph glyph-name="Rcaron" unicode="&#x158;" horiz-adv-x="228" 
d="M256 605q7 47 -14.5 70.5t-55.5 23.5h-101l-99 -699h57l46 327h43q27 0 20 -51l-23 -162q-7 -50 -8.5 -76t2.5 -38h57q-2 6 -2 30.5t8 83.5l24 167q5 32 -3 47.5t-22 19.5q16 5 27.5 20.5t16.5 47.5zM95 370l40 281h38q14 0 22 -13t3 -42l-25 -176q-7 -50 -35 -50h-43z
M147 740l-45 86h50l24 -60l41 60h51l-69 -86h-52z" />
    <glyph glyph-name="rcaron" unicode="&#x159;" horiz-adv-x="202" 
d="M137 453q11 0 18 -11t3 -34l-17 -117h53l17 118q6 36 -2 60q-9 29 -45 29h-3q-14 0 -29 -8.5t-29 -22.5l4 28h-53l-69 -495h52l57 402l1 5q5 20 17 33t23 13h2zM112 537l-44 86h50l24 -60l41 60h51l-70 -86h-52z" />
    <glyph glyph-name="Sacute" unicode="&#x15a;" 
d="M171 417l26 185q5 30 -3 42.5t-21 12.5h-6q-13 0 -24 -12.5t-16 -42.5l-14 -94q-4 -32 1.5 -58t16.5 -49.5t24.5 -46t24.5 -46t16.5 -50t0.5 -58.5l-16 -112q-8 -51 -37 -72.5t-61 -21.5h-14q-15 0 -29.5 5.5t-25 16.5t-15.5 29t-2 43l27 194h52l-26 -185q-5 -30 4 -42.5
t23 -12.5h6q14 0 26 12.5t16 42.5l14 94q7 47 -8 83t-34.5 69.5t-34 70t-7.5 85.5l16 111q8 51 37.5 73t60.5 22h11q15 0 29.5 -5.5t25 -17t15 -29.5t1.5 -43l-28 -193h-52zM163 738l54 86h50l-68 -86h-36z" />
    <glyph glyph-name="sacute" unicode="&#x15b;" horiz-adv-x="199" 
d="M140 300l15 108q3 22 -3.5 33.5t-17.5 11.5h-5q-11 0 -21.5 -11.5t-13.5 -33.5l-8 -55q-3 -22 3 -39t16.5 -32t23 -29.5t23 -30t16 -34.5t2.5 -43l-8 -60q-6 -42 -31.5 -65t-56.5 -23h-15q-32 0 -50.5 23t-12.5 65l15 110h47l-14 -109q-4 -22 3.5 -33.5t20.5 -11.5h7
q11 0 21 11.5t13 33.5l8 56q3 20 -3 36.5t-16.5 31.5t-23.5 29t-23.5 30.5t-16 35.5t-2.5 44l9 60q6 42 31.5 65.5t57.5 23.5h9q32 0 51 -23.5t13 -65.5l-15 -109h-48zM121 535l55 86h50l-69 -86h-36z" />
    <glyph glyph-name="Scircumflex" unicode="&#x15c;" 
d="M171 417l26 185q4 30 -3.5 42.5t-20.5 12.5h-7q-13 0 -24 -12.5t-16 -42.5l-13 -94q-4 -32 1.5 -58t16.5 -49.5t24 -46t24 -46t16.5 -50t1.5 -58.5l-17 -112q-3 -25 -13 -43t-23.5 -29t-29 -16.5t-31.5 -5.5h-14q-15 0 -30 5.5t-25.5 16.5t-15.5 29t-1 43l27 194h51
l-25 -185q-5 -30 4 -42.5t22 -12.5h6q14 0 26 12.5t17 42.5l13 94q4 31 -1.5 57.5t-16.5 49.5t-24 45.5t-24 46t-17 50t-1 59.5l17 111q7 50 37 72.5t61 22.5h10q15 0 29.5 -5.5t25 -17t15.5 -29.5t1 -43l-27 -193h-52zM219 824l46 -86h-51l-24 59l-41 -59h-50l68 86h52z
" />
    <glyph glyph-name="scircumflex" unicode="&#x15d;" horiz-adv-x="199" 
d="M140 300l15 108q3 22 -3.5 33.5t-17.5 11.5h-5q-11 0 -21.5 -11.5t-13.5 -33.5l-8 -55q-3 -22 3 -39t16.5 -32t23 -29.5t23 -30t16 -34.5t2.5 -43l-8 -60q-6 -42 -31.5 -65t-56.5 -23h-15q-32 0 -50.5 23t-12.5 65l15 110h47l-14 -109q-4 -22 3.5 -33.5t20.5 -11.5h7
q11 0 21 11.5t13 33.5l8 56q3 20 -3 36.5t-16.5 31.5t-23.5 29t-23.5 30.5t-16 35.5t-2.5 44l9 60q6 42 31.5 65.5t57.5 23.5h9q32 0 51 -23.5t13 -65.5l-15 -109h-48zM179 621l44 -86h-50l-24 59l-41 -59h-51l70 86h52z" />
    <glyph glyph-name="Scedilla" unicode="&#x15e;" 
d="M12 -70q9 -7 21.5 -10t24.5 -1.5t21 7.5t10 18q1 14 -12.5 18t-26.5 -4l-11 4l19 33q-14 1 -26.5 7t-21.5 17.5t-12.5 28.5t-0.5 40l26 194h52l-26 -185q-5 -30 4 -42.5t23 -12.5h6q14 0 26 12.5t16 42.5l14 94q4 31 -1.5 57.5t-16.5 49.5t-24 45.5t-24 46t-17 50
t-1 59.5l16 111q4 25 14 43t24 29.5t30 17t31 5.5h10q15 0 29.5 -5.5t25 -17t15.5 -29.5t1 -43l-28 -193h-52l27 185q4 30 -4 42.5t-21 12.5h-6q-13 0 -24 -12.5t-16 -42.5l-13 -94q-5 -32 1 -58t17 -49.5t24 -46t24 -46t16.5 -50t0.5 -58.5l-16 -112q-7 -48 -33.5 -69.5
t-56.5 -23.5l-9 -21q19 8 34 -0.5t12 -28.5q-3 -24 -19.5 -37t-37 -17t-39.5 0t-28 13z" />
    <glyph glyph-name="scedilla" unicode="&#x15f;" horiz-adv-x="199" 
d="M4 -68q8 -7 20.5 -10t24.5 -1.5t21 7.5t10 18q1 14 -13 18t-26 -4l-11 4l21 33q-29 2 -45 25t-11 63l15 110h48l-16 -109q-3 -22 4.5 -33.5t20.5 -11.5h7q11 0 21 11.5t13 33.5l9 56q4 31 -10.5 53t-33 44t-32.5 47.5t-9 62.5l9 60q5 42 31 65.5t58 23.5h9
q32 0 50.5 -23.5t13.5 -65.5l-16 -109h-48l16 108q3 22 -4 33.5t-18 11.5h-5q-11 0 -21 -11.5t-13 -33.5l-8 -55q-3 -22 3 -39t16.5 -32t23 -29.5t23 -30t16 -34.5t2.5 -43l-9 -60q-5 -39 -28 -62t-51 -25l-11 -22q20 8 35 -0.5t13 -28.5q-4 -24 -20.5 -37t-37 -17t-39.5 0
t-28 13z" />
    <glyph glyph-name="Scaron" unicode="&#x160;" 
d="M223 417l27 193q4 25 -1 43t-15 29.5t-24.5 17t-29.5 5.5h-11q-31 0 -60.5 -22t-37.5 -73l-16 -111q-7 -49 7.5 -85.5t34 -70t34.5 -69.5t8 -83l-14 -94q-5 -30 -16.5 -42.5t-25.5 -12.5h-6q-14 0 -23 12.5t-4 42.5l26 185h-52l-27 -194q-3 -25 2 -43t15.5 -29t25 -16.5
t29.5 -5.5h14q32 0 61 21.5t37 72.5l16 112q4 32 -1.5 58.5t-16.5 50t-24 46t-24 46t-16.5 49.5t-1.5 58l13 94q5 30 16 42.5t24 12.5h7q13 0 21 -12.5t3 -42.5l-26 -185h52zM155 740l-45 86h51l24 -60l41 60h50l-69 -86h-52z" />
    <glyph glyph-name="scaron" unicode="&#x161;" horiz-adv-x="199" 
d="M188 300l15 109q7 42 -12.5 65.5t-51.5 23.5h-9q-32 0 -57.5 -23.5t-31.5 -65.5l-8 -60q-4 -25 2 -44t16.5 -35.5t23 -30.5t23 -29t16.5 -31.5t3 -36.5l-7 -56q-4 -22 -14 -33.5t-21 -11.5h-7q-13 0 -20 11.5t-4 33.5l15 109h-48l-15 -110q-6 -42 13 -65t51 -23h15
q30 0 55.5 23t31.5 65l9 60q5 36 -9.5 61t-32.5 47t-33 45t-10 55l8 55q3 22 13.5 33.5t21.5 11.5h5q11 0 17.5 -11.5t3.5 -33.5l-15 -108h48zM114 537l-45 86h51l24 -60l41 60h50l-69 -86h-52z" />
    <glyph glyph-name="Tcedilla" unicode="&#x162;" horiz-adv-x="194" 
d="M218 651h-65l-93 -651h-57l93 651h-66l7 48h188zM-41 -91l9 26q9 -7 21.5 -10t24.5 -1.5t21 7.5t10 18q0 14 -13 18t-26 -4l-11 4l20 33h32l-10 -21q18 8 33.5 -0.5t12.5 -28.5q-3 -24 -19.5 -37t-37 -17t-39.5 0t-28 13z" />
    <glyph glyph-name="tcedilla" unicode="&#x163;" horiz-adv-x="138" 
d="M145 657l-23 -162h42l-6 -45h-43l-51 -365q-3 -24 6.5 -36t29.5 -8l-6 -43q-2 0 -5 -0.5t-5 -0.5l-9 -17q19 8 34.5 -0.5t12.5 -28.5q-3 -24 -19.5 -37t-37 -17t-39.5 -0.5t-28 12.5l9 26q9 -6 21.5 -9t24.5 -1.5t21 7.5t9 18q1 13 -12.5 17t-25.5 -4l-12 5l21 32
q-28 7 -38 30t-5 55l52 365h-25l6 45h25l23 157z" />
    <glyph glyph-name="Tcaron" unicode="&#x164;" horiz-adv-x="194" 
d="M226 699h-189l-7 -48h66l-92 -651h56l93 651h65zM111 740l-45 86h51l24 -60l41 60h50l-69 -86h-52z" />
    <glyph glyph-name="tcaron" unicode="&#x165;" horiz-adv-x="208" 
d="M145 657l-23 -162h42l-7 -45h-42l-52 -365q-3 -24 6.5 -36t29.5 -8l-6 -43q-51 -6 -69.5 19.5t-12.5 67.5l51 365h-25l7 45h25l22 157zM239 570l-31 -59h-24l23 59h-26l13 86h58z" />
    <glyph glyph-name="_0144" unicode="&#x166;" horiz-adv-x="194" 
d="M181 327h-46l-46 -327h-57l46 327h-45l5 39h46l41 285h-66l7 48h188l-7 -48h-65l-41 -285h45z" />
    <glyph glyph-name="tbar" unicode="&#x167;" horiz-adv-x="138" 
d="M145 657l-24 -162h43l-7 -45h-42l-12 -85h43l-7 -45h-43l-33 -235q-3 -24 6.5 -36t29.5 -8l-6 -43q-51 -6 -69.5 19.5t-12.5 67.5l33 235h-25l7 45h24l12 85h-25l7 45h25l22 157z" />
    <glyph glyph-name="Utilde" unicode="&#x168;" horiz-adv-x="222" 
d="M67 -6q-15 0 -29 5.5t-24.5 16.5t-15.5 29t-1 43l86 611h57l-86 -602q-4 -30 3.5 -42.5t20.5 -12.5h7q13 0 24 12.5t16 42.5l85 602h57l-86 -611q-8 -50 -37.5 -72t-60.5 -22h-16zM100 779q20 30 47 30q17 0 30.5 -10t30.5 -10q14 0 29 14l24 -17q-13 -17 -24.5 -23.5
t-24.5 -6.5q-18 0 -32 10t-28 10q-8 0 -15.5 -3t-16.5 -11z" />
    <glyph glyph-name="utilde" unicode="&#x169;" horiz-adv-x="202" 
d="M69 41q-11 0 -18 11t-3 34l57 409h-53l-57 -410q-6 -42 4 -65t42 -23h3q14 0 29 8.5t29 22.5l-4 -28h53l70 495h-53l-57 -402l-9 -65q19 18 32.5 43t17.5 49l-41 -27q-3 -23 -16 -37.5t-24 -14.5h-2zM69 575q11 16 23.5 23t24.5 7q17 0 30.5 -10t30.5 -10q14 0 29 14
l24 -17q-13 -17 -25 -23.5t-25 -6.5q-17 0 -31 10t-28 10q-8 0 -16 -3t-16 -11z" />
    <glyph glyph-name="Umacron" unicode="&#x16a;" horiz-adv-x="222" 
d="M67 -6q-15 0 -29 5.5t-24.5 16.5t-15.5 29t-1 43l86 611h57l-86 -602q-4 -30 3.5 -42.5t20.5 -12.5h7q13 0 24 12.5t16 42.5l85 602h57l-86 -611q-8 -50 -37.5 -72t-60.5 -22h-16zM239 763h-127l6 40h126z" />
    <glyph glyph-name="umacron" unicode="&#x16b;" horiz-adv-x="202" 
d="M71 41q11 0 22 12.5t16 33.5l59 408h53l-71 -495h-53l4 27q-14 -14 -28.5 -22t-28.5 -8h-3q-32 0 -42.5 23t-3.5 65l57 410h53l-58 -409q-3 -23 3.5 -34t17.5 -11h3zM208 559h-127l6 40h127z" />
    <glyph glyph-name="Ubreve" unicode="&#x16c;" horiz-adv-x="222" 
d="M67 -6q-15 0 -29 5.5t-24.5 16.5t-15.5 29t-2 43l87 611h57l-86 -602q-4 -30 3.5 -42.5t20.5 -12.5h7q13 0 24 12.5t15 42.5l86 602h57l-87 -611q-8 -51 -37 -72.5t-61 -21.5h-15zM154 815q-2 -12 5.5 -21.5t19.5 -9.5q13 0 23.5 9.5t12.5 21.5h34q-4 -26 -25.5 -45
t-49.5 -19q-24 0 -40.5 19t-12.5 45h33z" />
    <glyph glyph-name="ubreve" unicode="&#x16d;" horiz-adv-x="202" 
d="M69 41q-11 0 -18 11t-3 34l57 409h-53l-57 -410q-6 -42 4 -65t42 -23h3q14 0 29 8.5t29 22.5l-4 -28h53l70 495h-53l-57 -402l-9 -65q19 18 33 43t18 49l-42 -27q-3 -23 -16 -37.5t-24 -14.5h-2zM125 611q-2 -12 5.5 -21.5t19.5 -9.5q13 0 23.5 9.5t12.5 21.5h34
q-4 -26 -26 -45t-49 -19q-25 0 -41 19t-12 45h33z" />
    <glyph glyph-name="Uring" unicode="&#x16e;" horiz-adv-x="222" 
d="M66 -6q-15 0 -29 5.5t-24.5 16.5t-15 29t-0.5 43l86 611h57l-86 -602q-5 -30 3 -42.5t21 -12.5h6q13 0 24 12.5t16 42.5l86 602h57l-87 -611q-8 -50 -37.5 -72t-60.5 -22h-16zM171 731q-23 0 -38.5 17.5t-12.5 40.5q4 25 24 43.5t44 18.5q25 0 40.5 -18t11.5 -44
q-3 -23 -23 -40.5t-46 -17.5zM184 821q-11 0 -22 -9.5t-13 -21.5q-2 -11 6.5 -20.5t19.5 -9.5q13 0 23 9.5t12 20.5q2 12 -6 21.5t-20 9.5z" />
    <glyph glyph-name="uring" unicode="&#x16f;" horiz-adv-x="202" 
d="M69 41q-11 0 -18 11t-3 34l57 409h-53l-57 -410q-6 -42 4.5 -65t41.5 -23h3q14 0 29 8.5t29 22.5l-4 -28h53l70 495h-53l-57 -402l-9 -65q19 18 33 43t18 49l-42 -27q-3 -23 -16 -37.5t-24 -14.5h-2zM142 527q-23 0 -38.5 17.5t-12.5 40.5q4 25 24 43.5t43 18.5
q25 0 41 -18t12 -44q-3 -23 -23 -40.5t-46 -17.5zM154 617q-11 0 -21.5 -9.5t-12.5 -21.5q-2 -11 6.5 -20.5t19.5 -9.5q12 0 22.5 9.5t12.5 20.5q2 12 -6 21.5t-21 9.5z" />
    <glyph glyph-name="Uhungarumlaut" unicode="&#x170;" horiz-adv-x="222" 
d="M67 -6q-15 0 -29 5.5t-24.5 16.5t-15.5 29t-1 43l86 611h57l-86 -602q-4 -30 4 -42.5t20 -12.5h7q13 0 24 12.5t16 42.5l85 602h57l-87 -611q-8 -51 -37 -72.5t-61 -21.5h-15zM108 735l55 86h51l-70 -86h-36zM178 735l55 86h51l-70 -86h-36z" />
    <glyph glyph-name="uhungarumlaut" unicode="&#x171;" horiz-adv-x="202" 
d="M71 41q11 0 24 14.5t16 37.5l42 27q-4 -24 -18 -49t-33 -43l9 65l57 402h53l-70 -495h-53l4 28q-14 -14 -29 -22.5t-29 -8.5h-3q-32 0 -42 23t-4 65l57 410h53l-57 -409q-4 -23 3 -34t18 -11h2zM88 531l54 86h51l-70 -86h-35zM158 531l54 86h51l-70 -86h-35z" />
    <glyph glyph-name="Uogonek" unicode="&#x172;" horiz-adv-x="222" 
d="M118 -70q-11 -17 -28 -24.5t-32.5 -6t-26.5 13t-8 31.5q6 30 36 51q-28 2 -48 24t-14 69l86 611h57l-85 -602q-5 -30 2.5 -42.5t20.5 -12.5h7q13 0 24 12.5t16 42.5l85 602h57l-86 -611q-8 -50 -37.5 -72t-60.5 -22h-16q-2 0 -4 0.5t-4 0.5h1l45 3q-18 -8 -32.5 -22.5
t-16.5 -25.5q-2 -20 14.5 -22t29.5 15z" />
    <glyph glyph-name="uogonek" unicode="&#x173;" horiz-adv-x="202" 
d="M71 41q11 0 24 14.5t16 37.5l58 402h53l-71 -495h2q-18 -6 -30.5 -19.5t-14.5 -24.5q-2 -20 14.5 -22t30.5 15l17 -13q-11 -17 -28 -24.5t-32.5 -6t-26 13t-7.5 31.5q2 15 11 27t24 23h-13l4 28q-14 -14 -29 -22.5t-29 -8.5h-3q-31 0 -41 23t-5 65l58 410h53l-59 -409
q-3 -23 4 -34t18 -11h2z" />
    <glyph glyph-name="Wcircumflex" unicode="&#x174;" horiz-adv-x="325" 
d="M19 0l47 699h54l-35 -505h1l118 505h47l-20 -505h1l108 505h50l-152 -699h-57l16 477h-1l-114 -477h-63zM271 824l44 -86h-50l-24 59l-41 -59h-51l70 86h52z" />
    <glyph glyph-name="wcircumflex" unicode="&#x175;" horiz-adv-x="308" 
d="M17 0l21 495h49l-17 -358h2l97 358h47l-5 -358h1l85 358h45l-121 -495h-59l10 380h-1l-96 -380h-58zM236 620l44 -86h-50l-24 59l-41 -59h-51l70 86h52z" />
    <glyph glyph-name="Ycircumflex" unicode="&#x176;" horiz-adv-x="213" 
d="M130 266l-38 -266h-57l38 266l-13 433h57l2 -303h2l89 303h57zM208 824l44 -86h-50l-24 59l-41 -59h-51l70 86h52z" />
    <glyph glyph-name="ycircumflex" unicode="&#x177;" horiz-adv-x="179" 
d="M170 495h44l-165 -660h-52l43 165l-1 495h48l-7 -346h2zM173 620l45 -86h-51l-24 59l-41 -59h-50l69 86h52z" />
    <glyph glyph-name="Ydieresis" unicode="&#x178;" horiz-adv-x="213" 
d="M274 699h-57l-88 -303h-2l-3 303h-57l14 -433l-38 -266h57l38 266zM162 750h-38l9 66h38zM233 750h-38l9 66h38z" />
    <glyph glyph-name="Zacute" unicode="&#x179;" horiz-adv-x="210" 
d="M161 0h-189l6 41l210 615h-106l7 43h163l-6 -41l-211 -615h132zM153 738l54 86h51l-70 -86h-35z" />
    <glyph glyph-name="zacute" unicode="&#x17a;" horiz-adv-x="170" 
d="M133 0h-164l6 43l169 409h-100l6 43h152l-6 -43l-169 -409h113zM112 535l55 86h50l-69 -86h-36z" />
    <glyph glyph-name="Zdotaccent" unicode="&#x17b;" horiz-adv-x="210" 
d="M161 0h-189l6 41l210 615h-106l7 43h163l-6 -41l-210 -615h132zM191 751h-38l9 66h38z" />
    <glyph glyph-name="zdotaccent" unicode="&#x17c;" horiz-adv-x="170" 
d="M134 0h-165l6 43l169 409h-100l6 43h152l-6 -43l-169 -409h113zM151 547h-38l9 67h38z" />
    <glyph glyph-name="Zcaron" unicode="&#x17d;" horiz-adv-x="210" 
d="M166 0h-189l6 41l210 615h-105l6 43h163l-6 -41l-211 -615h132zM150 740l-44 86h50l24 -60l41 60h51l-70 -86h-52z" />
    <glyph glyph-name="zcaron" unicode="&#x17e;" horiz-adv-x="170" 
d="M133 0h-165l7 43l169 409h-101l6 43h152l-5 -43l-170 -409h113zM104 537l-45 86h51l23 -60l42 60h50l-69 -86h-52z" />
    <glyph glyph-name="longs" unicode="&#x17f;" horiz-adv-x="159" 
d="M53 495h25l17 122q3 21 12.5 39.5t25.5 30.5t38.5 16.5t50.5 -2.5l-6 -42q-10 2 -21.5 0.5t-21 -7t-16.5 -15.5t-9 -24l-88 -613h-52l63 450h-25z" />
    <glyph glyph-name="florin" unicode="&#x192;" horiz-adv-x="217" 
d="M57 495h59l18 122q3 21 12.5 39.5t25.5 30.5t38 16.5t50 -2.5l-5 -42q-10 2 -21.5 0.5t-21 -7t-17 -15.5t-9.5 -24l-17 -118h61l-7 -45h-60l-13 -91l-51 -359l-12 -83q-3 -21 -13 -39.5t-26 -30.5t-38 -16.5t-49 2.5l6 42q20 -4 41.5 6.5t25.5 39.5l63 438l13 91h-60z
" />
    <glyph glyph-name="circumflex" unicode="&#x2c6;" horiz-adv-x="206" 
d="M190 677l45 -86h-50l-25 59l-40 -59h-51l69 86h52z" />
    <glyph glyph-name="caron" unicode="&#x2c7;" horiz-adv-x="226" 
d="M81 593l-46 86h51l24 -60l41 60h50l-68 -86h-52z" />
    <glyph glyph-name="breve" unicode="&#x2d8;" horiz-adv-x="188" 
d="M67 668q-2 -11 6 -20.5t20 -9.5t22.5 9.5t12.5 20.5h34q-4 -25 -25.5 -44t-48.5 -19q-25 0 -41.5 18.5t-12.5 44.5h33z" />
    <glyph glyph-name="dotaccent" unicode="&#x2d9;" horiz-adv-x="98" 
d="M63 604h-38l9 66h38z" />
    <glyph glyph-name="ring" unicode="&#x2da;" horiz-adv-x="180" 
d="M80 574q-23 0 -38.5 17.5t-12.5 41.5q4 25 24 43t44 18q25 0 40.5 -17.5t11.5 -43.5q-3 -23 -23 -41t-46 -18zM93 664q-11 0 -22 -9t-13 -22q-2 -11 6.5 -20.5t19.5 -9.5q13 0 23 9.5t12 20.5q2 13 -6 22t-20 9z" />
    <glyph glyph-name="ogonek" unicode="&#x2db;" horiz-adv-x="156" 
d="M125 -64q-11 -17 -28 -24.5t-32.5 -6t-26.5 13t-8 31.5q2 15 11.5 27t23.5 23h43q-18 -6 -30.5 -19.5t-14.5 -24.5q-2 -20 14.5 -22t29.5 15z" />
    <glyph glyph-name="tilde" unicode="&#x2dc;" 
d="M87 633q11 16 23.5 23t24.5 7q17 0 30.5 -10t30.5 -10q15 0 29 14l23 -17q-12 -17 -24 -23.5t-25 -6.5q-18 0 -31.5 10t-27.5 10q-8 0 -15.5 -3t-15.5 -11z" />
    <glyph glyph-name="hungarumlaut" unicode="&#x2dd;" horiz-adv-x="222" 
d="M94 589l53 86h51l-69 -86h-35zM24 589l53 86h51l-69 -86h-35z" />
    <glyph glyph-name="endash" unicode="&#x2013;" horiz-adv-x="326" 
d="M320 330h-286l6 39h286z" />
    <glyph glyph-name="emdash" unicode="&#x2014;" horiz-adv-x="465" 
d="M459 330h-426l5 39h426z" />
    <glyph glyph-name="quoteleft" unicode="&#x2018;" horiz-adv-x="125" 
d="M87 626l31 59h25l-24 -59h26l-12 -87h-58z" />
    <glyph glyph-name="quoteright" unicode="&#x2019;" horiz-adv-x="125" 
d="M148 595l-31 -59h-24l23 59h-26l12 86h58z" />
    <glyph glyph-name="quotesinglbase" unicode="&#x201a;" horiz-adv-x="125" 
d="M62 0l-31 -59h-24l23 59h-26l12 86h58z" />
    <glyph glyph-name="quotedblleft" unicode="&#x201c;" horiz-adv-x="228" 
d="M88 626l31 59h24l-23 -59h26l-13 -87h-58zM191 626l31 59h24l-23 -59h26l-13 -87h-58z" />
    <glyph glyph-name="quotedblright" unicode="&#x201d;" horiz-adv-x="228" 
d="M150 612l-31 -59h-24l23 59h-26l13 87h58zM253 612l-31 -59h-24l23 59h-26l13 87h58z" />
    <glyph glyph-name="quotedblbase" unicode="&#x201e;" horiz-adv-x="228" 
d="M61 0l-31 -59h-24l23 59h-26l12 87h58zM164 0l-31 -59h-24l23 59h-26l12 87h58z" />
    <glyph glyph-name="dagger" unicode="&#x2020;" horiz-adv-x="194" 
d="M190 699l-38 -264h51l-7 -45h-51l-79 -555h-52l79 555h-51l7 45h50l38 264h53z" />
    <glyph glyph-name="daggerdbl" unicode="&#x2021;" horiz-adv-x="194" 
d="M189 699l-38 -264h51l-6 -45h-51l-35 -247h51l-6 -44h-52l-37 -264h-53l37 264h-49l6 44h50l35 247h-50l6 45h50l38 264h53z" />
    <glyph glyph-name="bullet" unicode="&#x2022;" horiz-adv-x="137" 
d="M63 197q-22 0 -34 15.5t-9 35.5q3 23 20.5 37t36.5 14q23 0 35 -16t9 -35q-3 -23 -21 -37t-37 -14z" />
    <glyph glyph-name="ellipsis" unicode="&#x2026;" horiz-adv-x="324" 
d="M55 0h-58l12 86h58zM158 0h-58l12 86h58zM261 0h-58l12 86h58z" />
    <glyph glyph-name="perthousand" unicode="&#x2030;" horiz-adv-x="594" 
d="M378 699l-347 -699h41l348 699h-42zM93 304q-27 0 -43.5 20t-11.5 57l35 246q5 38 28 58t50 20h13q28 0 44.5 -20t11.5 -58l-35 -246q-5 -37 -28 -57t-50 -20h-14zM150 669q-11 0 -21 -10.5t-13 -33.5l-35 -242q-3 -23 4 -33t18 -10h6q11 0 20.5 10t12.5 33l35 242
q3 23 -3.5 33.5t-17.5 10.5h-6zM288 -6q-27 0 -43.5 20t-11.5 58l36 249q5 37 27.5 57t49.5 20h14q27 0 44 -20t12 -57l-36 -249q-5 -38 -28 -58t-50 -20h-14zM346 362q-11 0 -21 -10t-14 -33l-35 -246q-3 -23 4 -33t18 -10h6q11 0 20.5 10t12.5 33l35 246q4 23 -2.5 33
t-17.5 10h-6zM460 -6q-27 0 -43.5 20t-11.5 58l35 249q6 37 28.5 57t49.5 20h13q28 0 44.5 -20t11.5 -57l-35 -249q-5 -38 -28 -58t-51 -20h-13zM518 362q-11 0 -21.5 -10t-13.5 -33l-35 -246q-3 -23 4 -33t18 -10h6q11 0 20.5 10t12.5 33l35 246q3 23 -3 33t-17 10h-6z" />
    <glyph glyph-name="guilsinglleft" unicode="&#x2039;" horiz-adv-x="138" 
d="M70 44l-47 200l46 201h50l-46 -202l48 -199h-51z" />
    <glyph glyph-name="guilsinglright" unicode="&#x203a;" horiz-adv-x="138" 
d="M49 44l48 199l-45 202h50l46 -201l-48 -200h-51z" />
    <glyph glyph-name="fraction" unicode="&#x2044;" horiz-adv-x="210" 
d="M208 699h48l-255 -699h-48z" />
    <glyph glyph-name="franc" unicode="&#x20a3;" horiz-adv-x="218" 
d="M166 651l-40 -280h71l-6 -43h-71l-19 -127h32l-6 -39h-31l-23 -162h-56l23 162h-31l6 39h30l71 498h148l-7 -48h-91z" />
    <glyph glyph-name="uni20A6" unicode="&#x20a6;" horiz-adv-x="329" 
d="M334 422l-6 -39h-36l-9 -63h36l-5 -39h-36l-40 -281h-65l-12 281h-47l-40 -281h-48l40 281h-42l6 39h41l9 63h-41l5 39h42l40 277h65l10 -277h45l40 277h52l-40 -277h36zM120 320h39l-2 63h-28zM205 320h27l9 63h-38zM150 526l-16 -104h21l-4 104h-1zM211 179h1l14 102
h-19z" />
    <glyph glyph-name="peseta" unicode="&#x20a7;" horiz-adv-x="296" 
d="M228 699q34 0 55.5 -24t15.5 -70l-13 -90h29l-6 -39h-29l-14 -101q-6 -43 -31.5 -61.5t-59.5 -18.5h-48l-42 -295h-57l68 476h-43l6 39h42l27 184h100zM158 515h70l12 81q5 29 -3 42t-21 13h-38zM223 476h-70l-19 -134h43q28 0 34 50z" />
    <glyph glyph-name="uni20A9" unicode="&#x20a9;" horiz-adv-x="413" 
d="M84 315l5 73h-49l6 39h46l19 272h54l-19 -272h39l64 272h47l-11 -272h42l58 272h50l-59 -272h43l-5 -39h-47l-16 -73h52l-5 -39h-55l-60 -276h-57l9 276h-43l-66 -276h-63l19 276h-57l5 39h54zM303 315l15 73h-35l-3 -73h23zM159 315l17 73h-33l-5 -73h21zM202 315h35
l2 73h-20zM131 194l19 82h-15l-6 -82h2zM277 194l17 82h-15l-3 -82h1zM229 427h11l2 50h-1z" />
    <glyph glyph-name="Euro" unicode="&#x20ac;" horiz-adv-x="253" 
d="M171 303h-55l-29 -206q-5 -30 3 -42.5t21 -12.5h7q13 0 23.5 12.5t15.5 42.5l27 186h57l-28 -195q-8 -50 -37.5 -72t-60.5 -22h-16q-15 0 -29.5 5.5t-24.5 16.5t-15 29t-1 43l30 215h-30l3 24h31l6 45h-30l3 25h31l30 213q8 51 37.5 73t60.5 22h16q15 0 29.5 -5.5
t24.5 -17t15 -29.5t1 -43l-27 -193h-57l26 185q5 30 -3 42.5t-21 12.5h-7q-13 0 -23.5 -12.5t-15.5 -42.5l-29 -205h55l-4 -25h-55l-6 -45h55z" />
    <glyph glyph-name="uni20B9" unicode="&#x20b9;" horiz-adv-x="300" 
d="M67 566h157l5 33q4 29 -5 41t-26 14h-118l7 45h133h6h121l-7 -45h-59q5 -21 2 -44l-7 -44h52l-6 -44h-52l-14 -101q-3 -21 -12 -37.5t-22 -28t-27.5 -17.5t-29.5 -6h-57l89 -332h-63l-89 339l4 33h101q21 0 35.5 14t18.5 41l14 95h-157z" />
    <glyph glyph-name="trademark" unicode="&#x2122;" horiz-adv-x="257" 
d="M306 699l-44 -307h-25l32 222l-58 -222h-21l8 222h-1l-32 -222h-25l44 307h41l-11 -227l55 227h37zM164 671h-25l-40 -279h-32l40 279h-25l4 28h82z" />
    <glyph glyph-name="minus" unicode="&#x2212;" horiz-adv-x="241" 
d="M241 369l-6 -39h-201l6 39h201z" />
    <glyph glyph-name="fi" unicode="&#xfb01;" horiz-adv-x="213" 
d="M15 0l63 450h-25l6 45h26l17 122q3 21 12.5 39.5t25.5 30.5t38.5 16.5t50.5 -2.5l-6 -42q-10 2 -21.5 0.5t-21 -7t-17 -15.5t-9.5 -24l-17 -118h98l-70 -495h-53l63 450h-44l-64 -450h-52z" />
    <glyph glyph-name="fl" unicode="&#xfb02;" horiz-adv-x="248" 
d="M14 0l63 450h-25l6 45h26l17 122q3 21 12.5 39.5t25.5 30.5t38.5 16.5t50.5 -2.5l-6 -42q-10 2 -21.5 0.5t-21 -7t-17 -15.5t-9.5 -24l-17 -118h62l-6 -45h-62l-64 -450h-52zM151 0h53l100 699h-53z" />
    <glyph glyph-name="_0007" horiz-adv-x="0" 
 />
    <glyph glyph-name="_0024" horiz-adv-x="0" 
 />
    <glyph glyph-name="quoteaccent" horiz-adv-x="0" 
d="M55 646l24 46h23l-19 -46h14l-9 -65h-41z" />
    <glyph glyph-name="accent margin" horiz-adv-x="0" 
d="M90 699h12l-18 -125h-12z" />
    <glyph glyph-name="ucircumflex.001" horiz-adv-x="202" 
d="M71 41q11 0 24 14.5t16 37.5l41 27q-4 -24 -17.5 -49t-32.5 -43l9 65l57 402h53l-70 -495h-53l4 28q-14 -14 -29 -22.5t-29 -8.5h-3q-32 0 -42 23t-4 65l57 410h53l-57 -409q-4 -23 3 -34t18 -11h2zM181 620l45 -86h-51l-24 59l-41 -59h-50l69 86h52z" />
    <glyph glyph-name="uacute.001" horiz-adv-x="202" 
d="M71 41q11 0 24 14.5t16 37.5l41 27q-4 -24 -17.5 -49t-32.5 -43l9 65l57 402h53l-70 -495h-53l4 28q-14 -14 -29 -22.5t-29 -8.5h-3q-32 0 -42 23t-4 65l57 410h53l-57 -409q-4 -23 3 -34t18 -11h2zM124 534l54 86h51l-70 -86h-35z" />
    <glyph glyph-name="ugrave.001" horiz-adv-x="202" 
d="M69 41q-11 0 -18 11t-3 34l57 409h-53l-57 -410q-6 -42 4 -65t42 -23h3q14 0 29 8.5t29 22.5l-4 -28h53l70 495h-53l-57 -402l-9 -65q19 18 32.5 43t17.5 49l-41 -27q-3 -23 -16 -37.5t-24 -14.5h-2zM125 534l-44 86h50l30 -86h-36z" />
    <glyph glyph-name="udieresis.001" horiz-adv-x="202" 
d="M68 41q-11 0 -17.5 11t-3.5 34l58 409h-53l-57 -410q-7 -42 3.5 -65t42.5 -23h3q14 0 28.5 8t28.5 22l-4 -27h53l71 495h-53l-59 -408q-5 -21 -16 -33.5t-22 -12.5h-3zM198 546h-38l10 66h38zM127 546h-38l10 66h38z" />
    <glyph glyph-name="iacute.001" horiz-adv-x="90" 
d="M109 495l-71 -495h-52l70 495h53zM69 534l55 86h50l-69 -86h-36z" />
    <glyph glyph-name="_0158" horiz-adv-x="0" 
 />
    </font>
</defs>
</svg>
