<?xml version="1.0" standalone="no"?>
<!DOCTYPE svg PUBLIC "-//W3C//DTD SVG 1.1//EN" "http://www.w3.org/Graphics/SVG/1.1/DTD/svg11.dtd" >
<svg xmlns="http://www.w3.org/2000/svg" xmlns:xlink="http://www.w3.org/1999/xlink" version="1.1">
<metadata>
Created by FontForge 20170731 at Mon Jun 25 01:10:14 2018
 By Aleksey,,,
Copyright (c) 2018 by Rajesh Rajput. All rights reserved.
</metadata>
<defs>
<font id="Morganite-LightItalic" horiz-adv-x="205" >
  <font-face 
    font-family="Morganite"
    font-weight="300"
    font-style="italic"
    font-stretch="normal"
    units-per-em="1000"
    panose-1="0 0 0 0 0 0 0 0 0 0"
    ascent="750"
    descent="-250"
    x-height="495"
    cap-height="699"
    bbox="-50 -171 557.19 844"
    underline-thickness="52"
    underline-position="-152"
    slope="-15"
    unicode-range="U+000D-FB02"
  />
<missing-glyph horiz-adv-x="132" 
 />
    <glyph glyph-name=".notdef" horiz-adv-x="132" 
 />
    <glyph glyph-name=".null" horiz-adv-x="0" 
 />
    <glyph glyph-name="nonmarkingreturn" unicode="&#xd;" horiz-adv-x="132" 
 />
    <glyph glyph-name="NULL" horiz-adv-x="0" 
 />
    <glyph glyph-name="NULL" horiz-adv-x="0" 
 />
    <glyph glyph-name="space" unicode=" " horiz-adv-x="132" 
 />
    <glyph glyph-name="exclam" unicode="!" horiz-adv-x="104" 
d="M49 109h-27l41 322l38 268h36l-38 -268zM39 0h-37l11 75h36z" />
    <glyph glyph-name="quotedbl" unicode="&#x22;" horiz-adv-x="198" 
d="M130 624l-27 -56h-16l23 56h-16l11 75h36zM214 624l-28 -56h-16l23 56h-16l11 75h36z" />
    <glyph glyph-name="numbersign" unicode="#" horiz-adv-x="292" 
d="M244 224h-41l-51 -224h-33l51 224h-66l-51 -224h-31l51 224h-49l7 30h49l43 189h-48l7 30h48l52 226h32l-52 -226h66l52 226h33l-52 -226h42l-8 -30h-41l-44 -189h42zM111 254h66l44 189h-66z" />
    <glyph glyph-name="dollar" unicode="$" 
d="M54 -6q-25 2 -42.5 23t-11.5 65l28 200h33l-27 -195q-5 -35 6 -49t27 -14h8q16 0 31.5 14.5t20.5 48.5l15 105q4 30 -1.5 56t-16 50t-23.5 47.5t-23.5 47.5t-16.5 51t-1 58l15 115q6 44 30.5 65t50.5 23l7 50h25l-8 -50q25 -2 43 -23t11 -65l-28 -200h-33l28 195
q5 34 -6 48.5t-26 14.5h-8q-16 0 -31 -14.5t-20 -48.5l-14 -104q-7 -46 7.5 -83t33 -72t33 -72.5t8.5 -83.5l-16 -115q-7 -46 -32.5 -66.5t-51.5 -21.5l-6 -51h-25z" />
    <glyph glyph-name="percent" unicode="%" horiz-adv-x="408" 
d="M386 699l-359 -699h27l360 699h-28zM96 305q-23 0 -39.5 19t-11.5 55l36 252q5 36 26.5 55t45.5 19h12q24 0 40 -19t11 -55l-36 -252q-5 -36 -26.5 -55t-45.5 -19h-12zM152 682q-14 0 -27 -13t-17 -39l-35 -250q-4 -26 5.5 -39t23.5 -13h7q14 0 27 13t17 39l35 250
q4 26 -5.5 39t-22.5 13h-8zM277 -6q-24 0 -40 19t-11 55l36 256q6 37 27.5 55.5t44.5 18.5h12q24 0 40.5 -18.5t10.5 -55.5l-36 -256q-5 -36 -26.5 -55t-45.5 -19h-12zM334 375q-14 0 -27 -12.5t-18 -39.5l-36 -254q-4 -26 6 -39t24 -13h8q13 0 26 13t16 39l37 254
q4 27 -5.5 39.5t-22.5 12.5h-8z" />
    <glyph glyph-name="ampersand" unicode="&#x26;" 
d="M164 755h25l-8 -50q26 -2 44.5 -22.5t12.5 -65.5l-28 -201h-36l28 196q5 34 -6.5 48.5t-26.5 14.5h-8q-15 0 -30 -14.5t-20 -48.5l-25 -174q-5 -34 6.5 -50t28.5 -16h17l-2 -15h-1l-1 -11h-17q-17 0 -32.5 -16t-20.5 -50l-27 -193q-5 -35 5.5 -49t26.5 -14h8q15 0 30 14
t20 48l28 196h36l-29 -200q-7 -46 -32 -66.5t-51 -22.5l-7 -50h-24l7 50q-25 2 -42.5 23t-11.5 66l27 197q5 39 24 57t42 23q-21 5 -35 24.5t-8 58.5l25 175q6 44 30.5 65t49.5 23z" />
    <glyph glyph-name="quotesingle" unicode="'" horiz-adv-x="115" 
d="M130 624l-27 -56h-16l23 56h-16l11 75h36z" />
    <glyph glyph-name="parenleft" unicode="(" horiz-adv-x="199" 
d="M65 -36q-15 0 -28.5 5t-23 17t-13.5 31t0 47l81 571q4 28 13.5 47t22 31t28 17t31.5 5h50l-4 -30h-39q-27 0 -44.5 -21t-24.5 -66l-76 -537q-7 -45 5 -66t38 -21h39l-4 -30h-51z" />
    <glyph glyph-name="parenright" unicode=")" horiz-adv-x="199" 
d="M4 -36l5 30h38q26 0 44 21t24 66l77 537q7 45 -5.5 66t-38.5 21h-39l5 30h51q31 0 52 -22t13 -78l-81 -571q-4 -28 -13.5 -47t-22.5 -31t-28.5 -17t-30.5 -5h-50z" />
    <glyph glyph-name="asterisk" unicode="*" horiz-adv-x="203" 
d="M110 538l-14 11l46 61l-65 20l10 18l62 -22l9 73h20l-12 -73l70 22l3 -19l-70 -19l30 -61l-17 -10l-28 61z" />
    <glyph glyph-name="plus" unicode="+" horiz-adv-x="278" 
d="M143 362l20 136h28l-20 -136h101l-3 -25h-101l-19 -135h-28l19 135h-101l3 25h101z" />
    <glyph glyph-name="comma" unicode="," horiz-adv-x="78" 
d="M23 0l-27 -56h-16l23 56h-16l11 75h36z" />
    <glyph glyph-name="hyphen" unicode="-" horiz-adv-x="235" 
d="M231 362l-3 -25h-187l3 25h187z" />
    <glyph glyph-name="period" unicode="." horiz-adv-x="104" 
d="M38 0h-36l11 75h36z" />
    <glyph glyph-name="slash" unicode="/" horiz-adv-x="194" 
d="M226 699h30l-255 -699h-30z" />
    <glyph glyph-name="zero" unicode="0" 
d="M61 -6q-14 0 -26 5t-21 15.5t-13 27t-1 40.5l75 535q3 24 12.5 40.5t21.5 27t26 15.5t27 5h14q13 0 25.5 -5t21.5 -15.5t13 -27t1 -40.5l-75 -535q-8 -48 -34.5 -68t-53.5 -20h-13zM160 675q-15 0 -30 -14.5t-20 -48.5l-74 -525q-5 -34 6 -48.5t26 -14.5h8q15 0 30 14.5
t20 48.5l75 525q5 34 -6 48.5t-26 14.5h-9z" />
    <glyph glyph-name="one" unicode="1" horiz-adv-x="140" 
d="M34 0l92 646q-11 -7 -29.5 -14t-29.5 -7l4 28q17 0 38.5 14.5t30.5 31.5h30l-100 -699h-36z" />
    <glyph glyph-name="two" unicode="2" 
d="M47 417l28 200q7 47 33.5 67.5t53.5 20.5h10q13 0 26 -5t22.5 -15.5t13.5 -27t1 -40.5l-17 -115q-5 -31 -18 -59t-31 -58t-38.5 -63.5t-40 -75.5t-36.5 -95t-26 -121h126l-4 -30h-161l3 30q10 72 27 127.5t37 98t40.5 76t38.5 62.5t31 56t17 58l15 104q5 34 -6 48.5
t-26 14.5h-8q-15 0 -30.5 -14.5t-20.5 -48.5l-27 -195h-33z" />
    <glyph glyph-name="three" unicode="3" 
d="M106 372h17q17 0 32.5 16t20.5 50l25 174q5 34 -6 48.5t-26 14.5h-8q-16 0 -31 -14.5t-20 -48.5l-27 -196h-36l28 201q3 24 12.5 40.5t21.5 27t26 15.5t28 5h13q13 0 26 -5t22 -15.5t13 -27t0 -40.5l-24 -175q-6 -39 -25 -58.5t-42 -24.5q21 -5 35 -23.5t9 -56.5
l-28 -197q-3 -24 -12.5 -40.5t-21.5 -27.5t-26 -16t-27 -5h-14q-14 0 -26 5t-21 16t-13 27.5t-1 40.5l28 200h36l-27 -196q-5 -34 5.5 -48t25.5 -14h9q15 0 30 14t20 49l27 193q5 34 -6 50t-29 16h-17l2 15z" />
    <glyph glyph-name="four" unicode="4" horiz-adv-x="228" 
d="M191 146l-4 -30h-32l-16 -116h-31l16 116h-130l4 30l198 553h42l-79 -553h32zM192 592h-2l-157 -445v-1h96z" />
    <glyph glyph-name="five" unicode="5" 
d="M62 -6q-27 0 -47.5 20.5t-14.5 67.5l28 203h36l-27 -198q-5 -34 5.5 -48.5t25.5 -14.5h9q15 0 30 14.5t20 48.5l37 262q5 34 -6 48.5t-26 14.5h-8q-16 0 -30.5 -14.5t-19.5 -48.5l-1 -4v-1h-9v1h-27l50 354h160l-7 -30h-121l-38 -266q12 20 29 29.5t32 9.5h9
q11 0 21.5 -5t18 -15.5t10.5 -27t0 -40.5l-39 -272q-7 -47 -33.5 -67.5t-53.5 -20.5h-13z" />
    <glyph glyph-name="six" unicode="6" 
d="M61 -6q-14 0 -26 5t-21 15.5t-13 27t-1 40.5l19 139l9 64l47 332q3 24 12.5 40.5t21.5 27t26 15.5t28 5h11q13 0 25.5 -5t21.5 -15.5t13 -27t1 -40.5l-19 -141h-34l18 136q5 34 -6 48.5t-26 14.5h-7q-16 0 -31 -14.5t-20 -48.5l-31 -212q12 22 29 32t33 10h9q11 0 22 -5
t18.5 -15.5t10.5 -27t0 -40.5l-39 -272q-3 -24 -12.5 -40.5t-21.5 -27t-26 -15.5t-27 -5h-14zM64 285l-27 -198q-5 -34 5.5 -48.5t25.5 -14.5h9q15 0 30 14.5t20 48.5l37 262q5 34 -6 48.5t-26 14.5h-8q-16 0 -31 -14.5t-20 -48.5l-1 -5h-1l-8 -59h1z" />
    <glyph glyph-name="seven" unicode="7" horiz-adv-x="175" 
d="M-24 0l201 672h-109l4 27h145l-4 -27l-200 -672h-37z" />
    <glyph glyph-name="eight" unicode="8" 
d="M61 -6q-14 0 -26 5t-21 15.5t-13 27t-1 40.5l27 195q5 33 20 53t34 29q-17 8 -26.5 28.5t-4.5 53.5l25 176q3 24 12.5 40.5t21.5 27t26 15.5t28 5h13q13 0 26 -5t22 -15.5t13 -27t0 -40.5l-24 -176q-5 -34 -20.5 -54t-34.5 -28q17 -9 26.5 -29t4.5 -53l-27 -195
q-3 -24 -12.5 -40.5t-21.5 -27t-26 -15.5t-27 -5h-14zM114 348q-15 0 -30 -14.5t-20 -48.5l-27 -198q-5 -34 5.5 -48.5t25.5 -14.5h9q15 0 30 14.5t20 48.5l28 198q5 34 -6 48.5t-26 14.5h-9zM161 675q-16 0 -31 -14.5t-20 -48.5l-25 -178q-5 -34 6 -48.5t26 -14.5h9
q15 0 30 14.5t20 48.5l25 178q5 34 -6 48.5t-26 14.5h-8z" />
    <glyph glyph-name="nine" unicode="9" 
d="M176 705q13 0 26 -5t22 -15.5t13 -27t0 -40.5l-20 -139h1l-56 -396q-3 -24 -12.5 -40.5t-21.5 -27t-26 -15.5t-27 -5h-12q-13 0 -25.5 5t-21 15.5t-12.5 27t-1 40.5l27 200h34l-27 -195q-5 -34 6 -48.5t26 -14.5h8q15 0 30 14t20 49l38 269q-12 -21 -29 -30.5t-32 -9.5
h-9q-11 0 -21.5 5t-18 15.5t-10.5 27t0 40.5l30 213q3 24 12.5 40.5t21.5 27t26 15.5t28 5h13zM201 612q5 34 -6 48.5t-26 14.5h-8q-16 0 -31 -14.5t-20 -48.5l-28 -203q-5 -35 6 -49t26 -14h8q16 0 31 14.5t20 48.5v5h1l2 18z" />
    <glyph glyph-name="colon" unicode=":" horiz-adv-x="104" 
d="M88 340h-37l11 75h36zM40 0h-36l10 75h36z" />
    <glyph glyph-name="semicolon" unicode=";" horiz-adv-x="115" 
d="M99 340h-36l11 75h36zM52 0l-28 -56h-16l23 56h-15l10 75h36z" />
    <glyph glyph-name="less" unicode="&#x3c;" horiz-adv-x="241" 
d="M217 9l-1 -1l-192 229v20l192 231l1 -1v-39l-1 -1l-160 -198v-3l160 -196l1 -1v-40z" />
    <glyph glyph-name="equal" unicode="=" horiz-adv-x="288" 
d="M291 408l-4 -25h-240l4 25h240zM279 320l-4 -25h-240l4 25h240z" />
    <glyph glyph-name="greater" unicode="&#x3e;" horiz-adv-x="241" 
d="M59 48l1 2l161 195v4l-161 197l-1 2v38l2 1l192 -231v-20l-193 -228h-1v40z" />
    <glyph glyph-name="question" unicode="?" horiz-adv-x="202" 
d="M48 417l28 200q7 47 33.5 67.5t53.5 20.5h10q13 0 26 -5t22.5 -15.5t13.5 -27t1 -40.5l-17 -115q-5 -33 -16 -59.5t-25.5 -52t-30.5 -52t-29 -59t-21.5 -74t-8.5 -96.5h-36q1 59 9.5 102.5t22 77t29 59.5t30 51t25.5 50.5t16 58.5l15 104q5 34 -6 48.5t-26 14.5h-8
q-15 0 -30.5 -14.5t-20.5 -48.5l-27 -195h-33zM73 0h-36l10 75h36z" />
    <glyph glyph-name="at" unicode="@" horiz-adv-x="329" 
d="M122 -6q-35 0 -58 12t-36 31.5t-17 43t-1 47.5l46 333q3 24 14 47.5t30 43t46 31.5t62 12h22q35 0 58 -12t36.5 -31.5t17.5 -43t1 -47.5l-47 -333q-3 -21 -19.5 -32.5t-34.5 -12.5t-33 8t-16 28q-14 -16 -29.5 -26t-29.5 -10h-3q-26 0 -38.5 20.5t-6.5 60.5l36 259
q6 40 24.5 60.5t45.5 20.5h3q13 0 25.5 -9.5t21.5 -24.5l3 18l9 15h24l-52 -361q-2 -14 3 -21.5t12.5 -7.5t14.5 7.5t9 21.5l45 317q3 17 1 36t-11 35.5t-27 27t-47 10.5h-23q-29 0 -50 -10.5t-34.5 -27t-20.5 -35.5t-9 -36l-47 -329q-2 -17 -0.5 -36t10.5 -35.5t27 -27
t47 -10.5h23q32 0 51.5 11.5t29.5 22.5l21 -18q-14 -16 -39.5 -29t-67.5 -14h-22zM150 111q14 0 30 16.5t20 43.5l11 77l25 176q1 24 -10.5 38t-23.5 14h-3q-14 0 -26.5 -13t-16.5 -40l-37 -259q-4 -27 5 -40t23 -13h3z" />
    <glyph glyph-name="A" unicode="A" horiz-adv-x="191" 
d="M118 0l8 203h-78l-49 -203h-32l169 699h46l-29 -699h-35zM54 231h73l16 362h-1z" />
    <glyph glyph-name="B" unicode="B" horiz-adv-x="202" 
d="M214 426q-5 -32 -17 -47.5t-28 -20.5q14 -4 22 -19.5t3 -47.5l-30 -210q-6 -42 -32.5 -61.5t-53.5 -19.5h-87l99 699h88q13 0 26 -5t22 -15.5t13 -27t0 -40.5zM158 289q4 29 -3.5 42.5t-22.5 13.5h-56l-45 -315h49q15 0 30 13.5t19 42.5zM135 372q34 0 43 56l25 178
q5 34 -6 48.5t-26 14.5h-50l-42 -297h56z" />
    <glyph glyph-name="C" unicode="C" horiz-adv-x="202" 
d="M59 -6q-13 0 -25.5 5t-21 15.5t-12.5 27t-1 40.5l74 535q8 48 34.5 68t53.5 20h14q13 0 25.5 -5t21.5 -15.5t13 -27t1 -40.5l-29 -200h-35l27 195q5 34 -6 48.5t-26 14.5h-8q-15 0 -30 -14.5t-20 -48.5l-74 -525q-5 -34 5.5 -48.5t26.5 -14.5h8q15 0 30 14.5t20 48.5
l28 196h36l-29 -201q-3 -24 -12.5 -40.5t-21.5 -27t-26 -15.5t-27 -5h-14z" />
    <glyph glyph-name="D" unicode="D" horiz-adv-x="207" 
d="M-9 0l99 699h88q13 0 26 -4.5t22 -14t13 -25.5t1 -40l-75 -531q-3 -24 -12 -40t-21 -25.5t-26.5 -14t-27.5 -4.5h-87zM121 669l-90 -639h49q15 0 30 12.5t20 46.5l74 521q5 34 -6.5 46.5t-26.5 12.5h-50z" />
    <glyph glyph-name="E" unicode="E" horiz-adv-x="169" 
d="M121 669l-43 -306h73l-4 -27h-73l-43 -306h97l-4 -30h-133l99 699h131l-5 -30h-95z" />
    <glyph glyph-name="F" unicode="F" horiz-adv-x="167" 
d="M121 669l-43 -306h73l-4 -27h-73l-47 -336h-36l99 699h131l-5 -30h-95z" />
    <glyph glyph-name="G" unicode="G" horiz-adv-x="202" 
d="M110 283h79l-27 -189l-2 -11l-12 -83h-19l-1 24q-15 -15 -31 -22.5t-29 -7.5h-9q-13 0 -25.5 5t-21 15.5t-12.5 27t-1 40.5l74 535q8 48 34.5 68t53.5 20h14q13 0 25.5 -5t21.5 -15.5t13 -27t1 -40.5l-29 -200h-35l27 195q5 34 -6 48.5t-26 14.5h-8q-15 0 -30 -14.5
t-20 -48.5l-74 -525q-5 -34 5.5 -48.5t26.5 -14.5h8q15 0 30 14.5t20 48.5v1l23 165h-42z" />
    <glyph glyph-name="H" unicode="H" 
d="M247 699l-100 -699h-36l48 336h-85l-47 -336h-36l99 699h36l-48 -336h85l48 336h36z" />
    <glyph glyph-name="I" unicode="I" horiz-adv-x="85" 
d="M126 699l-99 -699h-36l99 699h36z" />
    <glyph glyph-name="J" unicode="J" horiz-adv-x="208" 
d="M60 -6q-13 0 -25.5 5t-21.5 15.5t-13 27t-1 40.5l27 199h36l-27 -194q-5 -34 5.5 -48.5t25.5 -14.5h9q15 0 30 14.5t20 48.5l87 612h36l-88 -617q-7 -47 -33.5 -67.5t-53.5 -20.5h-13z" />
    <glyph glyph-name="K" unicode="K" horiz-adv-x="198" 
d="M100 364l58 -364h-33l-56 317h-1l-44 -317h-36l99 699h36l-43 -301l147 301h33z" />
    <glyph glyph-name="L" unicode="L" horiz-adv-x="113" 
d="M126 699l-95 -672h87l-4 -27h-123l99 699h36z" />
    <glyph glyph-name="M" unicode="M" horiz-adv-x="276" 
d="M318 699l-100 -699h-30l85 595l-156 -595h-29l15 595h-1l-84 -595h-30l99 699h48l-15 -571h1l150 571h47z" />
    <glyph glyph-name="N" unicode="N" horiz-adv-x="226" 
d="M130 0l-27 595h-1l-84 -595h-30l99 699h42l25 -591h1l84 591h33l-100 -699h-42z" />
    <glyph glyph-name="O" unicode="O" horiz-adv-x="202" 
d="M59 -6q-13 0 -25.5 5t-21 15.5t-12.5 27t-1 40.5l74 535q8 48 34.5 68t53.5 20h14q13 0 25.5 -5t21.5 -15.5t13 -27t1 -40.5l-76 -535q-3 -24 -12.5 -40.5t-21.5 -27t-26 -15.5t-27 -5h-14zM159 675q-15 0 -30 -14.5t-20 -48.5l-74 -525q-5 -34 5.5 -48.5t26.5 -14.5h8
q15 0 30 14.5t20 48.5l74 525q5 34 -6 48.5t-26 14.5h-8z" />
    <glyph glyph-name="P" unicode="P" horiz-adv-x="206" 
d="M178 699q29 0 48.5 -21.5t13.5 -66.5l-33 -232q-6 -40 -28 -57.5t-50 -17.5h-60l-42 -304h-36l99 699h88zM203 606q5 34 -6 48.5t-27 14.5h-49l-47 -336h56q16 0 27 14t15 43z" />
    <glyph glyph-name="Q" unicode="Q" horiz-adv-x="202" 
d="M59 -6q-13 0 -25.5 5t-21 15.5t-12.5 27t-1 40.5l74 535q3 24 12.5 40.5t21.5 27t26 15.5t28 5h13q13 0 26 -5t22 -15.5t13 -27t1 -40.5l-76 -535q-4 -27 -15 -44.5t-25 -28.5l21 -24l-22 -19l-26 31q-11 -3 -20 -3h-14zM159 675q-15 0 -30.5 -14.5t-20.5 -48.5l-73 -525
q-5 -34 5.5 -48.5t25.5 -14.5h9q15 0 30 14.5t20 48.5l74 525q5 34 -6 48.5t-26 14.5h-8z" />
    <glyph glyph-name="R" unicode="R" horiz-adv-x="207" 
d="M212 416q-5 -32 -17 -47.5t-28 -20.5q14 -4 22.5 -19.5t3.5 -47.5l-26 -179q-7 -50 -7.5 -71.5t1.5 -30.5h-36q-3 13 -1.5 35.5t7.5 66.5l26 176q7 57 -27 57h-56l-47 -335h-36l99 699h88q29 0 48.5 -21.5t13.5 -66.5zM134 362q16 0 27 13.5t15 42.5l27 188q5 34 -6 48.5
t-27 14.5h-49l-43 -307h56z" />
    <glyph glyph-name="S" unicode="S" horiz-adv-x="204" 
d="M173 417l28 195q5 34 -6 48.5t-26 14.5h-9q-15 0 -30 -14.5t-20 -48.5l-15 -104q-6 -46 8.5 -83t33 -72t33 -72.5t8.5 -83.5l-16 -115q-8 -48 -34.5 -68t-53.5 -20h-13q-13 0 -25.5 5t-21.5 15.5t-13 27t-1 40.5l28 200h32l-27 -195q-5 -35 6.5 -49t27.5 -14h8
q15 0 30.5 14.5t20.5 48.5l15 105q4 30 -1.5 56t-16 50t-23.5 47.5t-23.5 47.5t-16.5 51t-1 58l16 115q3 24 12.5 40.5t21.5 27t26 15.5t27 5h11q13 0 25.5 -5t21.5 -15.5t13 -27t1 -40.5l-28 -200h-33z" />
    <glyph glyph-name="T" unicode="T" horiz-adv-x="140" 
d="M195 669h-63l-95 -669h-36l95 669h-64l5 30h163z" />
    <glyph glyph-name="U" unicode="U" horiz-adv-x="216" 
d="M61 -6q-13 0 -25.5 5t-21.5 15.5t-13 27t-1 40.5l87 617h36l-87 -612q-5 -34 6 -48.5t26 -14.5h8q15 0 30.5 14.5t20.5 48.5l86 612h36l-87 -617q-7 -47 -33.5 -67.5t-53.5 -20.5h-14z" />
    <glyph glyph-name="V" unicode="V" horiz-adv-x="179" 
d="M209 699h32l-169 -699h-47l29 699h35l-25 -594h1z" />
    <glyph glyph-name="W" unicode="W" horiz-adv-x="312" 
d="M21 0l46 699h35l-41 -583h1l138 583h31l-22 -583h1l126 583h31l-152 -699h-37l19 566l-136 -566h-40z" />
    <glyph glyph-name="X" unicode="X" horiz-adv-x="193" 
d="M135 368l20 -368h-37l-15 295l-97 -295h-35l127 378l-28 321h36l22 -246l90 246h36z" />
    <glyph glyph-name="Y" unicode="Y" horiz-adv-x="186" 
d="M113 274l-39 -274h-36l39 274l-13 425h36l7 -342h1l104 342h36z" />
    <glyph glyph-name="Z" unicode="Z" horiz-adv-x="194" 
d="M146 0h-170l4 25l217 647h-108l4 27h145l-3 -25l-218 -647h133z" />
    <glyph glyph-name="bracketleft" unicode="[" horiz-adv-x="158" 
d="M-20 -56l115 811h90l-5 -30h-53l-106 -751h53l-5 -30h-89z" />
    <glyph glyph-name="backslash" unicode="\" horiz-adv-x="194" 
d="M156 0h-31l-56 699h30z" />
    <glyph glyph-name="bracketright" unicode="]" horiz-adv-x="158" 
d="M-2 -56l5 30h52l107 751h-53l5 30h89l-116 -811h-89z" />
    <glyph glyph-name="asciicircum" unicode="^" horiz-adv-x="244" 
d="M211 414l-1 1l-30 228h-4l-94 -228l-1 -1h-32l-1 1l117 284h42l37 -284l-1 -1h-32z" />
    <glyph glyph-name="underscore" unicode="_" horiz-adv-x="308" 
d="M252 0h-261l4 25h260z" />
    <glyph glyph-name="grave" unicode="`" horiz-adv-x="146" 
d="M89 597l-55 86h32l46 -86h-23z" />
    <glyph glyph-name="a" unicode="a" horiz-adv-x="186" 
d="M42 -3q-54 0 -42 81l16 118q5 40 23.5 60.5t44.5 20.5h3q29 0 50 -24l24 164q4 27 -5.5 40t-23.5 13h-7q-14 0 -27.5 -13t-17.5 -40l-18 -126h-33l18 126q6 40 29 60.5t50 20.5h13q26 0 43.5 -21t11.5 -60l-59 -417h-34l3 24q-14 -13 -29.5 -20t-28.5 -7h-4zM93 252
q-14 0 -27 -13t-17 -40l-17 -124q-3 -27 5.5 -40t22.5 -13h3q12 0 26 10t21 30l22 157q0 19 -11 26t-22 7h-6z" />
    <glyph glyph-name="b" unicode="b" horiz-adv-x="188" 
d="M73 -3q-14 0 -27 10t-22 27l-8 -34h-27l99 699h33l-34 -236q14 16 29.5 25.5t29.5 9.5h3q26 0 38.5 -20.5t6.5 -60.5l-48 -339q-5 -40 -24 -60.5t-45 -20.5h-4zM130 470q-14 0 -29.5 -16t-20.5 -42l-47 -335q-2 -23 9 -37.5t24 -14.5h4q13 0 26 13t17 40l48 339
q4 27 -5 40t-23 13h-3z" />
    <glyph glyph-name="c" unicode="c" horiz-adv-x="186" 
d="M142 291l18 126q4 27 -5 40t-23 13h-7q-14 0 -27.5 -13t-17.5 -40l-48 -339q-4 -27 5 -40t20 -13h11q14 0 27 13t17 40l18 128h34l-18 -128q-6 -40 -29.5 -60.5t-49.5 -20.5h-16q-23 0 -40 20.5t-12 60.5l47 339q6 39 29.5 60t49.5 21h13q26 0 44 -20.5t12 -60.5
l-18 -126h-34z" />
    <glyph glyph-name="d" unicode="d" horiz-adv-x="189" 
d="M45 -3q-26 0 -38.5 20.5t-7.5 60.5l47 339q6 40 24.5 60.5t44.5 20.5h3q14 0 26.5 -10t22.5 -27l34 238h33l-100 -699h-27l1 34q-14 -17 -30 -27t-30 -10h-3zM124 470q-14 0 -27 -13t-17 -40l-48 -339q-4 -27 5.5 -40t22.5 -13h4q14 0 29.5 16.5t19.5 43.5l23 162l25 171
q1 23 -10 37.5t-24 14.5h-3z" />
    <glyph glyph-name="e" unicode="e" horiz-adv-x="186" 
d="M57 25h11q14 0 27 13t17 40l18 128h34l-18 -128q-6 -40 -29.5 -60.5t-49.5 -20.5h-16q-23 0 -40 20.5t-12 60.5l47 339q6 39 29.5 60t49.5 21h13q26 0 44 -20.5t12 -60.5l-25 -174h-114l-23 -165q-4 -27 5 -40t20 -13zM139 266l21 151q4 27 -5 40t-23 13h-7
q-14 0 -27.5 -13t-17.5 -40l-22 -151h81z" />
    <glyph glyph-name="f" unicode="f" horiz-adv-x="144" 
d="M14 0l66 467h-27l4 28h27l18 130q3 20 11.5 36.5t22 27.5t31.5 15t41 -2l-3 -27q-24 6 -44.5 -8t-25.5 -44l-19 -128h63l-4 -28h-63l-66 -467h-32z" />
    <glyph glyph-name="g" unicode="g" horiz-adv-x="190" 
d="M205 495q-4 -28 -11 -74t-14.5 -101t-16 -114.5t-16.5 -114.5t-14.5 -101t-10.5 -74q-6 -40 -29 -60.5t-46 -20.5h-17q-26 0 -43 20.5t-11 60.5l8 55h33l-8 -55q-4 -27 5 -40t23 -13h11q11 0 24 13t17 40l16 115q-14 -16 -29.5 -25t-28.5 -9h-4q-26 0 -38.5 20.5
t-6.5 60.5l48 339q6 40 24.5 60.5t44.5 20.5h4q13 0 25.5 -9t22.5 -24l2 16l9 14h27zM63 25q12 0 27 14t21 39q18 126 28 194.5t14.5 100t5.5 37.5l1 6q2 25 -9.5 39.5t-24.5 14.5h-3q-14 0 -26.5 -13t-16.5 -40l-49 -339q-4 -27 5.5 -40t23.5 -13h3z" />
    <glyph glyph-name="h" unicode="h" horiz-adv-x="191" 
d="M133 470q-13 0 -28 -14.5t-21 -37.5l-1 -4l-59 -414h-33l99 699h34l-34 -237q14 16 29.5 26t29.5 10h3q27 0 39 -20.5t7 -60.5l-60 -417h-33l59 417q4 27 -5 40t-23 13h-3z" />
    <glyph glyph-name="i" unicode="i" horiz-adv-x="79" 
d="M94 495l-69 -495h-34l70 495h33zM110 612l-9 -72h-34l10 72h33z" />
    <glyph glyph-name="j" unicode="j" horiz-adv-x="122" 
d="M155 615l-11 -75h-33l11 75h33zM137 495l-82 -579q-12 -81 -89 -81l4 28q20 0 33.5 13t17.5 40l83 579h33z" />
    <glyph glyph-name="k" unicode="k" horiz-adv-x="174" 
d="M81 259l56 -259h-34l-48 221l-31 -221h-33l99 699h33l-58 -407l111 203h33z" />
    <glyph glyph-name="l" unicode="l" horiz-adv-x="78" 
d="M90 699h34l-100 -699h-33z" />
    <glyph glyph-name="m" unicode="m" horiz-adv-x="306" 
d="M131 470q-14 0 -30.5 -18t-20.5 -44l-57 -408h-34l70 495h33l-5 -35q14 17 30.5 27.5t30.5 10.5h3q40 0 46 -43q14 19 32 31t33 12h4q26 0 38 -20.5t7 -60.5l-59 -417h-34l60 417q4 27 -5.5 40t-23.5 13h-3q-13 0 -27.5 -14.5t-21.5 -37.5v-1l-60 -417h-33l59 417
q4 27 -5.5 40t-23.5 13h-3z" />
    <glyph glyph-name="n" unicode="n" horiz-adv-x="192" 
d="M132 470q-14 0 -30.5 -18t-20.5 -44h-1l-57 -408h-33l69 495h34l-5 -34q14 17 30.5 27t30.5 10h3q26 0 38 -20.5t7 -60.5l-59 -417h-34l60 417q4 27 -5.5 40t-23.5 13h-3z" />
    <glyph glyph-name="o" unicode="o" horiz-adv-x="187" 
d="M54 -3q-26 0 -43 20.5t-12 60.5l47 339q7 40 30 60.5t49 20.5h13q26 0 43.5 -20.5t12.5 -60.5l-48 -339q-6 -40 -29.5 -60.5t-49.5 -20.5h-13zM125 470q-14 0 -27.5 -13t-17.5 -40l-48 -339q-4 -27 5.5 -40t23.5 -13h7q14 0 27 13t17 40l48 339q4 27 -5 40t-23 13h-7z
" />
    <glyph glyph-name="p" unicode="p" horiz-adv-x="189" 
d="M151 498q26 0 39 -20.5t7 -60.5l-48 -339q-6 -40 -24 -60.5t-44 -20.5h-4q-14 0 -26.5 9.5t-21.5 25.5l-28 -197h-33l93 660h28l-2 -34q14 17 30 27t30 10h4zM72 25q13 0 26 13t18 40l48 339q4 27 -5.5 40t-23.5 13h-3q-12 0 -27 -13t-21 -36v-1l-49 -346q-1 -23 10 -36
t23 -13h4z" />
    <glyph glyph-name="q" unicode="q" horiz-adv-x="192" 
d="M120 498q14 0 27 -10.5t22 -27.5l9 35h28l-95 -660h-33l28 197q-14 -16 -29 -25.5t-29 -9.5h-4q-26 0 -38.5 20.5t-6.5 60.5l48 339q6 40 24.5 60.5t44.5 20.5h4zM64 25q14 0 29.5 16.5t20.5 43.5l46 325q4 27 -7.5 43.5t-25.5 16.5h-3q-14 0 -27 -13t-17 -40l-48 -339
q-4 -27 5.5 -40t22.5 -13h4z" />
    <glyph glyph-name="r" unicode="r" horiz-adv-x="189" 
d="M132 470q-14 0 -30.5 -18t-20.5 -44h-1l-57 -408h-33l69 495h34l-5 -34q14 17 30.5 27t30.5 10h3q31 0 42 -26q8 -20 3 -55l-18 -126h-33l18 126q4 27 -5.5 40t-23.5 13h-3z" />
    <glyph glyph-name="s" unicode="s" horiz-adv-x="188" 
d="M143 300l17 116q4 26 -5.5 40t-23.5 14h-6q-14 0 -27.5 -14t-17.5 -40l-9 -63q-3 -22 2.5 -39.5t16 -33t23 -30.5t23 -31t16 -34t2.5 -41l-9 -66q-6 -40 -28.5 -60.5t-47.5 -20.5h-14q-27 0 -44 20.5t-12 60.5l16 117h30l-16 -117q-4 -26 6 -39.5t24 -13.5h9
q13 0 26.5 13.5t17.5 39.5l9 64q4 31 -10.5 54t-32.5 45.5t-32 48t-9 61.5l9 66q6 39 29.5 60t49.5 21h9q27 0 44.5 -20.5t11.5 -60.5l-16 -117h-31z" />
    <glyph glyph-name="t" unicode="t" horiz-adv-x="123" 
d="M127 657l-23 -162h45l-4 -28h-45l-55 -389q-4 -28 6.5 -41.5t30.5 -11.5l-4 -27q-40 -4 -55.5 18t-10.5 62l55 389h-27l4 28h27l23 159z" />
    <glyph glyph-name="u" unicode="u" horiz-adv-x="191" 
d="M63 25q14 0 30.5 17.5t20.5 44.5l59 408h33l-70 -495h-34l5 33q-14 -16 -30 -26t-30 -10h-4q-55 0 -44 81l58 417h34l-60 -417q-3 -27 6 -40t23 -13h3z" />
    <glyph glyph-name="v" unicode="v" horiz-adv-x="160" 
d="M169 495h28l-129 -495h-41l12 495h31l-11 -421h1z" />
    <glyph glyph-name="w" unicode="w" horiz-adv-x="280" 
d="M18 0l21 495h31l-19 -413h1l113 413h32l-6 -413h1l98 413h29l-120 -495h-39l9 426h-1l-112 -426h-38z" />
    <glyph glyph-name="x" unicode="x" horiz-adv-x="163" 
d="M103 252l31 -252h-33l-22 202l-79 -202h-31l100 249l-29 246h33l20 -194l78 194h31z" />
    <glyph glyph-name="y" unicode="y" horiz-adv-x="162" 
d="M170 495h29l-171 -660h-33l43 165l2 495h31l-7 -397h2z" />
    <glyph glyph-name="z" unicode="z" horiz-adv-x="151" 
d="M114 0h-145l5 28l171 440h-98l4 27h131l-4 -27l-172 -440h112z" />
    <glyph glyph-name="braceleft" unicode="{" 
d="M43 372q22 0 38.5 17.5t21.5 51.5l33 231q7 47 31.5 70t55.5 23h20l-4 -30h-8q-26 0 -40.5 -20t-19.5 -49l-32 -224q-7 -45 -31 -64t-50 -21q25 -2 44 -21t13 -64l-32 -224q-5 -29 4.5 -49t35.5 -20h8l-4 -30h-20q-31 0 -49 23t-12 70l33 231q5 34 -6.5 51.5t-33.5 17.5
h-11l4 30h11z" />
    <glyph glyph-name="bar" unicode="|" horiz-adv-x="87" 
d="M95 729h33l-108 -759h-33z" />
    <glyph glyph-name="braceright" unicode="}" 
d="M209 357l-3 -15h-11q-22 0 -38.5 -17.5t-21.5 -51.5l-33 -231q-6 -47 -31 -70t-55 -23h-20l5 30h8q25 0 39.5 20t18.5 49l32 224q6 45 30.5 64t50.5 21q-12 1 -24 6t-20 15t-11.5 25.5t-0.5 38.5l32 224q4 29 -5.5 49t-35.5 20h-8l4 30h20q31 0 49.5 -23t11.5 -70
l-33 -231q-5 -34 6.5 -51.5t34.5 -17.5h11z" />
    <glyph glyph-name="asciitilde" unicode="~" horiz-adv-x="276" 
d="M24 234q13 21 26.5 32.5t35.5 11.5q12 0 23.5 -6t23.5 -13.5t24 -13.5t25 -6q26 0 47 31l23 -18q-13 -23 -27 -33t-37 -10q-13 0 -25.5 6t-25 13t-23.5 13t-21 6q-15 0 -26 -7t-22 -24z" />
    <glyph glyph-name="uni00A0" unicode="&#xa0;" horiz-adv-x="0" 
 />
    <glyph glyph-name="exclamdown" unicode="&#xa1;" horiz-adv-x="104" 
d="M128 624h-36l10 75h36zM77 268l-38 -268h-36l38 268l50 322h27z" />
    <glyph glyph-name="cent" unicode="&#xa2;" horiz-adv-x="186" 
d="M141 291l18 126q4 27 -5 40t-23 13h-7q-14 0 -27.5 -13t-17.5 -40l-48 -339q-4 -27 5 -40t20 -13h11q14 0 27 13t17 40l18 128h34l-18 -128q-6 -38 -27 -58.5t-46 -22.5l-7 -54h-24l7 54q-23 1 -39 21.5t-11 59.5l47 339q5 38 27 58.5t48 22.5l8 54h24l-8 -55
q24 -2 39 -22.5t10 -57.5l-18 -126h-34z" />
    <glyph glyph-name="sterling" unicode="&#xa3;" horiz-adv-x="245" 
d="M34 291h40l47 326q3 23 12 40t21 27.5t26 15.5t27 5h14q13 0 25.5 -5t22 -15.5t13.5 -27t1 -40.5l-28 -200h-36l27 195q5 34 -5.5 48.5t-26.5 14.5h-8q-15 0 -30 -14.5t-20 -48.5l-47 -321h127l-4 -31h-127l-20 -140q-5 -35 -12 -57t-14 -32h140l-4 -31h-176l4 30v1h1
q8 10 14.5 31.5t11.5 57.5l20 140h-40z" />
    <glyph glyph-name="currency" unicode="&#xa4;" horiz-adv-x="340" 
d="M267 251q-20 -15 -44 -23.5t-49 -8.5q-50 0 -85 33l-46 -41l-16 20l46 40q-25 38 -18 89q3 24 14.5 46.5t29.5 40.5l-35 41l22 19l35 -40q21 15 44.5 24t49.5 9q24 0 45 -9t38 -24l47 42l16 -19l-47 -41q28 -40 21 -89q-4 -26 -16 -49t-30 -41l35 -41l-22 -19zM83 360
q-3 -24 2.5 -45t18.5 -36t32 -23.5t42 -8.5t45 8.5t39 23.5t29 36t15 45q3 23 -3 43t-19 35t-32 24t-42 9t-44.5 -9t-39 -24t-29 -35t-14.5 -43z" />
    <glyph glyph-name="yen" unicode="&#xa5;" horiz-adv-x="195" 
d="M72 187l8 54h-71l3 25h72l1 8l-13 425h36l7 -342h1l105 342h35l-135 -425l-1 -8h72l-4 -25h-72l-8 -54h72l-3 -25h-72l-23 -162h-36l23 162h-72l4 25h71z" />
    <glyph glyph-name="brokenbar" unicode="&#xa6;" horiz-adv-x="87" 
d="M33 293h33l-46 -323h-33zM49 408l46 321h33l-62 -436l16 115h-33zM33 293l16 115z" />
    <glyph glyph-name="section" unicode="&#xa7;" horiz-adv-x="186" 
d="M168 478l21 145q4 26 -5.5 40t-23.5 14h-7q-13 0 -26.5 -14t-17.5 -40l-13 -92q-5 -33 9.5 -57t32.5 -46.5t32 -47t10 -58.5l-13 -88q-5 -39 -28 -59.5t-48 -20.5h-19q10 -16 22.5 -30.5t23 -30.5t16.5 -34t3 -40l-16 -109q-5 -40 -28.5 -60.5t-47.5 -20.5h-15
q-26 0 -43 20.5t-12 60.5l23 160h30l-23 -160q-4 -26 6.5 -39.5t24.5 -13.5h9q13 0 25.5 13.5t17.5 39.5l15 107q4 31 -8.5 53.5t-29 45t-31.5 48t-15 61.5v3.5t1.5 12t4.5 28t8 52.5q5 39 28.5 60t50.5 21h5q-10 13 -21 26.5t-19.5 28.5t-13 32.5t-1.5 39.5l14 95
q5 39 29 60t50 21h9q27 0 44 -20.5t12 -60.5l-21 -146h-31zM134 235q4 33 7 52t4 28.5t1.5 12t0.5 4.5q0 20 -9 31t-21 11h-7q-14 0 -27 -14t-17 -40l-13 -92q-2 -15 3.5 -30.5t25.5 -15.5h9q13 0 26 13.5t17 39.5z" />
    <glyph glyph-name="dieresis" unicode="&#xa8;" horiz-adv-x="149" 
d="M114 611h-24l8 63h25zM171 611h-25l9 63h24z" />
    <glyph glyph-name="copyright" unicode="&#xa9;" horiz-adv-x="487" 
d="M38 348q10 72 27.5 136t49 111.5t80.5 75t121 27.5t111.5 -27.5t56 -75t14.5 -111.5t-12 -136q-11 -72 -27 -136t-46 -111.5t-77.5 -75t-119.5 -27.5t-112.5 27.5t-58.5 75t-17.5 111.5t10.5 136zM61 348q-10 -67 -12 -126.5t13.5 -103.5t52.5 -70t105 -26q67 0 109.5 26
t69 70t40.5 103.5t24 126.5q9 67 12 126.5t-11 103.5t-49.5 70t-102.5 26t-111 -26t-72 -70t-43.5 -103.5t-24.5 -126.5zM313 394l12 86q4 27 -5.5 40t-22.5 13h-8q-14 0 -27.5 -13t-17.5 -40l-37 -259q-3 -27 6 -40t20 -13h11q14 0 27 13t17 40l12 88h34l-13 -88
q-5 -40 -28.5 -60.5t-49.5 -20.5h-16q-23 0 -41 20.5t-12 60.5l37 259q6 39 29 60t50 21h13q26 0 43.5 -20.5t11.5 -60.5l-12 -86h-33z" />
    <glyph glyph-name="ordfeminine" unicode="&#xaa;" horiz-adv-x="135" 
d="M77 392q-35 0 -27 50l10 74q8 51 43 51h2q18 0 31 -15l15 101q3 17 -4 25.5t-15 8.5h-4q-8 0 -16 -8.5t-11 -25.5l-10 -78h-22l11 79q3 25 17.5 38t31.5 13h8q17 0 29 -13t8 -39l-37 -259h-23l2 14q-19 -16 -37 -16h-2zM108 550q-8 0 -16 -9t-10 -26l-10 -72
q-2 -17 4 -25.5t14 -8.5t18.5 8.5t12.5 25.5l12 84q0 13 -7 18t-15 5h-3z" />
    <glyph glyph-name="guillemotleft" unicode="&#xab;" horiz-adv-x="191" 
d="M71 48l-47 198l46 201h32l-45 -202l47 -197h-33zM134 48l-47 198l46 201h32l-45 -202l47 -197h-33z" />
    <glyph glyph-name="logicalnot" unicode="&#xac;" horiz-adv-x="290" 
d="M268 237h-27l15 100h-215l3 25h242z" />
    <glyph glyph-name="registered" unicode="&#xae;" horiz-adv-x="318" 
d="M65 526q5 37 17.5 69.5t32 57t47.5 38.5t65 14t60.5 -14t35.5 -38.5t14.5 -57t-2.5 -69.5q-6 -37 -17.5 -69.5t-30.5 -57t-46.5 -38.5t-64.5 -14t-61 14t-36.5 38.5t-15.5 57t2 69.5zM83 526q-5 -34 -3.5 -63.5t12.5 -52t32 -35.5t54 -13q34 0 58 13t40.5 35.5t26 52
t14.5 63.5t4 63.5t-11 52t-30.5 35.5t-54.5 13q-33 0 -57.5 -13t-42 -35.5t-27.5 -52t-15 -63.5zM246 557q-2 -15 -7.5 -22.5t-14.5 -12.5q16 -4 13 -34l-9 -57h-17l7 52q4 29 -14 29h-22l-12 -81h-18l28 194h43q14 0 22 -12t4 -36zM207 531q17 0 23 30l2 13q2 19 -3.5 26
t-13.5 7h-19l-11 -76h22z" />
    <glyph glyph-name="macron" unicode="&#xaf;" horiz-adv-x="177" 
d="M196 630h-114l4 25h114z" />
    <glyph glyph-name="degree" unicode="&#xb0;" horiz-adv-x="129" 
d="M116 611q-18 0 -29 13t-9 31t17 31t33 13t29 -13t9 -31q-3 -18 -17.5 -31t-32.5 -13zM127 689q-14 0 -25.5 -10t-13.5 -24t6.5 -24t22.5 -10t25.5 10t13.5 24t-6.5 24t-22.5 10z" />
    <glyph glyph-name="plusminus" unicode="&#xb1;" horiz-adv-x="278" 
d="M155 431l20 136h28l-20 -136h100l-3 -25h-101l-19 -135h-28l19 135h-101l3 25h102zM205 90h-174l4 25h174z" />
    <glyph glyph-name="twosuperior" unicode="&#xb2;" horiz-adv-x="115" 
d="M69 574l13 92q3 20 14.5 29.5t22.5 9.5h8q11 0 21 -9.5t7 -29.5l-8 -54q-3 -21 -14 -38.5t-24.5 -40t-26.5 -52t-19 -74.5h53l-2 -15h-71l2 14q7 47 20 78t26.5 53t24 39.5t13.5 37.5l7 50q2 15 -3 21t-12 6h-1q-7 0 -13.5 -6t-8.5 -21l-13 -90h-16z" />
    <glyph glyph-name="threesuperior" unicode="&#xb3;" horiz-adv-x="114" 
d="M95 559h8q8 0 14.5 7t8.5 22l11 76q2 15 -3 20.5t-12 5.5h-2q-7 0 -13 -5.5t-8 -20.5l-13 -86h-17l13 88q3 20 14.5 29.5t23.5 9.5h6q11 0 21.5 -9.5t7.5 -29.5l-11 -76q-2 -17 -10.5 -26t-18.5 -11q9 -2 15 -10.5t4 -25.5l-13 -86q-3 -21 -15.5 -30t-23.5 -9h-7
q-11 0 -20.5 9t-6.5 30l13 88h17l-13 -86q-2 -15 3 -20.5t12 -5.5h2q7 0 13.5 5.5t8.5 20.5l12 85q2 15 -2.5 21.5t-12.5 6.5h-8l1 8z" />
    <glyph glyph-name="acute" unicode="&#xb4;" horiz-adv-x="146" 
d="M28 597l57 86h33l-67 -86h-23z" />
    <glyph glyph-name="mu" unicode="&#xb5;" horiz-adv-x="189" 
d="M140 0h-34l4 32q-14 -16 -29.5 -25.5t-29.5 -9.5h-3q-14 0 -23 4l-23 -166h-33l32 229l2 14l52 366l7 51h34l-45 -311l-16 -115q-2 -23 7.5 -33.5t22.5 -10.5h3q12 0 27.5 14.5t21.5 38.5l1 3l1 6l58 408h34z" />
    <glyph glyph-name="paragraph" unicode="&#xb6;" horiz-adv-x="281" 
d="M290 672h-74l-119 -836h-27l81 569q-26 0 -44.5 13t-29 34t-13.5 47.5t1 52.5q4 27 14.5 53t27 47t38.5 34t48 13h129l-124 -863h-27z" />
    <glyph glyph-name="periodcentered" unicode="&#xb7;" horiz-adv-x="104" 
d="M65 210h-37l11 75h36z" />
    <glyph glyph-name="cedilla" unicode="&#xb8;" horiz-adv-x="178" 
d="M34 -83l4 17q9 -7 23.5 -10t27.5 -1.5t22 8t8 20.5q-1 15 -16 20t-27 -3l-8 3l13 29h21l-8 -20q17 8 33.5 -1t16.5 -28q0 -21 -13.5 -32.5t-31.5 -14.5t-36.5 0.5t-28.5 12.5z" />
    <glyph glyph-name="onesuperior" unicode="&#xb9;" horiz-adv-x="87" 
d="M67 392l40 282q-5 -3 -13 -6.5t-13 -3.5l3 14q8 0 17 6.5t13 14.5h15l-44 -307h-18z" />
    <glyph glyph-name="ordmasculine" unicode="&#xba;" horiz-adv-x="114" 
d="M76 392q-12 0 -21.5 9t-6.5 30l34 235q3 20 14.5 29.5t23.5 9.5h6q11 0 20.5 -9.5t6.5 -29.5l-34 -235q-3 -21 -14.5 -30t-23.5 -9h-5zM119 690q-7 0 -12.5 -6t-7.5 -20l-33 -231q-4 -26 12 -26h4q7 0 12.5 6t7.5 20l33 231q4 26 -12 26h-4z" />
    <glyph glyph-name="guillemotright" unicode="&#xbb;" horiz-adv-x="191" 
d="M56 48l48 197l-46 202h32l46 -201l-47 -198h-33zM119 48l48 197l-46 202h32l46 -201l-47 -198h-33z" />
    <glyph glyph-name="onequarter" unicode="&#xbc;" horiz-adv-x="263" 
d="M185 65l-2 -16h-13l-6 -48h-15l6 48h-57v16l86 241h22l-34 -241h13zM287 699h18l-292 -699h-18zM94 392l40 282q-5 -3 -13 -6.5t-13 -3.5l2 14q8 0 17 6.5t13 14.5h16l-44 -307h-18zM184 259h-1l-68 -194h42z" />
    <glyph glyph-name="onehalf" unicode="&#xbd;" horiz-adv-x="267" 
d="M288 699h19l-292 -699h-18zM95 392l41 282q-5 -3 -13 -6.5t-13 -3.5l2 14q8 0 17 6.5t13 14.5h15l-44 -307h-18zM157 182l13 92q3 20 14.5 29.5t23.5 9.5h7q11 0 20.5 -9.5t6.5 -29.5l-7 -54q-3 -21 -14 -38.5t-24.5 -40t-26.5 -52t-19 -74.5h53l-2 -15h-71l2 14
q7 47 19.5 78t26 53t24.5 39.5t14 37.5l7 50q2 15 -3 21t-12 6h-2q-6 0 -13 -6t-9 -21l-12 -90h-16z" />
    <glyph glyph-name="threequarters" unicode="&#xbe;" horiz-adv-x="266" 
d="M285 699h19l-291 -699h-18zM177 162h7q8 0 15 7t9 22l11 76q2 16 -3 21.5t-12 5.5h-2q-7 0 -13 -5.5t-8 -20.5l-13 -87h-17l13 89q3 20 14.5 29.5t23.5 9.5h6q11 0 21.5 -9.5t7.5 -29.5l-11 -77q-2 -17 -10.5 -26t-19.5 -11q9 -2 15.5 -10.5t3.5 -25.5l-12 -87
q-3 -21 -15.5 -30t-24.5 -9h-6q-11 0 -20.5 9t-6.5 30l13 89h17l-13 -87q-2 -15 3 -20.5t11 -5.5h3q7 0 13.5 5.5t8.5 20.5l12 86q2 15 -2.5 21.5t-12.5 6.5h-8l1 8zM93 392l41 282q-5 -3 -13.5 -6.5t-13.5 -3.5l2 14q8 0 17 6.5t13 14.5h15l-43 -307h-18z" />
    <glyph glyph-name="questiondown" unicode="&#xbf;" horiz-adv-x="202" 
d="M167 117l-28 -200q-3 -24 -12 -40.5t-21 -27t-26 -15.5t-27 -5h-11q-13 0 -25.5 5t-21.5 15.5t-13 27t-1 40.5l16 115q4 33 15.5 59.5t26 52t30.5 52t29 59t21.5 74t8.5 96.5h36q-1 -59 -10 -102.5t-22 -77t-29 -60t-30 -51t-25.5 -50.5t-16.5 -58l-14 -104
q-5 -35 5.5 -49t25.5 -14h9q15 0 30 14.5t20 48.5l28 195h32zM143 534h36l-10 -75h-37z" />
    <glyph glyph-name="Agrave" unicode="&#xc0;" horiz-adv-x="194" 
d="M152 0l29 699h-46l-169 -699h32l49 203h79l-9 -203h35zM141 593h2l-16 -362h-74zM152 738l-42 86h32l34 -86h-24z" />
    <glyph glyph-name="Aacute" unicode="&#xc1;" horiz-adv-x="194" 
d="M117 0l9 203h-79l-49 -203h-32l169 699h46l-29 -699h-35zM53 231h74l16 362h-2zM152 738l58 86h32l-67 -86h-23z" />
    <glyph glyph-name="Acircumflex" unicode="&#xc2;" horiz-adv-x="194" 
d="M117 0l9 203h-79l-49 -203h-32l169 699h46l-29 -699h-35zM53 231h74l16 362h-2zM194 824l42 -86h-32l-30 68l-49 -68h-32l67 86h34z" />
    <glyph glyph-name="Atilde" unicode="&#xc3;" horiz-adv-x="194" 
d="M154 0l29 699h-47l-168 -699h31l49 203h79l-8 -203h35zM143 593h1l-16 -362h-73zM100 781q18 24 42 24q8 0 15 -3.5t14.5 -7.5t15 -7.5t15.5 -3.5q15 0 29 14l15 -11q-18 -24 -43 -24q-17 0 -31.5 11t-27.5 11q-17 0 -31 -14z" />
    <glyph glyph-name="Adieresis" unicode="&#xc4;" horiz-adv-x="194" 
d="M153 0l29 699h-46l-169 -699h32l49 203h78l-8 -203h35zM142 593h1l-16 -362h-73zM207 753h-24l8 63h25zM150 753h-24l9 63h24z" />
    <glyph glyph-name="Aring" unicode="&#xc5;" horiz-adv-x="194" 
d="M152 0l28 699h-47l-167 -699h31l49 203h79l-8 -203h35zM140 593h2l-16 -362h-74zM162 734q-20 0 -34.5 15.5t-11.5 38.5t21 39.5t40 16.5q23 0 37.5 -16.5t10.5 -39.5q-2 -21 -20.5 -37.5t-42.5 -16.5zM175 825q-14 0 -26 -11.5t-14 -25.5t7 -24.5t23 -10.5t26.5 10.5
t15.5 24.5q2 14 -8 25.5t-24 11.5z" />
    <glyph glyph-name="AE" unicode="&#xc6;" horiz-adv-x="275" 
d="M210 669l-43 -306h73l-5 -27h-72l-43 -306h97l-4 -30h-134l29 203h-76l-47 -203h-31l168 699h188l-5 -30h-95zM39 231h73l62 438h-32z" />
    <glyph glyph-name="Ccedilla" unicode="&#xc7;" 
d="M-3 -89l7 17q8 -7 21 -10t26 -1.5t23 8t12 20.5q1 7 -3 12.5t-10 7.5t-13.5 1.5t-14.5 -4.5l-7 3l17 29q-26 1 -44.5 21.5t-12.5 66.5l75 535q7 47 33.5 67.5t53.5 20.5h13q13 0 26 -5t22 -15.5t13 -27t1 -40.5l-29 -200h-36l29 195q5 34 -6 48.5t-26 14.5h-9
q-15 0 -30 -14.5t-20 -48.5l-74 -525q-5 -34 5.5 -48.5t25.5 -14.5h9q15 0 30 14.5t20 48.5l27 196h36l-28 -201q-7 -46 -32 -66.5t-51 -21.5l-11 -20q18 8 33.5 -1t12.5 -28q-3 -21 -18 -32.5t-33.5 -14.5t-36 0.5t-26.5 12.5z" />
    <glyph glyph-name="Egrave" unicode="&#xc8;" horiz-adv-x="169" 
d="M216 669l4 30h-130l-99 -699h132l5 30h-97l42 306h73l4 27h-72l43 306h95zM150 738l-42 86h32l33 -86h-23z" />
    <glyph glyph-name="Eacute" unicode="&#xc9;" horiz-adv-x="169" 
d="M121 669l-43 -306h72l-4 -27h-73l-42 -306h97l-5 -30h-132l99 699h130l-4 -30h-95zM149 738l59 86h32l-68 -86h-23z" />
    <glyph glyph-name="Ecircumflex" unicode="&#xca;" horiz-adv-x="169" 
d="M121 669l-43 -306h72l-4 -27h-73l-42 -306h97l-5 -30h-132l99 699h130l-4 -30h-95zM191 824l43 -86h-33l-29 69l-49 -69h-33l68 86h33z" />
    <glyph glyph-name="Edieresis" unicode="&#xcb;" horiz-adv-x="169" 
d="M217 669l4 30h-131l-98 -699h132l5 30h-98l43 306h73l4 27h-73l44 306h95zM148 753h-25l9 63h25zM204 753h-24l9 63h24z" />
    <glyph glyph-name="Igrave" unicode="&#xcc;" horiz-adv-x="84" 
d="M89 699l-99 -699h36l99 699h-36zM102 747l-42 87h32l34 -87h-24z" />
    <glyph glyph-name="Iacute" unicode="&#xcd;" horiz-adv-x="84" 
d="M126 699l-100 -699h-35l99 699h36zM102 747l59 87h32l-68 -87h-23z" />
    <glyph glyph-name="Icircumflex" unicode="&#xce;" horiz-adv-x="84" 
d="M125 699l-99 -699h-36l99 699h36zM144 834l42 -87h-32l-30 69l-49 -69h-32l67 87h34z" />
    <glyph glyph-name="Idieresis" unicode="&#xcf;" horiz-adv-x="84" 
d="M90 699l-99 -699h36l99 699h-36zM100 762h-24l9 63h24zM157 762h-25l9 63h25z" />
    <glyph glyph-name="Eth" unicode="&#xd0;" horiz-adv-x="207" 
d="M-9 0l47 337h-30l4 26h30l48 336h88q13 0 26 -4.5t22 -14t13 -25.5t1 -40l-75 -531q-3 -24 -12 -40t-21 -25.5t-26.5 -14t-27.5 -4.5h-87zM121 669l-43 -306h31l-4 -26h-31l-43 -307h49q15 0 30 12.5t20 46.5l74 521q5 34 -6.5 46.5t-26.5 12.5h-50z" />
    <glyph glyph-name="Ntilde" unicode="&#xd1;" horiz-adv-x="223" 
d="M130 0l-28 595l-84 -595h-30l98 699h42l26 -591l85 591h33l-100 -699h-42zM119 781q19 24 42 24q16 0 30 -11t30 -11t29 14l15 -11q-18 -24 -43 -24q-8 0 -15.5 3.5t-15 7.5t-14 7.5t-13.5 3.5q-18 0 -31 -14z" />
    <glyph glyph-name="Ograve" unicode="&#xd2;" 
d="M59 -6q-13 0 -25.5 5t-21.5 15.5t-13 27t-1 40.5l75 535q3 24 12.5 40.5t21.5 27t26 15.5t27 5h14q13 0 25.5 -5t22 -15.5t13.5 -27t1 -40.5l-77 -535q-3 -24 -12 -40.5t-21 -27t-26 -15.5t-27 -5h-14zM159 675q-15 0 -30.5 -14.5t-20.5 -48.5l-74 -525q-5 -34 6 -48.5
t26 -14.5h8q15 0 30 14.5t20 48.5l75 525q5 34 -6 48.5t-26 14.5h-8zM160 738l-43 86h32l35 -86h-24z" />
    <glyph glyph-name="Oacute" unicode="&#xd3;" 
d="M59 -6q-13 0 -25.5 5t-21.5 15.5t-13 27t-1 40.5l75 535q3 24 12.5 40.5t21.5 27t26 15.5t27 5h14q13 0 25.5 -5t22 -15.5t13.5 -27t1 -40.5l-77 -535q-3 -24 -12 -40.5t-21 -27t-26 -15.5t-27 -5h-14zM159 675q-15 0 -30.5 -14.5t-20.5 -48.5l-74 -525q-5 -34 6 -48.5
t26 -14.5h8q15 0 30 14.5t20 48.5l75 525q5 34 -6 48.5t-26 14.5h-8zM160 738l57 86h33l-67 -86h-23z" />
    <glyph glyph-name="Ocircumflex" unicode="&#xd4;" 
d="M59 -6q-13 0 -25.5 5t-22 15.5t-13.5 27t-1 40.5l76 535q3 24 12 40.5t21 27t26 15.5t27 5h14q13 0 25.5 -5t22 -15.5t13.5 -27t1 -40.5l-76 -535q-7 -47 -33.5 -67.5t-53.5 -20.5h-13zM158 675q-15 0 -30 -14.5t-20 -48.5l-74 -525q-5 -34 5.5 -48.5t25.5 -14.5h8
q15 0 30.5 14.5t20.5 48.5l75 525q5 34 -6 48.5t-26 14.5h-9zM200 824l43 -86h-32l-30 69l-49 -69h-32l67 86h33z" />
    <glyph glyph-name="Otilde" unicode="&#xd5;" 
d="M54 -6q-13 0 -25.5 5t-21.5 15.5t-13 27t-1 40.5l75 535q7 47 33.5 67.5t53.5 20.5h14q13 0 25.5 -5t21.5 -15.5t13 -27t1 -40.5l-76 -535q-7 -47 -33.5 -67.5t-53.5 -20.5h-13zM153 675q-15 0 -30 -14.5t-20 -48.5l-74 -525q-5 -34 6 -48.5t25 -14.5h9q15 0 30 14.5
t20 48.5l75 525q5 34 -6 48.5t-26 14.5h-9zM101 781q18 24 41 24q16 0 30 -11t30 -11t30 14l15 -11q-18 -24 -43 -24q-8 0 -15.5 3.5t-15 7.5t-14 7.5t-13.5 3.5q-18 0 -32 -14z" />
    <glyph glyph-name="Odieresis" unicode="&#xd6;" 
d="M59 -6q-13 0 -25.5 5t-21.5 15.5t-13 27t-1 40.5l75 535q4 24 13 40.5t21 27t26 15.5t27 5h14q13 0 25.5 -5t22 -15.5t13.5 -27t1 -40.5l-76 -535q-8 -48 -34.5 -68t-53.5 -20h-13zM158 675q-15 0 -29.5 -14.5t-19.5 -48.5l-75 -525q-5 -34 6 -48.5t26 -14.5h8
q15 0 30 14.5t20 48.5l75 525q5 34 -6 48.5t-26 14.5h-9zM157 753h-24l9 63h25zM214 753h-25l10 63h24z" />
    <glyph glyph-name="multiply" unicode="&#xd7;" horiz-adv-x="236" 
d="M114 350l-81 95l22 19l81 -95l108 95l17 -19l-109 -95l82 -95l-22 -19l-81 95l-108 -95l-17 19z" />
    <glyph glyph-name="Oslash" unicode="&#xd8;" horiz-adv-x="264" 
d="M62 -6q-19 0 -35.5 10t-23.5 33l-19 -47h-21l38 93l76 534q3 24 12.5 40.5t21.5 27t26 15.5t27 5h14q19 0 36 -11t23 -35l21 50h21l-41 -101l-75 -526q-3 -24 -12.5 -40.5t-21.5 -27t-26 -15.5t-27 -5h-14zM162 675q-15 0 -30 -14.5t-20 -48.5l-57 -397l140 340l8 57
q5 34 -6 48.5t-27 14.5h-8zM70 24h8q15 0 30 14.5t20 48.5l55 389l-139 -341l-7 -48q-5 -34 6 -48.5t27 -14.5z" />
    <glyph glyph-name="Ugrave" unicode="&#xd9;" horiz-adv-x="207" 
d="M61 -6q-13 0 -25.5 5t-21.5 15.5t-13 27t-1 40.5l87 617h36l-87 -612q-5 -34 6 -48.5t26 -14.5h8q15 0 30.5 14.5t20.5 48.5l87 612h36l-88 -617q-7 -47 -33.5 -67.5t-53.5 -20.5h-14zM163 738l-44 86h33l34 -86h-23z" />
    <glyph glyph-name="Uacute" unicode="&#xda;" horiz-adv-x="207" 
d="M61 -6q-13 0 -25.5 5t-21.5 15.5t-13 27t-1 40.5l87 617h36l-87 -612q-5 -34 6 -48.5t26 -14.5h8q15 0 30 14.5t20 48.5l87 612h36l-88 -617q-7 -48 -33 -68t-53 -20h-14zM162 738l57 86h33l-67 -86h-23z" />
    <glyph glyph-name="Ucircumflex" unicode="&#xdb;" horiz-adv-x="207" 
d="M61 -6q-13 0 -25.5 5t-21.5 15.5t-13 27t-1 40.5l87 617h36l-87 -612q-5 -34 6 -48.5t26 -14.5h8q15 0 30 14.5t20 48.5l87 612h36l-88 -617q-7 -48 -33 -68t-53 -20h-14zM203 824l43 -86h-32l-31 68l-48 -68h-32l66 86h34z" />
    <glyph glyph-name="Udieresis" unicode="&#xdc;" horiz-adv-x="207" 
d="M60 -6q-13 0 -25 5t-21 15.5t-13 27t-1 40.5l87 617h36l-87 -612q-5 -34 6 -48.5t26 -14.5h8q15 0 30 14.5t20 48.5l87 612h36l-87 -617q-8 -48 -34.5 -68t-53.5 -20h-14zM159 753h-24l9 63h25zM216 753h-25l10 63h24z" />
    <glyph glyph-name="Yacute" unicode="&#xdd;" horiz-adv-x="191" 
d="M114 274l-39 -274h-36l39 274l-13 425h35l7 -342h1l105 342h36zM150 738l58 86h33l-68 -86h-23z" />
    <glyph glyph-name="Thorn" unicode="&#xde;" horiz-adv-x="196" 
d="M126 699l-15 -100h48q26 0 44 -21t12 -60l-48 -340q-6 -39 -29.5 -59.5t-49.5 -20.5h-48l-14 -98h-35l99 699h36zM89 126q14 0 27 13t17 40l48 338q4 27 -5.5 40t-23.5 13h-45l-63 -444h45z" />
    <glyph glyph-name="germandbls" unicode="&#xdf;" horiz-adv-x="216" 
d="M225 442q-6 -39 -25.5 -58.5t-42.5 -24.5q21 -5 35.5 -23t9.5 -57l-28 -191q-3 -24 -12 -40.5t-21 -27t-26 -15.5t-27 -5h-35l4 30h29q15 0 31.5 14t21.5 49l27 187q5 34 -6.5 50t-28.5 16h-29l1 11l1 4l2 11h29q17 0 33 16t21 50l24 174q5 34 -7.5 48.5t-27.5 14.5h-11
q-15 0 -31.5 -14.5t-21.5 -48.5l-87 -612h-35l87 617q3 24 12.5 40.5t22 27t27 15.5t27.5 5h17q13 0 26 -5t23 -15.5t14.5 -27t1.5 -40.5l-25 -175v0z" />
    <glyph glyph-name="agrave" unicode="&#xe0;" horiz-adv-x="187" 
d="M41 -3q-53 0 -42 81l17 118q5 40 23 60.5t44 20.5h3q29 0 51 -25l24 165q3 27 -6.5 40t-23.5 13h-7q-14 0 -27 -13t-17 -40l-18 -126h-33l18 126q5 40 28.5 60.5t49.5 20.5h13q26 0 43.5 -21t12.5 -60l-59 -417h-34l3 24q-14 -12 -29.5 -19.5t-29.5 -7.5h-4zM93 252
q-14 0 -27 -13t-17 -40l-17 -124q-4 -27 5 -40t23 -13h3q14 0 29.5 13t19.5 40l19 137q4 23 -8.5 31.5t-24.5 8.5h-5zM125 535l-42 86h32l34 -86h-24z" />
    <glyph glyph-name="aacute" unicode="&#xe1;" horiz-adv-x="201" 
d="M41 -3q-53 0 -42 81l17 118q5 40 23 60.5t44 20.5h3q29 0 51 -25l24 165q3 27 -6.5 40t-23.5 13h-7q-14 0 -27 -13t-17 -40l-18 -126h-33l18 126q5 40 28.5 60.5t49.5 20.5h13q26 0 43.5 -21t12.5 -60l-59 -417h-34l3 24q-14 -12 -29.5 -19.5t-29.5 -7.5h-4zM93 252
q-14 0 -27 -13t-17 -40l-17 -124q-4 -27 5 -40t23 -13h3q14 0 29.5 13t19.5 40l19 137q4 23 -8.5 31.5t-24.5 8.5h-5zM124 535l59 86h32l-67 -86h-24z" />
    <glyph glyph-name="acircumflex" unicode="&#xe2;" horiz-adv-x="195" 
d="M41 -3q-53 0 -42 81l17 118q5 40 23 60.5t44 20.5h3q29 0 51 -25l24 165q3 27 -6.5 40t-23.5 13h-7q-14 0 -27 -13t-17 -40l-18 -126h-33l18 126q5 40 28.5 60.5t49.5 20.5h13q26 0 43.5 -21t12.5 -60l-59 -417h-34l3 24q-14 -12 -29.5 -19.5t-29.5 -7.5h-4zM93 252
q-14 0 -27 -13t-17 -40l-17 -124q-4 -27 5 -40t23 -13h3q14 0 29.5 13t19.5 40l19 137q4 23 -8.5 31.5t-24.5 8.5h-5zM166 621l43 -86h-33l-29 69l-49 -69h-32l67 86h33z" />
    <glyph glyph-name="atilde" unicode="&#xe3;" horiz-adv-x="203" 
d="M41 -3q-53 0 -42 81l17 118q5 40 23 60.5t44 20.5h4q13 0 26.5 -6.5t23.5 -18.5l24 165q4 27 -6 40t-24 13h-7q-14 0 -27 -13t-17 -40l-18 -126h-33l18 126q5 40 28.5 60.5t49.5 20.5h13q26 0 43.5 -21t12.5 -60l-59 -417h-34l3 24q-14 -12 -29.5 -19.5t-29.5 -7.5h-4z
M93 252q-14 0 -27 -13t-17 -40l-17 -124q-4 -27 5 -40t23 -13h3q14 0 29.5 13t19.5 40l19 137q4 23 -8.5 31.5t-24.5 8.5h-5zM71 578q19 24 43 24q7 0 14.5 -3.5t14.5 -7.5t14.5 -7.5t15.5 -3.5q16 0 29 14l16 -12q-20 -23 -44 -23q-8 0 -15.5 3.5t-15 7.5t-14 7.5
t-13.5 3.5q-16 0 -31 -15z" />
    <glyph glyph-name="adieresis" unicode="&#xe4;" horiz-adv-x="189" 
d="M43 -3q-55 0 -43 81l16 118q6 40 24 60.5t45 20.5h3q28 0 50 -24l23 164q4 27 -5.5 40t-23.5 13h-7q-14 0 -27 -13t-17 -40l-18 -126h-34l19 126q5 40 28.5 60.5t49.5 20.5h13q26 0 44 -21t12 -60l-60 -417h-33l3 24q-14 -13 -30 -20t-29 -7h-3zM94 252q-14 0 -27 -13
t-17 -40l-17 -124q-4 -27 5 -40t23 -13h3q14 0 29.5 13t19.5 40l20 137q0 3 0.5 5.5t-0.5 5.5l5 30q10 -11 15.5 -26.5t3.5 -32.5l-15 -109q-3 -17 -13 -33t-24 -28l6 44l22 155q-2 17 -12.5 23t-21.5 6h-5zM124 549h-24l8 63h25zM181 549h-25l9 63h24z" />
    <glyph glyph-name="aring" unicode="&#xe5;" horiz-adv-x="194" 
d="M41 -3q-53 0 -42 81l17 118q5 40 23.5 60.5t44.5 20.5h3q29 0 50 -24l24 164q4 27 -6 40t-24 13h-7q-14 0 -27 -13t-17 -40l-18 -126h-33l18 126q5 40 28.5 60.5t50.5 20.5h13q26 0 43 -21t12 -60l-59 -417h-34l3 24q-14 -13 -30 -20t-29 -7h-4zM93 252q-14 0 -27 -13
t-17 -40l-17 -124q-4 -27 5 -40t23 -13h3q14 0 29.5 13t19.5 40l8 62l17 116q11 -11 16 -26.5t3 -32.5l-15 -109q-3 -17 -13 -33t-24 -28l7 46l9 67l11 75q4 23 -8.5 31.5t-24.5 8.5h-5zM137 531q-21 0 -35.5 15.5t-10.5 37.5q3 23 21 39.5t40 16.5q23 0 37 -16t11 -40
q-3 -21 -21 -37t-42 -16zM150 621q-14 0 -26.5 -11t-14.5 -25t7 -25t23 -11q15 0 27.5 11t14.5 25t-7.5 25t-23.5 11z" />
    <glyph glyph-name="ae" unicode="&#xe6;" horiz-adv-x="300" 
d="M42 -3q-54 0 -42 81l16 118q5 40 23.5 60.5t44.5 20.5h3q29 0 51 -24l23 164q4 27 -5.5 40t-23.5 13h-7q-14 0 -27.5 -13t-17.5 -40l-18 -126h-33l18 126q6 40 29 60.5t50 20.5h13q31 0 46 -26q23 26 55 26h13q26 0 43.5 -20.5t11.5 -60.5l-25 -174h-114l-15 -108l-8 -57
q-4 -27 5.5 -40t20.5 -13h11q14 0 27 13t17 40l18 128h33l-18 -128q-6 -40 -29 -60.5t-49 -20.5h-17q-16 0 -29.5 9.5t-20.5 27.5q-15 -17 -34 -27t-35 -10h-4zM93 252q-14 0 -27 -13t-17 -40l-17 -124q-3 -27 5.5 -40t22.5 -13h3q14 0 28.5 11.5t20.5 35.5q0 6 1 9l8 57
l11 81q2 21 -10 28.5t-23 7.5h-6zM172 266h82l21 151q4 27 -5 40t-23 13h-8q-14 0 -27.5 -13t-17.5 -40z" />
    <glyph glyph-name="ccedilla" unicode="&#xe7;" horiz-adv-x="186" 
d="M-9 -86l7 17q8 -7 21.5 -10t26.5 -1.5t23 8t12 20.5q1 15 -13.5 20t-27.5 -3l-8 3l18 29q-23 1 -39.5 21t-11.5 60l48 339q5 39 29 60t50 21h13q26 0 43.5 -20.5t11.5 -60.5l-18 -126h-33l18 126q4 27 -5.5 40t-23.5 13h-7q-14 0 -27 -13t-18 -40l-48 -339
q-4 -27 5.5 -40t20.5 -13h11q14 0 26.5 13t16.5 40l18 128h34l-18 -128q-5 -39 -27.5 -59t-48.5 -22l-11 -20q19 8 33.5 -1t12.5 -28q-3 -21 -18 -32.5t-33.5 -14.5t-36 0.5t-26.5 12.5z" />
    <glyph glyph-name="egrave" unicode="&#xe8;" horiz-adv-x="186" 
d="M58 25h11q14 0 26.5 13t16.5 40l18 128h34l-19 -128q-5 -40 -28.5 -60.5t-49.5 -20.5h-17q-23 0 -39.5 20.5t-11.5 60.5l48 339q5 39 28.5 60t49.5 21h13q26 0 43.5 -20.5t12.5 -60.5l-25 -174h-114l-23 -165q-4 -27 5.5 -40t20.5 -13zM139 266l22 151q3 27 -6 40t-23 13
h-7q-14 0 -27.5 -13t-17.5 -40l-22 -151h81zM125 535l-43 86h33l33 -86h-23z" />
    <glyph glyph-name="eacute" unicode="&#xe9;" horiz-adv-x="185" 
d="M58 25h10q14 0 27 13t17 40l18 128h33l-18 -128q-5 -40 -28.5 -60.5t-50.5 -20.5h-16q-23 0 -39.5 20.5t-11.5 60.5l47 339q6 39 29 60t50 21h13q26 0 43.5 -20.5t12.5 -60.5l-26 -174h-113l-23 -165q-4 -27 5.5 -40t20.5 -13zM139 266l21 151q4 27 -5 40t-23 13h-8
q-14 0 -27.5 -13t-16.5 -40l-22 -151h81zM123 535l59 86h32l-67 -86h-24z" />
    <glyph glyph-name="ecircumflex" unicode="&#xea;" horiz-adv-x="186" 
d="M57 25h11q14 0 26.5 13t17.5 40l18 128h33l-18 -128q-5 -40 -29 -60.5t-50 -20.5h-16q-23 0 -40 20.5t-12 60.5l48 339q6 39 29 60t49 21h13q26 0 44 -20.5t12 -60.5l-25 -174h-113l-23 -165q-4 -27 5 -40t20 -13zM138 266l22 151q4 27 -5.5 40t-23.5 13h-7
q-14 0 -27.5 -13t-16.5 -40l-22 -151h80zM165 621l43 -86h-33l-29 69l-49 -69h-33l68 86h33z" />
    <glyph glyph-name="edieresis" unicode="&#xeb;" horiz-adv-x="186" 
d="M58 25h11q14 0 26.5 13t16.5 40l18 128h34l-18 -128q-6 -40 -29.5 -60.5t-49.5 -20.5h-17q-23 0 -40 20.5t-11 60.5l47 339q6 39 29.5 60t49.5 21h13q26 0 43.5 -20.5t12.5 -60.5l-25 -174h-114l-23 -165q-4 -27 5.5 -40t20.5 -13zM139 266l21 151q4 27 -5 40t-23 13h-7
q-14 0 -27.5 -13t-17.5 -40l-22 -151h81zM179 549h-25l9 63h25zM122 549h-24l9 63h24z" />
    <glyph glyph-name="igrave" unicode="&#xec;" horiz-adv-x="79" 
d="M61 495l-70 -495h33l70 495h-33zM71 534l-42 86h32l34 -86h-24z" />
    <glyph glyph-name="iacute" unicode="&#xed;" horiz-adv-x="79" 
d="M94 495l-70 -495h-33l70 495h33zM71 534l58 86h32l-67 -86h-23z" />
    <glyph glyph-name="icircumflex" unicode="&#xee;" horiz-adv-x="79" 
d="M94 495l-70 -495h-33l70 495h33zM113 620l42 -86h-32l-30 68l-49 -68h-32l67 86h34z" />
    <glyph glyph-name="idieresis" unicode="&#xef;" horiz-adv-x="79" 
d="M61 495l-70 -495h33l70 495h-33zM69 549h-25l9 63h25zM125 549h-24l9 63h24z" />
    <glyph glyph-name="eth" unicode="&#xf0;" horiz-adv-x="208" 
d="M134 0h-27l1 34q-14 -17 -30 -27t-30 -10h-3q-26 0 -38.5 20.5t-7.5 60.5l47 339q6 40 24.5 60.5t44.5 20.5h3q14 0 26.5 -10t22.5 -27l20 141h-35l4 25h34l11 72h33l-11 -72h44l-4 -25h-43zM124 470q-14 0 -27 -13t-17 -40l-48 -339q-4 -27 5.5 -40t22.5 -13h4
q14 0 29.5 16.5t19.5 43.5l23 162l25 171q1 23 -10 37.5t-24 14.5h-3z" />
    <glyph glyph-name="ntilde" unicode="&#xf1;" horiz-adv-x="191" 
d="M136 470q13 0 22.5 -13t5.5 -40l-60 -417h34l59 417q6 40 -6.5 60.5t-38.5 20.5h-4q-14 0 -30 -10t-30 -27l5 34h-33l-70 -495h33l57 408h1q4 26 20.5 44t30.5 18h4zM90 578q19 24 42 24q16 0 30 -11t30 -11q15 0 29 14l15 -12q-19 -23 -43 -23q-8 0 -15.5 3.5t-15 7.5
t-14 7.5t-13.5 3.5q-18 0 -31 -15z" />
    <glyph glyph-name="ograve" unicode="&#xf2;" horiz-adv-x="186" 
d="M53 -3q-26 0 -42.5 20.5t-11.5 60.5l47 339q7 40 29.5 60.5t49.5 20.5h13q26 0 43.5 -20.5t12.5 -60.5l-49 -339q-5 -40 -28.5 -60.5t-50.5 -20.5h-13zM124 470q-14 0 -27.5 -13t-16.5 -40l-48 -339q-4 -27 5.5 -40t23.5 -13h7q14 0 27 13t17 40l48 339q4 27 -5 40
t-23 13h-8zM126 535l-43 86h33l33 -86h-23z" />
    <glyph glyph-name="oacute" unicode="&#xf3;" horiz-adv-x="185" 
d="M53 -3q-26 0 -42.5 20.5t-11.5 60.5l47 339q7 40 29.5 60.5t49.5 20.5h13q26 0 43.5 -20.5t12.5 -60.5l-49 -339q-5 -40 -28.5 -60.5t-50.5 -20.5h-13zM124 470q-14 0 -27.5 -13t-16.5 -40l-48 -339q-4 -27 5.5 -40t23.5 -13h7q14 0 27 13t17 40l48 339q4 27 -5 40
t-23 13h-8zM125 535l58 86h33l-68 -86h-23z" />
    <glyph glyph-name="ocircumflex" unicode="&#xf4;" horiz-adv-x="186" 
d="M54 -3q-26 0 -43 20.5t-12 60.5l48 339q6 40 29 60.5t49 20.5h13q26 0 44 -20.5t12 -60.5l-48 -339q-5 -40 -29 -60.5t-50 -20.5h-13zM125 470q-14 0 -27.5 -13t-17.5 -40l-47 -339q-5 -27 5 -40t24 -13h7q14 0 26.5 13t17.5 40l48 339q4 27 -5.5 40t-23.5 13h-7z
M167 621l43 -86h-32l-30 68l-49 -68h-32l67 86h33z" />
    <glyph glyph-name="otilde" unicode="&#xf5;" horiz-adv-x="186" 
d="M53 -3q-26 0 -43 20.5t-12 60.5l48 339q6 40 29 60.5t50 20.5h13q26 0 43.5 -20.5t12.5 -60.5l-49 -339q-5 -40 -29 -60.5t-50 -20.5h-13zM124 470q-14 0 -27 -13t-17 -40l-48 -339q-4 -27 5.5 -40t23.5 -13h7q14 0 26.5 13t17.5 40l48 339q4 27 -5.5 40t-23.5 13h-7z
M71 578q19 24 43 24q8 0 15 -3.5t14.5 -7.5t14.5 -7.5t15 -3.5q16 0 29 14l16 -12q-19 -23 -43 -23q-17 0 -31.5 11t-27.5 11q-16 0 -31 -15z" />
    <glyph glyph-name="odieresis" unicode="&#xf6;" horiz-adv-x="186" 
d="M54 -3q-26 0 -43 20.5t-12 60.5l48 339q6 40 29 60.5t49 20.5h13q27 0 44.5 -20.5t11.5 -60.5l-48 -339q-6 -40 -29.5 -60.5t-49.5 -20.5h-13zM125 470q-14 0 -27.5 -13t-17.5 -40l-47 -339q-5 -27 5 -40t24 -13h7q14 0 26.5 13t17.5 40l47 339q5 27 -4.5 40t-23.5 13h-7
zM124 550h-25l9 63h25zM180 550h-24l9 63h24z" />
    <glyph glyph-name="divide" unicode="&#xf7;" horiz-adv-x="340" 
d="M335 337h-296l4 25h296zM214 396h-36l10 75h36zM190 227h-37l11 75h36z" />
    <glyph glyph-name="oslash" unicode="&#xf8;" horiz-adv-x="207" 
d="M55 -3q-29 0 -45 21l-13 -31h-21l24 57q-3 13 -1 34l49 339q6 40 29 60.5t49 20.5h13q26 0 43 -19l12 29h22l-22 -53q4 -15 1 -38l-48 -339q-6 -40 -29.5 -60.5t-49.5 -20.5h-13zM62 25h7q14 0 27 13t17 40l39 278l-120 -287q-2 -23 7.5 -33.5t22.5 -10.5zM126 470
q-14 0 -27.5 -13t-17.5 -40l-39 -271l120 285q-1 20 -9.5 29.5t-19.5 9.5h-7z" />
    <glyph glyph-name="ugrave" unicode="&#xf9;" horiz-adv-x="189" 
d="M60 25q-14 0 -23 13t-5 40l59 417h-34l-58 -417q-11 -81 44 -81h4q14 0 30 10t30 26l-5 -33h34l70 495h-33l-59 -408q-4 -27 -20.5 -44.5t-30.5 -17.5h-3zM126 534l-43 86h33l33 -86h-23z" />
    <glyph glyph-name="uacute" unicode="&#xfa;" horiz-adv-x="189" 
d="M63 25q14 0 30.5 17.5t20.5 44.5l59 408h33l-70 -495h-34l5 33q-14 -16 -30 -26t-30 -10h-4q-55 0 -44 81l58 417h34l-59 -417q-4 -27 5 -40t23 -13h3zM125 534l58 86h33l-68 -86h-23z" />
    <glyph glyph-name="ucircumflex" unicode="&#xfb;" horiz-adv-x="189" 
d="M63 25q14 0 30.5 17.5t20.5 44.5l59 408h33l-70 -495h-34l5 33q-14 -16 -30 -26t-30 -10h-4q-55 0 -44 81l58 417h34l-59 -417q-4 -27 5 -40t23 -13h3zM167 620l42 -86h-32l-30 68l-49 -68h-32l68 86h33z" />
    <glyph glyph-name="udieresis" unicode="&#xfc;" horiz-adv-x="189" 
d="M60 25q-14 0 -23 13t-5 40l59 417h-34l-58 -417q-6 -40 6 -60.5t38 -20.5h4q14 0 29 9.5t29 25.5l-4 -32h34l71 495h-33l-61 -419q-7 -23 -22 -37t-27 -14h-3zM123 549h-25l9 63h25zM179 549h-24l9 63h24z" />
    <glyph glyph-name="yacute" unicode="&#xfd;" horiz-adv-x="163" 
d="M170 495h29l-171 -660h-33l43 165l2 495h31l-7 -397h2zM112 535l59 86h32l-67 -86h-24z" />
    <glyph glyph-name="thorn" unicode="&#xfe;" horiz-adv-x="193" 
d="M125 699l-29 -201h49q26 0 43.5 -20.5t11.5 -60.5l-48 -339q-6 -40 -29 -60.5t-49 -20.5h-48l-23 -162h-36l123 864h35zM74 25q14 0 27 13t17 40l48 339q4 27 -5.5 40t-23.5 13h-45l-62 -445h44z" />
    <glyph glyph-name="ydieresis" unicode="&#xff;" horiz-adv-x="163" 
d="M66 98h-2l7 397h-31l-2 -495l-43 -165h33l170 660h-28zM110 550h-25l9 63h25zM166 550h-24l9 63h24z" />
    <glyph glyph-name="Amacron" unicode="&#x100;" horiz-adv-x="194" 
d="M118 0l8 203h-78l-49 -203h-32l168 699h47l-29 -699h-35zM54 231h73l16 362h-1zM225 772h-114l3 25h115z" />
    <glyph glyph-name="amacron" unicode="&#x101;" horiz-adv-x="186" 
d="M42 -3q-54 0 -42 81l16 118q6 40 24 60.5t44 20.5h3q29 0 50 -24l24 164q4 27 -5.5 40t-23.5 13h-8q-14 0 -27 -13t-17 -40l-17 -126h-33l17 126q6 40 29 60.5t50 20.5h13q26 0 43.5 -21t11.5 -60l-59 -417h-34l3 23q-14 -12 -29.5 -19t-28.5 -7h-4zM93 252
q-14 0 -27 -13t-17 -40l-17 -124q-4 -27 5.5 -40t23.5 -13h3q13 0 27.5 12t19.5 38l21 146q1 20 -10.5 27t-22.5 7h-6zM198 568h-114l4 26h114z" />
    <glyph glyph-name="Abreve" unicode="&#x102;" horiz-adv-x="194" 
d="M153 0l29 699h-46l-169 -699h32l49 203h79l-9 -203h35zM143 593h1l-16 -362h-73zM141 813q-2 -14 7 -25t23 -11t27 11t15 25h21q-3 -23 -22.5 -40t-44.5 -17q-22 0 -36.5 16.5t-10.5 40.5h21z" />
    <glyph glyph-name="abreve" unicode="&#x103;" horiz-adv-x="186" 
d="M42 -3q-54 0 -43 81l17 118q5 40 23.5 60.5t44.5 20.5h4q28 0 50 -24l23 164q4 27 -6 40t-24 13h-7q-14 0 -26.5 -13t-17.5 -40l-17 -126h-34l18 126q5 40 29 60.5t50 20.5h13q26 0 43.5 -21t11.5 -60l-59 -417h-33l3 25q-14 -13 -30 -20.5t-30 -7.5h-3zM93 252
q-14 0 -27 -13t-17 -40l-17 -124q-4 -27 5 -40t23 -13h3q14 0 29.5 13t19.5 40l19 137q4 23 -8.5 31.5t-24.5 8.5h-5zM113 609q-2 -14 7 -24.5t23 -10.5q15 0 27.5 10.5t14.5 24.5h22q-4 -23 -23 -39.5t-44 -16.5q-22 0 -36.5 16.5t-11.5 39.5h21z" />
    <glyph glyph-name="Aogonek" unicode="&#x104;" horiz-adv-x="194" 
d="M175 -61q-9 -16 -25 -23.5t-30.5 -6t-24 11.5t-7.5 30q2 15 12 27t24 22h-6l8 203h-78l-49 -203h-32l168 699h46l-28 -699h-1q-17 -7 -28.5 -20t-13.5 -25t3.5 -19t14 -7.5t18.5 4t17 14.5zM54 231h73l16 362h-1z" />
    <glyph glyph-name="aogonek" unicode="&#x105;" horiz-adv-x="186" 
d="M42 -3q-52 0 -43 81l17 118q5 40 23.5 60.5t45.5 20.5h3q28 0 50 -25l23 165q5 27 -5 40t-24 13h-8q-14 0 -26.5 -13t-16.5 -40l-18 -126h-33l18 126q5 40 28.5 60.5t49.5 20.5h13q27 0 44 -21t12 -60l-60 -417h-33l3 24q-14 -12 -29.5 -19.5t-29.5 -7.5h-4zM93 252
q-14 0 -26.5 -13t-16.5 -40l-18 -124q-4 -27 5.5 -40t23.5 -13h3q14 0 29 13t19 40l20 137v3q2 22 -10 29.5t-23 7.5h-6zM147 -53q-8 -10 -17.5 -14.5t-18 -4t-14 7.5t-3.5 19t13.5 25t28.5 20h-28q-14 -10 -24 -22t-12 -27q-3 -20 7 -30t24.5 -11.5t30.5 6t25 23.5z" />
    <glyph glyph-name="Cacute" unicode="&#x106;" 
d="M59 -6q-13 0 -25 5t-21 15.5t-13 27t-1 40.5l74 535q3 24 12.5 40.5t21.5 27t26 15.5t28 5h13q13 0 26 -5t22 -15.5t13 -27t1 -40.5l-29 -200h-35l27 195q5 34 -6 48.5t-26 14.5h-8q-15 0 -30.5 -14.5t-20.5 -48.5l-73 -525q-5 -34 6 -48.5t25 -14.5h9q15 0 30 14.5
t20 48.5l28 196h36l-29 -201q-3 -24 -12.5 -40.5t-21.5 -27t-26 -15.5t-27 -5h-14zM160 743l58 86h33l-68 -86h-23z" />
    <glyph glyph-name="cacute" unicode="&#x107;" horiz-adv-x="186" 
d="M142 291l18 126q4 27 -5.5 40t-23.5 13h-7q-14 0 -27.5 -13t-16.5 -40l-48 -339q-4 -27 5 -40t20 -13h11q14 0 26.5 13t17.5 40l18 128h33l-18 -128q-5 -40 -29 -60.5t-50 -20.5h-16q-23 0 -40 20.5t-12 60.5l48 339q6 39 29 60t49 21h13q26 0 44 -20.5t12 -60.5
l-17 -126h-34zM124 535l58 86h33l-68 -86h-23z" />
    <glyph glyph-name="Ccircumflex" unicode="&#x108;" 
d="M59 -6q-13 0 -25 5t-21 15.5t-13 27t-1 40.5l74 535q3 24 12.5 40.5t21.5 27t26 15.5t28 5h13q13 0 26 -5t22 -15.5t13 -27t1 -40.5l-29 -200h-35l27 195q5 34 -6 48.5t-26 14.5h-8q-15 0 -30.5 -14.5t-20.5 -48.5l-73 -525q-5 -34 6 -48.5t25 -14.5h9q15 0 30 14.5
t20 48.5l28 196h36l-29 -201q-3 -24 -12.5 -40.5t-21.5 -27t-26 -15.5t-27 -5h-14zM202 829l43 -86h-33l-29 69l-49 -69h-33l68 86h33z" />
    <glyph glyph-name="ccircumflex" unicode="&#x109;" horiz-adv-x="186" 
d="M142 291l18 126q4 27 -5 40t-23 13h-8q-14 0 -27.5 -13t-16.5 -40l-48 -339q-4 -27 5.5 -40t20.5 -13h10q14 0 27 13t17 40l18 128h33l-18 -128q-5 -40 -28.5 -60.5t-50.5 -20.5h-16q-23 0 -39.5 20.5t-11.5 60.5l47 339q6 39 29 60t50 21h13q26 0 43.5 -20.5t12.5 -60.5
l-18 -126h-34zM166 621l43 -86h-33l-29 69l-49 -69h-33l68 86h33z" />
    <glyph glyph-name="Cdotaccent" unicode="&#x10a;" 
d="M59 -6q-13 0 -25.5 5t-21.5 15.5t-13 27t0 40.5l74 535q8 48 34.5 68t53.5 20h14q13 0 25.5 -5t21.5 -15.5t13 -27t1 -40.5l-29 -200h-35l27 195q5 34 -6 48.5t-26 14.5h-8q-15 0 -30 -14.5t-20 -48.5l-74 -525q-5 -34 6 -48.5t26 -14.5h8q15 0 30 14.5t20 48.5l28 196
h36l-29 -201q-4 -24 -13 -40.5t-21 -27t-26 -15.5t-27 -5h-14zM186 757h-24l9 63h24z" />
    <glyph glyph-name="cdotaccent" unicode="&#x10b;" horiz-adv-x="186" 
d="M142 291l18 126q5 27 -4.5 40t-23.5 13h-7q-14 0 -27.5 -13t-17.5 -40l-47 -339q-5 -27 4.5 -40t20.5 -13h11q14 0 26.5 13t17.5 40l18 128h33l-18 -128q-6 -40 -29.5 -60.5t-49.5 -20.5h-16q-23 0 -40 20.5t-11 60.5l46 339q6 39 29.5 60t49.5 21h13q27 0 44.5 -20.5
t11.5 -60.5l-18 -126h-34zM151 550h-24l9 63h24z" />
    <glyph glyph-name="Ccaron" unicode="&#x10c;" 
d="M59 -6q-13 0 -25.5 5t-21.5 15.5t-13 27t-1 40.5l75 535q3 24 12.5 40.5t21.5 27t26 15.5t28 5h13q13 0 26 -5t22 -15.5t13 -27t1 -40.5l-29 -200h-35l27 195q5 34 -6 48.5t-26 14.5h-8q-15 0 -30.5 -14.5t-20.5 -48.5l-74 -525q-5 -34 6.5 -48.5t25.5 -14.5h9
q15 0 29.5 14.5t19.5 48.5l29 196h36l-30 -201q-3 -24 -12 -40.5t-21 -27t-26 -15.5t-27 -5h-14zM155 745l-42 86h32l29 -69l50 69h32l-67 -86h-34z" />
    <glyph glyph-name="ccaron" unicode="&#x10d;" horiz-adv-x="186" 
d="M142 291l18 126q5 27 -4.5 40t-23.5 13h-8q-14 0 -27 -13t-17 -40l-47 -339q-5 -27 4.5 -40t20.5 -13h10q14 0 27 13t18 40l17 128h34l-18 -128q-6 -40 -29.5 -60.5t-49.5 -20.5h-16q-23 0 -40 20.5t-12 60.5l47 339q6 39 29.5 60t49.5 21h13q26 0 44 -20.5t12 -60.5
l-18 -126h-34zM121 538l-43 86h32l29 -69l49 69h33l-67 -86h-33z" />
    <glyph glyph-name="Dcaron" unicode="&#x10e;" horiz-adv-x="207" 
d="M-9 0l99 699h88q13 0 26 -4.5t22 -14t13 -25.5t1 -40l-76 -531q-3 -24 -12 -40t-21 -25.5t-26 -14t-27 -4.5h-87zM121 669l-90 -639h49q15 0 29.5 12.5t19.5 46.5l75 521q5 34 -6.5 46.5t-26.5 12.5h-50zM160 741l-43 86h32l30 -70l49 70h32l-67 -86h-33z" />
    <glyph glyph-name="dcaron" unicode="&#x10f;" horiz-adv-x="233" 
d="M45 -3q-26 0 -38.5 20.5t-7.5 60.5l47 339q6 40 24.5 60.5t44.5 20.5h3q14 0 26.5 -10t22.5 -27l34 238h33l-100 -699h-27l1 34q-14 -17 -30 -27t-30 -10h-3zM124 470q-14 0 -27 -13t-17 -40l-48 -339q-4 -27 5.5 -40t22.5 -13h4q14 0 29.5 16.5t19.5 43.5l23 162l25 171
q1 23 -10 37.5t-24 14.5h-3zM299 624l-27 -56h-16l23 56h-16l10 75h37z" />
    <glyph glyph-name="Dcroat" unicode="&#x110;" horiz-adv-x="238" 
d="M-6 0l48 337h-31l4 26h30l49 336h88q13 0 25.5 -4.5t22 -14t13.5 -25.5t1 -40l-75 -531q-3 -24 -12.5 -40t-21.5 -25.5t-26 -14t-27 -4.5h-88zM125 669l-44 -306h32l-4 -26h-31l-44 -307h50q15 0 29.5 12.5t19.5 46.5l74 521q5 34 -6 46.5t-27 12.5h-49z" />
    <glyph glyph-name="dcroat" unicode="&#x111;" horiz-adv-x="219" 
d="M134 0h-27l1 34q-14 -17 -30 -27t-30 -10h-3q-26 0 -38.5 20.5t-7.5 60.5l47 339q6 40 24.5 60.5t44.5 20.5h3q14 0 26.5 -10t22.5 -27l20 141h-35l4 25h34l11 72h33l-11 -72h44l-4 -25h-43zM124 470q-14 0 -27 -13t-17 -40l-48 -339q-4 -27 5.5 -40t22.5 -13h4
q14 0 29.5 16.5t19.5 43.5l23 162l25 171q1 23 -10 37.5t-24 14.5h-3z" />
    <glyph glyph-name="Emacron" unicode="&#x112;" horiz-adv-x="169" 
d="M121 669l-43 -306h72l-4 -27h-72l-43 -306h97l-5 -30h-132l99 699h130l-4 -30h-95zM222 772h-114l4 25h114z" />
    <glyph glyph-name="emacron" unicode="&#x113;" horiz-adv-x="186" 
d="M58 25h11q14 0 26.5 13t16.5 40l18 128h34l-18 -128q-6 -40 -29.5 -60.5t-49.5 -20.5h-17q-23 0 -40 20.5t-11 60.5l47 339q6 39 29.5 60t49.5 21h13q26 0 43.5 -20.5t12.5 -60.5l-25 -174h-114l-23 -165q-4 -27 5.5 -40t20.5 -13zM139 266l21 151q4 27 -5 40t-23 13h-7
q-14 0 -27.5 -13t-17.5 -40l-22 -151h81zM197 568h-114l3 26h115z" />
    <glyph glyph-name="Ebreve" unicode="&#x114;" horiz-adv-x="169" 
d="M217 669l3 30h-130l-99 -699h132l5 30h-97l43 306h73l3 27h-72l44 306h95zM138 813q-2 -14 7 -25t23 -11t27 11t15 25h21q-3 -23 -22.5 -40t-44.5 -17q-22 0 -36.5 16.5t-10.5 40.5h21z" />
    <glyph glyph-name="ebreve" unicode="&#x115;" horiz-adv-x="186" 
d="M58 25h10q14 0 27 13t17 40l18 128h33l-18 -128q-5 -40 -28.5 -60.5t-50.5 -20.5h-16q-23 0 -39.5 20.5t-11.5 60.5l47 339q6 39 29.5 60t49.5 21h13q27 0 44 -20.5t12 -60.5l-25 -174h-114l-23 -165q-4 -27 5.5 -40t20.5 -13zM139 266l21 151q5 27 -4.5 40t-23.5 13h-8
q-14 0 -27 -13t-17 -40l-22 -151h81zM112 609q-2 -14 7 -24.5t23 -10.5q15 0 27.5 10.5t14.5 24.5h22q-4 -23 -23 -39.5t-44 -16.5q-23 0 -37 16.5t-11 39.5h21z" />
    <glyph glyph-name="Edotaccent" unicode="&#x116;" horiz-adv-x="169" 
d="M216 669l4 30h-130l-99 -699h132l5 30h-97l42 306h73l4 27h-72l43 306h95zM175 753h-24l9 63h24z" />
    <glyph glyph-name="edotaccent" unicode="&#x117;" horiz-adv-x="186" 
d="M58 25h11q14 0 26.5 13t16.5 40l18 128h34l-18 -128q-6 -40 -29.5 -60.5t-49.5 -20.5h-17q-23 0 -40 20.5t-11 60.5l47 339q6 39 29.5 60t49.5 21h13q26 0 43.5 -20.5t12.5 -60.5l-25 -174h-114l-23 -165q-4 -27 5.5 -40t20.5 -13zM139 266l21 151q4 27 -5 40t-23 13h-7
q-14 0 -27.5 -13t-17.5 -40l-22 -151h81zM150 550h-24l9 63h24z" />
    <glyph glyph-name="Eogonek" unicode="&#x118;" horiz-adv-x="169" 
d="M97 -61q-9 -16 -25 -23.5t-30 -6t-24 11.5t-7 30q2 15 11.5 27t23.5 22h-55l99 699h130l-4 -30h-95l-44 -306h73l-3 -27h-73l-43 -306h97l-4 -30h-50q-17 -7 -28.5 -20t-13.5 -25t3.5 -19t14 -7.5t18 4t17.5 14.5z" />
    <glyph glyph-name="eogonek" unicode="&#x119;" horiz-adv-x="186" 
d="M100 -64q-10 -16 -26 -23.5t-30.5 -6t-24.5 11.5t-7 30q2 15 11.5 27t23.5 22q-23 2 -38.5 22t-10.5 59l48 339q6 39 29.5 60t49.5 21h13q26 0 43.5 -20.5t12.5 -60.5l-25 -174h-114l-24 -165q-4 -27 5.5 -40t20.5 -13h11q14 0 26.5 13t17.5 40l18 128h34l-19 -128
q-5 -38 -26.5 -58.5t-47.5 -22.5q-16 -8 -25.5 -21t-11.5 -24q-2 -12 3.5 -19t14 -7.5t18.5 4t18 14.5zM138 266l22 151q4 27 -5 40t-23 13h-8q-14 0 -27 -13t-17 -40l-22 -151h80z" />
    <glyph glyph-name="Ecaron" unicode="&#x11a;" horiz-adv-x="169" 
d="M216 669l5 30h-131l-99 -699h133l4 30h-97l43 306h73l4 27h-73l43 306h95zM145 741l-43 86h33l29 -69l49 69h33l-67 -86h-34z" />
    <glyph glyph-name="ecaron" unicode="&#x11b;" horiz-adv-x="186" 
d="M57 25h11q14 0 27 13t17 40l18 128h34l-19 -128q-5 -40 -28.5 -60.5t-49.5 -20.5h-17q-23 0 -40 20.5t-11 60.5l47 339q6 39 29.5 60t49.5 21h13q26 0 43.5 -20.5t11.5 -60.5l-24 -174h-114l-23 -165q-4 -27 5 -40t20 -13zM139 266l21 151q4 27 -5.5 40t-23.5 13h-7
q-14 0 -27 -13t-17 -40l-22 -151h81zM120 538l-43 86h32l30 -69l48 69h33l-67 -86h-33z" />
    <glyph glyph-name="Gcircumflex" unicode="&#x11c;" 
d="M59 -6q-13 0 -25.5 5t-21.5 15.5t-13 27t-1 40.5l75 535q3 24 12.5 40.5t21.5 27t26 15.5t27 5h14q13 0 25.5 -5t22 -15.5t13.5 -27t1 -40.5l-29 -200h-35l27 195q5 34 -6 48.5t-26 14.5h-8q-15 0 -30.5 -14.5t-20.5 -48.5l-74 -525q-5 -34 6 -48.5t26 -14.5h8
q15 0 30 14.5t20 48.5v1l23 165h-41l4 30h78l-4 -30h-1l-22 -159q-1 -3 -1 -8l-1 -2l-11 -84h-19l-2 24q-14 -15 -30 -22.5t-29 -7.5h-9zM201 824l43 -86h-32l-31 68l-48 -68h-32l66 86h34z" />
    <glyph glyph-name="gcircumflex" unicode="&#x11d;" horiz-adv-x="189" 
d="M205 495l-83 -579q-5 -40 -28.5 -60.5t-46.5 -20.5h-17q-26 0 -43 20.5t-11 60.5l8 55h33l-8 -55q-4 -27 5.5 -40t22.5 -13h11q11 0 24 13t17 40l16 114q-14 -15 -29.5 -24t-28.5 -9h-4q-26 0 -38 20.5t-7 60.5l48 339q6 40 24.5 60.5t44.5 20.5h4q13 0 25.5 -9t22.5 -24
l2 16l9 14h27zM63 25q14 0 29 15t20 41l48 335l7 49q10 -15 15 -34t2 -39l-41 -289q-3 -20 -13.5 -39t-24.5 -34l7 49v2q0 1 0.5 2t0.5 2l46 325q2 13 0 24.5t-7 19t-11.5 12t-13.5 4.5h-3q-14 0 -27 -13t-17 -40l-49 -339q-3 -27 6 -40t23 -13h3zM164 621l42 -86h-32
l-29 69l-50 -69h-32l68 86h33z" />
    <glyph glyph-name="Gbreve" unicode="&#x11e;" 
d="M59 -6q-13 0 -25.5 5t-21.5 15.5t-13 27t-1 40.5l75 535q3 24 12.5 40.5t21.5 27t26 15.5t28 5h14q13 0 25.5 -5t21.5 -15.5t13 -27t1 -40.5l-29 -200h-35l27 195q5 34 -6 48.5t-26 14.5h-8q-15 0 -30 -14.5t-20 -48.5l-75 -525q-5 -34 6.5 -48.5t26.5 -14.5h8
q15 0 29.5 14.5t19.5 48.5l24 166h-42l4 30h79l-28 -187h1l-14 -96h-19l-1 25q-14 -15 -30.5 -23t-29.5 -8h-9zM147 813q-2 -14 7 -25t23 -11q15 0 27.5 11t14.5 25h22q-4 -23 -23 -40t-44 -17q-22 0 -36.5 16.5t-11.5 40.5h21z" />
    <glyph glyph-name="gbreve" unicode="&#x11f;" horiz-adv-x="189" 
d="M177 495l-8 -14l-3 -16q-9 15 -21.5 24t-25.5 9h-4q-26 0 -44.5 -20.5t-24.5 -60.5l-48 -339q-5 -40 7 -60.5t38 -20.5h3q13 0 28.5 9t29.5 24l-16 -114q-4 -27 -17 -40t-24 -13h-11q-13 0 -22.5 13t-5.5 40l8 55h-33l-8 -55q-5 -40 12 -60.5t43 -20.5h17q23 0 46 20.5
t29 60.5l82 579h-27zM60 25q-14 0 -23 13t-6 40l49 339q4 27 16.5 40t26.5 13h3q13 0 24 -14.5t9 -39.5l-49 -343q-6 -23 -20.5 -35.5t-26.5 -12.5h-3zM109 609q-2 -14 7.5 -24.5t23.5 -10.5q15 0 27 10.5t14 24.5h22q-3 -23 -22 -39.5t-45 -16.5q-22 0 -36.5 16.5
t-11.5 39.5h21z" />
    <glyph glyph-name="Gdotaccent" unicode="&#x120;" 
d="M59 -6q-13 0 -25.5 5t-21.5 15.5t-13 27t-1 40.5l75 535q4 24 13 40.5t21 27t26 15.5t27 5h14q13 0 25.5 -5t22 -15.5t13.5 -27t1 -40.5l-29 -200h-36l28 195q5 34 -6 48.5t-26 14.5h-9q-15 0 -29.5 -14.5t-19.5 -48.5l-75 -525q-5 -34 6 -48.5t26 -14.5h8q15 0 30 14.5
t20 48.5v1l23 165h-41l4 30h78l-4 -30h-1l-22 -159l-2 -11l-12 -83h-18l-2 24q-14 -15 -30 -22.5t-30 -7.5h-8zM185 753h-24l9 63h25z" />
    <glyph glyph-name="gdotaccent" unicode="&#x121;" horiz-adv-x="189" 
d="M178 495l-8 -14l-3 -16q-9 14 -21.5 23.5t-26.5 9.5h-3q-26 0 -45 -20.5t-25 -60.5l-48 -339q-5 -40 7 -60.5t38 -20.5h4q13 0 28.5 9t29.5 24l-16 -114q-4 -27 -17 -40t-24 -13h-11q-13 0 -22.5 13t-5.5 40l8 55h-33l-8 -55q-6 -40 11.5 -60.5t43.5 -20.5h16
q23 0 46.5 20.5t28.5 60.5q4 28 10.5 74t14.5 101t16.5 114.5t16 114.5t14.5 101t11 74h-27zM60 25q-14 0 -23 13t-5 40l48 339q4 27 16.5 40t26.5 13h3q7 0 13.5 -4.5t12 -12t7.5 -19t0 -24.5l-46 -325q-4 -27 -20 -43.5t-30 -16.5h-3zM148 550h-24l9 63h24z" />
    <glyph glyph-name="uni0122" unicode="&#x122;" 
d="M60 -6q-14 0 -26 5t-21 15.5t-13 27t-1 40.5l75 535q7 47 33.5 67.5t53.5 20.5h14q13 0 25.5 -5t22 -15.5t13.5 -27t1 -40.5l-29 -200h-35l27 195q5 34 -6 48.5t-26 14.5h-9q-15 0 -30 -14.5t-20 -48.5l-74 -525q-5 -34 5.5 -48.5t26.5 -14.5h8q15 0 30 14.5t20 48.5v1
l23 165h-41l4 30h78l-4 -30h-1l-22 -159q-1 -3 -1 -8l-1 -2l-11 -84h-19l-2 24q-14 -15 -30 -22.5t-30 -7.5h-8zM68 -105l-27 -56h-17l23 56h-15l10 75h37z" />
    <glyph glyph-name="uni0123" unicode="&#x123;" horiz-adv-x="189" 
d="M177 495l-8 -14l-3 -16q-9 14 -21.5 23.5t-25.5 9.5h-4q-26 0 -45 -20.5t-24 -60.5l-48 -339q-5 -40 7 -60.5t38 -20.5h3q13 0 29 9t30 25l-16 -115q-4 -27 -17.5 -40t-24.5 -13h-11q-13 0 -22 13t-5 40l7 55h-33l-7 -55q-6 -40 11 -60.5t43 -20.5h17q23 0 46 20.5
t29 60.5l82 579h-27zM60 25q-14 0 -23.5 13t-5.5 40l49 339q4 27 16.5 40t26.5 13h3q13 0 24.5 -14.5t9.5 -39.5l-8 -50l-47 -335q14 15 24 33.5t13 38.5l41 289q3 20 -2 39t-15 34l-6 -49q0 -2 -0.5 -3t-0.5 -3l-7 -44l-39 -281q-5 -27 -20.5 -43.5t-29.5 -16.5h-3z
M128 594l22 44h15l-18 -44h8l-8 -59h-27z" />
    <glyph glyph-name="Hcircumflex" unicode="&#x124;" 
d="M247 699l-100 -699h-36l48 336h-85l-47 -336h-36l99 699h36l-48 -336h85l48 336h36zM203 824l43 -86h-33l-29 69l-49 -69h-33l68 86h33z" />
    <glyph glyph-name="hcircumflex" unicode="&#x125;" horiz-adv-x="192" 
d="M133 470q-14 0 -29.5 -16t-20.5 -40l-59 -414h-33l99 699h34l-34 -238q14 17 29.5 27t29.5 10h3q27 0 39 -20.5t7 -60.5l-60 -417h-33l59 417q5 27 -4.5 40t-23.5 13h-3zM142 824l42 -86h-32l-30 68l-49 -68h-32l67 86h34z" />
    <glyph glyph-name="LATIN CAPITAL LETTER H WITH STROKE" unicode="&#x126;" 
d="M63 507l27 192h36l-28 -192h85l28 192h36l-28 -192h18l-4 -25h-17l-69 -482h-36l48 336h-85l-47 -336h-36l68 482h-18l4 25h18zM163 363l17 119h-85l-17 -119h85z" />
    <glyph glyph-name="LATIN SMALL LETTER H WITH STROKE" unicode="&#x127;" horiz-adv-x="192" 
d="M133 470q-13 0 -28 -14.5t-21 -37.5l-1 -4l-59 -414h-33l85 602h-31l3 25h32l10 72h34l-11 -72h47l-4 -25h-46l-20 -140q14 16 29.5 26t29.5 10h3q27 0 39 -20.5t7 -60.5l-60 -417h-33l59 417q4 27 -5 40t-23 13h-3z" />
    <glyph glyph-name="Itilde" unicode="&#x128;" horiz-adv-x="84" 
d="M90 699l-99 -699h36l99 699h-36zM49 790q18 24 42 24q16 0 30 -11t30 -11t29 14l16 -11q-20 -24 -43 -24q-17 0 -31.5 11t-27.5 11q-17 0 -31 -14z" />
    <glyph glyph-name="itilde" unicode="&#x129;" horiz-adv-x="79" 
d="M61 495l-70 -495h33l70 495h-33zM17 577q19 24 42 24q16 0 30 -11t30 -11q15 0 29 14l15 -11q-18 -24 -42 -24q-17 0 -31.5 11t-27.5 11q-17 0 -31 -14z" />
    <glyph glyph-name="Imacron" unicode="&#x12a;" horiz-adv-x="84" 
d="M126 699l-99 -699h-36l99 699h36zM175 781h-114l4 25h114z" />
    <glyph glyph-name="imacron" unicode="&#x12b;" horiz-adv-x="79" 
d="M94 495l-70 -495h-33l70 495h33zM143 568h-114l4 25h114z" />
    <glyph glyph-name="Ibreve" unicode="&#x12c;" horiz-adv-x="84" 
d="M90 699l-99 -699h35l100 699h-36zM91 822q-2 -14 7 -25t23 -11t27 11t15 25h21q-3 -23 -22.5 -40t-44.5 -17q-22 0 -36.5 17t-10.5 40h21z" />
    <glyph glyph-name="ibreve" unicode="&#x12d;" horiz-adv-x="79" 
d="M61 495l-70 -495h34l69 495h-33zM58 609q-2 -14 7.5 -25t23.5 -11q15 0 27 11t14 25h22q-3 -23 -22 -40t-44 -17q-22 0 -37 16.5t-12 40.5h21z" />
    <glyph glyph-name="Iogonek" unicode="&#x12e;" horiz-adv-x="84" 
d="M49 -61q-9 -16 -25 -23.5t-30 -6t-24 11.5t-7 30q2 15 11.5 27t23.5 22h-7l99 699h35l-98 -699h-1q-17 -7 -28.5 -20t-13.5 -25t3.5 -19t14 -7.5t18 4t17.5 14.5z" />
    <glyph glyph-name="iogonek" unicode="&#x12f;" horiz-adv-x="79" 
d="M46 -61q-9 -16 -25 -23.5t-30 -6t-23.5 11.5t-6.5 30q4 29 35 49h-5l70 495h33l-70 -495q-17 -7 -28.5 -20t-13.5 -25t3.5 -19t13.5 -7.5t18 4t17 14.5zM110 612l-9 -72h-34l10 72h33z" />
    <glyph glyph-name="Idotaccent" unicode="&#x130;" horiz-adv-x="84" 
d="M90 699l-99 -699h36l99 699h-36zM128 762h-24l9 63h24z" />
    <glyph glyph-name="dotlessi" unicode="&#x131;" horiz-adv-x="79" 
d="M92 495l-70 -495h-33l70 495h33z" />
    <glyph glyph-name="IJ" unicode="&#x132;" horiz-adv-x="288" 
d="M125 699l-98 -699h-36l98 699h36zM143 -6q-13 0 -25.5 5t-22 15.5t-13.5 27t-1 40.5l28 199h36l-28 -194q-5 -34 6 -48.5t26 -14.5h9q15 0 30 14.5t20 48.5l87 612h36l-88 -617q-7 -47 -33.5 -67.5t-53.5 -20.5h-13z" />
    <glyph glyph-name="ij" unicode="&#x133;" horiz-adv-x="160" 
d="M94 495l-70 -495h-33l70 495h33zM111 612l-10 -72h-34l10 72h34zM191 615l-11 -75h-33l11 75h33zM174 495l-83 -579q-11 -81 -89 -81l4 28q20 0 34 13t18 40l83 579h33z" />
    <glyph glyph-name="Jcircumflex" unicode="&#x134;" 
d="M60 -6q-13 0 -25.5 5t-21.5 15.5t-13 27t-1 40.5l27 199h36l-27 -194q-5 -34 6 -48.5t25 -14.5h9q15 0 30 14.5t20 48.5l87 612h36l-88 -617q-7 -47 -33.5 -67.5t-53.5 -20.5h-13zM265 824l43 -86h-32l-30 69l-49 -69h-32l67 86h33z" />
    <glyph glyph-name="jcircumflex" unicode="&#x135;" horiz-adv-x="122" 
d="M137 495l-82 -579q-12 -81 -89 -81l5 28q20 0 33.5 13t17.5 40l82 579h33zM156 630l43 -86h-33l-29 69l-49 -69h-33l68 86h33z" />
    <glyph glyph-name="uni0136" unicode="&#x136;" horiz-adv-x="201" 
d="M100 364l58 -364h-33l-56 317h-1l-44 -317h-36l99 699h36l-43 -301l147 301h33zM80 -84l-28 -56h-17l24 56h-15l10 75h36z" />
    <glyph glyph-name="uni0137" unicode="&#x137;" horiz-adv-x="173" 
d="M81 259l56 -259h-34l-48 221l-31 -221h-33l99 699h33l-58 -407l111 203h32zM66 -94l-28 -56h-15l22 56h-15l10 75h36z" />
    <glyph glyph-name=".001" unicode="&#x138;" horiz-adv-x="173" 
d="M78 259l56 -259h-34l-48 221l-31 -221h-33l70 495h33l-29 -203l111 203h32z" />
    <glyph glyph-name="Lacute" unicode="&#x139;" horiz-adv-x="151" 
d="M126 699l-95 -672h87l-4 -27h-123l99 699h36zM101 738l59 86h32l-67 -86h-24z" />
    <glyph glyph-name="lacute" unicode="&#x13a;" horiz-adv-x="77" 
d="M86 699h33l-99 -699h-33zM96 738l59 86h32l-67 -86h-24z" />
    <glyph glyph-name="uni013B" unicode="&#x13b;" horiz-adv-x="151" 
d="M126 699l-95 -672h87l-4 -27h-123l99 699h36zM54 -105l-27 -56h-16l22 56h-15l10 75h36z" />
    <glyph glyph-name="lquotesinglbase" unicode="&#x13c;" horiz-adv-x="77" 
d="M90 699h33l-99 -699h-33zM12 -98l-28 -56h-16l23 56h-16l11 75h36z" />
    <glyph glyph-name="Lcaron" unicode="&#x13d;" horiz-adv-x="173" 
d="M90 699l-99 -699h123l4 27h-87l95 672h-36zM197 625l-28 -56h-16l23 56h-16l11 75h36z" />
    <glyph glyph-name="LATIN SMALL LETTER L WITH CARON" unicode="&#x13e;" horiz-adv-x="132" 
d="M90 699h34l-100 -699h-33zM174 624l-28 -56h-17l24 56h-16l11 75h36z" />
    <glyph glyph-name="Ldot" unicode="&#x13f;" horiz-adv-x="179" 
d="M126 699l-95 -672h87l-4 -27h-123l99 699h36zM170 258h-37l11 75h36z" />
    <glyph glyph-name="lperiodcentered" unicode="&#x140;" horiz-adv-x="147" 
d="M90 699h34l-100 -699h-33zM137 298h-36l10 76h37z" />
    <glyph glyph-name="Lslash" unicode="&#x141;" horiz-adv-x="193" 
d="M166 699l-45 -314l74 48l9 -21l-88 -57l-46 -328h88l-5 -27h-123l47 329l-50 -33l-10 22l64 42l49 339h36z" />
    <glyph glyph-name="lslash" unicode="&#x142;" horiz-adv-x="135" 
d="M52 308l-26 -17l-9 22l40 26l51 360h34l-48 -335l49 32l10 -22l-64 -42l-47 -332h-33z" />
    <glyph glyph-name="Nacute" unicode="&#x143;" horiz-adv-x="223" 
d="M130 0l-28 595l-85 -595h-30l99 699h42l26 -591l85 591h33l-100 -699h-42zM172 738l59 86h32l-68 -86h-23z" />
    <glyph glyph-name="nacute" unicode="&#x144;" horiz-adv-x="191" 
d="M133 470q-13 0 -28.5 -15t-21.5 -38l-60 -417h-33l70 495h34l-5 -32q14 16 30 25.5t30 9.5h3q26 0 38.5 -20.5t6.5 -60.5l-59 -417h-34l60 417q4 27 -5 40t-23 13h-3zM118 535l59 86h32l-67 -86h-24z" />
    <glyph glyph-name="uni0145" unicode="&#x145;" horiz-adv-x="223" 
d="M130 0l-27 595h-1l-84 -595h-30l99 699h42l25 -591l85 591h33l-100 -699h-42zM80 -84l-28 -56h-17l24 56h-16l11 75h36z" />
    <glyph glyph-name="uni0146" unicode="&#x146;" horiz-adv-x="191" 
d="M132 470q-14 0 -30.5 -18t-20.5 -44h-1l-57 -408h-33l70 495h33l-5 -34q14 17 30.5 27t30.5 10h3q26 0 38.5 -20.5t6.5 -60.5l-59 -417h-34l60 417q4 27 -5.5 40t-22.5 13h-4zM69 -94l-28 -56h-16l23 56h-16l11 75h36z" />
    <glyph glyph-name="Ncaron" unicode="&#x147;" horiz-adv-x="223" 
d="M130 0l-27 595h-1l-84 -595h-30l99 699h42l25 -591l85 591h33l-100 -699h-42zM168 741l-43 86h33l29 -69l49 69h32l-67 -86h-33z" />
    <glyph glyph-name="ncaron" unicode="&#x148;" horiz-adv-x="191" 
d="M135 470q14 0 23.5 -13t5.5 -40l-60 -417h33l60 417q5 40 -7 60.5t-38 20.5h-4q-14 0 -30 -10t-30 -27l5 34h-34l-69 -495h33l57 408h1q4 26 20.5 44t30.5 18h3zM125 538l-42 86h32l29 -69l50 69h32l-67 -86h-34z" />
    <glyph glyph-name="napostrophe" unicode="&#x149;" horiz-adv-x="227" 
d="M171 470q14 0 23.5 -13t5.5 -40l-60 -417h34l59 417q6 40 -6.5 60.5t-38.5 20.5h-3q-14 0 -30.5 -10t-30.5 -27l5 34h-33l-70 -495h33l57 408h1q4 26 20.5 44t30.5 18h3zM104 608l-28 -56h-16l23 56h-16l11 75h36z" />
    <glyph glyph-name="Eng" unicode="&#x14a;" horiz-adv-x="221" 
d="M167 3l-13 -87q-5 -40 -31 -60.5t-66 -20.5l5 28q20 0 34 13t18 40l12 84h-1l-23 595h-1l-84 -595h-29l99 699h42l21 -591l84 591h32l-100 -696h1z" />
    <glyph glyph-name="eng" unicode="&#x14b;" horiz-adv-x="191" 
d="M132 470q-14 0 -30.5 -18t-20.5 -44l-1 -1l-58 -407h-33l71 495h33l-5 -34q14 17 30 27t30 10h4q26 0 38.5 -20.5t6.5 -60.5l-60 -413h1l-12 -88q-12 -81 -90 -81l4 28q20 0 34 13t18 40l12 84l60 417q4 27 -5.5 40t-23.5 13h-3z" />
    <glyph glyph-name="Omacron" unicode="&#x14c;" 
d="M59 -6q-13 0 -25.5 5t-21.5 15.5t-13 27t-1 40.5l75 535q4 24 13 40.5t21 27t26 15.5t27 5h14q13 0 25.5 -5t22 -15.5t13.5 -27t1 -40.5l-76 -535q-4 -24 -13 -40.5t-21 -27t-26 -15.5t-27 -5h-14zM159 675q-15 0 -30 -14.5t-20 -48.5l-75 -525q-5 -34 6 -48.5t26 -14.5
h8q15 0 30 14.5t20 48.5l75 525q5 34 -6 48.5t-26 14.5h-8zM232 772h-114l3 25h115z" />
    <glyph glyph-name="omacron" unicode="&#x14d;" horiz-adv-x="186" 
d="M54 -3q-26 0 -43.5 20.5t-11.5 60.5l47 339q7 40 30 60.5t49 20.5h13q26 0 43.5 -20.5t12.5 -60.5l-48 -339q-6 -40 -29.5 -60.5t-49.5 -20.5h-13zM125 470q-14 0 -27.5 -13t-17.5 -40l-48 -339q-4 -27 5.5 -40t23.5 -13h8q14 0 26.5 13t16.5 40l48 339q4 27 -5 40
t-23 13h-7zM198 568h-114l4 26h114z" />
    <glyph glyph-name="Obreve" unicode="&#x14e;" 
d="M59 -6q-13 0 -25.5 5t-21.5 15.5t-13 27t-1 40.5l75 535q3 24 12.5 40.5t21.5 27t26 15.5t28 5h14q13 0 25.5 -5t21.5 -15.5t13 -27t1 -40.5l-77 -535q-3 -24 -12 -40.5t-21 -27t-26 -15.5t-27 -5h-14zM159 675q-15 0 -30 -14.5t-20 -48.5l-75 -525q-5 -34 6.5 -48.5
t26.5 -14.5h8q15 0 29.5 14.5t19.5 48.5l75 525q5 34 -6 48.5t-26 14.5h-8zM147 813q-2 -14 7 -25t23 -11q15 0 27.5 11t14.5 25h22q-4 -23 -23 -40t-44 -17q-22 0 -36.5 16.5t-11.5 40.5h21z" />
    <glyph glyph-name="obreve" unicode="&#x14f;" horiz-adv-x="186" 
d="M53 -3q-26 0 -42.5 20.5t-11.5 60.5l47 339q7 40 30 60.5t49 20.5h13q27 0 44 -20.5t12 -60.5l-49 -339q-5 -40 -28.5 -60.5t-50.5 -20.5h-13zM124 470q-14 0 -27 -13t-17 -40l-48 -339q-4 -27 5.5 -40t23.5 -13h7q14 0 27 13t17 40l48 339q5 27 -4.5 40t-23.5 13h-8z
M114 609q-3 -14 6.5 -24.5t23.5 -10.5t26.5 10.5t14.5 24.5h22q-3 -23 -22.5 -39.5t-44.5 -16.5q-22 0 -36.5 16.5t-10.5 39.5h21z" />
    <glyph glyph-name="Ohungarumlaut" unicode="&#x150;" 
d="M59 -6q-13 0 -25.5 5t-21.5 15.5t-13 27t0 40.5l74 535q3 24 12.5 40.5t21.5 27t26 15.5t28 5h14q13 0 25.5 -5t21.5 -15.5t13 -27t1 -40.5l-76 -535q-4 -24 -13 -40.5t-21 -27t-26 -15.5t-27 -5h-14zM159 675q-15 0 -30.5 -14.5t-20.5 -48.5l-73 -525q-5 -34 6 -48.5
t26 -14.5h8q15 0 30 14.5t20 48.5l74 525q5 34 -6 48.5t-26 14.5h-8zM185 735l58 86h33l-68 -86h-23zM131 735l58 86h33l-68 -86h-23z" />
    <glyph glyph-name="ohungarumlaut" unicode="&#x151;" horiz-adv-x="186" 
d="M53 -3q-26 0 -42.5 20.5t-11.5 60.5l47 339q7 40 30 60.5t49 20.5h13q27 0 44 -20.5t12 -60.5l-49 -339q-5 -40 -28.5 -60.5t-50.5 -20.5h-13zM124 470q-14 0 -27 -13t-17 -40l-48 -339q-4 -27 5.5 -40t23.5 -13h7q14 0 27 13t17 40l48 339q5 27 -4.5 40t-23.5 13h-8z
M151 532l58 86h33l-68 -86h-23zM97 532l58 86h33l-68 -86h-23z" />
    <glyph glyph-name="OE" unicode="&#x152;" horiz-adv-x="310" 
d="M61 -6q-14 0 -26 5t-21 15.5t-13 27t-1 40.5l75 535q3 24 12.5 40.5t21.5 27t26 15.5t28 5h187l-5 -32h-114q5 -11 7 -24.5t-1 -31.5l-36 -254h78l-4 -27h-78l-35 -254q-6 -36 -23 -56h117l-5 -32h-171h-5h-14zM161 675q-16 0 -31 -14.5t-20 -48.5l-73 -525
q-5 -34 5.5 -48.5t25.5 -14.5h9q15 0 30 14.5t20 48.5l74 525q4 27 -3 41.5t-18 19.5h-6v1q-2 1 -5 1h-8z" />
    <glyph glyph-name="oe" unicode="&#x153;" horiz-adv-x="300" 
d="M54 -3q-26 0 -43 20.5t-11 60.5l47 339q6 40 29 60.5t49 20.5h13q31 0 48 -25q22 25 53 25h13q27 0 44.5 -20.5t11.5 -60.5l-25 -174h-114l-23 -165q-1 -2 -1 -6q-2 -24 7 -35.5t20 -11.5h10q14 0 27 13t17 40l19 128h33l-18 -128q-6 -40 -29.5 -60.5t-49.5 -20.5h-16
q-13 0 -24.5 6t-19.5 19q-22 -25 -54 -25h-13zM125 470q-14 0 -27.5 -13t-17.5 -40l-48 -339q-4 -27 5.5 -40t23.5 -13h7q14 0 27 13t18 40l48 339q4 34 25 56q12 -22 8 -56l-22 -151l-3 -23l-23 -165q-1 -2 -1 -6q-6 -30 -24 -50q-6 10 -8.5 24t0.5 32l48 339q4 27 -5.5 40
t-22.5 13h-8zM253 266l21 151q4 27 -5 40t-23 13h-7q-14 0 -27.5 -13t-17.5 -40l-22 -151h81zM162 266h10l-3 -23h-11z" />
    <glyph glyph-name="Racute" unicode="&#x154;" horiz-adv-x="213" 
d="M212 416q-5 -32 -17 -47.5t-28 -20.5q14 -4 22.5 -19.5t3.5 -47.5l-26 -179q-7 -50 -7.5 -71.5t1.5 -30.5h-36q-3 13 -1.5 35.5t7.5 66.5l26 176q7 57 -27 57h-56l-47 -335h-36l99 699h88q29 0 48.5 -21.5t13.5 -66.5zM134 362q16 0 27 13.5t15 42.5l27 188q5 34 -6 48.5
t-27 14.5h-49l-43 -307h56zM154 738l59 86h32l-68 -86h-23z" />
    <glyph glyph-name="racute" unicode="&#x155;" horiz-adv-x="189" 
d="M132 470q-14 0 -30.5 -18t-20.5 -44h-1l-57 -408h-33l70 495h33l-5 -34q14 17 30 27t30 10h4q31 0 42 -26q4 -10 5 -24t-2 -31l-18 -126h-34l19 126q4 27 -5.5 40t-23.5 13h-3zM122 536l59 86h32l-68 -86h-23z" />
    <glyph glyph-name="uni0156" unicode="&#x156;" horiz-adv-x="213" 
d="M212 416q-5 -32 -17 -47.5t-28 -20.5q15 -4 23 -19.5t3 -47.5l-25 -179q-4 -25 -6 -42t-2.5 -29t0 -19.5t1.5 -11.5h-36q-4 13 -2 35.5t9 66.5l25 176q7 57 -27 57h-56l-47 -335h-36l99 699h88q29 0 48.5 -21.5t12.5 -66.5zM134 362q16 0 27 13.5t15 42.5l27 188
q5 34 -6 48.5t-27 14.5h-49l-43 -307h56zM73 -105l-27 -56h-16l23 56h-16l10 75h37z" />
    <glyph glyph-name="uni0157" unicode="&#x157;" horiz-adv-x="189" 
d="M132 470q-14 0 -30.5 -18t-20.5 -44h-1l-57 -408h-33l70 495h33l-5 -34q14 17 30.5 27t30.5 10h3q31 0 42 -26q8 -20 3 -55l-18 -126h-33l18 126q4 27 -5.5 40t-23.5 13h-3zM73 -105l-28 -56h-16l23 56h-16l11 75h36z" />
    <glyph glyph-name="Rcaron" unicode="&#x158;" horiz-adv-x="213" 
d="M240 611q6 45 -13.5 66.5t-48.5 21.5h-88l-99 -699h36l47 335h56q16 0 23.5 -14t2.5 -43l-25 -176q-6 -44 -7.5 -66.5t1.5 -35.5h36q-2 9 -1.5 30.5t7.5 71.5l25 179q5 32 -3 47.5t-22 19.5q16 5 28 20.5t17 47.5zM77 362l44 307h49q16 0 27 -14.5t6 -48.5l-27 -188
q-4 -29 -15.5 -42.5t-26.5 -13.5h-57zM150 741l-43 86h32l30 -70l49 70h32l-67 -86h-33z" />
    <glyph glyph-name="rcaron" unicode="&#x159;" horiz-adv-x="189" 
d="M135 470q14 0 23.5 -13t5.5 -40l-19 -126h34l18 126q5 36 -4 55q-5 13 -16 19.5t-25 6.5h-4q-14 0 -30 -10t-30 -27l5 34h-34l-69 -495h33l57 408h1q4 26 20.5 44t30.5 18h3zM117 538l-42 86h32l29 -69l50 69h32l-67 -86h-34z" />
    <glyph glyph-name="Sacute" unicode="&#x15a;" 
d="M174 417l27 195q5 34 -5.5 48.5t-26.5 14.5h-8q-15 0 -30 -14.5t-20 -48.5l-15 -104q-4 -31 1.5 -57.5t16 -50.5t23.5 -47t23.5 -47.5t16 -51t1.5 -57.5l-16 -115q-7 -47 -33.5 -67.5t-53.5 -20.5h-13q-13 0 -25.5 5t-21.5 15.5t-13.5 27t-1.5 40.5l28 200h32l-27 -195
q-5 -35 6.5 -49t27.5 -14h8q15 0 31 14.5t21 48.5l14 105q7 45 -7.5 81.5t-33.5 72t-33.5 72.5t-7.5 84l17 115q3 24 12 40.5t21 27t26 15.5t27 5h11q13 0 26 -5t22 -15.5t13 -27t1 -40.5l-28 -200h-33zM162 739l58 86h32l-67 -86h-23z" />
    <glyph glyph-name="sacute" unicode="&#x15b;" horiz-adv-x="186" 
d="M143 300l17 116q4 26 -5.5 40t-23.5 14h-6q-14 0 -27.5 -14t-17.5 -40l-9 -63q-3 -22 2.5 -39.5t16 -33t23 -30.5t23 -31t16 -34t2.5 -41l-9 -66q-5 -40 -28 -60.5t-48 -20.5h-14q-27 0 -44 20.5t-12 60.5l16 117h30l-15 -117q-5 -26 5.5 -39.5t24.5 -13.5h9
q13 0 26 13.5t17 39.5l9 64q4 31 -10.5 54t-32.5 45.5t-32 48t-9 61.5l9 66q6 39 29.5 60t49.5 21h9q27 0 44.5 -20.5t11.5 -60.5l-16 -117h-31zM123 535l58 86h33l-68 -86h-23z" />
    <glyph glyph-name="Scircumflex" unicode="&#x15c;" 
d="M173 417l28 195q5 34 -6 48.5t-26 14.5h-9q-15 0 -30 -14.5t-20 -48.5l-15 -104q-4 -31 1.5 -57.5t16 -50.5t23.5 -47t23.5 -47.5t16 -51t1.5 -57.5l-16 -115q-7 -47 -33.5 -67.5t-53.5 -20.5h-12q-13 0 -25.5 5t-22 15.5t-13.5 27t-1 40.5l27 200h33l-27 -195
q-5 -35 6.5 -49t26.5 -14h8q16 0 31.5 14.5t20.5 48.5l15 105q4 30 -1.5 56t-16 50t-23.5 47.5t-23.5 47.5t-16.5 51t-1 58l16 115q7 47 33.5 67.5t53.5 20.5h11q13 0 25.5 -5t21.5 -15.5t13 -27t1 -40.5l-28 -200h-33zM203 825l43 -86h-32l-31 68l-48 -68h-32l66 86h34z
" />
    <glyph glyph-name="scircumflex" unicode="&#x15d;" horiz-adv-x="186" 
d="M143 300l17 116q4 26 -5.5 40t-23.5 14h-6q-14 0 -27.5 -14t-17.5 -40l-9 -63q-3 -22 2.5 -39.5t16 -33t23 -30.5t23 -31t16 -34t2.5 -41l-9 -66q-5 -40 -28 -60.5t-48 -20.5h-14q-27 0 -44 20.5t-12 60.5l16 117h30l-15 -117q-5 -26 5.5 -39.5t24.5 -13.5h9
q13 0 26 13.5t17 39.5l9 64q4 31 -10.5 54t-32.5 45.5t-32 48t-9 61.5l9 66q6 39 29.5 60t49.5 21h9q27 0 44.5 -20.5t11.5 -60.5l-16 -117h-31zM165 621l42 -86h-32l-29 69l-50 -69h-32l68 86h33z" />
    <glyph glyph-name="Scedilla" unicode="&#x15e;" 
d="M6 -71q8 -7 21.5 -10.5t26.5 -2t23 8t11 20.5q1 16 -13 20.5t-27 -2.5l-8 3l16 28q-12 1 -24 6t-20 15.5t-11.5 27t-0.5 39.5l27 200h33l-27 -195q-5 -35 6 -49t27 -14h8q16 0 31.5 14.5t20.5 48.5l15 105q4 30 -1.5 56t-16 50t-23.5 47.5t-23.5 47.5t-16.5 51t-1 58
l16 115q7 47 33.5 67.5t53.5 20.5h11q13 0 25.5 -5t21.5 -15.5t13 -27t1 -40.5l-28 -200h-33l28 195q5 34 -6 48.5t-26 14.5h-9q-15 0 -30 -14.5t-20 -48.5l-15 -104q-4 -31 1.5 -57.5t16 -50.5t23.5 -47t23.5 -47.5t16 -51t1.5 -57.5l-16 -115q-7 -46 -32.5 -66.5
t-51.5 -21.5l-9 -19q17 7 32.5 -1.5t12.5 -27.5q-3 -21 -18 -32.5t-33.5 -14.5t-36 0.5t-26.5 12.5z" />
    <glyph glyph-name="scedilla" unicode="&#x15f;" horiz-adv-x="186" 
d="M0 -69q8 -7 21 -10t26 -1.5t23 8t12 20.5q1 15 -13.5 20t-27.5 -3l-7 3l17 29q-26 2 -42 22t-11 59l17 117h30l-17 -117q-4 -26 6.5 -39.5t24.5 -13.5h9q13 0 26 13.5t17 39.5l9 64q4 31 -10 54t-32 45.5t-32 48t-9 61.5l9 66q6 39 29.5 60t49.5 21h9q27 0 44 -20.5
t12 -60.5l-17 -117h-30l17 116q4 26 -5.5 40t-23.5 14h-7q-14 0 -27 -14t-17 -40l-9 -63q-3 -22 2.5 -39.5t16 -33t23 -30.5t23 -31t16 -34t2.5 -41l-10 -66q-5 -38 -27 -58.5t-46 -22.5l-10 -20q18 8 33 -1t13 -28q-3 -21 -18.5 -32.5t-34 -14.5t-36 0.5t-25.5 12.5z" />
    <glyph glyph-name="Scaron" unicode="&#x160;" 
d="M206 417l29 200q3 24 -1 40.5t-13 27t-21.5 15.5t-25.5 5h-11q-27 0 -53.5 -20t-34.5 -68l-15 -115q-5 -31 1 -58t16.5 -51t23.5 -47.5t23.5 -47.5t16 -50t1.5 -56l-15 -105q-5 -34 -20.5 -48.5t-31.5 -14.5h-8q-15 0 -26.5 14t-6.5 49l27 195h-33l-28 -200
q-3 -24 1.5 -40.5t13.5 -27t21.5 -15.5t25.5 -5h13q27 0 53.5 20.5t33.5 67.5l16 115q7 46 -7.5 83.5t-33.5 72.5t-33.5 72t-7.5 83l14 104q5 34 20.5 48.5t30.5 14.5h8q15 0 26 -14.5t6 -48.5l-27 -195h32zM158 741l-43 86h32l30 -70l49 70h32l-67 -86h-33z" />
    <glyph glyph-name="scaron" unicode="&#x161;" horiz-adv-x="186" 
d="M174 300l17 117q6 40 -11.5 60.5t-44.5 20.5h-9q-26 0 -49.5 -21t-29.5 -60l-9 -66q-5 -36 9 -61.5t32 -48t32 -45.5t10 -54l-9 -64q-4 -26 -17 -39.5t-26 -13.5h-9q-14 0 -24 13.5t-6 39.5l16 117h-30l-16 -117q-6 -40 11.5 -60.5t43.5 -20.5h14q25 0 48 20.5t29 60.5
l9 66q3 23 -2.5 41t-16 34t-23 31t-23 30.5t-16.5 33t-3 39.5l9 63q4 26 17.5 40t27.5 14h6q14 0 23.5 -14t5.5 -40l-16 -116h30zM119 538l-43 86h33l29 -69l49 69h32l-66 -86h-34z" />
    <glyph glyph-name="Tcedilla" unicode="&#x162;" horiz-adv-x="170" 
d="M195 669h-63l-95 -669h-36l95 669h-64l4 30h163zM-50 -83l7 17q8 -7 21.5 -10t26.5 -1.5t23 8t11 20.5q1 15 -13 20t-27 -3l-8 3l17 29h21l-10 -20q17 7 32.5 -1.5t12.5 -27.5q-3 -21 -18 -32.5t-33.5 -14.5t-36 0.5t-26.5 12.5z" />
    <glyph glyph-name="tcedilla" unicode="&#x163;" horiz-adv-x="124" 
d="M128 657l-23 -162h45l-4 -28h-45l-56 -389q-3 -28 7.5 -41.5t30.5 -11.5l-4 -27h-10l-9 -18q18 8 33 -1t12 -28q-3 -21 -17.5 -32.5t-33 -14.5t-36 0.5t-26.5 12.5l7 17q8 -7 21.5 -10t26.5 -1.5t23 8t11 20.5q1 7 -3 12t-10 7.5t-13.5 2t-14.5 -4.5l-8 3l17 29
q-23 5 -32 25.5t-5 52.5l55 389h-25l3 28h26l23 159z" />
    <glyph glyph-name="Tcaron" unicode="&#x164;" horiz-adv-x="170" 
d="M200 699h-163l-5 -30h64l-94 -669h35l95 669h63zM108 741l-43 86h32l30 -70l49 70h32l-67 -86h-33z" />
    <glyph glyph-name="tcaron" unicode="&#x165;" horiz-adv-x="166" 
d="M127 657l-23 -162h45l-4 -28h-45l-55 -389q-4 -28 6.5 -41.5t30.5 -11.5l-4 -27q-40 -4 -55.5 18t-10.5 62l55 389h-27l4 28h27l23 159zM206 581l-28 -56h-16l23 56h-16l11 75h37z" />
    <glyph glyph-name="_0144" unicode="&#x166;" horiz-adv-x="170" 
d="M167 334h-52l-47 -334h-36l48 334h-52l3 25h52l45 310h-64l4 30h163l-4 -30h-64l-44 -310h51z" />
    <glyph glyph-name="tbar" unicode="&#x167;" horiz-adv-x="124" 
d="M127 657l-23 -162h45l-4 -28h-45l-15 -102h46l-5 -28h-45l-36 -259q-4 -28 6.5 -41.5t30.5 -11.5l-4 -27q-40 -4 -55.5 18t-10.5 62l37 259h-27l4 28h27l14 102h-27l4 28h27l23 159z" />
    <glyph glyph-name="Utilde" unicode="&#x168;" horiz-adv-x="207" 
d="M61 -6q-13 0 -25.5 5t-21.5 15.5t-13 27t-1 40.5l87 617h36l-87 -612q-5 -34 6 -48.5t26 -14.5h8q15 0 30 14.5t20 48.5l87 612h36l-87 -617q-8 -48 -34 -68t-53 -20h-14zM101 781q18 24 42 24q7 0 14.5 -3.5t14.5 -7.5t14.5 -7.5t15.5 -3.5q16 0 30 14l15 -11
q-18 -24 -43 -24q-8 0 -15.5 3.5t-15 7.5t-14 7.5t-13.5 3.5q-18 0 -32 -14z" />
    <glyph glyph-name="utilde" unicode="&#x169;" horiz-adv-x="189" 
d="M60 25q-14 0 -23 13t-5 40l59 417h-34l-58 -417q-11 -81 44 -81h4q14 0 30 10t30 26l-5 -33h34l70 495h-33l-59 -408q-4 -27 -20.5 -44.5t-30.5 -17.5h-3zM72 577q18 24 42 24q8 0 15 -3.5t14.5 -7.5t15 -7.5t15.5 -3.5q15 0 29 14l15 -11q-18 -24 -43 -24
q-9 0 -16.5 3.5t-14.5 7.5t-14 7.5t-13 3.5q-18 0 -32 -14z" />
    <glyph glyph-name="Umacron" unicode="&#x16a;" horiz-adv-x="207" 
d="M61 -6q-13 0 -25.5 5t-21.5 15.5t-13 27t-1 40.5l87 617h36l-87 -612q-5 -34 6 -48.5t26 -14.5h8q15 0 30 14.5t20 48.5l87 612h36l-87 -617q-8 -48 -34 -68t-53 -20h-14zM227 772h-114l3 25h114z" />
    <glyph glyph-name="umacron" unicode="&#x16b;" horiz-adv-x="189" 
d="M63 25q12 0 27 14t22 37l61 419h33l-71 -495h-34l4 32q-14 -16 -29 -25.5t-29 -9.5h-4q-26 0 -38 20.5t-6 60.5l58 417h34l-59 -417q-4 -27 5 -40t23 -13h3zM197 568h-114l4 25h114z" />
    <glyph glyph-name="Ubreve" unicode="&#x16c;" horiz-adv-x="207" 
d="M60 -6q-13 0 -25.5 5t-21.5 15.5t-13 27t-1 40.5l88 617h36l-87 -612q-5 -34 6 -48.5t26 -14.5h8q15 0 30 14.5t20 48.5l87 612h36l-88 -617q-7 -47 -33.5 -67.5t-53.5 -20.5h-14zM142 813q-2 -14 7 -25t23 -11t26.5 11t14.5 25h22q-3 -23 -22 -40t-44 -17
q-23 0 -37.5 16.5t-10.5 40.5h21z" />
    <glyph glyph-name="ubreve" unicode="&#x16d;" horiz-adv-x="189" 
d="M60 25q-14 0 -23 13t-5 40l59 417h-34l-58 -417q-11 -81 44 -81h4q14 0 30 10t30 26l-5 -33h34l70 495h-33l-59 -408q-4 -27 -20.5 -44.5t-30.5 -17.5h-3zM113 609q-2 -14 7 -25t23 -11q15 0 27.5 11t14.5 25h22q-4 -23 -23 -40t-44 -17q-22 0 -36.5 16.5t-11.5 40.5h21z
" />
    <glyph glyph-name="Uring" unicode="&#x16e;" horiz-adv-x="207" 
d="M60 -6q-13 0 -25.5 5t-21.5 15.5t-13 27t0 40.5l87 617h36l-87 -612q-5 -34 6 -48.5t26 -14.5h8q15 0 30 14.5t20 48.5l87 612h36l-88 -617q-7 -47 -33.5 -67.5t-53.5 -20.5h-14zM165 734q-20 0 -34.5 15.5t-11.5 38.5t21 39.5t41 16.5t37 -16.5t10 -39.5
q-2 -21 -20.5 -37.5t-42.5 -16.5zM178 825q-14 0 -26.5 -11.5t-14.5 -25.5t7.5 -24.5t23.5 -10.5t26.5 10.5t14.5 24.5t-7.5 25.5t-23.5 11.5z" />
    <glyph glyph-name="uring" unicode="&#x16f;" horiz-adv-x="189" 
d="M60 25q-14 0 -23 13t-5 40l59 417h-34l-58 -417q-11 -81 44 -81h4q14 0 30 10t30 26l-5 -33h34l70 495h-33l-59 -408q-4 -27 -20.5 -44.5t-30.5 -17.5h-3zM137 530q-20 0 -34.5 15.5t-11.5 38.5t21 39.5t40 16.5q23 0 37.5 -16.5t11.5 -39.5q-4 -21 -22 -37.5t-42 -16.5z
M150 621q-14 0 -26 -11.5t-14 -25.5t7 -24.5t23 -10.5t26.5 10.5t14.5 24.5t-7.5 25.5t-23.5 11.5z" />
    <glyph glyph-name="Uhungarumlaut" unicode="&#x170;" horiz-adv-x="207" 
d="M60 -6q-13 0 -25.5 5t-21.5 15.5t-13 27t0 40.5l87 617h36l-87 -612q-5 -34 6 -48.5t26 -14.5h8q15 0 30 14.5t20 48.5l87 612h36l-88 -617q-7 -47 -33.5 -67.5t-53.5 -20.5h-14zM116 735l59 86h32l-68 -86h-23zM170 735l59 86h32l-68 -86h-23z" />
    <glyph glyph-name="uhungarumlaut" unicode="&#x171;" horiz-adv-x="189" 
d="M63 25q14 0 30.5 17.5t20.5 44.5l59 408h33l-70 -495h-34l5 33q-14 -16 -30 -26t-30 -10h-4q-55 0 -44 81l58 417h34l-59 -417q-4 -27 5 -40t23 -13h3zM97 531l58 86h33l-68 -86h-23zM151 531l58 86h33l-68 -86h-23z" />
    <glyph glyph-name="Uogonek" unicode="&#x172;" horiz-adv-x="207" 
d="M107 -67q-9 -16 -24.5 -23.5t-30 -6t-24.5 11.5t-7 30q2 15 11 27t23 22q-25 2 -43 22.5t-12 65.5l87 617h36l-87 -612q-5 -34 6 -48.5t26 -14.5h8q15 0 30.5 14.5t20.5 48.5l86 612h36l-87 -617q-6 -44 -29.5 -64t-49.5 -23q-15 -8 -26.5 -21.5t-13.5 -24.5
q-2 -12 3.5 -19t14 -7.5t18.5 4t17 14.5z" />
    <glyph glyph-name="uogonek" unicode="&#x173;" horiz-adv-x="189" 
d="M63 25q14 0 31 17.5t20 44.5l59 408h33l-70 -495h2q-17 -7 -29 -20t-14 -25t4 -19t14.5 -7.5t18.5 4t17 14.5l12 -8q-9 -16 -25 -23.5t-30.5 -6t-24.5 11.5t-7 30q2 15 11.5 27t23.5 22h-7l5 33q-14 -16 -30 -26t-30 -10h-4q-54 0 -45 81l60 417h33l-60 -417
q-4 -27 5.5 -40t23.5 -13h3z" />
    <glyph glyph-name="Wcircumflex" unicode="&#x174;" horiz-adv-x="298" 
d="M20 0l47 699h34l-39 -583h1l137 583h31l-22 -583h1l125 583h32l-152 -699h-37l19 566l-136 -566h-41zM250 824l42 -86h-32l-30 68l-49 -68h-32l67 86h34z" />
    <glyph glyph-name="wcircumflex" unicode="&#x175;" horiz-adv-x="284" 
d="M18 0l21 495h31l-19 -413h1l113 413h32l-6 -413h1l98 413h29l-120 -495h-39l9 426h-1l-112 -426h-38zM215 620l42 -86h-32l-30 68l-49 -68h-32l67 86h34z" />
    <glyph glyph-name="Ycircumflex" unicode="&#x176;" horiz-adv-x="191" 
d="M113 274l-39 -274h-36l39 274l-13 425h36l7 -342h1l104 342h36zM191 824l43 -86h-33l-29 69l-49 -69h-33l68 86h33z" />
    <glyph glyph-name="ycircumflex" unicode="&#x177;" horiz-adv-x="163" 
d="M170 495h29l-171 -660h-33l43 165l2 495h31l-6 -397h1zM155 620l43 -86h-32l-30 68l-49 -68h-32l67 86h33z" />
    <glyph glyph-name="Ydieresis" unicode="&#x178;" horiz-adv-x="191" 
d="M254 699h-36l-105 -342h-1l-7 342h-36l14 -425l-39 -274h36l39 274zM153 753h-25l9 63h25zM209 753h-24l9 63h24z" />
    <glyph glyph-name="Zacute" unicode="&#x179;" horiz-adv-x="195" 
d="M146 0h-170l4 25l217 647h-108l4 27h145l-3 -25l-218 -647h133zM154 739l59 86h32l-68 -86h-23z" />
    <glyph glyph-name="zacute" unicode="&#x17a;" horiz-adv-x="150" 
d="M114 0h-145l5 28l171 440h-98l4 27h131l-4 -27l-172 -440h112zM109 535l58 86h33l-68 -86h-23z" />
    <glyph glyph-name="Zdotaccent" unicode="&#x17b;" horiz-adv-x="195" 
d="M147 0h-170l3 25l217 647h-108l4 27h145l-3 -25l-218 -647h134zM180 753h-24l9 63h24z" />
    <glyph glyph-name="zdotaccent" unicode="&#x17c;" horiz-adv-x="150" 
d="M114 0h-144l4 28l171 440h-98l4 27h131l-4 -27l-172 -440h113zM135 550h-25l9 63h25z" />
    <glyph glyph-name="Zcaron" unicode="&#x17d;" horiz-adv-x="195" 
d="M150 0h-170l3 25l218 647h-109l4 27h145l-3 -25l-219 -647h134zM153 741l-43 86h32l30 -70l49 70h32l-67 -86h-33z" />
    <glyph glyph-name="zcaron" unicode="&#x17e;" horiz-adv-x="150" 
d="M115 0h-145l4 28l171 440h-98l4 27h131l-4 -27l-171 -440h112zM104 538l-42 86h32l29 -69l50 69h32l-68 -86h-33z" />
    <glyph glyph-name="longs" unicode="&#x17f;" horiz-adv-x="144" 
d="M57 495h27l18 130q3 20 11.5 36.5t22 27.5t31.5 15t41 -2l-3 -27q-24 6 -44.5 -8t-25.5 -44l-89 -623h-32l66 467h-27z" />
    <glyph glyph-name="florin" unicode="&#x192;" 
d="M50 0l67 467h-60l5 28h59l19 130q5 40 32.5 64.5t73.5 12.5l-4 -27q-23 6 -43.5 -8t-25.5 -44l-19 -128h61l-4 -28h-61l-66 -467l-13 -91q-3 -20 -11.5 -36.5t-22 -27t-31.5 -14.5t-40 2l3 27q24 -6 44 8t25 44z" />
    <glyph glyph-name="circumflex" unicode="&#x2c6;" horiz-adv-x="191" 
d="M175 683l43 -86h-32l-31 68l-48 -68h-32l66 86h34z" />
    <glyph glyph-name="caron" unicode="&#x2c7;" horiz-adv-x="211" 
d="M83 600l-44 86h33l30 -69l48 69h33l-67 -86h-33z" />
    <glyph glyph-name="breve" unicode="&#x2d8;" horiz-adv-x="182" 
d="M59 671q-2 -14 6.5 -24.5t22.5 -10.5q15 0 27.5 10.5t14.5 24.5h22q-4 -23 -22.5 -39.5t-44.5 -16.5q-22 0 -36.5 16.5t-10.5 39.5h21z" />
    <glyph glyph-name="dotaccent" unicode="&#x2d9;" horiz-adv-x="92" 
d="M54 612h-25l9 63h24z" />
    <glyph glyph-name="ring" unicode="&#x2da;" horiz-adv-x="178" 
d="M80 587q-21 0 -35.5 15.5t-11.5 37.5q4 23 22 39.5t40 16.5q23 0 37.5 -16t10.5 -40q-3 -21 -21.5 -37t-41.5 -16zM92 677q-14 0 -26 -11t-14 -26q-2 -13 7.5 -24t23.5 -11t26 11t14 24q3 15 -6.5 26t-24.5 11z" />
    <glyph glyph-name="ogonek" unicode="&#x2db;" horiz-adv-x="156" 
d="M121 -61q-9 -16 -25 -23.5t-30.5 -6t-24.5 11.5t-7 30q2 15 11.5 27t23.5 22h29q-17 -7 -28.5 -20t-13.5 -25t3.5 -19t14 -7.5t18.5 4t17 14.5z" />
    <glyph glyph-name="tilde" unicode="&#x2dc;" horiz-adv-x="213" 
d="M93 640q18 24 42 24q16 0 30 -11t30 -11q15 0 29 14l15 -11q-18 -24 -43 -24q-8 0 -15.5 3.5t-15 7.5t-14 7.5t-13.5 3.5q-17 0 -31 -14z" />
    <glyph glyph-name="hungarumlaut" unicode="&#x2dd;" horiz-adv-x="200" 
d="M82 594l57 86h33l-67 -86h-23zM28 594l57 86h33l-67 -86h-23z" />
    <glyph glyph-name="endash" unicode="&#x2013;" horiz-adv-x="326" 
d="M319 337h-278l3 25h278z" />
    <glyph glyph-name="emdash" unicode="&#x2014;" horiz-adv-x="465" 
d="M457 337h-418l3 25h418z" />
    <glyph glyph-name="quoteleft" unicode="&#x2018;" horiz-adv-x="115" 
d="M93 629l27 56h17l-23 -56h15l-10 -75h-37z" />
    <glyph glyph-name="quoteright" unicode="&#x2019;" horiz-adv-x="115" 
d="M136 608l-28 -56h-16l23 56h-16l11 75h36z" />
    <glyph glyph-name="quotesinglbase" unicode="&#x201a;" horiz-adv-x="115" 
d="M48 0l-28 -56h-16l23 56h-15l10 75h36z" />
    <glyph glyph-name="quotedblleft" unicode="&#x201c;" horiz-adv-x="198" 
d="M93 629l28 56h16l-23 -56h15l-10 -75h-36zM176 629l28 56h16l-23 -56h16l-11 -75h-36z" />
    <glyph glyph-name="quotedblright" unicode="&#x201d;" horiz-adv-x="198" 
d="M138 624l-27 -56h-16l23 56h-16l10 75h37zM222 624l-28 -56h-16l23 56h-16l11 75h36z" />
    <glyph glyph-name="quotedblbase" unicode="&#x201e;" horiz-adv-x="198" 
d="M47 1l-27 -57h-17l23 57h-15l10 75h37zM130 1l-27 -57h-16l23 57h-16l11 75h36z" />
    <glyph glyph-name="dagger" unicode="&#x2020;" horiz-adv-x="183" 
d="M175 699l-38 -264h52l-4 -28h-52l-81 -572h-33l81 572h-50l4 28h50l38 264h33z" />
    <glyph glyph-name="daggerdbl" unicode="&#x2021;" horiz-adv-x="183" 
d="M175 699l-38 -264h51l-4 -28h-51l-40 -280h52l-4 -28h-52l-37 -264h-34l37 264h-49l4 28h49l40 280h-50l5 28h49l38 264h34z" />
    <glyph glyph-name="bullet" unicode="&#x2022;" horiz-adv-x="137" 
d="M64 201q-20 0 -31.5 14t-8.5 33q3 21 19 34t35 13q20 0 31.5 -14.5t9.5 -32.5q-4 -21 -20 -34t-35 -13z" />
    <glyph glyph-name="ellipsis" unicode="&#x2026;" horiz-adv-x="271" 
d="M38 0h-37l11 75h37zM121 0h-36l11 75h36zM205 0h-37l11 75h36z" />
    <glyph glyph-name="perthousand" unicode="&#x2030;" horiz-adv-x="564" 
d="M384 699l-360 -699h27l360 699h-27zM93 305q-23 0 -39.5 19t-11.5 55l36 252q5 36 27 55t45 19h12q24 0 40 -19t11 -55l-36 -252q-5 -36 -26.5 -55t-45.5 -19h-12zM149 682q-14 0 -27 -13t-17 -39l-35 -250q-4 -26 5.5 -39t23.5 -13h7q14 0 27 13t17 39l35 250
q4 26 -5.5 39t-22.5 13h-8zM274 -6q-24 0 -40 19t-11 55l36 256q6 37 27.5 55.5t44.5 18.5h12q24 0 40.5 -18.5t10.5 -55.5l-36 -256q-5 -36 -26.5 -55t-45.5 -19h-12zM331 375q-14 0 -27 -12.5t-18 -39.5l-36 -254q-4 -26 6 -39t24 -13h8q13 0 26 13t17 39l36 254
q4 27 -5 39.5t-23 12.5h-8zM435 -6q-24 0 -40 19t-11 55l37 256q6 37 27 55.5t45 18.5h12q24 0 40 -18.5t11 -55.5l-37 -256q-5 -36 -26.5 -55t-45.5 -19h-12zM493 375q-14 0 -27.5 -12.5t-17.5 -39.5l-36 -254q-4 -26 5.5 -39t23.5 -13h8q14 0 26.5 13t16.5 39l36 254
q4 27 -5 39.5t-23 12.5h-7z" />
    <glyph glyph-name="guilsinglleft" unicode="&#x2039;" horiz-adv-x="128" 
d="M75 48l-47 198l46 201h32l-46 -202l48 -197h-33z" />
    <glyph glyph-name="guilsinglright" unicode="&#x203a;" horiz-adv-x="128" 
d="M56 48l47 197l-46 202h32l46 -201l-46 -198h-33z" />
    <glyph glyph-name="fraction" unicode="&#x2044;" horiz-adv-x="194" 
d="M209 699h31l-256 -699h-30z" />
    <glyph glyph-name="franc" unicode="&#x20a3;" horiz-adv-x="208" 
d="M152 669l-43 -306h72l-4 -27h-73l-20 -142h30l-4 -25h-30l-23 -169h-36l24 169h-30l4 25h29l73 505h130l-4 -30h-95z" />
    <glyph glyph-name="uni20A6" unicode="&#x20a6;" horiz-adv-x="308" 
d="M307 408l-4 -25h-35l-9 -63h35l-4 -25h-34l-42 -295h-42l-14 295h-57l-42 -295h-31l42 295h-39l3 25h39l9 63h-39l3 25h40l42 291h42l13 -291h56l42 291h32l-41 -291h35zM117 408h36l-9 187zM196 108l27 187h-36zM104 320h53l-3 63h-41zM186 320h40l9 63h-51z" />
    <glyph glyph-name="peseta" unicode="&#x20a7;" horiz-adv-x="288" 
d="M226 699q28 0 47.5 -21.5t13.5 -66.5l-15 -104h31l-4 -25h-31l-14 -103q-6 -40 -27.5 -57.5t-50.5 -17.5h-60l-43 -304h-35l68 482h-47l4 25h47l27 192h89zM145 507h90l15 99q5 34 -6 48.5t-26 14.5h-50zM232 482h-90l-21 -149h56q16 0 27 14t15 43z" />
    <glyph glyph-name="uni20A9" unicode="&#x20a9;" horiz-adv-x="391" 
d="M87 317l4 69h-45l3 25h44l20 288h35l-20 -288h50l68 288h32l-12 -288h54l62 288h31l-63 -288h42l-3 -25h-44l-15 -69h49l-4 -25h-51l-63 -292h-37l10 292h-57l-70 -292h-41l19 292h-53l4 25h51zM183 317h52l2 69h-38zM299 317l15 69h-49l-2 -69h36zM256 116l38 176h-32
l-7 -176h1zM155 317l17 69h-46l-5 -69h34zM108 116l41 176h-30l-12 -176h1zM205 411h33l5 155z" />
    <glyph glyph-name="Euro" unicode="&#x20ac;" horiz-adv-x="238" 
d="M158 307h-58l-31 -220q-5 -34 6.5 -48.5t26.5 -14.5h8q15 0 30 14.5t20 48.5l28 196h36l-29 -201q-3 -24 -12.5 -40.5t-21.5 -27t-26 -15.5t-27 -5h-14q-13 0 -25.5 5t-21.5 15.5t-13 27t-1 40.5l32 225h-31l2 16h31l8 53h-31l2 17h31l32 224q3 24 12.5 40.5t21.5 27
t26 15.5t27 5h14q13 0 25.5 -5t21.5 -15.5t13 -27t1 -40.5l-28 -200h-36l28 195q5 34 -6 48.5t-27 14.5h-8q-15 0 -30 -14.5t-20 -48.5l-31 -219h57l-2 -17h-58l-7 -53h57z" />
    <glyph glyph-name="uni20B9" unicode="&#x20b9;" horiz-adv-x="282" 
d="M74 575h148l6 37q5 32 -7.5 45.5t-30.5 13.5h-103l5 28h234l-5 -28h-66q12 -22 8 -53l-7 -43h51l-3 -28h-52l-18 -127q-3 -20 -11 -35t-19 -25.5t-23.5 -15.5t-24.5 -5h-67l78 -339h-39l-77 343l3 21h93q18 0 34 15t20 44l17 124h-148z" />
    <glyph glyph-name="trademark" unicode="&#x2122;" horiz-adv-x="230" 
d="M282 699l-44 -307h-17l36 249h-1l-66 -249h-15l7 249l-36 -249h-17l44 307h28l-10 -257l65 257h26zM154 681h-24l-41 -289h-22l42 289h-25l2 18h71z" />
    <glyph glyph-name="minus" unicode="&#x2212;" horiz-adv-x="235" 
d="M231 362l-3 -25h-187l3 25h187z" />
    <glyph glyph-name="fi" unicode="&#xfb01;" horiz-adv-x="187" 
d="M21 0l66 467h-26l3 28h27l18 130q3 20 11.5 36.5t22 27.5t31.5 15t41 -2l-3 -27q-24 6 -44.5 -8t-24.5 -44l-19 -128h84l-71 -495h-33l66 467h-50l-66 -467h-33z" />
    <glyph glyph-name="fl" unicode="&#xfb02;" horiz-adv-x="222" 
d="M20 0l66 467h-26l4 28h26l19 130q3 20 11.5 36.5t22 27.5t31.5 15t41 -2l-4 -27q-24 6 -44 -8t-25 -44l-19 -128h62l-3 -28h-63l-66 -467h-33zM142 0h33l100 699h-34z" />
    <glyph glyph-name="_0007" horiz-adv-x="0" 
 />
    <glyph glyph-name="_0024" horiz-adv-x="0" 
 />
    <glyph glyph-name="quoteaccent" horiz-adv-x="0" 
d="M56 649l22 45h15l-18 -45h8l-8 -58h-26z" />
    <glyph glyph-name="accent margin" horiz-adv-x="0" 
d="M89 699h12l-17 -112h-12z" />
    <glyph glyph-name="ucircumflex.001" horiz-adv-x="189" 
d="M63 25q14 0 30.5 17.5t20.5 44.5l59 408h33l-70 -495h-34l5 33q-14 -16 -30 -26t-30 -10h-4q-55 0 -44 81l58 417h34l-59 -417q-4 -27 5 -40t23 -13h3zM167 620l42 -86h-32l-30 68l-49 -68h-32l68 86h33z" />
    <glyph glyph-name="uacute.001" horiz-adv-x="189" 
d="M63 25q14 0 30.5 17.5t20.5 44.5l59 408h33l-70 -495h-34l5 33q-14 -16 -30 -26t-30 -10h-4q-55 0 -44 81l58 417h34l-59 -417q-4 -27 5 -40t23 -13h3zM125 534l58 86h33l-68 -86h-23z" />
    <glyph glyph-name="ugrave.001" horiz-adv-x="189" 
d="M60 25q-14 0 -23 13t-5 40l59 417h-34l-58 -417q-11 -81 44 -81h4q14 0 30 10t30 26l-5 -33h34l70 495h-33l-59 -408q-4 -27 -20.5 -44.5t-30.5 -17.5h-3zM126 534l-43 86h33l33 -86h-23z" />
    <glyph glyph-name="udieresis.001" horiz-adv-x="189" 
d="M60 25q-14 0 -23 13t-5 40l59 417h-34l-58 -417q-6 -40 6 -60.5t38 -20.5h4q14 0 29 9.5t29 25.5l-4 -32h34l71 495h-33l-61 -419q-7 -23 -22 -37t-27 -14h-3zM123 549h-25l9 63h25zM179 549h-24l9 63h24z" />
    <glyph glyph-name="iacute.001" horiz-adv-x="79" 
d="M94 495l-70 -495h-33l70 495h33zM71 534l58 86h32l-67 -86h-23z" />
    <glyph glyph-name="_0158" horiz-adv-x="0" 
 />
    </font>
</defs>
</svg>
