<?xml version="1.0" standalone="no"?>
<!DOCTYPE svg PUBLIC "-//W3C//DTD SVG 1.1//EN" "http://www.w3.org/Graphics/SVG/1.1/DTD/svg11.dtd" >
<svg xmlns="http://www.w3.org/2000/svg" xmlns:xlink="http://www.w3.org/1999/xlink" version="1.1">
<metadata>
Created by FontForge 20170731 at Mon Jun 25 12:38:28 2018
 By Aleksey,,,
Copyright (c) 2018 by Rajesh Rajput. All rights reserved.
</metadata>
<defs>
<font id="Morganite-BlackItalic" horiz-adv-x="252" >
  <font-face 
    font-family="Morganite"
    font-weight="900"
    font-style="italic"
    font-stretch="normal"
    units-per-em="1000"
    panose-1="0 0 0 0 0 0 0 0 0 0"
    ascent="750"
    descent="-250"
    x-height="495"
    cap-height="699"
    bbox="-64 -204 651.44 865"
    underline-thickness="52"
    underline-position="-152"
    slope="-15"
    unicode-range="U+000D-FB02"
  />
<missing-glyph horiz-adv-x="96" 
 />
    <glyph glyph-name=".notdef" horiz-adv-x="96" 
 />
    <glyph glyph-name=".null" horiz-adv-x="0" 
 />
    <glyph glyph-name="nonmarkingreturn" unicode="&#xd;" horiz-adv-x="96" 
 />
    <glyph glyph-name="NULL" horiz-adv-x="0" 
 />
    <glyph glyph-name="NULL" horiz-adv-x="0" 
 />
    <glyph glyph-name="space" unicode=" " horiz-adv-x="96" 
 />
    <glyph glyph-name="exclam" unicode="!" horiz-adv-x="145" 
d="M95 139h-72l28 292l38 268h100l-39 -268zM91 0h-101l16 109h100z" />
    <glyph glyph-name="quotedbl" unicode="&#x22;" horiz-adv-x="289" 
d="M167 590l-38 -65h-41l25 65h-47l15 109h102zM309 590l-38 -65h-41l25 65h-47l16 109h101z" />
    <glyph glyph-name="numbersign" unicode="#" horiz-adv-x="384" 
d="M339 200h-52l-45 -200h-90l45 200h-45l-45 -200h-89l45 200h-54l18 81h54l31 135h-53l19 82h52l46 201h90l-46 -201h45l46 201h90l-46 -201h56l-22 -82h-53l-30 -135h53zM216 281l30 135h-45l-30 -135h45z" />
    <glyph glyph-name="dollar" unicode="$" 
d="M57 -3q-32 6 -52.5 31.5t-13.5 72.5l25 181h90l-24 -166q-3 -21 0.5 -30t13.5 -9h2q9 0 14.5 9t8.5 30l11 75q5 34 -1 60t-17.5 48t-25 42t-25 42.5t-17 48.5t-0.5 61l14 105q8 48 36 72.5t61 31.5l8 54h65l-8 -55q29 -8 47 -33t11 -70l-26 -180h-90l24 166
q3 21 1.5 29.5t-9.5 8.5h-3q-8 0 -12 -8.5t-7 -30.5l-11 -74q-5 -34 1 -60t17.5 -48.5t25 -42.5t25 -42.5t17.5 -49t1 -60.5l-15 -105q-8 -48 -35.5 -73.5t-61.5 -31.5l-8 -53h-65z" />
    <glyph glyph-name="percent" unicode="%" horiz-adv-x="463" 
d="M370 699l-323 -699h71l324 699h-72zM97 302q-34 0 -52 22.5t-13 61.5l34 234q5 39 30 62t58 23h17q34 0 52.5 -23t13.5 -62l-34 -234q-5 -39 -30 -61.5t-60 -22.5h-16zM154 643q-11 0 -14 -26l-33 -228q-3 -26 7 -26h3q9 0 13 26l32 228q4 26 -6 26h-2zM321 -6
q-34 0 -52 23t-13 62l34 236q6 38 30 61t58 23h17q34 0 52.5 -23t13.5 -61l-34 -236q-5 -39 -30 -62t-60 -23h-16zM378 337q-10 0 -14 -26l-33 -230q-4 -25 7 -25h3q9 0 12 25l33 230q4 26 -5 26h-3z" />
    <glyph glyph-name="ampersand" unicode="&#x26;" 
d="M163 756h66l-8 -53q16 -3 30 -11t23.5 -20.5t13.5 -31t0 -42.5l-25 -182h-100l24 168q3 21 1.5 29.5t-9.5 8.5h-3q-8 0 -12 -8.5t-7 -30.5l-20 -140q-2 -21 -0.5 -34.5t16.5 -13.5h29l-5 -38h-1l-4 -33h-29q-15 0 -21 -13.5t-8 -34.5l-24 -160q-3 -23 -1 -31t10 -8h3
q8 0 11.5 8.5t6.5 29.5l24 167h100l-26 -181q-8 -49 -36 -74t-62 -31l-8 -53h-65l8 53q-32 6 -52 31.5t-13 73.5l24 172q6 45 30 63.5t56 23.5q-30 6 -49 28t-11 67l19 143q8 48 35.5 73t61.5 32z" />
    <glyph glyph-name="quotesingle" unicode="'" horiz-adv-x="147" 
d="M167 590l-38 -65h-41l25 65h-47l15 109h102z" />
    <glyph glyph-name="parenleft" unicode="(" horiz-adv-x="226" 
d="M91 -36q-26 0 -47.5 6.5t-35 23t-19 44t0.5 69.5l69 485q6 42 19 69.5t32 44t42.5 23t49.5 6.5h50l-12 -83h-15q-21 0 -34 -7t-20.5 -21t-11.5 -34.5t-8 -48.5l-55 -383q-4 -27 -5.5 -48t2 -35t14.5 -21t32 -7h15l-12 -83h-51z" />
    <glyph glyph-name="parenright" unicode=")" horiz-adv-x="226" 
d="M-1 -36l12 83h14q21 0 34 7t20.5 21t11.5 35t8 48l55 383q4 28 5.5 48.5t-2 34.5t-14.5 21t-32 7h-15l12 83h51q26 0 47.5 -6.5t35.5 -23t19.5 -44t-0.5 -69.5l-70 -485q-6 -42 -19 -69.5t-32 -44t-42.5 -23t-49.5 -6.5h-49z" />
    <glyph glyph-name="asterisk" unicode="*" horiz-adv-x="188" 
d="M109 537l-36 29l35 39l-43 13l24 49l40 -18l5 50h51l-9 -50l46 18l8 -49l-46 -13l25 -39l-46 -29l-21 43z" />
    <glyph glyph-name="plus" unicode="+" horiz-adv-x="302" 
d="M131 383l17 115h76l-17 -115h102l-9 -67h-103l-16 -114h-76l16 114h-99l9 67h100z" />
    <glyph glyph-name="comma" unicode="," horiz-adv-x="146" 
d="M89 0l-38 -65h-41l24 65h-46l15 109h101z" />
    <glyph glyph-name="hyphen" unicode="-" horiz-adv-x="253" 
d="M261 383l-9 -67h-229l9 67h229z" />
    <glyph glyph-name="period" unicode="." horiz-adv-x="145" 
d="M88 0h-101l16 109h101z" />
    <glyph glyph-name="slash" unicode="/" horiz-adv-x="243" 
d="M221 699h83l-255 -699h-82z" />
    <glyph glyph-name="zero" unicode="0" 
d="M78 -6q-20 0 -37.5 6t-30 19t-18.5 33.5t-2 48.5l69 497q4 28 16.5 48.5t29 33.5t36 19t39.5 6h19q19 0 37.5 -6t31 -19t18.5 -33.5t2 -48.5l-70 -497q-4 -28 -16 -48.5t-28.5 -33.5t-36.5 -19t-40 -6h-19zM176 622q-15 0 -19 -39l-67 -467q-3 -21 -1 -30t10 -9h3
q8 0 11.5 9t6.5 30l67 467q6 39 -8 39h-3z" />
    <glyph glyph-name="one" unicode="1" horiz-adv-x="191" 
d="M42 0l79 549q-15 -1 -35 -2t-34 -1l11 78q15 0 31 5.5t29.5 15.5t23 24t12.5 30h82l-100 -699h-99z" />
    <glyph glyph-name="two" unicode="2" 
d="M35 418l26 180q4 28 16 48.5t28.5 33.5t35.5 19t39 6h10q19 0 37.5 -6t31.5 -19t19.5 -33.5t2.5 -48.5l-16 -105q-5 -35 -18 -63.5t-30 -56t-36.5 -55.5t-37.5 -62.5t-33 -76.5t-23 -96h129l-11 -83h-228l11 83q9 63 24.5 109.5t33.5 82.5t38 64t37 54.5t29.5 54
t17.5 61.5l11 74q3 22 1.5 30.5t-9.5 8.5h-2q-8 0 -12.5 -8.5t-7.5 -29.5l-23 -166h-91z" />
    <glyph glyph-name="three" unicode="3" 
d="M109 395h29q15 0 21 13.5t9 34.5l20 140q3 22 1.5 30.5t-9.5 8.5h-3q-8 0 -12 -8.5t-7 -29.5l-24 -168h-99l25 182q4 28 16.5 48.5t29 33.5t36 19t39.5 6h19q19 0 37 -6t31 -19t19 -33.5t2 -48.5l-20 -143q-7 -45 -31.5 -67t-56.5 -28q30 -5 49 -23.5t13 -63.5l-24 -172
q-4 -28 -16 -48.5t-29 -33.5t-37 -19t-39 -6h-19q-20 0 -37.5 6t-30 19t-18.5 33.5t-2 48.5l25 181h99l-24 -167q-3 -21 -1.5 -29.5t9.5 -8.5h3q8 0 12 8t7 31l23 160q3 21 1 34.5t-17 13.5h-29l5 38z" />
    <glyph glyph-name="four" unicode="4" horiz-adv-x="284" 
d="M260 173l-12 -83h-38l-13 -90h-85l13 90h-137l11 83l181 526h117l-75 -526h38zM173 423h-3l-76 -248l-1 -2h44z" />
    <glyph glyph-name="five" unicode="5" 
d="M80 -6q-20 0 -37.5 6t-30.5 19t-19 33.5t-2 48.5l26 190h100l-25 -175q-3 -21 -2 -30t9 -9h3q8 0 12.5 9t7.5 30l29 204q3 22 1.5 30.5t-9.5 8.5h-3q-8 0 -12 -8.5t-7 -29.5l-2 -9h-99l55 387h229l-21 -83h-120l-30 -208q14 17 29.5 25.5t30.5 8.5h6q13 0 24.5 -6t19 -19
t10.5 -33.5t-1 -48.5l-33 -234q-4 -28 -16 -48.5t-28.5 -33.5t-36.5 -19t-39 -6h-19z" />
    <glyph glyph-name="six" unicode="6" 
d="M79 -6q-20 0 -37.5 6t-30 19t-18.5 33.5t-2 48.5l10 77l15 113h1l43 307q4 28 16.5 48.5t29 33.5t36 19t39.5 6h13q20 0 38 -6t31 -19t19 -33.5t2 -48.5l-17 -122h-94l15 108q3 21 1.5 29.5t-9.5 8.5h-3q-8 0 -12 -8.5t-7 -30.5l-25 -174q13 17 29 25t31 8h5
q13 0 24.5 -6t19.5 -19t11 -33.5t-1 -48.5l-33 -234q-4 -28 -16 -48.5t-29 -33.5t-37 -19t-39 -6h-19zM99 77h3q8 0 12 9t7 30l29 204q3 22 2 30.5t-9 8.5h-3q-12 0 -18 -24l-3 -23l-3 -21l-16 -113l-9 -62q-3 -21 -1.5 -30t9.5 -9z" />
    <glyph glyph-name="seven" unicode="7" horiz-adv-x="220" 
d="M-24 0l185 625h-99l11 74h198l-11 -74l-185 -625h-99z" />
    <glyph glyph-name="eight" unicode="8" 
d="M79 -6q-20 0 -37.5 6t-30 19t-18.5 33.5t-2 48.5l23 167q5 34 20.5 56t37.5 35q-18 12 -27.5 34.5t-4.5 56.5l20 148q4 28 16.5 48.5t29 33.5t36 19t39.5 6h19q19 0 37 -6t31 -19t19 -33.5t2 -48.5l-20 -148q-5 -34 -21 -56.5t-38 -34.5q18 -13 27.5 -35t4.5 -56
l-23 -167q-4 -28 -16 -48.5t-29 -33.5t-37 -19t-39 -6h-19zM135 329q-13 0 -19 -39l-25 -174q-3 -21 -1.5 -30t9.5 -9h3q8 0 12 9t7 30l25 174q6 39 -8 39h-3zM177 622q-15 0 -19 -39l-22 -153q-3 -21 -1.5 -30t9.5 -9h3q8 0 12 9t7 30l22 153q2 20 1 29.5t-9 9.5h-3z" />
    <glyph glyph-name="nine" unicode="9" 
d="M200 705q19 0 37 -6t31 -19t19 -33.5t2 -48.5l-11 -77h1l-60 -420q-4 -28 -16 -48.5t-29 -33.5t-37 -19t-39 -6h-13q-20 0 -38 6t-30.5 19t-18.5 33.5t-2 48.5l25 181h94l-24 -167q-3 -21 -1 -29.5t10 -8.5h2q8 0 12 8t7 31l33 233q-14 -17 -29.5 -25t-29.5 -8h-6
q-26 0 -43.5 25.5t-9.5 81.5l24 175q4 28 16.5 48.5t29 33.5t36 19t39.5 6h19zM179 521l9 62q3 21 1.5 30t-9.5 9h-3q-8 0 -12 -9t-7 -30l-21 -145q-3 -23 -1.5 -31t9.5 -8h3q7 0 11 6t6 21z" />
    <glyph glyph-name="colon" unicode=":" horiz-adv-x="145" 
d="M134 306h-101l15 109h102zM91 0h-100l14 109h101z" />
    <glyph glyph-name="semicolon" unicode=";" horiz-adv-x="148" 
d="M138 306h-101l16 109h101zM97 0l-38 -65h-41l24 65h-46l15 109h101z" />
    <glyph glyph-name="less" unicode="&#x3c;" horiz-adv-x="240" 
d="M228 1l-3 -2l-213 223v46l212 224l3 -2v-101l-2 -4l-128 -137v-3l128 -136l2 -3z" />
    <glyph glyph-name="equal" unicode="=" horiz-adv-x="312" 
d="M329 450l-10 -67h-288l10 67h288zM311 320l-10 -67h-287l9 67h288z" />
    <glyph glyph-name="greater" unicode="&#x3e;" horiz-adv-x="240" 
d="M46 105l2 4l129 136v3l-129 137l-2 4v100l4 3l212 -224v-46l-213 -223l-3 2v104z" />
    <glyph glyph-name="question" unicode="?" horiz-adv-x="243" 
d="M35 418l25 180q4 28 16 48.5t28.5 33.5t35.5 19t39 6h10q20 0 38 -6t31.5 -19t19.5 -33.5t2 -48.5l-15 -105q-5 -35 -17 -62.5t-27 -52t-30.5 -49t-28.5 -52t-20.5 -61t-6.5 -77.5h-99q0 52 8.5 90t21.5 68t28.5 54t30.5 47.5t26.5 50t16.5 60.5l10 74q3 22 2 30.5
t-9 8.5h-3q-8 0 -12.5 -8.5t-7.5 -29.5l-23 -166h-90zM118 0h-101l15 109h101z" />
    <glyph glyph-name="at" unicode="@" horiz-adv-x="465" 
d="M174 -6q-55 0 -90.5 15t-55.5 39t-26 53.5t-2 57.5l37 271q4 28 19 57.5t42 53.5t67 39t95 15h44q55 0 90.5 -15t56 -39t27 -53.5t2.5 -57.5l-36 -250q-4 -29 -30.5 -45t-59 -20.5t-63.5 3.5t-45 28q-16 -15 -32.5 -24t-32.5 -9h-2q-21 0 -32.5 7.5t-16.5 21t-4.5 32.5
t3.5 43l22 153q6 48 23 76t59 28h3q14 0 26 -7.5t23 -19.5l14 27h65l-36 -253q-2 -13 2.5 -19t10.5 -6t11.5 6.5t7.5 18.5l28 204q1 10 1.5 26.5t-7.5 32t-28.5 26.5t-59.5 11h-46q-39 0 -62 -11t-36 -26.5t-17.5 -32t-5.5 -27.5l-37 -259q-2 -11 -2 -27t8.5 -32t28.5 -27
t59 -11h46q41 0 63 11t32 24l62 -50q-23 -21 -63 -40t-105 -19h-45zM229 190q11 0 15 22l1 7v1l21 147q4 30 -7 30h-2q-10 0 -14 -29l-22 -149q-4 -29 6 -29h2z" />
    <glyph glyph-name="A" unicode="A" horiz-adv-x="242" 
d="M107 0l12 176h-42l-38 -176h-84l157 699h127l-37 -699h-95zM94 250h30l12 178h-3z" />
    <glyph glyph-name="B" unicode="B" horiz-adv-x="251" 
d="M266 427q-5 -32 -17 -47.5t-28 -20.5q14 -4 22 -19.5t3 -47.5l-27 -187q-4 -28 -15.5 -48t-28 -32.5t-36 -18.5t-39.5 -6h-124l99 699h124q20 0 38.5 -6t31 -19t18.5 -33.5t2 -48.5zM146 285q6 37 -8 37h-17l-34 -239h16q8 0 12 9t7 28zM149 396q8 0 11.5 9t6.5 28
l21 144q6 39 -9 39h-16l-32 -220h18z" />
    <glyph glyph-name="C" unicode="C" horiz-adv-x="249" 
d="M76 -6q-20 0 -37.5 6t-30.5 19t-19 33.5t-1 48.5l69 497q4 28 16 48.5t28.5 33.5t36.5 19t40 6h19q19 0 37 -6t31 -19t19 -33.5t2 -48.5l-26 -180h-99l24 166q3 21 1 29.5t-10 8.5h-3q-8 0 -11.5 -8.5t-6.5 -30.5l-67 -467q-3 -21 -1.5 -30t9.5 -9h3q8 0 12 9t7 30
l24 167h99l-25 -182q-5 -28 -17 -48.5t-28.5 -33.5t-36.5 -19t-39 -6h-19z" />
    <glyph glyph-name="D" unicode="D" 
d="M-24 0l99 699h124q20 0 38 -6t31 -19t19 -33t2 -48l-69 -487q-4 -28 -16 -48t-28.5 -33t-36.5 -19t-39 -6h-124zM163 616l-76 -533h17q8 0 11.5 9t6.5 30l66 455q6 39 -9 39h-16z" />
    <glyph glyph-name="E" unicode="E" horiz-adv-x="208" 
d="M163 616l-33 -230h66l-10 -74h-66l-33 -229h91l-12 -83h-190l99 699h183l-12 -83h-83z" />
    <glyph glyph-name="F" unicode="F" horiz-adv-x="200" 
d="M163 616l-33 -230h66l-10 -74h-66l-45 -312h-99l99 699h183l-12 -83h-83z" />
    <glyph glyph-name="G" unicode="G" horiz-adv-x="249" 
d="M76 -6q-20 0 -37.5 6t-30.5 19t-19 33.5t-1 48.5l69 497q4 28 16 48.5t28.5 33.5t36.5 19t40 6h19q19 0 37 -6t31 -19t19 -33.5t2 -48.5l-26 -180h-99l24 166q3 21 1 29.5t-10 8.5h-3q-8 0 -11.5 -8.5t-6.5 -30.5l-67 -467q-3 -21 -1.5 -30t9.5 -9h3q8 0 12 9t7 30l12 84
h-19l12 83h118l-12 -83l-9 -64l-2 -9l-17 -127h-48l-7 23q-18 -14 -35.5 -21.5t-30.5 -7.5h-4z" />
    <glyph glyph-name="H" unicode="H" 
d="M304 699l-100 -699h-100l45 312h-29l-45 -312h-99l99 699h100l-45 -313h30l44 313h100z" />
    <glyph glyph-name="I" unicode="I" horiz-adv-x="127" 
d="M175 699l-100 -699h-99l99 699h100z" />
    <glyph glyph-name="J" unicode="J" horiz-adv-x="249" 
d="M76 -6q-19 0 -37 6t-31 19t-19 33.5t-2 48.5l25 180h99l-23 -165q-3 -21 -2 -30t9 -9h3q8 0 12.5 9t7.5 30l82 583h100l-85 -598q-4 -28 -16 -48.5t-28.5 -33.5t-36 -19t-39.5 -6h-19z" />
    <glyph glyph-name="K" unicode="K" horiz-adv-x="254" 
d="M196 361l18 -361h-92l-13 228h-2l-32 -228h-99l99 699h99l-35 -246h2l83 246h91z" />
    <glyph glyph-name="L" unicode="L" horiz-adv-x="189" 
d="M175 699l-89 -625h81l-11 -74h-180l99 699h100z" />
    <glyph glyph-name="M" unicode="M" horiz-adv-x="342" 
d="M393 699l-99 -699h-83l56 388h-2l-96 -388h-71l17 388h-1l-56 -388h-82l99 699h128l-15 -314h2l77 314h126z" />
    <glyph glyph-name="N" unicode="N" horiz-adv-x="287" 
d="M129 0l-14 388h-1l-56 -388h-82l99 699h111l8 -376h1l53 376h91l-100 -699h-110z" />
    <glyph glyph-name="O" unicode="O" horiz-adv-x="249" 
d="M76 -6q-20 0 -37.5 6t-30.5 19t-19 33.5t-1 48.5l69 497q4 28 16 48.5t28.5 33.5t36.5 19t40 6h19q19 0 37 -6t31 -19t19 -33.5t2 -48.5l-70 -497q-5 -28 -17 -48.5t-28.5 -33.5t-36.5 -19t-39 -6h-19zM173 622q-14 0 -18 -39l-67 -467q-3 -21 -1.5 -30t9.5 -9h3
q8 0 12 9t7 30l67 467q2 20 0.5 29.5t-9.5 9.5h-3z" />
    <glyph glyph-name="P" unicode="P" 
d="M200 699q45 0 70.5 -28t18.5 -78l-32 -227q-8 -49 -39.5 -69t-76.5 -20h-27l-39 -277h-99l99 699h125zM188 578q6 38 -10 38h-15l-36 -256h16q9 0 13 9t6 29z" />
    <glyph glyph-name="Q" unicode="Q" horiz-adv-x="248" 
d="M76 -6q-20 0 -37.5 6t-30.5 19t-19 33.5t-2 48.5l70 497q4 28 16 48.5t28.5 33.5t36 19t39.5 6h19q19 0 37 -6t31 -19t19.5 -33.5t2.5 -48.5l-71 -497q-5 -28 -16 -47.5t-27 -32.5l28 -33l-56 -49l-48 55h-1h-19zM173 622q-13 0 -19 -39l-66 -467q-3 -21 -2 -30t9 -9h3
q8 0 12.5 9t7.5 30l66 467q6 39 -8 39h-3z" />
    <glyph glyph-name="R" unicode="R" 
d="M264 417q-5 -32 -17 -47.5t-28 -20.5q15 -4 23 -19.5t3 -47.5l-21 -145q-5 -39 -7 -65t-2 -41.5t1 -22.5t2 -8h-99q-6 12 -4 44.5t10 92.5l19 136q3 20 2 29.5t-10 9.5h-16l-45 -312h-99l99 699h125q45 0 70.5 -28t18.5 -78zM147 386q14 0 18 37l23 155q6 38 -10 38h-15
l-33 -230h17z" />
    <glyph glyph-name="S" unicode="S" horiz-adv-x="254" 
d="M165 418l24 166q3 21 1 29.5t-10 8.5h-3q-8 0 -11.5 -8.5t-6.5 -30.5l-11 -74q-5 -34 1 -60t17.5 -48.5t25 -42.5t25 -42.5t17 -49t0.5 -60.5l-14 -105q-5 -28 -16.5 -48.5t-28 -33.5t-36.5 -19t-40 -6h-16q-20 0 -38.5 6t-31.5 19t-19.5 33.5t-1.5 48.5l25 181h90
l-24 -166q-3 -21 0.5 -30t13.5 -9h2q9 0 14.5 9t8.5 30l10 75q5 34 -0.5 60t-17 48t-25 42t-25 42.5t-17.5 48.5t-1 61l15 105q4 28 16 48.5t29 33.5t36.5 19t39.5 6h11q19 0 37 -6t30.5 -19t18.5 -33.5t2 -48.5l-26 -180h-90z" />
    <glyph glyph-name="T" unicode="T" horiz-adv-x="222" 
d="M265 616h-70l-88 -616h-99l88 616h-70l12 83h239z" />
    <glyph glyph-name="U" unicode="U" horiz-adv-x="254" 
d="M80 -6q-19 0 -37 6t-31 19t-19 33.5t-2 48.5l84 598h99l-82 -583q-3 -21 -2 -30t9 -9h3q8 0 12.5 9t7.5 30l82 583h100l-85 -598q-4 -28 -16 -48.5t-28.5 -33.5t-36 -19t-39.5 -6h-19z" />
    <glyph glyph-name="V" unicode="V" horiz-adv-x="249" 
d="M225 699h85l-159 -699h-126l36 699h95l-29 -429h4z" />
    <glyph glyph-name="W" unicode="W" horiz-adv-x="378" 
d="M15 0l48 699h95l-27 -350h3l79 350h78l-16 -350h2l73 350h87l-152 -699h-96l8 299h-1l-74 -299h-107z" />
    <glyph glyph-name="X" unicode="X" horiz-adv-x="256" 
d="M192 341l25 -341h-101l-10 140l-45 -140h-94l125 371l-26 328h97l11 -125l41 125h99z" />
    <glyph glyph-name="Y" unicode="Y" horiz-adv-x="242" 
d="M164 250l-37 -250h-99l35 250l-12 449h99l-6 -224h3l57 224h100z" />
    <glyph glyph-name="Z" unicode="Z" horiz-adv-x="233" 
d="M190 0h-228l11 74l196 551h-99l11 74h198l-10 -74l-197 -551h128z" />
    <glyph glyph-name="bracketleft" unicode="[" horiz-adv-x="220" 
d="M-32 -56l115 811h167l-12 -83h-68l-91 -645h67l-12 -83h-166z" />
    <glyph glyph-name="backslash" unicode="\" horiz-adv-x="243" 
d="M202 0h-83l-56 699h83z" />
    <glyph glyph-name="bracketright" unicode="]" horiz-adv-x="220" 
d="M-8 -56l13 83h66l92 645h-68l13 83h167l-116 -811h-167z" />
    <glyph glyph-name="asciicircum" unicode="^" horiz-adv-x="284" 
d="M205 414l-4 2l-17 131h-3l-54 -131l-4 -2h-86l-2 4l116 281h107l37 -281l-3 -4h-87z" />
    <glyph glyph-name="underscore" unicode="_" horiz-adv-x="333" 
d="M286 0h-309l9 67h309z" />
    <glyph glyph-name="grave" unicode="`" horiz-adv-x="165" 
d="M83 581l-61 86h87l34 -86h-60z" />
    <glyph glyph-name="a" unicode="a" horiz-adv-x="225" 
d="M32 -3q-21 0 -31.5 7.5t-14 21t-2 32.5t4.5 43l10 72q6 48 21.5 76t57.5 28h2q12 0 23.5 -5t22.5 -13l19 133q4 29 -7 29h-1q-12 0 -15 -29l-15 -101h-92l15 103q7 48 37.5 76t72.5 28h19q42 0 64 -28t15 -77l-57 -393h-92l2 16q-30 -19 -56 -19h-3zM106 209
q-11 0 -15 -29l-11 -86q-4 -29 6 -29h1q9 0 13 14l18 123q0 7 -5 7h-7z" />
    <glyph glyph-name="b" unicode="b" horiz-adv-x="227" 
d="M111 -3q-14 0 -26.5 7.5t-23.5 20.5l-13 -25h-74l99 699h93l-32 -223q14 10 26.5 16t25.5 6h2q41 0 49 -28.5t1 -75.5l-42 -293q-7 -48 -23.5 -76t-58.5 -28h-3zM137 421q-9 0 -13 -18l-2 -11l-42 -296q-3 -22 8 -22h1q11 0 15 29l41 289q6 29 -6 29h-2z" />
    <glyph glyph-name="c" unicode="c" horiz-adv-x="225" 
d="M130 291l15 101q4 29 -6 29h-2q-12 0 -15 -29l-42 -289q-4 -29 7 -29h2q11 0 15 29l15 103h92l-15 -104q-8 -49 -38 -77t-72 -28h-20q-42 0 -63 28.5t-14 76.5l41 291q7 49 36.5 77t71.5 28h19q42 0 65 -28t16 -76l-15 -103h-93z" />
    <glyph glyph-name="d" unicode="d" horiz-adv-x="226" 
d="M41 -3q-41 0 -50 28.5t-2 75.5l41 293q3 24 8 43t14 32.5t22.5 21t34.5 7.5h2q12 0 23.5 -6t22.5 -16l32 223h92l-100 -699h-74l-6 24q-30 -27 -57 -27h-3zM137 421q-11 0 -15 -29l-42 -289q-4 -29 6 -29h2q12 0 16 30l41 287q4 30 -6 30h-2z" />
    <glyph glyph-name="e" unicode="e" horiz-adv-x="225" 
d="M87 74h2q11 0 15 29l15 103h92l-15 -104q-8 -49 -38 -77t-72 -28h-20q-42 0 -63 28.5t-14 76.5l41 291q7 49 36.5 77t71.5 28h19q42 0 65 -28t16 -76l-25 -170h-116l-17 -121q-4 -29 7 -29zM130 287l15 105q4 29 -6 29h-2q-12 0 -15 -29l-16 -105h24z" />
    <glyph glyph-name="f" unicode="f" horiz-adv-x="187" 
d="M-4 0l59 418h-23l12 77h22l15 107q3 24 15.5 45.5t33.5 36t51 20t68 -3.5l-10 -73q-7 0 -17.5 -0.5t-21 -3.5t-18.5 -9.5t-9 -18.5l-15 -100h62l-11 -77h-62l-60 -418h-91z" />
    <glyph glyph-name="g" unicode="g" horiz-adv-x="228" 
d="M252 495l-80 -555q-7 -48 -36.5 -76.5t-71.5 -28.5h-20q-41 0 -63.5 28t-15.5 77l5 31h91l-5 -30q-3 -29 6 -29h3q11 0 15 29l11 76q-14 -9 -27 -14.5t-25 -5.5h-2q-41 0 -49 28.5t0 75.5l41 293q7 48 23.5 76t58.5 28h3q26 0 50 -26l13 23h75zM87 74q11 0 16 30l41 287
q4 30 -7 30h-1q-12 0 -15 -29l-42 -289q-4 -29 7 -29h1z" />
    <glyph glyph-name="h" unicode="h" horiz-adv-x="226" 
d="M142 421q-15 0 -18 -30l-70 -52q3 16 10.5 34.5t18 36.5t24 35t28.5 29l-10 -75l-1 -8l-56 -391h-92l99 699h93l-33 -225q14 11 27.5 17.5t26.5 6.5h3q21 0 32.5 -7.5t16.5 -21t4.5 -32.5t-3.5 -43l-57 -394h-92l56 392q4 29 -6 29h-1z" />
    <glyph glyph-name="i" unicode="i" horiz-adv-x="112" 
d="M139 495l-70 -495h-92l70 495h92zM157 627l-13 -100h-93l14 100h92z" />
    <glyph glyph-name="j" unicode="j" horiz-adv-x="147" 
d="M193 628l-13 -101h-93l14 101h92zM172 495l-78 -556q-8 -48 -40 -76t-103 -28l11 77q17 0 27.5 6.5t12.5 20.5l78 556h92z" />
    <glyph glyph-name="k" unicode="k" horiz-adv-x="245" 
d="M160 258l44 -258h-93l-23 151l-21 -151h-91l99 699h92l-50 -348l69 144h88z" />
    <glyph glyph-name="l" unicode="l" horiz-adv-x="115" 
d="M75 699h93l-100 -699h-92z" />
    <glyph glyph-name="m" unicode="m" horiz-adv-x="344" 
d="M140 421q-14 0 -17 -30l-1 -1l-55 -390h-92l70 495h92l-3 -21q29 24 54 24h3q41 0 50 -33q16 15 32.5 24t32.5 9h2q21 0 32.5 -7.5t16.5 -21t4.5 -32.5t-3.5 -43l-56 -394h-93l57 392q3 29 -7 29h-1q-14 0 -18 -28l-56 -393h-92l56 392q4 29 -7 29h-1z" />
    <glyph glyph-name="n" unicode="n" horiz-adv-x="226" 
d="M140 421q-14 0 -17 -30l-1 -1l-55 -390h-92l70 495h92l-3 -21q29 24 54 24h3q21 0 32.5 -7.5t16.5 -21t4.5 -32.5t-3.5 -43l-57 -394h-92l56 392q4 29 -7 29h-1z" />
    <glyph glyph-name="o" unicode="o" horiz-adv-x="226" 
d="M67 -3q-42 0 -63.5 28t-14.5 76l41 293q7 48 36.5 76t71.5 28h19q42 0 64.5 -28t16.5 -76l-42 -293q-7 -48 -37.5 -76t-72.5 -28h-19zM137 421q-12 0 -15 -29l-42 -289q-4 -29 7 -29h2q11 0 15 29l41 289q4 29 -6 29h-2z" />
    <glyph glyph-name="p" unicode="p" horiz-adv-x="226" 
d="M187 498q42 0 51 -28t2 -76l-42 -293q-3 -24 -8 -43t-14 -32.5t-22.5 -21t-34.5 -7.5h-2q-25 0 -47 22l-26 -184h-91l94 660h74l5 -25q14 13 29 20.5t29 7.5h3zM91 74q11 0 15 29l42 289q3 29 -7 29h-1q-11 0 -15 -19l-1 -11l-41 -287q-5 -30 7 -30h1z" />
    <glyph glyph-name="q" unicode="q" horiz-adv-x="233" 
d="M115 498q14 0 26.5 -7.5t23.5 -20.5l13 25h74l-94 -660h-92l26 184q-14 -10 -27 -16t-25 -6h-2q-41 0 -49 28.5t0 75.5l41 293q7 48 23.5 76t58.5 28h3zM88 74q11 0 16 30l41 287q4 30 -7 30h-2q-11 0 -14 -29l-42 -289q-4 -29 6 -29h2z" />
    <glyph glyph-name="r" unicode="r" horiz-adv-x="226" 
d="M140 421q-14 0 -17 -30l-1 -1l-55 -390h-92l70 495h92l-3 -21q29 24 54 24h3q23 0 35 -9t16 -26q2 -14 1.5 -31.5t-2.5 -37.5l-15 -103h-93l15 101q4 29 -7 29h-1z" />
    <glyph glyph-name="s" unicode="s" horiz-adv-x="233" 
d="M132 300l13 92q2 12 1 20.5t-8 8.5h-1q-6 0 -9.5 -8.5t-5.5 -20.5l-6 -39q-3 -21 3.5 -37t17 -30t24 -27.5t24 -29t16.5 -35.5t2 -46l-7 -47q-7 -48 -38 -76t-73 -28h-16q-44 0 -65.5 28t-14.5 76l13 94h82l-13 -92q-2 -14 0 -21.5t11 -7.5h2q10 0 14 7.5t6 21.5l6 39
q3 21 -3.5 36.5t-17.5 29.5t-24 27.5t-23.5 29.5t-16.5 35.5t-2 46.5l7 48q7 46 36.5 74.5t72.5 28.5h9q42 0 64.5 -28t15.5 -75l-13 -95h-83z" />
    <glyph glyph-name="t" unicode="t" horiz-adv-x="164" 
d="M180 657l-24 -162h37l-11 -77h-37l-45 -317q-2 -17 6.5 -25.5t26.5 -2.5l-10 -73q-37 -6 -61 0.5t-36.5 21t-16 35t-0.5 44.5l44 317h-22l11 77h22l22 153z" />
    <glyph glyph-name="u" unicode="u" horiz-adv-x="234" 
d="M87 74q14 0 17 30h1l55 391h92l-70 -495h-92l3 21q-30 -24 -55 -24h-2q-41 0 -48.5 28.5t-0.5 75.5l56 394h92l-56 -392q-4 -29 6 -29h2z" />
    <glyph glyph-name="v" unicode="v" horiz-adv-x="204" 
d="M167 495h76l-116 -495h-114l24 495h85l-23 -303h4z" />
    <glyph glyph-name="w" unicode="w" horiz-adv-x="346" 
d="M16 0l20 495h86l-14 -247h3l65 247h79l-4 -247h2l59 247h78l-123 -495h-100l11 289h-2l-62 -289h-98z" />
    <glyph glyph-name="x" unicode="x" horiz-adv-x="230" 
d="M167 261l43 -261h-91l-17 119l-52 -119h-83l111 252l-39 243h91l15 -98l43 98h83z" />
    <glyph glyph-name="y" unicode="y" horiz-adv-x="209" 
d="M170 495h75l-154 -660h-90l42 165l-6 495h83l-11 -243h4z" />
    <glyph glyph-name="z" unicode="z" horiz-adv-x="213" 
d="M171 0h-204l11 75l165 346h-106l11 74h196l-11 -73l-166 -347h115z" />
    <glyph glyph-name="braceleft" unicode="{" horiz-adv-x="244" 
d="M31 395h11q28 0 37 18t12 39l27 191q5 34 17 57t29 37.5t36.5 21t39.5 6.5h37l-11 -83h-2q-29 0 -37.5 -18t-11.5 -39l-25 -170q-8 -54 -40.5 -75.5t-69.5 -22.5q18 -1 34.5 -6.5t28.5 -17t17.5 -29.5t2.5 -45l-25 -170q-2 -11 -2.5 -21t2.5 -18t10.5 -13t22.5 -5h2
l-12 -83h-37q-20 0 -38 6.5t-30.5 21t-18.5 37.5t-1 57l27 191q4 21 0 39t-32 18h-11l6 38z" />
    <glyph glyph-name="bar" unicode="|" horiz-adv-x="134" 
d="M81 729h92l-109 -759h-91z" />
    <glyph glyph-name="braceright" unicode="}" horiz-adv-x="244" 
d="M248 357l-6 -38h-11q-28 0 -37 -18t-12 -39l-27 -191q-5 -34 -17 -57t-29 -37.5t-36.5 -21t-39.5 -6.5h-36l11 83h2q28 0 36.5 17.5t11.5 39.5l25 170q3 27 14 45t26 29.5t33.5 17t37.5 6.5q-18 1 -35 6t-29 16.5t-18 30t-2 45.5l25 170q1 10 2 20.5t-2 18.5t-10.5 13
t-22.5 5h-2l12 83h37q20 0 38 -6.5t30.5 -21t18 -37.5t1.5 -57l-27 -191q-2 -11 -2.5 -21t2.5 -18t10.5 -13t21.5 -5h11z" />
    <glyph glyph-name="asciitilde" unicode="~" horiz-adv-x="315" 
d="M12 234q20 37 39.5 52t41.5 15q14 0 26.5 -4.5t25 -10t25 -10t26.5 -4.5q11 0 19.5 6t25.5 26l62 -47q-20 -41 -40.5 -54t-47.5 -13q-14 0 -27 4.5t-26 10.5t-25 10.5t-23 4.5q-12 0 -21 -6.5t-26 -26.5z" />
    <glyph glyph-name="uni00A0" unicode="&#xa0;" horiz-adv-x="0" 
 />
    <glyph glyph-name="exclamdown" unicode="&#xa1;" horiz-adv-x="145" 
d="M172 590h-102l16 109h101zM124 268l-39 -268h-98l38 268l54 292h73z" />
    <glyph glyph-name="cent" unicode="&#xa2;" horiz-adv-x="225" 
d="M131 291l15 101q2 15 1 22t-7 7h-2q-12 0 -15 -29l-42 -289q-4 -29 7 -29h2q10 0 14 29l15 103h93l-15 -104q-7 -42 -30.5 -68.5t-55.5 -33.5l-8 -63h-65l8 62q-32 7 -47 34t-9 69l40 291q7 43 30.5 70t58.5 33l8 62h65l-8 -63q29 -8 44.5 -34.5t9.5 -66.5l-15 -103h-92z
" />
    <glyph glyph-name="sterling" unicode="&#xa3;" horiz-adv-x="309" 
d="M22 324h56l40 274q4 28 16 48t28.5 33t36 19.5t39.5 6.5h19q19 0 37.5 -6t31.5 -19t19 -33.5t2 -48.5l-26 -180h-99l23 166q3 21 2 29.5t-9 8.5h-3q-8 0 -12.5 -8.5t-7.5 -30.5l-37 -259h130l-12 -85h-130l-3 -23q-8 -59 -18.5 -89t-20.5 -42h150l-12 -85h-249l11 84v1h1
q11 12 20 39.5t18 90.5l3 24h-55z" />
    <glyph glyph-name="currency" unicode="&#xa4;" horiz-adv-x="362" 
d="M258 217q-40 -23 -83 -23q-45 0 -77 23l-46 -39l-41 49l45 40q-18 35 -12 80q6 42 34 80l-34 40l56 49l35 -40q19 11 40 17.5t43 6.5q42 0 77 -24l46 41l42 -49l-46 -41q8 -17 12 -37.5t1 -42.5q-8 -45 -36 -81l35 -40l-56 -49zM118 347q-5 -35 14 -57t53 -22
q35 0 60.5 22t30.5 57q4 35 -15 57t-53 22q-35 0 -60.5 -22t-29.5 -57z" />
    <glyph glyph-name="yen" unicode="&#xa5;" horiz-adv-x="258" 
d="M72 196l5 36h-65l8 67h58l-10 400h99l-7 -224h4l57 224h99l-125 -400h53l-9 -67h-62l-5 -36h62l-10 -67h-62l-18 -129h-100l18 129h-65l10 67h65z" />
    <glyph glyph-name="brokenbar" unicode="&#xa6;" horiz-adv-x="134" 
d="M19 293h91l-46 -323h-91zM35 408l46 321h92l-46 -321h-92zM19 293l16 115zM127 408l-17 -115v0z" />
    <glyph glyph-name="section" unicode="&#xa7;" horiz-adv-x="225" 
d="M153 451l21 148q2 12 1 20.5t-8 8.5h-2q-5 0 -8.5 -8.5t-5.5 -20.5l-14 -95q-5 -31 10.5 -52t34 -41.5t33.5 -46t9 -64.5l-7 -51q-5 -34 -23 -58.5t-44 -36.5q18 -20 31 -44t8 -62l-17 -115q-7 -48 -38 -76t-73 -28h-17q-42 0 -64 28t-15 76l23 162h82l-22 -160
q-2 -14 -0.5 -21.5t11.5 -7.5h2q9 0 13 7.5t6 21.5l15 107q4 28 -8 47.5t-29 38.5t-32.5 40t-17.5 52v7.5t0.5 13t2.5 22t5 36.5q5 33 22 57.5t43 35.5q-17 20 -29.5 44t-7.5 62l15 104q7 46 37 74.5t73 28.5h9q42 0 64.5 -28t15.5 -75l-21 -151h-84zM109 223q11 0 16 30
l6 42q4 30 -7 30h-1q-12 0 -15 -29l-7 -44q-4 -29 7 -29h1z" />
    <glyph glyph-name="dieresis" unicode="&#xa8;" horiz-adv-x="209" 
d="M137 588h-65l9 73h66zM237 588h-66l10 73h65z" />
    <glyph glyph-name="copyright" unicode="&#xa9;" horiz-adv-x="502" 
d="M23 348q10 72 30.5 136t55.5 111.5t87 75t124 27.5t114 -27.5t61.5 -75t20.5 -111.5t-9 -136q-11 -72 -30 -136t-52 -111.5t-83 -75t-122 -27.5t-116 27.5t-65 75t-23.5 111.5t7.5 136zM82 348q-9 -59 -9.5 -111.5t14.5 -91.5t48.5 -61.5t92.5 -22.5t97.5 22.5t63 61.5
t37.5 91.5t22 111.5q8 59 9.5 111.5t-11.5 91.5t-45 61.5t-91 22.5t-99 -22.5t-66 -61.5t-40.5 -91.5t-22.5 -111.5zM288 394l9 61q4 29 -6 29h-2q-12 0 -16 -29l-30 -209q-4 -29 7 -29h2q11 0 15 29l8 63h93l-9 -64q-8 -49 -38 -77t-72 -28h-20q-42 0 -64 28.5t-14 76.5
l30 211q8 49 37 77t71 28h19q42 0 65 -28t16 -76l-9 -63h-92z" />
    <glyph glyph-name="ordfeminine" unicode="&#xaa;" horiz-adv-x="148" 
d="M67 392q-13 0 -19.5 4.5t-8.5 13t-1.5 20.5t2.5 27l6 45q5 29 14.5 47.5t36.5 18.5h1q13 0 26 -11l12 81q3 20 -4 20q-6 0 -9 -20l-8 -63h-58l9 65q4 30 23 47.5t46 17.5h10q27 0 41 -17.5t9 -49.5l-34 -243h-59l1 8q-19 -11 -34 -11h-2zM113 525q-6 0 -8 -19l-8 -54
q-3 -17 3 -17q5 0 8 7l11 80q0 1 -0.5 1t-0.5 1q-1 0 -1 1h-4z" />
    <glyph glyph-name="guillemotleft" unicode="&#xab;" horiz-adv-x="289" 
d="M61 38l-49 204l46 200h86l-46 -202l50 -202h-87zM190 38l-49 204l46 200h86l-46 -202l50 -202h-87z" />
    <glyph glyph-name="logicalnot" unicode="&#xac;" horiz-adv-x="338" 
d="M322 216h-73l15 100h-242l9 67h314z" />
    <glyph glyph-name="registered" unicode="&#xae;" horiz-adv-x="313" 
d="M51 526q5 37 19 69.5t35.5 57t51 38.5t66.5 14t62 -14t38.5 -38.5t17.5 -57t-1 -69.5q-6 -37 -19 -69.5t-34 -57t-50 -38.5t-66 -14t-62 14t-40 38.5t-19 57t1 69.5zM92 526q-5 -29 -3 -55.5t11.5 -46t28 -31t47.5 -11.5q30 0 51.5 11.5t35.5 31t22.5 46t13.5 55.5
q4 29 3 55.5t-9.5 46t-26.5 31t-48 11.5t-51.5 -11.5t-37 -31t-24.5 -46t-13 -55.5zM255 550q-2 -11 -6.5 -19.5t-13.5 -12.5q8 -3 10.5 -12t0.5 -20l-8 -53h-43l6 41q3 19 -6 19h-8l-8 -60h-45l29 200h63q23 0 29.5 -17.5t2.5 -43.5zM201 538q6 0 8 4.5t4 15.5l1 11
q3 19 -6 19h-7l-7 -50h7z" />
    <glyph glyph-name="macron" unicode="&#xaf;" horiz-adv-x="218" 
d="M213 591h-151l9 67h151z" />
    <glyph glyph-name="degree" unicode="&#xb0;" horiz-adv-x="115" 
d="M108 603q-19 0 -31 14t-10 34q4 20 19.5 34t35.5 14t32 -14t9 -34t-19 -34t-36 -14zM119 678q-11 0 -20 -8t-11 -19q-1 -11 5.5 -19t17.5 -8t20 8t11 19t-5 19t-18 8z" />
    <glyph glyph-name="plusminus" unicode="&#xb1;" horiz-adv-x="302" 
d="M144 470l17 115h76l-17 -115h102l-10 -67h-101l-16 -114h-76l16 114h-101l10 67h100zM227 39h-210l10 67h210z" />
    <glyph glyph-name="twosuperior" unicode="&#xb2;" horiz-adv-x="122" 
d="M57 577l12 80q3 25 19 36.5t33 11.5h5q17 0 30.5 -11.5t10.5 -36.5l-8 -47q-3 -23 -14 -40.5t-23.5 -37t-24.5 -43.5t-17 -60h58l-5 -37h-101l4 37q6 42 17.5 68t24.5 45t24 35.5t14 39.5l4 34q3 17 -3 17h-1q-6 0 -9 -17l-10 -74h-40z" />
    <glyph glyph-name="threesuperior" unicode="&#xb3;" horiz-adv-x="121" 
d="M91 568h13q6 0 8 6t4 16l9 61q3 17 -4 17h-1q-7 0 -8 -16l-11 -74h-43l11 80q4 24 19.5 35.5t32.5 11.5h9q17 0 30.5 -11.5t10.5 -35.5l-10 -63q-2 -20 -13.5 -30t-25.5 -12q13 -2 21.5 -10.5t6.5 -28.5l-11 -75q-4 -25 -20 -36t-33 -11h-9q-17 0 -29.5 11t-9.5 36l11 80
h44l-11 -74q-1 -16 4 -16h1q6 0 9 17l9 70q2 10 1.5 15.5t-6.5 5.5h-14l2 17z" />
    <glyph glyph-name="acute" unicode="&#xb4;" horiz-adv-x="165" 
d="M16 581l45 86h87l-72 -86h-60z" />
    <glyph glyph-name="mu" unicode="&#xb5;" horiz-adv-x="228" 
d="M180 0h-92l3 20q-14 -11 -28 -17l-24 -167h-92l87 609l7 50h92l-7 -50l-51 -355q0 -16 8 -16h1q15 0 18 30l1 1l56 390h92z" />
    <glyph glyph-name="paragraph" unicode="&#xb6;" horiz-adv-x="338" 
d="M303 625h-50l-112 -790h-75l79 551q-28 0 -48 14t-31.5 36t-15 50t0.5 57q4 28 15.5 56t29.5 50t42 36t52 14h198l-123 -864h-74z" />
    <glyph glyph-name="periodcentered" unicode="&#xb7;" horiz-adv-x="145" 
d="M115 193h-102l17 109h101z" />
    <glyph glyph-name="cedilla" unicode="&#xb8;" horiz-adv-x="181" 
d="M22 -108l9 45q9 -6 20.5 -8.5t21.5 -1.5t16 6t4 14t-13.5 11t-21.5 -5l-19 7l21 40h55l-9 -23q19 9 36 1t17 -30q0 -29 -17 -45.5t-40 -22t-45.5 -2t-34.5 13.5z" />
    <glyph glyph-name="onesuperior" unicode="&#xb9;" horiz-adv-x="94" 
d="M58 392l35 241q-7 -1 -15.5 -1.5t-15.5 -0.5l5 34q14 0 27.5 10t15.5 24h36l-44 -307h-44z" />
    <glyph glyph-name="ordmasculine" unicode="&#xba;" horiz-adv-x="124" 
d="M78 392q-18 0 -31 11t-9 37l31 217q3 25 19 36.5t34 11.5h7q18 0 31 -11.5t10 -36.5l-32 -217q-3 -26 -19 -37t-34 -11h-7zM120 668q-5 0 -8 -17l-29 -205q-3 -17 3 -17h1q5 0 8 17l29 205q3 17 -3 17h-1z" />
    <glyph glyph-name="guillemotright" unicode="&#xbb;" horiz-adv-x="289" 
d="M37 38l50 202l-46 202h86l46 -200l-49 -204h-87zM166 38l50 202l-46 202h86l46 -200l-49 -204h-87z" />
    <glyph glyph-name="onequarter" unicode="&#xbc;" horiz-adv-x="287" 
d="M287 699h47l-303 -699h-46zM245 76l-5 -36h-17l-5 -40h-37l5 40h-60l4 36l79 229h52l-33 -229h17zM65 392l34 241q-7 -1 -15.5 -1.5t-14.5 -0.5l5 34q14 0 27 10t15 24h37l-45 -307h-43zM207 184h-1l-33 -107l-1 -1h19z" />
    <glyph glyph-name="onehalf" unicode="&#xbd;" horiz-adv-x="298" 
d="M286 699h48l-303 -699h-47zM64 392l34 241q-6 -1 -14.5 -1.5t-15.5 -0.5l5 34q14 0 27 10t15 24h37l-44 -307h-44zM173 185l11 80q3 25 19 36.5t33 11.5h6q17 0 30 -11.5t9 -36.5l-6 -47q-3 -23 -14 -40.5t-24 -37t-24.5 -43.5t-16.5 -60h57l-5 -37h-102l5 37q6 42 18 68
t24.5 45t23.5 35.5t14 39.5l5 34q3 17 -4 17h-1q-5 0 -8 -17l-10 -74h-40z" />
    <glyph glyph-name="threequarters" unicode="&#xbe;" horiz-adv-x="296" 
d="M287 699h47l-302 -699h-47zM275 200q-3 -20 -14 -30t-25 -12q13 -2 21.5 -10.5t5.5 -28.5l-11 -78q-3 -25 -19.5 -36t-33.5 -11h-8q-17 0 -30.5 11t-9.5 36l12 83h43l-11 -77q-1 -16 4 -16h1q6 0 9 17l11 73q2 9 0.5 15t-7.5 6h-13l2 15h-1l3 16h13q6 0 8.5 6t4.5 15
l9 64q2 11 1 14t-5 3h-1q-3 0 -5 -3t-3 -13l-11 -76h-43l12 83q3 24 18.5 35t32.5 11h9q17 0 30.5 -11t10.5 -35zM65 392l35 241q-7 -1 -15.5 -1.5t-15.5 -0.5l5 34q14 0 27 10t15 24h36l-43 -307h-44z" />
    <glyph glyph-name="questiondown" unicode="&#xbf;" horiz-adv-x="243" 
d="M212 116l-26 -180q-4 -28 -15.5 -48.5t-28 -33.5t-36 -19t-39.5 -6h-10q-20 0 -37.5 6t-30.5 19t-19.5 33.5t-2.5 48.5l16 105q4 35 16 62.5t26.5 52t30 49t28.5 52t21 61t7 77.5h99q0 -52 -8.5 -90.5t-21.5 -68t-29 -53.5t-30.5 -47.5t-26 -50t-16.5 -60.5l-11 -74
q-3 -23 -1.5 -31t9.5 -8h3q8 0 12 8.5t7 29.5l23 166h91zM129 534h101l-15 -109h-101z" />
    <glyph glyph-name="Agrave" unicode="&#xc0;" horiz-adv-x="253" 
d="M202 0l37 699h-127l-158 -699h85l38 176h42l-12 -176h95zM154 737l-49 86h87l22 -86h-60zM133 428h3l-12 -178h-30z" />
    <glyph glyph-name="Aacute" unicode="&#xc1;" horiz-adv-x="253" 
d="M107 0l12 176h-42l-38 -176h-85l158 699h127l-37 -699h-95zM151 737l47 86h86l-73 -86h-60zM94 250h30l12 178h-3z" />
    <glyph glyph-name="Acircumflex" unicode="&#xc2;" horiz-adv-x="253" 
d="M107 0l12 176h-42l-38 -176h-85l158 699h127l-37 -699h-95zM240 823l48 -86h-87l-14 38l-24 -38h-86l73 86h90zM94 250h30l12 178h-3z" />
    <glyph glyph-name="Atilde" unicode="&#xc3;" horiz-adv-x="253" 
d="M203 0l36 699h-127l-157 -699h85l38 176h41l-11 -176h95zM93 775q16 23 31.5 33t27.5 10q18 0 32.5 -8.5t32.5 -8.5q7 0 12.5 3t14.5 11l41 -28q-17 -25 -33 -33.5t-29 -8.5q-20 0 -33.5 8t-27.5 8q-8 0 -15 -2.5t-17 -10.5zM133 428h3l-12 -178h-30z" />
    <glyph glyph-name="Adieresis" unicode="&#xc4;" horiz-adv-x="253" 
d="M203 0l36 699h-127l-157 -699h85l38 176h41l-11 -176h95zM166 744h-65l10 74h66zM266 744h-65l10 74h65zM133 428h3l-12 -178h-30z" />
    <glyph glyph-name="Aring" unicode="&#xc5;" horiz-adv-x="253" 
d="M200 0l36 699h-127l-157 -699h84l38 176h42l-11 -176h95zM177 725q-26 0 -44.5 20.5t-15.5 47.5q5 29 28.5 50.5t50.5 21.5q29 0 47.5 -21.5t14.5 -50.5q-3 -27 -27 -47.5t-54 -20.5zM129 428h4l-12 -178h-31zM190 814q-8 0 -14.5 -6t-7.5 -14q-2 -7 3.5 -13.5t12.5 -6.5
q8 0 14.5 6.5t8.5 13.5q1 8 -4 14t-13 6z" />
    <glyph glyph-name="AE" unicode="&#xc6;" horiz-adv-x="353" 
d="M293 616l-32 -230h66l-11 -74h-66l-32 -229h91l-12 -83h-191l25 176h-59l-35 -176h-84l157 699h278l-12 -83h-83zM87 250h54l53 366h-32z" />
    <glyph glyph-name="Ccedilla" unicode="&#xc7;" 
d="M6 -114l15 45q9 -6 20 -8.5t21 -1.5t16.5 6t6.5 14q-2 9 -13 11t-22 -5l-18 7l27 40h9q-18 1 -34.5 8t-28 20t-16.5 32.5t-2 46.5l70 497q4 28 16 48.5t28.5 33.5t36 19t39.5 6h19q20 0 38 -6t31 -19t19 -33.5t2 -48.5l-26 -180h-99l24 166q3 21 1 29.5t-10 8.5h-3
q-8 0 -11.5 -8.5t-6.5 -30.5l-67 -467q-3 -21 -1.5 -30t9.5 -9h3q8 0 12 9t7 30l24 167h99l-26 -182q-8 -54 -41 -79.5t-71 -27.5h10l-11 -23q20 9 36 1t13 -30q-4 -29 -23.5 -45.5t-43 -22t-46 -2t-32.5 13.5z" />
    <glyph glyph-name="Egrave" unicode="&#xc8;" horiz-adv-x="208" 
d="M244 616l12 83h-182l-99 -699h189l13 83h-91l32 229h66l11 74h-66l32 230h83zM146 737l-48 86h87l21 -86h-60z" />
    <glyph glyph-name="Eacute" unicode="&#xc9;" horiz-adv-x="208" 
d="M161 616l-32 -230h66l-11 -74h-66l-32 -229h91l-13 -83h-189l99 699h182l-12 -83h-83zM144 737l46 86h87l-74 -86h-59z" />
    <glyph glyph-name="Ecircumflex" unicode="&#xca;" horiz-adv-x="208" 
d="M161 616l-32 -230h66l-11 -74h-66l-32 -229h91l-13 -83h-189l99 699h182l-12 -83h-83zM232 823l49 -86h-87l-14 37l-24 -37h-87l74 86h89z" />
    <glyph glyph-name="Edieresis" unicode="&#xcb;" horiz-adv-x="208" 
d="M245 616l11 83h-182l-98 -699h189l12 83h-91l33 229h66l10 74h-66l33 230h83zM159 744h-66l11 74h65zM258 744h-65l11 74h65z" />
    <glyph glyph-name="Igrave" unicode="&#xcc;" horiz-adv-x="123" 
d="M75 699l-99 -699h98l100 699h-99zM102 738l-49 86h87l22 -86h-60z" />
    <glyph glyph-name="Iacute" unicode="&#xcd;" horiz-adv-x="123" 
d="M174 699l-100 -699h-98l99 699h99zM99 738l47 86h87l-74 -86h-60z" />
    <glyph glyph-name="Icircumflex" unicode="&#xce;" horiz-adv-x="123" 
d="M174 699l-100 -699h-98l99 699h99zM188 824l48 -86h-87l-14 38l-24 -38h-86l73 86h90z" />
    <glyph glyph-name="Idieresis" unicode="&#xcf;" horiz-adv-x="123" 
d="M75 699l-99 -699h99l99 699h-99zM114 746h-65l10 73h66zM214 746h-65l10 73h65z" />
    <glyph glyph-name="Eth" unicode="&#xd0;" 
d="M-24 0l45 316h-16l10 68h15l45 315h124q20 0 38 -6t31 -19t19 -33t2 -48l-69 -487q-4 -28 -16 -48t-28.5 -33t-36.5 -19t-39 -6h-124zM163 616l-34 -232h14l-10 -68h-13l-33 -233h17q8 0 11.5 9t6.5 30l66 455q6 39 -9 39h-16z" />
    <glyph glyph-name="Ntilde" unicode="&#xd1;" horiz-adv-x="286" 
d="M129 0l-14 388h-2l-55 -388h-82l98 699h111l8 -376h1l54 376h90l-99 -699h-110zM123 775q15 23 31 33t28 10q18 0 32.5 -8.5t32.5 -8.5q6 0 12 3t15 11l41 -28q-17 -25 -33 -33.5t-30 -8.5q-19 0 -32.5 8t-27.5 8q-8 0 -15 -2.5t-17 -10.5z" />
    <glyph glyph-name="Ograve" unicode="&#xd2;" 
d="M76 -6q-19 0 -37 6t-31 19t-19 33.5t-2 48.5l70 497q4 28 15.5 48.5t28 33.5t36.5 19t40 6h19q19 0 37 -6t31 -19t19.5 -33.5t2.5 -48.5l-71 -497q-4 -28 -16 -48.5t-28.5 -33.5t-36.5 -19t-39 -6h-19zM173 622q-13 0 -19 -39l-66 -467q-3 -21 -2 -30t9 -9h3q8 0 12.5 9
t7.5 30l66 467q6 39 -8 39h-3zM163 737l-49 86h87l22 -86h-60z" />
    <glyph glyph-name="Oacute" unicode="&#xd3;" 
d="M76 -6q-19 0 -37 6t-31 19t-19 33.5t-2 48.5l70 497q4 28 15.5 48.5t28 33.5t36.5 19t40 6h19q19 0 37 -6t31 -19t19.5 -33.5t2.5 -48.5l-71 -497q-4 -28 -16 -48.5t-28.5 -33.5t-36.5 -19t-39 -6h-19zM173 622q-13 0 -19 -39l-66 -467q-3 -21 -2 -30t9 -9h3q8 0 12.5 9
t7.5 30l66 467q6 39 -8 39h-3zM161 737l45 86h87l-72 -86h-60z" />
    <glyph glyph-name="Ocircumflex" unicode="&#xd4;" 
d="M76 -6q-20 0 -37.5 6t-30.5 19t-19 33.5t-2 48.5l70 497q4 28 15.5 48.5t28 33.5t36.5 19t40 6h19q19 0 37 -6t31 -19t19.5 -33.5t2.5 -48.5l-71 -497q-4 -28 -16 -48.5t-28.5 -33.5t-36.5 -19t-39 -6h-19zM173 622q-13 0 -19 -39l-66 -467q-3 -21 -2 -30t9 -9h3
q8 0 12.5 9t7.5 30l66 467q6 39 -8 39h-3zM248 823l50 -86h-87l-14 38l-24 -38h-87l73 86h89z" />
    <glyph glyph-name="Otilde" unicode="&#xd5;" 
d="M60 -6q-20 0 -37.5 6t-30.5 19t-19 33.5t-2 48.5l70 497q4 28 16 48.5t28.5 33.5t36 19t39.5 6h19q20 0 38 -6t30.5 -19t19 -33.5t2.5 -48.5l-71 -497q-4 -28 -16 -48.5t-28.5 -33.5t-36.5 -19t-39 -6h-19zM157 622q-13 0 -19 -39l-67 -467q-2 -21 -0.5 -30t9.5 -9h3
q8 0 12 9t6 30l68 467q2 20 0.5 29.5t-9.5 9.5h-3zM87 775q14 23 30 33t28 10q18 0 32 -8.5t33 -8.5q6 0 12 3t16 11l40 -28q-17 -25 -32.5 -33.5t-29.5 -8.5q-20 0 -33 8t-28 8q-7 0 -14.5 -2.5t-17.5 -10.5z" />
    <glyph glyph-name="Odieresis" unicode="&#xd6;" 
d="M76 -6q-20 0 -37.5 6t-30.5 19t-19 33.5t-2 48.5l70 497q4 28 16 48.5t28.5 33.5t36 19t39.5 6h20q19 0 37 -6t31 -19t19 -33.5t2 -48.5l-71 -497q-4 -28 -16 -48.5t-28.5 -33.5t-36.5 -19t-39 -6h-19zM173 622q-8 0 -11.5 -9.5t-6.5 -29.5l-67 -467q-3 -21 -1.5 -30
t9.5 -9h3q8 0 12 9t7 30l67 467q6 39 -9 39h-3zM176 744h-66l11 74h65zM275 744h-65l11 74h65z" />
    <glyph glyph-name="multiply" unicode="&#xd7;" horiz-adv-x="267" 
d="M92 349l-67 79l61 53l67 -78l89 78l45 -53l-89 -78l68 -78l-62 -53l-67 77l-88 -77l-45 53z" />
    <glyph glyph-name="Oslash" unicode="&#xd8;" horiz-adv-x="335" 
d="M81 -6q-21 0 -40.5 7t-32.5 22l-16 -33h-56l57 114l69 494q4 28 16 48.5t28.5 33.5t36 19t39.5 6h20q21 0 40.5 -7.5t32.5 -23.5l17 35h56l-58 -117l-70 -491q-4 -28 -16 -48.5t-28.5 -33.5t-36.5 -19t-39 -6h-19zM178 622q-14 0 -18 -39l-28 -198l42 85l16 113
q2 20 0.5 29.5t-9.5 9.5h-3zM101 77h3q8 0 12 9t7 30l28 195l-42 -85l-16 -110q-3 -21 -1.5 -30t9.5 -9z" />
    <glyph glyph-name="Ugrave" unicode="&#xd9;" 
d="M80 -6q-19 0 -37 6t-31 19t-19 33.5t-2 48.5l85 598h99l-83 -583q-3 -21 -2 -30t9 -9h3q8 0 12.5 9t7.5 30l83 583h100l-86 -598q-4 -28 -16 -48.5t-28.5 -33.5t-36 -19t-39.5 -6h-19zM167 737l-49 86h87l22 -86h-60z" />
    <glyph glyph-name="Uacute" unicode="&#xda;" 
d="M79 -6q-19 0 -37 6t-30.5 19t-19 33.5t-2.5 48.5l85 598h99l-83 -583q-3 -21 -1.5 -30t9.5 -9h3q8 0 12 9t7 30l83 583h100l-86 -598q-4 -28 -15.5 -48.5t-28 -33.5t-36.5 -19t-40 -6h-19zM164 737l46 86h87l-73 -86h-60z" />
    <glyph glyph-name="Ucircumflex" unicode="&#xdb;" 
d="M79 -6q-19 0 -37 6t-30.5 19t-19 33.5t-2.5 48.5l85 598h99l-83 -583q-3 -21 -1.5 -30t9.5 -9h3q8 0 12 9t7 30l83 583h100l-86 -598q-4 -28 -15.5 -48.5t-28 -33.5t-36.5 -19t-40 -6h-19zM252 823l49 -86h-87l-14 38l-24 -38h-86l72 86h90z" />
    <glyph glyph-name="Udieresis" unicode="&#xdc;" 
d="M79 -6q-19 0 -37 6t-30.5 19t-18.5 33.5t-2 48.5l84 598h99l-83 -583q-3 -21 -1.5 -30t9.5 -9h3q8 0 12 9t7 30l83 583h100l-85 -598q-4 -28 -16 -48.5t-28.5 -33.5t-36.5 -19t-40 -6h-19zM179 744h-65l10 74h66zM279 744h-65l10 74h65z" />
    <glyph glyph-name="Yacute" unicode="&#xdd;" horiz-adv-x="257" 
d="M164 250l-37 -250h-99l35 250l-12 449h99l-6 -224h3l57 224h100zM152 737l46 86h87l-73 -86h-60z" />
    <glyph glyph-name="Thorn" unicode="&#xde;" horiz-adv-x="242" 
d="M88 97l13 91l-27 -188h-98l99 699h99l-15 -101h25q42 0 64.5 -28t15.5 -76l-41 -293q-8 -48 -38 -76t-72 -28h-25zM114 174q11 0 15 29l40 289q4 29 -6 29h-15l-43 -306l-6 -41h15z" />
    <glyph glyph-name="germandbls" unicode="&#xdf;" horiz-adv-x="279" 
d="M296 455q-6 -45 -31 -67t-57 -28q15 -2 28 -7.5t21.5 -15.5t12 -26t0.5 -38l-24 -166q-4 -28 -15.5 -48.5t-28 -33.5t-36.5 -19t-39 -6h-33l12 83h15q8 0 16.5 8t11.5 31l22 154q3 21 1 34.5t-17 13.5h-15l5 33l5 38h16q14 0 20 13.5t9 34.5l20 140q3 22 -3 30.5t-14 8.5
h-12q-8 0 -16.5 -8.5t-11.5 -29.5l-83 -584h-98l84 598q4 28 17 48.5t31 33.5t39 19t41 6h29q19 0 38.5 -6t34 -19t22.5 -33.5t4 -48.5l-21 -143v0z" />
    <glyph glyph-name="agrave" unicode="&#xe0;" horiz-adv-x="224" 
d="M31 -3q-21 0 -31.5 7.5t-14 21t-2 32.5t4.5 43l10 72q4 24 9 43t13.5 32.5t22 21t34.5 7.5h2q12 0 24 -5.5t23 -13.5l19 134q4 29 -7 29h-2q-11 0 -15 -29l-14 -101h-92l14 103q8 48 38 76t72 28h19q42 0 64 -28t15 -77l-56 -393h-92l2 16q-30 -19 -57 -19h-3zM126 535
l-49 86h87l22 -86h-60zM106 209q-12 0 -15 -29l-12 -86q-4 -29 6 -29h1q12 0 16 29l15 108q2 7 -4 7h-7z" />
    <glyph glyph-name="aacute" unicode="&#xe1;" horiz-adv-x="226" 
d="M31 -3q-21 0 -31.5 7.5t-14 21t-2 32.5t4.5 43l10 72q4 24 9 43t13.5 32.5t22 21t34.5 7.5h2q12 0 24 -5.5t23 -13.5l19 134q4 29 -7 29h-2q-11 0 -15 -29l-14 -101h-92l14 103q8 48 38 76t72 28h19q42 0 64 -28t15 -77l-56 -393h-92l2 16q-30 -19 -57 -19h-3zM123 535
l47 86h86l-73 -86h-60zM106 209q-12 0 -15 -29l-12 -86q-4 -29 6 -29h1q12 0 16 29l15 108q2 7 -4 7h-7z" />
    <glyph glyph-name="acircumflex" unicode="&#xe2;" horiz-adv-x="230" 
d="M31 -3q-21 0 -31.5 7.5t-14 21t-2 32.5t4.5 43l10 72q4 24 9 43t13.5 32.5t22 21t34.5 7.5h2q12 0 24 -5.5t23 -13.5l19 134q4 29 -7 29h-2q-11 0 -15 -29l-14 -101h-92l14 103q8 48 38 76t72 28h19q42 0 64 -28t15 -77l-56 -393h-92l2 16q-30 -19 -57 -19h-3zM212 621
l48 -86h-87l-14 38l-24 -38h-86l73 86h90zM106 209q-12 0 -15 -29l-12 -86q-4 -29 6 -29h1q12 0 16 29l15 108q2 7 -4 7h-7z" />
    <glyph glyph-name="atilde" unicode="&#xe3;" horiz-adv-x="226" 
d="M31 -3q-21 0 -31.5 7.5t-14 21t-2 32.5t4.5 43l11 72q7 48 22 76t57 28h2q12 0 23.5 -5t22.5 -13l19 133q4 29 -7 29h-2q-11 0 -15 -29l-14 -101h-92l15 103q7 48 37.5 76t72.5 28h19q42 0 63.5 -28t14.5 -77l-56 -393h-92l2 16q-30 -19 -57 -19h-3zM65 573q15 23 31 33
t28 10q19 0 32.5 -8.5t32.5 -8.5q6 0 12.5 3t14.5 11l40 -28q-17 -26 -32.5 -34t-29.5 -8q-19 0 -32 8t-28 8q-7 0 -14 -2.5t-17 -11.5zM106 209q-11 0 -15 -29l-12 -86q-4 -29 6 -29h1q12 0 16 29l15 108q2 7 -4 7h-7z" />
    <glyph glyph-name="adieresis" unicode="&#xe4;" horiz-adv-x="232" 
d="M33 -3q-21 0 -31.5 7.5t-14 21t-2 32.5t5.5 43l10 72q3 24 8 43t13.5 32.5t22 21t34.5 7.5h3q22 0 45 -18l19 133q4 29 -7 29h-2q-10 0 -14 -29l-14 -101h-93l15 103q7 48 37.5 76t72.5 28h19q42 0 64 -28t15 -77l-56 -393h-92l2 16q-32 -19 -57 -19h-3zM141 542h-66
l11 73h65zM240 542h-65l11 73h65zM107 209q-10 0 -14 -29l-13 -86q-4 -29 7 -29h1q12 0 16 29l6 40l9 70q-2 5 -4 5h-8z" />
    <glyph glyph-name="aring" unicode="&#xe5;" horiz-adv-x="225" 
d="M31 -3q-21 0 -31.5 7.5t-14 21t-2 32.5t5.5 43l10 72q7 48 22 76t57 28h2q12 0 23.5 -5t22.5 -13l19 133q4 29 -7 29h-2q-11 0 -15 -29l-14 -101h-92l15 103q7 48 37.5 76t72.5 28h19q42 0 63.5 -28t15.5 -77l-57 -393h-92l2 16q-32 -19 -57 -19h-3zM152 522
q-13 0 -24.5 5.5t-19.5 15.5t-12.5 22t-2.5 26t9.5 27t18.5 23t24 16t27 6q29 0 47.5 -21.5t14.5 -50.5q-4 -27 -28 -48t-54 -21zM106 209q-11 0 -15 -29l-12 -86q-4 -29 6 -29h1q12 0 16 29l14 95l2 14q0 6 -5 6h-7zM166 612q-8 0 -15 -6t-8 -14t4 -14t13 -6t14.5 6t7.5 14
q2 8 -3 14t-13 6z" />
    <glyph glyph-name="ae" unicode="&#xe6;" horiz-adv-x="341" 
d="M32 -3q-21 0 -31.5 7.5t-14 21t-2 32.5t4.5 43l10 72q6 48 21.5 76t57.5 28h2q12 0 23.5 -5t22.5 -13l8 61l11 73q0 2 0.5 4.5t0.5 4.5q1 19 -8 19h-1q-12 0 -15 -29l-15 -101h-92l15 103q7 48 37.5 76t72.5 28h19q27 0 45 -12q22 12 50 12h19q41 0 64 -28t16 -76
l-24 -170h-116l-17 -121q-4 -29 7 -29h2q11 0 15 29l15 103h92l-15 -104q-8 -49 -38 -77t-72 -28h-20q-48 0 -68 35q-20 -16 -40.5 -25.5t-38.5 -9.5h-3zM106 209q-11 0 -15 -29l-11 -86q-4 -29 6 -29h1q12 0 16 29v4q0 1 0.5 2t0.5 2l7 52l7 49q0 6 -5 6h-7zM246 287
l15 105q2 15 1 22t-7 7h-2q-12 0 -15 -26v-2v-1l-16 -105h24z" />
    <glyph glyph-name="ccedilla" unicode="&#xe7;" horiz-adv-x="225" 
d="M-4 -111l16 45q8 -6 19 -8.5t21 -1.5t16.5 6t6.5 14q-1 9 -12 11t-22 -5l-19 7l28 41q-34 5 -50.5 32.5t-10.5 71.5l41 291q7 49 36.5 77t71.5 28h19q42 0 65 -28t16 -76l-15 -103h-92l14 101q6 29 -6 29h-2q-11 0 -15 -29l-42 -289q-4 -29 7 -29h2q11 0 15 29l15 103h92
l-15 -104q-6 -44 -31 -71t-60 -32l-13 -25q20 9 36 1t14 -30q-4 -29 -23.5 -45.5t-43 -22t-46.5 -2t-33 13.5z" />
    <glyph glyph-name="egrave" unicode="&#xe8;" horiz-adv-x="225" 
d="M87 74h2q11 0 15 29l14 103h92l-15 -104q-7 -49 -37.5 -77t-72.5 -28h-19q-42 0 -63.5 28.5t-14.5 76.5l41 291q8 49 37 77t71 28h19q42 0 65 -28t16 -76l-24 -170h-116l-17 -121q-4 -29 7 -29zM124 535l-49 86h87l22 -86h-60zM130 287l15 105q4 29 -6 29h-2
q-12 0 -16 -29l-15 -105h24z" />
    <glyph glyph-name="eacute" unicode="&#xe9;" horiz-adv-x="222" 
d="M88 74h2q6 0 9 6.5t6 22.5l14 103h92l-15 -104q-7 -49 -37.5 -77t-72.5 -28h-20q-41 0 -62.5 28.5t-14.5 76.5l41 291q7 49 36.5 77t71.5 28h19q42 0 65 -28t16 -76l-24 -170h-116l-17 -121q-4 -29 7 -29zM122 535l46 86h87l-73 -86h-60zM131 287l14 105q4 29 -6 29h-2
q-11 0 -15 -29l-15 -105h24z" />
    <glyph glyph-name="ecircumflex" unicode="&#xea;" horiz-adv-x="225" 
d="M87 74h2q11 0 15 29l14 103h92l-15 -104q-7 -49 -37.5 -77t-72.5 -28h-19q-42 0 -63.5 28.5t-14.5 76.5l41 291q7 49 36.5 77t71.5 28h19q42 0 65 -28t16 -76l-24 -170h-116l-17 -121q-4 -29 7 -29zM210 621l48 -86h-87l-13 37l-24 -37h-87l73 86h90zM130 287l15 105
q4 29 -7 29h-1q-12 0 -16 -29l-15 -105h24z" />
    <glyph glyph-name="edieresis" unicode="&#xeb;" horiz-adv-x="225" 
d="M87 74h2q11 0 15 29l15 103h92l-15 -104q-8 -49 -38.5 -77t-72.5 -28h-19q-42 0 -63.5 28.5t-13.5 76.5l41 291q7 49 36.5 77t71.5 28h19q42 0 64.5 -28t16.5 -76l-25 -170h-116l-17 -121q-4 -29 7 -29zM137 542h-65l10 73h66zM237 542h-65l10 73h65zM130 287l15 105
q4 29 -6 29h-2q-12 0 -16 -29l-15 -105h24z" />
    <glyph glyph-name="igrave" unicode="&#xec;" horiz-adv-x="112" 
d="M47 495l-71 -495h92l71 495h-92zM70 533l-49 86h87l22 -86h-60z" />
    <glyph glyph-name="iacute" unicode="&#xed;" horiz-adv-x="112" 
d="M139 495l-71 -495h-92l71 495h92zM67 533l47 86h87l-74 -86h-60z" />
    <glyph glyph-name="icircumflex" unicode="&#xee;" horiz-adv-x="112" 
d="M139 495l-71 -495h-92l71 495h92zM156 619l48 -86h-87l-13 37l-24 -37h-86l72 86h90z" />
    <glyph glyph-name="idieresis" unicode="&#xef;" horiz-adv-x="112" 
d="M47 495l-70 -495h92l70 495h-92zM82 540h-65l11 74h65zM182 540h-65l10 74h66z" />
    <glyph glyph-name="eth" unicode="&#xf0;" horiz-adv-x="262" 
d="M181 0h-74l-6 24q-30 -27 -57 -27h-3q-41 0 -50 28.5t-2 75.5l41 293q3 24 8 43t14 32.5t22.5 21t34.5 7.5h2q12 0 23.5 -6t22.5 -16l15 105h-36l9 67h36l8 51h92l-8 -51h39l-10 -67h-38zM137 421q-11 0 -15 -29l-42 -289q-4 -29 6 -29h2q12 0 16 30l41 287q4 30 -6 30
h-2z" />
    <glyph glyph-name="ntilde" unicode="&#xf1;" horiz-adv-x="228" 
d="M142 421q10 0 6 -29l-56 -392h92l56 394q7 47 -1 75.5t-49 28.5h-2q-13 0 -26.5 -6t-27.5 -17l3 20h-92l-70 -495h92l56 398q6 23 17 23h2zM105 573q16 23 31.5 33t27.5 10q18 0 32.5 -8.5t32.5 -8.5q7 0 12.5 3t14.5 11l41 -28q-17 -26 -33 -34t-29 -8q-20 0 -33.5 8
t-27.5 8q-8 0 -15 -2.5t-17 -11.5z" />
    <glyph glyph-name="ograve" unicode="&#xf2;" horiz-adv-x="225" 
d="M67 -3q-42 0 -63.5 28t-14.5 76l41 293q7 48 36.5 76t71.5 28h19q42 0 65 -28t16 -76l-42 -293q-7 -48 -37.5 -76t-72.5 -28h-19zM137 421q-11 0 -15 -29l-41 -289q-4 -29 7 -29h2q6 0 9 6.5t6 22.5l40 289q4 29 -6 29h-2zM125 535l-49 86h87l22 -86h-60z" />
    <glyph glyph-name="oacute" unicode="&#xf3;" horiz-adv-x="222" 
d="M67 -3q-42 0 -63.5 28t-14.5 76l41 293q7 48 36.5 76t71.5 28h19q42 0 65 -28t16 -76l-42 -293q-7 -48 -37.5 -76t-72.5 -28h-19zM137 421q-11 0 -15 -29l-41 -289q-4 -29 7 -29h2q6 0 9 6.5t6 22.5l40 289q4 29 -6 29h-2zM122 535l47 86h87l-74 -86h-60z" />
    <glyph glyph-name="ocircumflex" unicode="&#xf4;" horiz-adv-x="225" 
d="M67 -3q-42 0 -63.5 28t-14.5 76l41 293q7 48 36.5 76t71.5 28h19q42 0 65 -28t16 -76l-42 -293q-7 -48 -37.5 -76t-72.5 -28h-19zM211 621l48 -86h-87l-13 37l-24 -37h-87l73 86h90zM137 421q-11 0 -15 -29l-41 -289q-4 -29 7 -29h2q11 0 15 29l40 289q4 29 -6 29h-2z
" />
    <glyph glyph-name="otilde" unicode="&#xf5;" horiz-adv-x="225" 
d="M66 -3q-42 0 -63.5 28t-14.5 76l42 293q7 48 36.5 76t71.5 28h19q42 0 64.5 -28t16.5 -76l-43 -293q-7 -48 -37.5 -76t-72.5 -28h-19zM137 421q-12 0 -16 -29l-41 -289q-4 -29 7 -29h2q11 0 15 29l41 289q4 29 -7 29h-1zM63 573q16 23 32 33t28 10q18 0 32 -8.5t32 -8.5
q7 0 13 3t14 11l41 -28q-17 -26 -33 -34t-29 -8q-20 0 -33 8t-27 8q-8 0 -15 -2.5t-17 -11.5z" />
    <glyph glyph-name="odieresis" unicode="&#xf6;" horiz-adv-x="225" 
d="M67 -3q-42 0 -63.5 28t-14.5 76l41 293q7 48 37 76t72 28h19q42 0 64.5 -28t15.5 -76l-42 -293q-7 -48 -37.5 -76t-72.5 -28h-19zM137 421q-11 0 -15 -29l-41 -289q-4 -29 7 -29h2q11 0 15 29l40 289q4 29 -6 29h-2zM138 544h-65l10 73h66zM238 544h-65l10 73h65z" />
    <glyph glyph-name="divide" unicode="&#xf7;" horiz-adv-x="357" 
d="M358 316h-337l10 67h337zM254 414h-102l16 109h101zM220 175h-101l15 109h101z" />
    <glyph glyph-name="oslash" unicode="&#xf8;" horiz-adv-x="276" 
d="M70 -3q-31 0 -53 17l-14 -27h-55l43 80q-1 16 0 34l41 293q7 48 37 76t72 28h19q28 0 48 -14l13 24h57l-39 -73q4 -17 1 -41l-41 -293q-7 -48 -37.5 -76t-72.5 -28h-19zM90 74h2q6 0 9 6.5t6 22.5l15 110l-32 -62l-7 -48q-4 -29 7 -29zM140 421q-12 0 -15 -29l-14 -94
l32 61l5 33q2 15 1 22t-7 7h-2z" />
    <glyph glyph-name="ugrave" unicode="&#xf9;" horiz-adv-x="228" 
d="M85 74q-10 0 -6 29l56 392h-92l-56 -394q-7 -47 0.5 -75.5t48.5 -28.5h2q25 0 55 24l-3 -21h92l70 495h-92l-57 -399q-4 -22 -16 -22h-2zM125 533l-49 86h87l22 -86h-60z" />
    <glyph glyph-name="uacute" unicode="&#xfa;" horiz-adv-x="228" 
d="M87 74q12 0 16 22l57 399h92l-70 -495h-92l3 21q-30 -24 -55 -24h-2q-41 0 -48.5 28.5t-0.5 75.5l56 394h92l-56 -392q-4 -29 6 -29h2zM122 533l47 86h87l-74 -86h-60z" />
    <glyph glyph-name="ucircumflex" unicode="&#xfb;" horiz-adv-x="228" 
d="M87 74q12 0 16 22l57 399h92l-70 -495h-92l3 21q-30 -24 -55 -24h-2q-41 0 -48.5 28.5t-0.5 75.5l56 394h92l-56 -392q-4 -29 6 -29h2zM211 619l48 -86h-87l-13 37l-24 -37h-87l73 86h90z" />
    <glyph glyph-name="udieresis" unicode="&#xfc;" horiz-adv-x="228" 
d="M85 74q-10 0 -6 29l56 392h-92l-56 -394q-7 -47 0.5 -75.5t48.5 -28.5h2q13 0 26.5 6t27.5 17l-3 -20h92l71 495h-92l-56 -391v-1l-1 -3q-4 -26 -17 -26h-1zM236 540h-65l10 74h66zM136 540h-65l11 74h65z" />
    <glyph glyph-name="yacute" unicode="&#xfd;" horiz-adv-x="212" 
d="M170 495h75l-154 -660h-89l41 165l-6 495h83l-11 -243h4zM117 535l46 86h87l-73 -86h-60z" />
    <glyph glyph-name="thorn" unicode="&#xfe;" horiz-adv-x="238" 
d="M173 699l-29 -201h24q42 0 65 -28t16 -76l-42 -293q-6 -48 -37 -76t-73 -28h-24l-23 -162h-99l123 864h99zM134 421l-50 -347h15q10 0 14 29l42 289q2 15 1 22t-7 7h-15z" />
    <glyph glyph-name="ydieresis" unicode="&#xff;" horiz-adv-x="212" 
d="M113 252h-4l10 243h-83l7 -495l-42 -165h89l154 660h-75zM130 545h-65l10 73h66zM230 545h-65l10 73h65z" />
    <glyph glyph-name="Amacron" unicode="&#x100;" horiz-adv-x="253" 
d="M107 0l12 176h-42l-38 -176h-84l157 699h126l-36 -699h-95zM258 747h-151l10 68h151zM93 250h31l12 178h-4z" />
    <glyph glyph-name="amacron" unicode="&#x101;" horiz-adv-x="225" 
d="M31 -3q-21 0 -31.5 7.5t-14 21t-2 32.5t5.5 43l10 72q7 48 22 76t57 28h2q12 0 23.5 -5t22.5 -13l19 133q4 29 -7 29h-2q-11 0 -15 -29l-14 -101h-92l15 103q7 48 37.5 76t72.5 28h19q42 0 63.5 -28t15.5 -77l-57 -393h-92l2 16q-32 -19 -57 -19h-3zM232 545h-151l10 68
h151zM106 209q-11 0 -15 -29l-12 -86q-4 -29 6 -29h1q12 0 16 29l14 95l2 14q0 6 -5 6h-7z" />
    <glyph glyph-name="Abreve" unicode="&#x102;" horiz-adv-x="253" 
d="M202 0l37 699h-127l-157 -699h84l38 176h42l-12 -176h95zM176 820q-2 -8 3 -14.5t13 -6.5t14.5 6.5t8.5 14.5h59q-2 -15 -10.5 -29.5t-21 -25t-28 -17t-31.5 -6.5q-15 0 -27.5 6.5t-21.5 17t-13 24.5t-2 30h57zM133 428h3l-12 -178h-30z" />
    <glyph glyph-name="abreve" unicode="&#x103;" horiz-adv-x="225" 
d="M32 -3q-21 0 -31.5 7.5t-14 21t-2 32.5t4.5 43l10 72q4 24 9 43t14 32.5t22.5 21t34.5 7.5h2q22 0 45 -18l19 133q6 29 -7 29h-2q-10 0 -14 -29l-14 -101h-92l14 103q7 48 38 76t73 28h19q42 0 63.5 -28t14.5 -77l-56 -393h-92l2 16q-32 -19 -57 -19h-3zM148 618
q-2 -8 3.5 -14.5t13.5 -6.5t14.5 6.5t8.5 14.5h59q-2 -16 -10.5 -30t-21 -24.5t-28 -17t-31.5 -6.5q-15 0 -27.5 6.5t-21.5 17t-13.5 24.5t-2.5 30h57zM107 209q-12 0 -15 -29l-12 -86q-4 -29 6 -29h1q12 0 16 29l15 108q1 3 -0.5 5t-3.5 2h-7z" />
    <glyph glyph-name="Aogonek" unicode="&#x104;" horiz-adv-x="253" 
d="M203 -70q-13 -20 -33 -28t-38 -5t-30 16t-9 35q3 29 34 52h-20l12 176h-42l-38 -176h-84l157 699h127l-37 -699h-4q-20 -5 -34 -18t-15 -24q-2 -11 6.5 -12.5t18.5 6.5zM94 250h30l12 178h-3z" />
    <glyph glyph-name="aogonek" unicode="&#x105;" horiz-adv-x="225" 
d="M32 -3q-21 0 -31.5 7.5t-14 21t-2 32.5t4.5 43l9 72q7 48 22.5 76t57.5 28h2q12 0 23.5 -5t22.5 -13l19 133q4 29 -7 29h-2q-11 0 -15 -29l-14 -101h-92l15 103q7 48 37.5 76t72.5 28h19q42 0 63.5 -28t15.5 -77l-57 -393h-92l2 16q-30 -19 -56 -19h-3zM155 -48
q-10 -8 -18 -6.5t-6 12.5q1 11 15 24t34 18h-71q-31 -23 -34 -52q-3 -22 8.5 -35t30 -16t38.5 5t33 28zM106 209q-11 0 -15 -29l-12 -86q-2 -16 -1 -22.5t7 -6.5h1q13 0 16 29l15 102l1 7q0 6 -5 6h-7z" />
    <glyph glyph-name="Cacute" unicode="&#x106;" 
d="M76 -6q-19 0 -37 6t-31 19t-19 33.5t-2 48.5l70 497q4 28 16 48.5t28.5 33.5t36 19t39.5 6h19q19 0 37 -6t31 -19t19.5 -33.5t2.5 -48.5l-26 -180h-99l24 166q2 21 0.5 29.5t-9.5 8.5h-3q-8 0 -11.5 -8.5t-7.5 -30.5l-66 -467q-3 -21 -2 -30t9 -9h3q8 0 12.5 9t7.5 30
l24 167h99l-26 -182q-4 -28 -16 -48.5t-28.5 -33.5t-36.5 -19t-39 -6h-19zM161 738l45 86h87l-72 -86h-60z" />
    <glyph glyph-name="cacute" unicode="&#x107;" horiz-adv-x="225" 
d="M130 291l15 101q4 29 -7 29h-1q-12 0 -16 -29l-41 -289q-4 -29 7 -29h2q11 0 15 29l14 103h92l-15 -104q-7 -49 -37.5 -77t-72.5 -28h-19q-42 0 -63.5 28.5t-14.5 76.5l41 291q7 49 36.5 77t71.5 28h19q42 0 65 -28t16 -76l-14 -103h-93zM121 535l47 86h87l-74 -86h-60z
" />
    <glyph glyph-name="Ccircumflex" unicode="&#x108;" 
d="M76 -6q-19 0 -37 6t-31 19t-19 33.5t-2 48.5l70 497q4 28 16 48.5t28.5 33.5t36 19t39.5 6h19q19 0 37 -6t31 -19t19.5 -33.5t2.5 -48.5l-26 -180h-99l24 166q2 21 0.5 29.5t-9.5 8.5h-3q-8 0 -11.5 -8.5t-7.5 -30.5l-66 -467q-3 -21 -2 -30t9 -9h3q8 0 12.5 9t7.5 30
l24 167h99l-26 -182q-4 -28 -16 -48.5t-28.5 -33.5t-36.5 -19t-39 -6h-19zM249 824l49 -86h-87l-14 38l-24 -38h-87l73 86h90z" />
    <glyph glyph-name="ccircumflex" unicode="&#x109;" horiz-adv-x="225" 
d="M131 291l14 101q4 29 -6 29h-2q-11 0 -15 -29l-41 -289q-4 -29 7 -29h2q6 0 9 6.5t6 22.5l14 103h92l-15 -104q-7 -49 -37.5 -77t-72.5 -28h-20q-41 0 -62.5 28.5t-14.5 76.5l41 291q7 49 36.5 77t71.5 28h19q42 0 65 -28t16 -76l-15 -103h-92zM211 621l48 -86h-87
l-14 38l-24 -38h-86l73 86h90z" />
    <glyph glyph-name="Cdotaccent" unicode="&#x10a;" 
d="M76 -6q-19 0 -37 6t-30.5 19t-19 33.5t-1.5 48.5l69 497q4 28 16 48.5t28.5 33.5t36.5 19t40 6h19q19 0 37 -6t31 -19t19 -33.5t2 -48.5l-26 -180h-99l24 166q3 21 1 29.5t-10 8.5h-3q-8 0 -11.5 -8.5t-6.5 -30.5l-67 -467q-3 -21 -1.5 -30t9.5 -9h3q8 0 12 9t7 30
l24 167h99l-25 -182q-5 -28 -17 -48.5t-28.5 -33.5t-36.5 -19t-39 -6h-19zM223 746h-65l11 73h65z" />
    <glyph glyph-name="cdotaccent" unicode="&#x10b;" horiz-adv-x="225" 
d="M131 291l14 101q4 29 -6 29h-2q-11 0 -15 -29l-41 -289q-4 -29 7 -29h2q11 0 15 29l15 103h92l-15 -104q-8 -49 -38.5 -77t-72.5 -28h-20q-41 0 -62.5 28.5t-13.5 76.5l40 291q7 49 37 77t72 28h19q42 0 64.5 -28t15.5 -76l-15 -103h-92zM186 543h-66l11 73h65z" />
    <glyph glyph-name="Ccaron" unicode="&#x10c;" 
d="M76 -6q-19 0 -37 6t-31 19t-19 33.5t-2 48.5l70 497q4 28 16 48.5t28.5 33.5t36 19t39.5 6h19q19 0 37 -6t31 -19t19.5 -33.5t2.5 -48.5l-26 -180h-99l24 166q2 21 0.5 29.5t-9.5 8.5h-3q-8 0 -11.5 -8.5t-7.5 -30.5l-66 -467q-3 -21 -2 -30t9 -9h3q8 0 12.5 9t7.5 30
l24 167h99l-26 -182q-4 -28 -16 -48.5t-28.5 -33.5t-36.5 -19t-39 -6h-19zM146 738l-49 86h87l13 -38l25 38h87l-73 -86h-90z" />
    <glyph glyph-name="ccaron" unicode="&#x10d;" horiz-adv-x="225" 
d="M131 291l14 101q4 29 -6 29h-2q-11 0 -15 -29l-41 -289q-4 -29 7 -29h2q11 0 15 29l14 103h92l-15 -104q-7 -49 -37.5 -77t-72.5 -28h-20q-41 0 -62.5 28.5t-14.5 76.5l41 291q7 49 36.5 77t71.5 28h19q42 0 65 -28t16 -76l-15 -103h-92zM108 535l-49 86h87l13 -38l25 38
h87l-74 -86h-89z" />
    <glyph glyph-name="Dcaron" unicode="&#x10e;" 
d="M-24 0l99 699h124q20 0 38 -6t31 -19t19 -33t2 -48l-69 -487q-4 -28 -16 -48t-28.5 -33t-36.5 -19t-39 -6h-124zM163 616l-76 -533h17q8 0 11.5 9t6.5 30l66 455q6 39 -9 39h-16zM150 738l-48 86h86l13 -38l25 38h87l-73 -86h-90z" />
    <glyph glyph-name="dcaron" unicode="&#x10f;" horiz-adv-x="358" 
d="M41 -3q-41 0 -50 28.5t-2 75.5l41 293q3 24 8 43t14 32.5t22.5 21t34.5 7.5h2q12 0 23.5 -6t22.5 -16l32 223h92l-100 -699h-74l-6 24q-30 -27 -57 -27h-3zM399 590l-38 -65h-41l25 65h-47l15 109h102zM137 421q-11 0 -15 -29l-42 -289q-4 -29 6 -29h2q12 0 16 30l41 287
q4 30 -6 30h-2z" />
    <glyph glyph-name="Dcroat" unicode="&#x110;" horiz-adv-x="267" 
d="M-22 0l45 316h-15l10 68h14l45 315h124q19 0 37.5 -6t31 -19t18.5 -33t2 -48l-68 -487q-5 -28 -17 -48t-28.5 -33t-36.5 -19t-39 -6h-123zM164 616l-33 -232h15l-9 -68h-15l-33 -233h16q8 0 12 9t7 30l65 455q6 39 -8 39h-17z" />
    <glyph glyph-name="dcroat" unicode="&#x111;" horiz-adv-x="264" 
d="M181 0h-74l-6 24q-30 -27 -57 -27h-3q-41 0 -50 28.5t-2 75.5l41 293q3 24 8 43t14 32.5t22.5 21t34.5 7.5h2q12 0 23.5 -6t22.5 -16l15 105h-36l9 67h36l8 51h92l-8 -51h39l-10 -67h-38zM137 421q-11 0 -15 -29l-42 -289q-4 -29 6 -29h2q12 0 16 30l41 287q4 30 -6 30
h-2z" />
    <glyph glyph-name="Emacron" unicode="&#x112;" horiz-adv-x="208" 
d="M162 616l-33 -230h66l-10 -74h-66l-33 -229h91l-12 -83h-189l98 699h182l-11 -83h-83zM252 747h-151l9 68h151z" />
    <glyph glyph-name="emacron" unicode="&#x113;" horiz-adv-x="225" 
d="M87 74h2q11 0 15 29l15 103h92l-15 -104q-8 -49 -38.5 -77t-72.5 -28h-19q-42 0 -63.5 28.5t-13.5 76.5l41 291q7 49 36.5 77t71.5 28h19q42 0 64.5 -28t16.5 -76l-25 -170h-116l-17 -121q-4 -29 7 -29zM230 545h-151l10 68h151zM130 287l15 105q4 29 -6 29h-2
q-12 0 -16 -29l-15 -105h24z" />
    <glyph glyph-name="Ebreve" unicode="&#x114;" horiz-adv-x="208" 
d="M245 616l11 83h-182l-99 -699h189l13 83h-91l32 229h66l11 74h-66l33 230h83zM168 820q-2 -8 3 -14.5t14 -6.5q8 0 14.5 6.5t8.5 14.5h58q-2 -15 -10.5 -29.5t-20.5 -25t-27.5 -17t-31.5 -6.5q-30 0 -50 23t-15 55h57z" />
    <glyph glyph-name="ebreve" unicode="&#x115;" horiz-adv-x="225" 
d="M88 74h2q6 0 9 6.5t6 22.5l14 103h92l-14 -104q-8 -49 -38.5 -77t-72.5 -28h-20q-41 0 -62.5 28.5t-13.5 76.5l40 291q7 49 37 77t72 28h19q42 0 64.5 -28t15.5 -76l-24 -170h-116l-17 -121q-4 -29 7 -29zM146 618q-2 -8 3.5 -14.5t13.5 -6.5t14.5 6.5t8.5 14.5h59
q-2 -16 -10.5 -30t-21 -24.5t-28 -17t-31.5 -6.5q-15 0 -27.5 6.5t-21.5 17t-13.5 24.5t-2.5 30h57zM131 287l14 105q4 29 -6 29h-2q-11 0 -15 -29l-15 -105h24z" />
    <glyph glyph-name="Edotaccent" unicode="&#x116;" horiz-adv-x="208" 
d="M245 616l11 83h-182l-98 -699h189l12 83h-91l32 229h66l11 74h-66l33 230h83zM206 745h-65l11 74h65z" />
    <glyph glyph-name="edotaccent" unicode="&#x117;" horiz-adv-x="225" 
d="M87 74h2q11 0 15 29l15 103h92l-15 -104q-8 -49 -38.5 -77t-72.5 -28h-19q-42 0 -63.5 28.5t-13.5 76.5l40 291q8 49 37.5 77t71.5 28h19q42 0 64.5 -28t16.5 -76l-25 -170h-116l-17 -121q-4 -29 7 -29zM185 543h-65l10 73h65zM130 287l15 105q4 29 -6 29h-2
q-12 0 -16 -29l-15 -105h24z" />
    <glyph glyph-name="Eogonek" unicode="&#x118;" horiz-adv-x="208" 
d="M120 -70q-13 -20 -32.5 -28t-37.5 -5t-30.5 16t-9.5 35q4 29 34 52h-68l99 699h183l-12 -83h-83l-33 -230h66l-10 -74h-66l-33 -229h91l-12 -83h-51q-20 -5 -34 -18t-15 -24t7 -12.5t18 6.5z" />
    <glyph glyph-name="eogonek" unicode="&#x119;" horiz-adv-x="225" 
d="M126 -73q-13 -20 -33 -28t-38.5 -5t-30.5 16t-9 35q2 14 10.5 28t24.5 25q-34 5 -50.5 32.5t-10.5 71.5l41 291q7 49 36.5 77t71.5 28h19q42 0 65 -28t16 -76l-25 -170h-116l-17 -121q-4 -29 7 -29h2q11 0 15 29l15 103h92l-15 -104q-7 -41 -29 -67.5t-54 -34.5
q-19 -9 -30 -22t-12 -23q-1 -11 7 -12.5t18 6.5zM130 287l15 105q4 29 -6 29h-2q-12 0 -15 -29l-16 -105h24z" />
    <glyph glyph-name="Ecaron" unicode="&#x11a;" horiz-adv-x="208" 
d="M246 616l12 83h-183l-99 -699h190l12 83h-91l33 229h66l10 74h-66l33 230h83zM131 738l-49 86h87l13 -38l25 38h87l-74 -86h-89z" />
    <glyph glyph-name="ecaron" unicode="&#x11b;" horiz-adv-x="225" 
d="M87 74h2q11 0 15 29l14 103h92l-15 -104q-7 -49 -37.5 -77t-72.5 -28h-19q-42 0 -63.5 28.5t-14.5 76.5l41 291q7 49 36.5 77t71.5 28h19q42 0 65 -28t16 -76l-24 -170h-116l-17 -121q-4 -29 7 -29zM107 535l-49 86h87l13 -38l25 38h87l-74 -86h-89zM130 287l15 105
q4 29 -7 29h-1q-12 0 -16 -29l-15 -105h24z" />
    <glyph glyph-name="Gcircumflex" unicode="&#x11c;" 
d="M76 -6q-19 0 -37 6t-31 19t-19 33.5t-2 48.5l70 497q4 28 15.5 48.5t28 33.5t36.5 19t40 6h19q19 0 37 -6t31 -19t19.5 -33.5t2.5 -48.5l-26 -180h-99l24 166q2 21 0.5 29.5t-9.5 8.5h-3q-8 0 -11.5 -8.5t-7.5 -30.5l-66 -467q-3 -21 -2 -30t9 -9h3q8 0 12.5 9t7.5 30
l12 84h-19l12 83h118l-12 -83l-9 -64l-2 -9l-17 -127h-48l-7 23q-18 -14 -35.5 -21.5t-30.5 -7.5h-4zM249 823l49 -86h-87l-14 38l-24 -38h-87l73 86h90z" />
    <glyph glyph-name="gcircumflex" unicode="&#x11d;" horiz-adv-x="226" 
d="M252 495q-4 -24 -10 -68t-14 -97.5t-16 -112t-15.5 -112t-14 -97.5t-9.5 -68q-8 -48 -37.5 -76.5t-71.5 -28.5h-20q-41 0 -63.5 28t-14.5 77l4 31h91l-4 -30q-4 -29 6 -29h2q11 0 15 29l11 76q-14 -9 -27 -14.5t-25 -5.5h-2q-41 0 -48.5 28.5t-0.5 75.5l41 293
q7 48 23.5 76t58.5 28h3q26 0 50 -26l13 23h75zM211 621l48 -86h-87l-14 38l-24 -38h-87l74 86h90zM87 74q13 0 16 30l41 287q6 30 -7 30h-1q-11 0 -15 -29l-42 -289q-3 -29 7 -29h1z" />
    <glyph glyph-name="Gbreve" unicode="&#x11e;" 
d="M123 283h118l-12 -83l-9 -64l-2 -9l-17 -127h-48l-7 23q-18 -14 -35.5 -21.5t-30.5 -7.5h-4q-19 0 -37 6t-31 19t-19 33.5t-2 48.5l70 497q4 28 16 48.5t28.5 33.5t36.5 19t40 6h19q19 0 37 -6t30.5 -19t19 -33.5t2.5 -48.5l-26 -180h-99l24 166q3 21 1 29.5t-10 8.5h-3
q-8 0 -11.5 -8.5t-6.5 -30.5l-67 -467q-3 -21 -1.5 -30t9.5 -9h3q8 0 12 9t7 30l12 84h-19zM184 820q-1 -8 4 -14.5t13 -6.5t15 6.5t8 14.5h59q-2 -15 -10.5 -29.5t-21 -25t-28 -17t-31.5 -6.5q-15 0 -27.5 6.5t-21.5 17t-13.5 24.5t-2.5 30h57z" />
    <glyph glyph-name="gbreve" unicode="&#x11f;" horiz-adv-x="226" 
d="M177 495l-13 -23q-24 26 -50 26h-3q-42 0 -58.5 -28t-23.5 -76l-41 -293q-7 -47 0.5 -75.5t48.5 -28.5h2q12 0 25 5.5t27 14.5l-11 -76q-4 -29 -15 -29h-2q-10 0 -6 29l4 30h-91l-4 -31q-8 -49 14.5 -77t63.5 -28h20q42 0 71.5 28.5t37.5 76.5q3 24 9.5 68t14 97.5
t15.5 112t15.5 112t14 97.5t9.5 68h-74zM146 618q-2 -8 3.5 -14.5t13.5 -6.5t14.5 6.5t8.5 14.5h58q-2 -16 -10.5 -30t-20.5 -24.5t-27.5 -17t-31.5 -6.5q-30 0 -50 23t-15 55h57zM86 74q-10 0 -7 29l42 289q4 29 15 29h1q11 0 7 -30l-41 -287q-3 -30 -15 -30h-2z" />
    <glyph glyph-name="Gdotaccent" unicode="&#x120;" 
d="M76 -6q-20 0 -37.5 6t-30.5 19t-19 33.5t-2 48.5l70 497q4 28 16 48.5t28.5 33.5t36 19t39.5 6h20q19 0 37 -6t31 -19t19 -33.5t2 -48.5l-26 -180h-99l24 166q3 21 1 29.5t-10 8.5h-3q-8 0 -11.5 -8.5t-6.5 -30.5l-67 -467q-3 -21 -1.5 -30t9.5 -9h3q8 0 12 9t7 30l12 84
h-19l12 83h118l-12 -83l-9 -64l-2 -9l-17 -127h-48l-7 23q-18 -14 -35.5 -21.5t-30.5 -7.5h-4zM223 745h-65l11 74h65z" />
    <glyph glyph-name="gdotaccent" unicode="&#x121;" horiz-adv-x="226" 
d="M177 495l-12 -23q-24 26 -50 26h-3q-42 0 -58.5 -28t-24.5 -76l-41 -293q-7 -47 0.5 -75.5t48.5 -28.5h2q12 0 25 5.5t27 14.5l-11 -76q-4 -29 -15 -29h-2q-10 0 -6 29l4 30h-91l-4 -31q-8 -49 15 -77t64 -28h20q42 0 71 28.5t37 76.5q3 24 9.5 68t14 97.5t15.5 112
t16 112t14 97.5t10 68h-75zM185 543h-65l10 73h65zM86 74q-10 0 -7 29l42 289q4 29 15 29h1q11 0 7 -30l-41 -287q-3 -30 -15 -30h-2z" />
    <glyph glyph-name="uni0122" unicode="&#x122;" 
d="M76 -6q-20 0 -37.5 6t-30 19t-18.5 33.5t-2 48.5l70 497q4 28 15.5 48.5t28 33.5t36.5 19t40 6h19q19 0 37 -6t31 -19t19.5 -33.5t2.5 -48.5l-26 -180h-99l23 166q3 21 1 29.5t-10 8.5h-3q-8 0 -11.5 -8.5t-6.5 -30.5l-66 -467q-3 -21 -2 -30t9 -9h3q8 0 12 8t7 28v2h1v1
l11 84h-18l11 83h118l-11 -83h-1l-9 -61h1l-20 -139h-48l-7 23q-18 -14 -35.5 -21.5t-30.5 -7.5h-4zM110 -139l-38 -65h-40l23 65h-46l16 109h101z" />
    <glyph glyph-name="uni0123" unicode="&#x123;" horiz-adv-x="226" 
d="M176 495l-12 -22q-11 11 -23.5 18t-26.5 7h-3q-42 0 -58.5 -28t-23.5 -76l-41 -293q-7 -47 0.5 -75.5t48.5 -28.5h2q12 0 25 5.5t27 14.5l-11 -76q-4 -29 -15 -29h-3q-9 0 -6 29l4 30h-91l-4 -31q-7 -49 15.5 -77t63.5 -28h20q42 0 71.5 28.5t36.5 76.5q3 24 9.5 68
t14.5 97.5t16 112t15.5 112t14 97.5t9.5 68h-75zM86 74q-11 0 -7 29l42 289q3 29 14 29h1q12 0 8 -30l-41 -287q-5 -30 -16 -30h-1zM126 613l26 46h38l-17 -46h24l-11 -79h-71z" />
    <glyph glyph-name="Hcircumflex" unicode="&#x124;" 
d="M304 699l-100 -699h-100l45 312h-29l-45 -312h-99l99 699h100l-45 -313h30l44 313h100zM253 823l48 -86h-87l-14 38l-24 -38h-86l73 86h90z" />
    <glyph glyph-name="hcircumflex" unicode="&#x125;" horiz-adv-x="230" 
d="M142 421q-15 0 -18 -30l-69 -52q2 16 9.5 34.5t18 36.5t24 35t28.5 29l-10 -75l-1 -8l-56 -391h-92l99 699h93l-33 -225q14 11 27.5 17.5t26.5 6.5h3q21 0 32.5 -7.5t16.5 -21t4.5 -32.5t-3.5 -43l-57 -394h-92l56 392q4 29 -6 29h-1zM184 823l48 -86h-87l-13 37l-24 -37
h-87l73 86h90z" />
    <glyph glyph-name="LATIN CAPITAL LETTER H WITH STROKE" unicode="&#x126;" 
d="M51 530l24 169h100l-25 -169h30l24 169h100l-25 -169h19l-10 -67h-18l-66 -463h-100l45 312h-29l-45 -312h-99l65 463h-17l10 67h17zM160 386l11 77h-30l-11 -77h30z" />
    <glyph glyph-name="LATIN SMALL LETTER H WITH STROKE" unicode="&#x127;" horiz-adv-x="230" 
d="M142 421q-15 0 -18 -30l-70 -52q3 16 10.5 34.5t18 36.5t24 35t28.5 29l-10 -75l-1 -8l-56 -391h-92l82 581h-23l9 67h24l7 51h93l-8 -51h50l-9 -67h-50l-16 -107q14 11 27.5 17.5t26.5 6.5h3q21 0 32.5 -7.5t16.5 -21t4.5 -32.5t-3.5 -43l-57 -394h-92l56 392
q4 29 -6 29h-1z" />
    <glyph glyph-name="Itilde" unicode="&#x128;" horiz-adv-x="123" 
d="M75 699l-98 -699h99l99 699h-100zM42 776q15 24 30.5 33.5t28.5 9.5q18 0 32 -8.5t33 -8.5q6 0 12 3t15 11l40 -28q-17 -25 -32.5 -33.5t-29.5 -8.5q-19 0 -32.5 8t-28.5 8q-7 0 -14 -2t-17 -11z" />
    <glyph glyph-name="itilde" unicode="&#x129;" horiz-adv-x="112" 
d="M47 495l-70 -495h92l70 495h-92zM9 571q15 23 31 33t28 10q18 0 32.5 -8.5t32.5 -8.5q7 0 12.5 3t14.5 11l41 -28q-17 -25 -33 -33.5t-29 -8.5q-20 0 -33.5 8t-27.5 8q-8 0 -15 -2.5t-17 -10.5z" />
    <glyph glyph-name="Imacron" unicode="&#x12a;" horiz-adv-x="123" 
d="M174 699l-99 -699h-99l99 699h99zM207 748h-151l10 68h151z" />
    <glyph glyph-name="imacron" unicode="&#x12b;" horiz-adv-x="112" 
d="M139 495l-70 -495h-92l70 495h92zM175 543h-151l10 68h151z" />
    <glyph glyph-name="Ibreve" unicode="&#x12c;" horiz-adv-x="123" 
d="M75 699l-99 -699h98l100 699h-99zM124 821q-2 -8 3 -14t13 -6t14.5 6t8.5 14h59q-2 -15 -10.5 -29t-21 -24.5t-28 -17t-31.5 -6.5q-15 0 -27.5 6.5t-21.5 17t-13 24.5t-2 29h57z" />
    <glyph glyph-name="ibreve" unicode="&#x12d;" horiz-adv-x="112" 
d="M47 495l-70 -495h92l70 495h-92zM91 616q-1 -8 4 -14.5t13 -6.5t14.5 6.5t7.5 14.5h59q-2 -15 -10 -29.5t-20.5 -25t-28 -17t-31.5 -6.5q-15 0 -27.5 6.5t-21.5 17t-13.5 24.5t-2.5 30h57z" />
    <glyph glyph-name="Iogonek" unicode="&#x12e;" horiz-adv-x="123" 
d="M75 -70q-13 -20 -33 -28t-38 -5t-30 16t-9 35q4 29 35 52h-24l99 699h100l-100 -699h-5q-20 -5 -34 -18t-15 -24q-2 -11 6 -12.5t18 6.5z" />
    <glyph glyph-name="iogonek" unicode="&#x12f;" horiz-adv-x="112" 
d="M68 -70q-12 -20 -32 -28t-38 -5t-30 16t-9 35q6 30 35 52h-17l70 495h92l-70 -495h-5q-20 -5 -34.5 -18t-15.5 -24t7.5 -12.5t17.5 6.5zM157 627l-13 -100h-93l14 100h92z" />
    <glyph glyph-name="Idotaccent" unicode="&#x130;" horiz-adv-x="123" 
d="M75 699l-98 -699h99l99 699h-100zM163 747h-66l11 73h65z" />
    <glyph glyph-name="dotlessi" unicode="&#x131;" horiz-adv-x="112" 
d="M139 495l-71 -495h-91l70 495h92z" />
    <glyph glyph-name="IJ" unicode="&#x132;" horiz-adv-x="379" 
d="M174 699l-99 -699h-99l99 699h99zM205 -6q-19 0 -37 6t-31 19t-19.5 33.5t-2.5 48.5l25 180h100l-23 -165q-3 -21 -2 -30t9 -9h3q8 0 12.5 9t7.5 30l82 583h100l-85 -598q-4 -28 -16 -48.5t-28.5 -33.5t-36 -19t-39.5 -6h-19z" />
    <glyph glyph-name="ij" unicode="&#x133;" horiz-adv-x="259" 
d="M138 495l-70 -495h-92l70 495h92zM157 627l-14 -100h-92l13 100h93zM299 628l-14 -101h-92l14 101h92zM281 495l-79 -556q-4 -24 -13.5 -43t-26.5 -32.5t-42.5 -21t-61.5 -7.5l11 77q36 0 40 27l79 556h93z" />
    <glyph glyph-name="Jcircumflex" unicode="&#x134;" 
d="M76 -6q-19 0 -37 6t-31 19t-19 33.5t-2 48.5l25 180h99l-23 -165q-3 -21 -2 -30t9 -9h3q8 0 12.5 9t7.5 30l83 583h100l-86 -598q-4 -28 -16 -48.5t-28.5 -33.5t-36 -19t-39.5 -6h-19zM313 823l50 -86h-87l-14 38l-24 -38h-87l73 86h89z" />
    <glyph glyph-name="jcircumflex" unicode="&#x135;" horiz-adv-x="149" 
d="M172 495l-79 -556q-7 -48 -39.5 -76t-103.5 -28l12 77q17 0 27 6.5t12 20.5l79 556h92zM190 614l48 -86h-87l-13 37l-24 -37h-87l73 86h90z" />
    <glyph glyph-name="uni0136" unicode="&#x136;" horiz-adv-x="254" 
d="M196 361l18 -361h-92l-13 228h-2l-32 -228h-99l99 699h99l-35 -246h2l83 246h91zM126 -136l-38 -65h-41l24 65h-46l15 109h101z" />
    <glyph glyph-name="uni0137" unicode="&#x137;" horiz-adv-x="242" 
d="M160 258l44 -258h-93l-23 151l-21 -151h-91l99 699h92l-50 -348l68 144h88zM120 -128l-38 -65h-41l25 65h-47l15 109h102z" />
    <glyph glyph-name=".001" unicode="&#x138;" horiz-adv-x="242" 
d="M159 258l45 -258h-94l-22 151l-22 -151h-90l70 495h91l-21 -144l69 144h89z" />
    <glyph glyph-name="Lacute" unicode="&#x139;" horiz-adv-x="195" 
d="M175 699l-89 -625h81l-11 -74h-180l99 699h100zM101 737l46 86h87l-74 -86h-59z" />
    <glyph glyph-name="lacute" unicode="&#x13a;" horiz-adv-x="112" 
d="M70 699h92l-99 -699h-92zM93 737l46 86h87l-73 -86h-60z" />
    <glyph glyph-name="uni013B" unicode="&#x13b;" horiz-adv-x="195" 
d="M175 699l-89 -625h81l-11 -74h-180l99 699h100zM91 -139l-38 -65h-41l25 65h-46l15 109h101z" />
    <glyph glyph-name="lquotesinglbase" unicode="&#x13c;" horiz-adv-x="112" 
d="M75 699h93l-100 -699h-92zM53 -129l-38 -64h-40l25 64h-47l15 109h101z" />
    <glyph glyph-name="Lcaron" unicode="&#x13d;" horiz-adv-x="261" 
d="M75 699l-99 -699h180l11 74h-81l89 625h-100zM295 591l-38 -65h-41l25 65h-47l16 109h101z" />
    <glyph glyph-name="LATIN SMALL LETTER L WITH CARON" unicode="&#x13e;" horiz-adv-x="233" 
d="M75 699h93l-100 -699h-92zM271 590l-39 -65h-40l24 65h-47l16 109h101z" />
    <glyph glyph-name="Ldot" unicode="&#x13f;" horiz-adv-x="250" 
d="M175 699l-89 -625h81l-11 -74h-180l99 699h100zM236 231h-101l16 110h101z" />
    <glyph glyph-name="lperiodcentered" unicode="&#x140;" horiz-adv-x="236" 
d="M75 699h93l-100 -699h-92zM228 271h-101l16 110h101z" />
    <glyph glyph-name="Lslash" unicode="&#x141;" horiz-adv-x="268" 
d="M242 699l-35 -242l60 39l27 -59l-99 -64l-42 -299h81l-11 -74h-181l43 301l-40 -26l-27 59l79 51l45 314h100z" />
    <glyph glyph-name="lslash" unicode="&#x142;" 
d="M73 262l-33 -22l-27 59l72 48l51 352h92l-41 -286l60 40l27 -60l-99 -65l-47 -328h-92z" />
    <glyph glyph-name="Nacute" unicode="&#x143;" horiz-adv-x="286" 
d="M128 0l-13 388h-2l-55 -388h-83l99 699h111l8 -376h1l54 376h90l-100 -699h-110zM181 737l47 86h87l-74 -86h-60z" />
    <glyph glyph-name="nacute" unicode="&#x144;" horiz-adv-x="228" 
d="M141 421q-11 0 -16 -19l-1 -2l-1 -9l-56 -391h-92l71 495h92l-3 -20q13 11 26.5 17t26.5 6h3q21 0 32.5 -7.5t16.5 -21t4.5 -32.5t-3.5 -43l-57 -394h-92l56 392q4 29 -6 29h-1zM109 535l47 86h87l-74 -86h-60z" />
    <glyph glyph-name="uni0145" unicode="&#x145;" horiz-adv-x="286" 
d="M129 0l-14 388h-1l-56 -388h-82l99 699h111l8 -376h1l53 376h91l-100 -699h-110zM121 -136l-39 -65h-41l25 65h-47l16 109h101z" />
    <glyph glyph-name="uni0146" unicode="&#x146;" horiz-adv-x="228" 
d="M140 421q-11 0 -17 -23l-56 -398h-92l70 495h92l-3 -21q29 24 54 24h3q21 0 32.5 -7.5t16.5 -21t4.5 -32.5t-3.5 -43l-57 -394h-92l56 392q4 29 -6 29h-2zM113 -128l-38 -65h-41l24 65h-46l15 109h101z" />
    <glyph glyph-name="Ncaron" unicode="&#x147;" horiz-adv-x="286" 
d="M129 0l-14 388h-1l-56 -388h-82l99 699h111l8 -376h1l53 376h91l-100 -699h-110zM168 738l-49 86h87l13 -38l25 38h87l-74 -86h-89z" />
    <glyph glyph-name="ncaron" unicode="&#x148;" horiz-adv-x="228" 
d="M141 421q11 0 7 -29l-57 -392h92l57 394q7 47 -1 75.5t-49 28.5h-2q-25 0 -54 -24l3 21h-92l-70 -495h91l56 391l1 9v1q6 20 17 20h1zM110 535l-48 86h87l13 -38l24 38h87l-73 -86h-90z" />
    <glyph glyph-name="napostrophe" unicode="&#x149;" horiz-adv-x="338" 
d="M251 421q10 0 6 -29l-55 -392h92l56 394q3 24 3.5 43t-4.5 32.5t-16.5 21t-32.5 7.5h-2q-25 0 -54 -24l3 21h-93l-70 -495h92l56 391v4q5 26 18 26h1zM158 569l-37 -64h-41l24 64h-47l15 110h101z" />
    <glyph glyph-name="Eng" unicode="&#x14a;" horiz-adv-x="286" 
d="M239 5l-1 -5l-9 -61q-6 -48 -47.5 -76t-113.5 -28l11 77q37 0 40 27l9 61l-15 396h-2l-57 -396h-78l99 699h111l10 -384h1l55 384h86l-100 -694h1z" />
    <glyph glyph-name="eng" unicode="&#x14b;" horiz-adv-x="228" 
d="M140 421q-11 0 -17 -20v-1l-1 -9l-56 -391h-92l71 495h92l-3 -21q29 24 54 24h2q41 0 49 -28.5t1 -75.5l-57 -389h1l-9 -66q-7 -47 -40 -75.5t-104 -28.5l11 77q37 0 41 27l8 61l57 392q3 29 -7 29h-1z" />
    <glyph glyph-name="Omacron" unicode="&#x14c;" 
d="M76 -6q-19 0 -37 6t-31 19t-19 33.5t-2 48.5l70 497q4 28 16 48.5t28.5 33.5t36 19t39.5 6h20q19 0 37 -6t31 -19t19 -33.5t2 -48.5l-71 -497q-4 -28 -16 -48.5t-28.5 -33.5t-36.5 -19t-39 -6h-19zM173 622q-8 0 -11.5 -9.5t-6.5 -29.5l-67 -467q-3 -21 -1.5 -30t9.5 -9
h3q8 0 12 9t7 30l67 467q6 39 -9 39h-3zM269 747h-151l9 68h151z" />
    <glyph glyph-name="omacron" unicode="&#x14d;" horiz-adv-x="225" 
d="M66 -3q-42 0 -63.5 28t-13.5 76l41 293q7 48 36.5 76t71.5 28h19q42 0 64.5 -28t16.5 -76l-42 -293q-8 -48 -38.5 -76t-72.5 -28h-19zM137 421q-12 0 -16 -29l-41 -289q-4 -29 7 -29h2q11 0 15 29l41 289q4 29 -6 29h-2zM230 545h-151l10 68h151z" />
    <glyph glyph-name="Obreve" unicode="&#x14e;" 
d="M76 -6q-19 0 -37 6t-31 19t-19 33.5t-2 48.5l70 497q4 28 16 48.5t28.5 33.5t36.5 19t40 6h19q19 0 37 -6t30.5 -19t19 -33.5t2.5 -48.5l-71 -497q-4 -28 -16 -48.5t-28.5 -33.5t-36.5 -19t-39 -6h-19zM173 622q-14 0 -18 -39l-67 -467q-3 -21 -1.5 -30t9.5 -9h3
q8 0 12 9t7 30l67 467q2 20 0.5 29.5t-9.5 9.5h-3zM184 820q-1 -8 4 -14.5t13 -6.5t15 6.5t8 14.5h59q-2 -15 -10.5 -29.5t-21 -25t-28 -17t-31.5 -6.5q-15 0 -27.5 6.5t-21.5 17t-13.5 24.5t-2.5 30h57z" />
    <glyph glyph-name="obreve" unicode="&#x14f;" horiz-adv-x="225" 
d="M67 -3q-42 0 -63.5 28t-14.5 76l41 293q7 48 37 76t72 28h19q42 0 64.5 -28t15.5 -76l-42 -293q-7 -48 -37.5 -76t-72.5 -28h-19zM137 421q-11 0 -15 -29l-41 -289q-4 -29 7 -29h2q6 0 9 6.5t6 22.5l40 289q4 29 -6 29h-2zM147 618q-2 -8 3 -14.5t13 -6.5t14.5 6.5
t8.5 14.5h59q-2 -16 -10.5 -30t-21 -24.5t-28 -17t-31.5 -6.5q-15 0 -27.5 6.5t-21.5 17t-13 24.5t-2 30h57z" />
    <glyph glyph-name="Ohungarumlaut" unicode="&#x150;" 
d="M76 -6q-19 0 -37 6t-31 19t-19 33.5t-2 48.5l70 497q4 28 16 48.5t28.5 33.5t36.5 19t40 6h19q19 0 37 -6t30.5 -19t19 -33.5t2.5 -48.5l-71 -497q-4 -28 -16 -48.5t-28.5 -33.5t-36.5 -19t-39 -6h-19zM173 622q-13 0 -19 -39l-66 -467q-3 -21 -1.5 -30t9.5 -9h3
q8 0 12 9t7 30l66 467q6 39 -8 39h-3zM210 736l46 86h87l-73 -86h-60zM108 736l46 86h87l-73 -86h-60z" />
    <glyph glyph-name="ohungarumlaut" unicode="&#x151;" horiz-adv-x="225" 
d="M67 -3q-42 0 -63.5 28t-14.5 76l41 293q7 48 37 76t72 28h19q42 0 64.5 -28t15.5 -76l-42 -293q-7 -48 -37.5 -76t-72.5 -28h-19zM137 421q-11 0 -15 -29l-41 -289q-4 -29 7 -29h2q6 0 9 6.5t6 22.5l40 289q4 29 -6 29h-2zM172 534l47 86h87l-74 -86h-60zM70 534l47 86
h87l-74 -86h-60z" />
    <glyph glyph-name="OE" unicode="&#x152;" horiz-adv-x="354" 
d="M79 -6q-20 0 -37.5 6t-30 19t-18.5 33.5t-2 48.5l69 497q4 28 16.5 48.5t29 33.5t36 19t39.5 6h19h8h190l-13 -89h-95v-9t-1 -9l-30 -212h77l-11 -74h-77l-29 -211q-2 -11 -4 -18h102l-13 -89h-198h-8h-19zM177 622q-15 0 -19 -39l-67 -467q-3 -21 -1.5 -30t9.5 -9h3
q8 0 12 9t7 30l67 467q2 20 1 29.5t-9 9.5h-3z" />
    <glyph glyph-name="oe" unicode="&#x153;" horiz-adv-x="341" 
d="M68 -3q-42 0 -63.5 28t-14.5 76l40 293q7 48 37 76t72 28h19q25 0 46 -13q22 13 51 13h19q41 0 64 -28t16 -76l-24 -170h-116l-17 -123l-2 -10q-1 -17 8 -17h3q10 0 14 29l15 103h92l-14 -104q-8 -49 -38.5 -77t-72.5 -28h-19q-28 0 -46 12q-23 -12 -50 -12h-19zM138 421
q-12 0 -15 -29l-42 -289q-4 -29 7 -29h2q11 0 15 29l20 144l21 146v4q3 24 -6 24h-2zM247 287l15 105q2 15 1 22t-7 7h-2q-12 0 -16 -29l-15 -105h24z" />
    <glyph glyph-name="Racute" unicode="&#x154;" horiz-adv-x="259" 
d="M264 417q-5 -32 -16.5 -47.5t-27.5 -20.5q14 -4 22 -19.5t3 -47.5l-21 -145q-5 -39 -7 -65t-2 -41.5t1 -22.5t2 -8h-99q-6 12 -4 44.5t10 92.5l19 136q3 20 2 29.5t-10 9.5h-16l-45 -312h-99l99 699h125q45 0 70.5 -28t18.5 -78zM147 386q14 0 18 37l23 155q6 38 -10 38
h-15l-33 -230h17zM154 737l47 86h87l-74 -86h-60z" />
    <glyph glyph-name="racute" unicode="&#x155;" horiz-adv-x="228" 
d="M140 421q-11 0 -17 -20v-1l-1 -9l-56 -391h-91l70 495h92l-3 -21q29 24 54 24h2q23 0 35 -9t16 -26q5 -29 -1 -69l-15 -103h-92l15 101q4 29 -7 29h-1zM117 535l46 86h87l-74 -86h-59z" />
    <glyph glyph-name="uni0156" unicode="&#x156;" horiz-adv-x="259" 
d="M264 417q-5 -32 -17 -47.5t-28 -20.5q14 -4 22 -19.5t4 -47.5l-21 -145q-6 -39 -7.5 -65t-1.5 -41.5t1 -22.5t2 -8h-99q-6 12 -4.5 44.5t10.5 92.5l19 136q3 20 2 29.5t-10 9.5h-16l-45 -312h-99l99 699h125q45 0 70.5 -28t18.5 -78zM147 386q8 0 11.5 9t6.5 28l23 155
q2 20 0.5 29t-10.5 9h-15l-33 -230h17zM124 -139l-38 -65h-41l25 65h-47l15 109h101z" />
    <glyph glyph-name="uni0157" unicode="&#x157;" horiz-adv-x="228" 
d="M140 421q-11 0 -17 -23l-56 -398h-92l70 495h92l-3 -21q29 24 54 24h3q23 0 35 -9t16 -26q2 -14 1.5 -31.5t-2.5 -37.5l-15 -103h-93l15 101q4 29 -7 29h-1zM119 -139l-38 -65h-41l24 65h-47l16 109h101z" />
    <glyph glyph-name="Rcaron" unicode="&#x158;" horiz-adv-x="259" 
d="M289 593q7 50 -18.5 78t-70.5 28h-125l-99 -699h99l45 312h16q9 0 10 -9.5t-2 -29.5l-19 -136q-8 -60 -10 -92.5t4 -44.5h99q-1 1 -2 8t-1 22.5t2 41.5t7 65l21 145q5 32 -3 47.5t-22 19.5q16 5 27.5 20.5t16.5 47.5zM140 738l-48 86h86l13 -38l25 38h87l-73 -86h-90z
M130 386l33 230h15q16 0 10 -38l-23 -155q-4 -37 -18 -37h-17z" />
    <glyph glyph-name="rcaron" unicode="&#x159;" horiz-adv-x="228" 
d="M141 421q11 0 7 -29l-15 -101h92l15 103q6 40 1 69q-4 17 -16 26t-35 9h-2q-25 0 -54 -24l3 21h-92l-70 -495h91l56 391l1 9v1q6 20 17 20h1zM102 535l-48 86h87l13 -38l24 38h87l-73 -86h-90z" />
    <glyph glyph-name="Sacute" unicode="&#x15a;" 
d="M166 418l23 166q3 21 1.5 29.5t-9.5 8.5h-3q-8 0 -11.5 -8.5t-7.5 -30.5l-11 -74q-5 -34 1 -60t17.5 -48.5t25.5 -42.5t25 -42.5t17 -49t1 -60.5l-15 -105q-4 -28 -15.5 -48.5t-28 -33.5t-36.5 -19t-40 -6h-17q-20 0 -38 6t-31 19t-19.5 33.5t-2.5 48.5l25 181h90
l-23 -166q-3 -21 0 -30t13 -9h2q9 0 15 9t9 30l10 75q5 34 -1 60t-17 48t-25 42t-25.5 42.5t-17.5 48.5t-1 61l16 105q4 28 16 48.5t28.5 33.5t36 19t39.5 6h11q19 0 37 -6t30.5 -19t19 -33.5t2.5 -48.5l-26 -180h-90zM165 738l45 86h87l-72 -86h-60z" />
    <glyph glyph-name="sacute" unicode="&#x15b;" horiz-adv-x="225" 
d="M132 300l13 92q2 12 1 20.5t-8 8.5h-1q-6 0 -9.5 -8.5t-5.5 -20.5l-6 -39q-3 -21 3.5 -37t17 -30t24 -27.5t24 -29t16.5 -35.5t2 -46l-7 -47q-7 -48 -38 -76t-73 -28h-16q-43 0 -65 28t-15 76l13 94h82l-12 -92q-5 -29 11 -29h2q10 0 13.5 7.5t6.5 21.5l5 39q4 31 -11 52
t-33.5 41.5t-33 46t-9.5 65.5l7 48q7 46 36.5 74.5t72.5 28.5h9q42 0 65 -28t15 -75l-13 -95h-83zM118 535l47 86h87l-74 -86h-60z" />
    <glyph glyph-name="Scircumflex" unicode="&#x15c;" 
d="M166 418l23 166q3 21 1.5 29.5t-9.5 8.5h-3q-8 0 -12 -8.5t-7 -30.5l-11 -74q-5 -34 1 -60t17.5 -48.5t25.5 -42.5t25 -42.5t17 -49t1 -60.5l-15 -105q-4 -28 -15.5 -48.5t-28 -33.5t-36.5 -19t-40 -6h-17q-20 0 -38 6t-31 19t-19.5 33.5t-2.5 48.5l25 181h90l-23 -166
q-3 -21 0 -30t13 -9h2q9 0 15 9t9 30l10 75q5 34 -1 60t-17 48t-25 42t-25.5 42.5t-17.5 48.5t-1 61l16 105q4 28 16 48.5t28.5 33.5t36 19t39.5 6h10q20 0 38 -6t30.5 -19t19 -33.5t2.5 -48.5l-26 -180h-90zM253 824l49 -86h-87l-14 38l-24 -38h-87l73 86h90z" />
    <glyph glyph-name="scircumflex" unicode="&#x15d;" horiz-adv-x="225" 
d="M132 300l13 92q2 12 1 20.5t-8 8.5h-1q-6 0 -9.5 -8.5t-5.5 -20.5l-6 -39q-3 -21 3.5 -37t17 -30t24 -27.5t24 -29t16.5 -35.5t2 -46l-7 -47q-7 -48 -38 -76t-73 -28h-16q-43 0 -65 28t-15 76l13 94h82l-12 -92q-5 -29 11 -29h2q10 0 13.5 7.5t6.5 21.5l5 39q4 31 -11 52
t-33.5 41.5t-33 46t-9.5 65.5l7 48q7 46 36.5 74.5t72.5 28.5h9q42 0 65 -28t15 -75l-13 -95h-83zM207 621l49 -86h-87l-14 38l-24 -38h-87l74 86h89z" />
    <glyph glyph-name="Scedilla" unicode="&#x15e;" 
d="M26 -68q9 -6 20 -8.5t21 -1t16.5 6.5t6.5 13q-1 10 -12 12t-22 -6l-19 8l26 40q-17 2 -31.5 9.5t-24.5 20.5t-14.5 31.5t-0.5 43.5l24 181h91l-24 -166q-3 -21 0.5 -30t13.5 -9h2q9 0 14.5 9t8.5 30l10 75q5 34 -0.5 60t-17 48t-25 42t-25 42.5t-17.5 48.5t-1 61l15 105
q4 28 16 48.5t29 33.5t36.5 19t39.5 6h10q20 0 38 -6t30.5 -19t18.5 -33.5t2 -48.5l-26 -180h-90l24 166q3 21 1 29.5t-10 8.5h-3q-8 0 -11.5 -8.5t-6.5 -30.5l-11 -74q-5 -34 1 -60t17.5 -48.5t25 -42.5t25 -42.5t17 -49t0.5 -60.5l-14 -105q-8 -51 -37.5 -75.5
t-65.5 -29.5l-10 -23q20 9 36 1t13 -30q-4 -29 -23.5 -45.5t-43 -22t-46 -2t-32.5 13.5z" />
    <glyph glyph-name="scedilla" unicode="&#x15f;" horiz-adv-x="225" 
d="M12 -66q8 -6 19.5 -8.5t21 -1.5t16.5 6t6 14t-12 11t-22 -5l-18 7l28 42q-35 5 -51.5 32.5t-10.5 69.5l12 94h83l-13 -92q-2 -14 0 -21.5t11 -7.5h2q10 0 14 7.5t6 21.5l6 39q3 21 -3.5 36.5t-17.5 29.5t-24 27.5t-23.5 29.5t-16.5 35.5t-2 46.5l7 48q6 46 36 74.5
t73 28.5h9q42 0 64.5 -28t15.5 -75l-13 -95h-83l13 92q2 12 1 20.5t-8 8.5h-2q-5 0 -8.5 -8.5t-5.5 -20.5l-6 -39q-3 -21 3.5 -37t17 -30t24 -27.5t24 -29t16.5 -35.5t2 -46l-7 -47q-6 -42 -31 -69t-60 -33l-13 -25q21 9 37 1t13 -30q-4 -29 -23.5 -45.5t-43 -22t-46.5 -2
t-33 13.5z" />
    <glyph glyph-name="Scaron" unicode="&#x160;" 
d="M255 418l26 180q4 28 -2 48.5t-19 33.5t-31 19t-37 6h-10q-20 0 -39.5 -6t-36.5 -19t-29 -33.5t-16 -48.5l-15 -105q-5 -35 1 -61t17 -48.5t25 -42.5t25.5 -42t17.5 -48t1 -60l-11 -75q-3 -21 -9 -30t-15 -9h-2q-9 0 -12.5 9t-0.5 30l23 166h-90l-25 -181
q-4 -28 2.5 -48.5t20 -33.5t31.5 -19t38 -6h16q20 0 40 6t36.5 19t28 33.5t15.5 48.5l15 105q5 34 -1 60.5t-17 49t-25 42.5t-25.5 42.5t-17.5 48.5t-1 60l11 74q4 22 8 30.5t12 8.5h2q8 0 9.5 -8.5t-1.5 -29.5l-23 -166h90zM150 738l-50 86h87l14 -38l24 38h87l-73 -86h-89
z" />
    <glyph glyph-name="scaron" unicode="&#x161;" horiz-adv-x="225" 
d="M215 300l14 95q7 47 -15.5 75t-65.5 28h-9q-42 0 -72 -28.5t-37 -74.5l-7 -48q-5 -40 9.5 -65.5t33 -46t33.5 -41.5t11 -52l-5 -39q-2 -14 -6 -21.5t-14 -7.5h-2q-16 0 -11 29l13 92h-83l-13 -94q-7 -48 15 -76t65 -28h16q43 0 73.5 28t37.5 76l7 47q4 26 -2 46
t-16.5 35.5t-24 29t-24 27.5t-17 30t-3.5 37l6 39q2 12 5.5 20.5t9.5 8.5h1q7 0 8 -8.5t-1 -20.5l-13 -92h83zM104 535l-48 86h87l13 -38l24 38h87l-73 -86h-90z" />
    <glyph glyph-name="Tcedilla" unicode="&#x162;" horiz-adv-x="244" 
d="M265 616h-70l-88 -616h-99l88 616h-70l12 83h239zM-24 -108l15 45q9 -6 20 -8.5t21 -1.5t17 6t6 14t-12.5 11t-22.5 -5l-17 7l27 40h54l-12 -23q20 9 36.5 1t12.5 -30q-4 -29 -23.5 -45.5t-43 -22t-46 -2t-32.5 13.5z" />
    <glyph glyph-name="tcedilla" unicode="&#x163;" horiz-adv-x="166" 
d="M180 657l-23 -162h37l-11 -77h-37l-45 -317q-2 -17 6.5 -25.5t25.5 -2.5l-10 -73q-5 0 -8 -1l-10 -20q20 9 36 1t13 -30q-4 -29 -23.5 -45.5t-43 -22t-46 -2t-32.5 13.5l16 44q8 -6 19 -8.5t21 -1t16.5 6.5t6.5 13q-1 10 -12 11.5t-22 -5.5l-19 8l27 38q-36 9 -47 37.5
t-6 63.5l45 317h-23l12 77h22l22 153z" />
    <glyph glyph-name="Tcaron" unicode="&#x164;" horiz-adv-x="244" 
d="M277 699h-239l-12 -83h70l-88 -616h99l88 616h70zM118 738l-49 86h87l13 -38l25 38h87l-74 -86h-89z" />
    <glyph glyph-name="tcaron" unicode="&#x165;" horiz-adv-x="292" 
d="M180 657l-24 -162h37l-11 -77h-37l-45 -317q-2 -17 6.5 -25.5t26.5 -2.5l-10 -73q-37 -6 -61 0.5t-36.5 21t-16 35t-0.5 44.5l44 317h-22l11 77h22l22 153zM307 548l-38 -65h-41l24 65h-47l16 109h101z" />
    <glyph glyph-name="_0144" unicode="&#x166;" horiz-adv-x="244" 
d="M209 313h-34l-44 -313h-99l44 313h-33l10 67h32l34 236h-70l13 83h239l-12 -83h-70l-34 -236h33z" />
    <glyph glyph-name="tbar" unicode="&#x167;" horiz-adv-x="166" 
d="M180 657l-24 -162h37l-11 -77h-37l-7 -53h37l-11 -77h-37l-27 -187q-2 -17 6.5 -25.5t26.5 -2.5l-10 -73q-37 -6 -61 0.5t-36.5 21t-16 35t-0.5 44.5l26 187h-23l12 77h22l8 53h-23l11 77h22l22 153z" />
    <glyph glyph-name="Utilde" unicode="&#x168;" 
d="M79 -6q-19 0 -37 6t-30.5 19t-18.5 33.5t-2 48.5l84 598h99l-83 -583q-3 -21 -1.5 -30t9.5 -9h3q8 0 12 9t7 30l83 583h100l-85 -598q-4 -28 -16 -48.5t-28.5 -33.5t-36.5 -19t-40 -6h-19zM97 775q14 23 30 33t28 10q18 0 32 -8.5t33 -8.5q6 0 12 3t16 11l40 -28
q-17 -25 -32.5 -33.5t-29.5 -8.5q-20 0 -33 8t-28 8q-7 0 -14.5 -2.5t-17.5 -10.5z" />
    <glyph glyph-name="utilde" unicode="&#x169;" horiz-adv-x="228" 
d="M85 74q-10 0 -6 29l56 392h-92l-55 -394q-8 -47 -0.5 -75.5t48.5 -28.5h2q25 0 55 24l-3 -21h92l70 495h-92l-57 -399q-4 -22 -16 -22h-2zM64 571q15 23 31 33t29 10q18 0 32 -8.5t32 -8.5q6 0 12 3t15 11l41 -28q-17 -25 -33 -33.5t-30 -8.5q-19 0 -32 8t-28 8
q-7 0 -14.5 -2.5t-17.5 -10.5z" />
    <glyph glyph-name="Umacron" unicode="&#x16a;" 
d="M79 -6q-19 0 -37 6t-30.5 19t-18.5 33.5t-2 48.5l84 598h99l-83 -583q-3 -21 -1.5 -30t9.5 -9h3q8 0 12 9t7 30l83 583h100l-85 -598q-4 -28 -16 -48.5t-28.5 -33.5t-36.5 -19t-40 -6h-19zM262 747h-150l9 68h151z" />
    <glyph glyph-name="umacron" unicode="&#x16b;" horiz-adv-x="228" 
d="M86 74q13 0 17 26l1 3v1l56 391h92l-71 -495h-92l3 20q-14 -11 -27.5 -17t-26.5 -6h-2q-41 0 -48.5 28.5t-0.5 75.5l56 394h92l-56 -392q-4 -29 6 -29h1zM229 543h-151l10 68h151z" />
    <glyph glyph-name="Ubreve" unicode="&#x16c;" 
d="M79 -6q-19 0 -37 6t-31 19t-19 33.5t-2 48.5l85 598h99l-83 -583q-3 -21 -1.5 -30t9.5 -9h3q8 0 12 9t7 30l83 583h100l-86 -598q-4 -28 -16 -48.5t-28.5 -33.5t-36 -19t-39.5 -6h-19zM178 820q-1 -8 3.5 -14.5t13.5 -6.5q8 0 14.5 6.5t7.5 14.5h59q-2 -15 -10.5 -29.5
t-20.5 -25t-27.5 -17t-31.5 -6.5q-30 0 -50 23t-15 55h57z" />
    <glyph glyph-name="ubreve" unicode="&#x16d;" horiz-adv-x="228" 
d="M85 74q-10 0 -6 29l56 392h-92l-55 -394q-8 -47 -0.5 -75.5t48.5 -28.5h2q25 0 55 24l-3 -21h92l70 495h-92l-57 -399q-4 -22 -16 -22h-2zM147 616q-2 -8 3 -14.5t13 -6.5t14.5 6.5t8.5 14.5h59q-2 -15 -10.5 -29.5t-21 -25t-28 -17t-31.5 -6.5q-15 0 -27.5 6.5t-21.5 17
t-13 24.5t-2 30h57z" />
    <glyph glyph-name="Uring" unicode="&#x16e;" 
d="M78 -6q-19 0 -36.5 6t-30.5 19t-19 33.5t-2 48.5l84 598h100l-84 -583q-3 -21 -1 -30t10 -9h3q8 0 11.5 9t6.5 30l84 583h99l-85 -598q-4 -28 -16 -48.5t-28.5 -33.5t-36.5 -19t-40 -6h-19zM183 725q-26 0 -45 20.5t-15 47.5q4 29 28 50.5t51 21.5q28 0 47 -21.5
t15 -50.5q-2 -14 -9.5 -26t-18.5 -21.5t-24.5 -15t-28.5 -5.5zM195 814q-7 0 -14 -6t-8 -14q-1 -7 4 -13.5t12 -6.5q8 0 15 6.5t8 13.5q1 8 -4 14t-13 6z" />
    <glyph glyph-name="uring" unicode="&#x16f;" horiz-adv-x="228" 
d="M85 74q-10 0 -6 29l56 392h-92l-55 -394q-8 -47 0 -75.5t49 -28.5h2q13 0 26.5 6t27.5 17l-3 -20h92l70 495h-92l-55 -391q-5 -30 -18 -30h-2zM151 521q-13 0 -24.5 5.5t-19.5 15t-12.5 21.5t-2.5 26q2 15 9.5 28t18.5 22.5t24 15.5t26 6q29 0 48 -21.5t15 -50.5
q-4 -27 -28 -47.5t-54 -20.5zM164 610q-7 0 -14 -6t-8 -14q-2 -7 3.5 -13.5t13.5 -6.5t14.5 6.5t8.5 13.5q1 8 -4.5 14t-13.5 6z" />
    <glyph glyph-name="Uhungarumlaut" unicode="&#x170;" 
d="M79 -6q-19 0 -37 6t-31 19t-19 33.5t-2 48.5l85 598h99l-83 -583q-3 -21 -1.5 -30t9.5 -9h3q8 0 12 9t7 30l83 583h100l-86 -598q-4 -28 -16 -48.5t-28.5 -33.5t-36 -19t-39.5 -6h-19zM93 736l47 86h87l-74 -86h-60zM195 736l47 86h87l-74 -86h-60z" />
    <glyph glyph-name="uhungarumlaut" unicode="&#x171;" horiz-adv-x="228" 
d="M87 74q12 0 16 22l57 399h92l-70 -495h-92l3 21q-30 -24 -55 -24h-2q-41 0 -48.5 28.5t-0.5 75.5l56 394h92l-56 -392q-4 -29 6 -29h2zM70 532l47 86h87l-74 -86h-60zM172 532l47 86h87l-74 -86h-60z" />
    <glyph glyph-name="Uogonek" unicode="&#x172;" 
d="M138 -76q-12 -20 -32 -28t-38.5 -5t-30.5 16t-9 35q5 30 35 53q-17 2 -31.5 9.5t-25 20.5t-15 32t-0.5 44l84 598h99l-82 -583q-3 -21 -2 -30t9 -9h3q8 0 12.5 9t7.5 30l82 583h100l-85 -598q-7 -43 -29.5 -67.5t-51.5 -33.5q-20 -8 -36.5 -22.5t-17.5 -25.5t7.5 -12.5
t17.5 6.5z" />
    <glyph glyph-name="uogonek" unicode="&#x173;" horiz-adv-x="228" 
d="M87 74q6 0 11 7.5t7 22.5l56 391h92l-71 -495h2q-20 -5 -34 -18t-15 -24t7 -12.5t18 6.5l29 -22q-13 -20 -33 -28t-38 -5t-30 16t-9 35q4 29 34 52h-23l3 20q-14 -11 -27.5 -17t-26.5 -6h-2q-41 0 -48.5 28.5t-0.5 75.5l55 394h93l-57 -392q-4 -29 6 -29h2z" />
    <glyph glyph-name="Wcircumflex" unicode="&#x174;" horiz-adv-x="380" 
d="M15 0l48 699h95l-27 -350h3l79 350h78l-17 -350h3l73 350h87l-152 -699h-96l8 299h-1l-74 -299h-107zM313 823l48 -86h-87l-13 37l-24 -37h-87l73 86h90z" />
    <glyph glyph-name="wcircumflex" unicode="&#x175;" horiz-adv-x="358" 
d="M16 0l20 495h86l-14 -247h3l65 247h79l-4 -247h2l59 247h78l-123 -495h-100l12 289h-3l-62 -289h-98zM279 619l48 -86h-87l-14 38l-24 -38h-87l74 86h90z" />
    <glyph glyph-name="Ycircumflex" unicode="&#x176;" horiz-adv-x="257" 
d="M164 250l-37 -250h-99l35 250l-12 449h99l-6 -224h3l57 224h100zM241 823l48 -86h-87l-14 38l-24 -38h-87l74 86h90z" />
    <glyph glyph-name="ycircumflex" unicode="&#x177;" horiz-adv-x="212" 
d="M170 495h75l-154 -660h-89l42 165l-7 495h83l-10 -243h4zM209 619l49 -86h-87l-14 37l-24 -37h-87l74 86h89z" />
    <glyph glyph-name="Ydieresis" unicode="&#x178;" horiz-adv-x="257" 
d="M316 699h-99l-57 -224h-4l7 224h-100l13 -449l-35 -250h99l37 250zM179 744h-65l11 74h65zM279 744h-65l10 74h66z" />
    <glyph glyph-name="Zacute" unicode="&#x179;" horiz-adv-x="240" 
d="M190 0h-228l11 74l196 551h-99l11 74h198l-10 -74l-197 -551h128zM150 738l47 86h87l-74 -86h-60z" />
    <glyph glyph-name="zacute" unicode="&#x17a;" horiz-adv-x="211" 
d="M171 0h-204l11 75l165 346h-106l11 74h196l-11 -73l-166 -347h115zM120 535l46 86h87l-73 -86h-60z" />
    <glyph glyph-name="Zdotaccent" unicode="&#x17b;" horiz-adv-x="240" 
d="M191 0h-228l11 74l195 551h-99l11 74h198l-10 -74l-197 -551h129zM214 746h-66l10 73h65z" />
    <glyph glyph-name="zdotaccent" unicode="&#x17c;" horiz-adv-x="211" 
d="M172 0h-204l11 75l164 346h-106l11 74h196l-11 -73l-165 -347h115zM182 543h-65l11 73h65z" />
    <glyph glyph-name="Zcaron" unicode="&#x17d;" horiz-adv-x="240" 
d="M200 0h-228l11 74l196 551h-99l11 74h198l-11 -74l-197 -551h129zM145 738l-48 86h87l13 -38l25 38h87l-74 -86h-90z" />
    <glyph glyph-name="zcaron" unicode="&#x17e;" horiz-adv-x="211" 
d="M169 0h-204l11 75l164 346h-105l10 74h196l-10 -73l-166 -347h115zM103 535l-48 86h87l13 -38l24 38h87l-73 -86h-90z" />
    <glyph glyph-name="longs" unicode="&#x17f;" horiz-adv-x="189" 
d="M44 495h22l15 107q3 24 15.5 45.5t33.5 36t51 20t68 -3.5l-10 -73q-7 0 -17.5 -0.5t-21 -3.5t-18.5 -9.5t-9 -18.5l-86 -595h-91l59 418h-23z" />
    <glyph glyph-name="florin" unicode="&#x192;" horiz-adv-x="240" 
d="M47 495h59l1 4l15 103q3 24 15.5 45.5t33.5 36t50.5 20t68.5 -3.5l-11 -73q-6 0 -16.5 -0.5t-21 -3.5t-18.5 -9.5t-10 -18.5l-15 -100h61l-11 -77h-61l-59 -418h-1l-9 -68q-3 -24 -15 -45.5t-33 -36t-51 -20t-68 3.5l11 73q6 0 16.5 0.5t20.5 3.5t18 9.5t10 18.5l68 479
h-60z" />
    <glyph glyph-name="circumflex" unicode="&#x2c6;" horiz-adv-x="236" 
d="M220 667l49 -86h-86l-14 38l-24 -38h-87l73 86h89z" />
    <glyph glyph-name="caron" unicode="&#x2c7;" horiz-adv-x="256" 
d="M77 581l-50 86h87l14 -38l24 38h87l-73 -86h-89z" />
    <glyph glyph-name="breve" unicode="&#x2d8;" horiz-adv-x="199" 
d="M84 663q-2 -8 3 -14t14 -6q8 0 14.5 6t8.5 14h58q-2 -15 -10.5 -29t-20.5 -24.5t-27.5 -17t-31.5 -6.5q-15 0 -28 6.5t-22 17t-13 24.5t-2 29h57z" />
    <glyph glyph-name="dotaccent" unicode="&#x2d9;" horiz-adv-x="109" 
d="M82 589h-65l9 73h66z" />
    <glyph glyph-name="ring" unicode="&#x2da;" horiz-adv-x="185" 
d="M81 550q-13 0 -25 5.5t-20 15.5t-12.5 22t-2.5 26t9.5 27t18.5 23t24 16t27 6q29 0 48 -21.5t14 -50.5q-4 -27 -27.5 -48t-53.5 -21zM94 639q-8 0 -14.5 -6t-8.5 -14q-1 -7 4.5 -13t12.5 -6q8 0 14.5 6t7.5 13q2 8 -3 14t-13 6z" />
    <glyph glyph-name="ogonek" unicode="&#x2db;" horiz-adv-x="157" 
d="M133 -70q-13 -20 -33 -28t-38 -5t-30 16t-9 35q4 30 34 52h71q-20 -5 -34 -18t-15 -24q-2 -11 7 -12.5t18 6.5z" />
    <glyph glyph-name="tilde" unicode="&#x2dc;" horiz-adv-x="234" 
d="M75 619q15 23 31 32.5t29 9.5q18 0 32 -8t32 -8q6 0 12.5 3t14.5 11l40 -29q-17 -25 -32.5 -33.5t-29.5 -8.5q-19 0 -32 8t-28 8q-7 0 -14 -2t-17 -11z" />
    <glyph glyph-name="hungarumlaut" unicode="&#x2dd;" horiz-adv-x="267" 
d="M118 579l45 86h87l-72 -86h-60zM16 579l45 86h87l-72 -86h-60z" />
    <glyph glyph-name="endash" unicode="&#x2013;" horiz-adv-x="326" 
d="M324 316h-302l9 67h302z" />
    <glyph glyph-name="emdash" unicode="&#x2014;" horiz-adv-x="465" 
d="M464 316h-442l9 67h442z" />
    <glyph glyph-name="quoteleft" unicode="&#x2018;" horiz-adv-x="147" 
d="M76 620l38 65h41l-25 -65h47l-15 -109h-101z" />
    <glyph glyph-name="quoteright" unicode="&#x2019;" horiz-adv-x="147" 
d="M173 569l-38 -64h-41l24 64h-47l16 110h101z" />
    <glyph glyph-name="quotesinglbase" unicode="&#x201a;" horiz-adv-x="147" 
d="M91 0l-38 -65h-41l24 65h-47l16 109h101z" />
    <glyph glyph-name="quotedblleft" unicode="&#x201c;" horiz-adv-x="289" 
d="M77 620l38 65h41l-25 -65h47l-15 -109h-102zM219 620l38 65h41l-25 -65h47l-15 -109h-101z" />
    <glyph glyph-name="quotedblright" unicode="&#x201d;" horiz-adv-x="289" 
d="M175 590l-39 -65h-40l24 65h-47l16 109h101zM317 590l-38 -65h-41l24 65h-46l15 109h101z" />
    <glyph glyph-name="quotedblbase" unicode="&#x201e;" horiz-adv-x="289" 
d="M90 0l-38 -65h-41l24 65h-46l15 109h101zM232 0l-38 -65h-41l25 65h-47l15 109h101z" />
    <glyph glyph-name="dagger" unicode="&#x2020;" horiz-adv-x="216" 
d="M218 699l-38 -264h50l-10 -77h-51l-74 -523h-92l74 523h-50l11 77h50l38 264h92z" />
    <glyph glyph-name="daggerdbl" unicode="&#x2021;" horiz-adv-x="216" 
d="M218 699l-38 -264h50l-10 -77h-51l-26 -182h50l-10 -77h-51l-37 -264h-92l37 264h-49l11 77h49l26 182h-50l11 77h50l38 264h92z" />
    <glyph glyph-name="bullet" unicode="&#x2022;" horiz-adv-x="139" 
d="M61 191q-26 0 -39 18t-11 39q5 28 25.5 43t40.5 15q29 0 41 -19t9 -39q-4 -28 -25 -42.5t-41 -14.5z" />
    <glyph glyph-name="ellipsis" unicode="&#x2026;" horiz-adv-x="430" 
d="M88 0h-101l16 109h102zM231 0h-102l17 109h101zM373 0h-101l16 109h101z" />
    <glyph glyph-name="perthousand" unicode="&#x2030;" horiz-adv-x="654" 
d="M368 699l-323 -699h70l324 699h-71zM94 302q-34 0 -52 22.5t-13 61.5l34 234q5 39 30 62t59 23h16q35 0 53 -23t13 -62l-34 -234q-5 -39 -30 -61.5t-59 -22.5h-17zM151 643q-11 0 -14 -26l-33 -228q-3 -26 7 -26h3q10 0 13 26l33 228q3 26 -6 26h-3zM318 -6
q-34 0 -51.5 23t-12.5 62l34 236q5 38 29.5 61t58.5 23h16q35 0 53.5 -23t13.5 -61l-34 -236q-5 -39 -30.5 -62t-60.5 -23h-16zM376 337q-11 0 -15 -26l-33 -230q-3 -25 7 -25h3q9 0 13 25l32 230q5 26 -5 26h-2zM510 -6q-34 0 -51.5 23t-12.5 62l33 236q6 38 30.5 61
t57.5 23h17q34 0 53 -23t13 -61l-33 -236q-5 -39 -30.5 -62t-60.5 -23h-16zM567 337q-10 0 -14 -26l-33 -230q-3 -25 7 -25h3q9 0 12 25l33 230q4 26 -5 26h-3z" />
    <glyph glyph-name="guilsinglleft" unicode="&#x2039;" horiz-adv-x="160" 
d="M61 38l-48 204l46 200h86l-46 -202l49 -202h-87z" />
    <glyph glyph-name="guilsinglright" unicode="&#x203a;" horiz-adv-x="160" 
d="M37 38l49 202l-46 202h86l46 -200l-48 -204h-87z" />
    <glyph glyph-name="fraction" unicode="&#x2044;" horiz-adv-x="243" 
d="M207 699h83l-255 -699h-82z" />
    <glyph glyph-name="franc" unicode="&#x20a3;" horiz-adv-x="239" 
d="M194 616l-32 -230h66l-10 -74h-67l-14 -97h33l-10 -67h-32l-21 -148h-99l21 148h-32l10 67h31l69 484h183l-13 -83h-83z" />
    <glyph glyph-name="uni20A6" unicode="&#x20a6;" horiz-adv-x="372" 
d="M388 450l-10 -67h-37l-9 -63h37l-9 -67h-37l-36 -253h-110l-9 253h-26l-36 -253h-83l36 253h-47l9 67h47l9 63h-47l10 67h47l36 249h110l6 -249h22l35 249h91l-36 -249h37zM152 320h13l-2 63h-2zM242 323h1l8 60h-11z" />
    <glyph glyph-name="peseta" unicode="&#x20a7;" horiz-adv-x="312" 
d="M234 699q45 0 70.5 -28t18.5 -78l-9 -63h26l-10 -67h-26l-14 -97q-7 -49 -39 -69t-77 -20h-26l-40 -277h-98l65 463h-33l10 67h33l24 169h125zM204 463h-30l-14 -103h16q9 0 13 9t6 29zM184 530h30l7 48q6 38 -9 38h-16z" />
    <glyph glyph-name="uni20A9" unicode="&#x20a9;" horiz-adv-x="458" 
d="M78 311l6 81h-54l9 67h50l17 240h94l-19 -240h20l55 240h78l-12 -240h20l50 240h87l-53 -240h47l-9 -67h-52l-18 -81h58l-9 -67h-63l-53 -244h-96l6 244h-13l-59 -244h-108l17 244h-64l8 67h60zM320 349l9 43h-10l-2 -43h3zM176 349l10 43h-10l-3 -43h3z" />
    <glyph glyph-name="Euro" unicode="&#x20ac;" horiz-adv-x="283" 
d="M199 295h-52l-25 -179q-4 -21 -2 -30t10 -9h3q8 0 12 9t7 30l24 167h99l-26 -182q-4 -28 -16 -48.5t-28.5 -33.5t-36.5 -19t-39 -6h-19q-20 0 -38 6t-30.5 19t-19 33.5t-2.5 48.5l27 194h-29l6 41h29l4 29h-29l6 41h29l28 192q4 28 16 48.5t28.5 33.5t36 19t39.5 6h19
q20 0 38 -6t31 -19t19 -33.5t2 -48.5l-26 -180h-99l24 166q3 21 1 29.5t-10 8.5h-3q-8 0 -11.5 -8.5t-7.5 -30.5l-25 -177h51l-5 -41h-52l-4 -29h51z" />
    <glyph glyph-name="uni20B9" unicode="&#x20b9;" horiz-adv-x="338" 
d="M55 548h171l4 27q4 29 -4 38t-28 9h-133l11 77h170h4h140l-11 -77h-53q1 -7 0.5 -13.5t-1.5 -14.5l-7 -46h50l-10 -76h-51l-6 -47q-3 -24 -14.5 -43.5t-27.5 -33t-35.5 -21t-40.5 -7.5h-38l110 -320h-110l-113 333l7 55h117q26 0 38.5 12t15.5 35l5 37h-171z" />
    <glyph glyph-name="trademark" unicode="&#x2122;" horiz-adv-x="313" 
d="M183 653h-26l-37 -261h-54l38 261h-25l6 46h105zM355 699l-44 -307h-40l24 168h-1l-41 -168h-33l9 168h-1l-25 -168h-41l44 307h66l-13 -168h1l35 168h60z" />
    <glyph glyph-name="minus" unicode="&#x2212;" horiz-adv-x="253" 
d="M260 383l-9 -67h-229l9 67h229z" />
    <glyph glyph-name="fi" unicode="&#xfb01;" horiz-adv-x="265" 
d="M2 0l59 418h-23l11 77h23l15 107q3 24 15.5 45.5t33.5 36t51 20t68 -3.5l-10 -73q-7 0 -17.5 -0.5t-21 -3.5t-18.5 -9.5t-10 -18.5l-15 -100h128l-71 -495h-92l60 418h-36l-59 -418h-91z" />
    <glyph glyph-name="fl" unicode="&#xfb02;" horiz-adv-x="301" 
d="M0 0l59 418h-23l12 77h22l15 107q3 24 15.5 45.5t33.5 36t51 20t68 -3.5l-10 -73q-7 0 -17.5 -0.5t-21 -3.5t-18.5 -9.5t-9 -18.5l-15 -100h62l-11 -77h-62l-60 -418h-91zM169 0h92l100 699h-92z" />
    <glyph glyph-name="_0007" horiz-adv-x="0" 
 />
    <glyph glyph-name="_0024" horiz-adv-x="0" 
 />
    <glyph glyph-name="quoteaccent" horiz-adv-x="0" 
d="M54 640l27 47h37l-17 -47h24l-11 -78h-71z" />
    <glyph glyph-name="accent margin" horiz-adv-x="0" 
d="M91 699h12l-21 -149h-12z" />
    <glyph glyph-name="ucircumflex.001" horiz-adv-x="228" 
d="M87 74q12 0 16 22l57 399h92l-70 -495h-92l3 21q-30 -24 -55 -24h-2q-41 0 -48.5 28.5t-0.5 75.5l56 394h92l-56 -392q-4 -29 6 -29h2zM211 619l48 -86h-87l-13 37l-24 -37h-87l73 86h90z" />
    <glyph glyph-name="uacute.001" horiz-adv-x="228" 
d="M87 74q12 0 16 22l57 399h92l-70 -495h-92l3 21q-30 -24 -55 -24h-2q-41 0 -48.5 28.5t-0.5 75.5l56 394h92l-56 -392q-4 -29 6 -29h2zM122 533l47 86h87l-74 -86h-60z" />
    <glyph glyph-name="ugrave.001" horiz-adv-x="228" 
d="M85 74q-10 0 -6 29l56 392h-92l-56 -394q-7 -47 0.5 -75.5t48.5 -28.5h2q25 0 55 24l-3 -21h92l70 495h-92l-57 -399q-4 -22 -16 -22h-2zM125 533l-49 86h87l22 -86h-60z" />
    <glyph glyph-name="udieresis.001" horiz-adv-x="228" 
d="M85 74q-10 0 -6 29l56 392h-92l-56 -394q-7 -47 0.5 -75.5t48.5 -28.5h2q13 0 26.5 6t27.5 17l-3 -20h92l71 495h-92l-56 -391v-1l-1 -3q-4 -26 -17 -26h-1zM236 540h-65l10 74h66zM136 540h-65l11 74h65z" />
    <glyph glyph-name="iacute.001" horiz-adv-x="112" 
d="M139 495l-71 -495h-92l71 495h92zM67 533l47 86h87l-74 -86h-60z" />
    <glyph glyph-name="_0158" horiz-adv-x="0" 
 />
    </font>
</defs>
</svg>
