<?xml version="1.0" standalone="no"?>
<!DOCTYPE svg PUBLIC "-//W3C//DTD SVG 1.1//EN" "http://www.w3.org/Graphics/SVG/1.1/DTD/svg11.dtd" >
<svg xmlns="http://www.w3.org/2000/svg" xmlns:xlink="http://www.w3.org/1999/xlink" version="1.1">
<metadata>
Created by FontForge 20170731 at Mon Jun 25 01:23:21 2018
 By Aleksey,,,
Copyright (c) 2018 by Rajesh Rajput. All rights reserved.
</metadata>
<defs>
<font id="Morganite-ExtraBoldItalic" horiz-adv-x="244" >
  <font-face 
    font-family="Morganite"
    font-weight="800"
    font-style="italic"
    font-stretch="normal"
    units-per-em="1000"
    panose-1="0 0 0 0 0 0 0 0 0 0"
    ascent="750"
    descent="-250"
    x-height="495"
    cap-height="699"
    bbox="-59 -197 636.064 862"
    underline-thickness="52"
    underline-position="-152"
    slope="-15"
    unicode-range="U+000D-FB02"
  />
<missing-glyph horiz-adv-x="102" 
 />
    <glyph glyph-name=".notdef" horiz-adv-x="102" 
 />
    <glyph glyph-name=".null" horiz-adv-x="0" 
 />
    <glyph glyph-name="nonmarkingreturn" unicode="&#xd;" horiz-adv-x="102" 
 />
    <glyph glyph-name="NULL" horiz-adv-x="0" 
 />
    <glyph glyph-name="NULL" horiz-adv-x="0" 
 />
    <glyph glyph-name="space" unicode=" " horiz-adv-x="102" 
 />
    <glyph glyph-name="exclam" unicode="!" horiz-adv-x="138" 
d="M88 134h-65l30 297l38 268h89l-38 -268zM82 0h-90l15 104h90z" />
    <glyph glyph-name="quotedbl" unicode="&#x22;" horiz-adv-x="274" 
d="M161 595l-36 -63h-37l24 63h-41l14 104h91zM294 595l-37 -63h-37l25 63h-42l15 104h90z" />
    <glyph glyph-name="numbersign" unicode="#" horiz-adv-x="368" 
d="M323 204h-50l-46 -204h-80l46 204h-49l-46 -204h-79l46 204h-54l16 73h54l33 144h-53l18 73h51l47 205h80l-47 -205h49l47 205h80l-47 -205h54l-19 -73h-51l-33 -144h51zM161 277h49l33 144h-49z" />
    <glyph glyph-name="dollar" unicode="$" 
d="M56 -4q-30 6 -50 30.5t-14 71.5l26 184h81l-25 -171q-3 -23 1.5 -33t15.5 -10h3q22 0 28 43l11 80q7 50 -8 84.5t-34.5 66t-34.5 66.5t-8 86l15 107q7 47 34.5 71.5t59.5 30.5l8 53h58l-9 -54q29 -8 47 -32t11 -69l-26 -183h-80l24 170q4 23 0.5 33t-12.5 10h-4
q-9 0 -14.5 -9.5t-9.5 -33.5l-11 -79q-5 -34 1 -60t17 -48.5t24.5 -43t24.5 -43.5t17 -49t1 -60l-15 -107q-8 -48 -34.5 -72.5t-59.5 -29.5l-8 -53h-59z" />
    <glyph glyph-name="percent" unicode="%" horiz-adv-x="454" 
d="M373 699l-329 -699h63l330 699h-64zM97 302q-32 0 -50 22.5t-13 60.5l34 237q5 38 29.5 60.5t56.5 22.5h16q32 0 50 -22.5t13 -60.5l-34 -237q-5 -38 -29.5 -60.5t-57.5 -22.5h-15zM153 650q-15 0 -18 -31l-34 -232q-3 -30 11 -30h4q14 0 17 30l34 232q3 31 -10 31h-4z
M313 -6q-32 0 -49.5 22.5t-12.5 60.5l35 239q5 38 29 60.5t56 22.5h16q32 0 50.5 -22.5t13.5 -60.5l-35 -239q-5 -38 -30 -60.5t-57 -22.5h-16zM371 344q-14 0 -20 -31l-33 -234q-4 -30 11 -30h3q14 0 18 30l33 234q6 31 -8 31h-4z" />
    <glyph glyph-name="ampersand" unicode="&#x26;" 
d="M163 756h59l-8 -53q31 -5 52 -30t14 -72l-26 -185h-89l25 172q3 23 -0.5 33t-12.5 10h-4q-9 0 -14.5 -9.5t-8.5 -33.5l-22 -146q-2 -23 1 -37t18 -14h27l-4 -34h-1l-3 -30h-27q-16 0 -23 -14t-11 -37l-24 -165q-3 -24 0.5 -33.5t12.5 -9.5h4q9 0 14.5 9.5t8.5 32.5
l25 172h89l-26 -184q-8 -48 -36 -73t-60 -29l-7 -53h-59l8 53q-31 6 -50.5 30.5t-12.5 71.5l24 176q6 44 29.5 62.5t52.5 23.5q-28 6 -45.5 27.5t-10.5 65.5l20 148q7 48 34.5 72t59.5 30z" />
    <glyph glyph-name="quotesingle" unicode="'" horiz-adv-x="141" 
d="M161 595l-36 -63h-37l24 63h-41l14 104h91z" />
    <glyph glyph-name="parenleft" unicode="(" horiz-adv-x="221" 
d="M87 -36q-24 0 -44 6.5t-33.5 22t-18.5 42t1 65.5l70 499q6 39 18.5 65.5t30.5 42t40 22t47 6.5h50l-11 -74h-19q-39 0 -52.5 -26.5t-20.5 -80.5l-59 -409q-8 -53 -2 -80t45 -27h19l-11 -74h-50z" />
    <glyph glyph-name="parenright" unicode=")" horiz-adv-x="221" 
d="M0 -36l10 74h19q19 0 31.5 7t20.5 20.5t12.5 33.5t8.5 46l58 409q8 54 2.5 80.5t-45.5 26.5h-19l11 74h51q24 0 44 -6.5t33.5 -22t18.5 -42t0 -65.5l-72 -499q-5 -39 -17.5 -65.5t-30.5 -42t-40.5 -22t-46.5 -6.5h-49z" />
    <glyph glyph-name="asterisk" unicode="*" horiz-adv-x="191" 
d="M109 537l-33 26l38 43l-47 14l21 44l44 -18l6 53h46l-9 -53l49 18l8 -44l-51 -14l26 -43l-41 -25l-22 46z" />
    <glyph glyph-name="plus" unicode="+" horiz-adv-x="298" 
d="M133 380l17 118h68l-17 -118h102l-8 -60h-103l-16 -118h-68l16 118h-99l8 60h100z" />
    <glyph glyph-name="comma" unicode="," horiz-adv-x="134" 
d="M78 0l-36 -63h-37l24 63h-41l14 104h91z" />
    <glyph glyph-name="hyphen" unicode="-" horiz-adv-x="250" 
d="M256 380l-8 -60h-222l8 60h222z" />
    <glyph glyph-name="period" unicode="." horiz-adv-x="138" 
d="M79 0h-90l15 104h91z" />
    <glyph glyph-name="slash" unicode="/" horiz-adv-x="235" 
d="M222 699h74l-255 -699h-74z" />
    <glyph glyph-name="zero" unicode="0" 
d="M75 -6q-18 0 -35 6t-29 18.5t-17.5 32.5t-1.5 47l70 503q4 27 15.5 47t27.5 32.5t35 18.5t37 6h18q19 0 36 -6t29.5 -18.5t18 -32.5t1.5 -47l-71 -503q-4 -27 -15.5 -47t-27.5 -32.5t-35 -18.5t-37 -6h-19zM173 631q-18 0 -24 -43l-68 -477q-6 -43 13 -43h3q18 0 24 43
l69 477q4 43 -13 43h-4z" />
    <glyph glyph-name="one" unicode="1" horiz-adv-x="183" 
d="M41 0l81 565q-14 -2 -34 -4t-34 -2l10 70q14 0 29 5.5t28 15t22.5 22t12.5 27.5h73l-100 -699h-88z" />
    <glyph glyph-name="two" unicode="2" 
d="M37 418l26 183q4 27 15.5 47t27 32.5t34 18.5t37.5 6h10q18 0 35.5 -6t30 -18.5t18.5 -32.5t2 -47l-15 -107q-5 -34 -18 -62.5t-30.5 -56.5t-37.5 -57t-38.5 -64.5t-33.5 -79t-23 -100.5h129l-10 -74h-217l10 74q9 64 24.5 112t34.5 85t38.5 66.5t37 56.5t30 54t17.5 61
l11 79q4 24 1 33.5t-12 9.5h-4q-9 0 -15.5 -10t-9.5 -33l-24 -170h-81z" />
    <glyph glyph-name="three" unicode="3" 
d="M109 391h27q15 0 22.5 14t10.5 37l21 146q4 24 0.5 33.5t-12.5 9.5h-4q-9 0 -14.5 -10t-9.5 -33l-25 -172h-88l26 185q4 27 15.5 47t27.5 32.5t34.5 18.5t37.5 6h18q18 0 35 -6t29.5 -18.5t18 -32.5t1.5 -47l-20 -148q-7 -45 -31 -66t-54 -27q29 -5 47 -23.5t12 -62.5
l-25 -176q-4 -27 -15.5 -47t-27.5 -32.5t-34.5 -18.5t-37.5 -6h-18q-18 0 -35 6t-29 18.5t-18 32.5t-2 47l26 184h89l-25 -172q-3 -23 0 -32.5t12 -9.5h4q9 0 15 9.5t9 33.5l24 165q3 23 -0.5 37t-18.5 14h-27l4 35z" />
    <glyph glyph-name="four" unicode="4" horiz-adv-x="274" 
d="M248 169l-10 -74h-37l-13 -95h-76l13 95h-136l10 74l184 530h104l-75 -530h36zM176 451h-3l-89 -280l-1 -2h53z" />
    <glyph glyph-name="five" unicode="5" 
d="M77 -6q-18 0 -35 6t-29.5 18.5t-18.5 32.5t-2 47l27 192h89l-25 -179q-7 -43 11 -43h4q18 0 25 43l30 214q4 24 0.5 33.5t-12.5 9.5h-4q-9 0 -14.5 -10t-9.5 -33l-1 -7h-89l54 381h217l-18 -74h-120l-31 -217q13 17 29 25.5t31 8.5h6q13 0 24 -6t19 -18.5t11 -32.5
t-1 -47l-35 -240q-8 -55 -42 -79.5t-72 -24.5h-18z" />
    <glyph glyph-name="six" unicode="6" 
d="M76 -6q-18 0 -35 6t-29 18.5t-18 32.5t-2 47l26 192h1l44 311q4 27 15.5 47t27.5 32.5t34.5 18.5t37.5 6h13q18 0 35 -6t29.5 -18.5t18 -32.5t1.5 -47l-17 -125h-84l16 112q4 23 0.5 33t-12.5 10h-4q-9 0 -14.5 -9.5t-9.5 -33.5l-26 -181q13 18 29 26.5t31 8.5h6
q13 0 24.5 -6t19 -18.5t11 -32.5t-0.5 -47l-35 -240q-4 -27 -15.5 -47t-27.5 -32.5t-34.5 -18.5t-37.5 -6h-18zM82 111q-6 -43 12 -43h4q18 0 24 43l31 214q3 24 0 33.5t-12 9.5h-4q-9 0 -15 -10t-10 -33v-7h-1l-4 -28z" />
    <glyph glyph-name="seven" unicode="7" horiz-adv-x="212" 
d="M-24 0l188 633h-101l10 66h189l-9 -66l-188 -633h-89z" />
    <glyph glyph-name="eight" unicode="8" 
d="M76 -6q-18 0 -35 6t-29 18.5t-18 32.5t-2 47l24 172q5 33 20.5 55t36.5 34q-17 12 -27 34t-5 56l22 152q4 27 15.5 47t27.5 32.5t34.5 18.5t37.5 6h18q18 0 35 -6t29.5 -18.5t18 -32.5t1.5 -47l-21 -152q-5 -34 -20.5 -56t-37.5 -34q18 -11 27.5 -33.5t4.5 -55.5
l-24 -172q-4 -27 -15.5 -47t-27.5 -32.5t-34.5 -18.5t-37.5 -6h-18zM132 332q-18 0 -25 -43l-25 -178q-6 -43 12 -43h4q18 0 24 43l25 178q7 43 -11 43h-4zM174 631q-18 0 -24 -43l-23 -158q-6 -43 13 -43h4q17 0 24 43l22 158q6 43 -12 43h-4z" />
    <glyph glyph-name="nine" unicode="9" 
d="M196 705q18 0 35 -6t29.5 -18.5t18 -32.5t1.5 -47l-12 -87h1l-60 -416q-4 -27 -15.5 -47t-27.5 -32.5t-34.5 -18.5t-37.5 -6h-13q-18 0 -35 6t-29 18.5t-18 32.5t-2 47l26 184h84l-25 -171q-3 -23 0 -33t12 -10h4q9 0 15 9.5t9 33.5l34 239q-13 -17 -29 -25.5t-31 -8.5
h-6q-12 0 -23.5 6t-19 18.5t-11 32.5t0.5 47l26 181q4 27 15.5 47t27.5 32.5t34.5 18.5t37.5 6h18zM190 588q7 43 -12 43h-4q-17 0 -24 -43l-22 -155q-4 -24 -0.5 -33.5t12.5 -9.5h4q9 0 14.5 10t9.5 33l1 7l3 16h-1z" />
    <glyph glyph-name="colon" unicode=":" horiz-adv-x="138" 
d="M126 311h-90l15 104h90zM83 0h-90l14 104h90z" />
    <glyph glyph-name="semicolon" unicode=";" horiz-adv-x="143" 
d="M132 311h-91l16 104h90zM89 0l-36 -63h-37l24 63h-40l13 104h91z" />
    <glyph glyph-name="less" unicode="&#x3c;" horiz-adv-x="240" 
d="M226 3l-3 -2l-209 224v41l208 226l4 -3v-90l-2 -3l-134 -148v-3l134 -146l2 -3v-93z" />
    <glyph glyph-name="equal" unicode="=" horiz-adv-x="308" 
d="M322 443l-9 -60h-280l9 60h280zM305 320l-8 -60h-280l8 60h280z" />
    <glyph glyph-name="greater" unicode="&#x3e;" horiz-adv-x="240" 
d="M49 96l1 3l134 146v3l-134 147l-1 4v90l3 2l208 -225v-41l-209 -224l-3 1z" />
    <glyph glyph-name="question" unicode="?" horiz-adv-x="236" 
d="M37 418l26 183q4 27 15 47t27 32.5t34.5 18.5t36.5 6h11q18 0 35.5 -6t30 -18.5t18.5 -32.5t2 -47l-16 -107q-5 -35 -16.5 -62t-26.5 -52t-30.5 -49.5t-28.5 -53t-21 -63t-7 -80.5h-89q0 53 8.5 92t22 69.5t29 55t30.5 48.5t26.5 50t16.5 60l11 79q3 24 0 33.5t-12 9.5
h-4q-9 0 -15 -10t-9 -33l-24 -170h-81zM110 0h-90l14 104h91z" />
    <glyph glyph-name="at" unicode="@" horiz-adv-x="443" 
d="M166 -6q-52 0 -85.5 14.5t-52.5 38t-24.5 52t-1.5 55.5l39 281q4 27 18 55.5t39.5 52t63.5 38t89 14.5h41q51 0 85 -14.5t53 -38t25 -52t2 -55.5l-38 -263q-4 -27 -28.5 -43t-55 -20t-58.5 4t-40 28q-16 -15 -32.5 -24t-31.5 -9h-2q-39 0 -47.5 27t-1.5 73l24 171
q6 46 23.5 73t56.5 27h3q14 0 25.5 -7.5t22.5 -19.5l14 27h59l-39 -271q-2 -13 2.5 -19.5t10.5 -6t12 7t8 18.5l31 222q2 12 2 28.5t-8.5 32.5t-28.5 27t-57 11h-42q-38 0 -60.5 -11t-35.5 -26.5t-18 -32.5t-6 -29l-39 -271q-2 -11 -1.5 -28t8.5 -33t27.5 -27t57.5 -11h43
q38 0 60 11.5t32 23.5l55 -44q-21 -20 -58.5 -38.5t-99.5 -18.5h-40zM216 177q16 0 21 35l20 141l5 31q0 26 -13 26h-1q-14 0 -20 -33l-24 -167q-4 -33 10 -33h2z" />
    <glyph glyph-name="A" unicode="A" horiz-adv-x="233" 
d="M109 0l11 180h-48l-40 -180h-75l159 699h113l-35 -699h-85zM87 247h37l14 209h-4z" />
    <glyph glyph-name="B" unicode="B" horiz-adv-x="243" 
d="M257 427q-5 -32 -17 -47.5t-28 -20.5q14 -4 22 -19.5t3 -47.5l-27 -191q-4 -27 -15 -46t-27 -31t-34.5 -18t-37.5 -6h-117l99 699h118q19 0 36 -6t29 -18.5t17.5 -32.5t1.5 -47zM148 285q6 41 -11 41h-23l-36 -252h21q18 0 24 41zM146 392q17 0 23 40l21 150q7 43 -12 43
h-22l-34 -233h24z" />
    <glyph glyph-name="C" unicode="C" horiz-adv-x="241" 
d="M73 -6q-18 0 -35 6t-29.5 18.5t-18 32.5t-1.5 47l71 503q4 27 15.5 47t27.5 32.5t34.5 18.5t37.5 6h18q18 0 35 -6t29.5 -18.5t18 -32.5t1.5 -47l-26 -183h-88l24 170q4 23 0.5 33t-12.5 10h-4q-9 0 -15 -9.5t-9 -33.5l-68 -477q-7 -43 12 -43h4q17 0 24 43l25 172h88
l-26 -185q-4 -27 -15.5 -47t-27.5 -32.5t-34.5 -18.5t-37.5 -6h-18z" />
    <glyph glyph-name="D" unicode="D" horiz-adv-x="245" 
d="M-21 0l99 699h118q18 0 35.5 -6t29.5 -18.5t18 -32t2 -46.5l-70 -493q-4 -27 -15.5 -46.5t-27.5 -32t-35 -18.5t-37 -6h-117zM156 625l-78 -551h22q9 0 14.5 9.5t9.5 32.5l66 467q4 23 0.5 32.5t-12.5 9.5h-22z" />
    <glyph glyph-name="E" unicode="E" horiz-adv-x="202" 
d="M156 625l-34 -243h67l-10 -66h-67l-34 -242h92l-11 -74h-180l99 699h174l-11 -74h-85z" />
    <glyph glyph-name="F" unicode="F" horiz-adv-x="195" 
d="M156 625l-34 -243h67l-10 -66h-67l-45 -316h-88l99 699h174l-11 -74h-85z" />
    <glyph glyph-name="G" unicode="G" horiz-adv-x="241" 
d="M73 -6q-18 0 -35 6t-29.5 18.5t-18 32.5t-1.5 47l71 503q4 27 15.5 47t27.5 32.5t34.5 18.5t37.5 6h18q18 0 35 -6t29.5 -18.5t18 -32.5t1.5 -47l-26 -183h-88l24 170q4 23 0.5 33t-12.5 10h-4q-9 0 -15 -9.5t-9 -33.5l-68 -477q-7 -43 12 -43h4q17 0 24 43l14 98h-23
l11 74h111l-21 -154l-2 -11l-17 -118h-43l-6 23q-18 -14 -35 -21.5t-30 -7.5h-5z" />
    <glyph glyph-name="H" unicode="H" 
d="M294 699l-100 -699h-89l46 316h-39l-45 -316h-88l99 699h89l-45 -317h38l45 317h89z" />
    <glyph glyph-name="I" unicode="I" horiz-adv-x="120" 
d="M167 699l-100 -699h-88l99 699h89z" />
    <glyph glyph-name="J" unicode="J" horiz-adv-x="242" 
d="M73 -6q-18 0 -35 6t-29 18.5t-18 32.5t-2 47l26 183h88l-24 -170q-6 -43 11 -43h4q19 0 25 43l83 588h89l-85 -601q-4 -27 -15.5 -47t-27 -32.5t-34.5 -18.5t-38 -6h-18z" />
    <glyph glyph-name="K" unicode="K" 
d="M180 361l24 -361h-81l-21 243h-1l-35 -243h-88l99 699h89l-37 -255h2l94 255h81z" />
    <glyph glyph-name="L" unicode="L" horiz-adv-x="177" 
d="M167 699l-90 -633h82l-10 -66h-170l99 699h89z" />
    <glyph glyph-name="M" unicode="M" horiz-adv-x="331" 
d="M381 699l-100 -699h-74l61 423h-2l-105 -423h-64l16 423h-1l-60 -423h-74l99 699h114l-14 -357h1l89 357h114z" />
    <glyph glyph-name="N" unicode="N" horiz-adv-x="277" 
d="M129 0l-16 422h-1l-60 -422h-74l99 699h99l11 -412h1l59 412h81l-100 -699h-99z" />
    <glyph glyph-name="O" unicode="O" horiz-adv-x="241" 
d="M73 -6q-18 0 -35 6t-29.5 18.5t-18 32.5t-1.5 47l71 503q4 27 15.5 47t27.5 32.5t34.5 18.5t37.5 6h18q18 0 35 -6t29.5 -18.5t18 -32.5t1.5 -47l-71 -503q-4 -27 -15.5 -47t-27.5 -32.5t-34.5 -18.5t-37.5 -6h-18zM171 631q-18 0 -24 -43l-68 -477q-7 -43 12 -43h4
q17 0 24 43l68 477q6 43 -12 43h-4z" />
    <glyph glyph-name="P" unicode="P" horiz-adv-x="245" 
d="M197 699q42 0 66.5 -27t17.5 -76l-32 -228q-8 -48 -38 -67t-72 -19h-32l-40 -282h-88l99 699h119zM190 582q7 43 -13 43h-21l-38 -269h23q18 0 22 40z" />
    <glyph glyph-name="Q" unicode="Q" horiz-adv-x="240" 
d="M73 -6q-18 0 -35 6t-29.5 18.5t-18 32.5t-1.5 47l71 503q4 27 15.5 47t27 32.5t34.5 18.5t37 6h18q19 0 36 -6t29.5 -18.5t18 -32.5t1.5 -47l-71 -503q-9 -52 -42 -79l26 -31l-50 -44l-43 50h-6h-18zM171 631q-18 0 -25 -43l-67 -477q-7 -43 11 -43h4q18 0 25 43l67 477
q7 43 -11 43h-4z" />
    <glyph glyph-name="R" unicode="R" horiz-adv-x="245" 
d="M255 417q-5 -32 -17 -47.5t-28 -20.5q15 -4 23 -19.5t3 -47.5l-21 -151q-5 -36 -7 -60.5t-2 -40t1 -22.5t2 -8h-89q-5 12 -3.5 43t9.5 88l20 143q6 42 -11 42h-23l-45 -316h-88l99 699h119q42 0 66.5 -27t17.5 -76zM145 382q18 0 22 40l23 160q7 43 -13 43h-21l-34 -243
h23z" />
    <glyph glyph-name="S" unicode="S" horiz-adv-x="245" 
d="M166 418l25 170q3 23 0 33t-13 10h-3q-10 0 -15.5 -9.5t-8.5 -33.5l-12 -79q-5 -34 1 -60t17 -48.5t25 -43t25 -43.5t17 -49t1 -60l-15 -107q-4 -27 -15.5 -47t-27 -32.5t-34.5 -18.5t-38 -6h-16q-18 0 -35.5 6t-30 18.5t-18.5 32.5t-2 47l26 184h80l-24 -171
q-4 -23 1 -33t16 -10h3q21 0 28 43l11 80q5 33 -1 59t-17 48.5t-25 43t-25 43t-17 49t-1 60.5l15 107q4 27 16 47t28 32.5t35 18.5t37 6h10q19 0 36 -6t29 -18.5t17.5 -32.5t1.5 -47l-26 -183h-81z" />
    <glyph glyph-name="T" unicode="T" horiz-adv-x="209" 
d="M253 625h-69l-88 -625h-89l89 625h-69l11 74h226z" />
    <glyph glyph-name="U" unicode="U" horiz-adv-x="248" 
d="M77 -6q-18 0 -35 6t-29.5 18.5t-18.5 32.5t-2 47l85 601h89l-83 -588q-7 -43 11 -43h4q18 0 25 43l83 588h89l-86 -601q-8 -55 -42 -79.5t-72 -24.5h-18z" />
    <glyph glyph-name="V" unicode="V" horiz-adv-x="237" 
d="M222 699h76l-160 -699h-113l35 699h85l-28 -456h3z" />
    <glyph glyph-name="W" unicode="W" horiz-adv-x="367" 
d="M16 0l48 699h85l-30 -389h3l89 389h70l-17 -389h2l82 389h77l-152 -699h-86l10 344h-1l-84 -344h-96z" />
    <glyph glyph-name="X" unicode="X" horiz-adv-x="245" 
d="M183 346l24 -346h-91l-11 166l-53 -166h-85l126 372l-27 327h88l12 -145l49 145h89z" />
    <glyph glyph-name="Y" unicode="Y" horiz-adv-x="233" 
d="M155 254l-37 -254h-89l37 254l-13 445h89l-4 -243h3l65 243h88z" />
    <glyph glyph-name="Z" unicode="Z" horiz-adv-x="226" 
d="M183 0h-218l9 66l200 567h-101l10 66h189l-9 -66l-200 -567h129z" />
    <glyph glyph-name="bracketleft" unicode="[" horiz-adv-x="209" 
d="M-30 -56l115 811h154l-11 -74h-65l-94 -663h65l-11 -74h-153z" />
    <glyph glyph-name="backslash" unicode="\" horiz-adv-x="235" 
d="M194 0h-74l-56 699h75z" />
    <glyph glyph-name="bracketright" unicode="]" horiz-adv-x="209" 
d="M-7 -56l11 74h65l94 663h-65l11 74h154l-116 -811h-154z" />
    <glyph glyph-name="asciicircum" unicode="^" horiz-adv-x="278" 
d="M206 414l-3 2l-20 147h-3l-60 -147l-4 -2h-77l-1 3l115 282h97l36 -282l-2 -3h-78z" />
    <glyph glyph-name="underscore" unicode="_" horiz-adv-x="329" 
d="M280 0h-300l8 60h301z" />
    <glyph glyph-name="grave" unicode="`" horiz-adv-x="162" 
d="M84 583l-60 86h78l36 -86h-54z" />
    <glyph glyph-name="a" unicode="a" horiz-adv-x="218" 
d="M34 -3q-20 0 -30 7t-14 20t-3 31.5t4 41.5l11 80q6 46 22 73t55 27h2q12 0 24 -5.5t23 -13.5l20 138q4 33 -11 33h-2q-16 0 -20 -33l-15 -105h-83l16 107q7 47 36 73.5t68 26.5h18q40 0 61.5 -26.5t13.5 -74.5l-56 -397h-83l2 17q-14 -9 -28.5 -14.5t-27.5 -5.5h-3z
M104 216q-14 0 -20 -33l-12 -92q-6 -33 9 -33h2q13 0 19 21l19 129q-3 8 -10 8h-7z" />
    <glyph glyph-name="b" unicode="b" horiz-adv-x="220" 
d="M105 -3q-27 0 -50 29l-13 -26h-65l99 699h82l-32 -225q27 24 53 24h2q40 0 48 -27t2 -73l-43 -301q-7 -46 -24 -73t-56 -27h-3zM136 429q-16 0 -21 -35l-15 -101l-29 -205q0 -22 14 -22h1q15 0 19 33l43 297q6 33 -10 33h-2z" />
    <glyph glyph-name="c" unicode="c" horiz-adv-x="218" 
d="M132 291l16 105q4 33 -10 33h-3q-16 0 -20 -33l-43 -297q-4 -33 10 -33h4q15 0 19 33l16 107h82l-15 -108q-8 -48 -37 -74.5t-68 -26.5h-19q-38 0 -59 27t-14 74l41 299q8 48 36.5 74.5t67.5 26.5h18q39 0 61.5 -26.5t14.5 -73.5l-15 -107h-83z" />
    <glyph glyph-name="d" unicode="d" horiz-adv-x="220" 
d="M41 -3q-38 0 -47.5 27t-2.5 73l41 301q7 46 23 73t55 27h2q25 0 47 -24l32 225h82l-100 -699h-66l-4 26q-14 -14 -29 -21.5t-29 -7.5h-4zM135 429q-16 0 -20 -33l-43 -297q-4 -33 10 -33h2q16 0 21 35l38 260l6 42q2 26 -12 26h-2z" />
    <glyph glyph-name="e" unicode="e" horiz-adv-x="218" 
d="M82 66h4q15 0 19 33l16 107h82l-15 -108q-8 -48 -37 -74.5t-68 -26.5h-19q-38 0 -59 27t-14 74l41 299q8 48 36.5 74.5t67.5 26.5h18q39 0 61.5 -26.5t14.5 -73.5l-24 -171h-116l-18 -128q-4 -33 10 -33zM131 284l17 112q4 33 -10 33h-3q-16 0 -20 -33l-16 -112h32z" />
    <glyph glyph-name="f" unicode="f" horiz-adv-x="180" 
d="M-1 0l60 426h-23l10 69h23l16 111q3 23 14.5 43.5t31.5 34.5t47.5 19.5t63.5 -2.5l-9 -66q-8 1 -18.5 0t-20.5 -4.5t-18 -11t-10 -20.5l-15 -104h62l-10 -69h-62l-61 -426h-81z" />
    <glyph glyph-name="g" unicode="g" horiz-adv-x="222" 
d="M244 495q-4 -25 -10.5 -69t-14 -98t-16 -112.5t-16 -112.5t-14 -98t-10.5 -69q-6 -47 -35 -74t-67 -27h-19q-38 0 -60 26.5t-15 74.5l5 35h82l-6 -34q-3 -33 10 -33h4q15 0 19 33l12 81q-29 -21 -52 -21h-3q-38 0 -47 27t-1 73l42 301q6 46 23.5 73t56.5 27h3
q26 0 49 -26l13 23h67zM83 66q13 0 21 29l43 303q2 31 -12 31h-2q-15 0 -19 -33l-42 -297q-6 -33 9 -33h2z" />
    <glyph glyph-name="h" unicode="h" horiz-adv-x="221" 
d="M140 429q-7 0 -13.5 -8t-9.5 -22v-5l-56 -394h-82l99 699h82l-32 -227q29 26 55 26h2q39 0 47.5 -27t1.5 -73l-57 -398h-82l57 396q4 33 -10 33h-2z" />
    <glyph glyph-name="i" unicode="i" horiz-adv-x="107" 
d="M131 495l-70 -495h-81l69 495h82zM149 625l-13 -96h-82l13 96h82z" />
    <glyph glyph-name="j" unicode="j" horiz-adv-x="143" 
d="M187 626l-13 -97h-83l14 97h82zM167 495l-80 -560q-7 -46 -37.5 -73t-96.5 -27l10 69q17 0 28.5 7.5t13.5 23.5l79 560h83z" />
    <glyph glyph-name="k" unicode="k" horiz-adv-x="233" 
d="M147 258l46 -258h-83l-27 162l-23 -162h-81l99 699h82l-52 -358l76 154h79z" />
    <glyph glyph-name="l" unicode="l" horiz-adv-x="109" 
d="M78 699h82l-99 -699h-82z" />
    <glyph glyph-name="m" unicode="m" horiz-adv-x="338" 
d="M139 429q-8 0 -14.5 -9t-8.5 -26l-2 -1l-55 -393h-81l69 495h82l-3 -23q29 26 56 26h2q22 0 33 -8.5t16 -25.5q16 15 33 24.5t33 9.5h2q39 0 47.5 -27t1.5 -73l-57 -398h-82l57 396q3 33 -11 33h-1q-19 0 -23 -34l-1 -1l-56 -394h-82l57 396q3 33 -11 33h-1z" />
    <glyph glyph-name="n" unicode="n" horiz-adv-x="221" 
d="M139 429q-8 0 -14.5 -9t-8.5 -26l-2 -1l-55 -393h-81l69 495h82l-4 -23q14 12 28.5 19t28.5 7h2q39 0 47.5 -27t1.5 -73l-57 -398h-82l57 396q4 33 -11 33h-1z" />
    <glyph glyph-name="o" unicode="o" horiz-adv-x="220" 
d="M65 -3q-39 0 -60 27t-14 73l41 301q7 46 36 73t68 27h18q39 0 61 -27t15 -73l-42 -301q-7 -46 -36.5 -73t-68.5 -27h-18zM135 429q-16 0 -20 -33l-43 -297q-4 -33 11 -33h3q15 0 19 33l43 297q4 33 -10 33h-3z" />
    <glyph glyph-name="p" unicode="p" horiz-adv-x="220" 
d="M181 498q39 0 48.5 -27t3.5 -73l-43 -301q-7 -46 -22.5 -73t-55.5 -27h-2q-25 0 -47 24l-26 -186h-82l94 660h66l5 -26q14 13 29 21t29 8h3zM88 66q14 0 20 33l42 297q4 33 -10 33h-1q-17 0 -22 -35l-42 -293q-6 -35 12 -35h1z" />
    <glyph glyph-name="q" unicode="q" horiz-adv-x="226" 
d="M116 498q14 0 26.5 -8t23.5 -21l12 26h67l-95 -660h-82l26 185q-13 -11 -26.5 -17t-25.5 -6h-3q-38 0 -47 27t-1 73l42 301q6 46 23 73t57 27h3zM84 66q16 0 22 35l6 44l36 255q2 29 -12 29h-2q-15 0 -19 -33l-43 -297q-4 -33 10 -33h2z" />
    <glyph glyph-name="r" unicode="r" horiz-adv-x="220" 
d="M139 429q-8 0 -14.5 -9t-8.5 -26l-2 -1l-55 -393h-81l69 495h82l-4 -23q14 12 28.5 19t28.5 7h2q42 0 50 -34q3 -12 2.5 -29t-3.5 -37l-15 -107h-83l16 105q4 33 -11 33h-1z" />
    <glyph glyph-name="s" unicode="s" horiz-adv-x="226" 
d="M134 300l14 96q2 14 -0.5 23.5t-10.5 9.5h-2q-8 0 -13 -9.5t-7 -23.5l-7 -43q-4 -32 11 -53t33.5 -42t33 -46t9.5 -64l-8 -51q-6 -46 -35.5 -73t-68.5 -27h-17q-40 0 -61 27t-14 73l13 98h74l-14 -96q-3 -33 14 -33h4q18 0 23 33l6 43q3 21 -3 37t-17 30t-24 27.5
t-23.5 29.5t-16.5 35.5t-2 45.5l7 51q7 45 36 72.5t69 27.5h9q40 0 61.5 -27t14.5 -73l-14 -98h-74z" />
    <glyph glyph-name="t" unicode="t" horiz-adv-x="158" 
d="M171 657l-23 -162h38l-10 -69h-38l-47 -329q-2 -19 6.5 -28t27.5 -4l-10 -66q-34 -5 -56 1.5t-34 20t-15.5 33.5t-0.5 43l46 329h-22l9 69h23l22 154z" />
    <glyph glyph-name="u" unicode="u" horiz-adv-x="227" 
d="M83 66q7 0 13.5 8.5t8.5 23.5l1 3l56 394h83l-71 -495h-82l3 22q-14 -11 -28 -18t-27 -7h-3q-38 0 -46 27t-2 73l56 398h83l-57 -396q-4 -33 10 -33h2z" />
    <glyph glyph-name="v" unicode="v" horiz-adv-x="196" 
d="M167 495h69l-119 -495h-101l21 495h76l-21 -323h3z" />
    <glyph glyph-name="w" unicode="w" horiz-adv-x="335" 
d="M16 0l20 495h77l-14 -275h2l74 275h70l-4 -275h2l65 275h70l-123 -495h-89l11 312h-3l-69 -312h-89z" />
    <glyph glyph-name="x" unicode="x" horiz-adv-x="219" 
d="M156 260l42 -260h-82l-18 133l-57 -133h-73l109 251l-38 244h81l16 -114l49 114h75z" />
    <glyph glyph-name="y" unicode="y" horiz-adv-x="201" 
d="M170 495h67l-156 -660h-81l42 165l-5 495h75l-10 -268h3z" />
    <glyph glyph-name="z" unicode="z" horiz-adv-x="202" 
d="M162 0h-194l9 67l166 362h-104l9 66h185l-9 -66l-167 -362h114z" />
    <glyph glyph-name="braceleft" unicode="{" horiz-adv-x="237" 
d="M31 391h11q27 0 37 18t14 41l28 198q4 32 16 54t27.5 36t34.5 20.5t38 6.5h35l-11 -74h-3q-14 0 -23 -5t-14.5 -13.5t-8.5 -19t-4 -21.5l-26 -179q-4 -26 -14.5 -44t-25 -29.5t-31.5 -16.5t-35 -6q17 -1 33 -6.5t27 -16.5t16.5 -29t2.5 -44l-26 -179q-2 -11 -2 -22t3 -19
t11 -13t22 -5h3l-11 -74h-34q-19 0 -36 6.5t-29 20.5t-17.5 36t-0.5 54l28 198q4 23 -1 41t-32 18h-11l5 34z" />
    <glyph glyph-name="bar" unicode="|" horiz-adv-x="126" 
d="M83 729h83l-109 -759h-82z" />
    <glyph glyph-name="braceright" unicode="}" horiz-adv-x="237" 
d="M246 391l-10 -68h-11q-27 0 -37 -18t-14 -41l-28 -198q-5 -32 -16.5 -54t-27 -36t-34.5 -20.5t-38 -6.5h-33l10 74h3q28 0 37 18t13 41l26 179q3 26 13.5 44t25 29t31.5 16.5t35 6.5q-17 1 -33 6t-27.5 16.5t-17 29.5t-1.5 44l26 179q1 11 1.5 21.5t-2.5 19t-10.5 13.5
t-21.5 5h-3l10 74h34q19 0 36 -6.5t29 -20.5t17 -36t1 -54l-28 -198q-3 -23 2 -41t32 -18h11z" />
    <glyph glyph-name="asciitilde" unicode="~" horiz-adv-x="308" 
d="M14 234q20 35 38 49t40 14q14 0 26.5 -5t24.5 -10.5t24 -10.5t26 -5q12 0 21 6.5t25 26.5l55 -43q-19 -38 -38 -50.5t-45 -12.5q-14 0 -27 5t-26 10.5t-24.5 10.5t-22.5 5q-13 0 -22.5 -6t-24.5 -26z" />
    <glyph glyph-name="uni00A0" unicode="&#xa0;" horiz-adv-x="0" 
 />
    <glyph glyph-name="exclamdown" unicode="&#xa1;" horiz-adv-x="138" 
d="M164 595h-90l14 104h91zM116 268l-38 -268h-89l38 268l54 297h65z" />
    <glyph glyph-name="cent" unicode="&#xa2;" horiz-adv-x="219" 
d="M133 291l15 105q4 33 -10 33h-2q-17 0 -21 -33l-42 -297q-6 -33 9 -33h4q14 0 20 33l15 107h82l-15 -108q-6 -41 -28.5 -66.5t-54.5 -31.5l-8 -62h-59l8 61q-30 6 -45.5 31.5t-9.5 67.5l42 299q6 42 29.5 68t56.5 31l8 61h59l-9 -62q29 -7 44 -32.5t10 -64.5l-16 -107
h-82z" />
    <glyph glyph-name="sterling" unicode="&#xa3;" horiz-adv-x="299" 
d="M24 318h54l41 283q8 54 42 79t72 25h18q18 0 35.5 -6t29.5 -18.5t18 -32.5t2 -47l-26 -183h-89l24 170q4 23 1 33t-12 10h-4q-9 0 -15.5 -9.5t-9.5 -33.5l-38 -270h129l-11 -76h-129l-6 -42q-8 -54 -18 -83t-19 -41h149l-11 -76h-237l10 75h-1q12 11 21 38t17 86l6 43
h-53z" />
    <glyph glyph-name="currency" unicode="&#xa4;" horiz-adv-x="359" 
d="M259 222q-20 -11 -41 -17.5t-43 -6.5q-46 0 -80 25l-45 -40l-36 44l44 40q-19 37 -12 82q6 44 36 82l-35 40l51 44l34 -40q20 11 41.5 18t44.5 7q44 0 78 -25l46 40l37 -44l-45 -40q19 -38 13 -82q-7 -45 -37 -82l35 -40l-51 -44zM112 349q-5 -37 15.5 -61t56.5 -24
q37 0 64 24t33 61q5 36 -15.5 60t-57.5 24q-36 0 -63.5 -24t-32.5 -60z" />
    <glyph glyph-name="yen" unicode="&#xa5;" horiz-adv-x="247" 
d="M72 195l6 39h-67l8 60h61l-12 405h89l-4 -243h3l65 243h89l-128 -405h56l-8 -60h-63l-6 -39h64l-9 -60h-64l-19 -135h-88l19 135h-67l9 60h66z" />
    <glyph glyph-name="brokenbar" unicode="&#xa6;" horiz-adv-x="126" 
d="M21 293h82l17 115h-83l46 321h83l-46 -321l-63 -438h-82zM21 293l16 115z" />
    <glyph glyph-name="section" unicode="&#xa7;" horiz-adv-x="219" 
d="M156 456l21 147q2 14 -0.5 23.5t-10.5 9.5h-3q-7 0 -12 -9.5t-7 -23.5l-14 -94q-3 -21 3.5 -37t17 -30.5t23.5 -28t24 -29.5t16.5 -35.5t2.5 -45.5l-9 -56q-5 -35 -24 -59.5t-46 -34.5q18 -21 32.5 -46.5t9.5 -63.5l-17 -114q-6 -46 -36 -73t-69 -27h-16q-40 0 -61 27
t-15 73l24 162h73l-22 -160q-6 -33 14 -33h3q11 0 16 8.5t7 24.5l15 107q4 30 -10 50.5t-32 41t-32.5 44.5t-11.5 61v3.5t1 9.5t3 19.5t5 34.5q5 34 23 58t44 35q-18 20 -31.5 45t-7.5 63l15 102q7 45 35.5 72.5t68.5 27.5h9q40 0 61.5 -27t15.5 -73l-22 -149h-74zM105 216
q13 0 21 29l8 57q2 31 -12 31h-2q-15 0 -19 -33l-7 -51q-6 -33 9 -33h2z" />
    <glyph glyph-name="dieresis" unicode="&#xa8;" horiz-adv-x="199" 
d="M133 592h-58l9 71h59zM226 592h-59l10 71h58z" />
    <glyph glyph-name="copyright" unicode="&#xa9;" horiz-adv-x="499" 
d="M25 348q10 72 30 136t54.5 111.5t86 75t123.5 27.5t114 -27.5t60.5 -75t19 -111.5t-9.5 -136t-28.5 -136t-51 -111.5t-82.5 -75t-122 -27.5t-115.5 27.5t-64 75t-22.5 111.5t8 136zM78 348q-9 -60 -9.5 -113.5t14.5 -93.5t49 -63t94 -23q61 0 100 23t64 63t38 93.5
t22 113.5t10.5 113.5t-11.5 93.5t-46 63t-93 23t-101 -23t-67 -63t-40.5 -93.5t-23.5 -113.5zM292 394l9 65q6 33 -9 33h-3q-15 0 -21 -33l-31 -217q-4 -33 10 -33h4q15 0 19 33l10 67h82l-9 -68q-8 -48 -37 -74.5t-68 -26.5h-19q-38 0 -59.5 27t-14.5 74l31 219
q7 48 35.5 74.5t67.5 26.5h18q40 0 62 -26.5t15 -73.5l-9 -67h-83z" />
    <glyph glyph-name="ordfeminine" unicode="&#xaa;" horiz-adv-x="146" 
d="M69 392q-24 0 -27.5 16.5t0.5 45.5l6 51q5 29 14.5 46t35.5 17h1q13 0 28 -12l12 85q3 22 -7 22h-1q-8 0 -11 -22l-9 -66h-52l9 68q5 29 22.5 45.5t43.5 16.5h10q25 0 39 -17t9 -47l-35 -246h-53l1 8q-19 -11 -34 -11h-2zM112 529q-8 0 -11 -21l-8 -57q-3 -21 5 -21
q9 0 13 16l11 76q0 4 -2 5.5t-4 1.5h-4z" />
    <glyph glyph-name="guillemotleft" unicode="&#xab;" horiz-adv-x="272" 
d="M62 39l-48 203l46 201h77l-46 -202l49 -202h-78zM180 39l-48 203l46 201h77l-46 -202l49 -202h-78z" />
    <glyph glyph-name="logicalnot" unicode="&#xac;" horiz-adv-x="330" 
d="M313 220h-65l14 100h-237l8 60h302z" />
    <glyph glyph-name="registered" unicode="&#xae;" horiz-adv-x="314" 
d="M53 526q5 37 18.5 69.5t35 57t50.5 38.5t66 14t62 -14t38.5 -38.5t17 -57t-1.5 -69.5t-18 -69.5t-33.5 -57t-49.5 -38.5t-66 -14t-62 14t-39 38.5t-18.5 57t0.5 69.5zM91 526q-5 -30 -3.5 -57t11 -47t29 -32t49.5 -12t52 12t36.5 32t23 47t13.5 57q4 30 3 57t-10 47
t-27 32t-49 12q-30 0 -52 -12t-37.5 -32t-25 -47t-13.5 -57zM253 551q-3 -25 -20 -33q8 -2 10.5 -11t0.5 -20l-7 -55h-39l5 43q4 21 -7 21h-9l-10 -64h-40l29 199h60q21 0 27.5 -16t3.5 -42zM202 537q11 0 14 22l1 11q3 21 -8 21h-9l-8 -54h10z" />
    <glyph glyph-name="macron" unicode="&#xaf;" horiz-adv-x="211" 
d="M210 597h-145l9 61h144z" />
    <glyph glyph-name="degree" unicode="&#xb0;" horiz-adv-x="118" 
d="M110 605q-20 0 -31.5 13.5t-9.5 32.5q3 20 18.5 34t35.5 14t32 -14t9 -34q-3 -19 -18.5 -32.5t-35.5 -13.5zM121 680q-12 0 -21.5 -8.5t-11.5 -20.5q-2 -11 5 -19t19 -8q11 0 20.5 8t11.5 19q2 12 -5 20.5t-18 8.5z" />
    <glyph glyph-name="plusminus" unicode="&#xb1;" horiz-adv-x="298" 
d="M146 464l17 118h68l-17 -118h101l-8 -60h-102l-16 -118h-68l16 118h-100l8 60h101zM223 48h-204l9 60h204z" />
    <glyph glyph-name="twosuperior" unicode="&#xb2;" horiz-adv-x="121" 
d="M59 577l12 82q3 24 18 35t31 11h6q17 0 29.5 -11t9.5 -35l-8 -48q-3 -23 -14 -40.5t-24 -37.5t-24.5 -45t-17.5 -62h57l-4 -34h-96l4 33q6 42 18 69t24.5 47t23.5 37t14 39l5 36q2 11 0.5 15t-5.5 4h-1q-8 0 -11 -19l-11 -76h-36z" />
    <glyph glyph-name="threesuperior" unicode="&#xb3;" horiz-adv-x="120" 
d="M91 567h13q11 0 14 22l9 64q2 11 0.5 14.5t-5.5 3.5h-2q-4 0 -6.5 -3t-3.5 -14l-11 -76h-40l13 82q3 23 17.5 34t31.5 11h8q17 0 29.5 -11t9.5 -34l-9 -66q-3 -20 -14 -29.5t-24 -11.5q12 -2 20.5 -10.5t5.5 -27.5l-11 -78q-3 -23 -18.5 -34t-32.5 -11h-8q-17 0 -28.5 11
t-8.5 34l11 82h40l-12 -76q-1 -11 0 -14t6 -3h1q5 0 7 3.5t4 14.5l10 73q3 22 -7 22h-12l1 15z" />
    <glyph glyph-name="acute" unicode="&#xb4;" horiz-adv-x="162" 
d="M18 583l47 86h78l-72 -86h-53z" />
    <glyph glyph-name="mu" unicode="&#xb5;" horiz-adv-x="221" 
d="M173 0h-82l3 22q-10 -8 -19 -13.5t-19 -8.5l-23 -164h-82l86 609h1l7 50h82l-7 -50l-51 -358q-2 -21 11 -21h2q8 0 14.5 9t8.5 26l57 394h82z" />
    <glyph glyph-name="paragraph" unicode="&#xb6;" horiz-adv-x="329" 
d="M301 633h-54l-114 -798h-66l79 554q-28 0 -47.5 14t-30.5 36t-15 49.5t0 55.5t15.5 56t29.5 50t41 35.5t51 13.5h187l-123 -864h-67z" />
    <glyph glyph-name="periodcentered" unicode="&#xb7;" horiz-adv-x="138" 
d="M106 196h-90l15 103h91z" />
    <glyph glyph-name="cedilla" unicode="&#xb8;" horiz-adv-x="181" 
d="M24 -104l8 40q9 -6 21 -8.5t22.5 -1t17 6.5t5.5 14q-2 11 -14 13.5t-23 -5.5l-17 7l20 38h49l-9 -22q19 8 36 0t17 -29q0 -28 -16.5 -43.5t-38.5 -21t-44.5 -2t-33.5 13.5z" />
    <glyph glyph-name="onesuperior" unicode="&#xb9;" horiz-adv-x="93" 
d="M60 392l35 248q-6 -1 -14.5 -2t-15.5 -1l5 30q13 0 25.5 9.5t14.5 22.5h33l-44 -307h-39z" />
    <glyph glyph-name="ordmasculine" unicode="&#xba;" horiz-adv-x="123" 
d="M77 392q-17 0 -29 11t-9 35l32 221q3 24 18 35t32 11h8q17 0 29 -11t9 -35l-32 -221q-3 -24 -18 -35t-32 -11h-8zM120 671q-7 0 -10 -18l-30 -209q-3 -18 5 -18h1q7 0 10 18l30 209q3 18 -5 18h-1z" />
    <glyph glyph-name="guillemotright" unicode="&#xbb;" horiz-adv-x="272" 
d="M41 39l49 202l-46 202h77l46 -201l-48 -203h-78zM159 39l49 202l-46 202h77l46 -201l-48 -203h-78z" />
    <glyph glyph-name="onequarter" unicode="&#xbc;" horiz-adv-x="283" 
d="M287 699h42l-301 -699h-42zM235 74l-4 -33h-16l-6 -41h-34l6 41h-60l4 33l80 231h47l-33 -231h16zM70 392l35 248q-6 -1 -14.5 -2t-15.5 -1l5 30q13 0 25.5 9.5t14.5 22.5h33l-44 -307h-39zM203 197h-1l-38 -122l-1 -1h22z" />
    <glyph glyph-name="onehalf" unicode="&#xbd;" horiz-adv-x="293" 
d="M287 699h42l-301 -699h-42zM69 392l36 248q-7 -1 -15.5 -2t-14.5 -1l5 30q13 0 25.5 9.5t14.5 22.5h33l-44 -307h-40zM170 185l11 82q4 24 19 35t32 11h5q17 0 29 -11t9 -35l-7 -48q-3 -23 -14 -40.5t-23.5 -37.5t-24.5 -45t-17 -62h56l-5 -34h-97l5 33q6 42 18 69t25 47
t24 37t14 39l5 36q2 11 0.5 15t-6.5 4h-1q-7 0 -10 -19l-11 -76h-36z" />
    <glyph glyph-name="threequarters" unicode="&#xbe;" horiz-adv-x="291" 
d="M286 699h43l-300 -699h-42zM267 199q-3 -20 -13.5 -30t-24.5 -12q12 -2 20.5 -10t5.5 -28l-11 -80q-3 -23 -18.5 -34t-32.5 -11h-8q-17 0 -29 11t-9 34l12 84h40l-12 -78q-1 -11 0.5 -14t5.5 -3h1q5 0 7 3.5t4 14.5l11 75q3 22 -8 22h-12l1 13l2 15h12q11 0 16 23l8 66
q2 11 1 14.5t-6 3.5h-1q-8 0 -11 -17l-11 -79h-39l12 84q4 24 18.5 35t31.5 11h8q17 0 29.5 -11t9.5 -35zM70 392l35 248q-6 -1 -14.5 -2t-14.5 -1l4 30q13 0 25 9.5t15 22.5h33l-43 -307h-40z" />
    <glyph glyph-name="questiondown" unicode="&#xbf;" horiz-adv-x="236" 
d="M204 116l-26 -183q-4 -27 -15 -47t-27 -32.5t-34.5 -18.5t-36.5 -6h-10q-19 0 -36 6t-29.5 18.5t-18.5 32.5t-2 47l16 107q5 34 16.5 61.5t26 52.5t30.5 49t28.5 52.5t20.5 63.5t7 81h89q0 -53 -8.5 -92t-22 -69.5t-29 -55t-30 -48.5t-26 -50t-16.5 -60l-11 -79
q-4 -24 -1 -33.5t12 -9.5h4q9 0 15 10t10 33l24 170h80zM131 534h91l-15 -104h-90z" />
    <glyph glyph-name="Agrave" unicode="&#xc0;" horiz-adv-x="243" 
d="M194 0l35 699h-113l-160 -699h76l40 180h48l-11 -180h85zM153 737l-47 86h78l23 -86h-54zM134 456h3l-13 -209h-37z" />
    <glyph glyph-name="Aacute" unicode="&#xc1;" horiz-adv-x="243" 
d="M109 0l11 180h-48l-40 -180h-76l160 699h113l-35 -699h-85zM151 737l49 86h77l-72 -86h-54zM87 247h37l13 209h-3z" />
    <glyph glyph-name="Acircumflex" unicode="&#xc2;" horiz-adv-x="243" 
d="M109 0l11 180h-48l-40 -180h-76l160 699h113l-35 -699h-85zM232 823l47 -86h-77l-16 43l-29 -43h-78l73 86h80zM87 247h37l13 209h-3z" />
    <glyph glyph-name="Atilde" unicode="&#xc3;" horiz-adv-x="243" 
d="M195 0l35 699h-114l-158 -699h75l40 180h48l-11 -180h85zM94 776q14 22 29 31t27 9q18 0 32.5 -9t32.5 -9q6 0 12 3t15 11l36 -25q-15 -23 -30 -31t-29 -8q-19 0 -32.5 8.5t-27.5 8.5q-8 0 -15 -2.5t-17 -11.5zM134 456h4l-13 -209h-37z" />
    <glyph glyph-name="Adieresis" unicode="&#xc4;" horiz-adv-x="243" 
d="M195 0l34 699h-113l-159 -699h76l40 180h48l-11 -180h85zM134 456h4l-13 -209h-37zM164 746h-59l10 71h59zM256 746h-58l10 71h58z" />
    <glyph glyph-name="Aring" unicode="&#xc5;" horiz-adv-x="243" 
d="M192 0l34 699h-113l-159 -699h76l40 180h47l-10 -180h85zM175 726q-26 0 -43.5 20t-14.5 46q2 14 9.5 26.5t18 22.5t23 15.5t25.5 5.5q28 0 46 -20.5t14 -49.5q-4 -26 -26.5 -46t-51.5 -20zM131 456h3l-13 -209h-36zM187 816q-8 0 -15.5 -7t-9.5 -16q-2 -8 4.5 -15
t14.5 -7q9 0 16.5 7t9.5 15q2 9 -4.5 16t-15.5 7z" />
    <glyph glyph-name="AE" unicode="&#xc6;" horiz-adv-x="340" 
d="M279 625l-34 -243h67l-9 -66h-67l-35 -242h93l-11 -74h-181l25 180h-62l-37 -180h-75l159 699h263l-11 -74h-85zM79 247h58l53 378h-31z" />
    <glyph glyph-name="Ccedilla" unicode="&#xc7;" 
d="M4 -110l14 40q9 -6 20.5 -8.5t22 -1t17.5 6.5t7 14q-1 11 -12.5 13.5t-23.5 -5.5l-16 7l25 38h7q-18 1 -33 7.5t-26 19.5t-15.5 32t-1.5 45l70 503q4 27 15.5 47t27.5 32.5t35 18.5t37 6h19q18 0 35 -6t29.5 -18.5t18 -32.5t1.5 -47l-26 -183h-89l25 170q3 23 0 33
t-12 10h-4q-9 0 -15 -9.5t-9 -33.5l-68 -477q-7 -43 12 -43h4q17 0 24 43l24 172h89l-26 -185q-4 -26 -14.5 -45t-25.5 -32t-32.5 -19.5t-35.5 -7.5h9l-11 -22q20 8 35.5 0t12.5 -29q-4 -28 -23 -43.5t-41.5 -21t-44 -2t-31.5 13.5z" />
    <glyph glyph-name="Egrave" unicode="&#xc8;" horiz-adv-x="202" 
d="M239 625l11 74h-174l-99 -699h181l11 74h-92l34 242h67l9 66h-67l34 243h85zM147 737l-48 86h78l24 -86h-54z" />
    <glyph glyph-name="Eacute" unicode="&#xc9;" horiz-adv-x="202" 
d="M154 625l-34 -243h67l-9 -66h-67l-34 -242h92l-11 -74h-181l99 699h174l-11 -74h-85zM144 737l49 86h78l-73 -86h-54z" />
    <glyph glyph-name="Ecircumflex" unicode="&#xca;" horiz-adv-x="202" 
d="M154 625l-34 -243h67l-9 -66h-67l-34 -242h92l-11 -74h-181l99 699h174l-11 -74h-85zM225 823l48 -86h-78l-16 44l-29 -44h-77l72 86h80z" />
    <glyph glyph-name="Edieresis" unicode="&#xcb;" horiz-adv-x="202" 
d="M240 625l10 74h-173l-99 -699h180l11 74h-92l34 242h68l8 66h-67l35 243h85zM157 746h-59l11 71h58zM250 746h-59l10 71h59z" />
    <glyph glyph-name="Igrave" unicode="&#xcc;" horiz-adv-x="117" 
d="M77 699l-99 -699h88l100 699h-89zM102 740l-48 86h78l24 -86h-54z" />
    <glyph glyph-name="Iacute" unicode="&#xcd;" horiz-adv-x="117" 
d="M166 699l-100 -699h-88l99 699h89zM100 740l48 86h78l-73 -86h-53z" />
    <glyph glyph-name="Icircumflex" unicode="&#xce;" horiz-adv-x="117" 
d="M166 699l-100 -699h-88l99 699h89zM180 826l48 -86h-78l-16 44l-29 -44h-77l72 86h80z" />
    <glyph glyph-name="Idieresis" unicode="&#xcf;" horiz-adv-x="117" 
d="M77 699l-98 -699h88l99 699h-89zM112 748h-59l11 72h58zM204 748h-58l10 72h59z" />
    <glyph glyph-name="Eth" unicode="&#xd0;" horiz-adv-x="245" 
d="M-21 0l45 319h-18l8 62h19l45 318h118q18 0 35.5 -6t29.5 -18.5t18 -32t2 -46.5l-70 -493q-4 -27 -15.5 -46.5t-27.5 -32t-35 -18.5t-37 -6h-117zM156 625l-35 -244h17l-9 -62h-17l-34 -245h22q9 0 14.5 9.5t9.5 32.5l66 467q4 23 0.5 32.5t-12.5 9.5h-22z" />
    <glyph glyph-name="Ntilde" unicode="&#xd1;" horiz-adv-x="276" 
d="M129 0l-16 422h-2l-59 -422h-74l98 699h99l11 -412h1l59 412h81l-99 -699h-99zM123 776q14 22 28.5 31t26.5 9q18 0 32.5 -9t32.5 -9q7 0 12.5 3t14.5 11l36 -25q-15 -23 -30 -31t-29 -8q-19 0 -32.5 8.5t-27.5 8.5q-8 0 -15 -2.5t-17 -11.5z" />
    <glyph glyph-name="Ograve" unicode="&#xd2;" 
d="M73 -6q-18 0 -35 6t-29 18.5t-18 32.5t-2 47l71 503q8 55 42 79.5t72 24.5h18q18 0 35.5 -6t29.5 -18.5t18 -32.5t2 -47l-72 -503q-8 -55 -42 -79.5t-72 -24.5h-18zM171 631q-18 0 -25 -43l-67 -477q-7 -43 11 -43h4q18 0 25 43l67 477q7 43 -11 43h-4zM163 737l-48 86
h77l25 -86h-54z" />
    <glyph glyph-name="Oacute" unicode="&#xd3;" 
d="M73 -6q-18 0 -35 6t-29 18.5t-18 32.5t-2 47l71 503q8 55 42 79.5t72 24.5h18q18 0 35.5 -6t29.5 -18.5t18 -32.5t2 -47l-72 -503q-8 -55 -42 -79.5t-72 -24.5h-18zM171 631q-18 0 -25 -43l-67 -477q-7 -43 11 -43h4q18 0 25 43l67 477q7 43 -11 43h-4zM160 737l48 86h78
l-72 -86h-54z" />
    <glyph glyph-name="Ocircumflex" unicode="&#xd4;" 
d="M73 -6q-18 0 -35 6t-29.5 18.5t-18.5 32.5t-2 47l71 503q4 27 15.5 47t27.5 32.5t34.5 18.5t37.5 6h18q18 0 35.5 -6t29.5 -18.5t18 -32.5t2 -47l-72 -503q-4 -27 -15.5 -47t-27 -32.5t-34.5 -18.5t-37 -6h-18zM171 631q-19 0 -25 -43l-67 -477q-7 -43 11 -43h4
q18 0 25 43l67 477q7 43 -11 43h-4zM240 823l49 -86h-78l-17 44l-28 -44h-78l72 86h80z" />
    <glyph glyph-name="Otilde" unicode="&#xd5;" 
d="M59 -6q-18 0 -35 6t-29.5 18.5t-18 32.5t-1.5 47l70 503q4 27 15.5 47t27.5 32.5t35 18.5t37 6h18q19 0 36 -6t29 -18.5t18 -32.5t2 -47l-71 -503q-4 -27 -15.5 -47t-27.5 -32.5t-35 -18.5t-37 -6h-18zM157 631q-20 0 -24 -43l-69 -477q-6 -43 13 -43h3q18 0 24 43
l69 477q4 43 -13 43h-3zM89 776q14 22 28.5 31t27.5 9q17 0 31 -9t32 -9q7 0 13.5 3t15.5 11l36 -25q-16 -23 -31 -31t-28 -8q-19 0 -32.5 8.5t-28.5 8.5q-7 0 -14.5 -2.5t-16.5 -11.5z" />
    <glyph glyph-name="Odieresis" unicode="&#xd6;" 
d="M73 -6q-18 0 -35 6t-29.5 18.5t-18 32.5t-1.5 47l71 503q4 27 15.5 47t27.5 32.5t34.5 18.5t37.5 6h18q18 0 35 -6t29.5 -18.5t18 -32.5t1.5 -47l-71 -503q-4 -27 -15.5 -47t-27.5 -32.5t-35 -18.5t-37 -6h-18zM171 631q-18 0 -24 -43l-68 -477q-7 -43 12 -43h4
q17 0 24 43l68 477q7 43 -12 43h-4zM173 746h-59l11 71h58zM265 746h-58l10 71h59z" />
    <glyph glyph-name="multiply" unicode="&#xd7;" horiz-adv-x="262" 
d="M96 349l-70 82l55 47l69 -81l92 81l41 -47l-93 -81l70 -81l-55 -47l-69 80l-92 -80l-39 47z" />
    <glyph glyph-name="Oslash" unicode="&#xd8;" horiz-adv-x="323" 
d="M78 -6q-21 0 -40 7.5t-31 23.5l-17 -35h-49l52 108l71 503q4 27 15.5 47t27.5 32.5t35 18.5t37 6h19q20 0 39 -7.5t31 -24.5l18 36h51l-56 -117l-70 -494q-4 -27 -15.5 -47t-27.5 -32.5t-35 -18.5t-37 -6h-18zM176 631q-20 0 -24 -43l-33 -226l57 119l16 107q6 43 -13 43
h-3zM96 68h4q17 0 24 43l31 222l-57 -120l-15 -102q-6 -43 13 -43z" />
    <glyph glyph-name="Ugrave" unicode="&#xd9;" horiz-adv-x="245" 
d="M77 -6q-18 0 -35 6t-29.5 18.5t-18.5 32.5t-2 47l86 601h89l-84 -588q-7 -43 11 -43h4q18 0 25 43l84 588h89l-87 -601q-8 -55 -42 -79.5t-72 -24.5h-18zM167 737l-49 86h78l24 -86h-53z" />
    <glyph glyph-name="Uacute" unicode="&#xda;" horiz-adv-x="245" 
d="M76 -6q-18 0 -35 6t-29 18.5t-18 32.5t-2 47l85 601h89l-84 -588q-6 -43 11 -43h4q19 0 25 43l84 588h89l-86 -601q-4 -27 -15.5 -47t-27 -32.5t-34.5 -18.5t-38 -6h-18zM164 737l47 86h78l-72 -86h-53z" />
    <glyph glyph-name="Ucircumflex" unicode="&#xdb;" horiz-adv-x="245" 
d="M76 -6q-18 0 -35 6t-29 18.5t-18 32.5t-2 47l85 601h89l-84 -588q-6 -43 11 -43h4q19 0 25 43l84 588h89l-86 -601q-4 -27 -15.5 -47t-27 -32.5t-34.5 -18.5t-38 -6h-18zM244 823l48 -86h-78l-16 43l-28 -43h-78l71 86h81z" />
    <glyph glyph-name="Udieresis" unicode="&#xdc;" horiz-adv-x="245" 
d="M76 -6q-18 0 -35 6t-29 18.5t-18 32.5t-2 47l85 601h89l-84 -588q-7 -43 12 -43h4q17 0 24 43l84 588h89l-86 -601q-4 -27 -15.5 -47t-27.5 -32.5t-34.5 -18.5t-37.5 -6h-18zM176 746h-59l11 71h58zM268 746h-58l10 71h59z" />
    <glyph glyph-name="Yacute" unicode="&#xdd;" horiz-adv-x="246" 
d="M155 254l-37 -254h-88l36 254l-13 445h89l-4 -243h3l65 243h89zM152 737l48 86h78l-73 -86h-53z" />
    <glyph glyph-name="Thorn" unicode="&#xde;" horiz-adv-x="235" 
d="M80 97l13 91l-27 -188h-88l99 699h89l-15 -101h29q39 0 61 -27t15 -73l-43 -301q-7 -46 -36 -73t-69 -27h-28zM110 166q15 0 19 33l42 297q6 33 -10 33h-20l-23 -163l-16 -113l-5 -37l17 122l-12 -85l-9 -65l4 28l-7 -50h20z" />
    <glyph glyph-name="germandbls" unicode="&#xdf;" horiz-adv-x="269" 
d="M284 453q-6 -45 -30.5 -66t-53.5 -27q29 -5 47 -23.5t12 -62.5l-25 -170q-8 -55 -42 -79.5t-72 -24.5h-33l10 74h18q9 0 19 9.5t14 33.5l22 159q4 23 0 37t-19 14h-18l5 30l5 34h18q15 0 22 14t11 37l21 146q3 24 -4 33.5t-16 9.5h-12q-9 0 -19 -10t-14 -33l-83 -588h-88
l85 601q4 27 16.5 47t29.5 32.5t37 18.5t39 6h26q18 0 36.5 -6t32.5 -18.5t21 -32.5t3 -47l-21 -148v0z" />
    <glyph glyph-name="agrave" unicode="&#xe0;" horiz-adv-x="218" 
d="M33 -3q-20 0 -30 7t-14 20t-3 31.5t4 41.5l11 80q7 46 22.5 73t54.5 27h2q12 0 24 -5.5t23 -13.5l20 138q6 33 -11 33h-2q-14 0 -20 -33l-14 -105h-83l15 107q7 47 36 73.5t69 26.5h18q39 0 60.5 -26.5t14.5 -74.5l-56 -397h-83l2 17q-14 -9 -29 -14.5t-28 -5.5h-3z
M126 535l-48 86h78l23 -86h-53zM104 216q-16 0 -20 -33l-13 -92q-4 -33 10 -33h1q15 0 21 28l17 120q-1 5 -4 7.5t-5 2.5h-7z" />
    <glyph glyph-name="aacute" unicode="&#xe1;" horiz-adv-x="222" 
d="M33 -3q-20 0 -30 7t-14 20t-3 31.5t4 41.5l11 80q7 46 22.5 73t54.5 27h2q12 0 24 -5.5t23 -13.5l20 138q6 33 -11 33h-2q-14 0 -20 -33l-14 -105h-83l15 107q7 47 36 73.5t69 26.5h18q39 0 60.5 -26.5t14.5 -74.5l-56 -397h-83l2 17q-14 -9 -29 -14.5t-28 -5.5h-3z
M123 535l49 86h78l-73 -86h-54zM104 216q-16 0 -20 -33l-13 -92q-4 -33 10 -33h1q15 0 21 28l17 120q-1 5 -4 7.5t-5 2.5h-7z" />
    <glyph glyph-name="acircumflex" unicode="&#xe2;" horiz-adv-x="224" 
d="M33 -3q-20 0 -30 7t-14 20t-3 31.5t4 41.5l11 80q7 46 22.5 73t54.5 27h2q12 0 24 -5.5t23 -13.5l20 138q6 33 -11 33h-2q-14 0 -20 -33l-14 -105h-83l15 107q7 47 36 73.5t69 26.5h18q39 0 60.5 -26.5t14.5 -74.5l-56 -397h-83l2 17q-14 -9 -29 -14.5t-28 -5.5h-3z
M204 621l48 -86h-78l-16 43l-29 -43h-78l73 86h80zM104 216q-16 0 -20 -33l-13 -92q-4 -33 10 -33h1q15 0 21 28l17 120q-1 5 -4 7.5t-5 2.5h-7z" />
    <glyph glyph-name="atilde" unicode="&#xe3;" horiz-adv-x="222" 
d="M33 -3q-20 0 -30 7t-14 20t-3 31.5t4 41.5l12 80q6 46 21.5 73t55.5 27h2q24 0 46 -19l20 138q6 33 -11 33h-2q-14 0 -20 -33l-14 -105h-83l16 107q6 47 35.5 73.5t68.5 26.5h18q39 0 60.5 -26.5t14.5 -74.5l-56 -397h-83l2 17q-14 -9 -29 -14.5t-28 -5.5h-3zM66 574
q14 22 29 30.5t28 8.5q17 0 31 -8.5t32 -8.5q7 0 13.5 3t14.5 11l36 -26q-16 -23 -30.5 -31t-28.5 -8q-19 0 -32 8.5t-28 8.5q-7 0 -14.5 -2.5t-16.5 -10.5zM104 216q-14 0 -20 -33l-13 -92q-4 -33 10 -33h1q15 0 21 28l17 120q-1 5 -4 7.5t-5 2.5h-7z" />
    <glyph glyph-name="adieresis" unicode="&#xe4;" horiz-adv-x="225" 
d="M34 -3q-38 0 -43.5 27t1.5 73l11 80q7 46 22.5 73t54.5 27h3q12 0 23.5 -5.5t22.5 -13.5l20 138q4 33 -11 33h-3q-15 0 -19 -33l-15 -105h-82l15 107q7 47 36.5 73.5t68.5 26.5h18q39 0 60.5 -26.5t14.5 -74.5l-57 -397h-82l2 17q-15 -9 -29.5 -14.5t-28.5 -5.5h-3z
M105 216q-15 0 -19 -33l-13 -92q-6 -33 9 -33h2q17 0 21 33l13 85l4 28q0 6 -3.5 9t-6.5 3h-7zM138 543h-59l11 72h58zM230 543h-58l10 72h59z" />
    <glyph glyph-name="aring" unicode="&#xe5;" horiz-adv-x="220" 
d="M33 -3q-20 0 -30 7t-14 20t-2.5 31.5t4.5 41.5l11 80q6 46 22 73t55 27h2q24 0 46 -19l20 138q6 33 -11 33h-2q-14 0 -20 -33l-14 -105h-83l16 107q6 47 35.5 73.5t68.5 26.5h18q40 0 61 -26.5t14 -74.5l-56 -397h-83l2 17q-14 -9 -29 -14.5t-28 -5.5h-3zM150 524
q-13 0 -24 5.5t-19 14.5t-12 21t-2 25q2 14 9 26.5t17.5 22t23.5 15t26 5.5q28 0 45.5 -20.5t13.5 -48.5q-4 -26 -26.5 -46t-51.5 -20zM104 216q-14 0 -20 -33l-13 -92q-4 -33 10 -33h1q15 0 21 28l17 122q-2 8 -9 8h-7zM163 613q-8 0 -16 -6.5t-10 -15.5q-1 -8 5 -15.5
t14 -7.5q9 0 17 7.5t9 15.5q2 9 -4 15.5t-15 6.5z" />
    <glyph glyph-name="ae" unicode="&#xe6;" horiz-adv-x="334" 
d="M34 -3q-20 0 -30 7t-14 20t-3 31.5t4 41.5l11 80q6 46 22 73t55 27h2q12 0 24 -5.5t23 -13.5l20 139q0 4 1 7q1 25 -12 25h-2q-16 0 -20 -33l-15 -105h-83l16 107q7 47 36 73.5t68 26.5h18q26 0 46 -13q24 13 50 13h18q40 0 62 -26.5t15 -73.5l-25 -171h-115l-18 -128
q-6 -33 10 -33h3q14 0 20 33l15 107h83l-16 -108q-7 -48 -36 -74.5t-69 -26.5h-19q-45 0 -65 35q-19 -16 -39.5 -25.5t-37.5 -9.5h-3zM104 216q-14 0 -20 -33l-12 -92q-6 -33 9 -33h2q14 0 21 27q0 8 1 13l16 110q-3 8 -10 8h-7zM247 284l16 112q4 33 -9 33h-3
q-17 0 -21 -31v-1v-1l-16 -112h33z" />
    <glyph glyph-name="ccedilla" unicode="&#xe7;" horiz-adv-x="219" 
d="M-5 -107l15 40q8 -6 19.5 -8.5t22 -1t17.5 6.5t7 14q0 11 -12 13.5t-23 -5.5l-17 7l26 39q-32 5 -48.5 31.5t-10.5 68.5l42 299q7 48 35.5 74.5t67.5 26.5h18q39 0 61.5 -26.5t14.5 -73.5l-15 -107h-82l15 105q4 33 -10 33h-3q-16 0 -20 -33l-43 -297q-4 -33 10 -33h4
q15 0 19 33l16 107h82l-15 -108q-6 -43 -30.5 -69t-58.5 -31l-12 -23q20 8 35.5 0t13.5 -29q-4 -28 -23 -43.5t-41.5 -21t-44.5 -2t-32 13.5z" />
    <glyph glyph-name="egrave" unicode="&#xe8;" horiz-adv-x="219" 
d="M82 66h4q15 0 19 33l15 107h82l-15 -108q-7 -48 -36.5 -74.5t-68.5 -26.5h-19q-38 0 -58.5 27t-14.5 74l42 299q7 48 35.5 74.5t67.5 26.5h18q39 0 61.5 -26.5t15.5 -73.5l-24 -171h-116l-18 -128q-4 -33 10 -33zM124 535l-47 86h77l24 -86h-54zM131 284l16 112
q6 33 -10 33h-2q-15 0 -21 -33l-16 -112h33z" />
    <glyph glyph-name="eacute" unicode="&#xe9;" horiz-adv-x="216" 
d="M83 66h3q14 0 20 33l15 107h82l-16 -108q-6 -48 -35.5 -74.5t-68.5 -26.5h-19q-38 0 -59 27t-14 74l41 299q8 48 36.5 74.5t67.5 26.5h18q39 0 61 -26.5t15 -73.5l-24 -171h-115l-18 -128q-4 -33 10 -33zM122 535l49 86h78l-73 -86h-54zM132 284l16 112q4 33 -10 33h-3
q-16 0 -20 -33l-16 -112h33z" />
    <glyph glyph-name="ecircumflex" unicode="&#xea;" horiz-adv-x="219" 
d="M82 66h4q15 0 19 33l15 107h82l-15 -108q-7 -48 -36.5 -74.5t-68.5 -26.5h-19q-38 0 -59 27t-14 74l42 299q7 48 35.5 74.5t67.5 26.5h18q39 0 61.5 -26.5t15.5 -73.5l-24 -171h-116l-18 -128q-4 -33 10 -33zM202 621l48 -86h-78l-16 44l-29 -44h-77l72 86h80zM131 284
l16 112q4 33 -10 33h-3q-16 0 -20 -33l-16 -112h33z" />
    <glyph glyph-name="edieresis" unicode="&#xeb;" horiz-adv-x="219" 
d="M82 66h4q15 0 19 33l16 107h82l-15 -108q-8 -48 -37.5 -74.5t-68.5 -26.5h-19q-38 0 -59 27t-13 74l41 299q7 48 36 74.5t68 26.5h18q39 0 61 -26.5t15 -73.5l-24 -171h-116l-18 -128q-4 -33 10 -33zM131 284l16 112q6 33 -10 33h-2q-15 0 -21 -33l-16 -112h33zM135 543
h-59l10 72h59zM227 543h-58l10 72h58z" />
    <glyph glyph-name="igrave" unicode="&#xec;" horiz-adv-x="107" 
d="M49 495l-70 -495h81l71 495h-82zM70 533l-47 86h78l23 -86h-54z" />
    <glyph glyph-name="iacute" unicode="&#xed;" horiz-adv-x="107" 
d="M131 495l-71 -495h-81l70 495h82zM68 533l48 86h78l-72 -86h-54z" />
    <glyph glyph-name="icircumflex" unicode="&#xee;" horiz-adv-x="107" 
d="M131 495l-71 -495h-81l70 495h82zM149 619l47 -86h-78l-16 43l-28 -43h-77l72 86h80z" />
    <glyph glyph-name="idieresis" unicode="&#xef;" horiz-adv-x="107" 
d="M49 495l-70 -495h82l70 495h-82zM80 542h-58l10 71h58zM173 542h-59l10 71h59z" />
    <glyph glyph-name="eth" unicode="&#xf0;" horiz-adv-x="253" 
d="M173 0h-66l-4 26q-14 -14 -29 -21.5t-29 -7.5h-4q-38 0 -47.5 27t-2.5 73l41 301q7 46 23 73t55 27h2q25 0 47 -24l16 111h-37l9 60h36l8 54h82l-8 -54h40l-9 -60h-40zM135 429q-16 0 -20 -33l-43 -297q-4 -33 10 -33h2q16 0 21 35l38 260l6 42q2 26 -12 26h-2z" />
    <glyph glyph-name="ntilde" unicode="&#xf1;" horiz-adv-x="222" 
d="M141 429q15 0 9 -33l-56 -396h82l57 398q7 46 -1.5 73t-48.5 27h-2q-13 0 -26.5 -7t-27.5 -18l3 22h-83l-69 -495h81l57 402q8 27 23 27h2zM103 574q14 22 28.5 30.5t27.5 8.5q17 0 31.5 -8.5t32.5 -8.5q7 0 12.5 3t14.5 11l36 -26q-15 -23 -30 -31t-28 -8
q-19 0 -32.5 8.5t-28.5 8.5q-7 0 -14.5 -2.5t-16.5 -10.5z" />
    <glyph glyph-name="ograve" unicode="&#xf2;" horiz-adv-x="219" 
d="M65 -3q-39 0 -60 27t-14 73l41 301q8 46 36.5 73t67.5 27h18q39 0 61 -27t15 -73l-43 -301q-6 -46 -35.5 -73t-68.5 -27h-18zM135 429q-16 0 -20 -33l-42 -297q-4 -33 11 -33h2q14 0 20 33l42 297q4 33 -10 33h-3zM125 535l-47 86h77l24 -86h-54z" />
    <glyph glyph-name="oacute" unicode="&#xf3;" horiz-adv-x="216" 
d="M65 -3q-39 0 -60 27t-14 73l41 301q8 46 36.5 73t67.5 27h18q39 0 61 -27t15 -73l-43 -301q-6 -46 -35.5 -73t-68.5 -27h-18zM135 429q-16 0 -20 -33l-42 -297q-4 -33 11 -33h2q14 0 20 33l42 297q4 33 -10 33h-3zM123 535l48 86h78l-73 -86h-53z" />
    <glyph glyph-name="ocircumflex" unicode="&#xf4;" horiz-adv-x="219" 
d="M65 -3q-39 0 -60 27t-14 73l42 301q7 46 35.5 73t67.5 27h18q39 0 61.5 -27t14.5 -73l-42 -301q-7 -46 -36.5 -73t-68.5 -27h-18zM135 429q-16 0 -20 -33l-42 -297q-4 -33 11 -33h3q15 0 19 33l42 297q4 33 -10 33h-3zM204 621l47 -86h-78l-16 43l-28 -43h-78l72 86h81z
" />
    <glyph glyph-name="otilde" unicode="&#xf5;" horiz-adv-x="219" 
d="M64 -3q-39 0 -60 27t-14 73l42 301q7 46 36 73t68 27h18q39 0 61 -27t15 -73l-43 -301q-7 -46 -36.5 -73t-68.5 -27h-18zM134 429q-14 0 -20 -33l-42 -297q-4 -33 11 -33h3q15 0 19 33l42 297q6 33 -10 33h-3zM65 574q14 22 29 30.5t27 8.5q18 0 32 -8.5t32 -8.5
q7 0 13 3t14 11l37 -26q-16 -23 -31 -31t-28 -8q-19 0 -32.5 8.5t-27.5 8.5q-8 0 -15 -2.5t-17 -10.5z" />
    <glyph glyph-name="odieresis" unicode="&#xf6;" horiz-adv-x="219" 
d="M65 -3q-39 0 -60 27t-14 73l42 301q7 46 35.5 73t68.5 27h18q39 0 61 -27t15 -73l-43 -301q-7 -46 -36.5 -73t-68.5 -27h-18zM135 429q-16 0 -20 -33l-42 -297q-4 -33 11 -33h3q15 0 19 33l42 297q4 33 -10 33h-3zM136 545h-59l11 72h58zM228 545h-58l10 72h59z" />
    <glyph glyph-name="divide" unicode="&#xf7;" horiz-adv-x="354" 
d="M354 319h-330l9 61h330zM247 411h-90l14 104h91zM215 183h-90l14 104h91z" />
    <glyph glyph-name="oslash" unicode="&#xf8;" horiz-adv-x="264" 
d="M67 -3q-31 0 -51 17l-14 -27h-49l39 76q-2 8 -1.5 16.5t1.5 17.5l43 301q7 46 35.5 73t67.5 27h18q28 0 48 -15l13 25h50l-35 -69q2 -9 2.5 -19.5t-1.5 -21.5l-43 -301q-7 -46 -36.5 -73t-68.5 -27h-18zM85 66h3q14 0 20 33l19 133l-46 -90l-6 -43q-6 -33 10 -33z
M138 429q-17 0 -21 -33l-17 -119l46 91l4 28q4 33 -9 33h-3z" />
    <glyph glyph-name="ugrave" unicode="&#xf9;" horiz-adv-x="221" 
d="M81 66q-15 0 -9 33l56 396h-83l-56 -398q-6 -46 2 -73t46 -27h3q13 0 27 7t28 18l-3 -22h82l71 495h-83l-56 -394l-1 -3q-2 -15 -8.5 -23.5t-13.5 -8.5h-2zM125 533l-48 86h78l24 -86h-54z" />
    <glyph glyph-name="uacute" unicode="&#xfa;" horiz-adv-x="221" 
d="M83 66q7 0 13.5 8.5t8.5 23.5l1 3l56 394h83l-71 -495h-82l3 22q-14 -11 -28 -18t-27 -7h-3q-38 0 -46 27t-2 73l56 398h83l-56 -396q-6 -33 9 -33h2zM122 533l49 86h78l-73 -86h-54z" />
    <glyph glyph-name="ucircumflex" unicode="&#xfb;" horiz-adv-x="221" 
d="M83 66q7 0 13.5 8.5t8.5 23.5l1 3l56 394h83l-71 -495h-82l3 22q-14 -11 -28 -18t-27 -7h-3q-38 0 -46 27t-2 73l56 398h83l-56 -396q-6 -33 9 -33h2zM204 619l47 -86h-78l-16 44l-29 -44h-77l72 86h81z" />
    <glyph glyph-name="udieresis" unicode="&#xfc;" horiz-adv-x="221" 
d="M81 66q-16 0 -10 33l57 396h-83l-56 -398q-7 -46 1.5 -73t46.5 -27h3q25 0 54 24l-3 -21h83l71 495h-83l-58 -404q-8 -25 -22 -25h-1zM227 542h-59l10 71h59zM134 542h-58l10 71h58z" />
    <glyph glyph-name="yacute" unicode="&#xfd;" horiz-adv-x="204" 
d="M170 495h67l-156 -660h-81l42 165l-5 495h75l-10 -268h3zM116 535l49 86h77l-72 -86h-54z" />
    <glyph glyph-name="thorn" unicode="&#xfe;" horiz-adv-x="231" 
d="M165 699l-29 -201h28q40 0 61.5 -27t15.5 -73l-43 -301q-6 -46 -35.5 -73t-69.5 -27h-28l-23 -162h-88l122 864h89zM127 429l-52 -363h20q15 0 19 33l43 297q4 33 -10 33h-20z" />
    <glyph glyph-name="ydieresis" unicode="&#xff;" horiz-adv-x="204" 
d="M105 227h-3l9 268h-74l5 -495l-42 -165h80l156 660h-67zM127 546h-59l11 71h58zM219 546h-58l10 71h59z" />
    <glyph glyph-name="Amacron" unicode="&#x100;" horiz-adv-x="243" 
d="M109 0l11 180h-48l-40 -180h-75l159 699h113l-35 -699h-85zM253 751h-145l9 61h145zM87 247h37l13 209h-3z" />
    <glyph glyph-name="amacron" unicode="&#x101;" horiz-adv-x="219" 
d="M33 -3q-20 0 -30 7t-14 20t-2.5 31.5t4.5 41.5l11 80q7 46 22.5 73t54.5 27h2q24 0 46 -19l20 138q6 33 -10 33h-3q-14 0 -20 -33l-14 -105h-83l16 107q6 47 35.5 73.5t68.5 26.5h18q40 0 61 -26.5t14 -74.5l-56 -397h-83l2 17q-15 -9 -29.5 -14.5t-27.5 -5.5h-3z
M226 549h-145l9 61h145zM104 216q-14 0 -20 -33l-13 -92q-4 -33 10 -33h1q17 0 21 29l1 3v1l1 6l15 111q-2 8 -9 8h-7z" />
    <glyph glyph-name="Abreve" unicode="&#x102;" horiz-adv-x="243" 
d="M194 0l35 699h-113l-159 -699h75l40 180h48l-11 -180h85zM170 819q-2 -9 3.5 -16t15.5 -7q9 0 16.5 7t9.5 16h52q-4 -30 -29.5 -52t-56.5 -22q-14 0 -26.5 6t-21 16t-12.5 23.5t-2 28.5h51zM134 456h4l-14 -209h-37z" />
    <glyph glyph-name="abreve" unicode="&#x103;" horiz-adv-x="219" 
d="M33 -3q-38 0 -43.5 27t1.5 73l11 80q7 46 22.5 73t54.5 27h3q24 0 46 -19l20 138q4 33 -11 33h-3q-15 0 -19 -33l-15 -105h-82l15 107q7 47 36.5 73.5t68.5 26.5h18q39 0 60.5 -26.5t13.5 -74.5l-56 -397h-82l2 17q-14 -9 -29 -14.5t-28 -5.5h-4zM143 616
q-2 -8 3.5 -15.5t14.5 -7.5t16.5 7.5t9.5 15.5h53q-5 -29 -30 -51.5t-57 -22.5q-14 0 -26 6t-20.5 16.5t-12.5 23.5t-2 28h51zM104 216q-15 0 -19 -33l-13 -92q-6 -33 9 -33h2q17 0 21 33l16 112q2 7 -1.5 10t-7.5 3h-7z" />
    <glyph glyph-name="Aogonek" unicode="&#x104;" horiz-adv-x="243" 
d="M198 -68q-12 -19 -31.5 -27t-37 -5.5t-29 15t-8.5 33.5q4 31 35 52h-18l11 180h-48l-40 -180h-75l159 699h113l-35 -699h-4q-20 -5 -33.5 -18t-14.5 -24q-2 -13 8.5 -15.5t21.5 8.5zM87 247h37l14 209h-4z" />
    <glyph glyph-name="aogonek" unicode="&#x105;" horiz-adv-x="219" 
d="M34 -3q-20 0 -30 7t-14 20t-3 31.5t4 41.5l10 80q7 46 23 73t55 27h2q23 0 47 -19l20 138q4 33 -11 33h-3q-15 0 -19 -33l-15 -105h-83l16 107q6 47 35.5 73.5t69.5 26.5h18q39 0 60 -26.5t15 -74.5l-57 -397h-83l2 17q-14 -9 -28.5 -14.5t-27.5 -5.5h-3zM154 -49
q-11 -11 -21 -8.5t-9 15.5q2 11 15.5 24t33.5 18h-64q-31 -21 -35 -52q-3 -21 8.5 -33.5t29.5 -15t37.5 5.5t31.5 27zM104 216q-14 0 -20 -33l-13 -92q-4 -33 10 -33h1q17 0 21 30l18 120q-3 8 -10 8h-7z" />
    <glyph glyph-name="Cacute" unicode="&#x106;" 
d="M73 -6q-18 0 -35 6t-29 18.5t-18 32.5t-2 47l71 503q4 27 15.5 47t27 32.5t34.5 18.5t37 6h18q19 0 36 -6t29.5 -18.5t18 -32.5t1.5 -47l-26 -183h-88l24 170q3 23 0 33t-12 10h-4q-9 0 -15 -9.5t-10 -33.5l-67 -477q-7 -43 11 -43h4q18 0 25 43l25 172h88l-26 -185
q-4 -27 -15.5 -47t-27.5 -32.5t-34.5 -18.5t-37.5 -6h-18zM161 739l47 86h78l-72 -86h-53z" />
    <glyph glyph-name="cacute" unicode="&#x107;" horiz-adv-x="219" 
d="M132 291l15 105q4 33 -10 33h-3q-16 0 -20 -33l-42 -297q-4 -33 10 -33h4q15 0 19 33l15 107h82l-15 -108q-7 -48 -36.5 -74.5t-68.5 -26.5h-19q-38 0 -59 27t-14 74l42 299q7 48 35.5 74.5t67.5 26.5h18q39 0 61.5 -26.5t15.5 -73.5l-15 -107h-83zM122 535l48 86h78
l-73 -86h-53z" />
    <glyph glyph-name="Ccircumflex" unicode="&#x108;" 
d="M73 -6q-18 0 -35 6t-29 18.5t-18 32.5t-2 47l71 503q4 27 15.5 47t27 32.5t34.5 18.5t37 6h18q19 0 36 -6t29.5 -18.5t18 -32.5t1.5 -47l-26 -183h-88l24 170q3 23 0 33t-12 10h-4q-9 0 -15 -9.5t-10 -33.5l-67 -477q-7 -43 11 -43h4q18 0 25 43l25 172h88l-26 -185
q-4 -27 -15.5 -47t-27.5 -32.5t-34.5 -18.5t-37.5 -6h-18zM241 825l48 -86h-78l-16 43l-28 -43h-78l72 86h80z" />
    <glyph glyph-name="ccircumflex" unicode="&#x109;" horiz-adv-x="219" 
d="M133 291l15 105q4 33 -10 33h-3q-16 0 -20 -33l-42 -297q-4 -33 10 -33h3q14 0 20 33l15 107h82l-16 -108q-6 -48 -35.5 -74.5t-68.5 -26.5h-19q-38 0 -59 27t-14 74l41 299q8 48 36.5 74.5t67.5 26.5h18q39 0 61 -26.5t15 -73.5l-14 -107h-83zM203 621l48 -86h-78
l-16 44l-29 -44h-77l72 86h80z" />
    <glyph glyph-name="Cdotaccent" unicode="&#x10a;" 
d="M73 -6q-18 0 -35 6t-29 18.5t-18 32.5t-2 47l71 503q4 27 15.5 47t27.5 32.5t34.5 18.5t37.5 6h18q18 0 35 -6t29.5 -18.5t18 -32.5t1.5 -47l-26 -183h-88l24 170q4 23 0.5 33t-12.5 10h-4q-9 0 -15 -9.5t-9 -33.5l-68 -477q-7 -43 12 -43h4q17 0 24 43l25 172h88
l-26 -185q-4 -27 -15.5 -47t-27.5 -32.5t-34.5 -18.5t-37.5 -6h-18zM217 748h-58l10 71h59z" />
    <glyph glyph-name="cdotaccent" unicode="&#x10b;" horiz-adv-x="219" 
d="M133 291l15 105q4 33 -10 33h-3q-16 0 -20 -33l-42 -297q-4 -33 10 -33h4q15 0 19 33l15 107h83l-16 -108q-7 -48 -36.5 -74.5t-68.5 -26.5h-19q-38 0 -59 27t-14 74l41 299q8 48 36.5 74.5t68.5 26.5h18q39 0 61 -26.5t15 -73.5l-15 -107h-83zM180 544h-59l11 72h58z
" />
    <glyph glyph-name="Ccaron" unicode="&#x10c;" 
d="M73 -6q-18 0 -35 6t-29 18.5t-18 32.5t-2 47l71 503q4 27 15.5 47t27 32.5t34.5 18.5t37 6h18q19 0 36 -6t29.5 -18.5t18 -32.5t1.5 -47l-26 -183h-88l24 170q3 23 0 33t-12 10h-4q-9 0 -15 -9.5t-10 -33.5l-67 -477q-7 -43 11 -43h4q18 0 25 43l25 172h88l-27 -185
q-8 -55 -42 -79.5t-72 -24.5h-18zM148 739l-48 86h78l16 -43l28 43h78l-72 -86h-80z" />
    <glyph glyph-name="ccaron" unicode="&#x10d;" horiz-adv-x="219" 
d="M133 291l15 105q4 33 -10 33h-3q-16 0 -20 -33l-42 -297q-4 -33 10 -33h3q16 0 20 33l15 107h82l-15 -108q-7 -48 -36.5 -74.5t-68.5 -26.5h-19q-38 0 -59 27t-14 74l41 299q8 48 36.5 74.5t67.5 26.5h18q39 0 61.5 -26.5t14.5 -73.5l-14 -107h-83zM110 536l-48 86h78
l16 -44l29 44h77l-72 -86h-80z" />
    <glyph glyph-name="Dcaron" unicode="&#x10e;" horiz-adv-x="245" 
d="M-21 0l99 699h118q18 0 35.5 -6t29.5 -18.5t18 -32t2 -46.5l-70 -493q-4 -27 -15.5 -46.5t-27.5 -32t-35 -18.5t-37 -6h-117zM156 625l-78 -551h22q9 0 14.5 9.5t8.5 32.5l67 467q4 23 0.5 32.5t-12.5 9.5h-22zM152 738l-48 86h78l15 -44l29 44h78l-72 -86h-80z" />
    <glyph glyph-name="dcaron" unicode="&#x10f;" horiz-adv-x="337" 
d="M41 -3q-38 0 -47.5 27t-2.5 73l41 301q7 46 23 73t55 27h2q25 0 47 -24l32 225h82l-100 -699h-66l-4 26q-14 -14 -29 -21.5t-29 -7.5h-4zM383 595l-37 -63h-37l25 63h-42l15 104h90zM135 429q-16 0 -20 -33l-43 -297q-4 -33 10 -33h2q16 0 21 35l38 260l6 42q2 26 -12 26
h-2z" />
    <glyph glyph-name="Dcroat" unicode="&#x110;" horiz-adv-x="262" 
d="M-19 0l45 319h-18l9 62h18l45 318h118q18 0 35 -6t29.5 -18.5t18 -32t1.5 -46.5l-69 -493q-4 -27 -15.5 -46.5t-27.5 -32t-35 -18.5t-37 -6h-117zM158 625l-35 -244h18l-9 -62h-18l-34 -245h22q9 0 14.5 9.5t8.5 32.5l67 467q4 23 0.5 32.5t-12.5 9.5h-22z" />
    <glyph glyph-name="dcroat" unicode="&#x111;" horiz-adv-x="256" 
d="M173 0h-66l-4 26q-14 -14 -29 -21.5t-29 -7.5h-4q-38 0 -47.5 27t-2.5 73l41 301q7 46 23 73t55 27h2q25 0 47 -24l16 111h-37l9 60h36l8 54h82l-8 -54h40l-9 -60h-40zM135 429q-16 0 -20 -33l-43 -297q-4 -33 10 -33h2q16 0 21 35l38 260l6 42q2 26 -12 26h-2z" />
    <glyph glyph-name="Emacron" unicode="&#x112;" horiz-adv-x="202" 
d="M155 625l-35 -243h67l-9 -66h-67l-34 -242h92l-11 -74h-180l98 699h174l-10 -74h-85zM247 751h-145l9 61h144z" />
    <glyph glyph-name="emacron" unicode="&#x113;" horiz-adv-x="219" 
d="M82 66h4q15 0 19 33l16 107h82l-15 -108q-8 -48 -37.5 -74.5t-68.5 -26.5h-19q-38 0 -59 27t-13 74l41 299q7 48 36 74.5t68 26.5h18q39 0 61 -26.5t15 -73.5l-24 -171h-116l-18 -128q-4 -33 10 -33zM224 549h-144l8 61h145zM131 284l16 112q6 33 -10 33h-2
q-15 0 -21 -33l-16 -112h33z" />
    <glyph glyph-name="Ebreve" unicode="&#x114;" horiz-adv-x="202" 
d="M240 625l10 74h-174l-99 -699h181l11 74h-92l34 242h67l9 66h-67l35 243h85zM163 819q-2 -9 3.5 -16t15.5 -7q9 0 16.5 7t9.5 16h52q-4 -30 -29.5 -52t-56.5 -22q-14 0 -26.5 6t-21 16t-12.5 23.5t-2 28.5h51z" />
    <glyph glyph-name="ebreve" unicode="&#x115;" horiz-adv-x="219" 
d="M83 66h3q14 0 20 33l15 107h82l-15 -108q-7 -48 -36.5 -74.5t-68.5 -26.5h-19q-38 0 -59 27t-14 74l41 299q8 48 36.5 74.5t68.5 26.5h18q39 0 60.5 -26.5t14.5 -73.5l-23 -171h-116l-18 -128q-4 -33 10 -33zM141 616q-2 -8 3.5 -15.5t15.5 -7.5q9 0 16.5 7.5t9.5 15.5
h52q-5 -29 -30 -51.5t-57 -22.5q-14 0 -26 6t-20.5 16.5t-12.5 23.5t-2 28h51zM132 284l16 112q4 33 -10 33h-3q-16 0 -20 -33l-16 -112h33z" />
    <glyph glyph-name="Edotaccent" unicode="&#x116;" horiz-adv-x="202" 
d="M240 625l10 74h-174l-98 -699h180l11 74h-92l34 242h67l9 66h-67l35 243h85zM201 747h-58l10 71h58z" />
    <glyph glyph-name="edotaccent" unicode="&#x117;" horiz-adv-x="219" 
d="M82 66h4q15 0 19 33l16 107h82l-15 -108q-8 -48 -37.5 -74.5t-68.5 -26.5h-19q-38 0 -59 27t-13 74l41 299q7 48 36 74.5t68 26.5h18q39 0 61 -26.5t15 -73.5l-24 -171h-116l-18 -128q-4 -33 10 -33zM131 284l16 112q6 33 -10 33h-2q-15 0 -21 -33l-16 -112h33zM179 544
h-58l10 72h58z" />
    <glyph glyph-name="Eogonek" unicode="&#x118;" horiz-adv-x="202" 
d="M116 -68q-12 -19 -31.5 -27t-36.5 -5.5t-29 15t-9 33.5q4 31 35 52h-66l99 699h174l-11 -74h-85l-35 -243h68l-10 -66h-67l-34 -242h92l-11 -74h-51q-20 -5 -33.5 -18t-14.5 -24q-1 -13 9 -15.5t21 8.5z" />
    <glyph glyph-name="eogonek" unicode="&#x119;" horiz-adv-x="219" 
d="M121 -71q-12 -19 -31.5 -27t-37.5 -5.5t-29.5 15t-8.5 33.5q6 34 37 53q-32 5 -49 31t-12 69l42 299q8 48 36.5 74.5t67.5 26.5h18q39 0 61 -26.5t15 -73.5l-24 -171h-116l-18 -128q-4 -33 10 -33h4q15 0 19 33l16 107h82l-16 -108q-6 -40 -27.5 -65t-52.5 -33
q-20 -8 -30.5 -21.5t-11.5 -23.5q-2 -13 8.5 -15.5t20.5 8.5zM131 284l17 112q4 33 -10 33h-3q-16 0 -20 -33l-16 -112h32z" />
    <glyph glyph-name="Ecaron" unicode="&#x11a;" horiz-adv-x="202" 
d="M241 625l11 74h-174l-99 -699h180l11 74h-92l34 242h67l10 66h-67l34 243h85zM133 738l-47 86h77l16 -44l29 44h78l-73 -86h-80z" />
    <glyph glyph-name="ecaron" unicode="&#x11b;" horiz-adv-x="219" 
d="M82 66h4q15 0 19 33l15 107h82l-15 -108q-7 -48 -36.5 -74.5t-68.5 -26.5h-19q-38 0 -59 27t-14 74l42 299q7 48 35.5 74.5t67.5 26.5h18q39 0 61.5 -26.5t15.5 -73.5l-24 -171h-116l-18 -128q-4 -33 10 -33zM109 536l-48 86h78l16 -44l29 44h78l-73 -86h-80zM131 284
l16 112q6 33 -10 33h-3q-14 0 -20 -33l-16 -112h33z" />
    <glyph glyph-name="Gcircumflex" unicode="&#x11c;" 
d="M121 283h111l-22 -154l-2 -9l-16 -120h-43l-7 23q-17 -14 -34 -21.5t-30 -7.5h-5q-18 0 -35 6t-29 18.5t-18 32.5t-2 47l71 503q8 55 42 79.5t72 24.5h18q18 0 35.5 -6t29.5 -18.5t18 -32.5t2 -47l-26 -183h-88l24 170q3 23 0 33t-12 10h-4q-9 0 -15 -9.5t-10 -33.5
l-67 -477q-7 -43 11 -43h4q18 0 25 43l13 98h-22zM241 823l48 -86h-78l-17 44l-28 -44h-77l71 86h81z" />
    <glyph glyph-name="gcircumflex" unicode="&#x11d;" horiz-adv-x="220" 
d="M244 495l-80 -559q-7 -47 -36 -74t-67 -27h-19q-38 0 -60 26.5t-15 74.5l5 35h82l-5 -34q-4 -33 10 -33h4q13 0 19 33l11 82q-14 -10 -27 -16t-25 -6h-3q-38 0 -46.5 27t-1.5 73l42 301q6 46 23.5 73t56.5 27h3q26 0 49 -26l13 23h67zM83 66q17 0 22 35l42 293
q5 35 -12 35h-1q-14 0 -20 -33l-42 -297q-4 -33 9 -33h2zM203 621l47 -86h-78l-16 43l-28 -43h-78l73 86h80z" />
    <glyph glyph-name="Gbreve" unicode="&#x11e;" 
d="M73 -6q-18 0 -35 6t-29 18.5t-18 32.5t-2 47l71 503q4 27 15.5 47t27 32.5t34.5 18.5t38 6h18q18 0 35 -6t29.5 -18.5t18 -32.5t1.5 -47l-26 -183h-88l24 170q4 23 0.5 33t-12.5 10h-4q-9 0 -15 -9.5t-9 -33.5l-68 -477q-7 -43 12 -43h4q17 0 24 43l14 98h-23l11 74h111
l-22 -151h1l-19 -132h-43l-7 23q-17 -14 -34 -21.5t-30 -7.5h-5zM178 819q-1 -9 4.5 -16t14.5 -7t17 7t9 16h53q-5 -30 -30 -52t-57 -22q-14 0 -26.5 6t-21 16t-12.5 23.5t-2 28.5h51z" />
    <glyph glyph-name="gbreve" unicode="&#x11f;" horiz-adv-x="220" 
d="M177 495l-13 -23q-23 26 -49 26h-3q-39 0 -56 -27t-24 -73l-42 -301q-7 -46 1.5 -73t46.5 -27h2q12 0 25.5 6t27.5 16l-11 -82q-6 -33 -20 -33h-3q-16 0 -10 33l5 34h-82l-5 -35q-7 -48 15 -74.5t60 -26.5h19q38 0 67 27t36 74q3 25 9.5 69t14 98t16 112.5t16 112.5
t14 98t10.5 69h-67zM82 66q-14 0 -11 33l43 297q6 33 19 33h2q17 0 12 -35l-42 -293q-5 -35 -21 -35h-2zM140 616q-2 -8 4 -15.5t15 -7.5t16.5 7.5t9.5 15.5h52q-2 -15 -10 -28t-19.5 -23.5t-26.5 -16.5t-30 -6q-14 0 -26.5 6t-21 16.5t-12.5 23.5t-2 28h51z" />
    <glyph glyph-name="Gdotaccent" unicode="&#x120;" 
d="M121 283h111l-22 -154l-2 -9l-16 -120h-43l-7 23q-17 -14 -34 -21.5t-31 -7.5h-4q-18 0 -35 6t-29.5 18.5t-18 32.5t-1.5 47l71 503q4 27 15.5 47t27.5 32.5t34.5 18.5t37.5 6h18q18 0 35 -6t29.5 -18.5t18 -32.5t1.5 -47l-26 -183h-89l25 170q4 23 0.5 33t-12.5 10h-4
q-9 0 -15 -9.5t-9 -33.5l-68 -477q-7 -43 12 -43h4q17 0 24 43l13 98h-22zM217 747h-58l10 71h58z" />
    <glyph glyph-name="gdotaccent" unicode="&#x121;" horiz-adv-x="220" 
d="M177 495l-13 -23q-23 26 -48 26h-4q-39 0 -56 -27t-24 -73l-42 -301q-7 -46 1.5 -73t46.5 -27h3q24 0 52 22l-11 -82q-6 -33 -19 -33h-4q-14 0 -10 33l5 34h-82l-5 -35q-7 -48 15 -74.5t61 -26.5h19q38 0 66.5 27t35.5 74q3 25 9.5 69t14 98t16 112.5t16 112.5t14 98
t10.5 69h-67zM82 66q-14 0 -10 33l42 297q6 33 19 33h2q17 0 12 -35l-42 -293q-5 -35 -21 -35h-2zM179 544h-58l9 72h59z" />
    <glyph glyph-name="uni0122" unicode="&#x122;" 
d="M121 283h112l-22 -154l-2 -11l-17 -118h-43l-6 23q-18 -14 -35 -21.5t-30 -7.5h-5q-18 0 -35 6t-29 18.5t-18 32.5t-2 47l72 503q8 55 42 79.5t72 24.5h18q18 0 35.5 -6t29.5 -18.5t18 -32.5t2 -47l-26 -183h-89l24 170q4 23 0.5 33t-12.5 10h-4q-9 0 -15 -9.5t-9 -33.5
l-67 -477q-7 -43 11 -43h4q17 0 24 40v3h1l13 98h-22zM103 -134l-36 -63h-37l24 63h-42l16 104h90z" />
    <glyph glyph-name="uni0123" unicode="&#x123;" horiz-adv-x="220" 
d="M176 495l-13 -22q-11 11 -23 18t-25 7h-3q-39 0 -56.5 -27t-23.5 -73l-42 -301q-7 -46 1.5 -73t46.5 -27h2q24 0 52 22l-11 -82q-4 -33 -19 -33h-4q-13 0 -10 33l5 34h-82l-4 -35q-7 -48 15 -74.5t60 -26.5h19q38 0 67 27t35 74q4 25 10.5 69t14 98t16 112.5t16 112.5
t13.5 98t10 69h-67zM81 66q-14 0 -10 33l43 297q4 33 19 33h1q13 0 13 -25l-45 -314q-6 -24 -19 -24h-2zM126 610l26 46h34l-17 -46h21l-10 -76h-64z" />
    <glyph glyph-name="Hcircumflex" unicode="&#x124;" 
d="M294 699l-100 -699h-89l46 316h-39l-45 -316h-88l99 699h89l-45 -317h38l45 317h89zM245 823l47 -86h-78l-16 44l-29 -44h-77l72 86h81z" />
    <glyph glyph-name="hcircumflex" unicode="&#x125;" horiz-adv-x="223" 
d="M140 429q-7 0 -13.5 -8t-9.5 -22v-5l-56 -394h-82l99 699h82l-32 -227q29 26 55 26h2q39 0 47.5 -27t1.5 -73l-57 -398h-82l57 396q4 33 -10 33h-2zM177 823l47 -86h-78l-16 43l-28 -43h-78l73 86h80z" />
    <glyph glyph-name="LATIN CAPITAL LETTER H WITH STROKE" unicode="&#x126;" 
d="M53 526l25 173h89l-25 -173h38l25 173h89l-25 -173h18l-8 -60h-19l-66 -466h-89l46 316h-39l-45 -316h-88l66 466h-18l8 60h18zM160 382l12 84h-38l-12 -84h38z" />
    <glyph glyph-name="LATIN SMALL LETTER H WITH STROKE" unicode="&#x127;" horiz-adv-x="223" 
d="M140 429q-7 0 -13.5 -8t-9.5 -22v-5l-56 -394h-82l83 585h-26l8 60h26l8 54h82l-8 -54h50l-8 -60h-50l-16 -113q29 26 55 26h2q39 0 47.5 -27t1.5 -73l-57 -398h-82l57 396q4 33 -10 33h-2z" />
    <glyph glyph-name="Itilde" unicode="&#x128;" horiz-adv-x="117" 
d="M78 699l-98 -699h88l99 699h-89zM43 779q14 22 29 30.5t27 8.5q18 0 32 -8.5t32 -8.5q7 0 13 3t15 11l36 -26q-15 -23 -30 -31t-29 -8q-19 0 -32.5 8.5t-27.5 8.5q-8 0 -15 -2.5t-17 -10.5z" />
    <glyph glyph-name="itilde" unicode="&#x129;" horiz-adv-x="107" 
d="M49 495l-70 -495h82l70 495h-82zM11 572q14 22 28.5 31t26.5 9q18 0 32.5 -9t32.5 -9q7 0 12.5 3t14.5 11l36 -25q-16 -23 -30.5 -31t-27.5 -8q-19 0 -33 8.5t-28 8.5q-8 0 -15 -2.5t-17 -11.5z" />
    <glyph glyph-name="Imacron" unicode="&#x12a;" horiz-adv-x="117" 
d="M166 699l-99 -699h-88l98 699h89zM202 754h-145l9 61h145z" />
    <glyph glyph-name="imacron" unicode="&#x12b;" horiz-adv-x="107" 
d="M131 495l-70 -495h-82l70 495h82zM170 547h-145l9 61h145z" />
    <glyph glyph-name="Ibreve" unicode="&#x12c;" horiz-adv-x="117" 
d="M77 699l-99 -699h88l100 699h-89zM118 821q-2 -8 4 -15.5t15 -7.5t16.5 7.5t9.5 15.5h53q-5 -29 -30.5 -51.5t-56.5 -22.5q-14 0 -26.5 6t-21 16.5t-12.5 23.5t-2 28h51z" />
    <glyph glyph-name="ibreve" unicode="&#x12d;" horiz-adv-x="107" 
d="M49 495l-69 -495h81l70 495h-82zM85 615q-1 -9 5 -16t15 -7t16.5 7t8.5 16h53q-4 -30 -29 -52t-57 -22q-14 0 -26.5 6t-21 16t-13 23.5t-2.5 28.5h51z" />
    <glyph glyph-name="Iogonek" unicode="&#x12e;" horiz-adv-x="117" 
d="M70 -68q-12 -19 -31 -27t-36.5 -5.5t-29 15t-8.5 33.5q4 30 34 52h-20l99 699h89l-100 -699h-4q-20 -5 -33.5 -18t-15.5 -24q-1 -13 9 -15.5t21 8.5z" />
    <glyph glyph-name="iogonek" unicode="&#x12f;" horiz-adv-x="107" 
d="M65 -68q-12 -19 -31.5 -27t-37 -5.5t-29 15t-8.5 33.5q6 32 35 52h-15l70 495h82l-70 -495h-3q-20 -5 -34 -18t-15 -24q-2 -13 8.5 -15.5t20.5 8.5zM149 625l-13 -96h-82l13 96h82z" />
    <glyph glyph-name="Idotaccent" unicode="&#x130;" horiz-adv-x="117" 
d="M78 699l-98 -699h88l99 699h-89zM157 749h-58l10 72h58z" />
    <glyph glyph-name="dotlessi" unicode="&#x131;" horiz-adv-x="107" 
d="M131 495l-70 -495h-82l70 495h82z" />
    <glyph glyph-name="IJ" unicode="&#x132;" horiz-adv-x="364" 
d="M166 699l-99 -699h-88l98 699h89zM194 -6q-18 0 -35 6t-29.5 18.5t-18.5 32.5t-2 47l26 183h89l-24 -170q-6 -43 12 -43h4q18 0 24 43l84 588h88l-85 -601q-8 -55 -42 -79.5t-72 -24.5h-19z" />
    <glyph glyph-name="ij" unicode="&#x133;" horiz-adv-x="243" 
d="M131 495l-70 -495h-82l69 495h83zM149 625l-13 -96h-83l14 96h82zM281 626l-13 -97h-83l14 97h82zM263 495l-80 -560q-7 -46 -37.5 -73t-96.5 -27l10 69q36 0 42 31l79 560h83z" />
    <glyph glyph-name="Jcircumflex" unicode="&#x134;" 
d="M73 -6q-18 0 -35 6t-29 18.5t-18 32.5t-2 47l26 183h88l-24 -170q-6 -43 11 -43h4q19 0 25 43l84 588h89l-86 -601q-4 -27 -15.5 -47t-27 -32.5t-34.5 -18.5t-38 -6h-18zM305 823l49 -86h-78l-17 44l-28 -44h-78l72 86h80z" />
    <glyph glyph-name="jcircumflex" unicode="&#x135;" horiz-adv-x="144" 
d="M167 495l-81 -560q-6 -46 -36.5 -73t-96.5 -27l10 69q38 0 42 31l79 560h83zM184 616l48 -86h-78l-16 43l-29 -43h-78l73 86h80z" />
    <glyph glyph-name="uni0136" unicode="&#x136;" horiz-adv-x="245" 
d="M180 361l24 -361h-81l-21 243h-1l-35 -243h-88l99 699h89l-37 -255h2l94 255h81zM118 -128l-36 -63h-37l24 63h-41l14 104h91z" />
    <glyph glyph-name="uni0137" unicode="&#x137;" horiz-adv-x="231" 
d="M147 258l46 -258h-83l-27 162l-23 -162h-81l99 699h82l-52 -358l75 154h80zM111 -123l-36 -63h-37l24 63h-41l14 104h91z" />
    <glyph glyph-name=".001" unicode="&#x138;" horiz-adv-x="231" 
d="M146 258l46 -258h-83l-27 162l-23 -162h-81l70 495h82l-23 -154l76 154h79z" />
    <glyph glyph-name="Lacute" unicode="&#x139;" horiz-adv-x="187" 
d="M167 699l-90 -633h82l-10 -66h-170l99 699h89zM101 737l48 86h78l-73 -86h-53z" />
    <glyph glyph-name="lacute" unicode="&#x13a;" horiz-adv-x="106" 
d="M73 699h82l-99 -699h-82zM93 737l49 86h78l-73 -86h-54z" />
    <glyph glyph-name="uni013B" unicode="&#x13b;" horiz-adv-x="187" 
d="M167 699l-90 -633h82l-10 -66h-170l99 699h89zM85 -134l-36 -63h-37l24 63h-41l15 104h89z" />
    <glyph glyph-name="lquotesinglbase" unicode="&#x13c;" horiz-adv-x="106" 
d="M78 699h82l-99 -699h-82zM46 -124l-36 -63h-36l24 63h-41l14 104h90z" />
    <glyph glyph-name="Lcaron" unicode="&#x13d;" horiz-adv-x="247" 
d="M78 699l-99 -699h170l10 66h-82l90 633h-89zM279 596l-36 -63h-37l24 63h-41l14 104h90z" />
    <glyph glyph-name="LATIN SMALL LETTER L WITH CARON" unicode="&#x13e;" horiz-adv-x="216" 
d="M78 699h82l-99 -699h-82zM255 595l-37 -63h-37l25 63h-42l15 104h90z" />
    <glyph glyph-name="Ldot" unicode="&#x13f;" horiz-adv-x="238" 
d="M167 699l-90 -633h82l-10 -66h-170l99 699h89zM225 236h-90l14 103h91z" />
    <glyph glyph-name="lperiodcentered" unicode="&#x140;" horiz-adv-x="221" 
d="M78 699h82l-99 -699h-82zM213 276h-91l16 104h90z" />
    <glyph glyph-name="Lslash" unicode="&#x141;" horiz-adv-x="256" 
d="M229 699l-36 -254l62 41l24 -53l-97 -64l-43 -303h82l-10 -66h-171l43 305l-41 -27l-24 54l76 50l46 317h89z" />
    <glyph glyph-name="lslash" unicode="&#x142;" horiz-adv-x="233" 
d="M70 269l-32 -21l-24 54l67 43l50 354h83l-42 -294l58 38l24 -53l-93 -61l-47 -329h-82z" />
    <glyph glyph-name="Nacute" unicode="&#x143;" horiz-adv-x="276" 
d="M129 0l-16 422h-2l-60 -422h-74l99 699h99l11 -412h1l59 412h81l-100 -699h-98zM180 737l48 86h78l-73 -86h-53z" />
    <glyph glyph-name="nacute" unicode="&#x144;" horiz-adv-x="222" 
d="M140 429q-19 0 -24 -35l-1 -1l-56 -393h-81l70 495h82l-3 -23q29 26 55 26h2q39 0 47.5 -27t1.5 -73l-57 -398h-82l57 396q4 33 -10 33h-1zM111 535l48 86h78l-73 -86h-53z" />
    <glyph glyph-name="uni0145" unicode="&#x145;" horiz-adv-x="276" 
d="M129 0l-16 422h-1l-60 -422h-74l99 699h99l11 -412h1l59 412h81l-100 -699h-99zM114 -128l-37 -63h-37l25 63h-42l15 104h90z" />
    <glyph glyph-name="uni0146" unicode="&#x146;" horiz-adv-x="222" 
d="M139 429q-15 0 -23 -27l-57 -402h-81l69 495h83l-3 -22q14 11 28 18t27 7h2q39 0 47.5 -27t1.5 -73l-57 -398h-82l56 396q6 33 -9 33h-2zM105 -123l-36 -63h-37l25 63h-42l15 104h90z" />
    <glyph glyph-name="Ncaron" unicode="&#x147;" horiz-adv-x="276" 
d="M129 0l-16 422h-1l-60 -422h-74l99 699h99l11 -412h1l59 412h81l-100 -699h-99zM168 738l-48 86h78l15 -44l29 44h78l-72 -86h-80z" />
    <glyph glyph-name="ncaron" unicode="&#x148;" horiz-adv-x="222" 
d="M140 429q16 0 10 -33l-57 -396h83l57 398q6 46 -2 73t-48 27h-2q-26 0 -55 -26l3 23h-82l-70 -495h82l55 394h1q2 17 9 26t15 9h1zM113 536l-48 86h78l16 -44l29 44h77l-72 -86h-80z" />
    <glyph glyph-name="napostrophe" unicode="&#x149;" horiz-adv-x="319" 
d="M238 429q14 0 10 -33l-56 -396h82l57 398q6 46 -2 73t-47 27h-3q-26 0 -55 -26l3 23h-82l-70 -495h82l55 394h1q2 17 8.5 26t14.5 9h2zM149 576l-36 -63h-37l24 63h-41l14 103h91z" />
    <glyph glyph-name="Eng" unicode="&#x14a;" horiz-adv-x="275" 
d="M227 4l-10 -69q-7 -46 -46 -73t-105 -27l10 69q18 0 29 7.5t13 23.5l10 68l-17 426h-2l-61 -429h-70l99 699h99l12 -419h1l60 419h77l-100 -695h1z" />
    <glyph glyph-name="eng" unicode="&#x14b;" horiz-adv-x="222" 
d="M139 429q-16 0 -22 -26l-58 -403h-82l70 495h83l-3 -22q14 11 27.5 18t26.5 7h2q40 0 48 -27t2 -73l-57 -393h1l-10 -70q-7 -46 -38 -73t-97 -27l10 69q17 0 28.5 7.5t13.5 23.5l9 65l57 396q4 33 -10 33h-1z" />
    <glyph glyph-name="Omacron" unicode="&#x14c;" 
d="M73 -6q-18 0 -35 6t-29 18.5t-18 32.5t-2 47l71 503q4 27 15.5 47t27.5 32.5t34.5 18.5t37.5 6h18q18 0 35 -6t29.5 -18.5t18 -32.5t1.5 -47l-71 -503q-4 -27 -15.5 -47t-27.5 -32.5t-34.5 -18.5t-37.5 -6h-18zM171 631q-18 0 -24 -43l-68 -477q-7 -43 12 -43h4
q17 0 24 43l68 477q7 43 -12 43h-4zM263 751h-145l8 61h145z" />
    <glyph glyph-name="omacron" unicode="&#x14d;" horiz-adv-x="219" 
d="M64 -3q-38 0 -59.5 27t-13.5 73l41 301q7 46 36 73t68 27h18q39 0 61 -27t15 -73l-42 -301q-8 -46 -37.5 -73t-68.5 -27h-18zM135 429q-15 0 -21 -33l-42 -297q-4 -33 11 -33h3q15 0 19 33l42 297q6 33 -10 33h-2zM225 549h-145l9 61h145z" />
    <glyph glyph-name="Obreve" unicode="&#x14e;" 
d="M73 -6q-18 0 -35 6t-29 18.5t-18 32.5t-2 47l71 503q4 27 15.5 47t27 32.5t34.5 18.5t38 6h18q18 0 35 -6t29.5 -18.5t18 -32.5t1.5 -47l-72 -503q-8 -55 -42 -79.5t-72 -24.5h-18zM171 631q-18 0 -24 -43l-68 -477q-7 -43 12 -43h4q17 0 24 43l68 477q6 43 -12 43h-4z
M178 819q-1 -9 4.5 -16t14.5 -7t17 7t9 16h53q-5 -30 -30 -52t-57 -22q-14 0 -26.5 6t-21 16t-12.5 23.5t-2 28.5h51z" />
    <glyph glyph-name="obreve" unicode="&#x14f;" horiz-adv-x="219" 
d="M65 -3q-39 0 -60 27t-14 73l41 301q8 46 36.5 73t68.5 27h18q39 0 60.5 -27t14.5 -73l-43 -301q-6 -46 -35.5 -73t-68.5 -27h-18zM135 429q-16 0 -20 -33l-42 -297q-4 -33 11 -33h2q14 0 20 33l42 297q4 33 -10 33h-3zM141 616q-2 -8 4 -15.5t15 -7.5t16.5 7.5t9.5 15.5
h53q-5 -29 -30.5 -51.5t-56.5 -22.5q-14 0 -26.5 6t-21 16.5t-12.5 23.5t-2 28h51z" />
    <glyph glyph-name="Ohungarumlaut" unicode="&#x150;" 
d="M73 -6q-18 0 -35 6t-29 18.5t-18 32.5t-2 47l71 503q4 27 15.5 47t27 32.5t34.5 18.5t38 6h18q18 0 35 -6t29.5 -18.5t18 -32.5t1.5 -47l-71 -503q-4 -27 -15.5 -47t-27.5 -32.5t-34.5 -18.5t-37.5 -6h-18zM171 631q-18 0 -25 -43l-67 -477q-7 -43 12 -43h4q17 0 24 43
l67 477q7 43 -11 43h-4zM206 736l48 86h78l-73 -86h-53zM112 736l48 86h78l-73 -86h-53z" />
    <glyph glyph-name="ohungarumlaut" unicode="&#x151;" horiz-adv-x="219" 
d="M65 -3q-39 0 -60 27t-14 73l41 301q8 46 36.5 73t68.5 27h18q39 0 60.5 -27t14.5 -73l-43 -301q-6 -46 -35.5 -73t-68.5 -27h-18zM135 429q-16 0 -20 -33l-42 -297q-4 -33 11 -33h2q14 0 20 33l42 297q4 33 -10 33h-3zM169 533l48 86h78l-73 -86h-53zM75 533l48 86h78
l-73 -86h-53z" />
    <glyph glyph-name="OE" unicode="&#x152;" horiz-adv-x="346" 
d="M76 -6q-18 0 -35 6t-29 18.5t-18 32.5t-2 47l71 503q4 27 15.5 47t27.5 32.5t34.5 18.5t37.5 6h18h7h187l-12 -79h-97q1 -6 0.5 -12t-1.5 -13l-31 -219h77l-9 -66h-77l-31 -218l-6 -25h104l-12 -79h-219zM174 631q-18 0 -24 -43l-68 -477q-6 -43 12 -43h4q18 0 24 43
l68 477q6 43 -12 43h-4z" />
    <glyph glyph-name="oe" unicode="&#x153;" horiz-adv-x="334" 
d="M66 -3q-40 0 -60.5 27t-14.5 73l42 301q7 46 35.5 73t68.5 27h18q27 0 46 -14q23 14 51 14h18q39 0 61.5 -26.5t14.5 -73.5l-24 -171h-116l-18 -130q-1 -3 -1 -7q-1 -24 11 -24h4q15 0 19 33l16 107h82l-15 -108q-8 -48 -37 -74.5t-68 -26.5h-19q-27 0 -46 13
q-22 -13 -50 -13h-18zM248 284l16 112q4 33 -10 33h-3q-16 0 -20 -33l-16 -112h33zM135 429q-16 0 -20 -33l-43 -297q-4 -33 11 -33h3q15 0 19 33l43 297q4 33 -10 33h-3z" />
    <glyph glyph-name="Racute" unicode="&#x154;" horiz-adv-x="252" 
d="M255 417q-4 -32 -16 -47.5t-28 -20.5q14 -4 22 -19.5t3 -47.5l-21 -151q-5 -36 -7 -60.5t-2 -40t1 -22.5t2 -8h-89q-5 12 -3.5 43t9.5 88l20 143q6 42 -11 42h-23l-45 -316h-88l99 699h119q42 0 66.5 -27t17.5 -76zM145 382q18 0 22 40l23 160q7 43 -13 43h-21l-34 -243
h23zM154 737l49 86h78l-73 -86h-54z" />
    <glyph glyph-name="racute" unicode="&#x155;" horiz-adv-x="221" 
d="M139 429q-16 0 -22 -26l-58 -403h-82l70 495h83l-3 -22q14 11 27.5 18t26.5 7h2q23 0 34.5 -8.5t15.5 -25.5q6 -25 0 -66l-16 -107h-82l15 105q6 33 -10 33h-1zM117 535l49 86h78l-73 -86h-54z" />
    <glyph glyph-name="uni0156" unicode="&#x156;" horiz-adv-x="252" 
d="M255 417q-5 -32 -17 -47.5t-28 -20.5q15 -4 23 -19.5t3 -47.5l-21 -151q-11 -72 -9.5 -100.5t3.5 -30.5h-89q-6 12 -4 43t10 88l20 143q6 42 -11 42h-23l-45 -316h-88l99 699h119q41 0 65.5 -27t17.5 -76zM145 382q10 0 14.5 10t7.5 30l23 160q6 43 -13 43h-21l-34 -243
h23zM116 -134l-37 -63h-37l25 63h-42l15 104h90z" />
    <glyph glyph-name="uni0157" unicode="&#x157;" horiz-adv-x="221" 
d="M139 429q-15 0 -23 -27l-57 -402h-81l69 495h83l-3 -22q14 11 28 18t27 7h2q42 0 50 -34q3 -12 2.5 -29t-3.5 -37l-15 -107h-83l15 105q6 33 -10 33h-1zM111 -134l-36 -63h-37l24 63h-41l14 104h91z" />
    <glyph glyph-name="Rcaron" unicode="&#x158;" horiz-adv-x="252" 
d="M281 596q7 49 -17.5 76t-66.5 27h-119l-99 -699h88l45 316h23q17 0 11 -42l-20 -143q-8 -57 -9.5 -88t3.5 -43h89q-1 1 -2 8t-1 22.5t2 40t7 60.5l21 151q5 32 -3 47.5t-22 19.5q16 5 28 20.5t16 47.5zM142 738l-48 86h78l15 -44l29 44h78l-72 -86h-80zM121 382l35 243
h21q20 0 13 -43l-23 -160q-4 -40 -22 -40h-24z" />
    <glyph glyph-name="rcaron" unicode="&#x159;" horiz-adv-x="221" 
d="M140 429q16 0 10 -33l-15 -105h82l16 107q6 41 0 66q-4 17 -15.5 25.5t-34.5 8.5h-2q-26 0 -55 -26l3 23h-82l-70 -495h82l55 394h1q2 17 9 26t15 9h1zM105 536l-48 86h78l16 -44l29 44h77l-72 -86h-80z" />
    <glyph glyph-name="Sacute" unicode="&#x15a;" 
d="M167 418l24 170q3 23 0 33t-12 10h-4q-9 0 -14.5 -9.5t-9.5 -33.5l-12 -79q-5 -34 1 -60t17.5 -48.5t25 -43t25 -43.5t17.5 -49t1 -60l-16 -107q-4 -27 -15 -47t-26.5 -32.5t-34.5 -18.5t-38 -6h-16q-18 0 -35.5 6t-30 18.5t-19 32.5t-2.5 47l26 184h80l-24 -171
q-3 -23 1.5 -33t15.5 -10h3q22 0 28 43l12 80q5 33 -1 59t-17.5 48.5t-25 43t-25 43t-17.5 49t-1 60.5l16 107q4 27 15.5 47t27.5 32.5t35 18.5t37 6h10q19 0 36 -6t29 -18.5t18 -32.5t2 -47l-26 -183h-81zM164 738l48 86h78l-72 -86h-54z" />
    <glyph glyph-name="sacute" unicode="&#x15b;" horiz-adv-x="219" 
d="M134 300l14 96q2 14 -0.5 23.5t-10.5 9.5h-2q-8 0 -13 -9.5t-7 -23.5l-7 -43q-4 -32 11 -53t33.5 -42t33 -46t9.5 -64l-8 -51q-6 -46 -35.5 -73t-68.5 -27h-17q-40 0 -61 27t-14 73l13 98h74l-13 -96q-5 -33 14 -33h3q11 0 16 8.5t8 24.5l5 43q3 21 -3 37t-17 30
t-24 27.5t-23.5 29.5t-16.5 35.5t-2 45.5l7 51q7 45 36 72.5t69 27.5h9q40 0 61.5 -27t14.5 -73l-14 -98h-74zM119 535l49 86h77l-72 -86h-54z" />
    <glyph glyph-name="Scircumflex" unicode="&#x15c;" 
d="M167 418l24 170q3 23 0 33t-12 10h-4q-9 0 -14.5 -9.5t-9.5 -33.5l-12 -79q-5 -34 1 -60t17.5 -48.5t25 -43t25 -43.5t17 -49t0.5 -60l-15 -107q-4 -27 -15 -47t-27 -32.5t-34.5 -18.5t-37.5 -6h-16q-18 0 -35.5 6t-30 18.5t-19 32.5t-2.5 47l26 184h80l-24 -171
q-3 -23 1.5 -33t14.5 -10h3q23 0 29 43l11 80q5 33 -0.5 59t-17 48.5t-25 43t-25 43t-17.5 49t-1 60.5l16 107q4 27 15.5 47t27.5 32.5t35 18.5t37 6h10q19 0 36 -6t29 -18.5t18 -32.5t2 -47l-26 -183h-81zM244 824l49 -86h-78l-17 43l-28 -43h-78l72 86h80z" />
    <glyph glyph-name="scircumflex" unicode="&#x15d;" horiz-adv-x="219" 
d="M134 300l14 96q2 14 -0.5 23.5t-10.5 9.5h-2q-8 0 -13 -9.5t-7 -23.5l-7 -43q-4 -32 11 -53t33.5 -42t33 -46t9.5 -64l-8 -51q-6 -46 -35.5 -73t-68.5 -27h-17q-40 0 -61 27t-14 73l13 98h74l-13 -96q-5 -33 14 -33h3q11 0 16 8.5t8 24.5l5 43q3 21 -3 37t-17 30
t-24 27.5t-23.5 29.5t-16.5 35.5t-2 45.5l7 51q7 45 36 72.5t69 27.5h9q40 0 61.5 -27t14.5 -73l-14 -98h-74zM200 621l48 -86h-78l-16 43l-29 -43h-78l73 86h80z" />
    <glyph glyph-name="Scedilla" unicode="&#x15e;" 
d="M22 -68q9 -6 20.5 -9t22 -1.5t17.5 7t7 14.5q0 11 -12 13t-23 -5l-16 6l24 38q-16 2 -30 9.5t-24 20t-14.5 31t-0.5 42.5l25 184h81l-25 -171q-3 -23 2 -33t15 -10h3q22 0 28 43l12 80q5 33 -1 59t-17 48.5t-25 43t-25 43t-17 49t-1 60.5l15 107q4 27 16 47t28 32.5
t35 18.5t37 6h10q19 0 36 -6t29 -18.5t17.5 -32.5t1.5 -47l-26 -183h-81l25 170q3 23 0 33t-13 10h-3q-10 0 -15.5 -9.5t-8.5 -33.5l-12 -79q-5 -34 1 -60t17 -48.5t25 -43t25 -43.5t17 -49t1 -60l-15 -107q-8 -49 -36 -73.5t-63 -29.5l-11 -21q20 8 36 -0.5t13 -28.5
q-4 -28 -23 -43.5t-41.5 -21t-44 -2t-31.5 13.5z" />
    <glyph glyph-name="scedilla" unicode="&#x15f;" horiz-adv-x="219" 
d="M10 -67q8 -6 19.5 -8.5t22 -1t17.5 6.5t7 14q0 11 -12 13.5t-23 -5.5l-17 7l27 39q-34 5 -50 31t-11 68l13 98h75l-14 -96q-5 -33 14 -33h4q18 0 23 33l6 43q4 31 -10.5 52.5t-33.5 42.5t-33.5 46t-8.5 64l7 51q7 45 36 72.5t69 27.5h9q40 0 61.5 -27t14.5 -73l-14 -98
h-74l14 96q2 14 -0.5 23.5t-10.5 9.5h-3q-7 0 -12 -9.5t-7 -23.5l-7 -43q-3 -21 3.5 -37t17.5 -30.5t23.5 -28t23 -29.5t16.5 -35t2 -45l-7 -51q-5 -41 -29.5 -67t-57.5 -31l-13 -24q20 8 36 0t13 -29q-4 -28 -23 -43.5t-41.5 -21t-44 -2t-31.5 13.5z" />
    <glyph glyph-name="Scaron" unicode="&#x160;" 
d="M247 418l26 183q4 27 -1.5 47t-18 32.5t-29.5 18.5t-35 6h-10q-19 0 -38 -6t-35 -18.5t-27.5 -32.5t-15.5 -47l-15 -107q-5 -34 1 -60.5t17 -49t25 -43t25 -43t17 -48.5t1 -59l-11 -80q-7 -43 -29 -43h-3q-11 0 -15.5 10t-0.5 33l24 171h-81l-26 -184q-4 -27 2.5 -47
t19 -32.5t30 -18.5t35.5 -6h16q19 0 38 6t34.5 18.5t26.5 32.5t15 47l16 107q5 34 -1 60t-17 49t-25 43.5t-25 43t-17 48.5t-1 60l11 79q4 24 10 33.5t15 9.5h4q9 0 12 -10t-1 -33l-24 -170h81zM151 739l-48 86h78l16 -43l28 43h78l-72 -86h-80z" />
    <glyph glyph-name="scaron" unicode="&#x161;" horiz-adv-x="219" 
d="M209 300l13 98q8 46 -14 73t-62 27h-9q-40 0 -69 -27.5t-35 -72.5l-8 -51q-4 -26 2 -45.5t16.5 -35.5t23.5 -29.5t24 -27.5t17.5 -30t3.5 -37l-6 -43q-3 -16 -8 -24.5t-16 -8.5h-3q-19 0 -14 33l13 96h-74l-13 -98q-7 -46 14 -73t62 -27h16q39 0 68.5 27t36.5 73l7 51
q3 26 -2.5 45t-16 35t-23.5 29.5t-24 28t-17 30.5t-3 37l6 43q2 14 7 23.5t13 9.5h2q8 0 10.5 -9.5t0.5 -23.5l-14 -96h75zM107 536l-48 86h78l15 -44l29 44h78l-72 -86h-80z" />
    <glyph glyph-name="Tcedilla" unicode="&#x162;" horiz-adv-x="231" 
d="M253 625h-69l-88 -625h-89l89 625h-69l10 74h227zM-28 -104l14 40q9 -6 20.5 -8.5t22 -1t17.5 6.5t7 14q-1 11 -13 13.5t-23 -5.5l-16 7l25 38h49l-12 -22q20 8 36 0t13 -29q-4 -28 -23 -43.5t-41.5 -21t-44 -2t-31.5 13.5z" />
    <glyph glyph-name="tcedilla" unicode="&#x163;" horiz-adv-x="159" 
d="M171 657l-23 -162h38l-10 -69h-38l-46 -329q-2 -19 6.5 -28t26.5 -4l-9 -66q-6 0 -9 -1l-10 -19q20 9 36 0.5t13 -29.5q-4 -28 -22.5 -43.5t-41.5 -21t-44.5 -1.5t-31.5 14l14 40q9 -6 20.5 -9t22 -1.5t17.5 7t7 14.5q-1 10 -13 12.5t-23 -4.5l-16 6l25 37
q-33 9 -44.5 35.5t-6.5 61.5l47 329h-23l10 69h23l22 154z" />
    <glyph glyph-name="Tcaron" unicode="&#x164;" horiz-adv-x="231" 
d="M264 699h-226l-11 -74h69l-89 -625h89l88 625h69zM116 738l-48 86h78l16 -44l29 44h78l-73 -86h-80z" />
    <glyph glyph-name="tcaron" unicode="&#x165;" horiz-adv-x="271" 
d="M171 657l-23 -162h38l-10 -69h-38l-47 -329q-2 -19 6.5 -28t27.5 -4l-10 -66q-34 -5 -56 1.5t-34 20t-15.5 33.5t-0.5 43l46 329h-22l9 69h23l22 154zM290 553l-37 -63h-36l24 63h-42l15 104h91z" />
    <glyph glyph-name="_0144" unicode="&#x166;" horiz-adv-x="231" 
d="M202 316h-36l-45 -316h-89l45 316h-36l8 60h36l36 249h-69l11 74h226l-11 -74h-68l-36 -249h36z" />
    <glyph glyph-name="tbar" unicode="&#x167;" horiz-adv-x="159" 
d="M171 657l-23 -162h38l-10 -69h-38l-9 -61h39l-11 -69h-38l-28 -199q-2 -19 6.5 -28t27.5 -4l-10 -66q-34 -5 -56 1.5t-34 20t-15.5 33.5t-0.5 43l28 199h-23l10 69h23l8 61h-22l9 69h23l22 154z" />
    <glyph glyph-name="Utilde" unicode="&#x168;" horiz-adv-x="245" 
d="M76 -6q-18 0 -35 6t-29 18.5t-18 32.5t-2 47l85 601h89l-84 -588q-6 -43 12 -43h4q18 0 24 43l84 588h89l-86 -601q-4 -27 -15.5 -47t-27 -32.5t-34.5 -18.5t-38 -6h-18zM97 776q14 22 29 31t27 9q18 0 32 -9t32 -9q6 0 12.5 3t15.5 11l36 -25q-16 -23 -30.5 -31
t-28.5 -8q-19 0 -32.5 8.5t-27.5 8.5q-8 0 -15 -2.5t-17 -11.5z" />
    <glyph glyph-name="utilde" unicode="&#x169;" horiz-adv-x="221" 
d="M81 66q-15 0 -9 33l56 396h-83l-55 -398q-7 -46 1 -73t46 -27h3q13 0 27 7t28 18l-3 -22h82l71 495h-83l-56 -394l-1 -3q-2 -15 -8.5 -23.5t-13.5 -8.5h-2zM65 572q14 22 29.5 31t27.5 9q18 0 32 -9t32 -9q6 0 12 3t15 11l36 -25q-15 -23 -30 -31t-29 -8q-19 0 -32 8.5
t-27 8.5q-8 0 -15.5 -2.5t-17.5 -11.5z" />
    <glyph glyph-name="Umacron" unicode="&#x16a;" horiz-adv-x="245" 
d="M76 -6q-18 0 -35 6t-29 18.5t-18 32.5t-2 47l85 601h89l-84 -588q-6 -43 12 -43h4q18 0 24 43l84 588h89l-86 -601q-4 -27 -15.5 -47t-27 -32.5t-34.5 -18.5t-38 -6h-18zM257 751h-145l8 61h145z" />
    <glyph glyph-name="umacron" unicode="&#x16b;" horiz-adv-x="221" 
d="M82 66q14 0 22 25l58 404h83l-71 -495h-83l3 21q-29 -24 -54 -24h-3q-38 0 -46.5 27t-1.5 73l56 398h83l-57 -396q-6 -33 10 -33h1zM224 547h-145l9 61h145z" />
    <glyph glyph-name="Ubreve" unicode="&#x16c;" horiz-adv-x="245" 
d="M76 -6q-18 0 -35 6t-29.5 18.5t-18.5 32.5t-2 47l86 601h89l-84 -588q-7 -43 12 -43h4q17 0 24 43l84 588h89l-87 -601q-8 -55 -42 -79.5t-72 -24.5h-18zM172 819q-1 -9 4 -16t15 -7q9 0 16.5 7t9.5 16h52q-4 -30 -29.5 -52t-56.5 -22q-14 0 -26.5 6t-21 16t-12.5 23.5
t-2 28.5h51z" />
    <glyph glyph-name="ubreve" unicode="&#x16d;" horiz-adv-x="221" 
d="M81 66q-15 0 -9 33l56 396h-83l-55 -398q-7 -46 1 -73t46 -27h3q13 0 27 7t28 18l-3 -22h82l71 495h-83l-56 -394l-1 -3q-2 -15 -8.5 -23.5t-13.5 -8.5h-2zM141 615q-2 -9 4 -16t15 -7t16.5 7t9.5 16h53q-5 -30 -30.5 -52t-56.5 -22q-14 0 -26.5 6t-21 16t-12.5 23.5
t-2 28.5h51z" />
    <glyph glyph-name="Uring" unicode="&#x16e;" horiz-adv-x="245" 
d="M75 -6q-18 0 -34.5 6t-28.5 18.5t-18 32.5t-2 47l84 601h89l-84 -588q-6 -43 12 -43h4q18 0 24 43l84 588h89l-85 -601q-4 -27 -15.5 -47t-27.5 -32.5t-35 -18.5t-38 -6h-18zM180 726q-13 0 -24 5.5t-19.5 14.5t-12.5 21t-2 25q4 28 27 49t49 21q28 0 46 -20.5t14 -49.5
q-4 -26 -26.5 -46t-51.5 -20zM192 816q-8 0 -16 -7t-9 -16q-1 -8 5 -15t14 -7q9 0 16.5 7t9.5 15q1 9 -5 16t-15 7z" />
    <glyph glyph-name="uring" unicode="&#x16f;" horiz-adv-x="221" 
d="M81 66q-15 0 -9 33l56 396h-83l-55 -398q-7 -46 1.5 -73t46.5 -27h3q25 0 54 24l-3 -21h82l71 495h-83l-56 -394q-2 -17 -8.5 -26t-14.5 -9h-2zM149 522q-13 0 -24 5.5t-19 14.5t-12 21t-2 25q4 28 26.5 49t48.5 21q29 0 47 -20.5t14 -49.5q-4 -26 -27 -46t-52 -20z
M162 612q-8 0 -16 -7t-9 -16q-2 -8 4.5 -15t14.5 -7q9 0 16.5 7t9.5 15q1 9 -5 16t-15 7z" />
    <glyph glyph-name="Uhungarumlaut" unicode="&#x170;" horiz-adv-x="245" 
d="M76 -6q-18 0 -35 6t-29 18.5t-18 32.5t-2 47l85 601h89l-84 -588q-7 -43 12 -43h4q17 0 24 43l84 588h89l-86 -601q-4 -27 -15.5 -47t-27.5 -32.5t-34.5 -18.5t-37.5 -6h-18zM97 736l49 86h77l-72 -86h-54zM191 736l49 86h77l-72 -86h-54z" />
    <glyph glyph-name="uhungarumlaut" unicode="&#x171;" horiz-adv-x="221" 
d="M83 66q7 0 13.5 8.5t8.5 23.5l1 3l56 394h83l-71 -495h-82l3 22q-14 -11 -28 -18t-27 -7h-3q-38 0 -46 27t-2 73l56 398h83l-56 -396q-6 -33 9 -33h2zM74 532l49 86h78l-73 -86h-54zM168 532l49 86h78l-73 -86h-54z" />
    <glyph glyph-name="Uogonek" unicode="&#x172;" horiz-adv-x="245" 
d="M133 -74q-12 -19 -31 -27t-37 -5.5t-29.5 15t-8.5 33.5q4 29 34 53q-16 2 -30 9.5t-23.5 20t-14 31t-1.5 42.5l85 601h89l-83 -588q-7 -43 11 -43h4q18 0 25 43l83 588h89l-86 -601q-6 -42 -28 -66t-51 -32q-20 -8 -36 -22.5t-17 -25.5q-2 -13 8.5 -15.5t21.5 8.5z" />
    <glyph glyph-name="uogonek" unicode="&#x173;" horiz-adv-x="221" 
d="M83 66q8 0 14.5 9t8.5 26l57 394h82l-71 -495h2q-20 -5 -33 -18t-15 -24q-1 -13 9 -15.5t21 8.5l27 -19q-12 -19 -31.5 -27t-37.5 -5.5t-29.5 15t-8.5 33.5q4 31 35 52h-21l3 21q-29 -24 -54 -24h-3q-38 0 -46.5 27t-1.5 73l56 398h82l-57 -396q-4 -33 10 -33h2z" />
    <glyph glyph-name="Wcircumflex" unicode="&#x174;" horiz-adv-x="367" 
d="M16 0l48 699h85l-30 -389h3l89 389h70l-17 -389h2l82 389h77l-152 -699h-86l10 344h-1l-84 -344h-96zM302 823l48 -86h-78l-16 44l-29 -44h-77l72 86h80z" />
    <glyph glyph-name="wcircumflex" unicode="&#x175;" horiz-adv-x="345" 
d="M16 0l20 495h77l-14 -275h2l74 275h70l-4 -275h2l65 275h70l-123 -495h-89l11 312h-2l-70 -312h-89zM268 619l47 -86h-77l-16 43l-29 -43h-78l73 86h80z" />
    <glyph glyph-name="Ycircumflex" unicode="&#x176;" horiz-adv-x="246" 
d="M155 254l-37 -254h-89l37 254l-13 445h89l-4 -243h3l65 243h88zM232 823l48 -86h-78l-16 44l-29 -44h-77l72 86h80z" />
    <glyph glyph-name="ycircumflex" unicode="&#x177;" horiz-adv-x="204" 
d="M170 495h67l-156 -660h-81l43 165l-6 495h75l-10 -268h4zM200 619l48 -86h-78l-16 43l-29 -43h-78l73 86h80z" />
    <glyph glyph-name="Ydieresis" unicode="&#x178;" horiz-adv-x="246" 
d="M306 699h-89l-65 -243h-3l4 243h-89l14 -445l-37 -254h89l37 254zM175 746h-59l11 71h58zM267 746h-58l10 71h59z" />
    <glyph glyph-name="Zacute" unicode="&#x179;" horiz-adv-x="233" 
d="M183 0h-218l9 66l200 567h-101l10 66h189l-9 -66l-200 -567h129zM151 738l48 86h78l-72 -86h-54z" />
    <glyph glyph-name="zacute" unicode="&#x17a;" horiz-adv-x="201" 
d="M162 0h-194l9 67l166 362h-104l9 66h185l-9 -66l-167 -362h114zM118 535l48 86h78l-72 -86h-54z" />
    <glyph glyph-name="Zdotaccent" unicode="&#x17b;" horiz-adv-x="233" 
d="M183 0h-218l10 66l199 567h-101l10 66h189l-9 -66l-200 -567h130zM208 747h-58l9 72h59z" />
    <glyph glyph-name="zdotaccent" unicode="&#x17c;" horiz-adv-x="201" 
d="M163 0h-195l10 67l165 362h-104l9 66h185l-9 -66l-166 -362h114zM174 544h-58l10 72h59z" />
    <glyph glyph-name="Zcaron" unicode="&#x17d;" horiz-adv-x="233" 
d="M191 0h-218l10 66l199 567h-100l10 66h189l-9 -66l-201 -567h130zM147 739l-48 86h78l16 -44l29 44h77l-72 -86h-80z" />
    <glyph glyph-name="zcaron" unicode="&#x17e;" horiz-adv-x="201" 
d="M160 0h-194l9 67l166 362h-104l9 66h185l-9 -66l-167 -362h115zM103 536l-47 86h78l15 -44l29 44h78l-73 -86h-80z" />
    <glyph glyph-name="longs" unicode="&#x17f;" horiz-adv-x="181" 
d="M46 495h23l16 111q3 23 14.5 43.5t31.5 34.5t47.5 19.5t63.5 -2.5l-9 -66q-8 1 -18.5 0t-20.5 -4.5t-18 -11t-10 -20.5l-86 -599h-81l60 426h-23z" />
    <glyph glyph-name="florin" unicode="&#x192;" horiz-adv-x="234" 
d="M38 0l61 426h-60l10 69h60l16 111q3 23 14.5 43.5t31.5 34.5t47.5 19.5t63.5 -2.5l-9 -66q-8 1 -18.5 0t-20.5 -4.5t-18 -11t-10 -20.5l-15 -104h61l-11 -69h-60l-60 -426l-10 -72q-3 -23 -15 -43.5t-31.5 -34.5t-47.5 -19t-63 3l9 65q7 -1 18 0t21 4.5t17.5 11t9.5 20.5
z" />
    <glyph glyph-name="circumflex" unicode="&#x2c6;" horiz-adv-x="228" 
d="M213 669l48 -86h-78l-17 44l-28 -44h-77l71 86h81z" />
    <glyph glyph-name="caron" unicode="&#x2c7;" horiz-adv-x="248" 
d="M78 584l-49 86h78l16 -44l29 44h78l-72 -86h-80z" />
    <glyph glyph-name="breve" unicode="&#x2d8;" horiz-adv-x="196" 
d="M80 665q-2 -9 3.5 -16t15.5 -7q9 0 16.5 7t9.5 16h52q-5 -30 -30 -52t-56 -22q-14 0 -26.5 6t-21 16t-12.5 23.5t-2 28.5h51z" />
    <glyph glyph-name="dotaccent" unicode="&#x2d9;" horiz-adv-x="106" 
d="M77 593h-58l9 71h59z" />
    <glyph glyph-name="ring" unicode="&#x2da;" horiz-adv-x="184" 
d="M81 556q-13 0 -24 5.5t-19.5 14.5t-12.5 21t-2 25q2 14 9.5 26.5t18 22.5t23 15.5t25.5 5.5q28 0 46.5 -20.5t13.5 -49.5q-4 -26 -26.5 -46t-51.5 -20zM93 646q-8 0 -15.5 -7t-9.5 -16q-2 -8 4.5 -15t14.5 -7q9 0 16.5 7t8.5 15q2 9 -4 16t-15 7z" />
    <glyph glyph-name="ogonek" unicode="&#x2db;" horiz-adv-x="157" 
d="M131 -68q-12 -19 -31 -27t-37 -5.5t-29.5 15t-8.5 33.5q2 16 11 28.5t23 23.5h64q-20 -5 -33.5 -18t-14.5 -24q-2 -13 8.5 -15.5t20.5 8.5z" />
    <glyph glyph-name="tilde" unicode="&#x2dc;" horiz-adv-x="230" 
d="M78 622q14 22 29 31t28 9q17 0 31 -9t32 -9q13 0 28 14l36 -25q-16 -23 -30.5 -31t-28.5 -8q-19 0 -32 8.5t-28 8.5q-7 0 -14.5 -2.5t-16.5 -10.5z" />
    <glyph glyph-name="hungarumlaut" unicode="&#x2dd;" horiz-adv-x="256" 
d="M112 582l47 86h78l-72 -86h-53zM18 582l47 86h78l-72 -86h-53z" />
    <glyph glyph-name="endash" unicode="&#x2013;" horiz-adv-x="326" 
d="M323 320h-298l8 60h298z" />
    <glyph glyph-name="emdash" unicode="&#x2014;" horiz-adv-x="465" 
d="M463 320h-438l8 60h438z" />
    <glyph glyph-name="quoteleft" unicode="&#x2018;" horiz-adv-x="141" 
d="M79 622l36 63h37l-24 -63h41l-14 -104h-91z" />
    <glyph glyph-name="quoteright" unicode="&#x2019;" horiz-adv-x="141" 
d="M167 576l-37 -63h-37l25 63h-42l15 103h90z" />
    <glyph glyph-name="quotesinglbase" unicode="&#x201a;" horiz-adv-x="141" 
d="M84 0l-37 -63h-37l25 63h-42l15 104h90z" />
    <glyph glyph-name="quotedblleft" unicode="&#x201c;" horiz-adv-x="274" 
d="M79 622l37 63h37l-25 -63h42l-15 -104h-90zM212 622l36 63h37l-24 -63h41l-14 -104h-91z" />
    <glyph glyph-name="quotedblright" unicode="&#x201d;" horiz-adv-x="274" 
d="M169 595l-37 -63h-37l25 63h-42l15 104h90zM301 595l-36 -63h-37l24 63h-41l14 104h91z" />
    <glyph glyph-name="quotedblbase" unicode="&#x201e;" horiz-adv-x="274" 
d="M83 0l-37 -63h-37l25 63h-42l15 104h90zM215 0l-36 -63h-37l24 63h-41l14 104h91z" />
    <glyph glyph-name="dagger" unicode="&#x2020;" horiz-adv-x="211" 
d="M211 699l-38 -264h50l-9 -69h-51l-75 -531h-82l75 531h-50l10 69h49l38 264h83z" />
    <glyph glyph-name="daggerdbl" unicode="&#x2021;" horiz-adv-x="211" 
d="M211 699l-38 -264h50l-9 -69h-51l-28 -198h50l-9 -69h-51l-38 -264h-81l37 264h-50l10 69h50l28 198h-50l9 69h50l38 264h83z" />
    <glyph glyph-name="bullet" unicode="&#x2022;" horiz-adv-x="138" 
d="M61 192q-24 0 -37 18t-11 38q5 27 24.5 41.5t39.5 14.5q27 0 39.5 -18t8.5 -38q-4 -27 -24 -41.5t-40 -14.5z" />
    <glyph glyph-name="ellipsis" unicode="&#x2026;" horiz-adv-x="403" 
d="M80 0h-90l15 104h90zM212 0h-90l15 104h91zM345 0h-91l16 104h90z" />
    <glyph glyph-name="perthousand" unicode="&#x2030;" horiz-adv-x="639" 
d="M370 699l-329 -699h64l330 699h-65zM94 302q-32 0 -50 22.5t-13 60.5l34 237q6 38 30 60.5t56 22.5h16q32 0 50 -22.5t13 -60.5l-34 -237q-5 -38 -29.5 -60.5t-56.5 -22.5h-16zM151 650q-16 0 -19 -31l-33 -232q-4 -30 10 -30h4q14 0 18 30l33 232q4 31 -10 31h-3z
M311 -6q-32 0 -49.5 22.5t-12.5 60.5l34 239q5 38 29 60.5t56 22.5h16q32 0 50.5 -22.5t13.5 -60.5l-34 -239q-5 -38 -30 -60.5t-58 -22.5h-15zM368 344q-14 0 -20 -31l-33 -234q-4 -30 11 -30h3q15 0 18 30l34 234q4 31 -9 31h-4zM497 -6q-32 0 -49.5 22.5t-12.5 60.5
l35 239q5 38 29 60.5t56 22.5h16q32 0 50.5 -22.5t13.5 -60.5l-35 -239q-5 -38 -30 -60.5t-57 -22.5h-16zM555 344q-14 0 -20 -31l-33 -234q-4 -30 11 -30h3q14 0 18 30l33 234q6 31 -8 31h-4z" />
    <glyph glyph-name="guilsinglleft" unicode="&#x2039;" horiz-adv-x="154" 
d="M63 39l-48 203l46 201h77l-46 -202l49 -202h-78z" />
    <glyph glyph-name="guilsinglright" unicode="&#x203a;" horiz-adv-x="154" 
d="M40 39l49 202l-46 202h77l46 -201l-48 -203h-78z" />
    <glyph glyph-name="fraction" unicode="&#x2044;" horiz-adv-x="235" 
d="M207 699h75l-255 -699h-74z" />
    <glyph glyph-name="franc" unicode="&#x20a3;" horiz-adv-x="234" 
d="M187 625l-34 -243h67l-9 -66h-67l-15 -104h32l-9 -60h-32l-22 -152h-88l21 152h-31l9 60h31l70 487h173l-11 -74h-85z" />
    <glyph glyph-name="uni20A6" unicode="&#x20a6;" horiz-adv-x="362" 
d="M375 443l-9 -60h-37l-9 -63h37l-9 -60h-36l-37 -260h-99l-10 260h-31l-37 -260h-74l37 260h-46l8 60h46l9 63h-46l9 60h46l37 256h99l7 -256h27l37 256h81l-37 -256h37zM144 320h20l-3 63h-8zM233 320h6l9 63h-17z" />
    <glyph glyph-name="peseta" unicode="&#x20a7;" horiz-adv-x="308" 
d="M232 699q42 0 67 -27t18 -76l-10 -70h26l-8 -60h-27l-14 -98q-7 -48 -37.5 -67t-72.5 -19h-32l-40 -282h-88l66 466h-35l8 60h35l25 173h119zM209 466h-41l-15 -110h24q18 0 22 40zM177 526h41l8 56q6 43 -13 43h-22z" />
    <glyph glyph-name="uni20A9" unicode="&#x20a9;" horiz-adv-x="447" 
d="M79 312l6 79h-53l9 60h48l18 248h85l-20 -248h25l57 248h70l-11 -248h26l52 248h77l-54 -248h46l-9 -60h-50l-17 -79h56l-8 -60h-61l-55 -252h-86l7 252h-21l-61 -252h-97l17 252h-61l7 60h58zM162 312h3l18 79h-15zM307 312h2l17 79h-16zM231 312h8l1 32h-1z" />
    <glyph glyph-name="Euro" unicode="&#x20ac;" horiz-adv-x="275" 
d="M192 297h-53l-26 -186q-7 -43 12 -43h4q18 0 24 43l25 172h88l-26 -185q-4 -27 -15.5 -47t-27.5 -32.5t-34.5 -18.5t-37.5 -6h-18q-18 0 -35 6t-29.5 18.5t-18 32.5t-1.5 47l28 199h-30l5 37h30l4 33h-29l5 37h30l28 197q4 27 15.5 47t27.5 32.5t34.5 18.5t37.5 6h18
q18 0 35 -6t29.5 -18.5t18 -32.5t1.5 -47l-26 -183h-88l24 170q4 23 0.5 33t-12.5 10h-4q-9 0 -14.5 -9.5t-9.5 -33.5l-26 -184h52l-5 -37h-53l-4 -33h52z" />
    <glyph glyph-name="uni20B9" unicode="&#x20b9;" horiz-adv-x="328" 
d="M58 553h167l4 28q4 27 -3 37t-24 12h-133l10 69h161h4h135l-10 -69h-54q2 -15 0 -32l-7 -45h50l-9 -69h-51l-8 -60q-3 -23 -14 -42t-26 -32t-33.5 -20t-37.5 -7h-43l105 -323h-99l-107 334l7 50h113q47 0 53 49l7 51h-167z" />
    <glyph glyph-name="trademark" unicode="&#x2122;" horiz-adv-x="299" 
d="M343 699l-44 -307h-37l27 182h-1l-45 -182h-30l8 182h-1l-26 -182h-38l44 307h60l-12 -183l40 183h55zM178 657h-25l-38 -265h-49l38 265h-25l6 42h99z" />
    <glyph glyph-name="minus" unicode="&#x2212;" horiz-adv-x="250" 
d="M255 380l-8 -60h-222l8 60h222z" />
    <glyph glyph-name="fi" unicode="&#xfb01;" horiz-adv-x="252" 
d="M5 0l60 426h-23l10 69h23l16 111q3 23 14.5 43.5t31.5 34.5t47.5 19.5t63.5 -2.5l-9 -66q-8 1 -18.5 0t-20.5 -4.5t-18 -11t-10 -20.5l-15 -104h120l-71 -495h-82l61 426h-38l-60 -426h-82z" />
    <glyph glyph-name="fl" unicode="&#xfb02;" horiz-adv-x="288" 
d="M3 0l60 426h-23l10 69h23l16 111q3 23 15 43.5t32 34.5t47.5 19.5t63.5 -2.5l-9 -66q-8 1 -18.5 0t-20.5 -4.5t-18 -11t-10 -20.5l-15 -104h62l-10 -69h-62l-61 -426h-82zM165 0h82l100 699h-83z" />
    <glyph glyph-name="_0007" horiz-adv-x="0" 
 />
    <glyph glyph-name="_0024" horiz-adv-x="0" 
 />
    <glyph glyph-name="quoteaccent" horiz-adv-x="0" 
d="M54 642l27 46h33l-17 -46h21l-11 -75h-63z" />
    <glyph glyph-name="accent margin" horiz-adv-x="0" 
d="M91 699h12l-21 -143h-12z" />
    <glyph glyph-name="ucircumflex.001" horiz-adv-x="221" 
d="M83 66q7 0 13.5 8.5t8.5 23.5l1 3l56 394h83l-71 -495h-82l3 22q-14 -11 -28 -18t-27 -7h-3q-38 0 -46 27t-2 73l56 398h83l-56 -396q-6 -33 9 -33h2zM204 619l47 -86h-78l-16 44l-29 -44h-77l72 86h81z" />
    <glyph glyph-name="uacute.001" horiz-adv-x="221" 
d="M83 66q7 0 13.5 8.5t8.5 23.5l1 3l56 394h83l-71 -495h-82l3 22q-14 -11 -28 -18t-27 -7h-3q-38 0 -46 27t-2 73l56 398h83l-56 -396q-6 -33 9 -33h2zM122 533l49 86h78l-73 -86h-54z" />
    <glyph glyph-name="ugrave.001" horiz-adv-x="221" 
d="M81 66q-15 0 -9 33l56 396h-83l-56 -398q-6 -46 2 -73t46 -27h3q13 0 27 7t28 18l-3 -22h82l71 495h-83l-56 -394l-1 -3q-2 -15 -8.5 -23.5t-13.5 -8.5h-2zM125 533l-48 86h78l24 -86h-54z" />
    <glyph glyph-name="udieresis.001" horiz-adv-x="221" 
d="M81 66q-16 0 -10 33l57 396h-83l-56 -398q-7 -46 1.5 -73t46.5 -27h3q25 0 54 24l-3 -21h83l71 495h-83l-58 -404q-8 -25 -22 -25h-1zM227 542h-59l10 71h59zM134 542h-58l10 71h58z" />
    <glyph glyph-name="iacute.001" horiz-adv-x="107" 
d="M131 495l-71 -495h-81l70 495h82zM68 533l48 86h78l-72 -86h-54z" />
    <glyph glyph-name="_0158" horiz-adv-x="0" 
 />
    </font>
</defs>
</svg>
