<?xml version="1.0" standalone="no"?>
<!DOCTYPE svg PUBLIC "-//W3C//DTD SVG 1.1//EN" "http://www.w3.org/Graphics/SVG/1.1/DTD/svg11.dtd" >
<svg xmlns="http://www.w3.org/2000/svg" xmlns:xlink="http://www.w3.org/1999/xlink" version="1.1">
<metadata>
Created by FontForge 20170731 at Mon Jun 25 01:17:37 2018
 By Aleksey,,,
Copyright (c) 2018 by Rajesh Rajput. All rights reserved.
</metadata>
<defs>
<font id="Morganite-SemiBoldItalic" horiz-adv-x="228" >
  <font-face 
    font-family="Morganite"
    font-weight="600"
    font-style="italic"
    font-stretch="normal"
    units-per-em="1000"
    panose-1="0 0 0 0 0 0 0 0 0 0"
    ascent="750"
    descent="-250"
    x-height="495"
    cap-height="699"
    bbox="-51 -183 604.111 855"
    underline-thickness="52"
    underline-position="-152"
    slope="-15"
    unicode-range="U+000D-FB02"
  />
<missing-glyph horiz-adv-x="114" 
 />
    <glyph glyph-name=".notdef" horiz-adv-x="114" 
 />
    <glyph glyph-name=".null" horiz-adv-x="0" 
 />
    <glyph glyph-name="nonmarkingreturn" unicode="&#xd;" horiz-adv-x="114" 
 />
    <glyph glyph-name="NULL" horiz-adv-x="0" 
 />
    <glyph glyph-name="NULL" horiz-adv-x="0" 
 />
    <glyph glyph-name="space" unicode=" " horiz-adv-x="114" 
 />
    <glyph glyph-name="exclam" unicode="!" horiz-adv-x="125" 
d="M72 124h-49l34 307l38 268h68l-39 -268zM65 0h-69l13 92h69z" />
    <glyph glyph-name="quotedbl" unicode="&#x22;" horiz-adv-x="244" 
d="M149 607l-33 -61h-29l24 61h-31l13 92h69zM262 607l-33 -61h-29l24 61h-31l13 92h69z" />
    <glyph glyph-name="numbersign" unicode="#" horiz-adv-x="338" 
d="M291 212h-46l-48 -212h-61l48 212h-56l-48 -212h-60l48 212h-51l12 56h52l37 162h-51l13 55h50l49 214h61l-49 -214h56l49 214h61l-49 -214h49l-15 -55h-47l-37 -162h47zM141 268h56l37 162h-56z" />
    <glyph glyph-name="dollar" unicode="$" 
d="M55 -4q-14 2 -26 8.5t-20.5 18.5t-12 29t-0.5 40l26 190h61l-25 -180q-5 -28 3 -39.5t20 -11.5h5q13 0 23 11.5t15 39.5l13 89q7 48 -8 83.5t-34.5 68.5t-34 69t-7.5 85l15 110q7 46 33 68.5t55 27.5l8 53h45l-8 -53q27 -6 45 -29t11 -67l-27 -189h-61l26 180
q4 27 -2.5 38.5t-18.5 11.5h-5q-12 0 -21 -11t-14 -40l-12 -89q-5 -32 1 -58.5t16.5 -49.5t24 -44.5t24.5 -45t16.5 -50t1.5 -58.5l-16 -110q-7 -47 -33 -70t-57 -27l-7 -52h-45z" />
    <glyph glyph-name="percent" unicode="%" horiz-adv-x="436" 
d="M378 699l-341 -699h49l342 699h-50zM97 303q-29 0 -46.5 21t-11.5 59l34 242q5 38 28.5 59t52.5 21h14q29 0 46 -21t12 -59l-34 -242q-6 -38 -29 -59t-52 -21h-14zM153 663q-10 0 -18 -9.5t-11 -30.5l-34 -239q-3 -20 2.5 -29t15.5 -9h5q9 0 17.5 9t10.5 29l34 239
q3 21 -2.5 30.5t-14.5 9.5h-5zM299 -6q-29 0 -46 21t-12 59l35 245q6 38 28.5 59t51.5 21h14q29 0 46.5 -21t12.5 -59l-35 -245q-5 -38 -28.5 -59t-52.5 -21h-14zM356 356q-10 0 -18 -9.5t-11 -29.5l-35 -242q-3 -20 3 -29.5t15 -9.5h6q9 0 17 9.5t10 29.5l35 242
q3 20 -2 29.5t-15 9.5h-5z" />
    <glyph glyph-name="ampersand" unicode="&#x26;" 
d="M164 756h45l-8 -52q14 -2 27 -8.5t22 -18.5t12.5 -29.5t0.5 -40.5l-27 -191h-67l25 182q5 27 -2 38.5t-18 11.5h-6q-11 0 -20.5 -11t-13.5 -40l-23 -156q-6 -57 26 -57h23l-4 -27h-1l-2 -22h-23q-16 0 -26.5 -15t-14.5 -42l-25 -177q-5 -28 1.5 -39.5t18.5 -11.5h5
q12 0 21 11.5t14 39.5l26 181h67l-27 -191q-7 -47 -33.5 -69.5t-56.5 -26.5l-8 -52h-44l7 52q-14 2 -26.5 8.5t-21 18t-12 29t0.5 40.5l25 185q5 41 27 60t48 24q-25 6 -41 26.5t-10 62.5l23 158q7 45 32.5 68t54.5 28z" />
    <glyph glyph-name="quotesingle" unicode="'" horiz-adv-x="131" 
d="M149 607l-33 -61h-29l24 61h-31l13 92h69z" />
    <glyph glyph-name="parenleft" unicode="(" horiz-adv-x="212" 
d="M78 -36q-21 0 -38 6t-29 20t-16.5 37.5t0.5 58.5l75 527q5 35 16.5 58.5t27 37.5t35 20t40.5 6h50l-8 -57h-27q-35 0 -49.5 -24t-22.5 -75l-65 -459q-8 -51 0.5 -75t42.5 -24h27l-8 -57h-51z" />
    <glyph glyph-name="parenright" unicode=")" horiz-adv-x="212" 
d="M1 -36l9 57h26q34 0 49 24t22 75l66 459q8 51 -0.5 75t-42.5 24h-27l8 57h51q21 0 38 -6t29 -20t16.5 -37.5t-0.5 -58.5l-75 -527q-5 -35 -16.5 -58.5t-27 -37.5t-35 -20t-40.5 -6h-50z" />
    <glyph glyph-name="asterisk" unicode="*" horiz-adv-x="196" 
d="M110 538l-26 20l41 49l-54 17l17 34l51 -20l7 61h35l-10 -61l58 20l5 -34l-58 -17l28 -49l-31 -20l-25 52z" />
    <glyph glyph-name="plus" unicode="+" horiz-adv-x="290" 
d="M137 373l18 125h52l-18 -125h102l-7 -46h-102l-17 -125h-52l17 125h-100l7 46h100z" />
    <glyph glyph-name="comma" unicode="," horiz-adv-x="112" 
d="M56 0l-33 -60h-28l24 60h-32l13 92h69z" />
    <glyph glyph-name="hyphen" unicode="-" horiz-adv-x="244" 
d="M246 373l-6 -46h-208l6 46h208z" />
    <glyph glyph-name="period" unicode="." horiz-adv-x="125" 
d="M63 0h-69l14 92h68z" />
    <glyph glyph-name="slash" unicode="/" horiz-adv-x="218" 
d="M223 699h57l-255 -699h-56z" />
    <glyph glyph-name="zero" unicode="0" 
d="M69 -6q-16 0 -31 5.5t-26 17.5t-16 30.5t-1 44.5l72 515q4 26 14.5 44.5t25 30.5t31 17.5t33.5 5.5h17q16 0 31 -5.5t26 -17.5t16.5 -30.5t1.5 -44.5l-73 -515q-4 -26 -14.5 -44.5t-25 -30.5t-31.5 -17.5t-33 -5.5h-17zM168 648q-11 0 -20.5 -12t-13.5 -39l-71 -495
q-4 -28 2.5 -39.5t17.5 -11.5h6q11 0 20.5 11.5t13.5 39.5l71 495q4 27 -2.5 39t-17.5 12h-6z" />
    <glyph glyph-name="one" unicode="1" horiz-adv-x="166" 
d="M38 0l86 597q-13 -3 -32 -7t-33 -4l8 53q12 0 25 4.5t24.5 13t20.5 19.5t12 23h57l-100 -699h-68z" />
    <glyph glyph-name="two" unicode="2" 
d="M41 418l27 189q4 26 14 44.5t24.5 30.5t31 17.5t33.5 5.5h10q16 0 31.5 -5.5t27 -17.5t17 -30.5t1.5 -44.5l-16 -110q-5 -33 -18 -61t-30.5 -56.5t-38 -59.5t-39.5 -69t-34.5 -85.5t-24.5 -108.5h128l-8 -57h-194l7 57q9 67 25.5 118t35.5 90.5t39 70t37.5 58t30.5 55
t18 59.5l13 89q4 29 -2.5 40t-17.5 11h-6q-11 0 -21 -11.5t-14 -38.5l-25 -180h-62z" />
    <glyph glyph-name="three" unicode="3" 
d="M107 384h23q34 0 42 57l23 156q4 29 -2.5 40t-18.5 11h-5q-12 0 -21 -11.5t-14 -38.5l-26 -182h-67l27 191q4 26 14.5 44.5t25 30.5t31 17.5t33.5 5.5h16q16 0 31.5 -5.5t26.5 -17.5t16 -30.5t1 -44.5l-22 -158q-6 -42 -28 -62.5t-48 -26.5q24 -5 40.5 -24t10.5 -60
l-26 -185q-4 -26 -14.5 -44.5t-25 -30t-31.5 -17t-33 -5.5h-16q-17 0 -32 5.5t-25.5 17t-15.5 30t-1 44.5l26 191h67l-25 -181q-5 -28 1.5 -39.5t18.5 -11.5h5q12 0 21 11.5t14 39.5l25 177q4 27 -2.5 42t-22.5 15h-23l3 27z" />
    <glyph glyph-name="four" unicode="4" horiz-adv-x="256" 
d="M225 160l-7 -57h-36l-14 -103h-58l14 103h-133l7 57l190 539h80l-78 -539h35zM182 507h-2l-117 -346v-1h69z" />
    <glyph glyph-name="five" unicode="5" 
d="M71 -6q-17 0 -32 5.5t-26 17.5t-16 30.5t-1 44.5l27 196h67l-26 -186q-4 -28 2 -39.5t18 -11.5h5q12 0 21.5 11.5t13.5 39.5l34 232q4 29 -2.5 40t-18.5 11h-5q-12 0 -21 -11.5t-14 -38.5l-1 -6v-1h-13v1h-54l52 370h194l-13 -57h-121l-34 -237q13 20 29.5 28.5t31.5 8.5
h7q24 0 41 -23t10 -75l-36 -252q-3 -26 -13.5 -44.5t-25 -30.5t-31.5 -17.5t-33 -5.5h-16z" />
    <glyph glyph-name="six" unicode="6" 
d="M70 -6q-17 0 -32 5.5t-25.5 17.5t-15.5 30.5t-1 44.5l14 107l3 20l9 69l46 319q4 26 14.5 44.5t25 30.5t31 17.5t33.5 5.5h12q16 0 31.5 -5.5t26.5 -17.5t16 -30.5t1 -44.5l-18 -131h-64l17 122q5 27 -2 38.5t-18 11.5h-5q-12 0 -21 -11t-14 -40l-28 -193q13 20 29.5 29
t31.5 9h7q24 0 41.5 -23t10.5 -75l-36 -252q-4 -26 -14.5 -44.5t-25 -30.5t-31.5 -17.5t-33 -5.5h-16zM90 288l-26 -186q-5 -28 1.5 -39.5t18.5 -11.5h5q12 0 21 11.5t14 39.5l33 232q4 29 -2 40t-18 11h-5q-12 0 -21.5 -11.5t-13.5 -38.5l-1 -7h-1l-6 -40h1z" />
    <glyph glyph-name="seven" unicode="7" horiz-adv-x="197" 
d="M-24 0l193 648h-104l7 51h172l-7 -51l-193 -648h-68z" />
    <glyph glyph-name="eight" unicode="8" 
d="M70 -6q-17 0 -32 5.5t-25.5 17.5t-15.5 30.5t-1 44.5l25 181q5 33 20 54t35 32q-17 11 -26.5 32.5t-4.5 54.5l23 161q4 26 14.5 44.5t25 30.5t31 17.5t33.5 5.5h16q16 0 31.5 -5.5t26.5 -17.5t16 -30.5t1 -44.5l-22 -161q-5 -34 -21 -55t-36 -32q17 -11 27 -32t5 -54
l-26 -181q-4 -26 -14.5 -44.5t-25 -30.5t-31.5 -17.5t-33 -5.5h-16zM125 338q-11 0 -21 -12t-14 -39l-26 -185q-5 -28 1.5 -39.5t18.5 -11.5h5q12 0 21 11.5t14 39.5l26 185q4 27 -2 39t-18 12h-5zM169 648q-12 0 -21.5 -12t-13.5 -39l-24 -165q-4 -28 2.5 -39.5t18.5 -11.5
h5q12 0 21.5 11.5t13.5 39.5l24 165q3 27 -3 39t-18 12h-5z" />
    <glyph glyph-name="nine" unicode="9" 
d="M188 705q16 0 31.5 -5.5t26.5 -17.5t16 -30.5t1 -44.5l-15 -107h1l-8 -54l-51 -354q-4 -26 -14.5 -44.5t-25 -30.5t-31.5 -17.5t-33 -5.5h-12q-17 0 -32 5.5t-25.5 17.5t-15.5 30.5t-1 44.5l26 190h64l-26 -181q-4 -27 2.5 -38.5t17.5 -11.5h5q12 0 21 11t14 40l36 250
q-14 -19 -30 -27.5t-31 -8.5h-7q-24 0 -41.5 23t-9.5 75l27 193q4 26 14.5 44.5t25 30.5t31 17.5t33.5 5.5h16zM195 597q4 28 -2.5 39.5t-18.5 11.5h-5q-12 0 -21 -11.5t-14 -39.5l-25 -173q-4 -29 2.5 -40t18.5 -11h5q12 0 21 11.5t14 38.5l1 7l2 16l8 54z" />
    <glyph glyph-name="colon" unicode=":" horiz-adv-x="125" 
d="M111 323h-69l13 92h69zM65 0h-68l13 92h68z" />
    <glyph glyph-name="semicolon" unicode=";" horiz-adv-x="132" 
d="M119 323h-69l13 92h69zM74 0l-33 -60h-28l24 60h-31l12 92h69z" />
    <glyph glyph-name="less" unicode="&#x3c;" horiz-adv-x="241" 
d="M223 5l-3 -1l-202 226v32l202 228l2 -2v-69l-1 -3l-145 -167v-4l145 -165l1 -3z" />
    <glyph glyph-name="equal" unicode="=" horiz-adv-x="300" 
d="M310 429l-7 -46h-264l7 46h264zM295 320l-7 -46h-264l7 46h264z" />
    <glyph glyph-name="greater" unicode="&#x3e;" horiz-adv-x="241" 
d="M53 77l1 2l145 166v3l-145 168l-1 2v70l2 2l202 -228v-33l-202 -225l-3 1z" />
    <glyph glyph-name="question" unicode="?" horiz-adv-x="222" 
d="M41 418l27 189q4 26 14 44.5t24.5 30.5t31 17.5t33.5 5.5h10q16 0 31.5 -5.5t27 -17.5t17 -30.5t1.5 -44.5l-16 -110q-5 -34 -16.5 -61t-26 -52t-30.5 -50t-29 -55t-21 -68t-8 -87h-67q0 55 9 96t22 72.5t28.5 56.5t30 49.5t26 50.5t16.5 59l13 89q4 29 -2.5 40t-17.5 11
h-6q-11 0 -21 -11.5t-14 -38.5l-25 -180h-62zM95 0h-68l12 92h69z" />
    <glyph glyph-name="at" unicode="@" horiz-adv-x="397" 
d="M148 -6q-45 0 -74 13.5t-45.5 35.5t-22 48.5t-1.5 52.5l42 301q4 26 16.5 52.5t35.5 48.5t56.5 35.5t78.5 13.5h33q45 0 74.5 -13.5t46 -35.5t22 -48.5t1.5 -52.5l-41 -291q-4 -25 -25.5 -38.5t-47 -16.5t-48.5 5.5t-30 27.5q-15 -15 -31 -24.5t-30 -9.5h-3
q-34 0 -44 24.5t-4 67.5l29 207q7 43 24.5 67.5t51.5 24.5h4q13 0 24 -7.5t21 -19.5l15 27h45l-44 -308q-2 -14 3 -20t11.5 -6t12.5 6.5t8 19.5l37 261q2 13 1 31t-9.5 33.5t-27.5 26.5t-53 11h-34q-35 0 -57 -11t-35 -26.5t-18.5 -33.5t-7.5 -32l-42 -293q-2 -14 -1 -32
t9.5 -33.5t27.5 -26.5t53 -11h35q36 0 56.5 11.5t30.5 22.5l42 -34q-19 -18 -51.5 -34.5t-85.5 -16.5h-34zM189 151q11 0 20.5 12t13.5 33l3 22l26 184q0 17 -6.5 25.5t-15.5 8.5h-2q-10 0 -18 -9.5t-11 -31.5l-29 -203q-3 -21 2 -31t15 -10h2z" />
    <glyph glyph-name="A" unicode="A" horiz-adv-x="217" 
d="M113 0l10 189h-61l-43 -189h-58l163 699h86l-32 -699h-65zM74 240h51l15 271h-3z" />
    <glyph glyph-name="B" unicode="B" horiz-adv-x="227" 
d="M240 427q-5 -32 -17 -47.5t-28 -20.5q14 -4 22 -19.5t3 -47.5l-28 -199q-3 -24 -13.5 -42t-25 -29t-31.5 -16.5t-33 -5.5h-105l99 699h106q16 0 31.5 -5.5t26.5 -17.5t16 -30.5t1 -44.5zM152 287q6 47 -17 47h-36l-40 -277h32q12 0 21.5 11t13.5 35zM142 384q24 0 31 47
l22 160q5 27 -2 39t-18 12h-33l-37 -258h37z" />
    <glyph glyph-name="C" unicode="C" horiz-adv-x="226" 
d="M67 -6q-16 0 -31 5.5t-26 17.5t-16 30.5t-1 44.5l72 515q4 26 14.5 44.5t25 30.5t31 17.5t33.5 5.5h17q16 0 31 -5.5t26 -17.5t16.5 -30.5t1.5 -44.5l-27 -190h-68l26 181q4 27 -2.5 38.5t-17.5 11.5h-6q-11 0 -20.5 -11t-13.5 -40l-71 -495q-4 -28 2.5 -39.5t17.5 -11.5
h6q11 0 20.5 11.5t13.5 39.5l26 181h68l-27 -191q-4 -26 -14.5 -44.5t-25 -30.5t-31.5 -17.5t-33 -5.5h-17z" />
    <glyph glyph-name="D" unicode="D" horiz-adv-x="230" 
d="M-16 0l99 699h106q16 0 31.5 -5t26.5 -16.5t16 -29.5t1 -44l-71 -509q-4 -26 -14.5 -44t-25 -29.5t-31.5 -16.5t-33 -5h-105zM142 642l-83 -585h33q11 0 20.5 10.5t13.5 37.5l70 489q4 27 -3 37.5t-18 10.5h-33z" />
    <glyph glyph-name="E" unicode="E" horiz-adv-x="189" 
d="M142 642l-38 -267h70l-8 -51h-69l-38 -267h94l-8 -57h-161l99 699h156l-8 -57h-89z" />
    <glyph glyph-name="F" unicode="F" horiz-adv-x="184" 
d="M142 642l-38 -267h70l-8 -51h-69l-46 -324h-67l99 699h156l-8 -57h-89z" />
    <glyph glyph-name="G" unicode="G" horiz-adv-x="226" 
d="M67 -6q-16 0 -31 5.5t-26 17.5t-16 30.5t-1 44.5l72 515q4 26 14.5 44.5t25 30.5t31 17.5t33.5 5.5h17q16 0 31 -5.5t26 -17.5t16.5 -30.5t1.5 -44.5l-27 -190h-68l26 181q4 27 -2.5 38.5t-17.5 11.5h-6q-11 0 -20.5 -11t-13.5 -40l-71 -495q-4 -28 2.5 -39.5t17.5 -11.5
h6q11 0 20.5 11.5t13.5 39.5l18 124h-31l9 57h98l-24 -168q-1 -2 -1 -6l-16 -109h-33l-5 23q-17 -14 -33 -21.5t-29 -7.5h-7z" />
    <glyph glyph-name="H" unicode="H" 
d="M275 699l-100 -699h-67l46 324h-57l-46 -324h-67l99 699h67l-46 -325h57l47 325h67z" />
    <glyph glyph-name="I" unicode="I" horiz-adv-x="106" 
d="M150 699l-99 -699h-67l99 699h67z" />
    <glyph glyph-name="J" unicode="J" horiz-adv-x="229" 
d="M68 -6q-16 0 -31 5.5t-26 17.5t-16.5 30.5t-1.5 44.5l26 189h67l-25 -179q-4 -28 2 -39.5t18 -11.5h5q12 0 21.5 11.5t13.5 39.5l85 597h68l-87 -607q-7 -52 -38 -75t-65 -23h-16z" />
    <glyph glyph-name="K" unicode="K" horiz-adv-x="226" 
d="M148 362l38 -362h-62l-35 272h-1l-39 -272h-67l99 699h68l-40 -273h2l115 273h62z" />
    <glyph glyph-name="L" unicode="L" horiz-adv-x="151" 
d="M150 699l-92 -648h84l-7 -51h-151l99 699h67z" />
    <glyph glyph-name="M" unicode="M" horiz-adv-x="309" 
d="M356 699l-100 -699h-56l70 492h-1l-126 -492h-50l16 492h-1l-70 -492h-56l99 699h88l-15 -442h1l114 442h87z" />
    <glyph glyph-name="N" unicode="N" horiz-adv-x="257" 
d="M130 0l-21 491h-1l-70 -491h-56l99 699h76l17 -484h1l69 484h61l-99 -699h-76z" />
    <glyph glyph-name="O" unicode="O" horiz-adv-x="226" 
d="M67 -6q-16 0 -31 5.5t-26 17.5t-16 30.5t-1 44.5l72 515q4 26 14.5 44.5t25 30.5t31 17.5t33.5 5.5h17q16 0 31 -5.5t26 -17.5t16.5 -30.5t1.5 -44.5l-73 -515q-4 -26 -14.5 -44.5t-25 -30.5t-31.5 -17.5t-33 -5.5h-17zM166 648q-11 0 -20.5 -12t-13.5 -39l-71 -495
q-4 -28 2.5 -39.5t17.5 -11.5h6q11 0 20.5 11.5t13.5 39.5l71 495q4 27 -2.5 39t-17.5 12h-6z" />
    <glyph glyph-name="P" unicode="P" horiz-adv-x="229" 
d="M189 699q37 0 59.5 -24.5t16.5 -72.5l-33 -229q-7 -45 -34 -63.5t-63 -18.5h-43l-41 -291h-67l99 699h106zM195 592q5 26 -2 38t-19 12h-32l-42 -295h37q24 0 30 47z" />
    <glyph glyph-name="Q" unicode="Q" horiz-adv-x="225" 
d="M67 -6q-16 0 -31 5.5t-26 17.5t-16 30.5t-1 44.5l72 515q4 26 14.5 44.5t25 30.5t31 17.5t33.5 5.5h16q16 0 31.5 -5.5t26.5 -17.5t16 -30.5t2 -44.5l-74 -515q-4 -27 -15 -46t-26 -31l24 -28l-38 -34l-36 42q-3 0 -6 -0.5t-6 -0.5h-17zM166 648q-11 0 -20.5 -12
t-14.5 -39l-70 -495q-4 -28 2 -39.5t18 -11.5h5q12 0 21.5 11.5t13.5 39.5l71 495q4 27 -2.5 39t-17.5 12h-6z" />
    <glyph glyph-name="R" unicode="R" horiz-adv-x="229" 
d="M238 417q-5 -32 -17 -47.5t-28 -20.5q15 -4 23 -19.5t3 -47.5l-23 -163q-9 -63 -9 -88.5t2 -30.5h-67q-5 12 -3.5 40t9.5 79l22 157q7 48 -17 48h-36l-46 -324h-67l99 699h106q37 0 59.5 -24.5t16.5 -72.5zM141 374q24 0 30 47l24 171q5 26 -2 38t-19 12h-32l-38 -268h37
z" />
    <glyph glyph-name="S" unicode="S" horiz-adv-x="229" 
d="M169 418l26 180q4 27 -2.5 38.5t-18.5 11.5h-5q-12 0 -21 -11t-14 -40l-12 -89q-5 -32 1 -58.5t16.5 -49.5t24 -44.5t24.5 -45t16.5 -50t1.5 -58.5l-15 -110q-4 -26 -14.5 -44.5t-25 -30.5t-31 -17.5t-33.5 -5.5h-15q-17 0 -32 5.5t-26 17.5t-16.5 30.5t-1.5 44.5l27 190
h61l-26 -180q-4 -28 3.5 -39.5t20.5 -11.5h5q12 0 22.5 11.5t14.5 39.5l13 89q4 32 -1.5 58t-16.5 49.5t-24.5 45t-24.5 44.5t-17 49.5t-1 59.5l16 110q4 26 14.5 44.5t25 30.5t31.5 17.5t33 5.5h11q16 0 31.5 -5.5t26 -17.5t15.5 -30.5t1 -44.5l-27 -189h-61z" />
    <glyph glyph-name="T" unicode="T" horiz-adv-x="181" 
d="M230 642h-67l-91 -642h-68l92 642h-67l8 57h202z" />
    <glyph glyph-name="U" unicode="U" horiz-adv-x="235" 
d="M71 -6q-17 0 -32 5.5t-26 17.5t-16 30.5t-2 44.5l86 607h68l-85 -597q-4 -28 2 -39.5t18 -11.5h5q12 0 21.5 11.5t13.5 39.5l85 597h68l-87 -607q-4 -26 -14.5 -44.5t-24.5 -30.5t-31 -17.5t-33 -5.5h-16z" />
    <glyph glyph-name="V" unicode="V" horiz-adv-x="214" 
d="M217 699h58l-164 -699h-86l33 699h65l-27 -511h2z" />
    <glyph glyph-name="W" unicode="W" horiz-adv-x="345" 
d="M18 0l47 699h65l-34 -466h2l109 466h54l-19 -466h2l99 466h59l-152 -699h-67l14 433h-1l-104 -433h-74z" />
    <glyph glyph-name="X" unicode="X" horiz-adv-x="224" 
d="M164 355l22 -355h-69l-13 218l-71 -218h-64l126 375l-27 324h67l16 -186l65 186h68z" />
    <glyph glyph-name="Y" unicode="Y" horiz-adv-x="214" 
d="M138 262l-37 -262h-68l37 262l-12 437h67v-283h3l80 283h68z" />
    <glyph glyph-name="Z" unicode="Z" horiz-adv-x="213" 
d="M168 0h-199l7 49l207 599h-104l8 51h172l-7 -49l-208 -599h131z" />
    <glyph glyph-name="bracketleft" unicode="[" horiz-adv-x="189" 
d="M-26 -56l115 811h129l-9 -57h-60l-99 -697h60l-8 -57h-128z" />
    <glyph glyph-name="backslash" unicode="\" horiz-adv-x="218" 
d="M179 0h-57l-56 699h57z" />
    <glyph glyph-name="bracketright" unicode="]" horiz-adv-x="189" 
d="M-5 -56l9 57h59l100 697h-61l9 57h128l-116 -811h-128z" />
    <glyph glyph-name="asciicircum" unicode="^" horiz-adv-x="264" 
d="M208 414l-3 1l-23 180h-3l-75 -180l-2 -1h-59l-1 2l116 283h75l36 -283l-1 -2h-60z" />
    <glyph glyph-name="underscore" unicode="_" horiz-adv-x="321" 
d="M269 0h-285l7 46h284z" />
    <glyph glyph-name="grave" unicode="`" horiz-adv-x="156" 
d="M86 589l-58 86h60l40 -86h-42z" />
    <glyph glyph-name="a" unicode="a" horiz-adv-x="205" 
d="M37 -3q-34 0 -41.5 24.5t-1.5 67.5l13 96q6 43 22.5 67.5t51.5 24.5h3q24 0 48 -21l21 148q3 21 -2 31t-16 10h-4q-10 0 -18.5 -10t-11.5 -31l-16 -113h-63l16 115q7 44 33.5 68t61.5 24h16q34 0 54 -24t13 -69l-58 -405h-63l3 19q-31 -22 -58 -22h-3zM100 230
q-10 0 -18.5 -10t-11.5 -31l-14 -104q-3 -22 2 -31.5t15 -9.5h2q9 0 17.5 7t13.5 24l19 136q1 10 -6 14.5t-13 4.5h-6z" />
    <glyph glyph-name="b" unicode="b" horiz-adv-x="207" 
d="M92 -3q-14 0 -26.5 8.5t-22.5 22.5l-11 -28h-51l99 699h63l-33 -229q14 13 28 20.5t28 7.5h2q35 0 44.5 -24.5t3.5 -67.5l-45 -317q-6 -43 -23.5 -67.5t-51.5 -24.5h-4zM133 445q-10 0 -19.5 -12t-12.5 -33l-3 -16l-42 -304q1 -15 7 -22.5t14 -7.5h3q9 0 17 9.5t11 31.5
l45 313q3 21 -2.5 31t-14.5 10h-3z" />
    <glyph glyph-name="c" unicode="c" horiz-adv-x="205" 
d="M136 291l17 113q4 41 -17 41h-5q-10 0 -19 -10t-11 -31l-45 -313q-3 -22 2.5 -31.5t13.5 -9.5h7q10 0 18 9.5t11 31.5l17 115h62l-16 -116q-7 -45 -33.5 -69t-61.5 -24h-18q-32 0 -51 24.5t-13 68.5l44 315q7 45 33 69t61 24h16q34 0 54 -24t14 -68l-17 -115h-63z" />
    <glyph glyph-name="d" unicode="d" horiz-adv-x="208" 
d="M43 -3q-34 0 -44.5 24.5t-4.5 67.5l44 317q6 43 23 67.5t51 24.5h3q13 0 25 -7.5t22 -20.5l33 229h63l-100 -699h-51l-3 29q-14 -14 -29 -23t-29 -9h-3zM131 445q-10 0 -18.5 -10t-11.5 -31l-45 -313q-3 -22 2.5 -31.5t14.5 -9.5h3q10 0 19.5 11.5t12.5 33.5l44 305
q4 21 -2.5 33t-16.5 12h-2z" />
    <glyph glyph-name="e" unicode="e" horiz-adv-x="205" 
d="M72 50h7q10 0 18 9.5t11 31.5l17 115h62l-16 -116q-7 -45 -33.5 -69t-61.5 -24h-18q-32 0 -51 24.5t-13 68.5l44 315q7 45 33 69t61 24h16q34 0 54 -24t14 -68l-25 -173h-115l-20 -142q-3 -22 2.5 -31.5t13.5 -9.5zM134 277l19 127q4 41 -17 41h-5q-10 0 -19 -10t-11 -31
l-18 -127h51z" />
    <glyph glyph-name="f" unicode="f" horiz-adv-x="165" 
d="M5 0l62 442h-24l7 53h25l17 119q3 21 13 40t27.5 32t41.5 17.5t55 -2.5l-7 -50q-19 3 -41.5 -6t-26.5 -36l-17 -114h62l-7 -53h-62l-63 -442h-62z" />
    <glyph glyph-name="g" unicode="g" horiz-adv-x="209" 
d="M228 495l-81 -567q-6 -44 -33 -68.5t-59 -24.5h-18q-34 0 -53.5 24t-13.5 69l7 43h62l-7 -42q-4 -41 18 -41h6q9 0 17 9.5t11 31.5l13 93q-28 -25 -54 -25h-3q-34 0 -44 24.5t-3 67.5l45 317q6 43 23.5 67.5t51.5 24.5h4q24 0 47 -26l13 23h51zM75 50q9 0 18.5 10.5
t13.5 28.5l45 318q1 19 -5 28.5t-16 9.5h-2q-10 0 -18 -9.5t-11 -31.5l-45 -313q-3 -21 2.5 -31t15.5 -10h2z" />
    <glyph glyph-name="h" unicode="h" horiz-adv-x="209" 
d="M137 445q-10 0 -20.5 -12.5t-13.5 -33.5l-57 -399h-62l99 699h63l-33 -231q14 14 28 22t28 8h3q34 0 44 -24.5t4 -67.5l-58 -406h-63l58 404q4 41 -18 41h-2z" />
    <glyph glyph-name="i" unicode="i" horiz-adv-x="96" 
d="M116 495l-69 -495h-63l70 495h62zM134 620l-12 -86h-63l12 86h63z" />
    <glyph glyph-name="j" unicode="j" horiz-adv-x="134" 
d="M174 621l-12 -88h-63l12 88h63zM155 495l-81 -568q-6 -43 -33.5 -67.5t-82.5 -24.5l8 53q40 0 46 39l80 568h63z" />
    <glyph glyph-name="k" unicode="k" horiz-adv-x="210" 
d="M120 258l50 -258h-63l-35 186l-27 -186h-61l99 699h62l-54 -377l90 173h60z" />
    <glyph glyph-name="l" unicode="l" horiz-adv-x="97" 
d="M83 699h63l-100 -699h-62z" />
    <glyph glyph-name="m" unicode="m" horiz-adv-x="325" 
d="M136 445q-11 0 -21.5 -12.5t-13.5 -33.5l-1 -1l-55 -398h-63l70 495h62l-4 -27q14 14 29 22t29 8h3q38 0 48 -37q16 17 32.5 27t32.5 10h3q34 0 44 -24.5t4 -67.5l-58 -406h-63l58 404q4 41 -18 41h-2q-10 0 -19.5 -10.5t-13.5 -28.5l-1 -6l-57 -400h-63l58 404
q4 41 -18 41h-2z" />
    <glyph glyph-name="n" unicode="n" horiz-adv-x="209" 
d="M136 445q-10 0 -21 -12.5t-13 -33.5l-1 -1l-56 -398h-62l69 495h63l-4 -26q14 13 28.5 21t28.5 8h3q35 0 44.5 -24.5t3.5 -67.5l-58 -406h-63l58 404q3 22 -2.5 31.5t-15.5 9.5h-2z" />
    <glyph glyph-name="o" unicode="o" horiz-adv-x="207" 
d="M60 -3q-34 0 -53 24.5t-13 67.5l44 317q7 43 33 67.5t61 24.5h16q34 0 54 -24.5t14 -67.5l-45 -317q-6 -43 -33 -67.5t-62 -24.5h-16zM131 445q-10 0 -19 -10t-11 -31l-45 -313q-3 -22 2.5 -31.5t15.5 -9.5h5q10 0 18 9.5t11 31.5l45 313q4 41 -17 41h-5z" />
    <glyph glyph-name="p" unicode="p" horiz-adv-x="208" 
d="M169 498q34 0 45 -24.5t4 -67.5l-44 -317q-7 -43 -23.5 -67.5t-50.5 -24.5h-3q-13 0 -25 7.5t-22 20.5l-27 -190h-63l94 660h51l2 -29q14 14 29.5 23t29.5 9h3zM82 50q9 0 17.5 10t11.5 31l45 313q4 41 -18 41h-2q-10 0 -20 -11.5t-13 -33.5l-9 -59l-36 -259
q0 -15 6.5 -23.5t14.5 -8.5h3z" />
    <glyph glyph-name="q" unicode="q" horiz-adv-x="213" 
d="M118 498q14 0 26.5 -9t22.5 -23l11 29h51l-94 -660h-63l27 190q-14 -13 -28 -20.5t-27 -7.5h-3q-34 0 -44 24.5t-3 67.5l44 317q7 43 24.5 67.5t51.5 24.5h4zM76 50q10 0 20 12t13 33l43 305q3 22 -3 33.5t-17 11.5h-2q-10 0 -18 -9.5t-11 -31.5l-45 -313q-3 -21 2.5 -31
t14.5 -10h3z" />
    <glyph glyph-name="r" unicode="r" horiz-adv-x="207" 
d="M136 445q-10 0 -21 -12.5t-13 -33.5l-1 -1l-56 -398h-62l69 495h63l-4 -26q14 13 28.5 21t28.5 8h3q38 0 47 -31q6 -22 1 -61l-17 -115h-62l16 113q3 22 -2.5 31.5t-15.5 9.5h-2z" />
    <glyph glyph-name="s" unicode="s" horiz-adv-x="211" 
d="M138 300l14 104q3 20 -2 30.5t-15 10.5h-4q-10 0 -19 -10.5t-11 -30.5l-8 -51q-3 -21 3 -38t16.5 -31.5t23.5 -28.5t23.5 -30t16.5 -35t3 -44l-9 -57q-6 -43 -33 -67.5t-60 -24.5h-15q-35 0 -54.5 24.5t-13.5 67.5l15 106h56l-15 -104q-5 -41 21 -41h5q11 0 20 10.5
t12 30.5l7 51q4 31 -10.5 53t-33 43.5t-32.5 47t-9 63.5l8 57q6 43 32.5 67.5t61.5 24.5h9q35 0 55 -24.5t13 -67.5l-15 -106h-56z" />
    <glyph glyph-name="t" unicode="t" horiz-adv-x="144" 
d="M154 657l-23 -162h40l-7 -53h-41l-50 -353q-3 -22 6 -33t29 -7l-8 -50q-28 -4 -46.5 1.5t-29 18t-14 31t-0.5 39.5l50 353h-24l7 53h24l23 156z" />
    <glyph glyph-name="u" unicode="u" horiz-adv-x="213" 
d="M75 50q10 0 21 12.5t13 33.5l57 399h63l-70 -495h-63l3 26q-14 -14 -28.5 -21.5t-28.5 -7.5h-2q-34 0 -43.5 24.5t-3.5 67.5l57 406h63l-58 -404q-4 -41 18 -41h2z" />
    <glyph glyph-name="v" unicode="v" horiz-adv-x="182" 
d="M168 495h52l-123 -495h-77l18 495h58l-17 -362h2z" />
    <glyph glyph-name="w" unicode="w" horiz-adv-x="313" 
d="M17 0l20 495h59l-16 -330h2l89 330h55l-5 -330h2l78 330h53l-121 -495h-69l9 358h-1l-87 -358h-68z" />
    <glyph glyph-name="x" unicode="x" horiz-adv-x="197" 
d="M135 257l37 -257h-62l-20 160l-65 -160h-57l106 250l-34 245h61l18 -146l61 146h57z" />
    <glyph glyph-name="y" unicode="y" horiz-adv-x="185" 
d="M170 495h52l-162 -660h-62l43 165l-3 495h58l-9 -320h2z" />
    <glyph glyph-name="z" unicode="z" horiz-adv-x="182" 
d="M143 0h-175l8 51l168 393h-102l7 51h164l-8 -50l-168 -394h113z" />
    <glyph glyph-name="braceleft" unicode="{" horiz-adv-x="224" 
d="M31 384h11q26 0 38.5 17.5t16.5 45.5l30 210q8 57 39 82.5t66 25.5h28l-8 -57h-5q-27 0 -38.5 -18.5t-15.5 -44.5l-28 -196q-8 -50 -36 -70t-60 -22q15 -1 29.5 -6t24.5 -16t14.5 -28.5t1.5 -41.5l-29 -196q-3 -26 3 -44.5t34 -18.5h5l-8 -57h-28q-18 0 -33 6t-25.5 19.5
t-15.5 33.5t-1 49l30 210q5 28 -3 45.5t-33 17.5h-11l4 27z" />
    <glyph glyph-name="bar" unicode="|" horiz-adv-x="111" 
d="M88 729h63l-109 -759h-62z" />
    <glyph glyph-name="braceright" unicode="}" horiz-adv-x="224" 
d="M232 384l-8 -54h-11q-25 0 -37.5 -17.5t-16.5 -45.5l-30 -210q-8 -57 -39 -82.5t-66 -25.5h-28l8 57h5q27 0 38.5 18.5t15.5 44.5l28 196q7 49 35.5 69.5t60.5 22.5q-15 1 -29.5 6t-24.5 16t-15 28t-1 42l28 196q4 26 -2.5 44.5t-33.5 18.5h-5l8 57h28q18 0 33 -6
t25.5 -19.5t15.5 -34t1 -48.5l-31 -210q-4 -28 3.5 -45.5t33.5 -17.5h11z" />
    <glyph glyph-name="asciitilde" unicode="~" horiz-adv-x="295" 
d="M18 234q17 29 33.5 42t37.5 13q13 0 25.5 -5.5t24.5 -11.5t24 -11.5t26 -5.5q13 0 22.5 7t23.5 25l42 -32q-16 -32 -33 -44t-42 -12q-14 0 -27 5.5t-25 11.5t-24 11.5t-22 5.5q-14 0 -24 -6.5t-24 -24.5z" />
    <glyph glyph-name="uni00A0" unicode="&#xa0;" horiz-adv-x="0" 
 />
    <glyph glyph-name="exclamdown" unicode="&#xa1;" horiz-adv-x="125" 
d="M150 607h-69l13 92h69zM100 268l-38 -268h-67l38 268l52 307h50z" />
    <glyph glyph-name="cent" unicode="&#xa2;" horiz-adv-x="206" 
d="M136 291l17 113q2 21 -3 31t-14 10h-5q-10 0 -19 -10t-11 -31l-45 -313q-3 -22 2.5 -31.5t13.5 -9.5h7q9 0 17.5 9.5t11.5 31.5l16 115h63l-16 -116q-6 -39 -28 -62.5t-51 -28.5l-8 -59h-45l8 58q-28 4 -43 28t-10 64l44 315q6 41 28.5 64.5t53.5 27.5l7 58h45l-8 -59
q27 -5 42 -28.5t9 -61.5l-16 -115h-63z" />
    <glyph glyph-name="sterling" unicode="&#xa3;" horiz-adv-x="277" 
d="M28 307h48l43 300q4 26 14.5 44.5t24.5 30.5t31 17.5t33 5.5h17q16 0 31.5 -5.5t26.5 -17.5t16.5 -30.5t1.5 -44.5l-27 -190h-68l26 181q4 27 -2.5 38.5t-17.5 11.5h-6q-11 0 -21 -11t-14 -40l-42 -290h129l-8 -58h-129l-11 -81q-7 -47 -15.5 -73t-16.5 -37h145l-8 -58
h-213l7 57v1h1q10 11 17.5 35t14.5 74l11 82h-47z" />
    <glyph glyph-name="currency" unicode="&#xa4;" horiz-adv-x="351" 
d="M263 233q-20 -13 -42.5 -20t-45.5 -7q-48 0 -82 28l-45 -40l-29 35l45 39q-22 38 -15 86q3 23 13.5 44t26.5 39l-35 41l39 34l35 -40q20 13 42.5 20.5t45.5 7.5q47 0 81 -28l46 41l29 -34l-46 -41q11 -18 15.5 -39.5t1.5 -44.5q-4 -24 -14.5 -46t-25.5 -40l34 -40
l-39 -34zM100 354q-6 -42 17.5 -69.5t64.5 -27.5t72 27.5t37 69.5q5 40 -18 67t-64 27q-20 0 -38.5 -7t-33.5 -20t-24.5 -30t-12.5 -37z" />
    <glyph glyph-name="yen" unicode="&#xa5;" horiz-adv-x="226" 
d="M72 192l7 45h-69l6 46h66l-12 416h67l1 -283h2l81 283h67l-131 -416h63l-7 -46h-66l-7 -45h67l-7 -46h-66l-21 -146h-68l21 146h-69l7 46h68z" />
    <glyph glyph-name="brokenbar" unicode="&#xa6;" horiz-adv-x="111" 
d="M42 408l46 321h63l-46 -321h-63zM26 293h62l-46 -323h-62zM26 293l16 115zM89 293h-1l17 115z" />
    <glyph glyph-name="section" unicode="&#xa7;" horiz-adv-x="206" 
d="M161 465l21 146q3 20 -2.5 30.5t-15.5 10.5h-5q-9 0 -17.5 -10.5t-11.5 -30.5l-13 -93q-3 -21 3 -38t16.5 -32t23.5 -29t23.5 -30t16 -35t2.5 -43l-10 -69q-5 -39 -28 -62.5t-52 -28.5q10 -12 20.5 -24t18 -26t11.5 -30.5t1 -37.5l-17 -112q-6 -43 -33 -67.5t-60 -24.5
h-16q-34 0 -53.5 24.5t-13.5 67.5l23 161h56l-22 -159q-4 -20 2.5 -30.5t17.5 -10.5h6q25 0 31 41l15 106q4 31 -10.5 53t-33 43.5t-32.5 47t-9 63.5l11 74q5 36 25 59t47 30q-9 11 -18.5 23t-16 25.5t-9.5 29.5t0 36l15 100q6 43 32.5 67.5t61.5 24.5h9q35 0 54.5 -24.5
t13.5 -67.5l-21 -148h-57zM97 202q9 0 18 8t14 31l11 70q1 19 -5 28.5t-16 9.5h-2q-10 0 -18 -9.5t-11 -31.5l-11 -65q-3 -21 2.5 -31t15.5 -10h2z" />
    <glyph glyph-name="dieresis" unicode="&#xa8;" horiz-adv-x="179" 
d="M125 600h-44l9 68h45zM204 600h-45l9 68h45z" />
    <glyph glyph-name="copyright" unicode="&#xa9;" horiz-adv-x="494" 
d="M30 348q10 72 29 136t52.5 111.5t84 75t122.5 27.5t113 -27.5t58.5 -75t17 -111.5t-10.5 -136q-11 -72 -28.5 -136t-49 -111.5t-80 -75t-120.5 -27.5t-114.5 27.5t-62 75t-20.5 111.5t9 136zM71 348q-9 -63 -10 -118.5t14 -97.5t50.5 -66t98.5 -24t103.5 24t66 66
t39 97.5t22.5 118.5t11 118.5t-11.5 97.5t-47 66t-96.5 24t-105 -24t-69 -66t-42 -97.5t-24 -118.5zM300 394l11 73q3 21 -2.5 31t-14.5 10h-5q-10 0 -18.5 -10t-11.5 -31l-34 -233q-3 -22 2.5 -31.5t14.5 -9.5h6q10 0 18 9.5t11 31.5l11 75h63l-11 -76q-6 -45 -33 -69
t-61 -24h-18q-32 0 -52 24.5t-14 68.5l34 235q7 45 33 69t60 24h16q35 0 55 -24t13 -68l-10 -75h-63z" />
    <glyph glyph-name="ordfeminine" unicode="&#xaa;" horiz-adv-x="142" 
d="M72 392q-21 0 -26 15t-1 42l8 60q4 27 14.5 42.5t32.5 15.5h2q14 0 29 -13l13 92q2 13 -2 19.5t-10 6.5h-2q-13 0 -18 -26l-9 -71h-40l10 72q4 28 20.5 43t38.5 15h9q22 0 35 -15.5t9 -43.5l-36 -252h-41l1 11q-20 -13 -35 -13h-2zM111 538q-14 0 -17 -27l-9 -63
q-2 -13 1.5 -19.5t8.5 -6.5t11 5t9 15l5 35l6 45q2 9 -2.5 12.5t-9.5 3.5h-3z" />
    <glyph glyph-name="guillemotleft" unicode="&#xab;" horiz-adv-x="240" 
d="M66 43l-48 201l46 201h59l-46 -202l49 -200h-60zM162 43l-48 201l46 201h59l-46 -202l49 -200h-60z" />
    <glyph glyph-name="logicalnot" unicode="&#xac;" horiz-adv-x="314" 
d="M295 227h-50l15 100h-229l7 46h278z" />
    <glyph glyph-name="registered" unicode="&#xae;" horiz-adv-x="315" 
d="M58 526q5 37 18 69.5t34 57t49.5 38.5t65.5 14t61 -14t37 -38.5t16 -57t-2 -69.5t-17.5 -69.5t-32.5 -57t-48 -38.5t-65 -14t-61.5 14t-38.5 38.5t-17.5 57t1.5 69.5zM88 526q-5 -32 -3.5 -60t11.5 -49t29.5 -33t51.5 -12t54.5 12t38 33t24.5 49t14 60q4 31 3.5 59
t-10 49t-29 33.5t-51.5 12.5q-31 0 -54 -12.5t-39.5 -33.5t-26 -49t-13.5 -59zM251 554q-5 -27 -21 -34q14 -6 11 -33l-8 -55h-30l6 46q4 25 -10 25h-14l-11 -71h-31l29 197h53q18 0 25 -14.5t4 -40.5zM204 534q14 0 17 26l2 12q3 26 -11 26h-14l-9 -64h15z" />
    <glyph glyph-name="macron" unicode="&#xaf;" horiz-adv-x="197" 
d="M205 610h-133l6 47h133z" />
    <glyph glyph-name="degree" unicode="&#xb0;" horiz-adv-x="122" 
d="M112 607q-19 0 -30.5 13.5t-8.5 32.5t18 32.5t34 13.5t30.5 -13.5t9.5 -32.5q-3 -19 -18.5 -32.5t-34.5 -13.5zM123 684q-13 0 -23 -9t-12 -22t5.5 -21.5t20.5 -8.5t23 8.5t12 21.5t-5.5 22t-20.5 9z" />
    <glyph glyph-name="plusminus" unicode="&#xb1;" horiz-adv-x="290" 
d="M149 451l19 125h52l-19 -125h102l-7 -46h-101l-18 -125h-52l18 125h-101l7 46h100zM216 65h-192l7 46h192z" />
    <glyph glyph-name="twosuperior" unicode="&#xb2;" horiz-adv-x="119" 
d="M63 576l12 86q4 23 17.5 33t27.5 10h6q14 0 26 -10t9 -33l-8 -51q-3 -22 -14 -39.5t-24 -38t-25 -48t-18 -67.5h55l-3 -26h-86l3 25q6 45 18.5 73.5t25.5 49.5t24 38t14 38l5 41q2 13 -1 17.5t-8 4.5h-1q-5 0 -9.5 -4.5t-6.5 -17.5l-11 -81h-28z" />
    <glyph glyph-name="threesuperior" unicode="&#xb3;" horiz-adv-x="118" 
d="M93 564h10q15 0 18 25l10 68q2 13 -1 17.5t-8 4.5h-2q-5 0 -8.5 -4.5t-5.5 -16.5l-12 -80h-31l13 84q3 23 16.5 33t27.5 10h8q14 0 26 -10t9 -33l-10 -70q-2 -19 -12.5 -28t-22.5 -11q11 -2 18.5 -10.5t5.5 -26.5l-12 -81q-3 -23 -17.5 -33t-28.5 -10h-8q-14 0 -25 10
t-8 33l12 84h31l-12 -80q-2 -12 1 -16.5t8 -4.5h2q5 0 9 4.5t6 17.5l11 77q3 25 -11 25h-10l1 12z" />
    <glyph glyph-name="acute" unicode="&#xb4;" horiz-adv-x="156" 
d="M22 589l51 86h60l-70 -86h-41z" />
    <glyph glyph-name="mu" unicode="&#xb5;" horiz-adv-x="208" 
d="M160 0h-63l3 25q-14 -13 -28 -20.5t-28 -7.5h-1l-23 -161h-62l86 609h1l7 50h62l-7 -50l-52 -364q-1 -31 19 -31h2q8 0 18 10t15 28l59 407h63z" />
    <glyph glyph-name="paragraph" unicode="&#xb6;" horiz-adv-x="310" 
d="M296 648h-62l-115 -813h-51l80 561q-27 0 -46 13.5t-30 35t-14.5 48.5t0.5 54t15 54.5t28 49t40 35t50 13.5h164l-123 -864h-51z" />
    <glyph glyph-name="periodcentered" unicode="&#xb7;" horiz-adv-x="125" 
d="M90 201h-69l13 92h69z" />
    <glyph glyph-name="cedilla" unicode="&#xb8;" horiz-adv-x="180" 
d="M28 -95l7 30q9 -6 22 -9t24 -1.5t18.5 7.5t6.5 17q-2 12 -15 15.5t-24 -4.5l-14 6l18 34h37l-8 -21q18 8 35 -0.5t17 -28.5q0 -26 -15.5 -39.5t-36 -18t-41 -0.5t-31.5 13z" />
    <glyph glyph-name="onesuperior" unicode="&#xb9;" horiz-adv-x="90" 
d="M63 392l37 261q-5 -2 -13.5 -3.5t-14.5 -1.5l3 24q11 0 22.5 8t14.5 19h26l-45 -307h-30z" />
    <glyph glyph-name="ordmasculine" unicode="&#xba;" horiz-adv-x="119" 
d="M77 392q-15 0 -26 10t-8 33l32 227q3 23 17 33t29 10h6q15 0 26.5 -10t8.5 -33l-33 -227q-3 -23 -17 -33t-29 -10h-6zM120 679q-12 0 -15 -22l-31 -217q-3 -22 8 -22h2q12 0 15 22l31 217q3 22 -8 22h-2z" />
    <glyph glyph-name="guillemotright" unicode="&#xbb;" horiz-adv-x="240" 
d="M47 43l48 200l-45 202h59l46 -201l-48 -201h-60zM143 43l48 200l-45 202h59l46 -201l-48 -201h-60z" />
    <glyph glyph-name="onequarter" unicode="&#xbc;" horiz-adv-x="275" 
d="M287 699h33l-298 -699h-32zM215 70l-4 -26h-14l-6 -44h-26l6 44h-59l2 26l83 235h37l-34 -235h15zM79 392l37 261q-5 -2 -13.5 -3.5t-14.5 -1.5l4 24q11 0 22 8t14 19h26l-44 -307h-31zM195 222h-1l-50 -151v-1h30z" />
    <glyph glyph-name="onehalf" unicode="&#xbd;" horiz-adv-x="282" 
d="M287 699h33l-297 -699h-33zM80 392l37 261q-5 -2 -13.5 -3.5t-14.5 -1.5l3 24q11 0 22.5 8t14.5 19h26l-44 -307h-31zM165 184l12 86q3 23 17 33t28 10h7q14 0 25 -10t8 -33l-7 -51q-3 -22 -14 -39.5t-24 -38t-25 -48t-18 -67.5h55l-4 -26h-87l4 25q6 45 18.5 73.5
t25.5 49.5t24 38t14 38l6 41q2 13 -1.5 17.5t-8.5 4.5h-1q-5 0 -9 -4.5t-6 -17.5l-11 -81h-28z" />
    <glyph glyph-name="threequarters" unicode="&#xbe;" horiz-adv-x="281" 
d="M286 699h33l-297 -699h-32zM190 168h11q15 0 18 25l10 70q2 13 -1 17t-8 4h-2q-5 0 -9 -4t-6 -16l-11 -82h-31l13 86q3 23 16.5 33t28.5 10h7q14 0 26 -10t9 -33l-11 -72q-2 -19 -12.5 -28t-21.5 -11q11 -2 18.5 -10.5t4.5 -26.5l-12 -83q-3 -23 -17.5 -33t-28.5 -10h-7
q-14 0 -25.5 10t-8.5 33l13 86h30l-12 -82q-2 -12 1 -16.5t8 -4.5h2q5 0 9.5 4.5t6.5 17.5l11 79q3 25 -11 25h-10l1 12zM79 392l38 261q-6 -2 -14.5 -3.5t-14.5 -1.5l4 24q11 0 21.5 8t13.5 19h26l-43 -307h-31z" />
    <glyph glyph-name="questiondown" unicode="&#xbf;" horiz-adv-x="222" 
d="M190 116l-27 -189q-4 -26 -14.5 -44.5t-24.5 -30.5t-31 -17.5t-33 -5.5h-10q-17 0 -32 5.5t-26 17.5t-16.5 30.5t-1.5 44.5l16 110q4 34 15.5 61t26 52t30.5 50t29 55t21 67.5t8 87.5h67q-1 -56 -9.5 -96.5t-21.5 -72t-28.5 -56.5t-30 -49.5t-26 -50.5t-16.5 -59l-12 -89
q-4 -29 2 -40t17 -11h6q11 0 21 11.5t14 38.5l25 180h62zM136 534h69l-13 -92h-69z" />
    <glyph glyph-name="Agrave" unicode="&#xc0;" horiz-adv-x="223" 
d="M177 0l33 699h-86l-164 -699h58l44 189h60l-10 -189h65zM137 511h2l-15 -271h-50zM153 738l-45 86h59l28 -86h-42z" />
    <glyph glyph-name="Aacute" unicode="&#xc1;" horiz-adv-x="223" 
d="M112 0l10 189h-60l-44 -189h-58l164 699h86l-33 -699h-65zM74 240h50l15 271h-2zM151 738l53 86h59l-70 -86h-42z" />
    <glyph glyph-name="Acircumflex" unicode="&#xc2;" horiz-adv-x="223" 
d="M112 0l10 189h-60l-44 -189h-58l164 699h86l-33 -699h-65zM217 824l45 -86h-60l-21 54l-37 -54h-59l70 86h62zM74 240h50l15 271h-2z" />
    <glyph glyph-name="Atilde" unicode="&#xc3;" horiz-adv-x="223" 
d="M179 0l32 699h-87l-162 -699h58l43 189h60l-9 -189h65zM138 511h2l-14 -271h-51zM97 778q23 34 50 34q16 0 31 -10t32 -10q13 0 28 14l27 -20q-13 -19 -26 -25.5t-26 -6.5q-18 0 -32 9.5t-28 9.5q-8 0 -15.5 -3t-15.5 -11z" />
    <glyph glyph-name="Adieresis" unicode="&#xc4;" horiz-adv-x="223" 
d="M178 0l32 699h-86l-163 -699h58l43 189h61l-10 -189h65zM137 511h3l-15 -271h-51zM158 749h-45l10 68h45zM236 749h-44l9 68h45z" />
    <glyph glyph-name="Aring" unicode="&#xc5;" horiz-adv-x="223" 
d="M176 0l32 699h-87l-162 -699h58l43 189h60l-9 -189h65zM170 729q-24 0 -40.5 18.5t-12.5 42.5q4 26 24.5 45.5t45.5 19.5q26 0 42.5 -19t12.5 -46q-3 -23 -24.5 -42t-47.5 -19zM135 511h2l-14 -271h-51zM182 819q-10 0 -19.5 -8.5t-11.5 -19.5t5.5 -19t18.5 -8t20.5 8
t11.5 19t-6 19.5t-19 8.5z" />
    <glyph glyph-name="AE" unicode="&#xc6;" horiz-adv-x="314" 
d="M252 642l-38 -267h69l-7 -51h-70l-37 -267h94l-8 -57h-162l27 189h-68l-41 -189h-58l164 699h232l-8 -57h-89zM63 240h64l58 402h-33z" />
    <glyph glyph-name="Ccedilla" unicode="&#xc7;" 
d="M2 -101l10 30q9 -6 21 -9t23.5 -1.5t20 7.5t8.5 17q0 12 -12.5 15.5t-24.5 -4.5l-13 6l22 34h3q-15 1 -29 7t-23.5 18t-14 30t-1.5 43l73 515q4 26 14.5 44.5t24.5 30.5t31 17.5t33 5.5h17q16 0 31.5 -5.5t26.5 -17.5t16 -30.5t1 -44.5l-27 -190h-68l27 181
q4 27 -2.5 38.5t-18.5 11.5h-5q-12 0 -21.5 -11t-13.5 -40l-70 -495q-4 -28 2 -39.5t18 -11.5h5q12 0 21.5 11.5t13.5 39.5l26 181h67l-27 -191q-8 -50 -36.5 -73t-60.5 -25h5l-11 -21q19 8 34.5 -0.5t12.5 -28.5q-4 -26 -21 -39.5t-38 -18t-41 -0.5t-29 13z" />
    <glyph glyph-name="Egrave" unicode="&#xc8;" horiz-adv-x="189" 
d="M230 642l8 57h-156l-99 -699h161l8 57h-94l38 267h69l7 51h-69l38 267h89zM148 738l-45 86h59l28 -86h-42z" />
    <glyph glyph-name="Eacute" unicode="&#xc9;" horiz-adv-x="189" 
d="M141 642l-38 -267h69l-7 -51h-69l-38 -267h94l-8 -57h-161l99 699h156l-8 -57h-89zM146 738l53 86h60l-71 -86h-42z" />
    <glyph glyph-name="Ecircumflex" unicode="&#xca;" horiz-adv-x="189" 
d="M141 642l-38 -267h69l-7 -51h-69l-38 -267h94l-8 -57h-161l99 699h156l-8 -57h-89zM212 824l45 -86h-59l-22 54l-37 -54h-59l70 86h62z" />
    <glyph glyph-name="Edieresis" unicode="&#xcb;" horiz-adv-x="189" 
d="M231 642l8 57h-157l-98 -699h161l8 57h-94l38 267h69l7 51h-70l39 267h89zM153 749h-44l9 68h45zM231 749h-44l9 68h45z" />
    <glyph glyph-name="Igrave" unicode="&#xcc;" horiz-adv-x="104" 
d="M82 699l-99 -699h67l99 699h-67zM102 743l-45 86h59l28 -86h-42z" />
    <glyph glyph-name="Iacute" unicode="&#xcd;" horiz-adv-x="104" 
d="M150 699l-100 -699h-67l99 699h68zM101 743l52 86h60l-71 -86h-41z" />
    <glyph glyph-name="Icircumflex" unicode="&#xce;" horiz-adv-x="104" 
d="M149 699l-99 -699h-67l99 699h67zM166 829l45 -86h-60l-21 54l-37 -54h-59l70 86h62z" />
    <glyph glyph-name="Idieresis" unicode="&#xcf;" horiz-adv-x="104" 
d="M82 699l-98 -699h67l99 699h-68zM107 754h-45l10 68h45zM185 754h-44l9 68h45z" />
    <glyph glyph-name="Eth" unicode="&#xd0;" horiz-adv-x="230" 
d="M-16 0l46 326h-23l6 48h24l46 325h106q16 0 31.5 -5t26.5 -16.5t16 -29.5t1 -44l-71 -509q-4 -26 -14.5 -44t-25 -29.5t-31.5 -16.5t-33 -5h-105zM142 642l-38 -268h22l-7 -48h-22l-38 -269h33q11 0 20.5 10.5t13.5 37.5l70 489q4 27 -3 37.5t-18 10.5h-33z" />
    <glyph glyph-name="Ntilde" unicode="&#xd1;" horiz-adv-x="255" 
d="M130 0l-22 491h-1l-69 -491h-56l98 699h77l16 -484h1l69 484h62l-100 -699h-75zM121 778q12 18 25 26t25 8q17 0 31.5 -10t31.5 -10q13 0 28 14l28 -20q-14 -19 -26.5 -25.5t-26.5 -6.5q-18 0 -31.5 9.5t-27.5 9.5q-8 0 -15.5 -3t-16.5 -11z" />
    <glyph glyph-name="Ograve" unicode="&#xd2;" 
d="M67 -6q-16 0 -31 5.5t-26 17.5t-16 30.5t-2 44.5l73 515q4 26 14 44.5t24.5 30.5t31 17.5t33.5 5.5h17q16 0 31 -5.5t26.5 -17.5t16.5 -30.5t2 -44.5l-74 -515q-4 -26 -14.5 -44.5t-24.5 -30.5t-31 -17.5t-33 -5.5h-17zM166 648q-11 0 -21 -12t-14 -39l-70 -495
q-4 -28 2 -39.5t17 -11.5h6q11 0 21 11.5t14 39.5l71 495q4 27 -2.5 39t-17.5 12h-6zM162 738l-46 86h59l28 -86h-41z" />
    <glyph glyph-name="Oacute" unicode="&#xd3;" 
d="M67 -6q-16 0 -31 5.5t-26 17.5t-16 30.5t-2 44.5l73 515q4 26 14 44.5t24.5 30.5t31 17.5t33.5 5.5h17q16 0 31 -5.5t26.5 -17.5t16.5 -30.5t2 -44.5l-74 -515q-4 -26 -14.5 -44.5t-24.5 -30.5t-31 -17.5t-33 -5.5h-17zM166 648q-11 0 -21 -12t-14 -39l-70 -495
q-4 -28 2 -39.5t17 -11.5h6q11 0 21 11.5t14 39.5l71 495q4 27 -2.5 39t-17.5 12h-6zM160 738l52 86h59l-69 -86h-42z" />
    <glyph glyph-name="Ocircumflex" unicode="&#xd4;" 
d="M67 -6q-16 0 -31 5.5t-26 17.5t-16.5 30.5t-1.5 44.5l73 515q4 26 14 44.5t24.5 30.5t31 17.5t33.5 5.5h16q16 0 31.5 -5.5t26.5 -17.5t16.5 -30.5t1.5 -44.5l-73 -515q-4 -26 -14.5 -44.5t-24.5 -30.5t-31 -17.5t-33 -5.5h-17zM166 648q-12 0 -21.5 -12t-13.5 -39
l-70 -495q-4 -28 2 -39.5t17 -11.5h6q11 0 21 11.5t14 39.5l70 495q4 27 -2 39t-18 12h-5zM224 824l47 -86h-60l-22 55l-36 -55h-60l70 86h61z" />
    <glyph glyph-name="Otilde" unicode="&#xd5;" 
d="M57 -6q-16 0 -31 5.5t-26 17.5t-16.5 30.5t-1.5 44.5l72 515q4 26 14.5 44.5t25 30.5t31 17.5t33.5 5.5h16q16 0 31.5 -5.5t26.5 -17.5t16.5 -30.5t1.5 -44.5l-73 -515q-4 -26 -14.5 -44.5t-25 -30.5t-31.5 -17.5t-33 -5.5h-16zM155 648q-11 0 -21 -12t-13 -39l-71 -495
q-4 -28 2.5 -39.5t17.5 -11.5h6q11 0 20.5 11.5t13.5 39.5l71 495q4 27 -2.5 39t-17.5 12h-6zM94 778q11 18 24 26t26 8q16 0 30.5 -10t31.5 -10q14 0 29 14l27 -20q-13 -19 -26 -25.5t-26 -6.5q-18 0 -32 9.5t-28 9.5q-8 0 -15.5 -3t-15.5 -11z" />
    <glyph glyph-name="Odieresis" unicode="&#xd6;" 
d="M67 -6q-16 0 -31 5.5t-26 17.5t-16 30.5t-1 44.5l72 515q4 26 14.5 44.5t25 30.5t31 17.5t33.5 5.5h16q16 0 31.5 -5.5t26.5 -17.5t16.5 -30.5t1.5 -44.5l-73 -515q-4 -26 -15 -44.5t-25 -30.5t-31 -17.5t-33 -5.5h-17zM166 648q-12 0 -21 -12t-13 -39l-71 -495
q-4 -28 2.5 -39.5t17.5 -11.5h6q11 0 20.5 11.5t13.5 39.5l71 495q4 27 -2.5 39t-18.5 12h-5zM166 749h-44l10 68h44zM245 749h-45l10 68h45z" />
    <glyph glyph-name="multiply" unicode="&#xd7;" horiz-adv-x="251" 
d="M103 350l-74 86l42 37l73 -87l99 87l31 -37l-98 -86l74 -86l-42 -37l-74 86l-98 -86l-31 37z" />
    <glyph glyph-name="Oslash" unicode="&#xd8;" horiz-adv-x="299" 
d="M72 -6q-20 0 -38 8.5t-29 25.5l-17 -38h-39l48 104l72 513q4 26 14.5 44.5t25 30.5t31 17.5t33.5 5.5h17q20 0 38 -8.5t29 -27.5l18 40h39l-50 -111l-72 -506q-4 -26 -14.5 -44.5t-25 -30.5t-31.5 -17.5t-33 -5.5h-16zM170 648q-11 0 -20.5 -12t-13.5 -39l-41 -285
l88 194l13 91q4 27 -2.5 39t-17.5 12h-6zM85 51h6q11 0 20.5 11.5t13.5 39.5l40 278l-88 -194l-12 -84q-4 -28 2.5 -39.5t17.5 -11.5z" />
    <glyph glyph-name="Ugrave" unicode="&#xd9;" horiz-adv-x="230" 
d="M71 -6q-16 0 -31 5.5t-26.5 17.5t-16.5 30.5t-2 44.5l87 607h67l-85 -597q-4 -28 2.5 -39.5t17.5 -11.5h5q12 0 21.5 11.5t13.5 39.5l86 597h67l-87 -607q-4 -26 -14.5 -44.5t-24.5 -30.5t-31 -17.5t-33 -5.5h-16zM165 738l-46 86h59l29 -86h-42z" />
    <glyph glyph-name="Uacute" unicode="&#xda;" horiz-adv-x="230" 
d="M70 -6q-16 0 -31 5.5t-26 17.5t-16.5 30.5t-1.5 44.5l86 607h68l-85 -597q-4 -28 2 -39.5t17 -11.5h6q11 0 21 11.5t14 39.5l85 597h68l-87 -607q-4 -26 -14.5 -44.5t-24.5 -30.5t-31 -17.5t-33 -5.5h-17zM163 738l51 86h60l-70 -86h-41z" />
    <glyph glyph-name="Ucircumflex" unicode="&#xdb;" horiz-adv-x="230" 
d="M70 -6q-16 0 -31 5.5t-26 17.5t-16.5 30.5t-1.5 44.5l86 607h68l-85 -597q-4 -28 2 -39.5t17 -11.5h6q11 0 21 11.5t14 39.5l85 597h68l-87 -607q-4 -26 -14.5 -44.5t-24.5 -30.5t-31 -17.5t-33 -5.5h-17zM227 824l47 -86h-60l-22 55l-36 -55h-60l70 86h61z" />
    <glyph glyph-name="Udieresis" unicode="&#xdc;" horiz-adv-x="230" 
d="M70 -6q-16 0 -31 5.5t-26 17.5t-16.5 30.5t-1.5 44.5l86 607h68l-85 -597q-5 -28 2 -39.5t18 -11.5h5q12 0 21 11.5t14 39.5l85 597h68l-87 -607q-8 -52 -39 -75t-65 -23h-16zM169 749h-45l10 68h45zM247 749h-45l10 68h45z" />
    <glyph glyph-name="Yacute" unicode="&#xdd;" horiz-adv-x="224" 
d="M139 262l-38 -262h-68l38 262l-13 437h67l1 -283h2l81 283h67zM151 738l52 86h60l-71 -86h-41z" />
    <glyph glyph-name="Thorn" unicode="&#xde;" horiz-adv-x="219" 
d="M150 699l-15 -101h36q35 0 55 -24t14 -68l-45 -316q-7 -44 -33.5 -68.5t-61.5 -24.5h-36l-14 -97h-67l99 699h68zM128 546l-56 -396h29q10 0 18.5 10t11.5 31l44 314q3 21 -2.5 31t-14.5 10h-30z" />
    <glyph glyph-name="germandbls" unicode="&#xdf;" horiz-adv-x="248" 
d="M261 449q-6 -42 -28.5 -62.5t-48.5 -26.5q25 -5 41.5 -24t10.5 -60l-26 -178q-3 -26 -13.5 -44.5t-25 -30.5t-31.5 -17.5t-33 -5.5h-33l7 57h22q12 0 24.5 11t16.5 40l24 170q5 27 -2 42t-23 15h-22l3 22l4 27h22q34 0 42 57l22 156q4 29 -5 40t-21 11h-11
q-12 0 -24.5 -11.5t-16.5 -38.5l-85 -598h-67l86 607q3 26 14.5 44.5t27 30.5t33 17.5t34.5 5.5h22q16 0 32.5 -5.5t28.5 -17.5t18.5 -30.5t2.5 -44.5l-22 -158v0z" />
    <glyph glyph-name="agrave" unicode="&#xe0;" horiz-adv-x="205" 
d="M36 -3q-34 0 -41 24.5t-1 67.5l13 96q6 43 22.5 67.5t50.5 24.5h3q13 0 25.5 -6t23.5 -16l21 149q4 41 -19 41h-4q-10 0 -18.5 -10t-10.5 -31l-16 -113h-63l16 115q6 44 32.5 68t61.5 24h16q34 0 54 -24t13 -69l-57 -405h-63l3 19q-15 -10 -30 -16t-28 -6h-4zM99 230
q-10 0 -18.5 -10t-10.5 -31l-15 -104q-3 -22 2.5 -31.5t14.5 -9.5h3q10 0 19.5 9.5t12.5 31.5l17 122q2 13 -4.5 18t-13.5 5h-7zM125 535l-45 86h60l27 -86h-42z" />
    <glyph glyph-name="aacute" unicode="&#xe1;" horiz-adv-x="214" 
d="M36 -3q-34 0 -41 24.5t-1 67.5l13 96q6 43 22.5 67.5t50.5 24.5h3q13 0 25.5 -6t23.5 -16l21 149q4 41 -19 41h-4q-10 0 -18.5 -10t-10.5 -31l-16 -113h-63l16 115q6 44 32.5 68t61.5 24h16q34 0 54 -24t13 -69l-57 -405h-63l3 19q-15 -10 -30 -16t-28 -6h-4zM99 230
q-10 0 -18.5 -10t-10.5 -31l-15 -104q-3 -22 2.5 -31.5t14.5 -9.5h3q10 0 19.5 9.5t12.5 31.5l17 122q2 13 -4.5 18t-13.5 5h-7zM124 535l52 86h60l-71 -86h-41z" />
    <glyph glyph-name="acircumflex" unicode="&#xe2;" horiz-adv-x="212" 
d="M36 -3q-34 0 -41 24.5t-1 67.5l13 96q6 43 22.5 67.5t50.5 24.5h3q13 0 25.5 -6t23.5 -16l21 149q4 41 -19 41h-4q-10 0 -18.5 -10t-10.5 -31l-16 -113h-63l16 115q6 44 32.5 68t61.5 24h16q34 0 54 -24t13 -69l-57 -405h-63l3 19q-15 -10 -30 -16t-28 -6h-4zM99 230
q-10 0 -18.5 -10t-10.5 -31l-15 -104q-3 -22 2.5 -31.5t14.5 -9.5h3q10 0 19.5 9.5t12.5 31.5l17 122q2 13 -4.5 18t-13.5 5h-7zM189 621l45 -86h-59l-22 54l-36 -54h-60l71 86h61z" />
    <glyph glyph-name="atilde" unicode="&#xe3;" horiz-adv-x="215" 
d="M36 -3q-34 0 -41 24.5t-1 67.5l13 96q6 43 22.5 67.5t50.5 24.5h3q13 0 25.5 -6t23.5 -15l21 148q3 21 -2.5 31t-16.5 10h-4q-10 0 -18 -10t-11 -31l-16 -113h-63l16 115q6 44 33 68t61 24h16q35 0 54.5 -24t12.5 -69l-57 -405h-63l3 19q-15 -10 -30 -16t-28 -6h-4z
M99 230q-10 0 -18 -10t-11 -31l-15 -104q-3 -22 2.5 -31.5t14.5 -9.5h3q10 0 19.5 9.5t12.5 31.5l17 122q2 13 -4.5 18t-13.5 5h-7zM68 575q13 18 26 26t25 8q17 0 31 -10t31 -10q14 0 28 14l28 -20q-14 -18 -26.5 -25t-26.5 -7q-18 0 -31.5 9.5t-27.5 9.5q-8 0 -15.5 -3
t-15.5 -11z" />
    <glyph glyph-name="adieresis" unicode="&#xe4;" horiz-adv-x="210" 
d="M38 -3q-34 0 -41.5 24.5t-0.5 67.5l13 96q6 43 22.5 67.5t50.5 24.5h3q24 0 48 -21l21 148q3 21 -2.5 31t-15.5 10h-5q-10 0 -18 -10t-11 -31l-16 -113h-63l16 115q7 44 33.5 68t61.5 24h16q34 0 53.5 -24t13.5 -69l-58 -405h-63l3 19q-31 -22 -58 -22h-3zM101 230
q-10 0 -18.5 -10t-11.5 -31l-14 -104q-3 -22 2 -31.5t15 -9.5h2q10 0 19.5 9.5t12.5 31.5l13 91l5 35q0 11 -6.5 15t-12.5 4h-6zM132 546h-45l10 68h45zM210 546h-44l9 68h45z" />
    <glyph glyph-name="aring" unicode="&#xe5;" horiz-adv-x="210" 
d="M36 -3q-34 0 -41 24.5t-1 67.5l13 96q6 43 22.5 67.5t51.5 24.5h3q12 0 24.5 -6t23.5 -15l21 148q3 21 -2.5 31t-16.5 10h-4q-10 0 -18 -10t-11 -31l-16 -113h-63l16 115q6 44 33 68t62 24h16q34 0 53.5 -24t13.5 -69l-58 -405h-63l3 19q-15 -10 -30 -16t-28 -6h-4z
M145 527q-24 0 -40.5 18t-12.5 43q4 26 25 45t45 19q26 0 42.5 -19t12.5 -45q-4 -24 -25 -42.5t-47 -18.5zM99 230q-10 0 -18 -10t-11 -31l-15 -104q-3 -22 2.5 -31.5t14.5 -9.5h3q10 0 19.5 9.5t12.5 31.5l18 123q1 12 -5.5 17t-13.5 5h-7zM158 616q-11 0 -20.5 -8.5
t-11.5 -19.5q-2 -10 5.5 -18.5t17.5 -8.5q11 0 21 8.5t12 18.5q2 11 -5.5 19.5t-18.5 8.5z" />
    <glyph glyph-name="ae" unicode="&#xe6;" horiz-adv-x="321" 
d="M37 -3q-34 0 -41.5 24.5t-1.5 67.5l13 96q6 43 22.5 67.5t51.5 24.5h3q24 0 48 -21l21 149q0 4 1 6q1 34 -19 34h-4q-10 0 -18.5 -10t-11.5 -31l-16 -113h-63l16 115q7 44 33.5 68t61.5 24h16q27 0 46 -17q23 17 52 17h16q34 0 54.5 -24t13.5 -68l-25 -173h-115l-12 -89
h-1l-7 -53q-3 -22 2.5 -31.5t13.5 -9.5h7q10 0 18 9.5t11 31.5l17 115h63l-17 -116q-7 -45 -33.5 -69t-60.5 -24h-18q-20 0 -35.5 9t-23.5 26q-18 -15 -38 -25t-37 -10h-3zM100 230q-10 0 -18.5 -10t-11.5 -31l-14 -104q-3 -22 2 -31.5t15 -9.5h2q10 0 18.5 8t13.5 26
q0 8 1 12l8 54l9 67q1 10 -6 14.5t-13 4.5h-6zM250 277l18 127q3 21 -2 31t-15 10h-5q-10 0 -18.5 -10t-11.5 -31l-18 -127h52z" />
    <glyph glyph-name="ccedilla" unicode="&#xe7;" horiz-adv-x="206" 
d="M-6 -98l11 30q8 -6 20.5 -9t24 -1.5t20 7.5t8.5 17q0 12 -13 15.5t-25 -4.5l-13 6l23 35q-29 2 -45 26t-11 66l44 315q7 45 33.5 69t60.5 24h16q34 0 54 -24t14 -68l-17 -115h-62l16 113q3 21 -2 31t-15 10h-5q-10 0 -18.5 -10t-11.5 -31l-45 -313q-3 -22 2.5 -31.5
t13.5 -9.5h7q10 0 18 9.5t11 31.5l17 115h62l-16 -116q-6 -41 -29 -65t-55 -27l-11 -22q19 8 34.5 -0.5t13.5 -28.5q-4 -26 -21 -39.5t-38 -18t-41.5 -0.5t-29.5 13z" />
    <glyph glyph-name="egrave" unicode="&#xe8;" horiz-adv-x="206" 
d="M72 50h7q10 0 18 9.5t11 31.5l16 115h63l-17 -116q-6 -45 -33 -69t-61 -24h-18q-32 0 -51 24.5t-13 68.5l44 315q6 45 32.5 69t60.5 24h16q34 0 54.5 -24t13.5 -68l-24 -173h-115l-20 -142q-3 -22 2.5 -31.5t13.5 -9.5zM134 277l19 127q4 41 -18 41h-4q-11 0 -19.5 -10
t-10.5 -31l-18 -127h51zM124 535l-45 86h59l28 -86h-42z" />
    <glyph glyph-name="eacute" unicode="&#xe9;" horiz-adv-x="204" 
d="M73 50h6q10 0 18 9.5t11 31.5l16 115h63l-17 -116q-5 -45 -32 -69t-62 -24h-18q-32 0 -51 24.5t-13 68.5l44 315q7 45 33 69t60 24h16q35 0 55 -24t14 -68l-25 -173h-114l-20 -142q-4 -22 1.5 -31.5t14.5 -9.5zM135 277l18 127q3 21 -2.5 31t-15.5 10h-4q-11 0 -19 -10
t-11 -31l-18 -127h52zM123 535l52 86h60l-71 -86h-41z" />
    <glyph glyph-name="ecircumflex" unicode="&#xea;" horiz-adv-x="206" 
d="M72 50h7q10 0 18 9.5t11 31.5l16 115h62l-16 -116q-6 -45 -33 -69t-61 -24h-18q-32 0 -51.5 24.5t-13.5 68.5l45 315q6 45 32 69t61 24h16q34 0 54.5 -24t13.5 -68l-24 -173h-115l-20 -142q-3 -22 2.5 -31.5t13.5 -9.5zM187 621l46 -86h-60l-21 54l-37 -54h-60l71 86h61z
M134 277l18 127q3 21 -2 31t-15 10h-5q-10 0 -18.5 -10t-11.5 -31l-18 -127h52z" />
    <glyph glyph-name="edieresis" unicode="&#xeb;" horiz-adv-x="206" 
d="M72 50h7q10 0 18 9.5t11 31.5l17 115h62l-16 -116q-7 -45 -34 -69t-61 -24h-18q-32 0 -51.5 24.5t-12.5 68.5l44 315q6 45 32.5 69t61.5 24h16q34 0 54 -24t14 -68l-25 -173h-115l-20 -142q-3 -22 2.5 -31.5t13.5 -9.5zM134 277l18 127q3 21 -2 31t-15 10h-4
q-11 0 -19.5 -10t-11.5 -31l-18 -127h52zM208 546h-45l10 68h45zM130 546h-45l10 68h44z" />
    <glyph glyph-name="igrave" unicode="&#xec;" horiz-adv-x="96" 
d="M54 495l-71 -495h63l70 495h-62zM71 534l-46 86h60l27 -86h-41z" />
    <glyph glyph-name="iacute" unicode="&#xed;" horiz-adv-x="96" 
d="M116 495l-70 -495h-63l71 495h62zM69 534l52 86h60l-71 -86h-41z" />
    <glyph glyph-name="icircumflex" unicode="&#xee;" horiz-adv-x="96" 
d="M116 495l-70 -495h-63l71 495h62zM134 620l46 -86h-60l-21 55l-37 -55h-59l70 86h61z" />
    <glyph glyph-name="idieresis" unicode="&#xef;" horiz-adv-x="96" 
d="M54 495l-70 -495h62l70 495h-62zM75 545h-44l9 68h45zM154 545h-45l10 68h44z" />
    <glyph glyph-name="eth" unicode="&#xf0;" horiz-adv-x="235" 
d="M158 0h-51l-3 29q-14 -14 -29 -23t-29 -9h-3q-34 0 -44.5 24.5t-4.5 67.5l44 317q6 43 23 67.5t51 24.5h3q13 0 25 -8t22 -21l18 123h-36l7 46h35l9 61h63l-9 -61h41l-7 -46h-41zM131 445q-10 0 -18.5 -10t-11.5 -31l-45 -313q-3 -22 2.5 -31.5t14.5 -9.5h3
q10 0 19.5 11.5t12.5 33.5l44 305q4 21 -2.5 33t-16.5 12h-2z" />
    <glyph glyph-name="ntilde" unicode="&#xf1;" horiz-adv-x="209" 
d="M139 445q9 0 14.5 -9.5t2.5 -31.5l-58 -404h63l57 406q7 43 -3 67.5t-44 24.5h-3q-14 0 -28.5 -8t-28.5 -21l4 26h-63l-69 -495h62l57 407q5 17 15 27.5t19 10.5h3zM98 575q12 18 25 26t25 8q17 0 31.5 -10t31.5 -10q11 0 28 14l27 -20q-13 -18 -26 -25t-26 -7
q-18 0 -32 9.5t-28 9.5q-8 0 -15.5 -3t-15.5 -11z" />
    <glyph glyph-name="ograve" unicode="&#xf2;" horiz-adv-x="206" 
d="M60 -3q-34 0 -53 24.5t-13 67.5l44 317q7 43 33 67.5t60 24.5h16q35 0 55 -24.5t14 -67.5l-46 -317q-5 -43 -32 -67.5t-62 -24.5h-16zM131 445q-11 0 -19 -10t-11 -31l-44 -313q-4 -22 1.5 -31.5t16.5 -9.5h4q10 0 18 9.5t11 31.5l45 313q3 21 -2.5 31t-15.5 10h-4z
M125 535l-45 86h59l28 -86h-42z" />
    <glyph glyph-name="oacute" unicode="&#xf3;" horiz-adv-x="204" 
d="M60 -3q-34 0 -53 24.5t-13 67.5l44 317q7 43 33 67.5t60 24.5h16q35 0 55 -24.5t14 -67.5l-46 -317q-5 -43 -32 -67.5t-62 -24.5h-16zM131 445q-11 0 -19 -10t-11 -31l-44 -313q-4 -22 1.5 -31.5t16.5 -9.5h4q10 0 18 9.5t11 31.5l45 313q3 21 -2.5 31t-15.5 10h-4z
M123 535l53 86h60l-71 -86h-42z" />
    <glyph glyph-name="ocircumflex" unicode="&#xf4;" horiz-adv-x="206" 
d="M60 -3q-33 0 -52.5 24.5t-13.5 67.5l44 317q7 43 33 67.5t61 24.5h16q34 0 54 -24.5t14 -67.5l-45 -317q-6 -43 -33 -67.5t-62 -24.5h-16zM131 445q-10 0 -18.5 -10t-11.5 -31l-44 -313q-3 -22 2.5 -31.5t15.5 -9.5h5q9 0 17 9.5t12 31.5l44 313q3 21 -2 31t-15 10h-5z
M189 621l46 -86h-60l-21 55l-37 -55h-60l71 86h61z" />
    <glyph glyph-name="otilde" unicode="&#xf5;" horiz-adv-x="206" 
d="M60 -3q-34 0 -53.5 24.5t-13.5 67.5l45 317q6 43 32.5 67.5t60.5 24.5h16q35 0 55 -24.5t14 -67.5l-46 -317q-6 -43 -33 -67.5t-61 -24.5h-16zM130 445q-10 0 -18.5 -10t-11.5 -31l-44 -313q-3 -22 2.5 -31.5t15.5 -9.5h5q10 0 18 9.5t11 31.5l44 313q3 21 -2 31t-15 10
h-5zM67 575q13 18 26 26t25 8q17 0 31 -10t31 -10q14 0 28 14l28 -20q-13 -18 -26 -25t-26 -7q-18 0 -31.5 9.5t-27.5 9.5q-8 0 -15.5 -3t-16.5 -11z" />
    <glyph glyph-name="odieresis" unicode="&#xf6;" horiz-adv-x="206" 
d="M60 -3q-33 0 -52.5 24.5t-13.5 67.5l45 317q6 43 32.5 67.5t60.5 24.5h16q35 0 54.5 -24.5t13.5 -67.5l-45 -317q-6 -43 -33 -67.5t-62 -24.5h-16zM131 445q-10 0 -18.5 -10t-11.5 -31l-44 -313q-3 -22 2.5 -31.5t15.5 -9.5h5q9 0 17 9.5t12 31.5l44 313q3 21 -2 31
t-15 10h-5zM131 547h-45l10 68h45zM209 547h-45l10 68h45z" />
    <glyph glyph-name="divide" unicode="&#xf7;" horiz-adv-x="349" 
d="M347 326h-317l7 47h316zM234 405h-69l13 92h69zM205 201h-69l13 92h69z" />
    <glyph glyph-name="oslash" unicode="&#xf8;" horiz-adv-x="241" 
d="M62 -3q-31 0 -49 19l-13 -29h-38l33 69q-2 8 -1.5 16t1.5 17l45 317q7 43 33 67.5t61 24.5h16q26 0 45 -16l13 26h39l-30 -63q2 -9 2.5 -18.5t-1.5 -20.5l-45 -317q-7 -43 -33.5 -67.5t-61.5 -24.5h-16zM76 50h5q9 0 17.5 9.5t11.5 31.5l26 184l-74 -157l-4 -27
q-3 -22 2.5 -31.5t15.5 -9.5zM133 445q-10 0 -19 -10t-11 -31l-25 -170l75 158l2 12q2 21 -3 31t-14 10h-5z" />
    <glyph glyph-name="ugrave" unicode="&#xf9;" horiz-adv-x="208" 
d="M73 50q-10 0 -15 9.5t-2 31.5l57 404h-63l-57 -406q-6 -43 3.5 -67.5t43.5 -24.5h2q14 0 28.5 7.5t28.5 21.5l-3 -26h63l70 495h-63l-58 -409q-5 -17 -15 -26.5t-18 -9.5h-2zM125 534l-45 86h59l28 -86h-42z" />
    <glyph glyph-name="uacute" unicode="&#xfa;" horiz-adv-x="208" 
d="M75 50q8 0 18 9.5t15 26.5l58 409h63l-70 -495h-63l3 26q-14 -14 -28.5 -21.5t-28.5 -7.5h-2q-34 0 -43.5 24.5t-3.5 67.5l57 406h63l-57 -404q-3 -22 2 -31.5t15 -9.5h2zM123 534l53 86h60l-71 -86h-42z" />
    <glyph glyph-name="ucircumflex" unicode="&#xfb;" horiz-adv-x="208" 
d="M75 50q8 0 18 9.5t15 26.5l58 409h63l-70 -495h-63l3 26q-14 -14 -28.5 -21.5t-28.5 -7.5h-2q-34 0 -43.5 24.5t-3.5 67.5l57 406h63l-57 -404q-3 -22 2 -31.5t15 -9.5h2zM189 620l45 -86h-59l-22 54l-37 -54h-59l70 86h62z" />
    <glyph glyph-name="udieresis" unicode="&#xfc;" horiz-adv-x="208" 
d="M72 50q-10 0 -15 9.5t-2 31.5l58 404h-63l-57 -406q-7 -43 3 -67.5t44 -24.5h2q14 0 28 7.5t28 20.5l-3 -25h63l71 495h-63l-59 -407q-4 -17 -14 -27.5t-19 -10.5h-2zM208 545h-45l10 68h44zM129 545h-44l9 68h45z" />
    <glyph glyph-name="yacute" unicode="&#xfd;" horiz-adv-x="187" 
d="M170 495h52l-162 -660h-62l43 165l-3 495h58l-9 -320h2zM115 535l52 86h60l-71 -86h-41z" />
    <glyph glyph-name="thorn" unicode="&#xfe;" horiz-adv-x="216" 
d="M149 699l-29 -201h37q34 0 54 -24.5t14 -67.5l-45 -317q-7 -43 -33.5 -67.5t-61.5 -24.5h-36l-23 -162h-67l123 864h67zM113 445l-56 -395h29q10 0 18.5 9.5t11.5 31.5l45 313q4 41 -18 41h-30z" />
    <glyph glyph-name="ydieresis" unicode="&#xff;" horiz-adv-x="187" 
d="M89 175h-2l8 320h-57l3 -495l-43 -165h61l162 660h-52zM120 548h-45l10 68h45zM198 548h-45l10 68h45z" />
    <glyph glyph-name="Amacron" unicode="&#x100;" horiz-adv-x="223" 
d="M113 0l9 189h-60l-43 -189h-58l163 699h86l-32 -699h-65zM74 240h51l14 271h-2zM242 759h-133l7 47h132z" />
    <glyph glyph-name="amacron" unicode="&#x101;" horiz-adv-x="206" 
d="M37 -3q-34 0 -41.5 24.5t-1.5 67.5l13 96q7 43 23 67.5t51 24.5h3q12 0 24.5 -6t23.5 -15l21 148q3 21 -2.5 31t-15.5 10h-5q-10 0 -18 -10t-11 -31l-16 -113h-63l16 115q7 44 33.5 68t61.5 24h16q34 0 53.5 -24t13.5 -69l-58 -405h-63l3 19q-31 -22 -58 -22h-3zM100 230
q-10 0 -18.5 -10t-11.5 -31l-14 -104q-3 -22 2 -31.5t15 -9.5h2q10 0 19.5 9.5t12.5 31.5l13 91l5 35q1 10 -6 14.5t-13 4.5h-6zM215 557h-133l7 46h133z" />
    <glyph glyph-name="Abreve" unicode="&#x102;" horiz-adv-x="223" 
d="M178 0l32 699h-86l-163 -699h58l44 189h60l-10 -189h65zM138 511h2l-15 -271h-50zM158 816q-2 -11 5.5 -19.5t18.5 -8.5t20.5 8.5t11.5 19.5h40q-4 -26 -27 -46.5t-52 -20.5q-26 0 -43 20t-13 47h39z" />
    <glyph glyph-name="abreve" unicode="&#x103;" horiz-adv-x="206" 
d="M37 -3q-34 0 -41.5 24.5t-1.5 67.5l13 96q7 43 23.5 67.5t50.5 24.5h3q25 0 48 -21l21 148q3 21 -2.5 31t-15.5 10h-5q-10 0 -18 -10t-11 -31l-16 -113h-63l16 115q7 44 34 68t61 24h16q35 0 54 -24t13 -69l-57 -405h-63l3 20q-15 -11 -30.5 -17t-28.5 -6h-3zM100 230
q-10 0 -18.5 -10t-10.5 -31l-15 -104q-3 -22 2 -31.5t15 -9.5h2q11 0 20 9.5t12 31.5l18 122q2 13 -5 18t-14 5h-6zM131 613q-2 -11 5 -19.5t18 -8.5t20.5 8.5t11.5 19.5h41q-5 -26 -27.5 -46.5t-51.5 -20.5q-26 0 -43 20t-13 47h39z" />
    <glyph glyph-name="Aogonek" unicode="&#x104;" horiz-adv-x="223" 
d="M189 -65q-11 -18 -29 -25.5t-34.5 -5.5t-27 13.5t-7.5 31.5q2 16 11 28t24 23h-13l10 189h-61l-43 -189h-58l163 699h86l-32 -699h-3q-19 -5 -31.5 -18.5t-14.5 -24.5q-1 -9 3 -14t10 -6t13.5 2t13.5 11zM74 240h51l15 271h-3z" />
    <glyph glyph-name="aogonek" unicode="&#x105;" horiz-adv-x="206" 
d="M37 -3q-34 0 -41.5 24.5t-1.5 67.5l13 96q6 43 23 67.5t51 24.5h3q12 0 24.5 -6t23.5 -15l21 148q3 21 -2.5 31t-15.5 10h-5q-10 0 -18 -10t-11 -31l-16 -113h-63l17 115q6 44 33 68t61 24h16q35 0 54 -24t13 -69l-58 -405h-62l3 20q-15 -11 -30 -17t-29 -6h-3zM100 230
q-10 0 -18 -10t-11 -31l-16 -104q-4 -41 18 -41h2q10 0 20 9.5t12 31.5l18 122q2 13 -5 18t-14 5h-6zM151 -50q-12 -15 -26.5 -13t-12.5 20q2 11 14.5 24.5t31.5 18.5h-50q-14 -11 -23.5 -23t-11.5 -28q-3 -20 8 -31.5t27.5 -13.5t34.5 5.5t29 25.5z" />
    <glyph glyph-name="Cacute" unicode="&#x106;" 
d="M67 -6q-16 0 -31 5.5t-25.5 17.5t-16 30.5t-1.5 44.5l72 515q4 26 14.5 44.5t25 30.5t31 17.5t33.5 5.5h16q16 0 31.5 -5.5t26.5 -17.5t16 -30.5t2 -44.5l-27 -190h-68l26 181q4 27 -2.5 38.5t-17.5 11.5h-6q-11 0 -20.5 -11t-14.5 -40l-70 -495q-4 -28 2.5 -39.5
t17.5 -11.5h5q12 0 21.5 11.5t13.5 39.5l26 181h68l-28 -191q-3 -26 -13.5 -44.5t-25 -30.5t-31.5 -17.5t-33 -5.5h-17zM160 740l52 86h60l-70 -86h-42z" />
    <glyph glyph-name="cacute" unicode="&#x107;" horiz-adv-x="206" 
d="M136 291l16 113q3 21 -2 31t-15 10h-5q-10 0 -18.5 -10t-11.5 -31l-44 -313q-3 -22 2.5 -31.5t13.5 -9.5h7q10 0 18 9.5t11 31.5l16 115h62l-16 -116q-6 -45 -33 -69t-61 -24h-18q-32 0 -51.5 24.5t-13.5 68.5l45 315q6 45 32 69t61 24h16q34 0 54.5 -24t13.5 -68
l-16 -115h-63zM122 535l53 86h60l-71 -86h-42z" />
    <glyph glyph-name="Ccircumflex" unicode="&#x108;" 
d="M67 -6q-16 0 -31 5.5t-25.5 17.5t-16 30.5t-1.5 44.5l72 515q4 26 14.5 44.5t25 30.5t31 17.5t33.5 5.5h16q16 0 31.5 -5.5t26.5 -17.5t16 -30.5t2 -44.5l-27 -190h-68l26 181q4 27 -2.5 38.5t-17.5 11.5h-6q-11 0 -20.5 -11t-14.5 -40l-70 -495q-4 -28 2.5 -39.5
t17.5 -11.5h5q12 0 21.5 11.5t13.5 39.5l26 181h68l-28 -191q-3 -26 -13.5 -44.5t-25 -30.5t-31.5 -17.5t-33 -5.5h-17zM225 826l46 -86h-59l-22 55l-37 -55h-59l70 86h61z" />
    <glyph glyph-name="ccircumflex" unicode="&#x109;" horiz-adv-x="206" 
d="M137 291l16 113q3 21 -2.5 31t-15.5 10h-4q-11 0 -19 -10t-11 -31l-44 -313q-4 -22 1.5 -31.5t14.5 -9.5h6q10 0 18 9.5t11 31.5l16 115h63l-17 -116q-5 -45 -32 -69t-62 -24h-18q-32 0 -51 24.5t-13 68.5l44 315q7 45 33 69t60 24h16q35 0 55 -24t14 -68l-16 -115h-63z
M188 621l46 -86h-60l-21 54l-37 -54h-60l71 86h61z" />
    <glyph glyph-name="Cdotaccent" unicode="&#x10a;" 
d="M67 -6q-16 0 -31 5.5t-25.5 17.5t-16 30.5t-1.5 44.5l72 515q4 26 14.5 44.5t25 30.5t31 17.5t33.5 5.5h17q16 0 31 -5.5t26 -17.5t16.5 -30.5t1.5 -44.5l-27 -190h-68l26 181q4 27 -2.5 38.5t-17.5 11.5h-6q-11 0 -20.5 -11t-13.5 -40l-71 -495q-4 -28 2.5 -39.5
t17.5 -11.5h6q11 0 20.5 11.5t13.5 39.5l26 181h68l-27 -191q-4 -26 -14.5 -44.5t-25 -30.5t-31.5 -17.5t-33 -5.5h-17zM205 752h-45l10 68h45z" />
    <glyph glyph-name="cdotaccent" unicode="&#x10b;" horiz-adv-x="206" 
d="M137 291l16 113q3 21 -2 31t-15 10h-5q-10 0 -18.5 -10t-11.5 -31l-44 -313q-3 -22 2.5 -31.5t13.5 -9.5h7q9 0 17 9.5t12 31.5l16 115h63l-17 -116q-6 -45 -33 -69t-62 -24h-18q-32 0 -51 24.5t-12 68.5l43 315q7 45 33.5 69t60.5 24h16q35 0 54.5 -24t13.5 -68
l-16 -115h-63zM168 546h-44l9 69h45z" />
    <glyph glyph-name="Ccaron" unicode="&#x10c;" 
d="M67 -6q-16 0 -31 5.5t-26 17.5t-16 30.5t-2 44.5l73 515q4 26 14.5 44.5t25 30.5t31 17.5t33.5 5.5h16q16 0 31.5 -5.5t26.5 -17.5t16 -30.5t2 -44.5l-27 -190h-68l26 181q4 27 -2.5 38.5t-17.5 11.5h-6q-11 0 -20.5 -11t-14.5 -40l-70 -495q-4 -28 2.5 -39.5t17.5 -11.5
h5q12 0 21.5 11.5t13.5 39.5l26 181h68l-28 -191q-4 -26 -14.5 -44.5t-24.5 -30.5t-31 -17.5t-33 -5.5h-17zM151 742l-46 86h59l22 -55l37 55h59l-70 -86h-61z" />
    <glyph glyph-name="ccaron" unicode="&#x10d;" horiz-adv-x="206" 
d="M137 291l16 113q3 21 -2.5 31t-15.5 10h-4q-11 0 -19 -10t-11 -31l-44 -313q-3 -22 2 -31.5t14 -9.5h6q10 0 18 9.5t12 31.5l16 115h62l-16 -116q-6 -45 -33 -69t-62 -24h-18q-32 0 -51 24.5t-13 68.5l44 315q7 45 33 69t61 24h16q34 0 54 -24t14 -68l-16 -115h-63z
M114 537l-46 86h60l21 -54l37 54h60l-70 -86h-62z" />
    <glyph glyph-name="Dcaron" unicode="&#x10e;" horiz-adv-x="230" 
d="M-16 0l99 699h106q16 0 31.5 -5t26.5 -16.5t16.5 -29.5t1.5 -44l-73 -509q-4 -26 -14.5 -44t-24.5 -29.5t-31 -16.5t-33 -5h-105zM142 642l-83 -585h33q11 0 20.5 10.5t13.5 37.5l70 489q4 27 -3 37.5t-18 10.5h-33zM155 739l-46 86h60l21 -54l37 54h60l-71 -86h-61z" />
    <glyph glyph-name="dcaron" unicode="&#x10f;" horiz-adv-x="296" 
d="M43 -3q-34 0 -44.5 24.5t-4.5 67.5l44 317q6 43 23 67.5t51 24.5h3q13 0 25 -7.5t22 -20.5l33 229h63l-100 -699h-51l-3 29q-14 -14 -29 -23t-29 -9h-3zM131 445q-10 0 -18.5 -10t-11.5 -31l-45 -313q-3 -22 2.5 -31.5t14.5 -9.5h3q10 0 19.5 11.5t12.5 33.5l44 305
q4 21 -2.5 33t-16.5 12h-2zM349 607l-33 -61h-28l24 61h-32l13 92h69z" />
    <glyph glyph-name="Dcroat" unicode="&#x110;" horiz-adv-x="253" 
d="M-14 0l46 326h-22l6 48h23l46 325h106q16 0 31.5 -5t26.5 -16.5t16.5 -29.5t1.5 -44l-72 -509q-4 -26 -14.5 -44t-24.5 -29.5t-31 -16.5t-33 -5h-106zM145 642l-38 -268h23l-7 -48h-23l-38 -269h33q11 0 20 10.5t14 37.5l69 489q5 27 -2 37.5t-18 10.5h-33z" />
    <glyph glyph-name="dcroat" unicode="&#x111;" horiz-adv-x="241" 
d="M158 0h-51l-3 29q-14 -14 -29 -23t-29 -9h-3q-34 0 -44.5 24.5t-4.5 67.5l44 317q6 43 23 67.5t51 24.5h3q13 0 25 -8t22 -21l18 123h-36l7 46h35l9 61h63l-9 -61h41l-7 -46h-41zM131 445q-10 0 -18.5 -10t-11.5 -31l-45 -313q-3 -22 2.5 -31.5t14.5 -9.5h3
q10 0 19.5 11.5t12.5 33.5l44 305q4 21 -2.5 33t-16.5 12h-2z" />
    <glyph glyph-name="Emacron" unicode="&#x112;" horiz-adv-x="189" 
d="M141 642l-38 -267h69l-6 -51h-70l-38 -267h94l-8 -57h-161l99 699h156l-8 -57h-89zM237 759h-133l7 47h133z" />
    <glyph glyph-name="emacron" unicode="&#x113;" horiz-adv-x="206" 
d="M72 50h7q10 0 18 9.5t11 31.5l17 115h62l-16 -116q-7 -45 -34 -69t-61 -24h-18q-32 0 -51.5 24.5t-12.5 68.5l44 315q6 45 32.5 69t61.5 24h16q34 0 54 -24t14 -68l-25 -173h-115l-20 -142q-3 -22 2.5 -31.5t13.5 -9.5zM134 277l18 127q3 21 -2 31t-15 10h-4
q-11 0 -19.5 -10t-11.5 -31l-18 -127h52zM213 557h-132l7 46h132z" />
    <glyph glyph-name="Ebreve" unicode="&#x114;" horiz-adv-x="189" 
d="M231 642l7 57h-156l-99 -699h161l8 57h-94l38 267h69l7 51h-69l39 267h89zM153 816q-2 -11 5 -19.5t18 -8.5t21 8.5t12 19.5h40q-4 -26 -27 -46.5t-52 -20.5q-13 0 -24 5.5t-19 14.5t-11.5 21t-1.5 26h39z" />
    <glyph glyph-name="ebreve" unicode="&#x115;" horiz-adv-x="206" 
d="M73 50h6q10 0 18 9.5t11 31.5l16 115h63l-16 -116q-6 -45 -33 -69t-62 -24h-18q-32 0 -51 24.5t-13 68.5l44 315q7 45 33.5 69t60.5 24h16q35 0 54.5 -24t13.5 -68l-24 -173h-115l-20 -142q-4 -22 1.5 -31.5t14.5 -9.5zM135 277l18 127q3 21 -2.5 31t-15.5 10h-4
q-11 0 -19 -10t-11 -31l-18 -127h52zM129 613q-2 -11 5.5 -19.5t18.5 -8.5t20.5 8.5t11.5 19.5h40q-4 -26 -27 -46.5t-52 -20.5q-26 0 -43 20t-13 47h39z" />
    <glyph glyph-name="Edotaccent" unicode="&#x116;" horiz-adv-x="189" 
d="M230 642l8 57h-156l-99 -699h161l8 57h-94l38 267h69l7 51h-69l38 267h89zM191 749h-45l10 68h44z" />
    <glyph glyph-name="edotaccent" unicode="&#x117;" horiz-adv-x="206" 
d="M72 50h7q10 0 18 9.5t11 31.5l17 115h62l-16 -116q-7 -45 -34 -69t-61 -24h-18q-32 0 -51.5 24.5t-12.5 68.5l44 315q6 45 32.5 69t61.5 24h16q34 0 54 -24t14 -68l-25 -173h-115l-20 -142q-3 -22 2.5 -31.5t13.5 -9.5zM134 277l18 127q3 21 -2 31t-15 10h-4
q-11 0 -19.5 -10t-11.5 -31l-18 -127h52zM167 546h-44l9 69h45z" />
    <glyph glyph-name="Eogonek" unicode="&#x118;" horiz-adv-x="189" 
d="M109 -65q-11 -18 -29 -25.5t-34 -5.5t-27 13.5t-9 31.5q2 16 11.5 28t23.5 23h-61l98 699h157l-8 -57h-89l-38 -267h69l-7 -51h-69l-38 -267h94l-8 -57h-50q-19 -5 -32 -18.5t-14 -24.5q-2 -18 12.5 -20t26.5 13z" />
    <glyph glyph-name="eogonek" unicode="&#x119;" horiz-adv-x="206" 
d="M113 -68q-11 -18 -29 -25.5t-34.5 -5.5t-27.5 13.5t-8 31.5q4 29 35 52q-29 3 -45 27t-11 65l45 315q7 45 33 69t61 24h16q34 0 54 -24t14 -68l-25 -173h-115l-20 -142q-3 -22 2.5 -31.5t13.5 -9.5h7q10 0 18 9.5t11 31.5l17 115h62l-17 -116q-5 -39 -27 -62.5t-51 -28.5
q-17 -9 -27.5 -21.5t-12.5 -23.5q-1 -9 3 -14t10 -6t13.5 2t13.5 11zM134 277l19 127q4 41 -18 41h-4q-11 0 -19.5 -10t-10.5 -31l-18 -127h51z" />
    <glyph glyph-name="Ecaron" unicode="&#x11a;" horiz-adv-x="189" 
d="M231 642l8 57h-156l-99 -699h161l8 57h-94l38 267h69l8 51h-70l38 267h89zM138 739l-46 86h60l21 -54l37 54h60l-70 -86h-62z" />
    <glyph glyph-name="ecaron" unicode="&#x11b;" horiz-adv-x="206" 
d="M72 50h7q10 0 18 9.5t11 31.5l16 115h63l-17 -116q-6 -45 -33 -69t-61 -24h-18q-32 0 -51.5 24.5t-12.5 68.5l44 315q6 45 32.5 69t60.5 24h16q34 0 54.5 -24t13.5 -68l-24 -173h-115l-20 -142q-3 -22 2.5 -31.5t13.5 -9.5zM113 537l-46 86h60l21 -54l37 54h60l-70 -86
h-62zM134 277l18 127q3 21 -2 31t-15 10h-5q-10 0 -18.5 -10t-11.5 -31l-18 -127h52z" />
    <glyph glyph-name="Gcircumflex" unicode="&#x11c;" 
d="M116 283h99l-25 -166h1l-17 -117h-33l-5 23q-16 -14 -32.5 -21.5t-29.5 -7.5h-7q-16 0 -31 5.5t-26 17.5t-16 30.5t-2 44.5l73 515q4 26 14 44.5t24.5 30.5t31 17.5t33.5 5.5h17q16 0 31 -5.5t26.5 -17.5t16.5 -30.5t2 -44.5l-27 -190h-68l26 181q4 27 -2.5 38.5
t-17.5 11.5h-6q-11 0 -20.5 -11t-14.5 -40l-70 -495q-4 -28 2 -39.5t17 -11.5h6q11 0 21 11.5t14 39.5l18 124h-31zM225 824l46 -86h-60l-22 54l-36 -54h-60l70 86h62z" />
    <glyph glyph-name="gcircumflex" unicode="&#x11d;" horiz-adv-x="208" 
d="M228 495l-81 -567q-6 -44 -33 -68.5t-59 -24.5h-18q-33 0 -53 24t-13 69l6 43h62l-6 -42q-3 -22 2.5 -31.5t14.5 -9.5h7q8 0 16 9.5t12 31.5l13 94q-14 -12 -28 -19t-27 -7h-3q-34 0 -43.5 24.5t-3.5 67.5l45 317q6 43 23.5 67.5t51.5 24.5h4q24 0 47 -26l13 23h51z
M75 50q11 0 20.5 12t12.5 33l26 181l19 134q0 17 -6.5 26t-14.5 9h-2q-10 0 -18.5 -9.5t-11.5 -31.5l-45 -313q-4 -41 18 -41h2zM187 621l46 -86h-60l-21 55l-37 -55h-60l71 86h61z" />
    <glyph glyph-name="Gbreve" unicode="&#x11e;" 
d="M117 283h98l-24 -168q-1 -2 -1 -6l-16 -109h-33l-5 23q-16 -14 -32.5 -21.5t-29.5 -7.5h-7q-16 0 -31 5.5t-26 17.5t-16 30.5t-2 44.5l73 515q4 26 14.5 44.5t25 30.5t31 17.5t33.5 5.5h17q16 0 31 -5.5t26 -17.5t16 -30.5t2 -44.5l-27 -190h-68l26 181q4 27 -2.5 38.5
t-17.5 11.5h-6q-11 0 -20.5 -11t-13.5 -40l-71 -495q-4 -28 2.5 -39.5t17.5 -11.5h6q11 0 20.5 11.5t13.5 39.5l18 124h-31zM166 816q-2 -11 5 -19.5t18 -8.5t21 8.5t11 19.5h41q-5 -26 -27.5 -46.5t-51.5 -20.5q-26 0 -43 20t-13 47h39z" />
    <glyph glyph-name="gbreve" unicode="&#x11f;" horiz-adv-x="208" 
d="M177 495l-13 -23q-23 26 -47 26h-4q-34 0 -51.5 -24.5t-23.5 -67.5l-45 -317q-6 -43 3.5 -67.5t43.5 -24.5h3q12 0 26 7t28 18l-13 -93q-3 -22 -11 -31.5t-17 -9.5h-6q-10 0 -15.5 9.5t-1.5 31.5l6 42h-63l-6 -43q-6 -45 14 -69t53 -24h18q32 0 59 24.5t33 68.5l81 567
h-51zM73 50q-22 0 -18 41l45 313q3 22 11 31.5t18 9.5h2q9 0 15.5 -8.5t6.5 -25.5l-46 -322q-4 -19 -13 -29t-19 -10h-2zM128 613q-2 -11 5 -19.5t18 -8.5t20.5 8.5t11.5 19.5h41q-4 -26 -27 -46.5t-52 -20.5q-26 0 -43 20t-13 47h39z" />
    <glyph glyph-name="Gdotaccent" unicode="&#x120;" 
d="M116 283h99l-24 -168q-1 -2 -1 -6l-16 -109h-33l-5 23q-17 -14 -33.5 -21.5t-29.5 -7.5h-6q-16 0 -31 5.5t-26 17.5t-16 30.5t-1 44.5l72 515q4 26 14.5 44.5t25 30.5t31 17.5t33.5 5.5h16q16 0 31.5 -5.5t26.5 -17.5t16.5 -30.5t1.5 -44.5l-28 -190h-67l26 181
q4 27 -2.5 38.5t-18.5 11.5h-5q-12 0 -21 -11t-13 -40l-71 -495q-4 -28 2.5 -39.5t17.5 -11.5h6q11 0 20.5 11.5t13.5 39.5l18 124h-31zM204 749h-45l10 68h45z" />
    <glyph glyph-name="gdotaccent" unicode="&#x121;" horiz-adv-x="208" 
d="M177 495l-13 -24q-11 12 -22.5 19.5t-24.5 7.5h-3q-35 0 -52.5 -24.5t-23.5 -67.5l-45 -317q-6 -43 3.5 -67.5t43.5 -24.5h3q13 0 27 7t28 19l-13 -94q-4 -22 -12 -31.5t-16 -9.5h-7q-9 0 -14.5 9.5t-2.5 31.5l6 42h-62l-6 -43q-7 -45 13 -69t54 -24h18q32 0 58.5 24.5
t32.5 68.5l81 567h-51zM73 50q-10 0 -15 10t-2 31l44 313q3 22 11 31.5t18 9.5h2q11 0 17.5 -11.5t3.5 -33.5l-44 -305q-3 -21 -12.5 -33t-20.5 -12h-2zM167 546h-45l9 69h45z" />
    <glyph glyph-name="uni0122" unicode="&#x122;" 
d="M68 -6q-17 0 -32 5.5t-26 17.5t-16 30.5t-1 44.5l73 515q4 26 14 44.5t24.5 30.5t31 17.5t33.5 5.5h17q16 0 31 -5.5t26.5 -17.5t16.5 -30.5t2 -44.5l-27 -190h-68l25 181q4 27 -2.5 38.5t-17.5 11.5h-6q-11 0 -20.5 -11t-13.5 -40l-70 -495q-4 -28 2 -39.5t17 -11.5h6
q11 0 20.5 11t13.5 37v3h1l18 124h-31l8 57h98l-8 -57l-16 -109h1l-17 -117h-34l-5 23q-16 -14 -32.5 -21.5t-29.5 -7.5h-6zM89 -122l-32 -61h-29l23 61h-31l14 92h68z" />
    <glyph glyph-name="uni0123" unicode="&#x123;" horiz-adv-x="208" 
d="M177 495l-13 -23q-23 26 -47 26h-4q-34 0 -52 -24.5t-23 -67.5l-45 -317q-6 -43 3.5 -67.5t43.5 -24.5h3q12 0 26 7t28 18l-13 -93q-3 -22 -11.5 -31.5t-16.5 -9.5h-7q-9 0 -14 9.5t-3 31.5l6 42h-62l-6 -43q-6 -45 14 -69t53 -24h18q32 0 59 24.5t33 68.5q4 26 10.5 71
t14 99.5t16 113t16 113t13.5 99.5t10 71h-50zM73 50q-10 0 -15.5 10t-2.5 31l45 313q3 22 11 31.5t18 9.5h2q9 0 15.5 -9.5t5.5 -28.5l-45 -318q-5 -19 -14 -29t-18 -10h-2zM127 603l24 46h26l-17 -46h16l-10 -68h-49z" />
    <glyph glyph-name="Hcircumflex" unicode="&#x124;" 
d="M275 699l-100 -699h-67l46 324h-57l-46 -324h-67l99 699h67l-46 -325h57l47 325h67zM228 824l45 -86h-59l-22 54l-36 -54h-60l71 86h61z" />
    <glyph glyph-name="hcircumflex" unicode="&#x125;" horiz-adv-x="211" 
d="M137 445q-10 0 -20.5 -12.5t-13.5 -33.5l-57 -399h-62l99 699h63l-33 -231q14 14 28 22t28 8h3q34 0 44 -24.5t4 -67.5l-58 -406h-63l58 404q3 22 -2.5 31.5t-15.5 9.5h-2zM163 824l45 -86h-59l-22 54l-37 -54h-59l70 86h62z" />
    <glyph glyph-name="LATIN CAPITAL LETTER H WITH STROKE" unicode="&#x126;" 
d="M57 519l26 180h67l-26 -180h58l26 180h67l-26 -180h18l-7 -46h-18l-67 -473h-67l46 324h-57l-46 -324h-67l67 473h-19l7 46h18zM161 374l14 99h-57l-14 -99h57z" />
    <glyph glyph-name="LATIN SMALL LETTER H WITH STROKE" unicode="&#x127;" horiz-adv-x="211" 
d="M137 445q-10 0 -20.5 -12.5t-13.5 -33.5l-57 -399h-62l84 592h-28l6 46h28l9 61h63l-9 -61h48l-6 -46h-49l-17 -124q14 14 28 22t28 8h3q34 0 44 -24.5t4 -67.5l-58 -406h-63l58 404q4 41 -18 41h-2z" />
    <glyph glyph-name="Itilde" unicode="&#x128;" horiz-adv-x="104" 
d="M83 699l-99 -699h67l99 699h-67zM46 783q12 18 25 26t25 8q17 0 31.5 -10t31.5 -10q13 0 28 14l28 -20q-14 -18 -27 -25t-26 -7q-18 0 -32 9.5t-28 9.5q-8 0 -15.5 -3t-15.5 -11z" />
    <glyph glyph-name="itilde" unicode="&#x129;" horiz-adv-x="96" 
d="M54 495l-70 -495h62l70 495h-62zM13 574q23 34 51 34q16 0 30.5 -10t31.5 -10q13 0 28 14l28 -20q-14 -19 -26.5 -25.5t-25.5 -6.5q-18 0 -32 9.5t-28 9.5q-8 0 -15.5 -3t-16.5 -11z" />
    <glyph glyph-name="Imacron" unicode="&#x12a;" horiz-adv-x="104" 
d="M150 699l-99 -699h-67l98 699h68zM191 765h-133l7 46h133z" />
    <glyph glyph-name="imacron" unicode="&#x12b;" horiz-adv-x="96" 
d="M116 495l-70 -495h-62l70 495h62zM159 555h-132l7 47h132z" />
    <glyph glyph-name="Ibreve" unicode="&#x12c;" horiz-adv-x="104" 
d="M82 699l-99 -699h67l100 699h-68zM107 821q-2 -11 5.5 -19.5t18.5 -8.5t20.5 8.5t11.5 19.5h40q-4 -26 -27 -46.5t-52 -20.5q-26 0 -43 20t-13 47h39z" />
    <glyph glyph-name="ibreve" unicode="&#x12d;" horiz-adv-x="96" 
d="M54 495l-70 -495h63l69 495h-62zM75 612q-2 -11 5.5 -19.5t18.5 -8.5t20.5 8.5t10.5 19.5h40q-3 -26 -26 -46.5t-52 -20.5q-26 0 -43 20t-13 47h39z" />
    <glyph glyph-name="Iogonek" unicode="&#x12e;" horiz-adv-x="104" 
d="M62 -65q-11 -18 -29 -25.5t-34 -5.5t-27 13.5t-8 31.5q2 16 11.5 28t23.5 23h-15l98 699h68l-99 -699h-3q-19 -5 -31.5 -18.5t-14.5 -24.5q-2 -18 12.5 -20t26.5 13z" />
    <glyph glyph-name="iogonek" unicode="&#x12f;" horiz-adv-x="96" 
d="M57 -65q-11 -18 -28.5 -25.5t-34 -5.5t-27 13.5t-7.5 31.5q4 29 35 51h-11l70 495h62l-70 -495h-2q-19 -5 -32 -18.5t-14 -24.5q-2 -18 12.5 -20t26.5 13zM134 620l-12 -86h-63l12 86h63z" />
    <glyph glyph-name="Idotaccent" unicode="&#x130;" horiz-adv-x="104" 
d="M83 699l-99 -699h67l99 699h-67zM146 754h-45l9 69h45z" />
    <glyph glyph-name="dotlessi" unicode="&#x131;" horiz-adv-x="96" 
d="M116 495l-71 -495h-62l70 495h63z" />
    <glyph glyph-name="IJ" unicode="&#x132;" horiz-adv-x="334" 
d="M149 699l-98 -699h-67l98 699h67zM174 -6q-16 0 -31.5 5.5t-26.5 17.5t-16.5 30.5t-1.5 44.5l27 189h67l-25 -179q-4 -28 2 -39.5t18 -11.5h5q12 0 21.5 11.5t13.5 39.5l85 597h68l-87 -607q-7 -52 -38 -75t-65 -23h-16z" />
    <glyph glyph-name="ij" unicode="&#x133;" horiz-adv-x="210" 
d="M116 495l-70 -495h-62l69 495h63zM134 620l-12 -86h-63l12 86h63zM245 621l-12 -88h-63l12 88h63zM227 495l-81 -568q-6 -43 -33 -67.5t-83 -24.5l8 53q18 0 30 9.5t16 29.5l80 568h63z" />
    <glyph glyph-name="Jcircumflex" unicode="&#x134;" 
d="M68 -6q-16 0 -31 5.5t-26 17.5t-16.5 30.5t-1.5 44.5l26 189h67l-25 -179q-4 -28 2.5 -39.5t17.5 -11.5h5q12 0 21.5 11.5t13.5 39.5l86 597h67l-87 -607q-7 -52 -38 -75t-65 -23h-16zM289 824l46 -86h-59l-22 55l-36 -55h-60l70 86h61z" />
    <glyph glyph-name="jcircumflex" unicode="&#x135;" horiz-adv-x="135" 
d="M155 495l-81 -568q-6 -43 -33.5 -67.5t-82.5 -24.5l8 53q40 0 46 39l80 568h63zM173 622l45 -86h-59l-22 54l-36 -54h-60l71 86h61z" />
    <glyph glyph-name="uni0136" unicode="&#x136;" horiz-adv-x="227" 
d="M148 362l38 -362h-62l-35 272h-1l-39 -272h-67l99 699h68l-40 -273h2l115 273h62zM103 -110l-33 -61h-29l24 61h-31l13 92h69z" />
    <glyph glyph-name="uni0137" unicode="&#x137;" horiz-adv-x="208" 
d="M120 258l50 -258h-63l-35 186l-27 -186h-61l99 699h62l-54 -377l89 173h61zM93 -111l-33 -61h-28l23 61h-31l13 92h69z" />
    <glyph glyph-name=".001" unicode="&#x138;" horiz-adv-x="208" 
d="M119 258l50 -258h-64l-35 186l-26 -186h-62l70 495h62l-25 -173l90 173h61z" />
    <glyph glyph-name="Lacute" unicode="&#x139;" horiz-adv-x="173" 
d="M150 699l-92 -648h84l-7 -51h-151l99 699h67zM101 738l53 86h59l-70 -86h-42z" />
    <glyph glyph-name="lacute" unicode="&#x13a;" horiz-adv-x="95" 
d="M78 699h63l-100 -699h-62zM95 738l52 86h60l-71 -86h-41z" />
    <glyph glyph-name="uni013B" unicode="&#x13b;" horiz-adv-x="173" 
d="M150 699l-92 -648h84l-7 -51h-151l99 699h67zM72 -122l-32 -61h-29l24 61h-31l13 92h68z" />
    <glyph glyph-name="lquotesinglbase" unicode="&#x13c;" horiz-adv-x="95" 
d="M82 699h63l-99 -699h-62zM32 -113l-32 -61h-28l23 61h-31l13 92h68z" />
    <glyph glyph-name="Lcaron" unicode="&#x13d;" horiz-adv-x="217" 
d="M83 699l-99 -699h151l7 51h-84l92 648h-67zM246 608l-33 -61h-28l23 61h-31l13 92h69z" />
    <glyph glyph-name="LATIN SMALL LETTER L WITH CARON" unicode="&#x13e;" horiz-adv-x="182" 
d="M83 699h63l-100 -699h-62zM222 607l-33 -61h-29l25 61h-32l13 92h69z" />
    <glyph glyph-name="Ldot" unicode="&#x13f;" horiz-adv-x="214" 
d="M150 699l-92 -648h84l-7 -51h-151l99 699h67zM203 245h-69l13 92h69z" />
    <glyph glyph-name="lperiodcentered" unicode="&#x140;" horiz-adv-x="191" 
d="M83 699h63l-100 -699h-62zM182 285h-68l13 92h69z" />
    <glyph glyph-name="Lslash" unicode="&#x141;" horiz-adv-x="231" 
d="M204 699l-40 -278l67 44l18 -41l-93 -61l-45 -312h85l-8 -51h-152l45 314l-45 -29l-18 41l71 46l47 327h68z" />
    <glyph glyph-name="lslash" unicode="&#x142;" horiz-adv-x="194" 
d="M63 285l-30 -20l-18 41l56 37l51 356h63l-44 -311l54 36l18 -40l-81 -54l-47 -330h-62z" />
    <glyph glyph-name="Nacute" unicode="&#x143;" horiz-adv-x="255" 
d="M129 0l-21 491h-1l-70 -491h-56l99 699h77l16 -484h1l69 484h62l-100 -699h-76zM177 738l52 86h60l-71 -86h-41z" />
    <glyph glyph-name="nacute" unicode="&#x144;" horiz-adv-x="209" 
d="M137 445q-10 0 -20 -10.5t-14 -28.5l-58 -406h-62l70 495h63l-4 -25q14 13 28 20.5t28 7.5h3q35 0 44.5 -24.5t3.5 -67.5l-58 -406h-63l58 404q3 22 -2 31.5t-15 9.5h-2zM114 535l52 86h60l-71 -86h-41z" />
    <glyph glyph-name="uni0145" unicode="&#x145;" horiz-adv-x="255" 
d="M130 0l-21 491h-1l-70 -491h-56l99 699h76l17 -484h1l69 484h61l-100 -699h-75zM100 -110l-33 -61h-29l25 61h-32l13 92h69z" />
    <glyph glyph-name="uni0146" unicode="&#x146;" horiz-adv-x="209" 
d="M136 445q-9 0 -19 -10.5t-15 -27.5l-57 -407h-62l69 495h63l-4 -26q14 13 28.5 21t28.5 8h3q35 0 44.5 -24.5t3.5 -67.5l-58 -406h-63l58 404q3 22 -2.5 31.5t-14.5 9.5h-3zM91 -111l-33 -61h-29l24 61h-31l13 92h69z" />
    <glyph glyph-name="Ncaron" unicode="&#x147;" horiz-adv-x="255" 
d="M130 0l-21 491h-1l-70 -491h-56l99 699h76l17 -484h1l69 484h61l-100 -699h-75zM168 739l-46 86h60l21 -55l37 55h60l-71 -86h-61z" />
    <glyph glyph-name="ncaron" unicode="&#x148;" horiz-adv-x="209" 
d="M138 445q10 0 15.5 -9.5t2.5 -31.5l-58 -404h62l58 406q6 43 -3.5 67.5t-43.5 24.5h-3q-14 0 -28.5 -8t-28.5 -21l4 26h-63l-70 -495h62l58 406q4 18 14.5 28.5t19.5 10.5h2zM118 537l-46 86h60l21 -55l37 55h60l-71 -86h-61z" />
    <glyph glyph-name="napostrophe" unicode="&#x149;" horiz-adv-x="282" 
d="M211 445q10 0 15.5 -9.5t1.5 -31.5l-57 -404h63l58 406q6 43 -3.5 67.5t-44.5 24.5h-3q-14 0 -28.5 -8t-28.5 -21l4 26h-63l-70 -495h63l57 407q5 17 14.5 27.5t19.5 10.5h2zM131 589l-33 -61h-28l23 61h-31l13 92h69z" />
    <glyph glyph-name="Eng" unicode="&#x14a;" horiz-adv-x="253" 
d="M203 4l-11 -77q-6 -43 -40 -67.5t-89 -24.5l8 53q18 0 30.5 9.5t14.5 29.5l11 73h-1l-19 495h-1l-71 -495h-53l99 699h76l16 -488l70 488h59l-100 -695h1z" />
    <glyph glyph-name="eng" unicode="&#x14b;" horiz-adv-x="209" 
d="M136 445q-9 0 -19.5 -10.5t-14.5 -28.5l-58 -406h-62l70 495h63l-4 -26q14 13 28.5 21t28.5 8h3q34 0 44 -24.5t3 -67.5l-58 -402h1l-11 -77q-6 -43 -33.5 -67.5t-82.5 -24.5l7 53q19 0 31.5 9.5t14.5 29.5l11 73l58 404q4 41 -18 41h-2z" />
    <glyph glyph-name="Omacron" unicode="&#x14c;" 
d="M67 -6q-16 0 -31 5.5t-25.5 17.5t-16 30.5t-1.5 44.5l72 515q4 26 14.5 44.5t25 30.5t31 17.5t33.5 5.5h16q16 0 31.5 -5.5t26.5 -17.5t16.5 -30.5t1.5 -44.5l-73 -515q-4 -26 -14.5 -44.5t-25 -30.5t-31.5 -17.5t-33 -5.5h-17zM166 648q-11 0 -20.5 -12t-13.5 -39
l-71 -495q-4 -28 2.5 -39.5t17.5 -11.5h6q11 0 20.5 11.5t13.5 39.5l71 495q4 27 -2.5 39t-17.5 12h-6zM251 759h-133l6 47h133z" />
    <glyph glyph-name="omacron" unicode="&#x14d;" horiz-adv-x="206" 
d="M60 -3q-34 0 -53.5 24.5t-12.5 67.5l44 317q7 43 33 67.5t61 24.5h16q34 0 54 -24.5t14 -67.5l-45 -317q-7 -43 -34 -67.5t-61 -24.5h-16zM131 445q-11 0 -19.5 -10t-11.5 -31l-44 -313q-3 -22 2.5 -31.5t15.5 -9.5h5q10 0 18 9.5t11 31.5l44 313q3 21 -2 31t-15 10h-4z
M214 557h-132l6 46h133z" />
    <glyph glyph-name="Obreve" unicode="&#x14e;" 
d="M67 -6q-16 0 -31 5.5t-26 17.5t-16 30.5t-2 44.5l73 515q4 26 14.5 44.5t25 30.5t31 17.5t33.5 5.5h17q16 0 31 -5.5t26 -17.5t16 -30.5t2 -44.5l-74 -515q-4 -26 -14.5 -44.5t-24.5 -30.5t-31 -17.5t-33 -5.5h-17zM166 648q-11 0 -20.5 -12t-13.5 -39l-71 -495
q-4 -28 2.5 -39.5t17.5 -11.5h6q11 0 20.5 11.5t13.5 39.5l71 495q4 27 -2.5 39t-17.5 12h-6zM166 816q-2 -11 5 -19.5t18 -8.5t21 8.5t11 19.5h41q-5 -26 -27.5 -46.5t-51.5 -20.5q-26 0 -43 20t-13 47h39z" />
    <glyph glyph-name="obreve" unicode="&#x14f;" horiz-adv-x="206" 
d="M60 -3q-34 0 -53 24.5t-13 67.5l44 317q7 43 33.5 67.5t60.5 24.5h16q35 0 54.5 -24.5t13.5 -67.5l-46 -317q-5 -43 -32 -67.5t-62 -24.5h-16zM131 445q-11 0 -19 -10t-11 -31l-44 -313q-4 -22 1.5 -31.5t16.5 -9.5h4q10 0 18 9.5t11 31.5l45 313q3 21 -2.5 31t-15.5 10
h-4zM130 613q-2 -11 5 -19.5t18 -8.5t21 8.5t12 19.5h40q-4 -26 -27 -46.5t-52 -20.5q-26 0 -43 20t-13 47h39z" />
    <glyph glyph-name="Ohungarumlaut" unicode="&#x150;" 
d="M67 -6q-16 0 -31 5.5t-25.5 17.5t-16 30.5t-1.5 44.5l72 515q4 26 14.5 44.5t25 30.5t31 17.5t33.5 5.5h17q16 0 31 -5.5t26 -17.5t16 -30.5t2 -44.5l-74 -515q-4 -26 -14.5 -44.5t-24.5 -30.5t-31 -17.5t-33 -5.5h-17zM166 648q-11 0 -20.5 -12t-14.5 -39l-70 -495
q-4 -28 2.5 -39.5t17.5 -11.5h6q11 0 20.5 11.5t13.5 39.5l71 495q4 27 -2.5 39t-17.5 12h-6zM197 736l53 86h59l-70 -86h-42zM119 736l53 86h59l-70 -86h-42z" />
    <glyph glyph-name="ohungarumlaut" unicode="&#x151;" horiz-adv-x="206" 
d="M60 -3q-34 0 -53 24.5t-13 67.5l44 317q7 43 33.5 67.5t60.5 24.5h16q35 0 54.5 -24.5t13.5 -67.5l-46 -317q-5 -43 -32 -67.5t-62 -24.5h-16zM131 445q-11 0 -19 -10t-11 -31l-44 -313q-4 -22 1.5 -31.5t16.5 -9.5h4q10 0 18 9.5t11 31.5l45 313q3 21 -2.5 31t-15.5 10
h-4zM161 533l53 86h60l-71 -86h-42zM83 533l53 86h60l-71 -86h-42z" />
    <glyph glyph-name="OE" unicode="&#x152;" horiz-adv-x="332" 
d="M70 -6q-17 0 -32 5.5t-25.5 17.5t-15.5 30.5t-1 44.5l72 515q4 26 14.5 44.5t25 30.5t31 17.5t33.5 5.5h202l-9 -60h-102q3 -17 0 -38l-33 -232h77l-7 -51h-77l-33 -232q-2 -11 -5 -20.5t-7 -17.5h109l-9 -60h-208zM169 648q-12 0 -21.5 -12t-13.5 -39l-70 -495
q-5 -28 1.5 -39.5t18.5 -11.5h5q12 0 21 11.5t14 39.5l71 495q3 27 -3 39t-18 12h-5z" />
    <glyph glyph-name="oe" unicode="&#x153;" horiz-adv-x="321" 
d="M61 -3q-34 0 -53.5 24.5t-12.5 67.5l44 317q6 43 32.5 67.5t60.5 24.5h16q28 0 47 -17q23 17 52 17h16q34 0 54.5 -24t13.5 -68l-25 -173h-115l-3 -24l-17 -120q-1 -2 -1 -7q-1 -17 4 -24.5t13 -7.5h7q10 0 18 9.5t11 31.5l17 115h63l-17 -116q-7 -45 -33.5 -69
t-60.5 -24h-18q-28 0 -45 17q-23 -17 -52 -17h-16zM132 445q-11 0 -19.5 -10t-11.5 -31l-44 -313q-3 -22 2 -31.5t16 -9.5h4q10 0 18 9.5t12 31.5l22 156l22 158q0 4 1 6q1 34 -18 34h-4zM250 277l18 127q3 21 -2 31t-15 10h-4q-11 0 -19.5 -10t-11.5 -31l-19 -127h53z" />
    <glyph glyph-name="Racute" unicode="&#x154;" horiz-adv-x="236" 
d="M238 417q-5 -32 -17 -47.5t-27 -20.5q14 -4 22 -19.5t3 -47.5l-23 -163q-9 -63 -9 -88.5t2 -30.5h-67q-5 12 -3.5 40t9.5 79l22 157q7 48 -17 48h-36l-46 -324h-67l99 699h106q37 0 59.5 -24.5t16.5 -72.5zM141 374q24 0 30 47l24 171q5 26 -2 38t-19 12h-32l-38 -268h37
zM154 738l53 86h59l-70 -86h-42z" />
    <glyph glyph-name="racute" unicode="&#x155;" horiz-adv-x="208" 
d="M136 445q-9 0 -19.5 -10.5t-14.5 -28.5l-58 -406h-62l70 495h63l-4 -26q14 13 28.5 21t28.5 8h3q37 0 46 -31q8 -25 1 -61l-16 -115h-63l17 113q3 22 -2.5 31.5t-15.5 9.5h-2zM119 535l53 86h60l-71 -86h-42z" />
    <glyph glyph-name="uni0156" unicode="&#x156;" horiz-adv-x="236" 
d="M238 417q-5 -32 -17 -47.5t-28 -20.5q14 -4 22.5 -19.5t3.5 -47.5l-23 -163q-5 -32 -7 -53.5t-2 -35t0.5 -20.5t1.5 -10h-67q-5 12 -3.5 40t9.5 79l22 157q7 48 -17 48h-36l-46 -324h-67l99 699h106q37 0 59.5 -24.5t15.5 -72.5zM141 374q23 0 30 47l24 171q4 26 -2.5 38
t-18.5 12h-32l-38 -268h37zM99 -122l-33 -61h-29l24 61h-31l13 92h69z" />
    <glyph glyph-name="uni0157" unicode="&#x157;" horiz-adv-x="208" 
d="M136 445q-9 0 -19 -10.5t-15 -27.5l-57 -407h-62l69 495h63l-4 -26q14 13 28.5 21t28.5 8h3q38 0 47 -31q6 -22 1 -61l-17 -115h-62l16 113q3 22 -2.5 31.5t-15.5 9.5h-2zM96 -122l-33 -61h-29l24 61h-31l13 92h69z" />
    <glyph glyph-name="Rcaron" unicode="&#x158;" horiz-adv-x="236" 
d="M265 602q6 48 -16.5 72.5t-59.5 24.5h-106l-99 -699h67l46 324h36q24 0 17 -48l-22 -157q-8 -51 -9.5 -79t3.5 -40h67q-2 5 -2 30.5t9 88.5l23 163q5 32 -3 47.5t-22 19.5q15 5 27 20.5t17 47.5zM104 374l38 268h32q12 0 19 -12t2 -38l-24 -171q-6 -47 -31 -47h-36z
M145 739l-46 86h60l21 -54l37 54h60l-71 -86h-61z" />
    <glyph glyph-name="rcaron" unicode="&#x159;" horiz-adv-x="208" 
d="M138 445q10 0 15.5 -9.5t2.5 -31.5l-17 -113h63l16 115q6 39 -1 61q-9 31 -46 31h-3q-14 0 -28.5 -8t-28.5 -21l4 26h-63l-70 -495h62l58 406q4 18 14.5 28.5t19.5 10.5h2zM110 537l-46 86h60l21 -55l37 55h60l-71 -86h-61z" />
    <glyph glyph-name="Sacute" unicode="&#x15a;" 
d="M170 418l25 180q4 27 -2 38.5t-18 11.5h-5q-12 0 -21.5 -11t-13.5 -40l-13 -89q-5 -32 1 -58.5t17 -49.5t24.5 -44.5t24.5 -45t16.5 -50t1.5 -58.5l-16 -110q-8 -52 -39 -75t-65 -23h-14q-17 0 -32.5 5.5t-26.5 17.5t-16.5 30.5t-1.5 44.5l27 190h61l-25 -180
q-5 -28 2.5 -39.5t20.5 -11.5h5q12 0 23 11.5t15 39.5l12 89q5 32 -1 58t-16.5 49.5t-24.5 45t-24.5 44.5t-16.5 49.5t-1 59.5l16 110q3 26 13.5 44.5t25 30.5t31.5 17.5t33 5.5h11q16 0 31.5 -5.5t26.5 -17.5t16 -30.5t1 -44.5l-27 -189h-61zM163 738l52 86h60l-70 -86h-42
z" />
    <glyph glyph-name="sacute" unicode="&#x15b;" horiz-adv-x="206" 
d="M138 300l14 104q3 20 -2 30.5t-15 10.5h-4q-10 0 -19 -10.5t-11 -30.5l-8 -51q-3 -21 3 -38t16.5 -31.5t23.5 -28.5t23.5 -30t16.5 -35t3 -44l-9 -57q-5 -43 -32.5 -67.5t-60.5 -24.5h-15q-35 0 -54.5 24.5t-13.5 67.5l15 106h56l-14 -104q-3 -20 3 -30.5t17 -10.5h6
q25 0 31 41l7 51q4 31 -10.5 53t-33 43.5t-32.5 47t-9 63.5l8 57q6 43 32.5 67.5t61.5 24.5h9q35 0 55 -24.5t13 -67.5l-15 -106h-56zM121 535l52 86h60l-71 -86h-41z" />
    <glyph glyph-name="Scircumflex" unicode="&#x15c;" 
d="M169 418l26 180q4 27 -2.5 38.5t-17.5 11.5h-6q-11 0 -20.5 -11t-14.5 -40l-12 -89q-5 -32 1 -58.5t16.5 -49.5t24.5 -44.5t24.5 -45t16.5 -50t1 -58.5l-16 -110q-8 -52 -38.5 -75t-64.5 -23h-14q-17 0 -32.5 5.5t-26.5 17.5t-16.5 30.5t-1.5 44.5l26 190h61l-25 -180
q-4 -28 3.5 -39.5t19.5 -11.5h5q13 0 23.5 11.5t14.5 39.5l13 89q4 32 -1.5 58t-16.5 49.5t-24.5 45t-24.5 44.5t-17 49.5t-1 59.5l16 110q4 26 14.5 44.5t25 30.5t31 17.5t33.5 5.5h11q16 0 31 -5.5t26 -17.5t16.5 -30.5t1.5 -44.5l-27 -189h-62zM228 824l46 -86h-60
l-22 54l-36 -54h-59l69 86h62z" />
    <glyph glyph-name="scircumflex" unicode="&#x15d;" horiz-adv-x="206" 
d="M138 300l14 104q3 20 -2 30.5t-15 10.5h-4q-10 0 -19 -10.5t-11 -30.5l-8 -51q-3 -21 3 -38t16.5 -31.5t23.5 -28.5t23.5 -30t16.5 -35t3 -44l-9 -57q-5 -43 -32.5 -67.5t-60.5 -24.5h-15q-35 0 -54.5 24.5t-13.5 67.5l15 106h56l-14 -104q-3 -20 3 -30.5t17 -10.5h6
q25 0 31 41l7 51q4 31 -10.5 53t-33 43.5t-32.5 47t-9 63.5l8 57q6 43 32.5 67.5t61.5 24.5h9q35 0 55 -24.5t13 -67.5l-15 -106h-56zM186 621l45 -86h-59l-22 54l-36 -54h-60l71 86h61z" />
    <glyph glyph-name="Scedilla" unicode="&#x15e;" 
d="M16 -69q8 -7 20.5 -10t24 -1.5t20 7.5t8.5 17q1 12 -12 15.5t-25 -3.5l-14 5l23 34q-15 1 -28.5 7.5t-23 18.5t-13.5 29.5t0 41.5l26 190h61l-25 -180q-5 -28 3 -39.5t20 -11.5h5q13 0 23.5 11.5t14.5 39.5l12 89q5 32 -0.5 58t-16.5 49.5t-24.5 45t-24.5 44.5t-17 49.5
t-1 59.5l16 110q4 26 14.5 44.5t25 30.5t31 17.5t33.5 5.5h11q16 0 31 -5.5t26 -17.5t16 -30.5t1 -44.5l-27 -189h-61l26 180q4 27 -2.5 38.5t-18.5 11.5h-5q-12 0 -21.5 -11t-13.5 -40l-12 -89q-5 -32 1 -58.5t16.5 -49.5t24 -44.5t24.5 -45t16.5 -50t1.5 -58.5l-16 -110
q-7 -48 -34 -71t-58 -26l-11 -21q20 8 35.5 -0.5t11.5 -28.5q-3 -26 -20.5 -39.5t-38.5 -18t-41 -0.5t-29 13z" />
    <glyph glyph-name="scedilla" unicode="&#x15f;" horiz-adv-x="206" 
d="M6 -68q8 -6 20.5 -9t23.5 -1.5t19.5 7.5t9.5 17q0 12 -13 15.5t-25 -4.5l-13 6l22 35q-30 3 -46 27t-11 64l15 106h57l-15 -104q-3 -20 3 -30.5t18 -10.5h5q11 0 20 10.5t11 30.5l8 51q3 21 -3 37.5t-17 31t-24 28.5t-23 30t-16 35.5t-2 44.5l8 57q6 43 32.5 67.5
t61.5 24.5h9q35 0 54.5 -24.5t13.5 -67.5l-15 -106h-57l15 104q3 20 -2 30.5t-16 10.5h-4q-10 0 -18.5 -10.5t-10.5 -30.5l-8 -51q-3 -21 3 -38t16.5 -31.5t23.5 -28.5t23.5 -30t16 -35t2.5 -44l-8 -57q-6 -40 -29.5 -64t-53.5 -27l-11 -22q20 8 35.5 -0.5t12.5 -28.5
q-3 -26 -20.5 -39.5t-38.5 -18t-41 -0.5t-30 13z" />
    <glyph glyph-name="Scaron" unicode="&#x160;" 
d="M231 418l27 189q4 26 -1.5 44.5t-16.5 30.5t-26 17.5t-31 5.5h-11q-17 0 -33.5 -5.5t-31 -17.5t-25 -30.5t-14.5 -44.5l-15 -110q-5 -33 1 -59.5t16.5 -49.5t24.5 -44.5t24.5 -45t16.5 -49.5t1 -58l-13 -89q-4 -28 -14.5 -39.5t-23.5 -11.5h-5q-12 0 -19.5 11.5
t-3.5 39.5l25 180h-61l-26 -190q-4 -26 1.5 -44.5t16.5 -30.5t26.5 -17.5t31.5 -5.5h15q34 0 65 23t38 75l16 110q5 32 -1 58.5t-16.5 50t-24.5 45t-24.5 44.5t-16.5 49.5t-1 58.5l12 89q5 29 14.5 40t20.5 11h6q11 0 17.5 -11.5t2.5 -38.5l-26 -180h62zM154 740l-46 86h59
l21 -55l38 55h59l-70 -86h-61z" />
    <glyph glyph-name="scaron" unicode="&#x161;" horiz-adv-x="206" 
d="M195 300l15 106q6 43 -13.5 67.5t-54.5 24.5h-9q-35 0 -61.5 -24.5t-33.5 -67.5l-8 -57q-5 -38 9.5 -63.5t33 -47t33 -43.5t10.5 -53l-7 -51q-8 -41 -32 -41h-6q-11 0 -17 10.5t-3 30.5l14 104h-56l-15 -106q-6 -43 13.5 -67.5t54.5 -24.5h15q34 0 61 24.5t33 67.5l8 57
q3 25 -2.5 44t-16 35t-23.5 30t-23.5 28.5t-16.5 31.5t-3 38l7 51q3 20 11.5 30.5t18.5 10.5h4q10 0 15 -10.5t3 -30.5l-15 -104h57zM112 537l-46 86h60l21 -55l37 55h59l-70 -86h-61z" />
    <glyph glyph-name="Tcedilla" unicode="&#x162;" horiz-adv-x="207" 
d="M230 642h-67l-91 -642h-68l92 642h-67l8 57h201zM-37 -95l11 30q9 -6 21 -9t23.5 -1.5t20 7.5t8.5 17q0 12 -12.5 15.5t-25.5 -4.5l-12 6l22 34h37l-10 -21q18 8 34 -0.5t13 -28.5q-4 -26 -21 -39.5t-38 -18t-41.5 -0.5t-29.5 13z" />
    <glyph glyph-name="tcedilla" unicode="&#x163;" horiz-adv-x="145" 
d="M154 657l-23 -162h41l-8 -53h-41l-50 -353q-3 -22 6.5 -33t28.5 -7l-7 -50q-2 0 -4.5 -0.5t-4.5 -0.5l-9 -18q19 8 34.5 -0.5t12.5 -28.5q-4 -26 -21 -39.5t-38 -18t-41 -1t-30 13.5l12 30q8 -6 20.5 -9t23.5 -1.5t19.5 7.5t8.5 17q1 12 -12 15.5t-25 -4.5l-13 5l21 34
q-29 8 -39.5 32t-5.5 57l51 353h-25l8 53h24l23 156z" />
    <glyph glyph-name="Tcaron" unicode="&#x164;" horiz-adv-x="207" 
d="M239 699h-202l-8 -57h67l-91 -642h67l91 642h67zM113 739l-46 86h60l21 -55l37 55h59l-70 -86h-61z" />
    <glyph glyph-name="tcaron" unicode="&#x165;" horiz-adv-x="229" 
d="M154 657l-23 -162h40l-7 -53h-41l-50 -353q-3 -22 6 -33t29 -7l-8 -50q-28 -4 -46.5 1.5t-29 18t-14 31t-0.5 39.5l50 353h-24l7 53h24l23 156zM256 564l-33 -60h-28l24 60h-32l14 93h68z" />
    <glyph glyph-name="_0144" unicode="&#x166;" horiz-adv-x="207" 
d="M188 323h-42l-46 -323h-68l46 323h-43l7 46h42l39 273h-67l9 57h201l-8 -57h-67l-39 -273h42z" />
    <glyph glyph-name="tbar" unicode="&#x167;" horiz-adv-x="145" 
d="M154 657l-23 -162h40l-7 -53h-41l-11 -77h41l-8 -53h-40l-32 -223q-3 -22 6 -33t29 -7l-8 -50q-28 -4 -46.5 1.5t-29 18t-14 31t-0.5 39.5l31 223h-24l8 53h24l11 77h-24l7 53h24l23 156z" />
    <glyph glyph-name="Utilde" unicode="&#x168;" horiz-adv-x="230" 
d="M70 -6q-16 0 -31 5.5t-26 17.5t-16.5 30.5t-1.5 44.5l86 607h68l-85 -597q-4 -28 2 -39.5t18 -11.5h5q12 0 21.5 11.5t13.5 39.5l85 597h68l-87 -607q-4 -26 -14.5 -44.5t-24.5 -30.5t-31 -17.5t-33 -5.5h-17zM99 778q11 18 24 26t26 8q16 0 30.5 -10t31.5 -10
q14 0 29 14l27 -20q-13 -19 -26 -25.5t-26 -6.5q-18 0 -32 9.5t-28 9.5q-8 0 -15.5 -3t-15.5 -11z" />
    <glyph glyph-name="utilde" unicode="&#x169;" horiz-adv-x="208" 
d="M73 50q-10 0 -15 9.5t-2 31.5l57 404h-63l-57 -406q-6 -43 3.5 -67.5t43.5 -24.5h2q14 0 28.5 7.5t28.5 21.5l-3 -26h63l70 495h-63l-58 -409q-5 -17 -15 -26.5t-18 -9.5h-2zM68 574q23 34 51 34q16 0 30.5 -10t31.5 -10q13 0 28 14l28 -20q-14 -19 -27 -25.5t-26 -6.5
q-18 0 -31.5 9.5t-27.5 9.5q-8 0 -15.5 -3t-16.5 -11z" />
    <glyph glyph-name="Umacron" unicode="&#x16a;" horiz-adv-x="230" 
d="M70 -6q-16 0 -31 5.5t-26 17.5t-16.5 30.5t-1.5 44.5l86 607h68l-85 -597q-4 -28 2 -39.5t18 -11.5h5q12 0 21.5 11.5t13.5 39.5l85 597h68l-87 -607q-4 -26 -14.5 -44.5t-24.5 -30.5t-31 -17.5t-33 -5.5h-17zM245 759h-133l7 47h132z" />
    <glyph glyph-name="umacron" unicode="&#x16b;" horiz-adv-x="208" 
d="M74 50q9 0 19 10.5t14 27.5l59 407h63l-71 -495h-63l3 25q-14 -13 -28 -20.5t-28 -7.5h-2q-34 0 -44 24.5t-3 67.5l57 406h63l-58 -404q-3 -22 2 -31.5t15 -9.5h2zM213 555h-132l7 47h132z" />
    <glyph glyph-name="Ubreve" unicode="&#x16c;" horiz-adv-x="230" 
d="M70 -6q-16 0 -31 5.5t-26 17.5t-16.5 30.5t-1.5 44.5l86 607h68l-86 -597q-4 -28 2.5 -39.5t18.5 -11.5h5q12 0 21 11.5t13 39.5l86 597h68l-88 -607q-7 -52 -38 -75t-65 -23h-16zM160 816q-2 -11 5 -19.5t18 -8.5t21 8.5t11 19.5h41q-5 -26 -27.5 -46.5t-51.5 -20.5
q-26 0 -43 20t-13 47h39z" />
    <glyph glyph-name="ubreve" unicode="&#x16d;" horiz-adv-x="208" 
d="M73 50q-10 0 -15 9.5t-2 31.5l57 404h-63l-57 -406q-6 -43 3.5 -67.5t43.5 -24.5h2q14 0 28.5 7.5t28.5 21.5l-3 -26h63l70 495h-63l-58 -409q-5 -17 -15 -26.5t-18 -9.5h-2zM130 612q-2 -11 5 -19.5t18 -8.5t21 8.5t12 19.5h40q-4 -26 -27 -46.5t-52 -20.5q-26 0 -43 20
t-13 47h39z" />
    <glyph glyph-name="Uring" unicode="&#x16e;" horiz-adv-x="230" 
d="M69 -6q-16 0 -31 5.5t-26 17.5t-16 30.5t-1 44.5l85 607h68l-85 -597q-4 -28 2.5 -39.5t17.5 -11.5h6q11 0 20.5 11.5t13.5 39.5l85 597h68l-86 -607q-4 -26 -14.5 -44.5t-25 -30.5t-31.5 -17.5t-33 -5.5h-17zM174 729q-23 0 -40 18.5t-13 42.5q4 26 25 45.5t45 19.5
q26 0 42.5 -19t12.5 -46q-3 -23 -24 -42t-48 -19zM187 819q-11 0 -20.5 -8.5t-11.5 -19.5t5.5 -19t18.5 -8t20.5 8t11.5 19t-5.5 19.5t-18.5 8.5z" />
    <glyph glyph-name="uring" unicode="&#x16f;" horiz-adv-x="208" 
d="M73 50q-10 0 -15 9.5t-2 31.5l57 404h-63l-57 -406q-6 -43 3.5 -67.5t43.5 -24.5h3q13 0 27.5 7.5t28.5 21.5l-3 -26h63l70 495h-63l-58 -409q-5 -17 -15 -26.5t-18 -9.5h-2zM144 525q-23 0 -39.5 18.5t-12.5 42.5q3 26 24 45.5t45 19.5q26 0 43 -19t13 -46
q-4 -23 -25 -42t-48 -19zM157 615q-11 0 -20 -8.5t-11 -19.5t5.5 -19t17.5 -8q11 0 20.5 8t11.5 19t-5.5 19.5t-18.5 8.5z" />
    <glyph glyph-name="Uhungarumlaut" unicode="&#x170;" horiz-adv-x="230" 
d="M70 -6q-16 0 -31 5.5t-26 17.5t-16.5 30.5t-1.5 44.5l86 607h68l-85 -597q-5 -28 2 -39.5t18 -11.5h5q12 0 21 11.5t14 39.5l85 597h68l-87 -607q-8 -52 -39 -75t-65 -23h-16zM105 736l52 86h60l-71 -86h-41zM183 736l52 86h60l-71 -86h-41z" />
    <glyph glyph-name="uhungarumlaut" unicode="&#x171;" horiz-adv-x="208" 
d="M75 50q8 0 18 9.5t15 26.5l58 409h63l-70 -495h-63l3 26q-14 -14 -28.5 -21.5t-28.5 -7.5h-2q-34 0 -43.5 24.5t-3.5 67.5l57 406h63l-57 -404q-3 -22 2 -31.5t15 -9.5h2zM83 532l53 86h60l-71 -86h-42zM161 532l53 86h60l-71 -86h-42z" />
    <glyph glyph-name="Uogonek" unicode="&#x172;" horiz-adv-x="230" 
d="M123 -71q-11 -18 -28.5 -25.5t-34 -5.5t-27.5 13.5t-8 31.5q4 31 35 52q-29 3 -50 25.5t-15 71.5l86 607h68l-85 -597q-4 -28 2 -39.5t18 -11.5h5q12 0 21.5 11.5t13.5 39.5l85 597h68l-87 -607q-7 -45 -30.5 -68t-52.5 -28q-17 -8 -29.5 -21t-14.5 -24q-2 -18 13 -20
t27 13z" />
    <glyph glyph-name="uogonek" unicode="&#x173;" horiz-adv-x="208" 
d="M75 50q8 0 18 10t15 27l59 408h63l-71 -495h2q-19 -5 -31.5 -18.5t-14.5 -24.5q-2 -18 12.5 -20t26.5 13l21 -15q-11 -18 -29 -25.5t-34.5 -5.5t-27.5 13.5t-8 31.5q2 16 11.5 28t23.5 23h-15l3 26q-14 -14 -28.5 -21.5t-27.5 -7.5h-3q-34 0 -43 24.5t-4 67.5l58 406h62
l-58 -404q-3 -22 2.5 -31.5t15.5 -9.5h2z" />
    <glyph glyph-name="Wcircumflex" unicode="&#x174;" horiz-adv-x="339" 
d="M18 0l47 699h65l-34 -466h2l108 466h55l-19 -466h1l100 466h59l-152 -699h-67l14 433h-1l-104 -433h-74zM281 824l46 -86h-60l-21 55l-37 -55h-60l71 86h61z" />
    <glyph glyph-name="wcircumflex" unicode="&#x175;" horiz-adv-x="321" 
d="M17 0l20 495h59l-16 -330h2l89 330h55l-5 -330h2l78 330h53l-121 -495h-69l10 358h-2l-87 -358h-68zM247 620l45 -86h-60l-21 54l-37 -54h-59l70 86h62z" />
    <glyph glyph-name="Ycircumflex" unicode="&#x176;" horiz-adv-x="224" 
d="M138 262l-37 -262h-68l37 262l-12 437h67v-283h3l80 283h68zM216 824l45 -86h-59l-22 54l-36 -54h-60l71 86h61z" />
    <glyph glyph-name="ycircumflex" unicode="&#x177;" horiz-adv-x="187" 
d="M170 495h52l-162 -660h-62l43 165l-3 495h58l-9 -320h3zM182 620l46 -86h-60l-21 54l-37 -54h-60l71 86h61z" />
    <glyph glyph-name="Ydieresis" unicode="&#x178;" horiz-adv-x="224" 
d="M285 699h-68l-81 -283h-2v283h-68l14 -437l-38 -262h68l38 262zM166 749h-45l10 68h45zM244 749h-45l10 68h45z" />
    <glyph glyph-name="Zacute" unicode="&#x179;" horiz-adv-x="218" 
d="M168 0h-199l7 49l207 599h-104l8 51h172l-7 -49l-208 -599h131zM152 738l53 86h59l-70 -86h-42z" />
    <glyph glyph-name="zacute" unicode="&#x17a;" horiz-adv-x="181" 
d="M143 0h-175l8 51l168 393h-102l7 51h164l-8 -50l-168 -394h113zM114 535l53 86h59l-70 -86h-42z" />
    <glyph glyph-name="Zdotaccent" unicode="&#x17b;" horiz-adv-x="218" 
d="M169 0h-199l7 49l206 599h-104l8 51h172l-7 -49l-207 -599h131zM197 750h-45l9 68h45z" />
    <glyph glyph-name="zdotaccent" unicode="&#x17c;" horiz-adv-x="181" 
d="M143 0h-174l7 51l168 393h-102l7 51h164l-8 -50l-168 -394h114zM159 546h-45l9 69h45z" />
    <glyph glyph-name="Zcaron" unicode="&#x17d;" horiz-adv-x="218" 
d="M175 0h-199l7 49l207 599h-104l7 51h172l-7 -49l-208 -599h132zM149 740l-46 86h60l21 -54l37 54h60l-70 -86h-62z" />
    <glyph glyph-name="zcaron" unicode="&#x17e;" horiz-adv-x="181" 
d="M142 0h-175l8 51l168 393h-102l7 51h163l-7 -50l-168 -394h113zM104 537l-46 86h60l21 -54l37 54h60l-71 -86h-61z" />
    <glyph glyph-name="longs" unicode="&#x17f;" horiz-adv-x="166" 
d="M50 495h25l17 119q3 21 13 40t27.5 32t41.5 17.5t55 -2.5l-7 -50q-19 3 -41.5 -6t-26.5 -36l-87 -609h-62l62 442h-24z" />
    <glyph glyph-name="florin" unicode="&#x192;" horiz-adv-x="223" 
d="M54 495h60l17 119q3 21 13 40t27.5 32t41.5 17.5t55 -2.5l-7 -50q-9 1 -20 0t-21 -6t-17.5 -14t-9.5 -22l-17 -114h61l-8 -53h-60l-63 -442l-11 -79q-3 -22 -13.5 -41t-27.5 -32t-41 -17.5t-54 2.5l7 50q9 -2 19.5 -0.5t20.5 6.5t17 14t9 23l67 468l7 48h-60z" />
    <glyph glyph-name="circumflex" unicode="&#x2c6;" horiz-adv-x="213" 
d="M197 675l47 -86h-60l-22 54l-36 -54h-60l70 86h61z" />
    <glyph glyph-name="caron" unicode="&#x2c7;" horiz-adv-x="233" 
d="M80 590l-47 86h60l21 -54l37 54h60l-70 -86h-61z" />
    <glyph glyph-name="breve" unicode="&#x2d8;" horiz-adv-x="191" 
d="M71 667q-2 -11 5.5 -19.5t18.5 -8.5t20.5 8.5t11.5 19.5h40q-4 -26 -26.5 -46.5t-51.5 -20.5q-26 0 -43.5 20t-13.5 47h39z" />
    <glyph glyph-name="dotaccent" unicode="&#x2d9;" horiz-adv-x="101" 
d="M68 600h-45l9 68h45z" />
    <glyph glyph-name="ring" unicode="&#x2da;" horiz-adv-x="181" 
d="M80 568q-23 0 -40 18.5t-13 42.5q4 26 25 45.5t45 19.5q26 0 43 -19t12 -46q-3 -23 -24 -42t-48 -19zM93 658q-11 0 -20.5 -8.5t-11.5 -19.5q-1 -11 6.5 -19t17.5 -8q11 0 20.5 8t11.5 19t-5.5 19.5t-18.5 8.5z" />
    <glyph glyph-name="ogonek" unicode="&#x2db;" horiz-adv-x="157" 
d="M127 -65q-11 -18 -28.5 -25.5t-34 -5.5t-27.5 13.5t-8 31.5q2 16 11 28t23 23h50q-19 -5 -31.5 -18.5t-14.5 -24.5q-1 -9 3 -14t10 -6t13 2t13 11z" />
    <glyph glyph-name="tilde" unicode="&#x2dc;" horiz-adv-x="223" 
d="M84 629q13 18 26 26t25 8q17 0 31 -10t31 -10q14 0 28 14l28 -19q-14 -19 -26.5 -26t-26.5 -7q-18 0 -31.5 9.5t-27.5 9.5q-8 0 -15.5 -3t-15.5 -11z" />
    <glyph glyph-name="hungarumlaut" unicode="&#x2dd;" horiz-adv-x="234" 
d="M100 587l51 86h60l-70 -86h-41zM22 587l51 86h60l-70 -86h-41z" />
    <glyph glyph-name="endash" unicode="&#x2013;" horiz-adv-x="326" 
d="M321 327h-290l7 46h290z" />
    <glyph glyph-name="emdash" unicode="&#x2014;" horiz-adv-x="465" 
d="M460 327h-430l7 46h430z" />
    <glyph glyph-name="quoteleft" unicode="&#x2018;" horiz-adv-x="131" 
d="M84 625l33 60h29l-24 -60h31l-13 -93h-69z" />
    <glyph glyph-name="quoteright" unicode="&#x2019;" horiz-adv-x="131" 
d="M154 589l-33 -61h-28l24 61h-32l13 92h69z" />
    <glyph glyph-name="quotesinglbase" unicode="&#x201a;" horiz-adv-x="131" 
d="M69 0l-33 -60h-28l24 60h-31l12 92h69z" />
    <glyph glyph-name="quotedblleft" unicode="&#x201c;" horiz-adv-x="244" 
d="M85 625l33 60h28l-24 -60h32l-13 -93h-69zM198 625l33 60h28l-24 -60h31l-12 -93h-69z" />
    <glyph glyph-name="quotedblright" unicode="&#x201d;" horiz-adv-x="244" 
d="M156 607l-32 -61h-29l24 61h-31l13 92h68zM269 607l-33 -61h-28l24 61h-32l13 92h69z" />
    <glyph glyph-name="quotedblbase" unicode="&#x201e;" horiz-adv-x="244" 
d="M68 0l-32 -60h-29l24 60h-31l13 93h68zM181 0l-33 -60h-28l24 60h-32l13 93h69z" />
    <glyph glyph-name="dagger" unicode="&#x2020;" horiz-adv-x="200" 
d="M197 699l-38 -264h51l-8 -53h-51l-78 -547h-62l78 547h-50l7 53h50l38 264h63z" />
    <glyph glyph-name="daggerdbl" unicode="&#x2021;" horiz-adv-x="200" 
d="M196 699l-38 -264h51l-7 -53h-51l-33 -230h51l-7 -53h-52l-37 -264h-62l37 264h-49l7 53h50l33 230h-51l8 53h50l38 264h62z" />
    <glyph glyph-name="bullet" unicode="&#x2022;" horiz-adv-x="138" 
d="M62 196q-23 0 -35 16t-9 36q4 25 21.5 39t37.5 14q25 0 36.5 -17t9.5 -36q-4 -25 -22.5 -38.5t-38.5 -13.5z" />
    <glyph glyph-name="ellipsis" unicode="&#x2026;" horiz-adv-x="350" 
d="M63 0h-69l14 92h69zM176 0h-69l14 92h68zM289 0h-69l13 92h69z" />
    <glyph glyph-name="perthousand" unicode="&#x2030;" horiz-adv-x="609" 
d="M376 699l-342 -699h49l342 699h-49zM94 303q-29 0 -46.5 21t-11.5 59l34 242q6 38 29 59t52 21h14q29 0 46 -21t12 -59l-34 -242q-6 -38 -29 -59t-52 -21h-14zM150 663q-10 0 -18 -9.5t-11 -30.5l-34 -239q-3 -20 2.5 -29t15.5 -9h5q9 0 17.5 9t10.5 29l35 239
q2 21 -3.5 30.5t-14.5 9.5h-5zM296 -6q-29 0 -46 21t-12 59l35 245q6 38 28.5 59t51.5 21h15q29 0 46.5 -21t11.5 -59l-35 -245q-5 -38 -28.5 -59t-52.5 -21h-14zM353 356q-9 0 -17.5 -9.5t-11.5 -29.5l-35 -242q-2 -20 3.5 -29.5t15.5 -9.5h5q9 0 17 9.5t11 29.5l34 242
q3 20 -2 29.5t-14 9.5h-6zM472 -6q-29 0 -45.5 21t-11.5 59l35 245q6 38 28.5 59t51.5 21h14q29 0 46.5 -21t12.5 -59l-35 -245q-5 -38 -28.5 -59t-52.5 -21h-15zM530 356q-10 0 -18.5 -9.5t-11.5 -29.5l-34 -242q-3 -20 2.5 -29.5t15.5 -9.5h5q10 0 18 9.5t10 29.5l35 242
q3 20 -2.5 29.5t-14.5 9.5h-5z" />
    <glyph glyph-name="guilsinglleft" unicode="&#x2039;" horiz-adv-x="144" 
d="M68 43l-48 201l46 201h59l-45 -202l48 -200h-60z" />
    <glyph glyph-name="guilsinglright" unicode="&#x203a;" horiz-adv-x="144" 
d="M46 43l48 200l-45 202h59l46 -201l-48 -201h-60z" />
    <glyph glyph-name="fraction" unicode="&#x2044;" horiz-adv-x="218" 
d="M208 699h57l-255 -699h-57z" />
    <glyph glyph-name="franc" unicode="&#x20a3;" horiz-adv-x="224" 
d="M173 642l-38 -267h70l-8 -51h-69l-17 -119h31l-7 -46h-31l-22 -159h-67l22 159h-31l7 46h31l70 494h157l-9 -57h-89z" />
    <glyph glyph-name="uni20A6" unicode="&#x20a6;" horiz-adv-x="340" 
d="M347 429l-6 -46h-37l-9 -63h37l-7 -46h-36l-39 -274h-76l-11 274h-42l-39 -274h-56l39 274h-44l7 46h43l9 63h-43l6 46h44l39 270h76l9 -270h38l40 270h61l-39 -270h36zM128 320h33l-3 63h-21zM215 320h19l9 63h-30zM153 491l-9 -62h12l-2 62h-1zM219 215l8 59h-10z" />
    <glyph glyph-name="peseta" unicode="&#x20a7;" horiz-adv-x="300" 
d="M230 699q36 0 58.5 -24.5t16.5 -72.5l-12 -83h28l-7 -46h-28l-14 -100q-6 -45 -33 -63.5t-64 -18.5h-43l-41 -291h-67l67 473h-41l7 46h40l26 180h107zM218 473h-60l-18 -126h37q24 0 30 47zM164 519h61l11 73q4 26 -2.5 38t-18.5 12h-33z" />
    <glyph glyph-name="uni20A9" unicode="&#x20a9;" horiz-adv-x="425" 
d="M82 314l5 75h-49l6 46h46l19 264h65l-19 -264h34l62 264h55l-12 -264h37l56 264h59l-57 -264h44l-7 -46h-47l-17 -75h54l-7 -46h-57l-58 -268h-66l8 268h-36l-64 -268h-75l18 268h-58l6 46h55zM289 314h16l16 75h-29zM161 314l17 75h-27l-5 -75h15zM211 314h26l2 75h-10z
M288 233l7 35h-8l-1 -35h2zM142 233l8 35h-8l-2 -35h2z" />
    <glyph glyph-name="Euro" unicode="&#x20ac;" horiz-adv-x="260" 
d="M178 301h-55l-28 -199q-4 -28 2.5 -39.5t18.5 -11.5h5q12 0 21 11.5t14 39.5l26 181h67l-27 -191q-4 -26 -14.5 -44.5t-25 -30.5t-31.5 -17.5t-33 -5.5h-16q-17 0 -32 5.5t-26 17.5t-16 30.5t-1 44.5l29 209h-30l4 29h30l6 41h-30l4 28h30l30 208q4 26 14.5 44.5t25 30.5
t31 17.5t33.5 5.5h16q16 0 31.5 -5.5t26.5 -17.5t16 -30.5t1 -44.5l-27 -190h-67l26 181q4 27 -2.5 38.5t-18.5 11.5h-5q-12 0 -21 -11t-14 -40l-29 -198h55l-4 -28h-55l-6 -41h55z" />
    <glyph glyph-name="uni20B9" unicode="&#x20b9;" horiz-adv-x="310" 
d="M64 562h160l5 31q4 28 -4.5 39.5t-25.5 13.5h-123l8 53h274l-8 -53h-57q2 -9 2.5 -19t-1.5 -21l-6 -44h50l-7 -53h-51l-12 -87q-3 -22 -13 -39t-23.5 -29t-29.5 -18.5t-32 -6.5h-54l95 -329h-74l-95 338l5 38h105q22 0 36 13.5t17 39.5l11 80h-159z" />
    <glyph glyph-name="trademark" unicode="&#x2122;" horiz-adv-x="271" 
d="M169 667h-25l-40 -275h-37l39 275h-25l5 32h87zM318 699l-44 -307h-28l30 209h-1l-53 -209h-24l8 209h-1l-30 -209h-30l44 307h47l-11 -212h1l49 212h43z" />
    <glyph glyph-name="minus" unicode="&#x2212;" horiz-adv-x="244" 
d="M246 373l-7 -46h-208l7 46h208z" />
    <glyph glyph-name="fi" unicode="&#xfb01;" horiz-adv-x="226" 
d="M11 0l62 442h-24l8 53h24l17 119q3 21 13.5 40t27.5 32t41.5 17.5t54.5 -2.5l-7 -50q-9 1 -20 0t-21 -6t-17.5 -14t-9.5 -22l-17 -114h106l-70 -495h-63l62 442h-42l-63 -442h-62z" />
    <glyph glyph-name="fl" unicode="&#xfb02;" horiz-adv-x="261" 
d="M10 0l62 442h-24l8 53h24l17 119q3 21 13.5 40t27.5 32t41.5 17.5t54.5 -2.5l-7 -50q-19 3 -41.5 -6t-26.5 -36l-17 -114h63l-8 -53h-62l-63 -442h-62zM155 0h63l100 699h-63z" />
    <glyph glyph-name="_0007" horiz-adv-x="0" 
 />
    <glyph glyph-name="_0024" horiz-adv-x="0" 
 />
    <glyph glyph-name="quoteaccent" horiz-adv-x="0" 
d="M55 645l25 46h26l-18 -46h16l-10 -68h-48z" />
    <glyph glyph-name="accent margin" horiz-adv-x="0" 
d="M90 699h12l-19 -131h-12z" />
    <glyph glyph-name="ucircumflex.001" horiz-adv-x="208" 
d="M75 50q8 0 18 9.5t15 26.5l58 409h63l-70 -495h-63l3 26q-14 -14 -28.5 -21.5t-28.5 -7.5h-2q-34 0 -43.5 24.5t-3.5 67.5l57 406h63l-57 -404q-3 -22 2 -31.5t15 -9.5h2zM189 620l45 -86h-59l-22 54l-37 -54h-59l70 86h62z" />
    <glyph glyph-name="uacute.001" horiz-adv-x="208" 
d="M75 50q8 0 18 9.5t15 26.5l58 409h63l-70 -495h-63l3 26q-14 -14 -28.5 -21.5t-28.5 -7.5h-2q-34 0 -43.5 24.5t-3.5 67.5l57 406h63l-57 -404q-3 -22 2 -31.5t15 -9.5h2zM123 534l53 86h60l-71 -86h-42z" />
    <glyph glyph-name="ugrave.001" horiz-adv-x="208" 
d="M73 50q-10 0 -15 9.5t-2 31.5l57 404h-63l-57 -406q-6 -43 3.5 -67.5t43.5 -24.5h2q14 0 28.5 7.5t28.5 21.5l-3 -26h63l70 495h-63l-58 -409q-5 -17 -15 -26.5t-18 -9.5h-2zM125 534l-45 86h59l28 -86h-42z" />
    <glyph glyph-name="udieresis.001" horiz-adv-x="208" 
d="M72 50q-10 0 -15 9.5t-2 31.5l58 404h-63l-57 -406q-7 -43 3 -67.5t44 -24.5h2q14 0 28 7.5t28 20.5l-3 -25h63l71 495h-63l-59 -407q-4 -17 -14 -27.5t-19 -10.5h-2zM208 545h-45l10 68h44zM129 545h-44l9 68h45z" />
    <glyph glyph-name="iacute.001" horiz-adv-x="96" 
d="M116 495l-70 -495h-63l71 495h62zM69 534l52 86h60l-71 -86h-41z" />
    <glyph glyph-name="_0158" horiz-adv-x="0" 
 />
    </font>
</defs>
</svg>
