<svg width="84" height="85" viewBox="0 0 84 85" fill="none" xmlns="http://www.w3.org/2000/svg">
<g clip-path="url(#clip0_1615_17293)">
<path d="M34.9766 8.67977C19.7741 21.3019 2.72516 25.286 8.77121 45.7075C14.8173 66.1289 45.4785 69.1053 43.038 79.2636C40.5974 89.4161 82.8266 77.2716 68.358 39.1139C59.8423 16.6596 47.5754 -1.78141 34.9766 8.67977Z" fill="#DDE7FE"/>
<path d="M64.2929 77.5261H19.5125C18.5456 77.5261 17.7651 76.7456 17.7651 75.7787C17.7651 74.8118 18.5456 74.0312 19.5125 74.0312H64.2929C65.2598 74.0312 66.0403 74.8118 66.0403 75.7787C66.0403 76.7456 65.2598 77.5261 64.2929 77.5261Z" fill="#2363C1"/>
<path d="M53.6561 70.7292H30.1417C29.1748 70.7292 28.3943 69.9487 28.3943 68.9818C28.3943 68.0149 29.1748 67.2344 30.1417 67.2344H53.6561C54.623 67.2344 55.4035 68.0149 55.4035 68.9818C55.4035 69.9487 54.623 70.7292 53.6561 70.7292Z" fill="#2363C1"/>
<path d="M42.1416 56.3909C25.6693 56.3909 14.9635 53.7873 14.5208 53.6766C13.583 53.4436 13.0122 52.5 13.2452 51.5622C13.4782 50.6245 14.4276 50.0536 15.3595 50.2866C15.4644 50.3099 26.1294 52.9019 42.1416 52.9019C58.1537 52.9019 68.3353 50.3623 68.4343 50.339C69.3721 50.1002 70.3215 50.6652 70.5603 51.603C70.7991 52.5408 70.2341 53.4902 69.2964 53.729C68.8712 53.8397 58.6255 56.4026 42.1416 56.4026V56.3909Z" fill="#2363C1"/>
<path d="M22.0047 67.7171C21.8591 67.7171 21.7077 67.6996 21.5562 67.6589L15.3413 66.0163C14.4093 65.7717 13.8501 64.8106 14.1006 63.8786C14.3452 62.9467 15.3063 62.3875 16.2383 62.638L22.4532 64.2805C23.3852 64.5252 23.9444 65.4862 23.6939 66.4182C23.4842 67.1987 22.7794 67.7171 22.0047 67.7171Z" fill="#2363C1"/>
<path d="M61.7937 67.7171C61.019 67.7171 60.3142 67.1987 60.1045 66.4182C59.8599 65.4862 60.4132 64.531 61.3452 64.2805L67.5601 62.638C68.4921 62.3875 69.4473 62.9467 69.6978 63.8786C69.9424 64.8106 69.3891 65.7658 68.4571 66.0163L62.2422 67.6589C62.0907 67.6996 61.9393 67.7171 61.7937 67.7171Z" fill="#2363C1"/>
<path d="M66.2329 13.2292H17.5675C16.6006 13.2292 15.8201 12.4487 15.8201 11.4818C15.8201 10.5149 16.6006 9.73438 17.5675 9.73438H66.2329C67.1998 9.73438 67.9804 10.5149 67.9804 11.4818C67.9804 12.4487 67.1998 13.2292 66.2329 13.2292Z" fill="#2363C1"/>
<path d="M23.5198 85.0012H13.0353C11.3403 85.0012 9.96569 83.6266 9.96569 81.9316V76.5787C8.66678 75.6467 7.85132 74.1439 7.85132 72.548V20.3294C7.85132 19.3625 8.63183 18.582 9.59873 18.582C10.5656 18.582 11.3461 19.3625 11.3461 20.3294V72.548C11.3461 73.1246 11.7597 73.6954 12.3538 73.9284C13.0237 74.1905 13.4663 74.8371 13.4605 75.5535V81.5006H23.0946V75.8331C23.0946 74.8662 23.8751 74.0857 24.842 74.0857C25.8089 74.0857 26.5894 74.8662 26.5894 75.8331V81.9258C26.5894 83.6149 25.209 84.9954 23.5198 84.9954V85.0012Z" fill="#2363C1"/>
<path d="M70.8507 85.0012H60.3663C58.6771 85.0012 57.2966 83.6266 57.2966 81.9316V75.8389C57.2966 74.872 58.0771 74.0915 59.044 74.0915C60.0109 74.0915 60.7915 74.872 60.7915 75.8389V81.5064H70.4255V75.5535C70.4255 74.8371 70.8682 74.1905 71.5322 73.9284C72.0914 73.7071 72.4525 73.1654 72.4525 72.548V20.3294C72.4525 19.3625 73.233 18.582 74.1999 18.582C75.1668 18.582 75.9474 19.3625 75.9474 20.3294V72.548C75.9474 74.1789 75.1785 75.6525 73.9204 76.5729V81.9316C73.9204 83.6208 72.5399 85.0012 70.8507 85.0012Z" fill="#2363C1"/>
<path d="M81.3596 28.642C80.3927 28.642 79.6122 27.8615 79.6122 26.8946V17.2139C79.6122 15.2219 77.9929 13.6026 76.0008 13.6026H74.2068C73.7408 13.6026 73.2982 13.4162 72.972 13.09C72.6458 12.7639 72.4594 12.3154 72.4594 11.8552V10.7136C72.4594 8.64579 70.6479 6.50812 68.5802 6.14116C68.5394 6.13534 68.5044 6.12369 68.4637 6.11787C68.3588 6.09457 57.6472 3.49092 41.5651 3.49092C25.4831 3.49092 15.3772 6.04797 15.2782 6.07127C15.2433 6.08292 15.2025 6.08874 15.1617 6.09457C13.094 6.479 11.3465 8.59919 11.3465 10.7194V11.861C11.3465 12.327 11.1602 12.7697 10.834 13.0959C10.5078 13.4221 10.0593 13.6084 9.59913 13.6084H7.80512C5.81307 13.6084 4.1938 15.2277 4.1938 17.2198V26.8946C4.1938 27.8615 3.41329 28.642 2.44639 28.642C1.47949 28.642 0.698975 27.8615 0.698975 26.8946V17.2139C0.698975 13.2939 3.88509 10.1078 7.80512 10.1078H7.88084C8.17208 6.54889 10.9505 3.35695 14.4628 2.66964C15.3889 2.43665 25.4656 -0.00390625 41.571 -0.00390625C57.6763 -0.00390625 68.2947 2.47742 69.25 2.71041C72.7506 3.36278 75.6222 6.59549 75.9251 10.102H76.0008C79.9209 10.102 83.107 13.2881 83.107 17.2081V26.883C83.107 27.8499 82.3265 28.6304 81.3596 28.6304V28.642Z" fill="#2363C1"/>
</g>
<defs>
<clipPath id="clip0_1615_17293">
<rect width="82.408" height="85" fill="white" transform="translate(0.699219)"/>
</clipPath>
</defs>
</svg>
