<svg width="43" height="42" viewBox="0 0 43 42" fill="none" xmlns="http://www.w3.org/2000/svg">
<path d="M35.9375 34.125H7.0625C6.01821 34.125 5.01669 33.7102 4.27827 32.9717C3.53984 32.2333 3.125 31.2318 3.125 30.1875V11.8125C3.125 10.7682 3.53984 9.76669 4.27827 9.02827C5.01669 8.28984 6.01821 7.875 7.0625 7.875H35.9375C36.9818 7.875 37.9833 8.28984 38.7217 9.02827C39.4602 9.76669 39.875 10.7682 39.875 11.8125V30.1875C39.875 31.2318 39.4602 32.2333 38.7217 32.9717C37.9833 33.7102 36.9818 34.125 35.9375 34.125ZM7.0625 10.5C6.7144 10.5 6.38056 10.6383 6.13442 10.8844C5.88828 11.1306 5.75 11.4644 5.75 11.8125V30.1875C5.75 30.5356 5.88828 30.8694 6.13442 31.1156C6.38056 31.3617 6.7144 31.5 7.0625 31.5H35.9375C36.2856 31.5 36.6194 31.3617 36.8656 31.1156C37.1117 30.8694 37.25 30.5356 37.25 30.1875V11.8125C37.25 11.4644 37.1117 11.1306 36.8656 10.8844C36.6194 10.6383 36.2856 10.5 35.9375 10.5H7.0625Z" fill="white"/>
<path d="M21.5001 22.3117C21.2428 22.3097 20.9918 22.2321 20.7782 22.0885L5.02823 11.5885C4.77355 11.3834 4.60463 11.0906 4.55455 10.7674C4.50447 10.4442 4.57683 10.114 4.75748 9.84141C4.93812 9.5688 5.21402 9.37345 5.53115 9.29362C5.84828 9.21378 6.1838 9.25522 6.47198 9.4098L22.222 19.9098C22.4547 20.0662 22.6313 20.293 22.7258 20.5571C22.8202 20.8211 22.8276 21.1084 22.7469 21.377C22.6662 21.6455 22.5016 21.8812 22.2772 22.0494C22.0529 22.2176 21.7805 22.3095 21.5001 22.3117Z" fill="white"/>
<path d="M21.5 22.3111C21.2185 22.3117 20.9442 22.2218 20.7177 22.0546C20.4912 21.8875 20.3244 21.6519 20.242 21.3827C20.1596 21.1135 20.166 20.8249 20.2602 20.5596C20.3543 20.2943 20.5313 20.0663 20.765 19.9092L36.515 9.40924C36.8038 9.2385 37.147 9.18484 37.4742 9.25928C37.8013 9.33372 38.0875 9.53061 38.274 9.80951C38.4605 10.0884 38.5331 10.4281 38.4769 10.7589C38.4207 11.0896 38.24 11.3863 37.9719 11.588L22.2219 22.088C22.0083 22.2315 21.7573 22.3091 21.5 22.3111Z" fill="white"/>
</svg>
