<svg width="43" height="42" viewBox="0 0 43 42" fill="none" xmlns="http://www.w3.org/2000/svg">
<path d="M36.3416 27.1025L33.4541 24.215C32.5934 23.3612 31.4316 22.8798 30.2192 22.8747C29.0068 22.8695 27.8409 23.341 26.973 24.1875C26.5098 24.6533 25.8988 24.9431 25.2451 25.007C24.5914 25.071 23.9358 24.9051 23.3912 24.5379C21.2415 23.1033 19.3949 21.2602 17.9561 19.1134C17.5954 18.5626 17.4355 17.9044 17.5034 17.2496C17.5713 16.5948 17.8628 15.9834 18.3288 15.5184C19.1677 14.6496 19.6331 13.487 19.6255 12.2794C19.6179 11.0718 19.1378 9.91513 18.2882 9.05698L15.4007 6.16948C14.5362 5.30796 13.3655 4.82422 12.145 4.82422C10.9245 4.82422 9.75383 5.30796 8.88935 6.16948L8.05853 7.00161C3.72728 11.3329 4.05147 20.439 13.0631 29.4454C18.4968 34.8804 23.966 37.1563 28.401 37.1563C29.7065 37.1998 31.0076 36.983 32.2284 36.5186C33.4493 36.0541 34.5655 35.3514 35.5121 34.4512L36.3442 33.6191C37.2073 32.7542 37.6918 31.5821 37.6913 30.3603C37.6908 29.1384 37.2054 27.9667 36.3416 27.1025ZM34.4857 31.7632L33.6536 32.5954C30.2411 36.0079 22.7087 35.3844 14.9163 27.5908C7.12403 19.7972 6.49928 12.2595 9.91178 8.84698L10.7373 8.01617C11.1091 7.6458 11.6124 7.43784 12.1371 7.43784C12.6619 7.43784 13.1652 7.6458 13.5369 8.01617L16.4244 10.9037C16.7894 11.2705 16.9965 11.7653 17.0017 12.2827C17.0068 12.8001 16.8096 13.2991 16.452 13.673C15.5651 14.5656 15.0119 15.7358 14.885 16.9876C14.7581 18.2395 15.0653 19.4969 15.755 20.5492C17.3898 22.9956 19.492 25.0947 21.9408 26.7259C22.99 27.4157 24.2442 27.7247 25.4937 27.6012C26.7433 27.4777 27.9127 26.9292 28.8065 26.0473C29.1798 25.6855 29.6801 25.4846 30.2 25.4878C30.7198 25.4909 31.2176 25.698 31.5864 26.0644L34.4739 28.9519C34.66 29.1353 34.808 29.3537 34.9094 29.5945C35.0108 29.8353 35.0635 30.0938 35.0646 30.3551C35.0657 30.6164 35.0151 30.8753 34.9158 31.117C34.8164 31.3586 34.6703 31.5783 34.4857 31.7632Z" fill="white"/>
</svg>
