<svg width="24" height="24" viewBox="0 0 24 24" fill="none" xmlns="http://www.w3.org/2000/svg">
<g clip-path="url(#clip0_1084_6515)">
<path d="M23.7803 22.7197L17.1492 16.0888C18.6113 14.3835 19.5 12.1723 19.5 9.75C19.5 4.36523 15.1348 0 9.75 0C4.36523 0 0 4.36523 0 9.75C0 15.1348 4.36523 19.5 9.75 19.5C12.1723 19.5 14.3835 18.6112 16.0887 17.1493L22.7197 23.7803C22.8662 23.9268 23.0581 24 23.25 24C23.4419 24 23.6338 23.9268 23.7803 23.7803C24.0732 23.4873 24.0732 23.0127 23.7803 22.7197ZM9.75 18C5.20092 18 1.5 14.2991 1.5 9.75C1.5 5.20092 5.20092 1.5 9.75 1.5C14.2991 1.5 18 5.20092 18 9.75C18 14.2991 14.2991 18 9.75 18Z" fill="white"/>
</g>
<defs>
<clipPath id="clip0_1084_6515">
<rect width="24" height="24" fill="white"/>
</clipPath>
</defs>
</svg>
