<svg width="24" height="24" viewBox="0 0 24 24" fill="none" xmlns="http://www.w3.org/2000/svg">
<g clip-path="url(#clip0_1084_6524)">
<path d="M8.25 5.25C9.69727 5.25 10.875 4.07227 10.875 2.625C10.875 1.17773 9.69727 0 8.25 0C6.80273 0 5.625 1.17773 5.625 2.625C5.625 4.07227 6.80273 5.25 8.25 5.25ZM8.25 1.5C8.87034 1.5 9.375 2.00466 9.375 2.625C9.375 3.24534 8.87034 3.75 8.25 3.75C7.62966 3.75 7.125 3.24534 7.125 2.625C7.125 2.00466 7.62966 1.5 8.25 1.5ZM23.9772 20.0684C23.8769 19.6663 23.4689 19.4202 23.0683 19.5227L20.6791 20.1196L17.9355 13.9453C17.8146 13.6743 17.5465 13.5 17.2499 13.5H11.1013L10.4349 10.5H15.7499C16.1645 10.5 16.4999 10.1646 16.4999 9.75C16.4999 9.33544 16.1645 9 15.7499 9H10.1017L9.73242 7.33739C9.64308 6.93309 9.24244 6.68114 8.83739 6.76758C8.43309 6.85767 8.17823 7.25831 8.26758 7.66261L9.76758 14.4126C9.84375 14.7561 10.1484 15 10.5 15H16.7628L19.5644 21.3047C19.6874 21.5801 19.9591 21.75 20.2499 21.75C20.31 21.75 20.3707 21.7427 20.4315 21.7273L23.4315 20.9773C23.8336 20.877 24.0783 20.4697 23.9772 20.0684ZM14.2492 17.2683C13.8383 17.1753 13.4428 17.4302 13.3512 17.8337C12.7279 20.581 10.3213 22.5 7.5 22.5C4.19166 22.5 1.5 19.8083 1.5 16.5C1.5 13.6787 3.41897 11.272 6.16627 10.6487C6.56981 10.5564 6.82322 10.155 6.73167 9.75075C6.63942 9.34645 6.23658 9.09155 5.83373 9.1853C2.39869 9.96534 0 12.9734 0 16.5C0 20.6353 3.36473 24 7.5 24C11.0266 24 14.0346 21.6013 14.8146 18.1663C14.9062 17.762 14.6528 17.3606 14.2492 17.2683Z" fill="white"/>
</g>
<defs>
<clipPath id="clip0_1084_6524">
<rect width="24" height="24" fill="white"/>
</clipPath>
</defs>
</svg>
