<svg width="20" height="14" viewBox="0 0 20 14" fill="none" xmlns="http://www.w3.org/2000/svg">
<g style="mix-blend-mode:luminosity">
<path d="M0 0.000152588H20V14H0V0.000152588Z" fill="#F0F0F0"/>
<path d="M11.25 0H8.75V5.68736H0V8.31231H8.75V13.9997H11.25V8.31231H20V5.68736H11.25V0Z" fill="#D80027"/>
<path d="M15.3821 9.43457L19.9999 12.1283V9.43457H15.3821ZM12.1738 9.43457L19.9999 13.9997V12.7088L14.3869 9.43457H12.1738ZM17.9153 13.9997L12.1738 10.6502V13.9997H17.9153Z" fill="#0052B4"/>
<path d="M12.1738 9.43457L19.9999 13.9997V12.7088L14.3869 9.43457H12.1738Z" fill="#F0F0F0"/>
<path d="M12.1738 9.43457L19.9999 13.9997V12.7088L14.3869 9.43457H12.1738Z" fill="#D80027"/>
<path d="M3.52895 9.43448L0 11.493V9.43448H3.52895ZM7.82609 10.015V13.9996H0.995742L7.82609 10.015Z" fill="#0052B4"/>
<path d="M5.61301 9.43457L0 12.7088V13.9997L7.82609 9.43457H5.61301Z" fill="#D80027"/>
<path d="M4.61777 4.56511L0 1.87142V4.56511H4.61777ZM7.82609 4.56511L0 0V1.2909L5.61301 4.56511H7.82609ZM2.08461 0L7.82609 3.34943V0H2.08461Z" fill="#0052B4"/>
<path d="M7.82609 4.56511L0 0V1.2909L5.61301 4.56511H7.82609Z" fill="#F0F0F0"/>
<path d="M7.82609 4.56511L0 0V1.2909L5.61301 4.56511H7.82609Z" fill="#D80027"/>
<path d="M16.471 4.56519L19.9999 2.50665V4.56519H16.471ZM12.1738 3.98466V3.05176e-05H19.0042L12.1738 3.98466Z" fill="#0052B4"/>
<path d="M14.3869 4.56511L19.9999 1.2909V0L12.1738 4.56511H14.3869Z" fill="#D80027"/>
</g>
</svg>
