<svg width="28" height="28" viewBox="0 0 28 28" fill="none" xmlns="http://www.w3.org/2000/svg">
<g clip-path="url(#clip0_1084_7680)">
<path d="M27.9851 14.2619C27.9851 13.1148 27.8899 12.2777 27.6837 11.4096H14.2788V16.5872H22.1472C21.9886 17.8739 21.132 19.8117 19.2283 21.1138L19.2016 21.2872L23.44 24.4957L23.7336 24.5244C26.4304 22.0905 27.9851 18.5095 27.9851 14.2619Z" fill="#4285F4"/>
<path d="M14.279 27.9038C18.1338 27.9038 21.37 26.6636 23.7338 24.5244L19.2284 21.1138C18.0228 21.9354 16.4047 22.509 14.279 22.509C10.5034 22.509 7.29893 20.0753 6.15662 16.7113L5.98919 16.7252L1.58205 20.0582L1.52441 20.2147C3.87223 24.7723 8.69485 27.9038 14.279 27.9038Z" fill="#34A853"/>
<path d="M6.15656 16.7113C5.85516 15.8432 5.68072 14.913 5.68072 13.9519C5.68072 12.9907 5.85516 12.0606 6.14071 11.1925L6.13272 11.0076L1.67036 7.62112L1.52435 7.68899C0.556705 9.58027 0.00146484 11.7041 0.00146484 13.9519C0.00146484 16.1997 0.556705 18.3234 1.52435 20.2147L6.15656 16.7113Z" fill="#FBBC05"/>
<path d="M14.279 5.3947C16.9599 5.3947 18.7683 6.52635 19.7995 7.47205L23.8289 3.6275C21.3542 1.37969 18.1338 0 14.279 0C8.69485 0 3.87223 3.1314 1.52441 7.68899L6.14077 11.1925C7.29893 7.82857 10.5034 5.3947 14.279 5.3947Z" fill="#EB4335"/>
</g>
<defs>
<clipPath id="clip0_1084_7680">
<rect width="28" height="28" fill="white"/>
</clipPath>
</defs>
</svg>
