<svg width="24" height="24" viewBox="0 0 24 24" fill="none" xmlns="http://www.w3.org/2000/svg">
<path d="M21 6H16.4999V4.5C16.4999 2.01853 14.4814 0 12 0C9.51853 0 7.5 2.01853 7.5 4.5V6H3C2.17153 6 1.5 6.67153 1.5 7.5V19.5C1.5 21.9853 3.51469 24 6 24H18C20.4853 24 22.5 21.9853 22.5 19.5V7.5C22.5 6.67153 21.8285 6 21 6ZM9 4.5C9 2.84545 10.3455 1.5 12 1.5C13.6545 1.5 14.9999 2.84545 14.9999 4.5V6H9V4.5ZM21 19.5C21 21.1542 19.6542 22.5 18 22.5H6C4.34583 22.5 3 21.1542 3 19.5V7.5H7.5V11.25C7.5 11.6646 7.83544 12 8.25 12C8.66456 12 9 11.6646 9 11.25V7.5H14.9999V11.25C14.9999 11.6646 15.3353 12 15.7499 12C16.1645 12 16.4999 11.6646 16.4999 11.25V7.5H21V19.5Z" fill="white"/>
</svg>
