<svg width="24" height="24" viewBox="0 0 24 24" fill="none" xmlns="http://www.w3.org/2000/svg">
<path d="M12 12C15.3138 12 18 9.31364 18 6C18 2.68636 15.3138 0 12 0C8.6865 0 6 2.68636 6 6C6 9.31364 8.6865 12 12 12ZM12 1.5C14.4814 1.5 16.5 3.51863 16.5 6C16.5 8.48128 14.4814 10.5 12 10.5C9.51863 10.5 7.5 8.48128 7.5 6C7.5 3.51863 9.51863 1.5 12 1.5ZM14.3749 14.25H9.62512C5.13792 14.25 1.5 17.8876 1.5 22.3749C1.5 23.2724 2.22764 24 3.12488 24H20.8751C21.7724 24 22.5 23.2724 22.5 22.3749C22.5 17.8876 18.8624 14.25 14.3749 14.25ZM20.8751 22.5H3.12488C3.05602 22.5 3 22.4439 3 22.3749C3 18.7219 5.97197 15.75 9.62512 15.75H14.3749C18.028 15.75 21 18.7219 21 22.3749C21 22.4439 20.944 22.5 20.8751 22.5Z" fill="white"/>
</svg>
