<svg width="85" height="85" viewBox="0 0 85 85" fill="none" xmlns="http://www.w3.org/2000/svg">
<g clip-path="url(#clip0_105_21710)">
<path d="M16.934 16.408C7.03478 31.6895 6.05619 51.2553 14.9411 67.1514C19.3924 75.1174 25.3953 80.4578 34.0653 79.7776C51.4114 78.4171 62.8323 63.6488 74.8677 70.1707C86.9032 76.6867 93.8607 37.9787 62.1639 33.957C30.4672 29.9292 30.8909 -4.79875 18.205 14.4627C17.7694 15.1251 17.3458 15.7755 16.934 16.408Z" fill="#DDE7FE"/>
<path d="M68.9489 24.5233L71.3536 22.1186C71.9264 21.5458 71.9264 20.6209 71.3536 20.048C70.7807 19.4752 69.8558 19.4752 69.283 20.048L66.8783 22.4527C62.7969 18.7055 57.7965 15.9427 52.2532 14.5524V6.32392H53.9239C54.7295 6.32392 55.3858 5.66755 55.3858 4.862C55.3858 4.05646 54.7295 3.40009 53.9239 3.40009H34.0717C33.2661 3.40009 32.6098 4.05646 32.6098 4.862C32.6098 5.66755 33.2661 6.32392 34.0717 6.32392H35.7425V14.5524C30.2051 15.9427 25.1988 18.7055 21.1173 22.4527L18.7126 20.048C18.1398 19.4752 17.2149 19.4752 16.6421 20.048C16.0692 20.6209 16.0692 21.5458 16.6421 22.1186L19.0468 24.5233C13.5094 30.5559 10.1261 38.5875 10.1261 47.4008C10.1261 49.358 10.2932 51.3211 10.6273 53.2365C10.7646 54.0301 11.5224 54.5672 12.316 54.424C13.1096 54.2867 13.6466 53.5289 13.5034 52.7353C13.1991 50.987 13.044 49.1909 13.044 47.4008C13.044 30.3411 26.9232 16.4619 43.9829 16.4619C61.0426 16.4619 74.9218 30.3411 74.9218 47.4008C74.9218 64.4605 61.0426 78.3397 43.9829 78.3397H23.5519C22.7463 78.3397 22.0899 78.9961 22.0899 79.8016C22.0899 80.6072 22.7463 81.2635 23.5519 81.2635H44.0008C62.6775 81.2635 77.8695 66.0716 77.8695 47.3948C77.8695 38.5816 74.4862 30.55 68.9489 24.5173V24.5233ZM38.6723 13.9557V6.32392H49.3293V13.9557C47.5929 13.6812 45.8148 13.538 44.0008 13.538C42.1868 13.538 40.4087 13.6812 38.6723 13.9617V13.9557Z" fill="#2363C1"/>
<path d="M1.46192 6.32383H20.3893C21.1948 6.32383 21.8512 5.66746 21.8512 4.86191C21.8512 4.05636 21.1948 3.39999 20.3893 3.39999H1.46192C0.656371 3.39999 0 4.05636 0 4.86191C0 5.66746 0.656371 6.32383 1.46192 6.32383Z" fill="#2363C1"/>
<path d="M1.46192 15.7935H10.0902C10.8958 15.7935 11.5521 15.1371 11.5521 14.3315C11.5521 13.526 10.8958 12.8696 10.0902 12.8696H1.46192C0.656371 12.8696 0 13.526 0 14.3315C0 15.1371 0.656371 15.7935 1.46192 15.7935Z" fill="#2363C1"/>
<path d="M68.3999 47.4006C68.3999 33.945 57.4564 23.0016 44.0008 23.0016C30.5452 23.0016 19.6017 33.945 19.6017 47.4006C19.6017 49.3996 19.8464 51.3985 20.3357 53.3378C20.5326 54.1195 21.3262 54.5969 22.1079 54.3999C22.8896 54.203 23.3669 53.4094 23.17 52.6277C22.7404 50.9212 22.5256 49.1609 22.5256 47.4006C22.5256 35.5561 32.1623 25.9254 44.0008 25.9254C55.8394 25.9254 65.4761 35.5561 65.4761 47.4006C65.4761 59.2452 55.8453 68.8759 44.0008 68.8759H12.507C11.7014 68.8759 11.045 69.5323 11.045 70.3378C11.045 71.1434 11.7014 71.7997 12.507 71.7997H44.0008C57.4564 71.7997 68.3999 60.8562 68.3999 47.4006Z" fill="#2363C1"/>
<path d="M37.5742 60.8744C37.5742 60.0689 36.9179 59.4125 36.1123 59.4125H1.46192C0.656371 59.4125 0 60.0689 0 60.8744C0 61.68 0.656371 62.3363 1.46192 62.3363H36.1123C36.9179 62.3363 37.5742 61.68 37.5742 60.8744Z" fill="#2363C1"/>
<path d="M44.0011 31.2002C43.1955 31.2002 42.5392 31.8566 42.5392 32.6621V44.8706C41.668 45.3778 41.0772 46.3206 41.0772 47.4006C41.0772 49.0117 42.39 50.3245 44.0011 50.3245C45.6122 50.3245 46.9249 49.0117 46.9249 47.4006C46.9249 46.3206 46.3342 45.3778 45.463 44.8706V32.6621C45.463 31.8566 44.8066 31.2002 44.0011 31.2002Z" fill="#2363C1"/>
<path d="M6.4982 72.1279C5.53154 72.1279 4.7439 71.3403 4.7439 70.3736C4.7439 69.407 5.52557 68.6193 6.4982 68.6193C7.47082 68.6193 8.2525 69.407 8.2525 70.3736C8.2525 71.3403 7.47082 72.1279 6.4982 72.1279Z" fill="#2363C1"/>
</g>
<defs>
<clipPath id="clip0_105_21710">
<rect width="85" height="77.8635" fill="white" transform="translate(0 3.39999)"/>
</clipPath>
</defs>
</svg>
