<svg width="85" height="85" viewBox="0 0 85 85" fill="none" xmlns="http://www.w3.org/2000/svg">
<g clip-path="url(#clip0_128_15926)">
<path d="M83.9096 57.5844C76.0158 39.4864 77.9807 24.2368 54.0616 18.7893C30.148 13.3418 15.8271 35.7151 5.9174 28.767C-3.99797 21.8245 -6.43859 60.7159 39.4122 68.4284C66.3836 72.9642 90.4556 72.5848 83.9152 57.5844H83.9096Z" fill="#DDE7FE"/>
<path d="M11.0535 34.5713C11.1101 41.4175 16.6425 47.0405 23.4944 47.1708C24.3778 47.1878 25.1196 47.9013 25.1252 48.8016C25.1535 55.6138 25.1875 62.4261 25.2158 69.2383C25.2158 70.1896 25.2272 71.1409 25.2272 72.0923C24.961 71.6223 24.6892 71.1523 24.4231 70.6879C34.01 75.9599 45.4996 77.217 56.0039 74.1875C58.9485 73.3381 61.7855 72.1659 64.4696 70.6879C64.2034 71.1579 63.9316 71.6279 63.6655 72.0923C63.6372 65.28 63.6032 58.4678 63.5749 51.6613C63.5749 50.71 63.5635 49.7586 63.5635 48.8073C63.5635 47.9296 64.311 47.1764 65.1944 47.1764C70.4041 47.1764 75.3136 43.8808 77.0804 38.9259C77.9977 36.3494 78.1167 33.5917 77.2219 30.9868C76.3386 28.4216 74.4869 26.1169 72.3067 24.5257C69.6736 22.6117 66.5874 21.5188 63.3201 21.7C62.5669 21.7397 61.9837 21.1564 61.7515 20.5052C59.7922 15.086 54.9336 11.7393 49.4465 10.5785C43.8234 9.38933 37.4019 10.1481 32.6 13.4438C30.1027 15.1596 28.2001 17.6625 27.1695 20.5052C26.9373 21.1564 26.3484 21.7453 25.6009 21.7C18.5112 21.3036 11.1384 27.2381 11.0704 34.5713C11.0478 36.6665 7.79175 36.6722 7.8144 34.5713C7.89935 25.5393 16.7331 17.9457 25.6009 18.4383C25.0799 18.8347 24.5533 19.2367 24.0323 19.6331C26.3427 13.1947 31.8695 8.89102 38.4835 7.4527C45.0636 6.0257 52.7365 6.84113 58.3029 10.8673C61.3721 13.0871 63.5975 16.0713 64.883 19.6331C64.362 19.2367 63.8354 18.8347 63.3144 18.4383C70.1209 18.0589 77.0238 22.4758 79.7815 28.6764C82.5392 34.8714 80.6649 42.4028 75.4382 46.7121C72.5446 49.0961 68.9544 50.4268 65.1944 50.4268C65.738 49.8832 66.2816 49.3396 66.8253 48.796C66.8536 55.6082 66.8875 62.4204 66.9159 69.2269C66.9159 70.1783 66.9272 71.1296 66.9272 72.0809C66.9272 72.6415 66.6157 73.2135 66.1231 73.4853C55.749 79.1933 43.2741 80.5919 31.8978 77.2736C28.738 76.3506 25.6689 75.0708 22.7809 73.4853C22.2826 73.2078 21.9768 72.6415 21.9768 72.0809C21.9485 65.2687 21.9145 58.4565 21.8862 51.6443C21.8862 50.693 21.8749 49.7416 21.8749 48.7903C22.4185 49.3339 22.9621 49.8775 23.5057 50.4212C19.3493 50.3419 15.3345 48.6884 12.4012 45.7268C9.46225 42.7595 7.84272 38.7277 7.80874 34.5656C7.79175 32.4704 11.0478 32.4648 11.0648 34.5656L11.0535 34.5713Z" fill="#2363C1"/>
<path d="M55.5565 23.5459C53.4217 19.5934 49.6616 17.1018 45.273 16.3713C44.4067 16.2241 43.9197 15.1538 44.1349 14.3667C44.3897 13.4437 45.2674 13.0813 46.1394 13.2285C51.3038 14.0893 55.8736 17.283 58.3708 21.8981C59.3675 23.7441 56.5531 25.392 55.5565 23.5403V23.5459Z" fill="#2363C1"/>
<path d="M70.1266 37.6009C70.8741 35.2452 70.5569 32.714 69.0224 30.7377C68.105 29.5542 67.199 28.869 65.8626 28.2121C65.0755 27.8271 64.8603 26.7002 65.2793 25.981C65.7493 25.1769 66.712 25.0071 67.5104 25.3978C72.3294 27.7591 74.9172 33.2859 73.275 38.4616C72.6408 40.4492 69.498 39.5998 70.1322 37.5952L70.1266 37.6009Z" fill="#2363C1"/>
<path d="M24.3834 44.413C19.0209 43.49 15.4081 38.5578 15.5327 33.2235C15.5836 31.1283 18.8397 31.1227 18.7887 33.2235C18.7887 33.4104 18.7887 33.6029 18.7887 33.7898C18.7944 33.9653 18.8057 34.1352 18.8227 34.3108C18.8283 34.4014 18.8397 34.492 18.851 34.5826C18.8793 34.8317 18.8113 34.3221 18.851 34.5939C19.0039 35.5509 19.2587 36.5135 19.7004 37.3686C20.8329 39.5487 22.8488 40.8625 25.2442 41.2759C26.1106 41.4231 26.5975 42.4933 26.3824 43.2804C26.1275 44.1978 25.2498 44.5659 24.3778 44.4186L24.3834 44.413Z" fill="#2363C1"/>
<path d="M43.5686 72.6755C40.3465 72.6755 36.8923 72.2678 33.3758 71.1862C32.4811 70.9087 31.9771 69.9631 32.2489 69.0627C32.5207 68.1623 33.4777 67.664 34.3724 67.9358C47.2494 71.8884 59.6959 65.733 59.8205 65.6707C60.6586 65.2517 61.6779 65.5858 62.1026 66.4239C62.5273 67.262 62.1875 68.2812 61.3494 68.7059C60.9304 68.9155 53.3311 72.6698 43.5686 72.6698V72.6755Z" fill="#2363C1"/>
<path d="M29.1401 69.3119C30.0814 69.3119 30.8446 68.5487 30.8446 67.6074C30.8446 66.666 30.0814 65.9029 29.1401 65.9029C28.1987 65.9029 27.4356 66.666 27.4356 67.6074C27.4356 68.5487 28.1987 69.3119 29.1401 69.3119Z" fill="#2363C1"/>
</g>
<defs>
<clipPath id="clip0_128_15926">
<rect width="85" height="85" fill="white"/>
</clipPath>
</defs>
</svg>
