<svg width="85" height="85" viewBox="0 0 85 85" fill="none" xmlns="http://www.w3.org/2000/svg">
<g clip-path="url(#clip0_128_15918)">
<path d="M9.02557 10.9904C-2.02489 28.1215 -3.11728 50.0555 6.80083 67.8756C11.7699 76.8057 18.4708 82.7926 28.1491 82.03C47.5124 80.5048 60.2614 63.949 73.6964 71.2603C87.1315 78.565 94.8982 35.172 59.5154 30.6634C24.1325 26.1482 24.5988 -12.7831 10.4444 8.80972C9.9581 9.55222 9.48518 10.2813 9.02557 10.9904Z" fill="#DDE7FE"/>
<path d="M70.1262 77.3475H14.8739C10.7175 77.3475 7.33374 73.9561 7.33374 69.7954C7.33374 67.1197 8.76584 64.6179 11.0772 63.2734L15.1337 60.9054C16.2461 60.2565 16.9388 59.0458 16.9388 57.7548V37.3259C16.9388 31.319 19.0703 25.4726 22.9403 20.8704C26.5039 16.6294 31.353 13.6527 36.6951 12.4018V6.00692C36.6951 2.82954 39.0863 0.193984 42.1437 0.0133746C43.7623 -0.0869638 45.301 0.474931 46.48 1.58534C47.639 2.68238 48.3051 4.22759 48.3051 5.833V12.4018C53.6471 13.6527 58.4963 16.6294 62.0599 20.8704C65.9299 25.4726 68.0614 31.3123 68.0614 37.3259V57.7548C68.0614 59.0458 68.7541 60.2499 69.8665 60.9054L73.923 63.2734C76.2276 64.6246 77.6664 67.1197 77.6664 69.7954C77.6664 73.9628 74.2826 77.3475 70.1262 77.3475ZM42.5034 2.81616C42.4435 2.81616 42.3768 2.81616 42.3169 2.81616C40.7649 2.90981 39.4993 4.3413 39.4993 6.00023V13.539C39.4993 14.2146 39.0197 14.7966 38.3536 14.9237C33.1981 15.8802 28.4888 18.6362 25.0851 22.6832C21.6414 26.777 19.7497 31.9745 19.7497 37.3192V57.7481C19.7497 60.0358 18.5241 62.1764 16.5458 63.3269L12.4893 65.6949C11.0372 66.5444 10.138 68.1097 10.138 69.7887C10.138 72.4042 12.2628 74.5247 14.8739 74.5247H70.1262C72.7373 74.5247 74.8622 72.3975 74.8622 69.7887C74.8622 68.1097 73.9629 66.5444 72.5108 65.6949L68.4543 63.3269C66.4827 62.1764 65.2504 60.0358 65.2504 57.7481V37.3192C65.2504 31.9745 63.3521 26.777 59.915 22.6832C56.5113 18.6362 51.802 15.8802 46.6465 14.9237C45.9804 14.8033 45.5008 14.2213 45.5008 13.539V5.833C45.5008 4.99016 45.1678 4.21421 44.555 3.63894C43.9888 3.1038 43.2694 2.81616 42.4967 2.81616H42.5034Z" fill="#2363C1"/>
<path d="M24.339 36.1018C24.2524 36.1018 24.1658 36.0951 24.0792 36.075C23.3199 35.9346 22.8137 35.1987 22.9602 34.4362C23.613 30.9109 25.1783 27.5998 27.4763 24.8572C29.7144 22.1949 32.6052 20.1212 35.8358 18.8503C36.5551 18.5693 37.3678 18.9238 37.6475 19.6463C37.9273 20.3687 37.5743 21.1848 36.8549 21.4658C34.0573 22.5628 31.5595 24.3622 29.6211 26.6633C27.6295 29.0313 26.284 31.8943 25.7178 34.9379C25.5913 35.6135 25.0051 36.0884 24.339 36.0884V36.1018Z" fill="#2363C1"/>
<path d="M42.4834 85C39.8324 85 37.3279 84.1505 35.243 82.5384C33.2247 80.9798 31.7394 78.7657 31.0599 76.3041C30.8535 75.5549 31.2931 74.7789 32.0391 74.5715C32.7851 74.3642 33.5578 74.8057 33.7643 75.5549C34.2772 77.4278 35.4095 79.1135 36.9482 80.3042C38.5402 81.535 40.4518 82.1839 42.4834 82.1839C46.5666 82.1839 50.1701 79.4547 51.2492 75.5549C51.4557 74.8057 52.2284 74.3709 52.9744 74.5782C53.7204 74.7856 54.1534 75.5616 53.9469 76.3107C53.2675 78.7724 51.7754 80.9865 49.7438 82.5451C47.6523 84.1505 45.1411 85 42.4834 85Z" fill="#2363C1"/>
</g>
<defs>
<clipPath id="clip0_128_15918">
<rect width="85" height="85" fill="white"/>
</clipPath>
</defs>
</svg>
