<svg width="85" height="85" viewBox="0 0 85 85" fill="none" xmlns="http://www.w3.org/2000/svg">
<g clip-path="url(#clip0_105_21702)">
<path d="M84.8697 54.747C83.9938 36.1915 73.1724 19.3878 56.3563 11.4984C47.9327 7.5413 39.7762 6.68403 32.9926 12.4054C19.4192 23.8418 18.7296 42.8757 4.87047 44.6213C-8.98249 46.3731 8.26227 82.602 36.9311 67.0904C65.5998 51.5788 85.9009 80.6141 84.9629 57.1075C84.9319 56.2938 84.8946 55.511 84.8573 54.7407L84.8697 54.747Z" fill="#DDE7FE"/>
<path d="M32.3405 69.091H23.0162C22.072 69.091 21.3017 68.3207 21.3017 67.3764V17.8785C21.3017 16.9343 22.072 16.164 23.0162 16.164H41.9382C52.0329 16.164 60.2452 24.3142 60.2452 34.3343C60.2452 44.3544 52.0329 52.5047 41.9382 52.5047H39.062C38.1178 52.5047 37.3475 51.7344 37.3475 50.7901C37.3475 49.8459 38.1178 49.0756 39.062 49.0756H41.9382C50.1382 49.0756 56.8162 42.4659 56.8162 34.3405C56.8162 26.2151 50.1444 19.5993 41.9382 19.5993H24.7307V65.6619H30.626V50.7839C30.626 49.8397 31.3963 49.0694 32.3405 49.0694C33.2848 49.0694 34.0551 49.8397 34.0551 50.7839V67.3764C34.0551 68.3207 33.2848 69.091 32.3405 69.091Z" fill="#2363C1"/>
<path d="M41.9381 43.1802H32.3404C31.3962 43.1802 30.6259 42.4099 30.6259 41.4657V27.2027C30.6259 26.2585 31.3962 25.4882 32.3404 25.4882H41.9381C46.8953 25.4882 50.7841 29.3707 50.7841 34.3342C50.7841 39.2977 46.8146 43.1802 41.9381 43.1802ZM34.055 39.7511H41.9381C44.9261 39.7511 47.355 37.3222 47.355 34.3342C47.355 31.3462 44.9758 28.9173 41.9381 28.9173H34.055V39.7511Z" fill="#2363C1"/>
<path d="M65.6622 82.2542H15.7481C7.69722 82.2542 1.14346 75.6383 1.14346 67.5129V26.5194C1.14346 25.5751 1.91376 24.8048 2.858 24.8048C3.80224 24.8048 4.57254 25.5751 4.57254 26.5194V67.5129C4.57254 73.7499 9.58569 78.8251 15.7481 78.8251H65.6622C71.7935 78.8251 76.9744 73.6443 76.9744 67.5129V17.605C76.9744 11.4426 71.8992 6.42947 65.6622 6.42947H15.7481C9.58569 6.42947 4.57254 11.4426 4.57254 17.605C4.57254 18.5493 3.80224 19.3196 2.858 19.3196C1.91376 19.3196 1.14346 18.5493 1.14346 17.605C1.14346 9.55415 7.69722 3.0004 15.7481 3.0004H65.6622C73.7876 3.0004 80.4035 9.55415 80.4035 17.605V67.5129C80.4035 75.6383 73.7876 82.2542 65.6622 82.2542Z" fill="#2363C1"/>
</g>
<defs>
<clipPath id="clip0_105_21702">
<rect width="85" height="79.2538" fill="white" transform="translate(0 3)"/>
</clipPath>
</defs>
</svg>
