<svg width="39" height="35" viewBox="0 0 39 35" fill="none" xmlns="http://www.w3.org/2000/svg">
<g clip-path="url(#clip0_1604_15418)">
<path d="M31.4176 12.0312H25.363L18.5868 1.09908C18.2176 0.451787 17.4443 0 16.7058 0H12.2699C11.5832 0 10.9516 0.317256 10.5391 0.871582C10.1265 1.42488 9.99845 2.12447 10.1952 2.81661L13.0728 12.0312H9.20816L6.60775 8.53104C6.20042 7.98308 5.55299 7.65625 4.87482 7.65625H2.16649C1.49469 7.65625 0.872651 7.96277 0.459021 8.49789C0.0464064 9.03198 -0.0974738 9.71667 0.0770783 10.4141L2.12099 17.5L0.0665158 24.6254C-0.0974738 25.2833 0.0464064 25.968 0.459021 26.5021C0.872651 27.0372 1.49469 27.3438 2.16649 27.3438H4.87482C5.55299 27.3438 6.20042 27.0169 6.60883 26.4679L9.20816 22.9688H13.0728L10.1878 32.209C9.99845 32.8755 10.1265 33.5741 10.5391 34.1284C10.9527 34.6827 11.5832 35 12.2699 35H16.7058C17.4813 35 18.2017 34.577 18.5636 33.9351L25.363 22.9688H31.4176C34.0212 22.9688 39.0009 20.8389 39.0009 17.5C39.0009 14.1611 34.0212 12.0312 31.4176 12.0312ZM31.4176 20.7812H24.1632L16.7058 32.8125L12.2625 32.8403L16.0266 20.7812H8.12482L4.87482 25.1562L2.15701 25.1969L4.37866 17.5L2.16649 9.84375H4.87591L8.12482 14.2188H16.0266L12.2699 2.1875H16.7058L24.1632 14.2188H31.4176C33.5568 14.2188 36.8342 15.979 36.8342 17.5C36.8342 19.021 33.5568 20.7812 31.4176 20.7812Z" fill="#01112C"/>
</g>
<defs>
<clipPath id="clip0_1604_15418">
<rect width="39" height="35" fill="white"/>
</clipPath>
</defs>
</svg>
