<svg width="30" height="39" viewBox="0 0 30 39" fill="none" xmlns="http://www.w3.org/2000/svg">
<path d="M22.5 0H7.5C4.73859 0 2.5 2.18263 2.5 4.875V34.125C2.5 36.8174 4.73859 39 7.5 39H22.5C25.2614 39 27.5 36.8174 27.5 34.125V4.875C27.5 2.18263 25.2614 0 22.5 0ZM25 34.125C25 35.4691 23.8785 36.5625 22.5 36.5625H7.5C6.12148 36.5625 5 35.4691 5 34.125V4.875C5 3.53095 6.12148 2.4375 7.5 2.4375H22.5C23.8785 2.4375 25 3.53095 25 4.875V34.125ZM17.5 30.4688H12.5C11.8097 30.4688 11.25 31.0143 11.25 31.6875C11.25 32.3606 11.8097 32.9062 12.5 32.9062H17.5C18.1903 32.9062 18.75 32.3606 18.75 31.6875C18.75 31.0143 18.1903 30.4688 17.5 30.4688Z" fill="#01112C"/>
</svg>
