<svg width="124" height="124" viewBox="0 0 124 124" fill="none" xmlns="http://www.w3.org/2000/svg">
<path d="M26.5029 11.1402C36.9254 3.8314 49.6498 -0.241568 62.4063 0.00796127C78.3661 -0.177173 94.189 6.45548 105.537 17.628C116.104 27.915 122.873 42.114 123.935 56.8443C124.274 58.5266 123.187 59.8789 122.157 61.0622C117.046 66.8255 112.048 72.8705 108.797 79.9137C110.028 84.8721 110.535 90.4503 107.952 95.0867C105.722 99.2804 101.618 102.09 97.2312 103.675C95.4123 100.158 93.521 96.2941 94.2775 92.2211C95.1065 86.7234 99.1548 82.5056 103.364 79.2215C102.607 65.4491 96.4586 52.1757 86.5109 42.6453C76.5552 52.1757 70.3419 65.4812 69.682 79.2778C73.9154 82.5217 77.9073 86.7878 78.7363 92.2694C79.5009 96.3424 77.5693 100.174 75.7665 103.675C70.9938 101.969 66.5431 98.7169 64.5069 93.9356C62.4626 89.5246 62.9375 84.4857 64.2494 79.9379C59.3801 69.8359 51.525 61.6015 43.9355 53.5038C43.8952 63.9599 43.8791 74.416 43.9194 84.8721C51.1306 91.1425 56.4908 99.6668 58.3661 109.084C59.4043 113.987 59.0904 119.05 58.6317 124C45.682 122.978 32.9737 118.301 22.9133 110.002C10.189 99.7714 1.94756 84.2845 0.32985 68.057C-2.0283 46.2111 8.37814 23.5684 26.5029 11.1402Z" fill="#024994"/>
</svg>
