<svg width="124" height="124" viewBox="0 0 124 124" fill="none" xmlns="http://www.w3.org/2000/svg">
<g clip-path="url(#clip0_67_11502)">
<path d="M37.189 5.27604C57.3999 -3.83616 82.4525 -0.989101 99.9691 12.6511C112.692 22.2297 121.33 36.9315 123.687 52.6627C121.982 53.9335 119.698 55.164 119.577 57.5607C118.99 60.1504 121.097 62.0082 122.722 63.6489C118.242 70.6539 113.802 77.6912 109.234 84.6319C105.044 70.7344 100.918 56.8207 96.8326 42.891C98.3204 41.7973 100.331 40.9608 100.894 39.0145C102.157 35.8136 99.5429 31.8647 96.0846 31.8808C92.7228 31.5671 89.7712 34.9611 90.5352 38.2505C90.7926 40.607 93.0928 41.7329 94.8299 42.9393C90.6478 56.676 86.7472 70.4931 82.4846 84.2056C81.5919 83.3772 80.8359 82.4202 80.2006 81.3907C76.4929 75.4231 72.6486 69.5521 68.8766 63.6247C70.3243 62.1529 72.2465 60.657 72.1258 58.3488C72.2706 54.7779 68.3539 51.9309 65.0001 53.2257C61.6223 54.1747 60.3676 58.6786 62.3541 61.4372C63.4158 63.11 65.539 63.3674 67.244 64.0429C66.7936 73.0747 66.4639 82.1065 65.9411 91.1302C57.3356 78.6965 48.8346 66.1823 40.3336 53.6761C41.5239 51.7539 43.1485 49.5342 42.103 47.1697C41.1057 43.8722 36.6582 42.4648 33.9318 44.5478C31.2375 46.3333 30.9158 50.6119 33.2642 52.8075C34.6637 54.3597 36.8995 54.1426 38.7814 54.4482C46.1565 77.6268 53.5476 100.805 60.8743 124C48.4968 123.469 36.2078 119.553 26.1546 112.242C14.9996 104.264 6.63537 92.4975 2.80712 79.3318C-1.1096 66.0455 -0.393818 51.4403 4.86601 38.6285C10.7692 23.8785 22.6481 11.6699 37.189 5.27604Z" fill="#41EAD4"/>
</g>
<defs>
<clipPath id="clip0_67_11502">
<rect width="123.373" height="124" fill="white" transform="translate(0.31366)"/>
</clipPath>
</defs>
</svg>
