<svg width="132" height="126" viewBox="0 0 132 126" fill="none" xmlns="http://www.w3.org/2000/svg">
<g clip-path="url(#clip0_67_11496)">
<path d="M52.2179 1.10859C66.4377 -1.52196 81.5923 0.50472 94.3562 7.42023C108.377 14.799 119.305 27.6291 124.591 42.552C123.077 44.4877 121.414 46.4317 120.695 48.8306C119.826 51.6431 120.289 54.6211 120.72 57.4667C121.969 65.1019 123.11 72.7619 124.293 80.4136C120.447 80.4054 116.608 80.4054 112.77 80.4136C113.366 75.5744 114.606 70.8014 114.689 65.9126C114.673 61.1561 111.331 57.4419 107.732 54.7617C104.316 57.2764 101.09 60.668 100.792 65.135C100.585 70.2885 102.066 75.318 102.661 80.4054C99.4022 80.4136 96.1512 80.4054 92.9003 80.4219C94.2735 71.1323 95.7707 61.8592 97.1853 52.5779C98.0125 48.2681 96.7882 43.4951 93.4463 40.5254C89.914 37.4316 86.0261 34.7762 82.3037 31.9223C78.6557 34.9665 74.6354 37.5557 71.1115 40.7404C67.6702 43.9252 66.7686 48.9547 67.7033 53.3968C69.1427 62.3969 70.5076 71.4053 71.9139 80.4054C68.6381 80.4385 65.3623 80.3971 62.0865 80.3557C62.7731 75.2518 64.229 70.181 63.9809 64.9944C63.4597 60.8997 60.7713 56.6064 56.8172 55.1919C52.5488 57.6073 49.637 62.5127 50.1333 67.476C50.489 71.8189 51.4403 76.079 52.0359 80.3888C48.1728 80.4385 44.3097 80.4136 40.4549 80.3557C41.795 72.2159 42.9944 64.0431 44.2932 55.895C45.0046 52.0981 44.5082 47.9041 42.0183 44.8269C39.6194 41.9151 36.3105 39.9711 33.3905 37.6384C33.3822 61.0403 33.3739 84.4422 33.3987 107.844C59.0507 107.844 84.7109 107.786 110.371 107.869C106.855 110.764 103.836 115.703 98.757 115.454C76.9764 115.397 55.1959 115.438 33.407 115.43C33.3905 116.761 33.3739 118.093 33.3574 119.433C19.9317 111.922 9.31026 99.5223 4.23116 84.9799C-3.83419 62.7609 1.76606 36.2983 18.4179 19.4562C27.4345 10.0508 39.4209 3.55714 52.2179 1.10859Z" fill="#FFA987"/>
</g>
<defs>
<clipPath id="clip0_67_11496">
<rect width="130.817" height="126" fill="white" transform="translate(0.59137)"/>
</clipPath>
</defs>
</svg>
